%TF.GenerationSoftware,KiCad,Pcbnew,7.0.2*%
%TF.CreationDate,2023-05-12T00:45:21-04:00*%
%TF.ProjectId,H503-0.2,48353033-2d30-42e3-922e-6b696361645f,rev?*%
%TF.SameCoordinates,Original*%
%TF.FileFunction,Copper,L4,Bot*%
%TF.FilePolarity,Positive*%
%FSLAX46Y46*%
G04 Gerber Fmt 4.6, Leading zero omitted, Abs format (unit mm)*
G04 Created by KiCad (PCBNEW 7.0.2) date 2023-05-12 00:45:21*
%MOMM*%
%LPD*%
G01*
G04 APERTURE LIST*
G04 Aperture macros list*
%AMRoundRect*
0 Rectangle with rounded corners*
0 $1 Rounding radius*
0 $2 $3 $4 $5 $6 $7 $8 $9 X,Y pos of 4 corners*
0 Add a 4 corners polygon primitive as box body*
4,1,4,$2,$3,$4,$5,$6,$7,$8,$9,$2,$3,0*
0 Add four circle primitives for the rounded corners*
1,1,$1+$1,$2,$3*
1,1,$1+$1,$4,$5*
1,1,$1+$1,$6,$7*
1,1,$1+$1,$8,$9*
0 Add four rect primitives between the rounded corners*
20,1,$1+$1,$2,$3,$4,$5,0*
20,1,$1+$1,$4,$5,$6,$7,0*
20,1,$1+$1,$6,$7,$8,$9,0*
20,1,$1+$1,$8,$9,$2,$3,0*%
G04 Aperture macros list end*
%TA.AperFunction,ComponentPad*%
%ADD10C,1.000000*%
%TD*%
%TA.AperFunction,ComponentPad*%
%ADD11R,1.000000X1.000000*%
%TD*%
%TA.AperFunction,ComponentPad*%
%ADD12O,1.000000X1.000000*%
%TD*%
%TA.AperFunction,ComponentPad*%
%ADD13O,1.550000X0.890000*%
%TD*%
%TA.AperFunction,ComponentPad*%
%ADD14O,0.950000X1.250000*%
%TD*%
%TA.AperFunction,SMDPad,CuDef*%
%ADD15RoundRect,0.225000X-0.225000X-0.250000X0.225000X-0.250000X0.225000X0.250000X-0.225000X0.250000X0*%
%TD*%
%TA.AperFunction,SMDPad,CuDef*%
%ADD16RoundRect,0.150000X-0.150000X0.512500X-0.150000X-0.512500X0.150000X-0.512500X0.150000X0.512500X0*%
%TD*%
%TA.AperFunction,SMDPad,CuDef*%
%ADD17RoundRect,0.225000X0.250000X-0.225000X0.250000X0.225000X-0.250000X0.225000X-0.250000X-0.225000X0*%
%TD*%
%TA.AperFunction,SMDPad,CuDef*%
%ADD18RoundRect,0.200000X-0.200000X-0.275000X0.200000X-0.275000X0.200000X0.275000X-0.200000X0.275000X0*%
%TD*%
%TA.AperFunction,SMDPad,CuDef*%
%ADD19RoundRect,0.225000X-0.250000X0.225000X-0.250000X-0.225000X0.250000X-0.225000X0.250000X0.225000X0*%
%TD*%
%TA.AperFunction,SMDPad,CuDef*%
%ADD20RoundRect,0.200000X0.200000X0.275000X-0.200000X0.275000X-0.200000X-0.275000X0.200000X-0.275000X0*%
%TD*%
%TA.AperFunction,ComponentPad*%
%ADD21R,1.700000X1.700000*%
%TD*%
%TA.AperFunction,ComponentPad*%
%ADD22O,1.700000X1.700000*%
%TD*%
%TA.AperFunction,SMDPad,CuDef*%
%ADD23RoundRect,0.225000X0.225000X0.250000X-0.225000X0.250000X-0.225000X-0.250000X0.225000X-0.250000X0*%
%TD*%
%TA.AperFunction,SMDPad,CuDef*%
%ADD24RoundRect,0.112500X0.112500X-0.187500X0.112500X0.187500X-0.112500X0.187500X-0.112500X-0.187500X0*%
%TD*%
%TA.AperFunction,SMDPad,CuDef*%
%ADD25RoundRect,0.250000X0.250000X0.475000X-0.250000X0.475000X-0.250000X-0.475000X0.250000X-0.475000X0*%
%TD*%
%TA.AperFunction,SMDPad,CuDef*%
%ADD26RoundRect,0.250000X-0.475000X0.250000X-0.475000X-0.250000X0.475000X-0.250000X0.475000X0.250000X0*%
%TD*%
%TA.AperFunction,SMDPad,CuDef*%
%ADD27RoundRect,0.112500X0.187500X0.112500X-0.187500X0.112500X-0.187500X-0.112500X0.187500X-0.112500X0*%
%TD*%
%TA.AperFunction,ViaPad*%
%ADD28C,0.508000*%
%TD*%
%TA.AperFunction,ViaPad*%
%ADD29C,0.711200*%
%TD*%
%TA.AperFunction,ViaPad*%
%ADD30C,0.660400*%
%TD*%
%TA.AperFunction,Conductor*%
%ADD31C,0.152451*%
%TD*%
%TA.AperFunction,Conductor*%
%ADD32C,0.304800*%
%TD*%
%TA.AperFunction,Conductor*%
%ADD33C,0.609600*%
%TD*%
%TA.AperFunction,Conductor*%
%ADD34C,0.203200*%
%TD*%
%TA.AperFunction,Conductor*%
%ADD35C,0.153670*%
%TD*%
G04 APERTURE END LIST*
D10*
%TO.P,TP1,1,1*%
%TO.N,/PH1*%
X100540000Y-55110000D03*
%TD*%
%TO.P,TP3,1,1*%
%TO.N,/I2C2_SCL*%
X83500000Y-51500000D03*
%TD*%
D11*
%TO.P,J3,1,Pin_1*%
%TO.N,+3.3V*%
X115062000Y-64693800D03*
D12*
%TO.P,J3,2,Pin_2*%
%TO.N,/SWDIO*%
X113792000Y-64693800D03*
%TO.P,J3,3,Pin_3*%
%TO.N,GND*%
X115062000Y-63423800D03*
%TO.P,J3,4,Pin_4*%
%TO.N,/SWCLK*%
X113792000Y-63423800D03*
%TO.P,J3,5,Pin_5*%
%TO.N,GND*%
X115062000Y-62153800D03*
%TO.P,J3,6,Pin_6*%
%TO.N,unconnected-(J3-Pin_6-Pad6)*%
X113792000Y-62153800D03*
%TO.P,J3,7,Pin_7*%
%TO.N,unconnected-(J3-Pin_7-Pad7)*%
X115062000Y-60883800D03*
%TO.P,J3,8,Pin_8*%
%TO.N,unconnected-(J3-Pin_8-Pad8)*%
X113792000Y-60883800D03*
%TO.P,J3,9,Pin_9*%
%TO.N,unconnected-(J3-Pin_9-Pad9)*%
X115062000Y-59613800D03*
%TO.P,J3,10,Pin_10*%
%TO.N,/nRESET*%
X113792000Y-59613800D03*
%TO.P,J3,11,Pin_11*%
%TO.N,unconnected-(J3-Pin_11-Pad11)*%
X115062000Y-58343800D03*
%TO.P,J3,12,Pin_12*%
%TO.N,/TRACECK*%
X113792000Y-58343800D03*
%TO.P,J3,13,Pin_13*%
%TO.N,unconnected-(J3-Pin_13-Pad13)*%
X115062000Y-57073800D03*
%TO.P,J3,14,Pin_14*%
%TO.N,/TRACED0*%
X113792000Y-57073800D03*
%TO.P,J3,15,Pin_15*%
%TO.N,GND*%
X115062000Y-55803800D03*
%TO.P,J3,16,Pin_16*%
%TO.N,/TRACED1*%
X113792000Y-55803800D03*
%TO.P,J3,17,Pin_17*%
%TO.N,GND*%
X115062000Y-54533800D03*
%TO.P,J3,18,Pin_18*%
%TO.N,/TRACED2*%
X113792000Y-54533800D03*
%TO.P,J3,19,Pin_19*%
%TO.N,GND*%
X115062000Y-53263800D03*
%TO.P,J3,20,Pin_20*%
%TO.N,/TRACED3*%
X113792000Y-53263800D03*
%TD*%
D10*
%TO.P,TP7,1,1*%
%TO.N,/PC13*%
X89992200Y-64770000D03*
%TD*%
%TO.P,TP14,1,1*%
%TO.N,/I3C2_SCL*%
X88830000Y-47260000D03*
%TD*%
%TO.P,TP9,1,1*%
%TO.N,/PC15*%
X94157800Y-64922400D03*
%TD*%
D13*
%TO.P,J4,6,Shield*%
%TO.N,GND*%
X68042000Y-59340000D03*
D14*
X70742000Y-58340000D03*
X70742000Y-53340000D03*
D13*
X68042000Y-52340000D03*
%TD*%
D10*
%TO.P,TP6,1,1*%
%TO.N,/I3C2_SDA*%
X84000000Y-61000000D03*
%TD*%
%TO.P,TP11,1,1*%
%TO.N,/ADC_INP5*%
X100838000Y-50800000D03*
%TD*%
%TO.P,TP5,1,1*%
%TO.N,/PC10*%
X82500000Y-61000000D03*
%TD*%
%TO.P,TP8,1,1*%
%TO.N,/PC14*%
X92760800Y-64922400D03*
%TD*%
%TO.P,TP12,1,1*%
%TO.N,/PB2*%
X99060000Y-50800000D03*
%TD*%
%TO.P,TP4,1,1*%
%TO.N,/I2C2_SDA*%
X85000000Y-51500000D03*
%TD*%
%TO.P,TP13,1,1*%
%TO.N,/PB4_TXD2*%
X85500000Y-60960000D03*
%TD*%
%TO.P,TP2,1,1*%
%TO.N,/ADC_INP4*%
X97282000Y-50800000D03*
%TD*%
%TO.P,TP10,1,1*%
%TO.N,/PA15_RXD2*%
X81000000Y-61000000D03*
%TD*%
D15*
%TO.P,C10,1*%
%TO.N,+3.3V*%
X92392200Y-47675000D03*
%TO.P,C10,2*%
%TO.N,GND*%
X93942200Y-47675000D03*
%TD*%
D16*
%TO.P,U1,3,VI*%
%TO.N,Net-(D2-K)*%
X76400000Y-53637500D03*
%TO.P,U1,2,VO*%
%TO.N,+3.3V*%
X77350000Y-51362500D03*
%TO.P,U1,1,GND*%
%TO.N,GND*%
X75450000Y-51362500D03*
%TD*%
D17*
%TO.P,C14,1*%
%TO.N,+3.3V*%
X83718400Y-54902400D03*
%TO.P,C14,2*%
%TO.N,GND*%
X83718400Y-53352400D03*
%TD*%
D18*
%TO.P,R1,1*%
%TO.N,/SW1*%
X67875000Y-63320000D03*
%TO.P,R1,2*%
%TO.N,GND*%
X69525000Y-63320000D03*
%TD*%
D19*
%TO.P,C1,1*%
%TO.N,/nRESET*%
X114909600Y-47688200D03*
%TO.P,C1,2*%
%TO.N,GND*%
X114909600Y-49238200D03*
%TD*%
D15*
%TO.P,C9,1*%
%TO.N,+3.3V*%
X95185000Y-55180000D03*
%TO.P,C9,2*%
%TO.N,GND*%
X96735000Y-55180000D03*
%TD*%
D20*
%TO.P,R2,1*%
%TO.N,GND*%
X75700000Y-58700000D03*
%TO.P,R2,2*%
%TO.N,Net-(J4-ID)*%
X74050000Y-58700000D03*
%TD*%
D21*
%TO.P,J1,1,Pin_1*%
%TO.N,/PA9_TXD*%
X73660000Y-63500000D03*
D22*
%TO.P,J1,2,Pin_2*%
%TO.N,/PA10_RXD*%
X76200000Y-63500000D03*
%TO.P,J1,3,Pin_3*%
%TO.N,/I2C1_SDA*%
X78740000Y-63500000D03*
%TO.P,J1,4,Pin_4*%
%TO.N,GND*%
X81280000Y-63500000D03*
%TO.P,J1,5,Pin_5*%
%TO.N,/I2C1_SCL*%
X83820000Y-63500000D03*
%TO.P,J1,6,Pin_6*%
%TO.N,/PA2*%
X86360000Y-63500000D03*
%TD*%
D23*
%TO.P,FB1,1*%
%TO.N,+3.3V*%
X99515000Y-58300000D03*
%TO.P,FB1,2*%
%TO.N,/VDDA*%
X97965000Y-58300000D03*
%TD*%
D21*
%TO.P,J2,1,Pin_1*%
%TO.N,/PA0*%
X96520000Y-63500000D03*
D22*
%TO.P,J2,2,Pin_2*%
%TO.N,/PA1*%
X99060000Y-63500000D03*
%TO.P,J2,3,Pin_3*%
%TO.N,/SPI1_SCK*%
X101600000Y-63500000D03*
%TO.P,J2,4,Pin_4*%
%TO.N,/SPI1_NSS*%
X104140000Y-63500000D03*
%TO.P,J2,5,Pin_5*%
%TO.N,/SPI1_MOSI*%
X106680000Y-63500000D03*
%TO.P,J2,6,Pin_6*%
%TO.N,/SPI1_MISO*%
X109220000Y-63500000D03*
%TD*%
D24*
%TO.P,D2,2,A*%
%TO.N,/5VIN*%
X81500000Y-50950000D03*
%TO.P,D2,1,K*%
%TO.N,Net-(D2-K)*%
X81500000Y-53050000D03*
%TD*%
D21*
%TO.P,J6,1,Pin_1*%
%TO.N,/OPAMP_VINM*%
X96520000Y-48260000D03*
D22*
%TO.P,J6,2,Pin_2*%
%TO.N,/OPAMP_VOUT*%
X99060000Y-48260000D03*
%TO.P,J6,3,Pin_3*%
%TO.N,/OPAMP_VINP*%
X101600000Y-48260000D03*
%TO.P,J6,4,Pin_4*%
%TO.N,/DAC_OUT1*%
X104140000Y-48260000D03*
%TO.P,J6,5,Pin_5*%
%TO.N,+3.3V*%
X106680000Y-48260000D03*
%TO.P,J6,6,Pin_6*%
%TO.N,/PA3*%
X109220000Y-48260000D03*
%TD*%
D21*
%TO.P,J5,1,Pin_1*%
%TO.N,/VINunused*%
X73660000Y-48260000D03*
D22*
%TO.P,J5,2,Pin_2*%
%TO.N,GND*%
X76200000Y-48260000D03*
%TO.P,J5,3,Pin_3*%
%TO.N,/PA8*%
X78740000Y-48260000D03*
%TO.P,J5,4,Pin_4*%
%TO.N,/5VIN*%
X81280000Y-48260000D03*
%TO.P,J5,5,Pin_5*%
%TO.N,/ADC_INP3*%
X83820000Y-48260000D03*
%TO.P,J5,6,Pin_6*%
%TO.N,/DAC_OUT2*%
X86360000Y-48260000D03*
%TD*%
D25*
%TO.P,C11,1*%
%TO.N,Net-(C11-Pad1)*%
X93700000Y-49540000D03*
%TO.P,C11,2*%
%TO.N,GND*%
X91800000Y-49540000D03*
%TD*%
D18*
%TO.P,R9,1*%
%TO.N,Net-(D1-A)*%
X72950000Y-60500000D03*
%TO.P,R9,2*%
%TO.N,/LED*%
X74600000Y-60500000D03*
%TD*%
D19*
%TO.P,C8,1*%
%TO.N,+3.3V*%
X91440000Y-62852000D03*
%TO.P,C8,2*%
%TO.N,GND*%
X91440000Y-64402000D03*
%TD*%
D23*
%TO.P,C7,1*%
%TO.N,/VDDA*%
X95045000Y-58030000D03*
%TO.P,C7,2*%
%TO.N,GND*%
X93495000Y-58030000D03*
%TD*%
D26*
%TO.P,C12,1*%
%TO.N,Net-(C12-Pad1)*%
X89180000Y-61700000D03*
%TO.P,C12,2*%
%TO.N,GND*%
X89180000Y-63600000D03*
%TD*%
%TO.P,C3,2*%
%TO.N,GND*%
X73400000Y-53050000D03*
%TO.P,C3,1*%
%TO.N,Net-(D2-K)*%
X73400000Y-51150000D03*
%TD*%
D20*
%TO.P,R3,1*%
%TO.N,+3.3V*%
X109485000Y-54920000D03*
%TO.P,R3,2*%
%TO.N,/NHOLD*%
X107835000Y-54920000D03*
%TD*%
D26*
%TO.P,C4,1*%
%TO.N,+3.3V*%
X79400000Y-51150000D03*
%TO.P,C4,2*%
%TO.N,GND*%
X79400000Y-53050000D03*
%TD*%
D27*
%TO.P,D3,2,A*%
%TO.N,/VBUS*%
X69507500Y-51110000D03*
%TO.P,D3,1,K*%
%TO.N,Net-(D2-K)*%
X71607500Y-51110000D03*
%TD*%
D15*
%TO.P,C2,1*%
%TO.N,+3.3V*%
X101395000Y-58300000D03*
%TO.P,C2,2*%
%TO.N,GND*%
X102945000Y-58300000D03*
%TD*%
D17*
%TO.P,C13,1*%
%TO.N,+3.3V*%
X111090000Y-54535000D03*
%TO.P,C13,2*%
%TO.N,GND*%
X111090000Y-52985000D03*
%TD*%
D28*
%TO.N,GND*%
X104050000Y-54800000D03*
X85225000Y-59825000D03*
X105350000Y-46925000D03*
X70600000Y-64900000D03*
X100325000Y-64750000D03*
X105400000Y-64650000D03*
X92150000Y-61275000D03*
X90925000Y-59975000D03*
%TO.N,+3.3V*%
X101395000Y-58300000D03*
%TO.N,/CLK_8*%
X99710000Y-60479601D03*
X94869492Y-61784365D03*
%TO.N,GND*%
X95890000Y-61830000D03*
X102145000Y-59275000D03*
X103320000Y-61170000D03*
%TO.N,+3.3V*%
X100695000Y-61125000D03*
%TO.N,GND*%
X83075000Y-58575000D03*
X89200000Y-52940000D03*
D29*
X75450000Y-51362500D03*
D28*
X93942200Y-47675000D03*
X102945000Y-58300000D03*
X112380000Y-61010000D03*
X102210000Y-51490000D03*
D30*
X71932800Y-57150000D03*
D28*
X67537200Y-48260000D03*
X105740000Y-51250000D03*
X69525000Y-63320000D03*
X111090000Y-52985000D03*
X91340000Y-55350000D03*
X96500000Y-49850000D03*
D30*
X69529800Y-57140000D03*
D28*
X75700000Y-58700000D03*
X83718400Y-53352400D03*
X91787656Y-49536800D03*
X96735000Y-55180000D03*
X95970000Y-57950000D03*
X93495000Y-58030000D03*
X100050000Y-49560000D03*
X91440000Y-64402000D03*
X114909600Y-50163200D03*
D29*
X79400000Y-53050000D03*
D28*
X89180000Y-63600000D03*
D30*
X73400000Y-53050000D03*
D28*
X73562500Y-56100000D03*
%TO.N,/VDDA*%
X95045000Y-58030000D03*
%TO.N,+3.3V*%
X92392200Y-47675000D03*
X83718400Y-54902400D03*
X111090000Y-54535000D03*
D29*
X77350000Y-51362500D03*
D28*
X109485000Y-54920000D03*
D29*
X79400000Y-51150000D03*
D28*
X110500000Y-58800000D03*
X95185000Y-55180000D03*
X67900000Y-65000000D03*
X91440000Y-62852000D03*
X99515000Y-58300000D03*
%TO.N,/nRESET*%
X94160000Y-59210000D03*
X114909600Y-46763200D03*
%TO.N,Net-(D1-A)*%
X70537200Y-48260000D03*
%TO.N,Net-(C11-Pad1)*%
X94620000Y-49040000D03*
%TO.N,Net-(C12-Pad1)*%
X90130000Y-60750000D03*
%TO.N,/SWDIO*%
X86136723Y-54465810D03*
%TO.N,/SWCLK*%
X87250000Y-56720000D03*
%TO.N,/TRACECK*%
X89781777Y-57891777D03*
%TO.N,/TRACED0*%
X91002969Y-57402969D03*
%TO.N,/TRACED1*%
X92180000Y-56919379D03*
%TO.N,/TRACED2*%
X89240432Y-56550199D03*
%TO.N,/TRACED3*%
X88810000Y-56050000D03*
%TO.N,Net-(J4-ID)*%
X74050000Y-58700000D03*
%TO.N,/SPI1_MOSI*%
X99889100Y-61329548D03*
%TO.N,/DAC_OUT2*%
X95275400Y-54190478D03*
%TO.N,/ADC_INP3*%
X93630000Y-54672603D03*
%TO.N,/ADC_INP5*%
X93690000Y-52040000D03*
%TO.N,/PB2*%
X93299418Y-51473700D03*
%TO.N,/SPI2_NSS*%
X90797910Y-49947219D03*
X109550000Y-52590000D03*
%TO.N,/SPI2_SCK*%
X90731438Y-50603763D03*
X106720000Y-53210000D03*
%TO.N,/SPI2_MISO*%
X90358939Y-51203149D03*
X108280000Y-53730000D03*
%TO.N,/SPI2_MOSI*%
X90630703Y-51863444D03*
X105740000Y-53695227D03*
%TO.N,/SW1*%
X67875000Y-63320000D03*
%TO.N,/NHOLD*%
X107835000Y-54920000D03*
%TO.N,/PA0*%
X98045149Y-60961726D03*
%TO.N,/PA1*%
X99060000Y-61024697D03*
%TO.N,/PA2*%
X92773488Y-59618976D03*
%TO.N,/PA8*%
X86533283Y-51326836D03*
%TO.N,/LED*%
X86242740Y-60016600D03*
D30*
%TO.N,/VBUS*%
X71875000Y-52775000D03*
%TD*%
D31*
%TO.N,/nRESET*%
X112720000Y-59740000D02*
X112846200Y-59613800D01*
X102362535Y-59740000D02*
X112720000Y-59740000D01*
X102344910Y-59757625D02*
X102362535Y-59740000D01*
X94337774Y-59387774D02*
X101575240Y-59387775D01*
X94160000Y-59210000D02*
X94337774Y-59387774D01*
X101575240Y-59387775D02*
X101945090Y-59757625D01*
X101945090Y-59757625D02*
X102344910Y-59757625D01*
X112846200Y-59613800D02*
X113792000Y-59613800D01*
%TO.N,/ADC_INP3*%
X84910000Y-49350000D02*
X83820000Y-48260000D01*
X86801650Y-49350000D02*
X84910000Y-49350000D01*
X92124253Y-54672603D02*
X86801650Y-49350000D01*
X93630000Y-54672603D02*
X92124253Y-54672603D01*
%TO.N,/PA8*%
X82741375Y-48195968D02*
X81726782Y-47181375D01*
X82741375Y-48706782D02*
X82741375Y-48195968D01*
X83373218Y-49338625D02*
X82741375Y-48706782D01*
X79818625Y-47181375D02*
X78740000Y-48260000D01*
X84467501Y-49338625D02*
X83373218Y-49338625D01*
X86455712Y-51326836D02*
X84467501Y-49338625D01*
X86533283Y-51326836D02*
X86455712Y-51326836D01*
X81726782Y-47181375D02*
X79818625Y-47181375D01*
D32*
%TO.N,GND*%
X102145000Y-59100000D02*
X102945000Y-58300000D01*
X102145000Y-59275000D02*
X102145000Y-59100000D01*
D31*
%TO.N,/CLK_8*%
X94869492Y-61784365D02*
X96174256Y-60479601D01*
X96174256Y-60479601D02*
X99710000Y-60479601D01*
D33*
%TO.N,GND*%
X75450000Y-51362500D02*
X75450000Y-49010000D01*
X75450000Y-49010000D02*
X76200000Y-48260000D01*
D31*
X114909600Y-49238200D02*
X114909600Y-50163200D01*
D34*
%TO.N,/VDDA*%
X95473000Y-58458000D02*
X96922000Y-58458000D01*
X95045000Y-58030000D02*
X95473000Y-58458000D01*
X96922000Y-58458000D02*
X97090000Y-58290000D01*
X97090000Y-58290000D02*
X97955000Y-58290000D01*
D33*
%TO.N,+3.3V*%
X77350000Y-51362500D02*
X79187500Y-51362500D01*
X79187500Y-51362500D02*
X79400000Y-51150000D01*
D31*
%TO.N,/nRESET*%
X114909600Y-46763200D02*
X114909600Y-47688200D01*
%TO.N,Net-(D1-A)*%
X68800000Y-49997200D02*
X70537200Y-48260000D01*
X72300000Y-56025000D02*
X70250000Y-56025000D01*
X69500000Y-55275000D02*
X69500000Y-52115000D01*
X70250000Y-56025000D02*
X69500000Y-55275000D01*
X72950000Y-60500000D02*
X72950000Y-56675000D01*
X69500000Y-52115000D02*
X68800000Y-51415000D01*
X72950000Y-56675000D02*
X72300000Y-56025000D01*
X68800000Y-51415000D02*
X68800000Y-49997200D01*
D32*
%TO.N,Net-(C11-Pad1)*%
X93700000Y-49540000D02*
X94200000Y-49040000D01*
X94200000Y-49040000D02*
X94620000Y-49040000D01*
%TO.N,Net-(C12-Pad1)*%
X89180000Y-61700000D02*
X90130000Y-60750000D01*
D31*
%TO.N,/SWDIO*%
X93833817Y-59997476D02*
X92911192Y-59074851D01*
X113792000Y-64693800D02*
X109465527Y-60367327D01*
X101322693Y-59997476D02*
X93833817Y-59997476D01*
X109465527Y-60367327D02*
X101692544Y-60367327D01*
X92911192Y-59074851D02*
X88874851Y-59074851D01*
X86136723Y-56336723D02*
X86136723Y-54465810D01*
X101692544Y-60367327D02*
X101322693Y-59997476D01*
X88874851Y-59074851D02*
X86136723Y-56336723D01*
D35*
%TO.N,/SWCLK*%
X110101424Y-60225000D02*
X110122651Y-60203774D01*
X110101425Y-60224999D02*
X110101424Y-60225000D01*
D31*
X93037465Y-58770000D02*
X93960090Y-59692625D01*
D35*
X109722476Y-60062476D02*
X109885000Y-60225000D01*
D31*
X93960090Y-59692625D02*
X101448966Y-59692625D01*
X89300000Y-58770000D02*
X93037465Y-58770000D01*
D35*
X110534272Y-60657848D02*
X110944441Y-60247680D01*
X110750696Y-61090696D02*
X113083800Y-63423800D01*
D31*
X87250000Y-56720000D02*
X89300000Y-58770000D01*
D35*
X110339074Y-60420199D02*
X110339075Y-60420198D01*
D31*
X101818817Y-60062476D02*
X109722476Y-60062476D01*
D35*
X110534273Y-60657847D02*
X110534272Y-60657848D01*
X111160865Y-60464104D02*
X110750695Y-60874271D01*
D31*
X113083800Y-63423800D02*
X113792000Y-63423800D01*
D35*
X110339075Y-60420198D02*
X110317847Y-60441423D01*
X110750695Y-61090695D02*
X110750696Y-61090696D01*
D31*
X101448966Y-59692625D02*
X101818817Y-60062476D01*
D35*
X110317847Y-60657847D02*
X110317848Y-60657848D01*
X111160864Y-60464105D02*
X111160865Y-60464104D01*
X110339088Y-60420213D02*
G75*
G03*
X110339075Y-60203774I-108188J108213D01*
G01*
X110750713Y-60874289D02*
G75*
G03*
X110750696Y-61090694I108187J-108211D01*
G01*
X111160872Y-60464113D02*
G75*
G03*
X111160865Y-60247680I-108172J108213D01*
G01*
X110317888Y-60657808D02*
G75*
G03*
X110534273Y-60657847I108212J108208D01*
G01*
X109884989Y-60225011D02*
G75*
G03*
X110101424Y-60224998I108211J108211D01*
G01*
X111160865Y-60247680D02*
G75*
G03*
X110944441Y-60247680I-108212J-108208D01*
G01*
X110317812Y-60441388D02*
G75*
G03*
X110317847Y-60657847I108288J-108212D01*
G01*
X110339075Y-60203774D02*
G75*
G03*
X110122651Y-60203774I-108212J-108208D01*
G01*
D31*
%TO.N,/TRACECK*%
X112352723Y-58728780D02*
X112352724Y-58728780D01*
X92321261Y-57891777D02*
X92943634Y-57269404D01*
X112505149Y-58576355D02*
X112505149Y-58204850D01*
X111413800Y-58343800D02*
X111438171Y-58343800D01*
X111743021Y-58728780D02*
X111743022Y-58728780D01*
X112821051Y-58204850D02*
X112821051Y-58204851D01*
X111590596Y-58496225D02*
X111590596Y-58576355D01*
X92943634Y-57269404D02*
X110339404Y-57269404D01*
X112200298Y-58203351D02*
X112200298Y-58576355D01*
X89781777Y-57891777D02*
X92321261Y-57891777D01*
X112035896Y-58062902D02*
X112059849Y-58062902D01*
X112644098Y-58065901D02*
X112682102Y-58065901D01*
X111895447Y-58576355D02*
X111895447Y-58203351D01*
X110339404Y-57269404D02*
X111413800Y-58343800D01*
X112960000Y-58343800D02*
X113792000Y-58343800D01*
X112200320Y-58576355D02*
G75*
G03*
X112352723Y-58728780I152380J-45D01*
G01*
X112821100Y-58204851D02*
G75*
G03*
X112960000Y-58343800I138900J-49D01*
G01*
X111743022Y-58728847D02*
G75*
G03*
X111895447Y-58576355I-22J152447D01*
G01*
X111590620Y-58576355D02*
G75*
G03*
X111743021Y-58728780I152380J-45D01*
G01*
X112200298Y-58203351D02*
G75*
G03*
X112059849Y-58062902I-140498J-49D01*
G01*
X112820999Y-58204850D02*
G75*
G03*
X112682102Y-58065901I-138899J50D01*
G01*
X112035896Y-58062947D02*
G75*
G03*
X111895447Y-58203351I4J-140453D01*
G01*
X112352724Y-58728849D02*
G75*
G03*
X112505149Y-58576355I-24J152449D01*
G01*
X111590600Y-58496225D02*
G75*
G03*
X111438171Y-58343800I-152400J25D01*
G01*
X112644098Y-58065849D02*
G75*
G03*
X112505149Y-58204850I2J-138951D01*
G01*
%TO.N,/TRACED0*%
X112645150Y-57732780D02*
X112645149Y-57732780D01*
X112187873Y-57116978D02*
X112187873Y-57580349D01*
X92817361Y-56964553D02*
X92378945Y-57402969D01*
X92378945Y-57402969D02*
X91002969Y-57402969D01*
X111730596Y-56964553D02*
X92817361Y-56964553D01*
X112797575Y-57116978D02*
X112797575Y-57580355D01*
X111730597Y-56964553D02*
X111730596Y-56964553D01*
X112340299Y-56964553D02*
X112340298Y-56964553D01*
X112492724Y-57580355D02*
X112492724Y-57116978D01*
X111883022Y-57580349D02*
X111883022Y-57116978D01*
X113682753Y-56964553D02*
X112950000Y-56964553D01*
X112035448Y-57732774D02*
X112035447Y-57732774D01*
X112492747Y-57116978D02*
G75*
G03*
X112340299Y-56964553I-152447J-22D01*
G01*
X112492720Y-57580355D02*
G75*
G03*
X112645149Y-57732780I152380J-45D01*
G01*
X112035448Y-57732773D02*
G75*
G03*
X112187873Y-57580349I-48J152473D01*
G01*
X112950000Y-56964575D02*
G75*
G03*
X112797575Y-57116978I0J-152425D01*
G01*
X112340298Y-56964573D02*
G75*
G03*
X112187873Y-57116978I2J-152427D01*
G01*
X111883047Y-57116978D02*
G75*
G03*
X111730597Y-56964553I-152447J-22D01*
G01*
X112645150Y-57732775D02*
G75*
G03*
X112797575Y-57580355I50J152375D01*
G01*
X111882926Y-57580349D02*
G75*
G03*
X112035447Y-57732774I152474J49D01*
G01*
%TO.N,/TRACED1*%
X112936098Y-56659702D02*
X113792000Y-55803800D01*
X112209701Y-56659702D02*
X112209702Y-56659702D01*
X112666978Y-55885521D02*
X112666978Y-56507277D01*
X112819403Y-56659702D02*
X112819404Y-56659702D01*
X112819404Y-56659702D02*
X112936098Y-56659702D01*
X112362127Y-56507277D02*
X112362127Y-55885521D01*
X112057276Y-56335504D02*
X112057276Y-56507277D01*
X111752425Y-56507277D02*
X111752425Y-56335504D01*
X112514552Y-55733096D02*
X112514553Y-55733096D01*
X92180000Y-56919379D02*
X92439677Y-56659702D01*
X92439677Y-56659702D02*
X111600000Y-56659702D01*
X111904850Y-56183079D02*
X111904851Y-56183079D01*
X111600000Y-56659725D02*
G75*
G03*
X111752425Y-56507277I0J152425D01*
G01*
X112209702Y-56659727D02*
G75*
G03*
X112362127Y-56507277I-2J152427D01*
G01*
X112666998Y-56507277D02*
G75*
G03*
X112819403Y-56659702I152402J-23D01*
G01*
X112057298Y-56507277D02*
G75*
G03*
X112209701Y-56659702I152402J-23D01*
G01*
X111904850Y-56183125D02*
G75*
G03*
X111752425Y-56335504I-50J-152375D01*
G01*
X112667004Y-55885521D02*
G75*
G03*
X112514553Y-55733096I-152404J21D01*
G01*
X112057321Y-56335504D02*
G75*
G03*
X111904851Y-56183079I-152421J4D01*
G01*
X112514552Y-55733027D02*
G75*
G03*
X112362127Y-55885521I48J-152473D01*
G01*
%TO.N,/TRACED2*%
X112679023Y-55023462D02*
X112811124Y-55155563D01*
X112953124Y-54533800D02*
X113792000Y-54533800D01*
X113026686Y-55155563D02*
X113026686Y-55155562D01*
X89435780Y-56354851D02*
X111132073Y-56354851D01*
X111132073Y-56354851D02*
X112463462Y-55023462D01*
X113026686Y-54940000D02*
X112894584Y-54807898D01*
X112894584Y-54592336D02*
X112894586Y-54592337D01*
X112679022Y-55023462D02*
X112679023Y-55023462D01*
X112894586Y-54592337D02*
X112953124Y-54533800D01*
X89240432Y-56550199D02*
X89435780Y-56354851D01*
X112679021Y-55023463D02*
G75*
G03*
X112463463Y-55023463I-107779J-107779D01*
G01*
X113026705Y-55155581D02*
G75*
G03*
X113026686Y-54940000I-107805J107781D01*
G01*
X112811124Y-55155563D02*
G75*
G03*
X113026686Y-55155563I107781J107782D01*
G01*
X112894567Y-54592319D02*
G75*
G03*
X112894584Y-54807898I107833J-107781D01*
G01*
%TO.N,/TRACED3*%
X111005800Y-56050000D02*
X113792000Y-53263800D01*
X88810000Y-56050000D02*
X111005800Y-56050000D01*
%TO.N,/SPI1_MOSI*%
X105601375Y-62421375D02*
X106680000Y-63500000D01*
X100980927Y-62421375D02*
X105601375Y-62421375D01*
X99889100Y-61329548D02*
X100980927Y-62421375D01*
%TO.N,/DAC_OUT2*%
X95275400Y-54190478D02*
X92140568Y-54190478D01*
X92140568Y-54190478D02*
X86360000Y-48409910D01*
%TO.N,/ADC_INP5*%
X99598000Y-52040000D02*
X100838000Y-50800000D01*
X93690000Y-52040000D02*
X99598000Y-52040000D01*
%TO.N,/PB2*%
X93354343Y-51528625D02*
X98331375Y-51528625D01*
X98331375Y-51528625D02*
X99060000Y-50800000D01*
X93299418Y-51473700D02*
X93354343Y-51528625D01*
%TO.N,/SPI2_NSS*%
X93454091Y-52603400D02*
X90797910Y-49947219D01*
X105154851Y-51636026D02*
X105154850Y-51636026D01*
X109536600Y-52603400D02*
X105459701Y-52603400D01*
X104850000Y-52603400D02*
X93454091Y-52603400D01*
X109550000Y-52590000D02*
X109536600Y-52603400D01*
X105002425Y-51788451D02*
X105002425Y-52450975D01*
X105307276Y-52450975D02*
X105307276Y-51788451D01*
X104850000Y-52603425D02*
G75*
G03*
X105002425Y-52450975I0J152425D01*
G01*
X105307300Y-52450975D02*
G75*
G03*
X105459701Y-52603400I152400J-25D01*
G01*
X105154850Y-51636125D02*
G75*
G03*
X105002425Y-51788451I-50J-152375D01*
G01*
X105307374Y-51788451D02*
G75*
G03*
X105154851Y-51636026I-152474J-49D01*
G01*
%TO.N,/SPI2_SCK*%
X90759957Y-50603763D02*
X90731438Y-50603763D01*
X93064445Y-52908251D02*
X90759957Y-50603763D01*
X106418251Y-52908251D02*
X93064445Y-52908251D01*
X106720000Y-53210000D02*
X106418251Y-52908251D01*
%TO.N,/SPI2_MISO*%
X105940410Y-53213102D02*
X92662190Y-53213102D01*
X108280000Y-53730000D02*
X106457308Y-53730000D01*
X92662190Y-53213102D02*
X90652237Y-51203149D01*
X106457308Y-53730000D02*
X105940410Y-53213102D01*
X90652237Y-51203149D02*
X90358939Y-51203149D01*
%TO.N,/SPI2_MOSI*%
X92285212Y-53517953D02*
X90630703Y-51863444D01*
X105740000Y-53695227D02*
X105562726Y-53517953D01*
X105562726Y-53517953D02*
X92285212Y-53517953D01*
%TO.N,/PA0*%
X98045149Y-61974851D02*
X96520000Y-63500000D01*
X98045149Y-60961726D02*
X98045149Y-61974851D01*
%TO.N,/PA1*%
X99060000Y-61024697D02*
X99060000Y-63500000D01*
%TO.N,/PA2*%
X92773488Y-59618976D02*
X89732464Y-62660000D01*
X87200000Y-62660000D02*
X86360000Y-63500000D01*
X89732464Y-62660000D02*
X87200000Y-62660000D01*
%TO.N,/LED*%
X85700000Y-61900000D02*
X76000000Y-61900000D01*
X86250000Y-61350000D02*
X85700000Y-61900000D01*
X86242740Y-60016600D02*
X86250000Y-60023860D01*
X86250000Y-60023860D02*
X86250000Y-61350000D01*
X76000000Y-61900000D02*
X74600000Y-60500000D01*
D32*
%TO.N,/VBUS*%
X70210000Y-51110000D02*
X69507500Y-51110000D01*
X71875000Y-52775000D02*
X70210000Y-51110000D01*
%TO.N,/5VIN*%
X81500000Y-50950000D02*
X81500000Y-48480000D01*
%TO.N,Net-(D2-K)*%
X71607500Y-51110000D02*
X73360000Y-51110000D01*
X73400000Y-51250000D02*
X75787500Y-53637500D01*
X80500000Y-54500000D02*
X77262500Y-54500000D01*
X77262500Y-54500000D02*
X76400000Y-53637500D01*
X81500000Y-53500000D02*
X80500000Y-54500000D01*
X81500000Y-53050000D02*
X81500000Y-53500000D01*
X75787500Y-53637500D02*
X76400000Y-53637500D01*
%TD*%
%TA.AperFunction,Conductor*%
%TO.N,GND*%
G36*
X113177043Y-59860548D02*
G01*
X113199056Y-59891540D01*
X113209457Y-59918964D01*
X113209640Y-59919446D01*
X113299708Y-60049932D01*
X113299709Y-60049933D01*
X113418387Y-60155072D01*
X113469887Y-60182102D01*
X113504570Y-60220208D01*
X113506644Y-60271693D01*
X113475139Y-60312466D01*
X113469887Y-60315498D01*
X113418387Y-60342527D01*
X113299709Y-60447666D01*
X113209638Y-60578155D01*
X113153416Y-60726401D01*
X113142914Y-60812893D01*
X113134305Y-60883800D01*
X113138406Y-60917576D01*
X113153416Y-61041198D01*
X113209638Y-61189444D01*
X113223984Y-61210227D01*
X113295785Y-61314249D01*
X113299709Y-61319933D01*
X113418387Y-61425072D01*
X113469887Y-61452102D01*
X113504570Y-61490208D01*
X113506644Y-61541693D01*
X113475139Y-61582466D01*
X113469887Y-61585498D01*
X113418387Y-61612527D01*
X113299709Y-61717666D01*
X113209638Y-61848155D01*
X113153416Y-61996401D01*
X113134305Y-62153800D01*
X113153416Y-62311198D01*
X113209638Y-62459444D01*
X113265081Y-62539766D01*
X113293271Y-62580607D01*
X113299709Y-62589933D01*
X113418387Y-62695072D01*
X113469887Y-62722102D01*
X113504570Y-62760208D01*
X113506644Y-62811693D01*
X113475139Y-62852466D01*
X113469887Y-62855498D01*
X113418387Y-62882527D01*
X113299709Y-62987667D01*
X113299708Y-62987668D01*
X113296662Y-62992081D01*
X113217455Y-63106831D01*
X113175446Y-63136668D01*
X113124086Y-63132521D01*
X113102198Y-63117304D01*
X111020641Y-61035747D01*
X110998865Y-60989048D01*
X111012201Y-60939277D01*
X111020641Y-60929219D01*
X111025215Y-60924645D01*
X111301209Y-60648653D01*
X111301224Y-60648646D01*
X111323286Y-60626589D01*
X111323288Y-60626591D01*
X111358934Y-60590956D01*
X111409347Y-60503661D01*
X111435442Y-60406291D01*
X111435439Y-60305484D01*
X111430979Y-60288848D01*
X111420244Y-60248800D01*
X111409338Y-60208116D01*
X111358919Y-60120824D01*
X111335811Y-60097726D01*
X111314026Y-60051033D01*
X111327351Y-60001260D01*
X111369553Y-59971696D01*
X111389065Y-59969125D01*
X112712022Y-59969125D01*
X112715964Y-59969228D01*
X112756644Y-59971360D01*
X112779737Y-59962494D01*
X112791060Y-59959139D01*
X112815276Y-59953993D01*
X112822252Y-59948923D01*
X112839533Y-59939540D01*
X112847578Y-59936453D01*
X112865072Y-59918958D01*
X112874047Y-59911292D01*
X112894077Y-59896740D01*
X112898386Y-59889275D01*
X112910358Y-59873674D01*
X112919044Y-59864988D01*
X112965743Y-59843212D01*
X112972308Y-59842925D01*
X113128624Y-59842925D01*
X113177043Y-59860548D01*
G37*
%TD.AperFunction*%
%TA.AperFunction,Conductor*%
G36*
X115188999Y-63121844D02*
G01*
X115174871Y-63113688D01*
X115090436Y-63098800D01*
X115033564Y-63098800D01*
X114949129Y-63113688D01*
X114935000Y-63121845D01*
X114935000Y-62455754D01*
X114949129Y-62463912D01*
X115033564Y-62478800D01*
X115090436Y-62478800D01*
X115174871Y-62463912D01*
X115188999Y-62455754D01*
X115188999Y-63121844D01*
G37*
%TD.AperFunction*%
%TA.AperFunction,Conductor*%
G36*
X115188999Y-55501844D02*
G01*
X115174871Y-55493688D01*
X115090436Y-55478800D01*
X115033564Y-55478800D01*
X114949129Y-55493688D01*
X114934999Y-55501845D01*
X114934999Y-54835754D01*
X114949129Y-54843912D01*
X115033564Y-54858800D01*
X115090436Y-54858800D01*
X115174871Y-54843912D01*
X115188999Y-54835754D01*
X115188999Y-55501844D01*
G37*
%TD.AperFunction*%
%TA.AperFunction,Conductor*%
G36*
X115188999Y-54231844D02*
G01*
X115174871Y-54223688D01*
X115090436Y-54208800D01*
X115033564Y-54208800D01*
X114949129Y-54223688D01*
X114934999Y-54231845D01*
X114934999Y-53565754D01*
X114949129Y-53573912D01*
X115033564Y-53588800D01*
X115090436Y-53588800D01*
X115174871Y-53573912D01*
X115188999Y-53565754D01*
X115188999Y-54231844D01*
G37*
%TD.AperFunction*%
%TA.AperFunction,Conductor*%
G36*
X116431592Y-46119123D02*
G01*
X116457356Y-46163747D01*
X116458500Y-46176827D01*
X116458500Y-65583173D01*
X116440877Y-65631592D01*
X116396253Y-65657356D01*
X116383173Y-65658500D01*
X94465814Y-65658500D01*
X94417395Y-65640877D01*
X94391631Y-65596253D01*
X94400579Y-65545510D01*
X94430804Y-65516475D01*
X94531413Y-65463672D01*
X94650092Y-65358532D01*
X94740160Y-65228046D01*
X94796384Y-65079797D01*
X94815495Y-64922400D01*
X94796384Y-64765003D01*
X94759106Y-64666709D01*
X94740161Y-64616755D01*
X94693767Y-64549542D01*
X94650092Y-64486268D01*
X94650090Y-64486266D01*
X94531415Y-64381129D01*
X94513301Y-64371622D01*
X94391022Y-64307444D01*
X94391019Y-64307443D01*
X94237076Y-64269500D01*
X94078524Y-64269500D01*
X93924580Y-64307443D01*
X93784184Y-64381129D01*
X93665509Y-64486266D01*
X93575438Y-64616755D01*
X93529732Y-64737275D01*
X93496084Y-64776299D01*
X93445225Y-64784564D01*
X93400951Y-64758204D01*
X93388868Y-64737275D01*
X93343161Y-64616755D01*
X93296767Y-64549542D01*
X93253092Y-64486268D01*
X93253090Y-64486266D01*
X93134415Y-64381129D01*
X93116301Y-64371622D01*
X92994022Y-64307444D01*
X92994019Y-64307443D01*
X92840076Y-64269500D01*
X92681524Y-64269500D01*
X92527580Y-64307443D01*
X92387184Y-64381129D01*
X92268507Y-64486268D01*
X92261471Y-64496463D01*
X92219463Y-64526301D01*
X92199478Y-64529000D01*
X91567000Y-64529000D01*
X91567000Y-65106000D01*
X91733797Y-65106000D01*
X91737835Y-65105783D01*
X91792863Y-65099867D01*
X91921922Y-65051731D01*
X91998177Y-64994647D01*
X92047499Y-64979738D01*
X92094866Y-65000021D01*
X92118096Y-65045867D01*
X92119841Y-65060235D01*
X92122216Y-65079798D01*
X92178438Y-65228044D01*
X92268509Y-65358533D01*
X92387184Y-65463670D01*
X92387185Y-65463670D01*
X92387187Y-65463672D01*
X92487794Y-65516475D01*
X92522476Y-65554581D01*
X92524550Y-65606066D01*
X92493045Y-65646839D01*
X92452786Y-65658500D01*
X66496827Y-65658500D01*
X66448408Y-65640877D01*
X66422644Y-65596253D01*
X66421500Y-65583173D01*
X66421500Y-65000000D01*
X67488028Y-65000000D01*
X67508191Y-65127306D01*
X67566708Y-65242151D01*
X67657849Y-65333292D01*
X67772694Y-65391809D01*
X67900000Y-65411972D01*
X68027306Y-65391809D01*
X68142151Y-65333292D01*
X68233292Y-65242151D01*
X68291809Y-65127306D01*
X68311972Y-65000000D01*
X68291809Y-64872694D01*
X68233292Y-64757849D01*
X68142151Y-64666708D01*
X68027306Y-64608191D01*
X67900000Y-64588028D01*
X67772693Y-64608191D01*
X67657847Y-64666709D01*
X67566709Y-64757847D01*
X67508191Y-64872693D01*
X67508190Y-64872694D01*
X67508191Y-64872694D01*
X67488028Y-65000000D01*
X66421500Y-65000000D01*
X66421500Y-64365055D01*
X72657100Y-64365055D01*
X72665971Y-64409658D01*
X72699766Y-64460235D01*
X72748046Y-64492494D01*
X72750342Y-64494028D01*
X72794943Y-64502900D01*
X74525056Y-64502899D01*
X74569658Y-64494028D01*
X74620234Y-64460234D01*
X74623039Y-64456037D01*
X74639738Y-64431044D01*
X74654028Y-64409658D01*
X74662900Y-64365057D01*
X74662899Y-63499999D01*
X75192247Y-63499999D01*
X75211610Y-63696604D01*
X75268955Y-63885645D01*
X75321408Y-63983778D01*
X75362084Y-64059878D01*
X75487411Y-64212589D01*
X75640122Y-64337916D01*
X75798294Y-64422460D01*
X75814354Y-64431044D01*
X76003395Y-64488389D01*
X76035749Y-64491575D01*
X76200000Y-64507753D01*
X76378976Y-64490125D01*
X76396604Y-64488389D01*
X76585645Y-64431044D01*
X76585647Y-64431042D01*
X76585650Y-64431042D01*
X76759878Y-64337916D01*
X76912589Y-64212589D01*
X77037916Y-64059878D01*
X77131042Y-63885650D01*
X77138844Y-63859932D01*
X77188389Y-63696604D01*
X77192691Y-63652925D01*
X77207753Y-63500000D01*
X77732247Y-63500000D01*
X77751610Y-63696604D01*
X77808955Y-63885645D01*
X77861408Y-63983778D01*
X77902084Y-64059878D01*
X78027411Y-64212589D01*
X78180122Y-64337916D01*
X78338294Y-64422460D01*
X78354354Y-64431044D01*
X78543395Y-64488389D01*
X78578650Y-64491861D01*
X78740000Y-64507753D01*
X78920426Y-64489982D01*
X78936604Y-64488389D01*
X79125645Y-64431044D01*
X79125647Y-64431042D01*
X79125650Y-64431042D01*
X79299878Y-64337916D01*
X79452589Y-64212589D01*
X79577916Y-64059878D01*
X79671042Y-63885650D01*
X79678844Y-63859932D01*
X79728389Y-63696604D01*
X79732691Y-63652925D01*
X79747753Y-63500000D01*
X79735244Y-63372999D01*
X80183037Y-63372999D01*
X80183038Y-63373000D01*
X80796182Y-63373000D01*
X80780000Y-63428111D01*
X80780000Y-63571889D01*
X80796182Y-63627000D01*
X80183038Y-63627000D01*
X80190148Y-63703731D01*
X80246139Y-63900518D01*
X80337338Y-64083670D01*
X80460640Y-64246949D01*
X80611840Y-64384786D01*
X80785795Y-64492494D01*
X80976582Y-64566405D01*
X81152999Y-64599382D01*
X81153000Y-64599382D01*
X81153000Y-63986881D01*
X81244237Y-64000000D01*
X81315763Y-64000000D01*
X81407000Y-63986881D01*
X81407000Y-64599382D01*
X81583417Y-64566405D01*
X81774204Y-64492494D01*
X81948159Y-64384786D01*
X82099359Y-64246949D01*
X82222661Y-64083670D01*
X82313860Y-63900518D01*
X82369851Y-63703731D01*
X82376962Y-63627000D01*
X81763818Y-63627000D01*
X81780000Y-63571889D01*
X81780000Y-63499999D01*
X82812247Y-63499999D01*
X82831610Y-63696604D01*
X82888955Y-63885645D01*
X82941408Y-63983778D01*
X82982084Y-64059878D01*
X83107411Y-64212589D01*
X83260122Y-64337916D01*
X83418294Y-64422460D01*
X83434354Y-64431044D01*
X83623395Y-64488389D01*
X83655749Y-64491575D01*
X83820000Y-64507753D01*
X83998976Y-64490125D01*
X84016604Y-64488389D01*
X84205645Y-64431044D01*
X84205647Y-64431042D01*
X84205650Y-64431042D01*
X84379878Y-64337916D01*
X84532589Y-64212589D01*
X84657916Y-64059878D01*
X84751042Y-63885650D01*
X84758844Y-63859932D01*
X84808389Y-63696604D01*
X84812691Y-63652925D01*
X84827753Y-63500000D01*
X84808389Y-63303397D01*
X84808389Y-63303395D01*
X84751044Y-63114354D01*
X84698404Y-63015871D01*
X84657916Y-62940122D01*
X84532589Y-62787411D01*
X84379878Y-62662084D01*
X84344103Y-62642962D01*
X84205645Y-62568955D01*
X84016604Y-62511610D01*
X83836176Y-62493840D01*
X83820000Y-62492247D01*
X83819999Y-62492247D01*
X83623395Y-62511610D01*
X83434354Y-62568955D01*
X83260121Y-62662084D01*
X83107411Y-62787411D01*
X82982084Y-62940121D01*
X82888955Y-63114354D01*
X82831610Y-63303395D01*
X82812247Y-63499999D01*
X81780000Y-63499999D01*
X81780000Y-63428111D01*
X81763818Y-63373000D01*
X82376962Y-63373000D01*
X82376962Y-63372999D01*
X82369851Y-63296268D01*
X82313860Y-63099481D01*
X82222661Y-62916329D01*
X82099359Y-62753050D01*
X81948159Y-62615213D01*
X81774204Y-62507505D01*
X81583418Y-62433594D01*
X81407000Y-62400616D01*
X81407000Y-63013118D01*
X81315763Y-63000000D01*
X81244237Y-63000000D01*
X81153000Y-63013118D01*
X81153000Y-62400616D01*
X81152999Y-62400616D01*
X80976581Y-62433594D01*
X80785795Y-62507505D01*
X80611840Y-62615213D01*
X80460640Y-62753050D01*
X80337338Y-62916329D01*
X80246139Y-63099481D01*
X80190148Y-63296268D01*
X80183037Y-63372999D01*
X79735244Y-63372999D01*
X79728389Y-63303397D01*
X79728389Y-63303395D01*
X79671044Y-63114354D01*
X79618404Y-63015871D01*
X79577916Y-62940122D01*
X79452589Y-62787411D01*
X79299878Y-62662084D01*
X79264103Y-62642962D01*
X79125645Y-62568955D01*
X78936604Y-62511610D01*
X78740000Y-62492247D01*
X78543395Y-62511610D01*
X78354354Y-62568955D01*
X78180121Y-62662084D01*
X78027411Y-62787411D01*
X77902084Y-62940121D01*
X77808955Y-63114354D01*
X77751610Y-63303395D01*
X77732247Y-63500000D01*
X77207753Y-63500000D01*
X77188389Y-63303397D01*
X77188389Y-63303395D01*
X77131044Y-63114354D01*
X77078404Y-63015871D01*
X77037916Y-62940122D01*
X76912589Y-62787411D01*
X76759878Y-62662084D01*
X76724103Y-62642962D01*
X76585645Y-62568955D01*
X76396604Y-62511610D01*
X76200000Y-62492247D01*
X76003395Y-62511610D01*
X75814354Y-62568955D01*
X75640121Y-62662084D01*
X75487411Y-62787411D01*
X75362084Y-62940121D01*
X75268955Y-63114354D01*
X75211610Y-63303395D01*
X75192247Y-63499999D01*
X74662899Y-63499999D01*
X74662899Y-62634944D01*
X74658113Y-62610882D01*
X74654028Y-62590341D01*
X74620233Y-62539764D01*
X74569657Y-62505971D01*
X74525059Y-62497100D01*
X72794944Y-62497100D01*
X72750341Y-62505971D01*
X72699764Y-62539766D01*
X72665971Y-62590342D01*
X72657100Y-62634940D01*
X72657100Y-64365055D01*
X66421500Y-64365055D01*
X66421500Y-63628494D01*
X67322100Y-63628494D01*
X67332093Y-63697088D01*
X67383820Y-63802898D01*
X67467101Y-63886179D01*
X67572911Y-63937906D01*
X67641505Y-63947900D01*
X67641506Y-63947900D01*
X68108495Y-63947900D01*
X68177088Y-63937906D01*
X68282898Y-63886179D01*
X68366179Y-63802898D01*
X68417906Y-63697088D01*
X68427900Y-63628494D01*
X68427900Y-63447000D01*
X68871000Y-63447000D01*
X68871000Y-63647918D01*
X68871165Y-63651447D01*
X68873875Y-63680356D01*
X68919078Y-63809537D01*
X69000346Y-63919653D01*
X69110462Y-64000921D01*
X69239643Y-64046124D01*
X69268552Y-64048834D01*
X69272081Y-64049000D01*
X69398000Y-64049000D01*
X69398000Y-63447000D01*
X69652000Y-63447000D01*
X69652000Y-64049000D01*
X69777919Y-64049000D01*
X69781447Y-64048834D01*
X69810356Y-64046124D01*
X69939537Y-64000921D01*
X70049653Y-63919653D01*
X70130921Y-63809537D01*
X70176124Y-63680356D01*
X70178834Y-63651447D01*
X70179000Y-63647918D01*
X70179000Y-63447000D01*
X69652000Y-63447000D01*
X69398000Y-63447000D01*
X68871000Y-63447000D01*
X68427900Y-63447000D01*
X68427900Y-63193000D01*
X68871000Y-63193000D01*
X69398000Y-63193000D01*
X69398000Y-62591000D01*
X69652000Y-62591000D01*
X69652000Y-63193000D01*
X70179000Y-63193000D01*
X70179000Y-62992081D01*
X70178834Y-62988552D01*
X70176124Y-62959643D01*
X70130921Y-62830462D01*
X70049653Y-62720346D01*
X69939537Y-62639078D01*
X69810356Y-62593875D01*
X69781447Y-62591165D01*
X69777919Y-62591000D01*
X69652000Y-62591000D01*
X69398000Y-62591000D01*
X69272081Y-62591000D01*
X69268552Y-62591165D01*
X69239643Y-62593875D01*
X69110462Y-62639078D01*
X69000346Y-62720346D01*
X68919078Y-62830462D01*
X68873875Y-62959643D01*
X68871165Y-62988552D01*
X68871000Y-62992081D01*
X68871000Y-63193000D01*
X68427900Y-63193000D01*
X68427900Y-63011505D01*
X68417906Y-62942911D01*
X68366179Y-62837101D01*
X68282898Y-62753820D01*
X68177088Y-62702093D01*
X68108495Y-62692100D01*
X68108494Y-62692100D01*
X67641506Y-62692100D01*
X67641505Y-62692100D01*
X67572911Y-62702093D01*
X67467101Y-62753820D01*
X67383820Y-62837101D01*
X67332093Y-62942911D01*
X67322100Y-63011505D01*
X67322100Y-63628494D01*
X66421500Y-63628494D01*
X66421500Y-59467000D01*
X67023383Y-59467000D01*
X67053622Y-59589687D01*
X67132509Y-59739994D01*
X67245071Y-59867050D01*
X67384774Y-59963480D01*
X67543488Y-60023672D01*
X67667456Y-60038725D01*
X67671998Y-60039000D01*
X67915000Y-60039000D01*
X67915000Y-59590000D01*
X68169000Y-59590000D01*
X68169000Y-60039000D01*
X68412002Y-60039000D01*
X68416543Y-60038725D01*
X68540511Y-60023672D01*
X68699225Y-59963480D01*
X68838928Y-59867050D01*
X68951490Y-59739994D01*
X69030377Y-59589687D01*
X69060616Y-59467000D01*
X68582814Y-59467000D01*
X68602495Y-59437545D01*
X68621898Y-59340000D01*
X68602495Y-59242455D01*
X68582814Y-59213000D01*
X69060616Y-59213000D01*
X69060616Y-59212999D01*
X69030377Y-59090312D01*
X68951490Y-58940005D01*
X68838928Y-58812949D01*
X68699225Y-58716519D01*
X68540511Y-58656327D01*
X68416543Y-58641274D01*
X68412002Y-58641000D01*
X68169000Y-58641000D01*
X68169000Y-59090000D01*
X67915000Y-59090000D01*
X67915000Y-58641000D01*
X67671998Y-58641000D01*
X67667456Y-58641274D01*
X67543488Y-58656327D01*
X67384774Y-58716519D01*
X67245071Y-58812949D01*
X67132509Y-58940005D01*
X67053622Y-59090312D01*
X67023383Y-59212999D01*
X67023384Y-59213000D01*
X67501186Y-59213000D01*
X67481505Y-59242455D01*
X67462102Y-59340000D01*
X67481505Y-59437545D01*
X67501186Y-59467000D01*
X67023383Y-59467000D01*
X66421500Y-59467000D01*
X66421500Y-58530265D01*
X70013000Y-58530265D01*
X70013254Y-58534638D01*
X70027821Y-58659265D01*
X70086106Y-58819401D01*
X70179751Y-58961781D01*
X70303710Y-59078730D01*
X70451289Y-59163935D01*
X70614551Y-59212812D01*
X70615000Y-59212837D01*
X70615000Y-58735881D01*
X70634700Y-58749045D01*
X70742000Y-58770388D01*
X70849300Y-58749045D01*
X70869000Y-58735881D01*
X70869000Y-59207851D01*
X70952505Y-59193128D01*
X71108982Y-59125630D01*
X71245674Y-59023866D01*
X71355215Y-58893320D01*
X71431699Y-58741029D01*
X71471000Y-58575206D01*
X71471000Y-58467000D01*
X71017000Y-58467000D01*
X71017000Y-58213000D01*
X71471000Y-58213000D01*
X71471000Y-58149734D01*
X71470745Y-58145361D01*
X71456178Y-58020734D01*
X71397893Y-57860598D01*
X71304248Y-57718218D01*
X71180289Y-57601269D01*
X71032710Y-57516064D01*
X70869446Y-57467187D01*
X70869000Y-57467160D01*
X70869000Y-57944118D01*
X70849300Y-57930955D01*
X70742000Y-57909612D01*
X70634700Y-57930955D01*
X70615000Y-57944118D01*
X70615000Y-57472147D01*
X70531494Y-57486871D01*
X70375017Y-57554369D01*
X70238325Y-57656133D01*
X70128784Y-57786679D01*
X70052300Y-57938970D01*
X70013000Y-58104793D01*
X70013000Y-58213000D01*
X70467000Y-58213000D01*
X70467000Y-58467000D01*
X70013000Y-58467000D01*
X70013000Y-58530265D01*
X66421500Y-58530265D01*
X66421500Y-52467000D01*
X67023383Y-52467000D01*
X67053622Y-52589687D01*
X67132509Y-52739994D01*
X67245071Y-52867050D01*
X67384774Y-52963480D01*
X67543488Y-53023672D01*
X67667456Y-53038725D01*
X67671998Y-53039000D01*
X67915000Y-53039000D01*
X67915000Y-52590000D01*
X68169000Y-52590000D01*
X68169000Y-53039000D01*
X68412002Y-53039000D01*
X68416543Y-53038725D01*
X68540511Y-53023672D01*
X68699225Y-52963480D01*
X68838928Y-52867050D01*
X68951490Y-52739994D01*
X69030377Y-52589687D01*
X69060616Y-52467000D01*
X68582814Y-52467000D01*
X68602495Y-52437545D01*
X68621898Y-52340000D01*
X68602495Y-52242455D01*
X68582814Y-52213000D01*
X69060616Y-52213000D01*
X69060616Y-52212999D01*
X69055494Y-52192218D01*
X69061017Y-52140989D01*
X69098178Y-52105295D01*
X69149589Y-52101838D01*
X69181893Y-52120924D01*
X69248813Y-52187844D01*
X69270588Y-52234540D01*
X69270875Y-52241106D01*
X69270875Y-55267022D01*
X69270772Y-55270964D01*
X69268639Y-55311644D01*
X69277504Y-55334737D01*
X69280860Y-55346067D01*
X69286006Y-55370275D01*
X69291075Y-55377251D01*
X69300459Y-55394534D01*
X69303546Y-55402578D01*
X69321035Y-55420066D01*
X69328712Y-55429054D01*
X69336086Y-55439204D01*
X69343260Y-55449077D01*
X69350727Y-55453388D01*
X69366327Y-55465358D01*
X69726397Y-55825429D01*
X70082341Y-56181373D01*
X70085055Y-56184233D01*
X70112256Y-56214442D01*
X70112315Y-56214507D01*
X70134921Y-56224572D01*
X70145287Y-56230200D01*
X70166054Y-56243686D01*
X70174573Y-56245035D01*
X70193422Y-56250618D01*
X70201298Y-56254125D01*
X70226035Y-56254125D01*
X70237817Y-56255052D01*
X70241581Y-56255648D01*
X70262259Y-56258923D01*
X70270586Y-56256691D01*
X70290081Y-56254125D01*
X72173893Y-56254125D01*
X72222312Y-56271748D01*
X72227157Y-56276188D01*
X72698812Y-56747843D01*
X72720588Y-56794541D01*
X72720875Y-56801106D01*
X72720875Y-59806316D01*
X72703252Y-59854735D01*
X72658628Y-59880499D01*
X72656409Y-59880856D01*
X72647911Y-59882094D01*
X72542101Y-59933820D01*
X72458820Y-60017101D01*
X72407093Y-60122911D01*
X72397100Y-60191505D01*
X72397100Y-60808494D01*
X72407093Y-60877088D01*
X72458820Y-60982898D01*
X72542101Y-61066179D01*
X72647911Y-61117906D01*
X72716505Y-61127900D01*
X72716506Y-61127900D01*
X73183495Y-61127900D01*
X73252088Y-61117906D01*
X73357898Y-61066179D01*
X73441179Y-60982898D01*
X73492906Y-60877088D01*
X73502900Y-60808494D01*
X74047100Y-60808494D01*
X74057093Y-60877088D01*
X74108820Y-60982898D01*
X74192101Y-61066179D01*
X74297911Y-61117906D01*
X74366505Y-61127900D01*
X74366506Y-61127900D01*
X74833492Y-61127900D01*
X74833494Y-61127900D01*
X74857519Y-61124399D01*
X74907973Y-61134856D01*
X74921644Y-61145675D01*
X75832341Y-62056373D01*
X75835055Y-62059233D01*
X75857827Y-62084523D01*
X75862315Y-62089507D01*
X75884921Y-62099572D01*
X75895287Y-62105200D01*
X75916054Y-62118686D01*
X75924573Y-62120035D01*
X75943422Y-62125618D01*
X75951298Y-62129125D01*
X75976035Y-62129125D01*
X75987817Y-62130052D01*
X75991581Y-62130648D01*
X76012259Y-62133923D01*
X76020586Y-62131691D01*
X76040081Y-62129125D01*
X85692022Y-62129125D01*
X85695964Y-62129228D01*
X85736644Y-62131360D01*
X85759737Y-62122494D01*
X85771060Y-62119139D01*
X85795276Y-62113993D01*
X85802252Y-62108923D01*
X85819536Y-62099539D01*
X85827578Y-62096453D01*
X85845070Y-62078960D01*
X85854055Y-62071286D01*
X85874077Y-62056740D01*
X85878389Y-62049269D01*
X85890357Y-62033672D01*
X86406380Y-61517649D01*
X86409223Y-61514952D01*
X86439507Y-61487685D01*
X86449571Y-61465079D01*
X86455205Y-61454703D01*
X86468686Y-61433946D01*
X86470035Y-61425427D01*
X86475621Y-61406571D01*
X86479125Y-61398701D01*
X86479125Y-61373965D01*
X86480052Y-61362183D01*
X86481380Y-61353797D01*
X86483923Y-61337741D01*
X86481692Y-61329414D01*
X86479125Y-61309918D01*
X86479125Y-60386859D01*
X86496748Y-60338440D01*
X86501188Y-60333595D01*
X86529953Y-60304830D01*
X86576032Y-60258751D01*
X86634549Y-60143906D01*
X86654712Y-60016600D01*
X86634549Y-59889294D01*
X86576032Y-59774449D01*
X86484891Y-59683308D01*
X86370046Y-59624791D01*
X86242740Y-59604628D01*
X86115433Y-59624791D01*
X86000587Y-59683309D01*
X85909449Y-59774447D01*
X85850931Y-59889293D01*
X85843879Y-59933820D01*
X85830768Y-60016600D01*
X85850931Y-60143906D01*
X85907673Y-60255268D01*
X85909449Y-60258752D01*
X85935742Y-60285046D01*
X85957517Y-60331745D01*
X85944181Y-60381516D01*
X85901972Y-60411070D01*
X85850641Y-60406578D01*
X85847470Y-60405007D01*
X85812892Y-60386859D01*
X85733222Y-60345044D01*
X85579276Y-60307100D01*
X85420724Y-60307100D01*
X85266780Y-60345043D01*
X85126384Y-60418729D01*
X85007709Y-60523866D01*
X84917638Y-60654355D01*
X84861416Y-60802601D01*
X84842305Y-60960000D01*
X84861416Y-61117398D01*
X84917638Y-61265644D01*
X85007709Y-61396133D01*
X85126387Y-61501272D01*
X85178931Y-61528850D01*
X85213614Y-61566956D01*
X85215688Y-61618441D01*
X85184183Y-61659214D01*
X85143924Y-61670875D01*
X84425942Y-61670875D01*
X84377523Y-61653252D01*
X84351759Y-61608628D01*
X84360707Y-61557885D01*
X84375991Y-61539165D01*
X84492292Y-61436132D01*
X84582360Y-61305646D01*
X84589819Y-61285980D01*
X84620956Y-61203877D01*
X84638584Y-61157397D01*
X84657695Y-61000000D01*
X84638584Y-60842603D01*
X84597089Y-60733191D01*
X84582361Y-60694355D01*
X84537072Y-60628743D01*
X84492292Y-60563868D01*
X84492290Y-60563866D01*
X84373615Y-60458729D01*
X84297402Y-60418729D01*
X84233222Y-60385044D01*
X84233219Y-60385043D01*
X84079276Y-60347100D01*
X83920724Y-60347100D01*
X83766780Y-60385043D01*
X83626384Y-60458729D01*
X83507709Y-60563866D01*
X83417638Y-60694355D01*
X83361416Y-60842601D01*
X83342305Y-61000000D01*
X83361416Y-61157398D01*
X83417638Y-61305644D01*
X83472011Y-61384416D01*
X83507708Y-61436132D01*
X83623646Y-61538844D01*
X83624009Y-61539165D01*
X83648565Y-61584464D01*
X83638259Y-61634949D01*
X83597912Y-61666998D01*
X83574058Y-61670875D01*
X82925942Y-61670875D01*
X82877523Y-61653252D01*
X82851759Y-61608628D01*
X82860707Y-61557885D01*
X82875991Y-61539165D01*
X82992292Y-61436132D01*
X83082360Y-61305646D01*
X83089819Y-61285980D01*
X83120956Y-61203877D01*
X83138584Y-61157397D01*
X83157695Y-61000000D01*
X83138584Y-60842603D01*
X83097089Y-60733191D01*
X83082361Y-60694355D01*
X83037072Y-60628743D01*
X82992292Y-60563868D01*
X82992290Y-60563866D01*
X82873615Y-60458729D01*
X82797402Y-60418729D01*
X82733222Y-60385044D01*
X82733219Y-60385043D01*
X82579276Y-60347100D01*
X82420724Y-60347100D01*
X82266780Y-60385043D01*
X82126384Y-60458729D01*
X82007709Y-60563866D01*
X81917638Y-60694355D01*
X81861416Y-60842601D01*
X81842305Y-60999999D01*
X81861416Y-61157398D01*
X81917638Y-61305644D01*
X81972011Y-61384416D01*
X82007708Y-61436132D01*
X82123646Y-61538844D01*
X82124009Y-61539165D01*
X82148565Y-61584464D01*
X82138259Y-61634949D01*
X82097912Y-61666998D01*
X82074058Y-61670875D01*
X81425942Y-61670875D01*
X81377523Y-61653252D01*
X81351759Y-61608628D01*
X81360707Y-61557885D01*
X81375991Y-61539165D01*
X81492292Y-61436132D01*
X81582360Y-61305646D01*
X81589819Y-61285980D01*
X81620956Y-61203877D01*
X81638584Y-61157397D01*
X81657695Y-61000000D01*
X81638584Y-60842603D01*
X81597089Y-60733191D01*
X81582361Y-60694355D01*
X81537072Y-60628743D01*
X81492292Y-60563868D01*
X81492290Y-60563866D01*
X81373615Y-60458729D01*
X81297402Y-60418729D01*
X81233222Y-60385044D01*
X81233219Y-60385043D01*
X81079276Y-60347100D01*
X80920724Y-60347100D01*
X80766780Y-60385043D01*
X80626384Y-60458729D01*
X80507709Y-60563866D01*
X80417638Y-60694355D01*
X80361416Y-60842601D01*
X80342305Y-60999999D01*
X80361416Y-61157398D01*
X80417638Y-61305644D01*
X80472011Y-61384416D01*
X80507708Y-61436132D01*
X80623646Y-61538844D01*
X80624009Y-61539165D01*
X80648565Y-61584464D01*
X80638259Y-61634949D01*
X80597912Y-61666998D01*
X80574058Y-61670875D01*
X76126107Y-61670875D01*
X76077688Y-61653252D01*
X76072843Y-61648812D01*
X75174963Y-60750931D01*
X75153187Y-60704232D01*
X75152900Y-60697667D01*
X75152900Y-60191505D01*
X75142906Y-60122911D01*
X75091179Y-60017101D01*
X75007898Y-59933820D01*
X74902088Y-59882093D01*
X74833495Y-59872100D01*
X74833494Y-59872100D01*
X74366506Y-59872100D01*
X74366505Y-59872100D01*
X74297911Y-59882093D01*
X74192101Y-59933820D01*
X74108820Y-60017101D01*
X74057093Y-60122911D01*
X74047100Y-60191505D01*
X74047100Y-60808494D01*
X73502900Y-60808494D01*
X73502900Y-60191505D01*
X73492906Y-60122911D01*
X73441179Y-60017101D01*
X73357898Y-59933820D01*
X73252088Y-59882094D01*
X73243591Y-59880856D01*
X73198219Y-59856436D01*
X73179159Y-59808564D01*
X73179125Y-59806316D01*
X73179125Y-59008494D01*
X73497100Y-59008494D01*
X73507093Y-59077088D01*
X73558820Y-59182898D01*
X73642101Y-59266179D01*
X73747911Y-59317906D01*
X73816505Y-59327900D01*
X73816506Y-59327900D01*
X74283495Y-59327900D01*
X74352088Y-59317906D01*
X74457898Y-59266179D01*
X74541179Y-59182898D01*
X74592906Y-59077088D01*
X74602900Y-59008494D01*
X74602900Y-58827000D01*
X75046000Y-58827000D01*
X75046000Y-59027918D01*
X75046165Y-59031447D01*
X75048875Y-59060356D01*
X75094078Y-59189537D01*
X75175346Y-59299653D01*
X75285462Y-59380921D01*
X75414643Y-59426124D01*
X75443552Y-59428834D01*
X75447081Y-59429000D01*
X75573000Y-59429000D01*
X75573000Y-58827000D01*
X75827000Y-58827000D01*
X75827000Y-59429000D01*
X75952919Y-59429000D01*
X75956447Y-59428834D01*
X75985356Y-59426124D01*
X76114537Y-59380921D01*
X76224653Y-59299653D01*
X76305921Y-59189537D01*
X76351124Y-59060356D01*
X76353834Y-59031447D01*
X76354000Y-59027918D01*
X76354000Y-58827000D01*
X75827000Y-58827000D01*
X75573000Y-58827000D01*
X75046000Y-58827000D01*
X74602900Y-58827000D01*
X74602900Y-58573000D01*
X75046000Y-58573000D01*
X75573000Y-58573000D01*
X75573000Y-57971000D01*
X75827000Y-57971000D01*
X75827000Y-58573000D01*
X76354000Y-58573000D01*
X76354000Y-58372081D01*
X76353834Y-58368552D01*
X76351124Y-58339643D01*
X76305921Y-58210462D01*
X76224653Y-58100346D01*
X76114537Y-58019078D01*
X75985356Y-57973875D01*
X75956447Y-57971165D01*
X75952919Y-57971000D01*
X75827000Y-57971000D01*
X75573000Y-57971000D01*
X75447081Y-57971000D01*
X75443552Y-57971165D01*
X75414643Y-57973875D01*
X75285462Y-58019078D01*
X75175346Y-58100346D01*
X75094078Y-58210462D01*
X75048875Y-58339643D01*
X75046165Y-58368552D01*
X75046000Y-58372081D01*
X75046000Y-58573000D01*
X74602900Y-58573000D01*
X74602900Y-58391505D01*
X74592906Y-58322911D01*
X74541179Y-58217101D01*
X74457898Y-58133820D01*
X74352088Y-58082093D01*
X74283495Y-58072100D01*
X74283494Y-58072100D01*
X73816506Y-58072100D01*
X73816505Y-58072100D01*
X73747911Y-58082093D01*
X73642101Y-58133820D01*
X73558820Y-58217101D01*
X73507093Y-58322911D01*
X73497100Y-58391505D01*
X73497100Y-59008494D01*
X73179125Y-59008494D01*
X73179125Y-56682977D01*
X73179228Y-56679034D01*
X73181360Y-56638354D01*
X73172494Y-56615259D01*
X73169136Y-56603922D01*
X73166750Y-56592694D01*
X73163993Y-56579724D01*
X73158924Y-56572748D01*
X73149540Y-56555465D01*
X73146452Y-56547420D01*
X73128964Y-56529933D01*
X73121286Y-56520944D01*
X73120650Y-56520069D01*
X73106740Y-56500923D01*
X73106739Y-56500922D01*
X73099269Y-56496609D01*
X73083670Y-56484639D01*
X72776337Y-56177306D01*
X72467658Y-55868626D01*
X72464943Y-55865766D01*
X72437684Y-55835492D01*
X72415083Y-55825429D01*
X72404700Y-55819791D01*
X72383945Y-55806313D01*
X72375426Y-55804964D01*
X72356580Y-55799381D01*
X72348704Y-55795875D01*
X72348702Y-55795875D01*
X72323965Y-55795875D01*
X72312183Y-55794948D01*
X72287741Y-55791077D01*
X72279413Y-55793308D01*
X72259919Y-55795875D01*
X70376107Y-55795875D01*
X70327688Y-55778252D01*
X70322843Y-55773812D01*
X69751188Y-55202156D01*
X69733052Y-55163263D01*
X83090500Y-55163263D01*
X83101201Y-55236717D01*
X83101202Y-55236719D01*
X83156594Y-55350025D01*
X83245775Y-55439206D01*
X83359081Y-55494598D01*
X83432537Y-55505300D01*
X84004262Y-55505299D01*
X84004263Y-55505299D01*
X84028747Y-55501732D01*
X84077719Y-55494598D01*
X84191025Y-55439206D01*
X84280206Y-55350025D01*
X84335598Y-55236719D01*
X84346300Y-55163263D01*
X84346299Y-54641538D01*
X84335598Y-54568081D01*
X84280206Y-54454775D01*
X84191025Y-54365594D01*
X84077719Y-54310202D01*
X84077717Y-54310201D01*
X84016788Y-54301324D01*
X84004263Y-54299500D01*
X84004262Y-54299500D01*
X83432536Y-54299500D01*
X83359082Y-54310201D01*
X83245773Y-54365595D01*
X83156595Y-54454773D01*
X83101201Y-54568082D01*
X83090500Y-54641537D01*
X83090500Y-55163263D01*
X69733052Y-55163263D01*
X69729412Y-55155457D01*
X69729125Y-55148892D01*
X69729125Y-52122965D01*
X69729228Y-52119023D01*
X69731359Y-52078356D01*
X69722494Y-52055264D01*
X69719138Y-52043935D01*
X69713993Y-52019724D01*
X69708925Y-52012748D01*
X69699541Y-51995465D01*
X69696453Y-51987420D01*
X69678961Y-51969929D01*
X69671283Y-51960940D01*
X69670515Y-51959883D01*
X69656740Y-51940923D01*
X69656739Y-51940922D01*
X69649271Y-51936610D01*
X69633672Y-51924640D01*
X69325522Y-51616490D01*
X69303746Y-51569791D01*
X69317082Y-51520020D01*
X69359290Y-51490466D01*
X69378779Y-51487899D01*
X69721136Y-51487899D01*
X69798554Y-51472501D01*
X69865160Y-51427995D01*
X69907011Y-51415300D01*
X70052340Y-51415300D01*
X70100759Y-51432923D01*
X70105604Y-51437363D01*
X71038069Y-52369828D01*
X71059845Y-52416527D01*
X71046509Y-52466298D01*
X71004301Y-52495852D01*
X70963201Y-52495255D01*
X70869447Y-52467187D01*
X70869000Y-52467160D01*
X70869000Y-52944118D01*
X70849300Y-52930955D01*
X70742000Y-52909612D01*
X70634700Y-52930955D01*
X70615000Y-52944118D01*
X70615000Y-52472147D01*
X70531494Y-52486871D01*
X70375017Y-52554369D01*
X70238325Y-52656133D01*
X70128784Y-52786679D01*
X70052300Y-52938970D01*
X70013000Y-53104793D01*
X70013000Y-53213000D01*
X70467000Y-53213000D01*
X70467000Y-53467000D01*
X70013000Y-53467000D01*
X70013000Y-53530265D01*
X70013254Y-53534638D01*
X70027821Y-53659265D01*
X70086106Y-53819401D01*
X70179751Y-53961781D01*
X70303710Y-54078730D01*
X70451289Y-54163935D01*
X70614551Y-54212812D01*
X70615000Y-54212837D01*
X70615000Y-53735881D01*
X70634700Y-53749045D01*
X70742000Y-53770388D01*
X70849300Y-53749045D01*
X70869000Y-53735881D01*
X70869000Y-54207851D01*
X70952505Y-54193128D01*
X71108982Y-54125630D01*
X71245674Y-54023866D01*
X71355215Y-53893320D01*
X71431699Y-53741029D01*
X71471000Y-53575206D01*
X71471000Y-53467000D01*
X71017000Y-53467000D01*
X71017000Y-53213000D01*
X71471000Y-53213000D01*
X71479342Y-53204657D01*
X71488623Y-53179159D01*
X71533247Y-53153395D01*
X71583991Y-53162343D01*
X71587040Y-53164202D01*
X71672249Y-53218962D01*
X71805541Y-53258100D01*
X71805542Y-53258100D01*
X71944458Y-53258100D01*
X71944459Y-53258100D01*
X72077751Y-53218962D01*
X72143045Y-53177000D01*
X72421001Y-53177000D01*
X72421001Y-53346200D01*
X72421215Y-53350202D01*
X72427453Y-53408235D01*
X72478101Y-53544026D01*
X72564952Y-53660047D01*
X72680973Y-53746898D01*
X72816768Y-53797547D01*
X72874771Y-53803783D01*
X72878811Y-53803999D01*
X73272999Y-53803999D01*
X73273000Y-53803998D01*
X73273000Y-53177000D01*
X73527000Y-53177000D01*
X73527000Y-53803999D01*
X73921200Y-53803999D01*
X73925202Y-53803784D01*
X73983235Y-53797546D01*
X74119026Y-53746898D01*
X74235047Y-53660047D01*
X74321898Y-53544026D01*
X74372547Y-53408231D01*
X74378783Y-53350228D01*
X74379000Y-53346188D01*
X74379000Y-53177000D01*
X73527000Y-53177000D01*
X73273000Y-53177000D01*
X72421001Y-53177000D01*
X72143045Y-53177000D01*
X72194617Y-53143857D01*
X72285589Y-53038869D01*
X72319299Y-52965053D01*
X72355442Y-52928332D01*
X72389799Y-52925050D01*
X72389799Y-52923000D01*
X73273000Y-52923000D01*
X73273000Y-52296000D01*
X72878799Y-52296000D01*
X72874797Y-52296215D01*
X72816764Y-52302453D01*
X72680973Y-52353101D01*
X72564952Y-52439952D01*
X72478100Y-52555975D01*
X72464314Y-52592936D01*
X72430881Y-52632143D01*
X72380068Y-52640687D01*
X72335650Y-52614570D01*
X72325217Y-52597903D01*
X72293328Y-52528077D01*
X72285589Y-52511131D01*
X72264568Y-52486871D01*
X72194617Y-52406142D01*
X72077752Y-52331038D01*
X71980399Y-52302453D01*
X71944459Y-52291900D01*
X71944458Y-52291900D01*
X71854861Y-52291900D01*
X71806442Y-52274277D01*
X71801597Y-52269837D01*
X70780395Y-51248636D01*
X71154600Y-51248636D01*
X71169998Y-51326053D01*
X71228658Y-51413843D01*
X71263859Y-51437363D01*
X71316446Y-51472501D01*
X71393863Y-51487900D01*
X71821136Y-51487899D01*
X71898554Y-51472501D01*
X71965160Y-51427995D01*
X72007011Y-51415300D01*
X72455166Y-51415300D01*
X72503585Y-51432923D01*
X72529349Y-51477547D01*
X72529554Y-51478776D01*
X72537043Y-51526055D01*
X72594984Y-51639771D01*
X72685229Y-51730016D01*
X72798945Y-51787957D01*
X72893292Y-51802900D01*
X73489940Y-51802900D01*
X73538359Y-51820523D01*
X73543204Y-51824963D01*
X73885650Y-52167409D01*
X73907426Y-52214108D01*
X73894090Y-52263879D01*
X73851882Y-52293433D01*
X73832386Y-52296000D01*
X73527000Y-52296000D01*
X73527000Y-52923000D01*
X74378999Y-52923000D01*
X74378999Y-52842612D01*
X74396622Y-52794193D01*
X74441246Y-52768429D01*
X74491990Y-52777377D01*
X74507585Y-52789344D01*
X75031104Y-53312863D01*
X75527716Y-53809475D01*
X75536754Y-53822035D01*
X75539644Y-53824669D01*
X75539645Y-53824671D01*
X75575343Y-53857214D01*
X75577837Y-53859596D01*
X75591624Y-53873383D01*
X75593171Y-53874442D01*
X75601339Y-53880913D01*
X75623996Y-53901567D01*
X75636036Y-53906231D01*
X75651394Y-53914326D01*
X75662047Y-53921624D01*
X75691888Y-53928642D01*
X75701838Y-53931722D01*
X75730430Y-53942800D01*
X75743342Y-53942800D01*
X75760586Y-53944800D01*
X75773156Y-53947757D01*
X75803514Y-53943521D01*
X75813921Y-53942800D01*
X75871773Y-53942800D01*
X75920192Y-53960423D01*
X75945956Y-54005047D01*
X75947100Y-54018126D01*
X75947100Y-54195226D01*
X75947349Y-54197377D01*
X75947350Y-54197384D01*
X75950037Y-54220548D01*
X75973699Y-54274136D01*
X75995780Y-54324145D01*
X76075855Y-54404220D01*
X76179450Y-54449962D01*
X76204774Y-54452900D01*
X76206944Y-54452900D01*
X76593056Y-54452900D01*
X76595226Y-54452900D01*
X76620550Y-54449962D01*
X76684446Y-54421748D01*
X76735856Y-54418313D01*
X76768135Y-54437394D01*
X77002716Y-54671975D01*
X77011754Y-54684535D01*
X77014644Y-54687169D01*
X77014645Y-54687171D01*
X77050343Y-54719714D01*
X77052837Y-54722096D01*
X77066623Y-54735882D01*
X77068163Y-54736937D01*
X77076340Y-54743413D01*
X77090403Y-54756233D01*
X77098996Y-54764067D01*
X77111031Y-54768729D01*
X77126393Y-54776826D01*
X77137046Y-54784124D01*
X77166878Y-54791140D01*
X77176844Y-54794226D01*
X77205429Y-54805300D01*
X77205430Y-54805300D01*
X77218346Y-54805300D01*
X77235591Y-54807300D01*
X77248156Y-54810256D01*
X77275389Y-54806457D01*
X77278510Y-54806022D01*
X77288916Y-54805300D01*
X80437910Y-54805300D01*
X80453177Y-54807790D01*
X80457087Y-54807609D01*
X80457090Y-54807610D01*
X80505318Y-54805380D01*
X80508798Y-54805300D01*
X80528287Y-54805300D01*
X80528289Y-54805300D01*
X80530127Y-54804956D01*
X80540481Y-54803754D01*
X80571109Y-54802338D01*
X80582922Y-54797121D01*
X80599500Y-54791987D01*
X80612197Y-54789615D01*
X80638263Y-54773473D01*
X80647477Y-54768617D01*
X80675525Y-54756234D01*
X80684656Y-54747101D01*
X80698260Y-54736326D01*
X80709242Y-54729527D01*
X80727723Y-54705052D01*
X80734553Y-54697204D01*
X81671975Y-53759782D01*
X81684532Y-53750749D01*
X81687169Y-53747855D01*
X81687171Y-53747855D01*
X81719726Y-53712142D01*
X81722066Y-53709692D01*
X81735883Y-53695876D01*
X81736936Y-53694337D01*
X81743410Y-53686162D01*
X81764067Y-53663504D01*
X81768733Y-53651457D01*
X81776829Y-53636101D01*
X81784124Y-53625453D01*
X81791144Y-53595602D01*
X81794226Y-53585654D01*
X81805300Y-53557071D01*
X81805300Y-53544157D01*
X81807301Y-53526910D01*
X81809611Y-53517088D01*
X81810257Y-53514343D01*
X81806022Y-53483982D01*
X81805704Y-53479400D01*
X82989400Y-53479400D01*
X82989400Y-53621197D01*
X82989616Y-53625235D01*
X82995532Y-53680263D01*
X83043668Y-53809322D01*
X83126212Y-53919587D01*
X83236477Y-54002131D01*
X83365536Y-54050267D01*
X83420564Y-54056183D01*
X83424603Y-54056400D01*
X83591400Y-54056400D01*
X83591400Y-53479400D01*
X83845400Y-53479400D01*
X83845400Y-54056400D01*
X84012197Y-54056400D01*
X84016235Y-54056183D01*
X84071263Y-54050267D01*
X84200322Y-54002131D01*
X84310587Y-53919587D01*
X84393131Y-53809322D01*
X84441267Y-53680263D01*
X84447183Y-53625235D01*
X84447400Y-53621197D01*
X84447400Y-53479400D01*
X83845400Y-53479400D01*
X83591400Y-53479400D01*
X82989400Y-53479400D01*
X81805704Y-53479400D01*
X81805300Y-53473576D01*
X81805300Y-53449509D01*
X81817996Y-53407659D01*
X81830451Y-53389017D01*
X81862501Y-53341054D01*
X81877900Y-53263637D01*
X81877900Y-53225400D01*
X82989400Y-53225400D01*
X83591400Y-53225400D01*
X83591400Y-52648400D01*
X83845400Y-52648400D01*
X83845400Y-53225400D01*
X84447400Y-53225400D01*
X84447400Y-53083603D01*
X84447183Y-53079564D01*
X84441267Y-53024536D01*
X84393131Y-52895477D01*
X84310587Y-52785212D01*
X84200322Y-52702668D01*
X84071263Y-52654532D01*
X84016235Y-52648616D01*
X84012197Y-52648400D01*
X83845400Y-52648400D01*
X83591400Y-52648400D01*
X83424603Y-52648400D01*
X83420564Y-52648616D01*
X83365536Y-52654532D01*
X83236477Y-52702668D01*
X83126212Y-52785212D01*
X83043668Y-52895477D01*
X82995532Y-53024536D01*
X82989616Y-53079564D01*
X82989400Y-53083603D01*
X82989400Y-53225400D01*
X81877900Y-53225400D01*
X81877899Y-52836364D01*
X81862501Y-52758946D01*
X81856370Y-52749771D01*
X81803841Y-52671156D01*
X81716055Y-52612500D01*
X81716054Y-52612499D01*
X81638637Y-52597100D01*
X81638634Y-52597100D01*
X81361363Y-52597100D01*
X81283946Y-52612498D01*
X81196156Y-52671158D01*
X81143612Y-52749797D01*
X81137499Y-52758946D01*
X81122353Y-52835092D01*
X81122100Y-52836365D01*
X81122100Y-53263635D01*
X81137499Y-53341054D01*
X81139077Y-53343416D01*
X81151324Y-53393466D01*
X81129709Y-53438529D01*
X80395604Y-54172637D01*
X80348905Y-54194413D01*
X80342340Y-54194700D01*
X77420160Y-54194700D01*
X77371741Y-54177077D01*
X77366896Y-54172637D01*
X76874963Y-53680703D01*
X76853187Y-53634004D01*
X76852900Y-53627439D01*
X76852900Y-53177000D01*
X78421001Y-53177000D01*
X78421001Y-53346200D01*
X78421215Y-53350202D01*
X78427453Y-53408235D01*
X78478101Y-53544026D01*
X78564952Y-53660047D01*
X78680973Y-53746898D01*
X78816768Y-53797547D01*
X78874771Y-53803783D01*
X78878811Y-53803999D01*
X79272999Y-53803999D01*
X79273000Y-53803998D01*
X79273000Y-53177000D01*
X79527000Y-53177000D01*
X79527000Y-53803999D01*
X79921200Y-53803999D01*
X79925202Y-53803784D01*
X79983235Y-53797546D01*
X80119026Y-53746898D01*
X80235047Y-53660047D01*
X80321898Y-53544026D01*
X80372547Y-53408231D01*
X80378783Y-53350228D01*
X80379000Y-53346188D01*
X80379000Y-53177000D01*
X79527000Y-53177000D01*
X79273000Y-53177000D01*
X78421001Y-53177000D01*
X76852900Y-53177000D01*
X76852900Y-53081944D01*
X76852900Y-53081943D01*
X76852900Y-53079774D01*
X76849962Y-53054450D01*
X76804220Y-52950855D01*
X76776365Y-52923000D01*
X78421000Y-52923000D01*
X79273000Y-52923000D01*
X79273000Y-52296000D01*
X79527000Y-52296000D01*
X79527000Y-52923000D01*
X80378999Y-52923000D01*
X80378999Y-52753799D01*
X80378784Y-52749797D01*
X80372546Y-52691764D01*
X80321898Y-52555973D01*
X80235047Y-52439952D01*
X80119026Y-52353101D01*
X79983231Y-52302452D01*
X79925228Y-52296216D01*
X79921188Y-52296000D01*
X79527000Y-52296000D01*
X79273000Y-52296000D01*
X78878799Y-52296000D01*
X78874797Y-52296215D01*
X78816764Y-52302453D01*
X78680973Y-52353101D01*
X78564952Y-52439952D01*
X78478101Y-52555973D01*
X78427452Y-52691768D01*
X78421216Y-52749771D01*
X78421000Y-52753812D01*
X78421000Y-52923000D01*
X76776365Y-52923000D01*
X76724145Y-52870780D01*
X76646201Y-52836364D01*
X76620548Y-52825037D01*
X76597384Y-52822350D01*
X76597377Y-52822349D01*
X76595226Y-52822100D01*
X76204774Y-52822100D01*
X76202623Y-52822349D01*
X76202615Y-52822350D01*
X76179451Y-52825037D01*
X76075854Y-52870780D01*
X75995780Y-52950854D01*
X75950037Y-53054451D01*
X75947350Y-53077615D01*
X75947100Y-53079774D01*
X75947100Y-53081944D01*
X75947100Y-53183486D01*
X75929477Y-53231905D01*
X75884853Y-53257669D01*
X75834110Y-53248721D01*
X75818509Y-53236750D01*
X74249288Y-51667529D01*
X74227512Y-51620830D01*
X74235434Y-51580071D01*
X74262957Y-51526055D01*
X74268747Y-51489500D01*
X74896001Y-51489500D01*
X74896001Y-51906792D01*
X74910984Y-52001398D01*
X74969084Y-52115426D01*
X75059573Y-52205915D01*
X75173600Y-52264015D01*
X75268207Y-52278999D01*
X75323000Y-52278998D01*
X75323000Y-51489500D01*
X75577000Y-51489500D01*
X75577000Y-52278999D01*
X75631792Y-52278999D01*
X75726398Y-52264015D01*
X75840426Y-52205915D01*
X75930915Y-52115426D01*
X75989015Y-52001399D01*
X76004000Y-51906791D01*
X76004000Y-51489500D01*
X75577000Y-51489500D01*
X75323000Y-51489500D01*
X74896001Y-51489500D01*
X74268747Y-51489500D01*
X74277900Y-51431708D01*
X74277900Y-51362500D01*
X76836270Y-51362500D01*
X76857080Y-51507231D01*
X76857080Y-51507232D01*
X76857081Y-51507234D01*
X76889996Y-51579308D01*
X76890293Y-51579957D01*
X76897100Y-51611249D01*
X76897100Y-51920226D01*
X76897349Y-51922377D01*
X76897350Y-51922384D01*
X76900037Y-51945548D01*
X76918526Y-51987421D01*
X76945780Y-52049145D01*
X77025855Y-52129220D01*
X77129450Y-52174962D01*
X77154774Y-52177900D01*
X77156944Y-52177900D01*
X77543056Y-52177900D01*
X77545226Y-52177900D01*
X77570550Y-52174962D01*
X77674145Y-52129220D01*
X77754220Y-52049145D01*
X77799962Y-51945550D01*
X77802900Y-51920226D01*
X77802900Y-51895527D01*
X77820523Y-51847108D01*
X77865147Y-51821344D01*
X77878227Y-51820200D01*
X79157563Y-51820200D01*
X79165998Y-51820674D01*
X79204804Y-51825047D01*
X79204805Y-51825046D01*
X79204807Y-51825047D01*
X79262830Y-51814067D01*
X79265568Y-51813602D01*
X79318373Y-51805644D01*
X79331000Y-51803741D01*
X79342226Y-51802900D01*
X79906705Y-51802900D01*
X79906708Y-51802900D01*
X80001055Y-51787957D01*
X80114771Y-51730016D01*
X80205016Y-51639771D01*
X80262957Y-51526055D01*
X80267084Y-51500000D01*
X82842305Y-51500000D01*
X82861416Y-51657398D01*
X82917638Y-51805644D01*
X82957535Y-51863444D01*
X82998218Y-51922384D01*
X83007709Y-51936133D01*
X83126384Y-52041270D01*
X83126385Y-52041270D01*
X83126387Y-52041272D01*
X83266778Y-52114956D01*
X83420724Y-52152900D01*
X83579276Y-52152900D01*
X83733222Y-52114956D01*
X83873613Y-52041272D01*
X83992292Y-51936132D01*
X84082360Y-51805646D01*
X84083083Y-51803741D01*
X84103984Y-51748628D01*
X84138584Y-51657397D01*
X84157695Y-51500000D01*
X84342305Y-51500000D01*
X84361416Y-51657398D01*
X84417638Y-51805644D01*
X84457535Y-51863444D01*
X84498218Y-51922384D01*
X84507709Y-51936133D01*
X84626384Y-52041270D01*
X84626385Y-52041270D01*
X84626387Y-52041272D01*
X84766778Y-52114956D01*
X84920724Y-52152900D01*
X85079276Y-52152900D01*
X85233222Y-52114956D01*
X85373613Y-52041272D01*
X85492292Y-51936132D01*
X85582360Y-51805646D01*
X85583083Y-51803741D01*
X85603984Y-51748628D01*
X85638584Y-51657397D01*
X85657695Y-51500000D01*
X85638584Y-51342603D01*
X85621368Y-51297209D01*
X85582361Y-51194355D01*
X85545124Y-51140408D01*
X85492292Y-51063868D01*
X85492290Y-51063866D01*
X85373615Y-50958729D01*
X85362437Y-50952862D01*
X85233222Y-50885044D01*
X85233219Y-50885043D01*
X85079276Y-50847100D01*
X84920724Y-50847100D01*
X84766780Y-50885043D01*
X84626384Y-50958729D01*
X84507709Y-51063866D01*
X84417638Y-51194355D01*
X84361416Y-51342601D01*
X84342305Y-51500000D01*
X84157695Y-51500000D01*
X84138584Y-51342603D01*
X84121368Y-51297209D01*
X84082361Y-51194355D01*
X84045124Y-51140408D01*
X83992292Y-51063868D01*
X83992290Y-51063866D01*
X83873615Y-50958729D01*
X83862437Y-50952862D01*
X83733222Y-50885044D01*
X83733219Y-50885043D01*
X83579276Y-50847100D01*
X83420724Y-50847100D01*
X83266780Y-50885043D01*
X83126384Y-50958729D01*
X83007709Y-51063866D01*
X82917638Y-51194355D01*
X82861416Y-51342601D01*
X82842305Y-51500000D01*
X80267084Y-51500000D01*
X80277900Y-51431708D01*
X80277900Y-50868292D01*
X80262957Y-50773945D01*
X80205016Y-50660229D01*
X80114771Y-50569984D01*
X80001055Y-50512043D01*
X79906708Y-50497100D01*
X78893292Y-50497100D01*
X78798945Y-50512043D01*
X78685227Y-50569985D01*
X78594985Y-50660227D01*
X78594983Y-50660229D01*
X78594984Y-50660229D01*
X78537043Y-50773945D01*
X78530033Y-50818208D01*
X78526382Y-50841257D01*
X78501401Y-50886323D01*
X78453296Y-50904789D01*
X78451982Y-50904800D01*
X77878227Y-50904800D01*
X77829808Y-50887177D01*
X77804044Y-50842553D01*
X77802900Y-50829473D01*
X77802900Y-50806944D01*
X77802900Y-50804774D01*
X77799962Y-50779450D01*
X77754220Y-50675855D01*
X77674145Y-50595780D01*
X77615723Y-50569984D01*
X77570548Y-50550037D01*
X77547384Y-50547350D01*
X77547377Y-50547349D01*
X77545226Y-50547100D01*
X77154774Y-50547100D01*
X77152623Y-50547349D01*
X77152615Y-50547350D01*
X77129451Y-50550037D01*
X77025854Y-50595780D01*
X76945780Y-50675854D01*
X76900037Y-50779451D01*
X76897350Y-50802615D01*
X76897100Y-50804774D01*
X76897100Y-50806944D01*
X76897100Y-51113749D01*
X76890293Y-51145041D01*
X76857080Y-51217767D01*
X76836270Y-51362500D01*
X74277900Y-51362500D01*
X74277900Y-51235500D01*
X74896000Y-51235500D01*
X75323000Y-51235500D01*
X75323000Y-50446000D01*
X75577000Y-50446000D01*
X75577000Y-51235500D01*
X76003999Y-51235500D01*
X76003999Y-50818207D01*
X75989015Y-50723601D01*
X75930915Y-50609573D01*
X75840426Y-50519084D01*
X75726399Y-50460984D01*
X75631792Y-50446000D01*
X75577000Y-50446000D01*
X75323000Y-50446000D01*
X75322999Y-50445999D01*
X75268207Y-50446000D01*
X75173601Y-50460984D01*
X75059573Y-50519084D01*
X74969084Y-50609573D01*
X74910984Y-50723600D01*
X74896000Y-50818208D01*
X74896000Y-51235500D01*
X74277900Y-51235500D01*
X74277900Y-50868292D01*
X74262957Y-50773945D01*
X74205016Y-50660229D01*
X74114771Y-50569984D01*
X74001055Y-50512043D01*
X73906708Y-50497100D01*
X72893292Y-50497100D01*
X72798945Y-50512043D01*
X72685227Y-50569985D01*
X72594984Y-50660228D01*
X72587022Y-50675855D01*
X72542328Y-50763571D01*
X72504646Y-50798712D01*
X72475213Y-50804700D01*
X72007011Y-50804700D01*
X71965162Y-50792005D01*
X71898555Y-50747500D01*
X71898554Y-50747499D01*
X71821137Y-50732100D01*
X71821134Y-50732100D01*
X71393864Y-50732100D01*
X71316446Y-50747498D01*
X71228656Y-50806158D01*
X71170000Y-50893944D01*
X71169999Y-50893946D01*
X71156662Y-50960998D01*
X71154600Y-50971365D01*
X71154600Y-51248636D01*
X70780395Y-51248636D01*
X70469784Y-50938025D01*
X70460748Y-50925466D01*
X70449118Y-50914864D01*
X70422157Y-50890286D01*
X70419662Y-50887903D01*
X70405877Y-50874118D01*
X70405876Y-50874117D01*
X70404326Y-50873055D01*
X70396159Y-50866585D01*
X70373503Y-50845932D01*
X70361461Y-50841267D01*
X70346106Y-50833173D01*
X70335453Y-50825876D01*
X70305612Y-50818857D01*
X70295647Y-50815771D01*
X70284209Y-50811340D01*
X70267070Y-50804700D01*
X70254158Y-50804700D01*
X70236913Y-50802699D01*
X70224344Y-50799743D01*
X70213212Y-50801296D01*
X70193986Y-50803978D01*
X70183579Y-50804700D01*
X69907011Y-50804700D01*
X69865162Y-50792005D01*
X69798555Y-50747500D01*
X69798554Y-50747499D01*
X69721137Y-50732100D01*
X69721134Y-50732100D01*
X69293864Y-50732100D01*
X69216446Y-50747498D01*
X69146302Y-50794368D01*
X69096252Y-50806615D01*
X69050039Y-50783826D01*
X69029286Y-50736663D01*
X69029125Y-50731736D01*
X69029125Y-50123307D01*
X69046748Y-50074888D01*
X69051188Y-50070043D01*
X69711912Y-49409319D01*
X69996176Y-49125055D01*
X72657100Y-49125055D01*
X72665971Y-49169658D01*
X72699766Y-49220235D01*
X72748046Y-49252494D01*
X72750342Y-49254028D01*
X72794943Y-49262900D01*
X74525056Y-49262899D01*
X74569658Y-49254028D01*
X74620234Y-49220234D01*
X74654028Y-49169658D01*
X74662900Y-49125057D01*
X74662899Y-48132999D01*
X75103037Y-48132999D01*
X75103038Y-48133000D01*
X75716182Y-48133000D01*
X75700000Y-48188111D01*
X75700000Y-48331889D01*
X75716182Y-48387000D01*
X75103038Y-48387000D01*
X75110148Y-48463731D01*
X75166139Y-48660518D01*
X75257338Y-48843670D01*
X75380640Y-49006949D01*
X75531840Y-49144786D01*
X75705795Y-49252494D01*
X75896582Y-49326405D01*
X76072999Y-49359382D01*
X76073000Y-49359382D01*
X76073000Y-48746881D01*
X76164237Y-48760000D01*
X76235763Y-48760000D01*
X76327000Y-48746881D01*
X76327000Y-49359382D01*
X76503417Y-49326405D01*
X76694204Y-49252494D01*
X76868159Y-49144786D01*
X77019359Y-49006949D01*
X77142661Y-48843670D01*
X77233860Y-48660518D01*
X77289851Y-48463731D01*
X77296962Y-48387000D01*
X76683818Y-48387000D01*
X76700000Y-48331889D01*
X76700000Y-48259999D01*
X77732247Y-48259999D01*
X77751610Y-48456604D01*
X77808955Y-48645645D01*
X77882216Y-48782708D01*
X77902084Y-48819878D01*
X78027411Y-48972589D01*
X78180122Y-49097916D01*
X78314343Y-49169658D01*
X78354354Y-49191044D01*
X78543395Y-49248389D01*
X78575749Y-49251575D01*
X78740000Y-49267753D01*
X78918976Y-49250125D01*
X78936604Y-49248389D01*
X79125645Y-49191044D01*
X79125647Y-49191042D01*
X79125650Y-49191042D01*
X79299878Y-49097916D01*
X79452589Y-48972589D01*
X79577916Y-48819878D01*
X79671042Y-48645650D01*
X79686926Y-48593290D01*
X79728389Y-48456604D01*
X79735244Y-48387000D01*
X79747753Y-48260000D01*
X79728389Y-48063397D01*
X79728389Y-48063395D01*
X79671042Y-47874350D01*
X79620271Y-47779363D01*
X79612988Y-47728353D01*
X79633436Y-47690593D01*
X79891470Y-47432561D01*
X79938168Y-47410787D01*
X79944733Y-47410500D01*
X80523713Y-47410500D01*
X80572132Y-47428123D01*
X80597896Y-47472747D01*
X80588948Y-47523491D01*
X80571501Y-47544053D01*
X80567411Y-47547411D01*
X80567410Y-47547412D01*
X80442084Y-47700121D01*
X80348955Y-47874354D01*
X80291610Y-48063395D01*
X80272247Y-48259999D01*
X80291610Y-48456604D01*
X80348955Y-48645645D01*
X80422216Y-48782708D01*
X80442084Y-48819878D01*
X80567411Y-48972589D01*
X80720122Y-49097916D01*
X80854343Y-49169658D01*
X80894354Y-49191044D01*
X81083395Y-49248389D01*
X81102991Y-49250318D01*
X81126755Y-49252659D01*
X81173214Y-49274942D01*
X81194480Y-49321876D01*
X81194700Y-49327623D01*
X81194700Y-50550489D01*
X81182005Y-50592338D01*
X81148419Y-50642603D01*
X81137499Y-50658946D01*
X81122948Y-50732100D01*
X81122100Y-50736365D01*
X81122100Y-51163635D01*
X81137498Y-51241053D01*
X81196158Y-51328843D01*
X81246530Y-51362500D01*
X81283946Y-51387501D01*
X81361363Y-51402900D01*
X81638636Y-51402899D01*
X81716054Y-51387501D01*
X81803842Y-51328842D01*
X81805183Y-51326836D01*
X81824979Y-51297209D01*
X81862501Y-51241054D01*
X81877900Y-51163637D01*
X81877899Y-50736364D01*
X81862501Y-50658946D01*
X81833119Y-50614974D01*
X81817995Y-50592339D01*
X81805300Y-50550489D01*
X81805300Y-49161547D01*
X81822923Y-49113128D01*
X81834834Y-49103464D01*
X81834143Y-49102622D01*
X81839875Y-49097917D01*
X81839878Y-49097916D01*
X81992589Y-48972589D01*
X82117916Y-48819878D01*
X82211042Y-48645650D01*
X82226926Y-48593290D01*
X82268389Y-48456604D01*
X82275244Y-48387000D01*
X82287753Y-48260000D01*
X82287234Y-48254733D01*
X82300026Y-48204820D01*
X82341909Y-48174807D01*
X82393286Y-48178737D01*
X82415462Y-48194086D01*
X82490187Y-48268811D01*
X82511963Y-48315510D01*
X82512250Y-48322075D01*
X82512250Y-48698804D01*
X82512147Y-48702746D01*
X82510014Y-48743426D01*
X82518879Y-48766519D01*
X82522235Y-48777849D01*
X82527381Y-48802057D01*
X82532450Y-48809033D01*
X82541834Y-48826316D01*
X82544921Y-48834360D01*
X82562410Y-48851848D01*
X82570087Y-48860836D01*
X82584635Y-48880859D01*
X82592102Y-48885170D01*
X82607703Y-48897141D01*
X83205559Y-49494998D01*
X83208273Y-49497858D01*
X83235531Y-49528130D01*
X83235533Y-49528132D01*
X83258139Y-49538197D01*
X83268505Y-49543825D01*
X83289272Y-49557311D01*
X83297791Y-49558660D01*
X83316640Y-49564243D01*
X83324516Y-49567750D01*
X83349252Y-49567750D01*
X83361034Y-49568677D01*
X83366841Y-49569596D01*
X83385477Y-49572548D01*
X83393803Y-49570316D01*
X83413299Y-49567750D01*
X84341394Y-49567750D01*
X84389813Y-49585373D01*
X84394658Y-49589813D01*
X86102053Y-51297209D01*
X86123187Y-51338687D01*
X86141474Y-51454142D01*
X86199991Y-51568987D01*
X86291132Y-51660128D01*
X86405977Y-51718645D01*
X86533283Y-51738808D01*
X86660589Y-51718645D01*
X86775434Y-51660128D01*
X86866575Y-51568987D01*
X86925092Y-51454142D01*
X86945255Y-51326836D01*
X86925092Y-51199530D01*
X86866575Y-51084685D01*
X86775434Y-50993544D01*
X86660589Y-50935027D01*
X86533283Y-50914864D01*
X86533282Y-50914864D01*
X86428308Y-50931490D01*
X86377728Y-50921658D01*
X86363261Y-50910354D01*
X85160624Y-49707716D01*
X85138848Y-49661017D01*
X85152184Y-49611246D01*
X85194392Y-49581692D01*
X85213888Y-49579125D01*
X86675543Y-49579125D01*
X86723962Y-49596748D01*
X86728806Y-49601187D01*
X89346585Y-52218967D01*
X91956594Y-54828976D01*
X91959308Y-54831836D01*
X91986566Y-54862108D01*
X91986568Y-54862110D01*
X92009174Y-54872175D01*
X92019540Y-54877803D01*
X92040307Y-54891289D01*
X92048826Y-54892638D01*
X92067675Y-54898221D01*
X92075551Y-54901728D01*
X92100288Y-54901728D01*
X92112070Y-54902655D01*
X92115834Y-54903251D01*
X92136512Y-54906526D01*
X92144839Y-54904294D01*
X92164334Y-54901728D01*
X93252480Y-54901728D01*
X93300899Y-54919351D01*
X93305744Y-54923790D01*
X93387849Y-55005895D01*
X93502694Y-55064412D01*
X93630000Y-55084575D01*
X93757306Y-55064412D01*
X93872151Y-55005895D01*
X93963292Y-54914754D01*
X94021809Y-54799909D01*
X94041972Y-54672603D01*
X94021809Y-54545297D01*
X94013569Y-54529126D01*
X94007291Y-54477986D01*
X94035354Y-54434771D01*
X94080687Y-54419603D01*
X94818005Y-54419603D01*
X94866424Y-54437226D01*
X94892188Y-54481850D01*
X94883240Y-54532594D01*
X94851088Y-54562603D01*
X94737374Y-54618194D01*
X94648195Y-54707373D01*
X94592801Y-54820682D01*
X94582100Y-54894137D01*
X94582100Y-55465863D01*
X94592801Y-55539317D01*
X94592802Y-55539319D01*
X94648194Y-55652625D01*
X94648195Y-55652626D01*
X94687853Y-55692284D01*
X94709629Y-55738983D01*
X94696293Y-55788754D01*
X94654085Y-55818308D01*
X94634589Y-55820875D01*
X89187520Y-55820875D01*
X89139101Y-55803252D01*
X89134256Y-55798813D01*
X89094071Y-55758628D01*
X89052151Y-55716708D01*
X88937306Y-55658191D01*
X88810000Y-55638028D01*
X88682693Y-55658191D01*
X88567847Y-55716709D01*
X88476709Y-55807847D01*
X88418191Y-55922693D01*
X88410281Y-55972639D01*
X88398028Y-56050000D01*
X88418191Y-56177306D01*
X88476708Y-56292151D01*
X88567849Y-56383292D01*
X88682694Y-56441809D01*
X88767241Y-56455199D01*
X88812306Y-56480180D01*
X88830772Y-56528284D01*
X88829856Y-56541380D01*
X88828459Y-56550196D01*
X88848579Y-56677228D01*
X88848623Y-56677505D01*
X88907140Y-56792350D01*
X88998281Y-56883491D01*
X89113126Y-56942008D01*
X89240432Y-56962171D01*
X89367738Y-56942008D01*
X89482583Y-56883491D01*
X89573724Y-56792350D01*
X89632241Y-56677505D01*
X89634164Y-56665362D01*
X89636991Y-56647518D01*
X89661972Y-56602452D01*
X89710076Y-56583987D01*
X89711390Y-56583976D01*
X91771300Y-56583976D01*
X91819719Y-56601599D01*
X91845483Y-56646223D01*
X91838417Y-56693499D01*
X91811560Y-56746207D01*
X91788191Y-56792072D01*
X91785090Y-56811651D01*
X91768028Y-56919379D01*
X91788191Y-57046685D01*
X91788191Y-57046686D01*
X91788192Y-57046687D01*
X91797176Y-57064320D01*
X91803455Y-57115462D01*
X91775392Y-57158676D01*
X91730059Y-57173844D01*
X91380489Y-57173844D01*
X91332070Y-57156221D01*
X91327225Y-57151782D01*
X91290905Y-57115462D01*
X91245120Y-57069677D01*
X91130275Y-57011160D01*
X91002969Y-56990997D01*
X90875662Y-57011160D01*
X90760816Y-57069678D01*
X90669678Y-57160816D01*
X90611160Y-57275662D01*
X90611159Y-57275663D01*
X90611160Y-57275663D01*
X90590997Y-57402969D01*
X90611160Y-57530275D01*
X90616049Y-57539871D01*
X90622804Y-57553127D01*
X90629083Y-57604270D01*
X90601020Y-57647484D01*
X90555687Y-57662652D01*
X90159297Y-57662652D01*
X90110878Y-57645029D01*
X90106033Y-57640590D01*
X90065623Y-57600180D01*
X90023928Y-57558485D01*
X89909083Y-57499968D01*
X89781777Y-57479805D01*
X89654470Y-57499968D01*
X89539624Y-57558486D01*
X89448486Y-57649624D01*
X89389968Y-57764470D01*
X89383940Y-57802528D01*
X89369805Y-57891777D01*
X89389968Y-58019083D01*
X89448485Y-58133928D01*
X89539626Y-58225069D01*
X89654471Y-58283586D01*
X89781777Y-58303749D01*
X89909083Y-58283586D01*
X90023928Y-58225069D01*
X90106033Y-58142964D01*
X90152732Y-58121189D01*
X90159297Y-58120902D01*
X92313283Y-58120902D01*
X92317225Y-58121005D01*
X92357905Y-58123137D01*
X92380998Y-58114271D01*
X92392321Y-58110916D01*
X92416537Y-58105770D01*
X92423513Y-58100700D01*
X92440797Y-58091316D01*
X92448839Y-58088230D01*
X92466331Y-58070737D01*
X92475316Y-58063063D01*
X92495338Y-58048517D01*
X92499650Y-58041046D01*
X92511618Y-58025449D01*
X92662410Y-57874658D01*
X92709108Y-57852883D01*
X92758879Y-57866219D01*
X92769762Y-57881762D01*
X92791000Y-57903000D01*
X94199000Y-57903000D01*
X94199000Y-57736203D01*
X94198783Y-57732164D01*
X94192867Y-57677136D01*
X94164164Y-57600180D01*
X94163756Y-57548655D01*
X94196562Y-57508922D01*
X94234742Y-57498529D01*
X94416291Y-57498529D01*
X94464710Y-57516152D01*
X94490474Y-57560776D01*
X94483964Y-57606937D01*
X94465343Y-57645029D01*
X94452801Y-57670682D01*
X94442100Y-57744137D01*
X94442100Y-58315863D01*
X94452801Y-58389317D01*
X94452802Y-58389319D01*
X94508194Y-58502625D01*
X94597375Y-58591806D01*
X94710681Y-58647198D01*
X94784137Y-58657900D01*
X95291233Y-58657899D01*
X95333081Y-58670593D01*
X95373699Y-58697734D01*
X95447933Y-58712500D01*
X95447937Y-58712500D01*
X95455211Y-58713946D01*
X95455212Y-58713947D01*
X95473000Y-58717485D01*
X95490788Y-58713947D01*
X95505483Y-58712500D01*
X96889513Y-58712500D01*
X96904207Y-58713946D01*
X96922000Y-58717486D01*
X96962788Y-58709373D01*
X97021301Y-58697734D01*
X97030168Y-58691809D01*
X97084234Y-58655684D01*
X97084235Y-58655682D01*
X97094926Y-58648539D01*
X97094930Y-58648535D01*
X97105484Y-58641484D01*
X97115558Y-58626406D01*
X97124926Y-58614991D01*
X97173357Y-58566562D01*
X97220056Y-58544787D01*
X97226620Y-58544500D01*
X97290927Y-58544500D01*
X97339346Y-58562123D01*
X97365110Y-58606747D01*
X97365467Y-58608968D01*
X97372801Y-58659318D01*
X97384173Y-58682579D01*
X97428194Y-58772625D01*
X97517375Y-58861806D01*
X97630681Y-58917198D01*
X97704137Y-58927900D01*
X98225862Y-58927899D01*
X98225863Y-58927899D01*
X98250347Y-58924332D01*
X98299319Y-58917198D01*
X98412625Y-58861806D01*
X98501806Y-58772625D01*
X98557198Y-58659319D01*
X98567900Y-58585863D01*
X98912100Y-58585863D01*
X98922801Y-58659317D01*
X98922802Y-58659319D01*
X98978194Y-58772625D01*
X99067375Y-58861806D01*
X99180681Y-58917198D01*
X99254137Y-58927900D01*
X99775862Y-58927899D01*
X99775863Y-58927899D01*
X99800347Y-58924332D01*
X99849319Y-58917198D01*
X99962625Y-58861806D01*
X100051806Y-58772625D01*
X100107198Y-58659319D01*
X100117900Y-58585863D01*
X100792100Y-58585863D01*
X100802801Y-58659317D01*
X100802802Y-58659319D01*
X100858194Y-58772625D01*
X100947375Y-58861806D01*
X101060681Y-58917198D01*
X101134137Y-58927900D01*
X101655862Y-58927899D01*
X101655863Y-58927899D01*
X101680347Y-58924332D01*
X101729319Y-58917198D01*
X101842625Y-58861806D01*
X101931806Y-58772625D01*
X101987198Y-58659319D01*
X101997900Y-58585863D01*
X101997900Y-58427000D01*
X102241000Y-58427000D01*
X102241000Y-58593796D01*
X102241216Y-58597835D01*
X102247132Y-58652863D01*
X102295268Y-58781922D01*
X102377812Y-58892187D01*
X102488077Y-58974731D01*
X102617136Y-59022867D01*
X102672164Y-59028783D01*
X102676203Y-59029000D01*
X102818000Y-59029000D01*
X102818000Y-58427000D01*
X103072000Y-58427000D01*
X103072000Y-59029000D01*
X103213797Y-59029000D01*
X103217835Y-59028783D01*
X103272863Y-59022867D01*
X103401922Y-58974731D01*
X103512187Y-58892187D01*
X103581198Y-58800000D01*
X110088028Y-58800000D01*
X110108191Y-58927306D01*
X110166708Y-59042151D01*
X110257849Y-59133292D01*
X110372694Y-59191809D01*
X110500000Y-59211972D01*
X110627306Y-59191809D01*
X110742151Y-59133292D01*
X110833292Y-59042151D01*
X110891809Y-58927306D01*
X110911972Y-58800000D01*
X110891809Y-58672694D01*
X110833292Y-58557849D01*
X110742151Y-58466708D01*
X110627306Y-58408191D01*
X110500000Y-58388028D01*
X110372693Y-58408191D01*
X110257847Y-58466709D01*
X110166709Y-58557847D01*
X110108191Y-58672693D01*
X110104225Y-58697733D01*
X110088028Y-58800000D01*
X103581198Y-58800000D01*
X103594731Y-58781922D01*
X103642867Y-58652863D01*
X103648783Y-58597835D01*
X103649000Y-58593796D01*
X103649000Y-58427000D01*
X103072000Y-58427000D01*
X102818000Y-58427000D01*
X102241000Y-58427000D01*
X101997900Y-58427000D01*
X101997899Y-58014138D01*
X101987198Y-57940681D01*
X101931806Y-57827375D01*
X101842625Y-57738194D01*
X101729319Y-57682802D01*
X101729317Y-57682801D01*
X101668388Y-57673924D01*
X101655863Y-57672100D01*
X101655862Y-57672100D01*
X101134136Y-57672100D01*
X101060682Y-57682801D01*
X100947373Y-57738195D01*
X100858195Y-57827373D01*
X100802801Y-57940682D01*
X100792100Y-58014137D01*
X100792100Y-58585863D01*
X100117900Y-58585863D01*
X100117899Y-58014138D01*
X100107198Y-57940681D01*
X100051806Y-57827375D01*
X99962625Y-57738194D01*
X99849319Y-57682802D01*
X99849317Y-57682801D01*
X99788388Y-57673924D01*
X99775863Y-57672100D01*
X99775862Y-57672100D01*
X99254136Y-57672100D01*
X99180682Y-57682801D01*
X99067373Y-57738195D01*
X98978195Y-57827373D01*
X98922801Y-57940682D01*
X98912100Y-58014137D01*
X98912100Y-58585863D01*
X98567900Y-58585863D01*
X98567899Y-58014138D01*
X98557198Y-57940681D01*
X98501806Y-57827375D01*
X98412625Y-57738194D01*
X98299319Y-57682802D01*
X98299317Y-57682801D01*
X98238388Y-57673924D01*
X98225863Y-57672100D01*
X98225862Y-57672100D01*
X97704136Y-57672100D01*
X97630682Y-57682801D01*
X97517373Y-57738195D01*
X97428195Y-57827373D01*
X97372801Y-57940681D01*
X97368380Y-57971033D01*
X97343960Y-58016406D01*
X97296089Y-58035466D01*
X97293840Y-58035500D01*
X97122487Y-58035500D01*
X97107792Y-58034053D01*
X97089999Y-58030513D01*
X97064933Y-58035500D01*
X97035191Y-58041416D01*
X96990699Y-58050265D01*
X96960051Y-58070744D01*
X96927766Y-58092316D01*
X96927762Y-58092319D01*
X96927695Y-58092364D01*
X96906515Y-58106516D01*
X96896439Y-58121595D01*
X96887075Y-58133004D01*
X96838645Y-58181436D01*
X96791947Y-58203213D01*
X96785380Y-58203500D01*
X95723227Y-58203500D01*
X95674808Y-58185877D01*
X95649044Y-58141253D01*
X95647900Y-58128173D01*
X95647899Y-57744136D01*
X95637198Y-57670682D01*
X95637198Y-57670681D01*
X95606035Y-57606937D01*
X95600603Y-57555700D01*
X95629377Y-57512956D01*
X95673709Y-57498529D01*
X102431061Y-57498529D01*
X102479480Y-57516152D01*
X102505244Y-57560776D01*
X102496296Y-57611520D01*
X102476203Y-57634158D01*
X102377812Y-57707812D01*
X102295268Y-57818077D01*
X102247132Y-57947136D01*
X102241216Y-58002164D01*
X102241000Y-58006203D01*
X102241000Y-58173000D01*
X103649000Y-58173000D01*
X103649000Y-58006203D01*
X103648783Y-58002164D01*
X103642867Y-57947136D01*
X103594731Y-57818077D01*
X103512187Y-57707812D01*
X103413797Y-57634158D01*
X103385597Y-57591033D01*
X103391714Y-57539871D01*
X103429287Y-57504611D01*
X103458939Y-57498529D01*
X110213297Y-57498529D01*
X110261716Y-57516152D01*
X110266560Y-57520591D01*
X110760104Y-58014136D01*
X111246141Y-58500173D01*
X111248855Y-58503033D01*
X111267061Y-58523252D01*
X111276115Y-58533307D01*
X111298721Y-58543372D01*
X111309092Y-58549003D01*
X111327180Y-58560750D01*
X111358190Y-58601900D01*
X111361482Y-58623936D01*
X111361481Y-58626523D01*
X111361482Y-58626526D01*
X111361482Y-58626527D01*
X111387466Y-58723589D01*
X111437693Y-58810615D01*
X111508737Y-58881670D01*
X111595755Y-58931910D01*
X111692813Y-58957910D01*
X111692815Y-58957909D01*
X111692823Y-58957912D01*
X111702652Y-58957910D01*
X111702654Y-58957911D01*
X111711781Y-58957909D01*
X111711964Y-58957975D01*
X111743055Y-58957971D01*
X111743055Y-58957972D01*
X111793295Y-58957965D01*
X111890346Y-58931942D01*
X111977354Y-58881685D01*
X111994624Y-58864406D01*
X112041317Y-58842619D01*
X112091092Y-58855943D01*
X112101160Y-58864389D01*
X112118440Y-58881672D01*
X112205459Y-58931912D01*
X112302517Y-58957911D01*
X112303570Y-58957910D01*
X112303591Y-58957913D01*
X112312358Y-58957911D01*
X112312359Y-58957912D01*
X112321482Y-58957910D01*
X112321670Y-58957978D01*
X112352760Y-58957973D01*
X112352760Y-58957974D01*
X112403000Y-58957966D01*
X112500050Y-58931942D01*
X112587058Y-58881685D01*
X112658091Y-58810620D01*
X112708309Y-58723590D01*
X112734289Y-58626527D01*
X112734288Y-58623614D01*
X112751896Y-58575191D01*
X112796511Y-58549413D01*
X112829114Y-58550832D01*
X112855285Y-58557847D01*
X112905145Y-58571210D01*
X112909976Y-58572925D01*
X112911298Y-58572925D01*
X112960000Y-58572925D01*
X113000401Y-58572925D01*
X113128624Y-58572925D01*
X113177043Y-58590548D01*
X113199056Y-58621540D01*
X113209296Y-58648539D01*
X113209640Y-58649446D01*
X113299708Y-58779932D01*
X113299709Y-58779933D01*
X113418385Y-58885071D01*
X113418387Y-58885072D01*
X113469888Y-58912102D01*
X113504569Y-58950206D01*
X113506644Y-59001691D01*
X113475140Y-59042464D01*
X113469888Y-59045497D01*
X113418386Y-59072528D01*
X113299709Y-59177666D01*
X113209639Y-59308155D01*
X113199056Y-59336060D01*
X113165407Y-59375083D01*
X113128624Y-59384675D01*
X112854178Y-59384675D01*
X112850235Y-59384572D01*
X112809555Y-59382439D01*
X112786460Y-59391305D01*
X112775129Y-59394662D01*
X112750924Y-59399807D01*
X112743947Y-59404876D01*
X112726672Y-59414255D01*
X112718621Y-59417345D01*
X112701128Y-59434838D01*
X112692145Y-59442511D01*
X112672123Y-59457058D01*
X112667812Y-59464526D01*
X112655842Y-59480124D01*
X112647154Y-59488812D01*
X112600455Y-59510588D01*
X112593890Y-59510875D01*
X102370514Y-59510875D01*
X102366571Y-59510772D01*
X102325889Y-59508639D01*
X102302792Y-59517505D01*
X102291467Y-59520860D01*
X102263280Y-59526853D01*
X102247614Y-59528500D01*
X102071197Y-59528500D01*
X102022778Y-59510877D01*
X102017933Y-59506437D01*
X101888321Y-59376825D01*
X101742898Y-59231401D01*
X101740183Y-59228541D01*
X101726043Y-59212837D01*
X101712925Y-59198268D01*
X101712924Y-59198267D01*
X101690323Y-59188204D01*
X101679940Y-59182566D01*
X101672394Y-59177666D01*
X101659186Y-59169089D01*
X101653903Y-59168252D01*
X101650665Y-59167739D01*
X101631819Y-59162157D01*
X101623942Y-59158650D01*
X101623936Y-59158649D01*
X101599199Y-59158649D01*
X101587422Y-59157722D01*
X101562981Y-59153851D01*
X101556069Y-59155703D01*
X101554652Y-59156083D01*
X101535160Y-59158649D01*
X94628174Y-59158649D01*
X94579755Y-59141026D01*
X94553991Y-59096402D01*
X94553783Y-59095164D01*
X94551809Y-59082694D01*
X94493292Y-58967849D01*
X94402151Y-58876708D01*
X94287306Y-58818191D01*
X94160000Y-58798028D01*
X94159999Y-58798028D01*
X94038438Y-58817281D01*
X93987858Y-58807449D01*
X93955432Y-58767405D01*
X93956331Y-58715886D01*
X93981513Y-58682579D01*
X94062187Y-58622186D01*
X94144731Y-58511922D01*
X94192867Y-58382863D01*
X94198783Y-58327835D01*
X94199000Y-58323796D01*
X94199000Y-58157000D01*
X93622000Y-58157000D01*
X93622000Y-58759000D01*
X93763797Y-58759000D01*
X93767835Y-58758783D01*
X93822863Y-58752867D01*
X93850004Y-58742744D01*
X93901530Y-58742334D01*
X93941263Y-58775140D01*
X93950614Y-58825811D01*
X93925207Y-58870638D01*
X93921329Y-58873227D01*
X93826708Y-58967848D01*
X93783530Y-59052588D01*
X93745846Y-59087728D01*
X93694390Y-59090424D01*
X93663150Y-59071653D01*
X93390063Y-58798565D01*
X93368287Y-58751866D01*
X93368000Y-58745301D01*
X93368000Y-58157000D01*
X92791000Y-58157000D01*
X92791000Y-58323796D01*
X92791216Y-58327835D01*
X92797132Y-58382863D01*
X92818154Y-58439224D01*
X92818562Y-58490749D01*
X92785756Y-58530482D01*
X92747576Y-58540875D01*
X89426107Y-58540875D01*
X89377688Y-58523252D01*
X89372843Y-58518812D01*
X87677087Y-56823055D01*
X87655311Y-56776356D01*
X87655952Y-56758006D01*
X87661972Y-56720000D01*
X87655795Y-56681000D01*
X87641809Y-56592694D01*
X87583292Y-56477849D01*
X87492151Y-56386708D01*
X87377306Y-56328191D01*
X87250000Y-56308028D01*
X87122693Y-56328191D01*
X87007847Y-56386709D01*
X86916709Y-56477847D01*
X86916707Y-56477849D01*
X86916708Y-56477849D01*
X86861558Y-56586087D01*
X86857510Y-56594031D01*
X86819825Y-56629172D01*
X86768369Y-56631868D01*
X86737129Y-56613097D01*
X86387911Y-56263878D01*
X86366135Y-56217179D01*
X86365848Y-56210614D01*
X86365848Y-54843329D01*
X86383471Y-54794910D01*
X86387911Y-54790065D01*
X86421743Y-54756233D01*
X86470015Y-54707961D01*
X86528532Y-54593116D01*
X86548695Y-54465810D01*
X86528532Y-54338504D01*
X86470015Y-54223659D01*
X86378874Y-54132518D01*
X86264029Y-54074001D01*
X86136723Y-54053838D01*
X86009416Y-54074001D01*
X85894570Y-54132519D01*
X85803432Y-54223657D01*
X85744914Y-54338503D01*
X85726125Y-54457132D01*
X85724751Y-54465810D01*
X85744914Y-54593116D01*
X85803132Y-54707375D01*
X85803432Y-54707962D01*
X85885535Y-54790065D01*
X85907311Y-54836764D01*
X85907598Y-54843329D01*
X85907598Y-56328745D01*
X85907495Y-56332687D01*
X85905362Y-56373367D01*
X85914227Y-56396460D01*
X85917583Y-56407790D01*
X85922729Y-56431998D01*
X85922730Y-56431999D01*
X85927671Y-56438800D01*
X85927798Y-56438974D01*
X85937182Y-56456257D01*
X85940269Y-56464301D01*
X85957758Y-56481789D01*
X85965435Y-56490777D01*
X85976131Y-56505499D01*
X85979983Y-56510800D01*
X85987450Y-56515111D01*
X86003051Y-56527082D01*
X88707192Y-59231224D01*
X88709906Y-59234084D01*
X88717444Y-59242455D01*
X88737166Y-59264358D01*
X88759774Y-59274424D01*
X88770140Y-59280052D01*
X88790906Y-59293537D01*
X88799425Y-59294886D01*
X88818275Y-59300470D01*
X88826149Y-59303976D01*
X88850885Y-59303976D01*
X88862667Y-59304903D01*
X88868474Y-59305822D01*
X88887110Y-59308774D01*
X88895436Y-59306542D01*
X88914932Y-59303976D01*
X92354392Y-59303976D01*
X92402811Y-59321599D01*
X92428575Y-59366223D01*
X92421509Y-59413499D01*
X92408500Y-59439032D01*
X92381679Y-59491669D01*
X92361516Y-59618976D01*
X92367535Y-59656985D01*
X92357702Y-59707565D01*
X92346399Y-59722031D01*
X90186491Y-61881939D01*
X90139792Y-61903715D01*
X90090021Y-61890379D01*
X90060467Y-61848171D01*
X90057900Y-61828675D01*
X90057900Y-61418295D01*
X90057479Y-61415634D01*
X90042957Y-61323945D01*
X90042955Y-61323941D01*
X90041420Y-61314249D01*
X90051252Y-61263669D01*
X90062552Y-61249205D01*
X90136204Y-61175553D01*
X90177681Y-61154419D01*
X90257306Y-61141809D01*
X90372151Y-61083292D01*
X90463292Y-60992151D01*
X90521809Y-60877306D01*
X90541972Y-60750000D01*
X90521809Y-60622694D01*
X90463292Y-60507849D01*
X90372151Y-60416708D01*
X90257306Y-60358191D01*
X90130000Y-60338028D01*
X90129999Y-60338028D01*
X90002693Y-60358191D01*
X89887847Y-60416709D01*
X89796709Y-60507847D01*
X89738190Y-60622696D01*
X89725578Y-60702317D01*
X89704443Y-60743796D01*
X89423204Y-61025037D01*
X89376505Y-61046813D01*
X89369940Y-61047100D01*
X88673292Y-61047100D01*
X88581660Y-61061613D01*
X88578945Y-61062043D01*
X88465227Y-61119985D01*
X88374985Y-61210227D01*
X88374983Y-61210229D01*
X88374984Y-61210229D01*
X88317043Y-61323945D01*
X88302100Y-61418292D01*
X88302100Y-61981708D01*
X88317043Y-62076055D01*
X88374984Y-62189771D01*
X88465229Y-62280016D01*
X88481747Y-62288432D01*
X88516887Y-62326115D01*
X88519584Y-62377571D01*
X88488574Y-62418722D01*
X88447548Y-62430875D01*
X87207965Y-62430875D01*
X87204023Y-62430772D01*
X87163353Y-62428640D01*
X87140263Y-62437504D01*
X87128933Y-62440861D01*
X87104723Y-62446007D01*
X87097742Y-62451079D01*
X87080470Y-62460456D01*
X87072421Y-62463547D01*
X87072420Y-62463547D01*
X87072419Y-62463548D01*
X87054928Y-62481038D01*
X87045945Y-62488711D01*
X87025921Y-62503260D01*
X87021608Y-62510730D01*
X87009640Y-62526326D01*
X86929407Y-62606559D01*
X86882708Y-62628335D01*
X86840634Y-62619728D01*
X86824084Y-62610882D01*
X86764722Y-62579152D01*
X86745645Y-62568955D01*
X86556604Y-62511610D01*
X86360000Y-62492247D01*
X86163395Y-62511610D01*
X85974354Y-62568955D01*
X85800121Y-62662084D01*
X85647411Y-62787411D01*
X85522084Y-62940121D01*
X85428955Y-63114354D01*
X85371610Y-63303395D01*
X85352247Y-63499999D01*
X85371610Y-63696604D01*
X85428955Y-63885645D01*
X85481408Y-63983778D01*
X85522084Y-64059878D01*
X85647411Y-64212589D01*
X85800122Y-64337916D01*
X85958294Y-64422460D01*
X85974354Y-64431044D01*
X86163395Y-64488389D01*
X86195749Y-64491575D01*
X86360000Y-64507753D01*
X86538976Y-64490125D01*
X86556604Y-64488389D01*
X86745645Y-64431044D01*
X86745647Y-64431042D01*
X86745650Y-64431042D01*
X86919878Y-64337916D01*
X87072589Y-64212589D01*
X87197916Y-64059878D01*
X87291042Y-63885650D01*
X87298844Y-63859932D01*
X87339168Y-63727000D01*
X88201001Y-63727000D01*
X88201001Y-63896200D01*
X88201215Y-63900202D01*
X88207453Y-63958235D01*
X88258101Y-64094026D01*
X88344952Y-64210047D01*
X88460973Y-64296898D01*
X88596768Y-64347547D01*
X88654771Y-64353783D01*
X88658811Y-64353999D01*
X89052999Y-64353999D01*
X89053000Y-64353998D01*
X89053000Y-63727000D01*
X89307000Y-63727000D01*
X89307000Y-64353999D01*
X89342562Y-64353999D01*
X89390981Y-64371622D01*
X89416745Y-64416246D01*
X89412994Y-64456037D01*
X89353616Y-64612601D01*
X89334505Y-64770000D01*
X89353616Y-64927398D01*
X89409838Y-65075644D01*
X89499909Y-65206133D01*
X89618584Y-65311270D01*
X89618585Y-65311270D01*
X89618587Y-65311272D01*
X89758978Y-65384956D01*
X89912924Y-65422900D01*
X90071476Y-65422900D01*
X90225422Y-65384956D01*
X90365813Y-65311272D01*
X90484492Y-65206132D01*
X90574560Y-65075646D01*
X90630784Y-64927397D01*
X90634087Y-64900190D01*
X90657416Y-64854250D01*
X90704819Y-64834053D01*
X90754115Y-64849050D01*
X90769166Y-64864129D01*
X90847812Y-64969187D01*
X90958077Y-65051731D01*
X91087136Y-65099867D01*
X91142164Y-65105783D01*
X91146203Y-65106000D01*
X91313000Y-65106000D01*
X91313000Y-64529000D01*
X90709589Y-64529000D01*
X90665533Y-64549542D01*
X90615763Y-64536204D01*
X90588538Y-64501211D01*
X90574561Y-64464356D01*
X90574560Y-64464354D01*
X90484492Y-64333868D01*
X90484490Y-64333866D01*
X90418044Y-64275000D01*
X90711000Y-64275000D01*
X91313000Y-64275000D01*
X91313000Y-63698000D01*
X91567000Y-63698000D01*
X91567000Y-64275000D01*
X92169000Y-64275000D01*
X92169000Y-64133203D01*
X92168783Y-64129164D01*
X92162867Y-64074136D01*
X92114731Y-63945077D01*
X92032187Y-63834812D01*
X91921922Y-63752268D01*
X91792863Y-63704132D01*
X91737835Y-63698216D01*
X91733797Y-63698000D01*
X91567000Y-63698000D01*
X91313000Y-63698000D01*
X91146203Y-63698000D01*
X91142164Y-63698216D01*
X91087136Y-63704132D01*
X90958077Y-63752268D01*
X90847812Y-63834812D01*
X90765268Y-63945077D01*
X90717132Y-64074136D01*
X90711216Y-64129164D01*
X90711000Y-64133203D01*
X90711000Y-64275000D01*
X90418044Y-64275000D01*
X90365815Y-64228729D01*
X90330220Y-64210047D01*
X90225422Y-64155044D01*
X90225419Y-64155043D01*
X90173556Y-64142260D01*
X90130761Y-64113561D01*
X90116426Y-64064069D01*
X90121006Y-64042797D01*
X90152547Y-63958233D01*
X90158783Y-63900228D01*
X90159000Y-63896188D01*
X90159000Y-63727000D01*
X89307000Y-63727000D01*
X89053000Y-63727000D01*
X88201001Y-63727000D01*
X87339168Y-63727000D01*
X87348389Y-63696604D01*
X87352691Y-63652925D01*
X87367753Y-63500000D01*
X87348389Y-63303397D01*
X87348389Y-63303395D01*
X87291042Y-63114350D01*
X87280474Y-63094579D01*
X87240270Y-63019363D01*
X87232988Y-62968356D01*
X87253442Y-62930589D01*
X87272848Y-62911185D01*
X87319548Y-62889411D01*
X87326109Y-62889125D01*
X88269948Y-62889125D01*
X88318367Y-62906748D01*
X88344131Y-62951372D01*
X88335183Y-63002116D01*
X88330250Y-63009594D01*
X88258101Y-63105973D01*
X88207452Y-63241768D01*
X88201216Y-63299771D01*
X88201000Y-63303812D01*
X88201000Y-63473000D01*
X90158999Y-63473000D01*
X90158999Y-63303799D01*
X90158784Y-63299797D01*
X90152546Y-63241764D01*
X90104468Y-63112863D01*
X90812100Y-63112863D01*
X90822801Y-63186317D01*
X90822802Y-63186319D01*
X90878194Y-63299625D01*
X90967375Y-63388806D01*
X91080681Y-63444198D01*
X91154137Y-63454900D01*
X91725862Y-63454899D01*
X91725863Y-63454899D01*
X91750347Y-63451332D01*
X91799319Y-63444198D01*
X91912625Y-63388806D01*
X92001806Y-63299625D01*
X92057198Y-63186319D01*
X92067900Y-63112863D01*
X92067899Y-62591138D01*
X92067723Y-62589933D01*
X92057198Y-62517682D01*
X92055412Y-62514028D01*
X92001806Y-62404375D01*
X91912625Y-62315194D01*
X91799319Y-62259802D01*
X91799317Y-62259801D01*
X91738388Y-62250924D01*
X91725863Y-62249100D01*
X91725862Y-62249100D01*
X91154136Y-62249100D01*
X91080682Y-62259801D01*
X90967373Y-62315195D01*
X90878195Y-62404373D01*
X90822801Y-62517682D01*
X90812100Y-62591137D01*
X90812100Y-63112863D01*
X90104468Y-63112863D01*
X90101898Y-63105973D01*
X90015047Y-62989952D01*
X89922981Y-62921033D01*
X89894781Y-62877909D01*
X89900898Y-62826746D01*
X89902886Y-62823071D01*
X89906541Y-62816740D01*
X89910852Y-62809270D01*
X89922821Y-62793672D01*
X92670432Y-60046062D01*
X92717130Y-60024287D01*
X92735478Y-60024927D01*
X92773488Y-60030948D01*
X92900794Y-60010785D01*
X93015639Y-59952268D01*
X93106780Y-59861127D01*
X93149720Y-59776853D01*
X93187401Y-59741714D01*
X93238857Y-59739017D01*
X93270098Y-59757789D01*
X93666158Y-60153849D01*
X93668872Y-60156709D01*
X93691736Y-60182101D01*
X93696132Y-60186983D01*
X93718740Y-60197049D01*
X93729106Y-60202677D01*
X93749872Y-60216162D01*
X93758391Y-60217511D01*
X93777241Y-60223095D01*
X93785115Y-60226601D01*
X93809851Y-60226601D01*
X93821633Y-60227528D01*
X93827440Y-60228447D01*
X93846076Y-60231399D01*
X93854402Y-60229167D01*
X93873898Y-60226601D01*
X95921369Y-60226601D01*
X95969788Y-60244224D01*
X95995552Y-60288848D01*
X95986604Y-60339592D01*
X95974633Y-60355192D01*
X94972547Y-61357276D01*
X94925848Y-61379052D01*
X94907501Y-61378412D01*
X94869493Y-61372393D01*
X94869492Y-61372393D01*
X94859567Y-61373965D01*
X94742185Y-61392556D01*
X94627339Y-61451074D01*
X94536201Y-61542212D01*
X94477683Y-61657058D01*
X94467499Y-61721357D01*
X94457520Y-61784365D01*
X94477683Y-61911671D01*
X94536200Y-62026516D01*
X94627341Y-62117657D01*
X94742186Y-62176174D01*
X94869492Y-62196337D01*
X94996798Y-62176174D01*
X95111643Y-62117657D01*
X95202784Y-62026516D01*
X95261301Y-61911671D01*
X95281464Y-61784365D01*
X95275444Y-61746356D01*
X95285275Y-61695776D01*
X95296575Y-61681312D01*
X96247099Y-60730789D01*
X96293799Y-60709013D01*
X96300364Y-60708726D01*
X97594462Y-60708726D01*
X97642881Y-60726349D01*
X97668645Y-60770973D01*
X97661579Y-60818251D01*
X97653340Y-60834419D01*
X97633450Y-60960000D01*
X97633177Y-60961726D01*
X97653340Y-61089032D01*
X97711857Y-61203877D01*
X97757181Y-61249201D01*
X97793961Y-61285981D01*
X97815736Y-61332680D01*
X97816023Y-61339245D01*
X97816023Y-61848742D01*
X97798400Y-61897161D01*
X97793960Y-61902006D01*
X97220929Y-62475037D01*
X97174230Y-62496813D01*
X97167665Y-62497100D01*
X95654944Y-62497100D01*
X95610341Y-62505971D01*
X95559764Y-62539766D01*
X95525971Y-62590342D01*
X95517100Y-62634940D01*
X95517100Y-64365055D01*
X95525971Y-64409658D01*
X95559766Y-64460235D01*
X95608046Y-64492494D01*
X95610342Y-64494028D01*
X95654943Y-64502900D01*
X97385056Y-64502899D01*
X97429658Y-64494028D01*
X97480234Y-64460234D01*
X97483039Y-64456037D01*
X97499738Y-64431044D01*
X97514028Y-64409658D01*
X97522900Y-64365057D01*
X97522899Y-62852331D01*
X97540522Y-62803913D01*
X97544951Y-62799079D01*
X98201539Y-62142491D01*
X98204382Y-62139794D01*
X98234656Y-62112536D01*
X98244719Y-62089932D01*
X98250353Y-62079556D01*
X98263835Y-62058797D01*
X98265184Y-62050278D01*
X98270770Y-62031422D01*
X98274274Y-62023553D01*
X98274274Y-61998816D01*
X98275201Y-61987032D01*
X98276045Y-61981704D01*
X98279072Y-61962592D01*
X98276840Y-61954266D01*
X98274273Y-61934767D01*
X98274273Y-61634949D01*
X98274273Y-61339242D01*
X98291896Y-61290826D01*
X98296314Y-61286003D01*
X98378441Y-61203877D01*
X98436958Y-61089032D01*
X98457121Y-60961726D01*
X98436958Y-60834420D01*
X98428718Y-60818249D01*
X98422440Y-60767109D01*
X98450503Y-60723894D01*
X98495836Y-60708726D01*
X98641399Y-60708726D01*
X98689818Y-60726349D01*
X98715582Y-60770973D01*
X98708516Y-60818248D01*
X98686263Y-60861923D01*
X98668191Y-60897390D01*
X98651940Y-61000000D01*
X98648028Y-61024697D01*
X98668191Y-61152003D01*
X98725088Y-61263669D01*
X98726709Y-61266849D01*
X98808812Y-61348952D01*
X98830588Y-61395651D01*
X98830875Y-61402216D01*
X98830874Y-62465609D01*
X98813251Y-62514028D01*
X98777414Y-62537692D01*
X98674353Y-62568956D01*
X98500121Y-62662084D01*
X98347411Y-62787411D01*
X98222084Y-62940121D01*
X98128955Y-63114354D01*
X98071610Y-63303395D01*
X98052247Y-63500000D01*
X98071610Y-63696604D01*
X98128955Y-63885645D01*
X98181408Y-63983778D01*
X98222084Y-64059878D01*
X98347411Y-64212589D01*
X98500122Y-64337916D01*
X98658294Y-64422460D01*
X98674354Y-64431044D01*
X98863395Y-64488389D01*
X98898650Y-64491861D01*
X99060000Y-64507753D01*
X99240426Y-64489982D01*
X99256604Y-64488389D01*
X99445645Y-64431044D01*
X99445647Y-64431042D01*
X99445650Y-64431042D01*
X99619878Y-64337916D01*
X99772589Y-64212589D01*
X99897916Y-64059878D01*
X99991042Y-63885650D01*
X99998844Y-63859932D01*
X100048389Y-63696604D01*
X100052691Y-63652925D01*
X100067753Y-63500000D01*
X100048389Y-63303397D01*
X100048389Y-63303395D01*
X99991044Y-63114354D01*
X99938404Y-63015871D01*
X99897916Y-62940122D01*
X99772589Y-62787411D01*
X99619878Y-62662084D01*
X99445650Y-62568958D01*
X99445649Y-62568957D01*
X99445646Y-62568956D01*
X99342585Y-62537692D01*
X99301367Y-62506772D01*
X99289125Y-62465609D01*
X99289125Y-61402216D01*
X99306748Y-61353797D01*
X99311176Y-61348963D01*
X99352557Y-61307582D01*
X99399253Y-61285808D01*
X99449024Y-61299143D01*
X99478579Y-61341351D01*
X99480218Y-61349063D01*
X99497291Y-61456854D01*
X99555808Y-61571699D01*
X99646949Y-61662840D01*
X99761794Y-61721357D01*
X99889100Y-61741520D01*
X99927107Y-61735500D01*
X99977686Y-61745330D01*
X99992155Y-61756635D01*
X100813267Y-62577747D01*
X100815982Y-62580607D01*
X100843242Y-62610882D01*
X100865837Y-62620942D01*
X100876225Y-62626582D01*
X100896982Y-62640062D01*
X100896983Y-62640062D01*
X100905513Y-62645601D01*
X100936523Y-62686751D01*
X100933827Y-62738207D01*
X100912276Y-62767004D01*
X100887412Y-62787410D01*
X100762084Y-62940121D01*
X100668955Y-63114354D01*
X100611610Y-63303395D01*
X100592247Y-63500000D01*
X100611610Y-63696604D01*
X100668955Y-63885645D01*
X100721408Y-63983778D01*
X100762084Y-64059878D01*
X100887411Y-64212589D01*
X101040122Y-64337916D01*
X101198294Y-64422460D01*
X101214354Y-64431044D01*
X101403395Y-64488389D01*
X101435749Y-64491575D01*
X101600000Y-64507753D01*
X101778976Y-64490125D01*
X101796604Y-64488389D01*
X101985645Y-64431044D01*
X101985647Y-64431042D01*
X101985650Y-64431042D01*
X102159878Y-64337916D01*
X102312589Y-64212589D01*
X102437916Y-64059878D01*
X102531042Y-63885650D01*
X102538844Y-63859932D01*
X102588389Y-63696604D01*
X102592691Y-63652925D01*
X102607753Y-63500000D01*
X102588389Y-63303397D01*
X102588389Y-63303395D01*
X102531044Y-63114354D01*
X102478404Y-63015871D01*
X102437916Y-62940122D01*
X102312589Y-62787411D01*
X102308499Y-62784055D01*
X102282252Y-62739717D01*
X102290644Y-62688879D01*
X102329752Y-62655329D01*
X102356287Y-62650500D01*
X103383713Y-62650500D01*
X103432132Y-62668123D01*
X103457896Y-62712747D01*
X103448948Y-62763491D01*
X103431501Y-62784053D01*
X103427412Y-62787410D01*
X103427410Y-62787412D01*
X103302084Y-62940121D01*
X103208955Y-63114354D01*
X103151610Y-63303395D01*
X103132247Y-63500000D01*
X103151610Y-63696604D01*
X103208955Y-63885645D01*
X103261408Y-63983778D01*
X103302084Y-64059878D01*
X103427411Y-64212589D01*
X103580122Y-64337916D01*
X103738294Y-64422460D01*
X103754354Y-64431044D01*
X103943395Y-64488389D01*
X103975749Y-64491575D01*
X104140000Y-64507753D01*
X104318976Y-64490125D01*
X104336604Y-64488389D01*
X104525645Y-64431044D01*
X104525647Y-64431042D01*
X104525650Y-64431042D01*
X104699878Y-64337916D01*
X104852589Y-64212589D01*
X104977916Y-64059878D01*
X105071042Y-63885650D01*
X105078844Y-63859932D01*
X105128389Y-63696604D01*
X105132691Y-63652925D01*
X105147753Y-63500000D01*
X105128389Y-63303397D01*
X105128389Y-63303395D01*
X105071044Y-63114354D01*
X105018404Y-63015871D01*
X104977916Y-62940122D01*
X104852589Y-62787411D01*
X104848499Y-62784055D01*
X104822252Y-62739717D01*
X104830644Y-62688879D01*
X104869752Y-62655329D01*
X104896287Y-62650500D01*
X105475268Y-62650500D01*
X105523687Y-62668123D01*
X105528532Y-62672563D01*
X105786559Y-62930590D01*
X105808335Y-62977289D01*
X105799728Y-63019362D01*
X105748956Y-63114351D01*
X105691610Y-63303395D01*
X105672247Y-63500000D01*
X105691610Y-63696604D01*
X105748955Y-63885645D01*
X105801408Y-63983778D01*
X105842084Y-64059878D01*
X105967411Y-64212589D01*
X106120122Y-64337916D01*
X106278294Y-64422460D01*
X106294354Y-64431044D01*
X106483395Y-64488389D01*
X106515749Y-64491575D01*
X106680000Y-64507753D01*
X106858976Y-64490125D01*
X106876604Y-64488389D01*
X107065645Y-64431044D01*
X107065647Y-64431042D01*
X107065650Y-64431042D01*
X107239878Y-64337916D01*
X107392589Y-64212589D01*
X107517916Y-64059878D01*
X107611042Y-63885650D01*
X107618844Y-63859932D01*
X107668389Y-63696604D01*
X107672691Y-63652925D01*
X107687753Y-63500000D01*
X107687753Y-63499999D01*
X108212247Y-63499999D01*
X108231610Y-63696604D01*
X108288955Y-63885645D01*
X108341408Y-63983778D01*
X108382084Y-64059878D01*
X108507411Y-64212589D01*
X108660122Y-64337916D01*
X108818294Y-64422460D01*
X108834354Y-64431044D01*
X109023395Y-64488389D01*
X109058650Y-64491861D01*
X109220000Y-64507753D01*
X109400426Y-64489982D01*
X109416604Y-64488389D01*
X109605645Y-64431044D01*
X109605647Y-64431042D01*
X109605650Y-64431042D01*
X109779878Y-64337916D01*
X109932589Y-64212589D01*
X110057916Y-64059878D01*
X110151042Y-63885650D01*
X110158844Y-63859932D01*
X110208389Y-63696604D01*
X110212691Y-63652925D01*
X110227753Y-63500000D01*
X110208389Y-63303397D01*
X110208389Y-63303395D01*
X110151044Y-63114354D01*
X110098404Y-63015871D01*
X110057916Y-62940122D01*
X109932589Y-62787411D01*
X109779878Y-62662084D01*
X109744103Y-62642962D01*
X109605645Y-62568955D01*
X109416604Y-62511610D01*
X109220000Y-62492247D01*
X109023395Y-62511610D01*
X108834354Y-62568955D01*
X108660121Y-62662084D01*
X108507411Y-62787411D01*
X108382084Y-62940121D01*
X108288955Y-63114354D01*
X108231610Y-63303395D01*
X108212247Y-63499999D01*
X107687753Y-63499999D01*
X107668389Y-63303397D01*
X107668389Y-63303395D01*
X107611044Y-63114354D01*
X107558404Y-63015871D01*
X107517916Y-62940122D01*
X107392589Y-62787411D01*
X107239878Y-62662084D01*
X107204103Y-62642962D01*
X107065645Y-62568955D01*
X106876604Y-62511610D01*
X106680000Y-62492247D01*
X106483395Y-62511610D01*
X106294351Y-62568956D01*
X106199362Y-62619728D01*
X106148352Y-62627010D01*
X106110590Y-62606559D01*
X105955110Y-62451079D01*
X105769033Y-62265001D01*
X105766318Y-62262141D01*
X105739059Y-62231867D01*
X105716458Y-62221804D01*
X105706075Y-62216166D01*
X105685320Y-62202688D01*
X105676801Y-62201339D01*
X105657955Y-62195756D01*
X105650079Y-62192250D01*
X105650077Y-62192250D01*
X105625340Y-62192250D01*
X105613558Y-62191323D01*
X105589116Y-62187452D01*
X105580788Y-62189683D01*
X105561294Y-62192250D01*
X101107035Y-62192250D01*
X101058616Y-62174627D01*
X101053771Y-62170187D01*
X100532838Y-61649254D01*
X100511062Y-61602555D01*
X100524398Y-61552784D01*
X100566606Y-61523230D01*
X100597881Y-61521590D01*
X100695000Y-61536972D01*
X100822306Y-61516809D01*
X100937151Y-61458292D01*
X101028292Y-61367151D01*
X101086809Y-61252306D01*
X101106972Y-61125000D01*
X101086809Y-60997694D01*
X101028292Y-60882849D01*
X100937151Y-60791708D01*
X100822306Y-60733191D01*
X100695000Y-60713028D01*
X100567693Y-60733191D01*
X100452847Y-60791709D01*
X100361709Y-60882847D01*
X100303190Y-60997696D01*
X100303004Y-60998871D01*
X100297908Y-61008062D01*
X100297775Y-61008324D01*
X100297765Y-61008319D01*
X100278020Y-61043936D01*
X100229914Y-61062398D01*
X100181196Y-61045619D01*
X100175341Y-61040346D01*
X100131252Y-60996257D01*
X100131251Y-60996256D01*
X100016406Y-60937739D01*
X100016404Y-60937738D01*
X100016403Y-60937738D01*
X99999175Y-60935009D01*
X99954110Y-60910027D01*
X99935645Y-60861923D01*
X99952422Y-60813204D01*
X99957678Y-60807365D01*
X100043292Y-60721752D01*
X100101809Y-60606907D01*
X100121972Y-60479601D01*
X100101809Y-60352295D01*
X100093569Y-60336124D01*
X100087291Y-60284984D01*
X100115354Y-60241769D01*
X100160687Y-60226601D01*
X101196586Y-60226601D01*
X101245005Y-60244224D01*
X101249849Y-60248663D01*
X101388044Y-60386859D01*
X101524885Y-60523700D01*
X101527599Y-60526560D01*
X101554857Y-60556832D01*
X101554859Y-60556834D01*
X101577465Y-60566899D01*
X101587831Y-60572527D01*
X101608598Y-60586013D01*
X101617117Y-60587362D01*
X101635966Y-60592945D01*
X101643842Y-60596452D01*
X101668579Y-60596452D01*
X101680361Y-60597379D01*
X101684125Y-60597975D01*
X101704803Y-60601250D01*
X101713130Y-60599018D01*
X101732625Y-60596452D01*
X109339420Y-60596452D01*
X109387839Y-60614075D01*
X109392684Y-60618515D01*
X113162190Y-64388022D01*
X113183966Y-64434721D01*
X113179358Y-64467996D01*
X113153417Y-64536399D01*
X113153416Y-64536401D01*
X113153416Y-64536403D01*
X113137594Y-64666709D01*
X113134305Y-64693800D01*
X113153416Y-64851198D01*
X113209638Y-64999444D01*
X113262236Y-65075644D01*
X113297895Y-65127306D01*
X113299709Y-65129933D01*
X113418384Y-65235070D01*
X113418385Y-65235070D01*
X113418387Y-65235072D01*
X113558778Y-65308756D01*
X113712724Y-65346700D01*
X113871276Y-65346700D01*
X114025222Y-65308756D01*
X114165613Y-65235072D01*
X114283824Y-65130345D01*
X114331750Y-65111430D01*
X114380625Y-65127747D01*
X114407578Y-65171662D01*
X114409100Y-65186727D01*
X114409100Y-65208854D01*
X114417971Y-65253458D01*
X114451766Y-65304035D01*
X114495550Y-65333290D01*
X114502342Y-65337828D01*
X114546943Y-65346700D01*
X115577056Y-65346699D01*
X115621658Y-65337828D01*
X115672234Y-65304034D01*
X115706028Y-65253458D01*
X115714900Y-65208857D01*
X115714899Y-64178744D01*
X115706028Y-64134142D01*
X115706028Y-64134141D01*
X115672234Y-64083565D01*
X115626452Y-64052975D01*
X115595984Y-64011421D01*
X115599354Y-63960005D01*
X115615038Y-63937078D01*
X115655233Y-63896883D01*
X115745628Y-63753020D01*
X115801747Y-63592639D01*
X115806461Y-63550800D01*
X115361634Y-63550800D01*
X115387000Y-63481106D01*
X115387000Y-63366494D01*
X115361634Y-63296800D01*
X115806460Y-63296800D01*
X115806461Y-63296799D01*
X115801747Y-63254960D01*
X115745628Y-63094579D01*
X115655231Y-62950713D01*
X115546582Y-62842064D01*
X115524806Y-62795365D01*
X115538142Y-62745594D01*
X115546582Y-62735536D01*
X115655231Y-62626886D01*
X115745628Y-62483020D01*
X115801747Y-62322639D01*
X115806461Y-62280800D01*
X115361634Y-62280800D01*
X115387000Y-62211106D01*
X115387000Y-62096494D01*
X115361634Y-62026800D01*
X115806460Y-62026800D01*
X115806461Y-62026799D01*
X115801747Y-61984960D01*
X115745628Y-61824579D01*
X115655231Y-61680713D01*
X115535087Y-61560569D01*
X115472540Y-61521268D01*
X115440919Y-61480585D01*
X115442846Y-61429095D01*
X115462661Y-61401108D01*
X115554292Y-61319932D01*
X115644360Y-61189446D01*
X115700584Y-61041197D01*
X115719695Y-60883800D01*
X115700584Y-60726403D01*
X115671098Y-60648655D01*
X115644361Y-60578155D01*
X115595832Y-60507849D01*
X115554292Y-60447668D01*
X115521626Y-60418729D01*
X115435613Y-60342528D01*
X115423415Y-60336126D01*
X115384111Y-60315497D01*
X115349430Y-60277393D01*
X115347355Y-60225908D01*
X115378859Y-60185134D01*
X115384099Y-60182108D01*
X115435613Y-60155072D01*
X115554292Y-60049932D01*
X115644360Y-59919446D01*
X115646134Y-59914770D01*
X115687265Y-59806316D01*
X115700584Y-59771197D01*
X115719695Y-59613800D01*
X115700584Y-59456403D01*
X115679120Y-59399807D01*
X115644361Y-59308155D01*
X115577970Y-59211972D01*
X115554292Y-59177668D01*
X115544608Y-59169089D01*
X115435612Y-59072527D01*
X115384112Y-59045497D01*
X115349429Y-59007391D01*
X115347355Y-58955906D01*
X115378860Y-58915133D01*
X115384091Y-58912112D01*
X115435613Y-58885072D01*
X115554292Y-58779932D01*
X115644360Y-58649446D01*
X115653097Y-58626410D01*
X115677340Y-58562486D01*
X115700584Y-58501197D01*
X115719695Y-58343800D01*
X115700584Y-58186403D01*
X115678344Y-58127762D01*
X115644361Y-58038155D01*
X115586183Y-57953870D01*
X115554292Y-57907668D01*
X115517032Y-57874659D01*
X115435613Y-57802528D01*
X115435611Y-57802527D01*
X115384111Y-57775497D01*
X115349430Y-57737393D01*
X115347355Y-57685908D01*
X115378859Y-57645134D01*
X115384099Y-57642108D01*
X115435613Y-57615072D01*
X115554292Y-57509932D01*
X115644360Y-57379446D01*
X115700584Y-57231197D01*
X115719695Y-57073800D01*
X115700584Y-56916403D01*
X115679216Y-56860060D01*
X115644361Y-56768155D01*
X115592831Y-56693501D01*
X115554292Y-56637668D01*
X115544702Y-56629172D01*
X115462666Y-56556494D01*
X115438110Y-56511195D01*
X115448417Y-56460709D01*
X115472542Y-56436329D01*
X115535087Y-56397030D01*
X115655231Y-56276886D01*
X115745628Y-56133020D01*
X115801747Y-55972639D01*
X115806461Y-55930800D01*
X115361634Y-55930800D01*
X115387000Y-55861106D01*
X115387000Y-55746494D01*
X115361634Y-55676800D01*
X115806460Y-55676800D01*
X115806461Y-55676799D01*
X115801747Y-55634960D01*
X115745628Y-55474579D01*
X115655231Y-55330713D01*
X115546582Y-55222064D01*
X115524806Y-55175365D01*
X115538142Y-55125594D01*
X115546582Y-55115536D01*
X115655231Y-55006886D01*
X115745628Y-54863020D01*
X115801747Y-54702639D01*
X115806461Y-54660800D01*
X115361634Y-54660800D01*
X115387000Y-54591106D01*
X115387000Y-54476494D01*
X115361634Y-54406800D01*
X115806460Y-54406800D01*
X115806461Y-54406799D01*
X115801747Y-54364960D01*
X115745628Y-54204579D01*
X115655231Y-54060713D01*
X115546581Y-53952063D01*
X115524805Y-53905364D01*
X115538141Y-53855593D01*
X115546581Y-53845534D01*
X115655233Y-53736883D01*
X115745628Y-53593020D01*
X115801747Y-53432639D01*
X115806461Y-53390800D01*
X115361634Y-53390800D01*
X115387000Y-53321106D01*
X115387000Y-53206494D01*
X115361634Y-53136800D01*
X115806460Y-53136800D01*
X115806461Y-53136799D01*
X115801747Y-53094960D01*
X115745628Y-52934579D01*
X115655231Y-52790713D01*
X115535086Y-52670568D01*
X115391220Y-52580171D01*
X115230840Y-52524052D01*
X115189000Y-52519337D01*
X115189000Y-52961845D01*
X115174871Y-52953688D01*
X115090436Y-52938800D01*
X115033564Y-52938800D01*
X114949129Y-52953688D01*
X114934999Y-52961845D01*
X114935000Y-52519337D01*
X114934999Y-52519337D01*
X114893159Y-52524052D01*
X114732779Y-52580171D01*
X114588913Y-52670568D01*
X114468769Y-52790712D01*
X114429533Y-52853157D01*
X114388850Y-52884778D01*
X114337360Y-52882851D01*
X114303759Y-52855871D01*
X114284292Y-52827668D01*
X114206721Y-52758946D01*
X114165615Y-52722529D01*
X114145866Y-52712164D01*
X114025222Y-52648844D01*
X114025219Y-52648843D01*
X113871276Y-52610900D01*
X113712724Y-52610900D01*
X113558780Y-52648843D01*
X113418384Y-52722529D01*
X113299709Y-52827666D01*
X113209638Y-52958155D01*
X113153416Y-53106401D01*
X113134305Y-53263799D01*
X113153416Y-53421198D01*
X113179358Y-53489602D01*
X113180049Y-53541124D01*
X113162190Y-53569577D01*
X111841256Y-54890511D01*
X111794557Y-54912287D01*
X111744786Y-54898951D01*
X111715232Y-54856743D01*
X111713452Y-54826390D01*
X111717900Y-54795863D01*
X111717899Y-54274138D01*
X111707198Y-54200681D01*
X111651806Y-54087375D01*
X111562625Y-53998194D01*
X111449319Y-53942802D01*
X111449317Y-53942801D01*
X111388388Y-53933924D01*
X111375863Y-53932100D01*
X111375862Y-53932100D01*
X110804136Y-53932100D01*
X110730682Y-53942801D01*
X110617373Y-53998195D01*
X110528195Y-54087373D01*
X110472801Y-54200682D01*
X110462100Y-54274137D01*
X110462100Y-54795863D01*
X110472801Y-54869317D01*
X110472802Y-54869319D01*
X110528194Y-54982625D01*
X110617375Y-55071806D01*
X110730681Y-55127198D01*
X110804137Y-55137900D01*
X111375862Y-55137899D01*
X111375863Y-55137899D01*
X111406388Y-55133452D01*
X111456842Y-55143911D01*
X111488769Y-55184354D01*
X111487230Y-55235858D01*
X111470511Y-55261256D01*
X110932956Y-55798812D01*
X110886257Y-55820588D01*
X110879692Y-55820875D01*
X100896076Y-55820875D01*
X100847657Y-55803252D01*
X100821893Y-55758628D01*
X100830841Y-55707885D01*
X100861069Y-55678850D01*
X100900430Y-55658191D01*
X100913613Y-55651272D01*
X101032292Y-55546132D01*
X101122360Y-55415646D01*
X101178584Y-55267397D01*
X101183308Y-55228494D01*
X107282100Y-55228494D01*
X107292093Y-55297088D01*
X107343820Y-55402898D01*
X107427101Y-55486179D01*
X107532911Y-55537906D01*
X107601505Y-55547900D01*
X107601506Y-55547900D01*
X108068495Y-55547900D01*
X108137088Y-55537906D01*
X108242898Y-55486179D01*
X108326179Y-55402898D01*
X108377906Y-55297088D01*
X108387900Y-55228494D01*
X108932100Y-55228494D01*
X108942093Y-55297088D01*
X108993820Y-55402898D01*
X109077101Y-55486179D01*
X109182911Y-55537906D01*
X109251505Y-55547900D01*
X109251506Y-55547900D01*
X109718495Y-55547900D01*
X109787088Y-55537906D01*
X109892898Y-55486179D01*
X109976179Y-55402898D01*
X110027906Y-55297088D01*
X110037900Y-55228494D01*
X110037900Y-54611505D01*
X110027906Y-54542911D01*
X109976179Y-54437101D01*
X109892898Y-54353820D01*
X109787088Y-54302093D01*
X109718495Y-54292100D01*
X109718494Y-54292100D01*
X109251506Y-54292100D01*
X109251505Y-54292100D01*
X109182911Y-54302093D01*
X109077101Y-54353820D01*
X108993820Y-54437101D01*
X108942093Y-54542911D01*
X108932100Y-54611505D01*
X108932100Y-55228494D01*
X108387900Y-55228494D01*
X108387900Y-54611505D01*
X108377906Y-54542911D01*
X108326179Y-54437101D01*
X108242898Y-54353820D01*
X108137088Y-54302093D01*
X108068495Y-54292100D01*
X108068494Y-54292100D01*
X107601506Y-54292100D01*
X107601505Y-54292100D01*
X107532911Y-54302093D01*
X107427101Y-54353820D01*
X107343820Y-54437101D01*
X107292093Y-54542911D01*
X107282100Y-54611505D01*
X107282100Y-55228494D01*
X101183308Y-55228494D01*
X101197695Y-55110000D01*
X101178584Y-54952603D01*
X101159641Y-54902655D01*
X101122361Y-54804355D01*
X101075825Y-54736937D01*
X101032292Y-54673868D01*
X101030864Y-54672603D01*
X100913615Y-54568729D01*
X100881931Y-54552100D01*
X100773222Y-54495044D01*
X100773219Y-54495043D01*
X100619276Y-54457100D01*
X100460724Y-54457100D01*
X100306780Y-54495043D01*
X100166384Y-54568729D01*
X100047709Y-54673866D01*
X99957638Y-54804355D01*
X99901416Y-54952601D01*
X99882305Y-55110000D01*
X99901416Y-55267398D01*
X99957638Y-55415644D01*
X100012137Y-55494598D01*
X100043005Y-55539319D01*
X100047709Y-55546133D01*
X100166387Y-55651272D01*
X100218931Y-55678850D01*
X100253614Y-55716956D01*
X100255688Y-55768441D01*
X100224183Y-55809214D01*
X100183924Y-55820875D01*
X97416225Y-55820875D01*
X97367806Y-55803252D01*
X97342042Y-55758628D01*
X97350990Y-55707885D01*
X97355923Y-55700406D01*
X97384731Y-55661922D01*
X97432867Y-55532863D01*
X97438783Y-55477835D01*
X97439000Y-55473796D01*
X97439000Y-55307000D01*
X96031000Y-55307000D01*
X96031000Y-55473796D01*
X96031216Y-55477835D01*
X96037132Y-55532863D01*
X96085268Y-55661922D01*
X96114077Y-55700406D01*
X96128986Y-55749729D01*
X96108703Y-55797095D01*
X96062718Y-55820342D01*
X96053775Y-55820875D01*
X95735411Y-55820875D01*
X95686992Y-55803252D01*
X95661228Y-55758628D01*
X95670176Y-55707885D01*
X95682147Y-55692284D01*
X95697632Y-55676799D01*
X95721806Y-55652625D01*
X95777198Y-55539319D01*
X95787900Y-55465863D01*
X95787899Y-55053000D01*
X96031000Y-55053000D01*
X96608000Y-55053000D01*
X96608000Y-54451000D01*
X96862000Y-54451000D01*
X96862000Y-55053000D01*
X97439000Y-55053000D01*
X97439000Y-54886203D01*
X97438783Y-54882164D01*
X97432867Y-54827136D01*
X97384731Y-54698077D01*
X97302187Y-54587812D01*
X97191922Y-54505268D01*
X97062863Y-54457132D01*
X97007835Y-54451216D01*
X97003797Y-54451000D01*
X96862000Y-54451000D01*
X96608000Y-54451000D01*
X96466203Y-54451000D01*
X96462164Y-54451216D01*
X96407136Y-54457132D01*
X96278077Y-54505268D01*
X96167812Y-54587812D01*
X96085268Y-54698077D01*
X96037132Y-54827136D01*
X96031216Y-54882164D01*
X96031000Y-54886203D01*
X96031000Y-55053000D01*
X95787899Y-55053000D01*
X95787899Y-54894138D01*
X95787680Y-54892637D01*
X95777198Y-54820682D01*
X95777198Y-54820681D01*
X95721806Y-54707375D01*
X95632625Y-54618194D01*
X95632624Y-54618194D01*
X95586697Y-54595741D01*
X95550938Y-54558642D01*
X95547391Y-54507238D01*
X95566517Y-54474804D01*
X95586548Y-54454773D01*
X95608692Y-54432629D01*
X95667209Y-54317784D01*
X95687372Y-54190478D01*
X95667209Y-54063172D01*
X95608692Y-53948327D01*
X95536034Y-53875669D01*
X95514258Y-53828970D01*
X95527594Y-53779199D01*
X95569802Y-53749645D01*
X95589298Y-53747078D01*
X105271905Y-53747078D01*
X105320324Y-53764701D01*
X105346088Y-53809325D01*
X105346292Y-53810544D01*
X105348191Y-53822533D01*
X105406708Y-53937378D01*
X105497849Y-54028519D01*
X105612694Y-54087036D01*
X105740000Y-54107199D01*
X105867306Y-54087036D01*
X105982151Y-54028519D01*
X106073292Y-53937378D01*
X106116470Y-53852637D01*
X106154152Y-53817498D01*
X106205609Y-53814801D01*
X106236849Y-53833573D01*
X106289649Y-53886373D01*
X106292363Y-53889233D01*
X106314959Y-53914327D01*
X106319623Y-53919507D01*
X106342229Y-53929572D01*
X106352595Y-53935200D01*
X106373362Y-53948686D01*
X106381881Y-53950035D01*
X106400730Y-53955618D01*
X106408606Y-53959125D01*
X106433343Y-53959125D01*
X106445125Y-53960052D01*
X106447468Y-53960423D01*
X106469567Y-53963923D01*
X106477894Y-53961691D01*
X106497389Y-53959125D01*
X107902480Y-53959125D01*
X107950899Y-53976748D01*
X107955744Y-53981187D01*
X108037849Y-54063292D01*
X108152694Y-54121809D01*
X108280000Y-54141972D01*
X108407306Y-54121809D01*
X108522151Y-54063292D01*
X108613292Y-53972151D01*
X108671809Y-53857306D01*
X108691972Y-53730000D01*
X108671809Y-53602694D01*
X108613292Y-53487849D01*
X108522151Y-53396708D01*
X108407306Y-53338191D01*
X108280000Y-53318028D01*
X108152693Y-53338191D01*
X108037849Y-53396708D01*
X107955744Y-53478813D01*
X107909045Y-53500588D01*
X107902480Y-53500875D01*
X107151388Y-53500875D01*
X107102969Y-53483252D01*
X107077205Y-53438628D01*
X107084272Y-53391349D01*
X107084552Y-53390800D01*
X107111809Y-53337306D01*
X107131972Y-53210000D01*
X107116451Y-53112000D01*
X110361000Y-53112000D01*
X110361000Y-53253796D01*
X110361216Y-53257835D01*
X110367132Y-53312863D01*
X110415268Y-53441922D01*
X110497812Y-53552187D01*
X110608077Y-53634731D01*
X110737136Y-53682867D01*
X110792164Y-53688783D01*
X110796203Y-53689000D01*
X110963000Y-53689000D01*
X110963000Y-53112000D01*
X111217000Y-53112000D01*
X111217000Y-53689000D01*
X111383797Y-53689000D01*
X111387835Y-53688783D01*
X111442863Y-53682867D01*
X111571922Y-53634731D01*
X111682187Y-53552187D01*
X111764731Y-53441922D01*
X111812867Y-53312863D01*
X111818783Y-53257835D01*
X111819000Y-53253796D01*
X111819000Y-53112000D01*
X111217000Y-53112000D01*
X110963000Y-53112000D01*
X110361000Y-53112000D01*
X107116451Y-53112000D01*
X107111809Y-53082694D01*
X107053292Y-52967849D01*
X107046558Y-52961116D01*
X107024783Y-52914417D01*
X107038119Y-52864646D01*
X107080327Y-52835092D01*
X107099823Y-52832525D01*
X109185881Y-52832525D01*
X109234300Y-52850148D01*
X109239145Y-52854588D01*
X109307849Y-52923292D01*
X109422694Y-52981809D01*
X109550000Y-53001972D01*
X109677306Y-52981809D01*
X109792151Y-52923292D01*
X109857443Y-52858000D01*
X110361000Y-52858000D01*
X110963000Y-52858000D01*
X110963000Y-52281000D01*
X111217000Y-52281000D01*
X111217000Y-52858000D01*
X111819000Y-52858000D01*
X111819000Y-52716203D01*
X111818783Y-52712164D01*
X111812867Y-52657136D01*
X111764731Y-52528077D01*
X111682187Y-52417812D01*
X111571922Y-52335268D01*
X111442863Y-52287132D01*
X111387835Y-52281216D01*
X111383797Y-52281000D01*
X111217000Y-52281000D01*
X110963000Y-52281000D01*
X110796203Y-52281000D01*
X110792164Y-52281216D01*
X110737136Y-52287132D01*
X110608077Y-52335268D01*
X110497812Y-52417812D01*
X110415268Y-52528077D01*
X110367132Y-52657136D01*
X110361216Y-52712164D01*
X110361000Y-52716203D01*
X110361000Y-52858000D01*
X109857443Y-52858000D01*
X109883292Y-52832151D01*
X109941809Y-52717306D01*
X109961972Y-52590000D01*
X109941809Y-52462694D01*
X109883292Y-52347849D01*
X109792151Y-52256708D01*
X109677306Y-52198191D01*
X109550000Y-52178028D01*
X109549999Y-52178028D01*
X109422693Y-52198191D01*
X109307847Y-52256709D01*
X109212345Y-52352212D01*
X109165646Y-52373988D01*
X109159081Y-52374275D01*
X105611728Y-52374275D01*
X105563309Y-52356652D01*
X105537545Y-52312028D01*
X105536401Y-52298948D01*
X105536401Y-51842349D01*
X105536417Y-51842256D01*
X105536412Y-51828781D01*
X105536414Y-51828778D01*
X105536411Y-51819683D01*
X105536508Y-51819413D01*
X105536498Y-51788377D01*
X105536499Y-51788377D01*
X105536483Y-51738139D01*
X105510446Y-51641094D01*
X105493483Y-51611734D01*
X105460180Y-51554093D01*
X105389111Y-51483070D01*
X105323643Y-51445301D01*
X105302077Y-51432859D01*
X105205016Y-51406885D01*
X105205014Y-51406885D01*
X105154777Y-51406901D01*
X105123785Y-51406901D01*
X105123682Y-51406910D01*
X105104948Y-51406917D01*
X105041612Y-51423865D01*
X105007662Y-51432951D01*
X105007661Y-51432951D01*
X105007659Y-51432952D01*
X104920653Y-51483147D01*
X104849601Y-51554153D01*
X104799345Y-51641132D01*
X104773591Y-51737124D01*
X104773300Y-51737964D01*
X104773300Y-51739749D01*
X104773300Y-51787957D01*
X104773300Y-51788377D01*
X104773290Y-51821344D01*
X104773283Y-51842256D01*
X104773300Y-51842349D01*
X104773300Y-52298948D01*
X104755677Y-52347367D01*
X104711053Y-52373131D01*
X104697973Y-52374275D01*
X99769612Y-52374275D01*
X99721193Y-52356652D01*
X99695429Y-52312028D01*
X99704377Y-52261285D01*
X99716345Y-52245687D01*
X99727491Y-52234540D01*
X99743070Y-52218960D01*
X99752055Y-52211286D01*
X99772077Y-52196740D01*
X99776389Y-52189269D01*
X99788357Y-52173672D01*
X100528445Y-51433585D01*
X100575143Y-51411810D01*
X100599735Y-51413712D01*
X100604774Y-51414954D01*
X100604778Y-51414956D01*
X100758724Y-51452900D01*
X100917276Y-51452900D01*
X101071222Y-51414956D01*
X101211613Y-51341272D01*
X101330292Y-51236132D01*
X101420360Y-51105646D01*
X101476584Y-50957397D01*
X101495695Y-50800000D01*
X101476584Y-50642603D01*
X101450316Y-50573340D01*
X101420361Y-50494355D01*
X101386983Y-50445999D01*
X101330292Y-50363868D01*
X101330290Y-50363866D01*
X101211615Y-50258729D01*
X101197693Y-50251422D01*
X101071222Y-50185044D01*
X101071219Y-50185043D01*
X100917276Y-50147100D01*
X100758724Y-50147100D01*
X100604780Y-50185043D01*
X100464384Y-50258729D01*
X100345709Y-50363866D01*
X100255638Y-50494355D01*
X100199416Y-50642601D01*
X100180305Y-50800000D01*
X100199416Y-50957398D01*
X100225358Y-51025802D01*
X100226049Y-51077324D01*
X100208190Y-51105777D01*
X99525156Y-51788812D01*
X99478457Y-51810588D01*
X99471892Y-51810875D01*
X98563460Y-51810875D01*
X98515041Y-51793252D01*
X98489277Y-51748628D01*
X98498222Y-51697889D01*
X98505452Y-51685365D01*
X98509764Y-51677894D01*
X98521732Y-51662297D01*
X98750444Y-51433585D01*
X98797142Y-51411810D01*
X98821734Y-51413712D01*
X98826775Y-51414954D01*
X98826778Y-51414956D01*
X98980724Y-51452900D01*
X99139276Y-51452900D01*
X99293222Y-51414956D01*
X99433613Y-51341272D01*
X99552292Y-51236132D01*
X99642360Y-51105646D01*
X99698584Y-50957397D01*
X99717695Y-50800000D01*
X99698584Y-50642603D01*
X99672316Y-50573340D01*
X99642361Y-50494355D01*
X99608983Y-50445999D01*
X99552292Y-50363868D01*
X99552290Y-50363866D01*
X99433615Y-50258729D01*
X99419693Y-50251422D01*
X99293222Y-50185044D01*
X99293219Y-50185043D01*
X99139276Y-50147100D01*
X98980724Y-50147100D01*
X98826780Y-50185043D01*
X98686384Y-50258729D01*
X98567709Y-50363866D01*
X98477638Y-50494355D01*
X98421416Y-50642601D01*
X98402305Y-50800000D01*
X98421416Y-50957398D01*
X98447358Y-51025801D01*
X98448050Y-51077323D01*
X98430190Y-51105776D01*
X98258529Y-51277437D01*
X98211833Y-51299213D01*
X98205267Y-51299500D01*
X97874076Y-51299500D01*
X97825657Y-51281877D01*
X97799893Y-51237253D01*
X97808841Y-51186510D01*
X97812083Y-51181382D01*
X97864360Y-51105646D01*
X97920584Y-50957397D01*
X97939695Y-50800000D01*
X97920584Y-50642603D01*
X97894316Y-50573340D01*
X97864361Y-50494355D01*
X97830983Y-50445999D01*
X97774292Y-50363868D01*
X97774290Y-50363866D01*
X97655615Y-50258729D01*
X97641693Y-50251422D01*
X97515222Y-50185044D01*
X97515219Y-50185043D01*
X97361276Y-50147100D01*
X97202724Y-50147100D01*
X97048780Y-50185043D01*
X96908384Y-50258729D01*
X96789709Y-50363866D01*
X96699638Y-50494355D01*
X96643416Y-50642601D01*
X96624305Y-50800000D01*
X96643416Y-50957398D01*
X96699638Y-51105644D01*
X96751917Y-51181382D01*
X96764919Y-51231242D01*
X96742829Y-51277794D01*
X96695985Y-51299256D01*
X96689924Y-51299500D01*
X93713493Y-51299500D01*
X93665074Y-51281877D01*
X93646377Y-51258373D01*
X93632710Y-51231549D01*
X93541569Y-51140408D01*
X93426724Y-51081891D01*
X93299418Y-51061728D01*
X93172111Y-51081891D01*
X93057265Y-51140409D01*
X92966127Y-51231547D01*
X92907609Y-51346393D01*
X92887446Y-51473700D01*
X92896161Y-51528728D01*
X92886328Y-51579308D01*
X92846284Y-51611734D01*
X92794765Y-51610834D01*
X92768497Y-51593775D01*
X91822313Y-50647590D01*
X91800537Y-50600891D01*
X91813873Y-50551120D01*
X91856081Y-50521566D01*
X91875577Y-50518999D01*
X92096200Y-50518999D01*
X92100202Y-50518784D01*
X92158235Y-50512546D01*
X92294026Y-50461898D01*
X92410047Y-50375047D01*
X92496898Y-50259026D01*
X92547547Y-50123231D01*
X92553783Y-50065228D01*
X92554000Y-50061188D01*
X92554000Y-50046708D01*
X93047100Y-50046708D01*
X93062043Y-50141055D01*
X93119984Y-50254771D01*
X93210229Y-50345016D01*
X93323945Y-50402957D01*
X93418292Y-50417900D01*
X93418295Y-50417900D01*
X93981705Y-50417900D01*
X93981708Y-50417900D01*
X94076055Y-50402957D01*
X94189771Y-50345016D01*
X94280016Y-50254771D01*
X94337957Y-50141055D01*
X94352900Y-50046708D01*
X94352900Y-49483501D01*
X94370523Y-49435083D01*
X94415147Y-49409319D01*
X94462424Y-49416385D01*
X94492694Y-49431809D01*
X94620000Y-49451972D01*
X94747306Y-49431809D01*
X94862151Y-49373292D01*
X94870243Y-49365200D01*
X114180600Y-49365200D01*
X114180600Y-49506996D01*
X114180816Y-49511035D01*
X114186732Y-49566063D01*
X114234868Y-49695122D01*
X114317412Y-49805387D01*
X114427677Y-49887931D01*
X114556736Y-49936067D01*
X114611764Y-49941983D01*
X114615803Y-49942200D01*
X114782600Y-49942200D01*
X114782600Y-49365200D01*
X115036600Y-49365200D01*
X115036600Y-49942200D01*
X115203397Y-49942200D01*
X115207435Y-49941983D01*
X115262463Y-49936067D01*
X115391522Y-49887931D01*
X115501787Y-49805387D01*
X115584331Y-49695122D01*
X115632467Y-49566063D01*
X115638383Y-49511035D01*
X115638600Y-49506996D01*
X115638600Y-49365200D01*
X115036600Y-49365200D01*
X114782600Y-49365200D01*
X114180600Y-49365200D01*
X94870243Y-49365200D01*
X94953292Y-49282151D01*
X95011809Y-49167306D01*
X95018501Y-49125055D01*
X95517100Y-49125055D01*
X95525971Y-49169658D01*
X95559766Y-49220235D01*
X95608046Y-49252494D01*
X95610342Y-49254028D01*
X95654943Y-49262900D01*
X97385056Y-49262899D01*
X97429658Y-49254028D01*
X97480234Y-49220234D01*
X97514028Y-49169658D01*
X97522900Y-49125057D01*
X97522899Y-48259999D01*
X98052247Y-48259999D01*
X98071610Y-48456604D01*
X98128955Y-48645645D01*
X98202216Y-48782708D01*
X98222084Y-48819878D01*
X98347411Y-48972589D01*
X98500122Y-49097916D01*
X98634343Y-49169658D01*
X98674354Y-49191044D01*
X98863395Y-49248389D01*
X98895749Y-49251575D01*
X99060000Y-49267753D01*
X99238976Y-49250125D01*
X99256604Y-49248389D01*
X99445645Y-49191044D01*
X99445647Y-49191042D01*
X99445650Y-49191042D01*
X99619878Y-49097916D01*
X99772589Y-48972589D01*
X99897916Y-48819878D01*
X99991042Y-48645650D01*
X100006926Y-48593290D01*
X100048389Y-48456604D01*
X100055244Y-48387000D01*
X100067753Y-48260000D01*
X100592247Y-48260000D01*
X100611610Y-48456604D01*
X100668955Y-48645645D01*
X100742216Y-48782708D01*
X100762084Y-48819878D01*
X100887411Y-48972589D01*
X101040122Y-49097916D01*
X101174343Y-49169658D01*
X101214354Y-49191044D01*
X101403395Y-49248389D01*
X101438650Y-49251861D01*
X101600000Y-49267753D01*
X101780426Y-49249982D01*
X101796604Y-49248389D01*
X101985645Y-49191044D01*
X101985647Y-49191042D01*
X101985650Y-49191042D01*
X102159878Y-49097916D01*
X102312589Y-48972589D01*
X102437916Y-48819878D01*
X102531042Y-48645650D01*
X102546926Y-48593290D01*
X102588389Y-48456604D01*
X102595244Y-48387000D01*
X102607753Y-48260000D01*
X102607753Y-48259999D01*
X103132247Y-48259999D01*
X103151610Y-48456604D01*
X103208955Y-48645645D01*
X103282216Y-48782708D01*
X103302084Y-48819878D01*
X103427411Y-48972589D01*
X103580122Y-49097916D01*
X103714343Y-49169658D01*
X103754354Y-49191044D01*
X103943395Y-49248389D01*
X103975749Y-49251575D01*
X104140000Y-49267753D01*
X104318976Y-49250125D01*
X104336604Y-49248389D01*
X104525645Y-49191044D01*
X104525647Y-49191042D01*
X104525650Y-49191042D01*
X104699878Y-49097916D01*
X104852589Y-48972589D01*
X104977916Y-48819878D01*
X105071042Y-48645650D01*
X105086926Y-48593290D01*
X105128389Y-48456604D01*
X105135244Y-48387000D01*
X105147753Y-48260000D01*
X105147753Y-48259999D01*
X105672247Y-48259999D01*
X105691610Y-48456604D01*
X105748955Y-48645645D01*
X105822216Y-48782708D01*
X105842084Y-48819878D01*
X105967411Y-48972589D01*
X106120122Y-49097916D01*
X106254343Y-49169658D01*
X106294354Y-49191044D01*
X106483395Y-49248389D01*
X106515749Y-49251575D01*
X106680000Y-49267753D01*
X106858976Y-49250125D01*
X106876604Y-49248389D01*
X107065645Y-49191044D01*
X107065647Y-49191042D01*
X107065650Y-49191042D01*
X107239878Y-49097916D01*
X107392589Y-48972589D01*
X107517916Y-48819878D01*
X107611042Y-48645650D01*
X107626926Y-48593290D01*
X107668389Y-48456604D01*
X107675244Y-48387000D01*
X107687753Y-48260000D01*
X107687753Y-48259999D01*
X108212247Y-48259999D01*
X108231610Y-48456604D01*
X108288955Y-48645645D01*
X108362216Y-48782708D01*
X108382084Y-48819878D01*
X108507411Y-48972589D01*
X108660122Y-49097916D01*
X108794343Y-49169658D01*
X108834354Y-49191044D01*
X109023395Y-49248389D01*
X109055749Y-49251575D01*
X109220000Y-49267753D01*
X109398976Y-49250125D01*
X109416604Y-49248389D01*
X109605645Y-49191044D01*
X109605647Y-49191042D01*
X109605650Y-49191042D01*
X109755025Y-49111200D01*
X114180600Y-49111200D01*
X114782600Y-49111200D01*
X114782600Y-48534200D01*
X115036600Y-48534200D01*
X115036600Y-49111200D01*
X115638600Y-49111200D01*
X115638600Y-48969403D01*
X115638383Y-48965364D01*
X115632467Y-48910336D01*
X115584331Y-48781277D01*
X115501787Y-48671012D01*
X115391522Y-48588468D01*
X115262463Y-48540332D01*
X115207435Y-48534416D01*
X115203397Y-48534200D01*
X115036600Y-48534200D01*
X114782600Y-48534200D01*
X114615803Y-48534200D01*
X114611764Y-48534416D01*
X114556736Y-48540332D01*
X114427677Y-48588468D01*
X114317412Y-48671012D01*
X114234868Y-48781277D01*
X114186732Y-48910336D01*
X114180816Y-48965364D01*
X114180600Y-48969403D01*
X114180600Y-49111200D01*
X109755025Y-49111200D01*
X109779878Y-49097916D01*
X109932589Y-48972589D01*
X110057916Y-48819878D01*
X110151042Y-48645650D01*
X110166926Y-48593290D01*
X110208389Y-48456604D01*
X110215244Y-48387000D01*
X110227753Y-48260000D01*
X110208389Y-48063397D01*
X110208389Y-48063395D01*
X110173707Y-47949063D01*
X114281700Y-47949063D01*
X114292401Y-48022517D01*
X114292402Y-48022519D01*
X114347794Y-48135825D01*
X114436975Y-48225006D01*
X114550281Y-48280398D01*
X114623737Y-48291100D01*
X115195462Y-48291099D01*
X115195463Y-48291099D01*
X115219947Y-48287532D01*
X115268919Y-48280398D01*
X115382225Y-48225006D01*
X115471406Y-48135825D01*
X115526798Y-48022519D01*
X115537500Y-47949063D01*
X115537499Y-47427338D01*
X115526798Y-47353881D01*
X115471406Y-47240575D01*
X115382225Y-47151394D01*
X115282422Y-47102603D01*
X115279904Y-47101372D01*
X115244145Y-47064274D01*
X115240598Y-47012869D01*
X115245867Y-46999510D01*
X115301409Y-46890506D01*
X115321572Y-46763200D01*
X115301409Y-46635894D01*
X115242892Y-46521049D01*
X115151751Y-46429908D01*
X115036906Y-46371391D01*
X114909600Y-46351228D01*
X114782293Y-46371391D01*
X114667447Y-46429909D01*
X114576309Y-46521047D01*
X114517791Y-46635893D01*
X114517790Y-46635894D01*
X114517791Y-46635894D01*
X114497628Y-46763200D01*
X114517791Y-46890506D01*
X114573328Y-46999502D01*
X114579607Y-47050643D01*
X114551544Y-47093858D01*
X114539295Y-47101372D01*
X114436973Y-47151395D01*
X114347795Y-47240573D01*
X114292401Y-47353882D01*
X114281700Y-47427337D01*
X114281700Y-47949063D01*
X110173707Y-47949063D01*
X110151044Y-47874354D01*
X110100271Y-47779363D01*
X110057916Y-47700122D01*
X109932589Y-47547411D01*
X109779878Y-47422084D01*
X109716738Y-47388335D01*
X109605645Y-47328955D01*
X109416604Y-47271610D01*
X109236176Y-47253840D01*
X109220000Y-47252247D01*
X109219999Y-47252247D01*
X109023395Y-47271610D01*
X108834354Y-47328955D01*
X108660121Y-47422084D01*
X108507411Y-47547411D01*
X108382084Y-47700121D01*
X108288955Y-47874354D01*
X108231610Y-48063395D01*
X108212247Y-48259999D01*
X107687753Y-48259999D01*
X107668389Y-48063397D01*
X107668389Y-48063395D01*
X107611044Y-47874354D01*
X107560271Y-47779363D01*
X107517916Y-47700122D01*
X107392589Y-47547411D01*
X107239878Y-47422084D01*
X107176738Y-47388335D01*
X107065645Y-47328955D01*
X106876604Y-47271610D01*
X106680000Y-47252247D01*
X106483395Y-47271610D01*
X106294354Y-47328955D01*
X106120121Y-47422084D01*
X105967411Y-47547411D01*
X105842084Y-47700121D01*
X105748955Y-47874354D01*
X105691610Y-48063395D01*
X105672247Y-48259999D01*
X105147753Y-48259999D01*
X105128389Y-48063397D01*
X105128389Y-48063395D01*
X105071044Y-47874354D01*
X105020271Y-47779363D01*
X104977916Y-47700122D01*
X104852589Y-47547411D01*
X104699878Y-47422084D01*
X104636738Y-47388335D01*
X104525645Y-47328955D01*
X104336604Y-47271610D01*
X104140000Y-47252247D01*
X103943395Y-47271610D01*
X103754354Y-47328955D01*
X103580121Y-47422084D01*
X103427411Y-47547411D01*
X103302084Y-47700121D01*
X103208955Y-47874354D01*
X103151610Y-48063395D01*
X103132247Y-48259999D01*
X102607753Y-48259999D01*
X102588389Y-48063397D01*
X102588389Y-48063395D01*
X102531044Y-47874354D01*
X102480271Y-47779363D01*
X102437916Y-47700122D01*
X102312589Y-47547411D01*
X102159878Y-47422084D01*
X102096738Y-47388335D01*
X101985645Y-47328955D01*
X101796604Y-47271610D01*
X101600000Y-47252247D01*
X101403395Y-47271610D01*
X101214354Y-47328955D01*
X101040121Y-47422084D01*
X100887411Y-47547411D01*
X100762084Y-47700121D01*
X100668955Y-47874354D01*
X100611610Y-48063395D01*
X100592247Y-48260000D01*
X100067753Y-48260000D01*
X100048389Y-48063397D01*
X100048389Y-48063395D01*
X99991044Y-47874354D01*
X99940271Y-47779363D01*
X99897916Y-47700122D01*
X99772589Y-47547411D01*
X99619878Y-47422084D01*
X99556738Y-47388335D01*
X99445645Y-47328955D01*
X99256604Y-47271610D01*
X99076176Y-47253840D01*
X99060000Y-47252247D01*
X99059999Y-47252247D01*
X98863395Y-47271610D01*
X98674354Y-47328955D01*
X98500121Y-47422084D01*
X98347411Y-47547411D01*
X98222084Y-47700121D01*
X98128955Y-47874354D01*
X98071610Y-48063395D01*
X98052247Y-48259999D01*
X97522899Y-48259999D01*
X97522899Y-47394944D01*
X97518975Y-47375213D01*
X97514028Y-47350341D01*
X97480233Y-47299764D01*
X97429657Y-47265971D01*
X97385059Y-47257100D01*
X95654944Y-47257100D01*
X95610341Y-47265971D01*
X95559764Y-47299766D01*
X95525971Y-47350342D01*
X95517100Y-47394940D01*
X95517100Y-49125055D01*
X95018501Y-49125055D01*
X95031972Y-49040000D01*
X95011809Y-48912694D01*
X94953292Y-48797849D01*
X94862151Y-48706708D01*
X94747306Y-48648191D01*
X94620000Y-48628028D01*
X94492693Y-48648191D01*
X94377847Y-48706709D01*
X94371920Y-48712637D01*
X94325221Y-48734413D01*
X94318656Y-48734700D01*
X94262090Y-48734700D01*
X94246821Y-48732209D01*
X94209437Y-48733937D01*
X94171762Y-48725807D01*
X94111820Y-48695266D01*
X94076055Y-48677043D01*
X93981708Y-48662100D01*
X93418292Y-48662100D01*
X93323945Y-48677042D01*
X93323945Y-48677043D01*
X93210227Y-48734985D01*
X93119985Y-48825227D01*
X93119983Y-48825229D01*
X93119984Y-48825229D01*
X93062043Y-48938945D01*
X93047100Y-49033292D01*
X93047100Y-50046708D01*
X92554000Y-50046708D01*
X92554000Y-49667000D01*
X91124335Y-49667000D01*
X91075916Y-49649377D01*
X91071071Y-49644937D01*
X91040062Y-49613928D01*
X91040061Y-49613927D01*
X90925216Y-49555410D01*
X90797910Y-49535247D01*
X90797909Y-49535247D01*
X90670603Y-49555410D01*
X90555757Y-49613928D01*
X90464619Y-49705066D01*
X90406101Y-49819912D01*
X90394606Y-49892493D01*
X90385938Y-49947219D01*
X90406101Y-50074525D01*
X90464618Y-50189370D01*
X90464619Y-50189371D01*
X90470035Y-50200000D01*
X90469499Y-50200272D01*
X90486014Y-50235689D01*
X90472678Y-50285460D01*
X90464239Y-50295518D01*
X90398146Y-50361612D01*
X90339629Y-50476456D01*
X90319466Y-50603763D01*
X90337605Y-50718290D01*
X90327773Y-50768870D01*
X90287729Y-50801296D01*
X90274990Y-50804472D01*
X90231635Y-50811339D01*
X90116786Y-50869858D01*
X90025648Y-50960996D01*
X89967130Y-51075842D01*
X89950415Y-51181382D01*
X89946967Y-51203149D01*
X89967130Y-51330455D01*
X90025647Y-51445300D01*
X90116788Y-51536441D01*
X90227389Y-51592796D01*
X90262530Y-51630480D01*
X90265226Y-51681936D01*
X90260308Y-51694109D01*
X90238893Y-51736138D01*
X90230759Y-51787494D01*
X90205778Y-51832560D01*
X90157674Y-51851026D01*
X90108955Y-51834250D01*
X90103096Y-51828974D01*
X87687122Y-49413000D01*
X91046000Y-49413000D01*
X91673000Y-49413000D01*
X91673000Y-48561000D01*
X91927000Y-48561000D01*
X91927000Y-49413000D01*
X92553999Y-49413000D01*
X92553999Y-49018799D01*
X92553784Y-49014797D01*
X92547546Y-48956764D01*
X92496898Y-48820973D01*
X92410047Y-48704952D01*
X92294026Y-48618101D01*
X92158231Y-48567452D01*
X92100228Y-48561216D01*
X92096188Y-48561000D01*
X91927000Y-48561000D01*
X91673000Y-48561000D01*
X91503800Y-48561000D01*
X91499797Y-48561215D01*
X91441764Y-48567453D01*
X91305973Y-48618101D01*
X91189952Y-48704952D01*
X91103101Y-48820973D01*
X91052452Y-48956768D01*
X91046216Y-49014771D01*
X91046000Y-49018812D01*
X91046000Y-49413000D01*
X87687122Y-49413000D01*
X87199351Y-48925229D01*
X87177575Y-48878530D01*
X87190911Y-48828759D01*
X87194379Y-48824186D01*
X87197916Y-48819878D01*
X87291042Y-48645650D01*
X87306926Y-48593290D01*
X87348389Y-48456604D01*
X87355244Y-48387000D01*
X87367753Y-48260000D01*
X87348389Y-48063397D01*
X87348389Y-48063395D01*
X87317286Y-47960863D01*
X91789300Y-47960863D01*
X91800001Y-48034317D01*
X91800002Y-48034319D01*
X91855394Y-48147625D01*
X91944575Y-48236806D01*
X92057881Y-48292198D01*
X92131337Y-48302900D01*
X92653062Y-48302899D01*
X92653063Y-48302899D01*
X92686629Y-48298009D01*
X92726519Y-48292198D01*
X92839825Y-48236806D01*
X92929006Y-48147625D01*
X92984398Y-48034319D01*
X92995100Y-47960863D01*
X92995100Y-47802000D01*
X93238200Y-47802000D01*
X93238200Y-47968796D01*
X93238416Y-47972835D01*
X93244332Y-48027863D01*
X93292468Y-48156922D01*
X93375012Y-48267187D01*
X93485277Y-48349731D01*
X93614336Y-48397867D01*
X93669364Y-48403783D01*
X93673403Y-48404000D01*
X93815200Y-48404000D01*
X93815200Y-47802000D01*
X94069200Y-47802000D01*
X94069200Y-48404000D01*
X94210997Y-48404000D01*
X94215035Y-48403783D01*
X94270063Y-48397867D01*
X94399122Y-48349731D01*
X94509387Y-48267187D01*
X94591931Y-48156922D01*
X94640067Y-48027863D01*
X94645983Y-47972835D01*
X94646200Y-47968796D01*
X94646200Y-47802000D01*
X94069200Y-47802000D01*
X93815200Y-47802000D01*
X93238200Y-47802000D01*
X92995100Y-47802000D01*
X92995099Y-47548000D01*
X93238200Y-47548000D01*
X93815200Y-47548000D01*
X93815200Y-46946000D01*
X94069200Y-46946000D01*
X94069200Y-47548000D01*
X94646200Y-47548000D01*
X94646200Y-47381203D01*
X94645983Y-47377164D01*
X94640067Y-47322136D01*
X94591931Y-47193077D01*
X94509387Y-47082812D01*
X94399122Y-47000268D01*
X94270063Y-46952132D01*
X94215035Y-46946216D01*
X94210997Y-46946000D01*
X94069200Y-46946000D01*
X93815200Y-46946000D01*
X93673403Y-46946000D01*
X93669364Y-46946216D01*
X93614336Y-46952132D01*
X93485277Y-47000268D01*
X93375012Y-47082812D01*
X93292468Y-47193077D01*
X93244332Y-47322136D01*
X93238416Y-47377164D01*
X93238200Y-47381203D01*
X93238200Y-47548000D01*
X92995099Y-47548000D01*
X92995099Y-47389138D01*
X92993070Y-47375213D01*
X92984398Y-47315682D01*
X92984398Y-47315681D01*
X92929006Y-47202375D01*
X92839825Y-47113194D01*
X92726519Y-47057802D01*
X92726517Y-47057801D01*
X92665588Y-47048924D01*
X92653063Y-47047100D01*
X92653062Y-47047100D01*
X92131336Y-47047100D01*
X92057882Y-47057801D01*
X91944573Y-47113195D01*
X91855395Y-47202373D01*
X91800001Y-47315682D01*
X91789300Y-47389137D01*
X91789300Y-47960863D01*
X87317286Y-47960863D01*
X87291044Y-47874354D01*
X87240271Y-47779363D01*
X87197916Y-47700122D01*
X87072589Y-47547411D01*
X86919878Y-47422084D01*
X86856738Y-47388335D01*
X86745645Y-47328955D01*
X86556604Y-47271610D01*
X86438721Y-47260000D01*
X88172305Y-47260000D01*
X88191416Y-47417398D01*
X88247638Y-47565644D01*
X88337709Y-47696133D01*
X88456384Y-47801270D01*
X88456385Y-47801270D01*
X88456387Y-47801272D01*
X88596778Y-47874956D01*
X88750724Y-47912900D01*
X88909276Y-47912900D01*
X89063222Y-47874956D01*
X89203613Y-47801272D01*
X89322292Y-47696132D01*
X89412360Y-47565646D01*
X89468584Y-47417397D01*
X89487695Y-47260000D01*
X89468584Y-47102603D01*
X89439153Y-47025001D01*
X89412361Y-46954355D01*
X89382337Y-46910858D01*
X89322292Y-46823868D01*
X89253812Y-46763200D01*
X89203615Y-46718729D01*
X89192437Y-46712862D01*
X89063222Y-46645044D01*
X89063219Y-46645043D01*
X88909276Y-46607100D01*
X88750724Y-46607100D01*
X88596780Y-46645043D01*
X88456384Y-46718729D01*
X88337709Y-46823866D01*
X88247638Y-46954355D01*
X88191416Y-47102601D01*
X88172305Y-47260000D01*
X86438721Y-47260000D01*
X86360000Y-47252247D01*
X86163395Y-47271610D01*
X85974354Y-47328955D01*
X85800121Y-47422084D01*
X85647411Y-47547411D01*
X85522084Y-47700121D01*
X85428955Y-47874354D01*
X85371610Y-48063395D01*
X85352247Y-48260000D01*
X85371610Y-48456604D01*
X85428955Y-48645645D01*
X85502216Y-48782708D01*
X85522084Y-48819878D01*
X85647411Y-48972589D01*
X85665360Y-48987319D01*
X85691609Y-49031659D01*
X85683215Y-49082498D01*
X85644107Y-49116047D01*
X85617573Y-49120875D01*
X85036108Y-49120875D01*
X84987689Y-49103252D01*
X84982844Y-49098812D01*
X84713439Y-48829407D01*
X84691663Y-48782708D01*
X84700270Y-48740636D01*
X84751042Y-48645650D01*
X84794572Y-48502151D01*
X84808389Y-48456604D01*
X84815244Y-48387000D01*
X84827753Y-48260000D01*
X84808389Y-48063397D01*
X84808389Y-48063395D01*
X84751044Y-47874354D01*
X84700271Y-47779363D01*
X84657916Y-47700122D01*
X84532589Y-47547411D01*
X84379878Y-47422084D01*
X84316738Y-47388335D01*
X84205645Y-47328955D01*
X84016604Y-47271610D01*
X83820000Y-47252247D01*
X83623395Y-47271610D01*
X83434354Y-47328955D01*
X83260121Y-47422084D01*
X83107411Y-47547411D01*
X82982081Y-47700125D01*
X82886268Y-47879379D01*
X82847901Y-47913773D01*
X82796402Y-47915459D01*
X82766572Y-47897134D01*
X82342185Y-47472747D01*
X81894440Y-47025001D01*
X81891725Y-47022141D01*
X81864466Y-46991867D01*
X81841865Y-46981804D01*
X81831482Y-46976166D01*
X81810727Y-46962688D01*
X81802208Y-46961339D01*
X81783362Y-46955756D01*
X81775486Y-46952250D01*
X81775484Y-46952250D01*
X81750747Y-46952250D01*
X81738965Y-46951323D01*
X81714523Y-46947452D01*
X81706195Y-46949683D01*
X81686701Y-46952250D01*
X79826603Y-46952250D01*
X79822660Y-46952147D01*
X79781979Y-46950014D01*
X79758889Y-46958878D01*
X79747560Y-46962234D01*
X79723348Y-46967381D01*
X79716369Y-46972452D01*
X79699090Y-46981834D01*
X79691046Y-46984921D01*
X79673556Y-47002411D01*
X79664574Y-47010083D01*
X79644547Y-47024634D01*
X79640235Y-47032104D01*
X79628266Y-47047701D01*
X79309408Y-47366559D01*
X79262709Y-47388335D01*
X79220636Y-47379728D01*
X79125647Y-47328956D01*
X78936604Y-47271610D01*
X78756176Y-47253840D01*
X78740000Y-47252247D01*
X78739999Y-47252247D01*
X78543395Y-47271610D01*
X78354354Y-47328955D01*
X78180121Y-47422084D01*
X78027411Y-47547411D01*
X77902084Y-47700121D01*
X77808955Y-47874354D01*
X77751610Y-48063395D01*
X77732247Y-48259999D01*
X76700000Y-48259999D01*
X76700000Y-48188111D01*
X76683818Y-48133000D01*
X77296962Y-48133000D01*
X77296962Y-48132999D01*
X77289851Y-48056268D01*
X77233860Y-47859481D01*
X77142661Y-47676329D01*
X77019359Y-47513050D01*
X76868159Y-47375213D01*
X76694204Y-47267505D01*
X76503418Y-47193594D01*
X76327000Y-47160616D01*
X76327000Y-47773118D01*
X76235763Y-47760000D01*
X76164237Y-47760000D01*
X76073000Y-47773118D01*
X76073000Y-47160616D01*
X76072999Y-47160616D01*
X75896581Y-47193594D01*
X75705795Y-47267505D01*
X75531840Y-47375213D01*
X75380640Y-47513050D01*
X75257338Y-47676329D01*
X75166139Y-47859481D01*
X75110148Y-48056268D01*
X75103037Y-48132999D01*
X74662899Y-48132999D01*
X74662899Y-47394944D01*
X74658975Y-47375213D01*
X74654028Y-47350341D01*
X74620233Y-47299764D01*
X74569657Y-47265971D01*
X74525059Y-47257100D01*
X72794944Y-47257100D01*
X72750341Y-47265971D01*
X72699764Y-47299766D01*
X72665971Y-47350342D01*
X72657100Y-47394940D01*
X72657100Y-49125055D01*
X69996176Y-49125055D01*
X70434144Y-48687086D01*
X70480842Y-48665311D01*
X70499190Y-48665951D01*
X70537200Y-48671972D01*
X70664506Y-48651809D01*
X70779351Y-48593292D01*
X70870492Y-48502151D01*
X70929009Y-48387306D01*
X70949172Y-48260000D01*
X70929009Y-48132694D01*
X70870492Y-48017849D01*
X70779351Y-47926708D01*
X70664506Y-47868191D01*
X70537200Y-47848028D01*
X70409893Y-47868191D01*
X70295047Y-47926709D01*
X70203909Y-48017847D01*
X70145391Y-48132693D01*
X70125228Y-48260000D01*
X70131247Y-48298009D01*
X70121414Y-48348589D01*
X70110111Y-48363055D01*
X68643624Y-49829542D01*
X68640766Y-49832255D01*
X68610493Y-49859514D01*
X68600431Y-49882112D01*
X68594795Y-49892493D01*
X68581313Y-49913254D01*
X68579964Y-49921774D01*
X68574382Y-49940619D01*
X68570875Y-49948497D01*
X68570875Y-49973234D01*
X68569948Y-49985016D01*
X68566077Y-50009458D01*
X68568308Y-50017784D01*
X68570875Y-50037281D01*
X68570875Y-51407022D01*
X68570772Y-51410964D01*
X68568639Y-51451644D01*
X68577504Y-51474737D01*
X68580860Y-51486067D01*
X68586006Y-51510275D01*
X68591075Y-51517251D01*
X68600460Y-51534536D01*
X68607569Y-51553058D01*
X68608466Y-51604577D01*
X68576037Y-51644620D01*
X68528164Y-51654828D01*
X68416543Y-51641274D01*
X68412002Y-51641000D01*
X68169000Y-51641000D01*
X68169000Y-52090000D01*
X67915000Y-52090000D01*
X67915000Y-51641000D01*
X67671998Y-51641000D01*
X67667456Y-51641274D01*
X67543488Y-51656327D01*
X67384774Y-51716519D01*
X67245071Y-51812949D01*
X67132509Y-51940005D01*
X67053622Y-52090312D01*
X67023383Y-52212999D01*
X67023384Y-52213000D01*
X67501186Y-52213000D01*
X67481505Y-52242455D01*
X67462102Y-52340000D01*
X67481505Y-52437545D01*
X67501186Y-52467000D01*
X67023383Y-52467000D01*
X66421500Y-52467000D01*
X66421500Y-46176827D01*
X66439123Y-46128408D01*
X66483747Y-46102644D01*
X66496827Y-46101500D01*
X116383173Y-46101500D01*
X116431592Y-46119123D01*
G37*
%TD.AperFunction*%
%TD*%
M02*
