%TF.GenerationSoftware,KiCad,Pcbnew,7.0.2*%
%TF.CreationDate,2023-05-12T00:45:21-04:00*%
%TF.ProjectId,H503-0.2,48353033-2d30-42e3-922e-6b696361645f,rev?*%
%TF.SameCoordinates,Original*%
%TF.FileFunction,Soldermask,Bot*%
%TF.FilePolarity,Negative*%
%FSLAX46Y46*%
G04 Gerber Fmt 4.6, Leading zero omitted, Abs format (unit mm)*
G04 Created by KiCad (PCBNEW 7.0.2) date 2023-05-12 00:45:21*
%MOMM*%
%LPD*%
G01*
G04 APERTURE LIST*
G04 Aperture macros list*
%AMRoundRect*
0 Rectangle with rounded corners*
0 $1 Rounding radius*
0 $2 $3 $4 $5 $6 $7 $8 $9 X,Y pos of 4 corners*
0 Add a 4 corners polygon primitive as box body*
4,1,4,$2,$3,$4,$5,$6,$7,$8,$9,$2,$3,0*
0 Add four circle primitives for the rounded corners*
1,1,$1+$1,$2,$3*
1,1,$1+$1,$4,$5*
1,1,$1+$1,$6,$7*
1,1,$1+$1,$8,$9*
0 Add four rect primitives between the rounded corners*
20,1,$1+$1,$2,$3,$4,$5,0*
20,1,$1+$1,$4,$5,$6,$7,0*
20,1,$1+$1,$6,$7,$8,$9,0*
20,1,$1+$1,$8,$9,$2,$3,0*%
G04 Aperture macros list end*
%ADD10C,1.000000*%
%ADD11R,1.000000X1.000000*%
%ADD12O,1.000000X1.000000*%
%ADD13O,1.550000X0.890000*%
%ADD14O,0.950000X1.250000*%
%ADD15RoundRect,0.225000X-0.225000X-0.250000X0.225000X-0.250000X0.225000X0.250000X-0.225000X0.250000X0*%
%ADD16RoundRect,0.150000X-0.150000X0.512500X-0.150000X-0.512500X0.150000X-0.512500X0.150000X0.512500X0*%
%ADD17RoundRect,0.225000X0.250000X-0.225000X0.250000X0.225000X-0.250000X0.225000X-0.250000X-0.225000X0*%
%ADD18RoundRect,0.200000X-0.200000X-0.275000X0.200000X-0.275000X0.200000X0.275000X-0.200000X0.275000X0*%
%ADD19RoundRect,0.225000X-0.250000X0.225000X-0.250000X-0.225000X0.250000X-0.225000X0.250000X0.225000X0*%
%ADD20RoundRect,0.200000X0.200000X0.275000X-0.200000X0.275000X-0.200000X-0.275000X0.200000X-0.275000X0*%
%ADD21R,1.700000X1.700000*%
%ADD22O,1.700000X1.700000*%
%ADD23RoundRect,0.225000X0.225000X0.250000X-0.225000X0.250000X-0.225000X-0.250000X0.225000X-0.250000X0*%
%ADD24RoundRect,0.112500X0.112500X-0.187500X0.112500X0.187500X-0.112500X0.187500X-0.112500X-0.187500X0*%
%ADD25RoundRect,0.250000X0.250000X0.475000X-0.250000X0.475000X-0.250000X-0.475000X0.250000X-0.475000X0*%
%ADD26RoundRect,0.250000X-0.475000X0.250000X-0.475000X-0.250000X0.475000X-0.250000X0.475000X0.250000X0*%
%ADD27RoundRect,0.112500X0.187500X0.112500X-0.187500X0.112500X-0.187500X-0.112500X0.187500X-0.112500X0*%
G04 APERTURE END LIST*
D10*
%TO.C,TP1*%
X100540000Y-55110000D03*
%TD*%
%TO.C,TP3*%
X83500000Y-51500000D03*
%TD*%
D11*
%TO.C,J3*%
X115062000Y-64693800D03*
D12*
X113792000Y-64693800D03*
X115062000Y-63423800D03*
X113792000Y-63423800D03*
X115062000Y-62153800D03*
X113792000Y-62153800D03*
X115062000Y-60883800D03*
X113792000Y-60883800D03*
X115062000Y-59613800D03*
X113792000Y-59613800D03*
X115062000Y-58343800D03*
X113792000Y-58343800D03*
X115062000Y-57073800D03*
X113792000Y-57073800D03*
X115062000Y-55803800D03*
X113792000Y-55803800D03*
X115062000Y-54533800D03*
X113792000Y-54533800D03*
X115062000Y-53263800D03*
X113792000Y-53263800D03*
%TD*%
D10*
%TO.C,TP7*%
X89992200Y-64770000D03*
%TD*%
%TO.C,TP14*%
X88830000Y-47260000D03*
%TD*%
%TO.C,TP9*%
X94157800Y-64922400D03*
%TD*%
D13*
%TO.C,J4*%
X68042000Y-59340000D03*
D14*
X70742000Y-58340000D03*
X70742000Y-53340000D03*
D13*
X68042000Y-52340000D03*
%TD*%
D10*
%TO.C,TP6*%
X84000000Y-61000000D03*
%TD*%
%TO.C,TP11*%
X100838000Y-50800000D03*
%TD*%
%TO.C,TP5*%
X82500000Y-61000000D03*
%TD*%
%TO.C,TP8*%
X92760800Y-64922400D03*
%TD*%
%TO.C,TP12*%
X99060000Y-50800000D03*
%TD*%
%TO.C,TP4*%
X85000000Y-51500000D03*
%TD*%
%TO.C,TP13*%
X85500000Y-60960000D03*
%TD*%
%TO.C,TP2*%
X97282000Y-50800000D03*
%TD*%
%TO.C,TP10*%
X81000000Y-61000000D03*
%TD*%
D15*
%TO.C,C10*%
X92392200Y-47675000D03*
X93942200Y-47675000D03*
%TD*%
D16*
%TO.C,U1*%
X76400000Y-53637500D03*
X77350000Y-51362500D03*
X75450000Y-51362500D03*
%TD*%
D17*
%TO.C,C14*%
X83718400Y-54902400D03*
X83718400Y-53352400D03*
%TD*%
D18*
%TO.C,R1*%
X67875000Y-63320000D03*
X69525000Y-63320000D03*
%TD*%
D19*
%TO.C,C1*%
X114909600Y-47688200D03*
X114909600Y-49238200D03*
%TD*%
D15*
%TO.C,C9*%
X95185000Y-55180000D03*
X96735000Y-55180000D03*
%TD*%
D20*
%TO.C,R2*%
X75700000Y-58700000D03*
X74050000Y-58700000D03*
%TD*%
D21*
%TO.C,J1*%
X73660000Y-63500000D03*
D22*
X76200000Y-63500000D03*
X78740000Y-63500000D03*
X81280000Y-63500000D03*
X83820000Y-63500000D03*
X86360000Y-63500000D03*
%TD*%
D23*
%TO.C,FB1*%
X99515000Y-58300000D03*
X97965000Y-58300000D03*
%TD*%
D21*
%TO.C,J2*%
X96520000Y-63500000D03*
D22*
X99060000Y-63500000D03*
X101600000Y-63500000D03*
X104140000Y-63500000D03*
X106680000Y-63500000D03*
X109220000Y-63500000D03*
%TD*%
D24*
%TO.C,D2*%
X81500000Y-50950000D03*
X81500000Y-53050000D03*
%TD*%
D21*
%TO.C,J6*%
X96520000Y-48260000D03*
D22*
X99060000Y-48260000D03*
X101600000Y-48260000D03*
X104140000Y-48260000D03*
X106680000Y-48260000D03*
X109220000Y-48260000D03*
%TD*%
D21*
%TO.C,J5*%
X73660000Y-48260000D03*
D22*
X76200000Y-48260000D03*
X78740000Y-48260000D03*
X81280000Y-48260000D03*
X83820000Y-48260000D03*
X86360000Y-48260000D03*
%TD*%
D25*
%TO.C,C11*%
X93700000Y-49540000D03*
X91800000Y-49540000D03*
%TD*%
D18*
%TO.C,R9*%
X72950000Y-60500000D03*
X74600000Y-60500000D03*
%TD*%
D19*
%TO.C,C8*%
X91440000Y-62852000D03*
X91440000Y-64402000D03*
%TD*%
D23*
%TO.C,C7*%
X95045000Y-58030000D03*
X93495000Y-58030000D03*
%TD*%
D26*
%TO.C,C12*%
X89180000Y-61700000D03*
X89180000Y-63600000D03*
%TD*%
%TO.C,C3*%
X73400000Y-53050000D03*
X73400000Y-51150000D03*
%TD*%
D20*
%TO.C,R3*%
X109485000Y-54920000D03*
X107835000Y-54920000D03*
%TD*%
D26*
%TO.C,C4*%
X79400000Y-51150000D03*
X79400000Y-53050000D03*
%TD*%
D27*
%TO.C,D3*%
X69507500Y-51110000D03*
X71607500Y-51110000D03*
%TD*%
D15*
%TO.C,C2*%
X101395000Y-58300000D03*
X102945000Y-58300000D03*
%TD*%
D17*
%TO.C,C13*%
X111090000Y-54535000D03*
X111090000Y-52985000D03*
%TD*%
M02*
