%TF.GenerationSoftware,KiCad,Pcbnew,7.0.2*%
%TF.CreationDate,2023-05-12T00:45:21-04:00*%
%TF.ProjectId,H503-0.2,48353033-2d30-42e3-922e-6b696361645f,rev?*%
%TF.SameCoordinates,Original*%
%TF.FileFunction,Legend,Bot*%
%TF.FilePolarity,Positive*%
%FSLAX46Y46*%
G04 Gerber Fmt 4.6, Leading zero omitted, Abs format (unit mm)*
G04 Created by KiCad (PCBNEW 7.0.2) date 2023-05-12 00:45:21*
%MOMM*%
%LPD*%
G01*
G04 APERTURE LIST*
%ADD10C,0.150000*%
%ADD11C,0.120000*%
G04 APERTURE END LIST*
D10*
X104346428Y-51527619D02*
X104251190Y-51527619D01*
X104251190Y-51527619D02*
X104155952Y-51575238D01*
X104155952Y-51575238D02*
X104108333Y-51622857D01*
X104108333Y-51622857D02*
X104060714Y-51718095D01*
X104060714Y-51718095D02*
X104013095Y-51908571D01*
X104013095Y-51908571D02*
X104013095Y-52146666D01*
X104013095Y-52146666D02*
X104060714Y-52337142D01*
X104060714Y-52337142D02*
X104108333Y-52432380D01*
X104108333Y-52432380D02*
X104155952Y-52480000D01*
X104155952Y-52480000D02*
X104251190Y-52527619D01*
X104251190Y-52527619D02*
X104346428Y-52527619D01*
X104346428Y-52527619D02*
X104441666Y-52480000D01*
X104441666Y-52480000D02*
X104489285Y-52432380D01*
X104489285Y-52432380D02*
X104536904Y-52337142D01*
X104536904Y-52337142D02*
X104584523Y-52146666D01*
X104584523Y-52146666D02*
X104584523Y-51908571D01*
X104584523Y-51908571D02*
X104536904Y-51718095D01*
X104536904Y-51718095D02*
X104489285Y-51622857D01*
X104489285Y-51622857D02*
X104441666Y-51575238D01*
X104441666Y-51575238D02*
X104346428Y-51527619D01*
X103584523Y-52432380D02*
X103536904Y-52480000D01*
X103536904Y-52480000D02*
X103584523Y-52527619D01*
X103584523Y-52527619D02*
X103632142Y-52480000D01*
X103632142Y-52480000D02*
X103584523Y-52432380D01*
X103584523Y-52432380D02*
X103584523Y-52527619D01*
X103155952Y-51622857D02*
X103108333Y-51575238D01*
X103108333Y-51575238D02*
X103013095Y-51527619D01*
X103013095Y-51527619D02*
X102775000Y-51527619D01*
X102775000Y-51527619D02*
X102679762Y-51575238D01*
X102679762Y-51575238D02*
X102632143Y-51622857D01*
X102632143Y-51622857D02*
X102584524Y-51718095D01*
X102584524Y-51718095D02*
X102584524Y-51813333D01*
X102584524Y-51813333D02*
X102632143Y-51956190D01*
X102632143Y-51956190D02*
X103203571Y-52527619D01*
X103203571Y-52527619D02*
X102584524Y-52527619D01*
X112289523Y-51090000D02*
X112146666Y-51137619D01*
X112146666Y-51137619D02*
X111908571Y-51137619D01*
X111908571Y-51137619D02*
X111813333Y-51090000D01*
X111813333Y-51090000D02*
X111765714Y-51042380D01*
X111765714Y-51042380D02*
X111718095Y-50947142D01*
X111718095Y-50947142D02*
X111718095Y-50851904D01*
X111718095Y-50851904D02*
X111765714Y-50756666D01*
X111765714Y-50756666D02*
X111813333Y-50709047D01*
X111813333Y-50709047D02*
X111908571Y-50661428D01*
X111908571Y-50661428D02*
X112099047Y-50613809D01*
X112099047Y-50613809D02*
X112194285Y-50566190D01*
X112194285Y-50566190D02*
X112241904Y-50518571D01*
X112241904Y-50518571D02*
X112289523Y-50423333D01*
X112289523Y-50423333D02*
X112289523Y-50328095D01*
X112289523Y-50328095D02*
X112241904Y-50232857D01*
X112241904Y-50232857D02*
X112194285Y-50185238D01*
X112194285Y-50185238D02*
X112099047Y-50137619D01*
X112099047Y-50137619D02*
X111860952Y-50137619D01*
X111860952Y-50137619D02*
X111718095Y-50185238D01*
X111432380Y-50137619D02*
X110860952Y-50137619D01*
X111146666Y-51137619D02*
X111146666Y-50137619D01*
X110527618Y-51137619D02*
X110527618Y-50137619D01*
X110527618Y-50137619D02*
X110194285Y-50851904D01*
X110194285Y-50851904D02*
X109860952Y-50137619D01*
X109860952Y-50137619D02*
X109860952Y-51137619D01*
X109479999Y-50137619D02*
X108860952Y-50137619D01*
X108860952Y-50137619D02*
X109194285Y-50518571D01*
X109194285Y-50518571D02*
X109051428Y-50518571D01*
X109051428Y-50518571D02*
X108956190Y-50566190D01*
X108956190Y-50566190D02*
X108908571Y-50613809D01*
X108908571Y-50613809D02*
X108860952Y-50709047D01*
X108860952Y-50709047D02*
X108860952Y-50947142D01*
X108860952Y-50947142D02*
X108908571Y-51042380D01*
X108908571Y-51042380D02*
X108956190Y-51090000D01*
X108956190Y-51090000D02*
X109051428Y-51137619D01*
X109051428Y-51137619D02*
X109337142Y-51137619D01*
X109337142Y-51137619D02*
X109432380Y-51090000D01*
X109432380Y-51090000D02*
X109479999Y-51042380D01*
X108479999Y-50232857D02*
X108432380Y-50185238D01*
X108432380Y-50185238D02*
X108337142Y-50137619D01*
X108337142Y-50137619D02*
X108099047Y-50137619D01*
X108099047Y-50137619D02*
X108003809Y-50185238D01*
X108003809Y-50185238D02*
X107956190Y-50232857D01*
X107956190Y-50232857D02*
X107908571Y-50328095D01*
X107908571Y-50328095D02*
X107908571Y-50423333D01*
X107908571Y-50423333D02*
X107956190Y-50566190D01*
X107956190Y-50566190D02*
X108527618Y-51137619D01*
X108527618Y-51137619D02*
X107908571Y-51137619D01*
X107479999Y-51137619D02*
X107479999Y-50137619D01*
X107479999Y-50613809D02*
X106908571Y-50613809D01*
X106908571Y-51137619D02*
X106908571Y-50137619D01*
X105956190Y-50137619D02*
X106432380Y-50137619D01*
X106432380Y-50137619D02*
X106479999Y-50613809D01*
X106479999Y-50613809D02*
X106432380Y-50566190D01*
X106432380Y-50566190D02*
X106337142Y-50518571D01*
X106337142Y-50518571D02*
X106099047Y-50518571D01*
X106099047Y-50518571D02*
X106003809Y-50566190D01*
X106003809Y-50566190D02*
X105956190Y-50613809D01*
X105956190Y-50613809D02*
X105908571Y-50709047D01*
X105908571Y-50709047D02*
X105908571Y-50947142D01*
X105908571Y-50947142D02*
X105956190Y-51042380D01*
X105956190Y-51042380D02*
X106003809Y-51090000D01*
X106003809Y-51090000D02*
X106099047Y-51137619D01*
X106099047Y-51137619D02*
X106337142Y-51137619D01*
X106337142Y-51137619D02*
X106432380Y-51090000D01*
X106432380Y-51090000D02*
X106479999Y-51042380D01*
X105289523Y-50137619D02*
X105194285Y-50137619D01*
X105194285Y-50137619D02*
X105099047Y-50185238D01*
X105099047Y-50185238D02*
X105051428Y-50232857D01*
X105051428Y-50232857D02*
X105003809Y-50328095D01*
X105003809Y-50328095D02*
X104956190Y-50518571D01*
X104956190Y-50518571D02*
X104956190Y-50756666D01*
X104956190Y-50756666D02*
X105003809Y-50947142D01*
X105003809Y-50947142D02*
X105051428Y-51042380D01*
X105051428Y-51042380D02*
X105099047Y-51090000D01*
X105099047Y-51090000D02*
X105194285Y-51137619D01*
X105194285Y-51137619D02*
X105289523Y-51137619D01*
X105289523Y-51137619D02*
X105384761Y-51090000D01*
X105384761Y-51090000D02*
X105432380Y-51042380D01*
X105432380Y-51042380D02*
X105479999Y-50947142D01*
X105479999Y-50947142D02*
X105527618Y-50756666D01*
X105527618Y-50756666D02*
X105527618Y-50518571D01*
X105527618Y-50518571D02*
X105479999Y-50328095D01*
X105479999Y-50328095D02*
X105432380Y-50232857D01*
X105432380Y-50232857D02*
X105384761Y-50185238D01*
X105384761Y-50185238D02*
X105289523Y-50137619D01*
X104622856Y-50137619D02*
X104003809Y-50137619D01*
X104003809Y-50137619D02*
X104337142Y-50518571D01*
X104337142Y-50518571D02*
X104194285Y-50518571D01*
X104194285Y-50518571D02*
X104099047Y-50566190D01*
X104099047Y-50566190D02*
X104051428Y-50613809D01*
X104051428Y-50613809D02*
X104003809Y-50709047D01*
X104003809Y-50709047D02*
X104003809Y-50947142D01*
X104003809Y-50947142D02*
X104051428Y-51042380D01*
X104051428Y-51042380D02*
X104099047Y-51090000D01*
X104099047Y-51090000D02*
X104194285Y-51137619D01*
X104194285Y-51137619D02*
X104479999Y-51137619D01*
X104479999Y-51137619D02*
X104575237Y-51090000D01*
X104575237Y-51090000D02*
X104622856Y-51042380D01*
X103003809Y-51137619D02*
X103337142Y-50661428D01*
X103575237Y-51137619D02*
X103575237Y-50137619D01*
X103575237Y-50137619D02*
X103194285Y-50137619D01*
X103194285Y-50137619D02*
X103099047Y-50185238D01*
X103099047Y-50185238D02*
X103051428Y-50232857D01*
X103051428Y-50232857D02*
X103003809Y-50328095D01*
X103003809Y-50328095D02*
X103003809Y-50470952D01*
X103003809Y-50470952D02*
X103051428Y-50566190D01*
X103051428Y-50566190D02*
X103099047Y-50613809D01*
X103099047Y-50613809D02*
X103194285Y-50661428D01*
X103194285Y-50661428D02*
X103575237Y-50661428D01*
X102241904Y-50613809D02*
X102099047Y-50661428D01*
X102099047Y-50661428D02*
X102051428Y-50709047D01*
X102051428Y-50709047D02*
X102003809Y-50804285D01*
X102003809Y-50804285D02*
X102003809Y-50947142D01*
X102003809Y-50947142D02*
X102051428Y-51042380D01*
X102051428Y-51042380D02*
X102099047Y-51090000D01*
X102099047Y-51090000D02*
X102194285Y-51137619D01*
X102194285Y-51137619D02*
X102575237Y-51137619D01*
X102575237Y-51137619D02*
X102575237Y-50137619D01*
X102575237Y-50137619D02*
X102241904Y-50137619D01*
X102241904Y-50137619D02*
X102146666Y-50185238D01*
X102146666Y-50185238D02*
X102099047Y-50232857D01*
X102099047Y-50232857D02*
X102051428Y-50328095D01*
X102051428Y-50328095D02*
X102051428Y-50423333D01*
X102051428Y-50423333D02*
X102099047Y-50518571D01*
X102099047Y-50518571D02*
X102146666Y-50566190D01*
X102146666Y-50566190D02*
X102241904Y-50613809D01*
X102241904Y-50613809D02*
X102575237Y-50613809D01*
X111768571Y-60773809D02*
X111625714Y-60821428D01*
X111625714Y-60821428D02*
X111578095Y-60869047D01*
X111578095Y-60869047D02*
X111530476Y-60964285D01*
X111530476Y-60964285D02*
X111530476Y-61107142D01*
X111530476Y-61107142D02*
X111578095Y-61202380D01*
X111578095Y-61202380D02*
X111625714Y-61250000D01*
X111625714Y-61250000D02*
X111720952Y-61297619D01*
X111720952Y-61297619D02*
X112101904Y-61297619D01*
X112101904Y-61297619D02*
X112101904Y-60297619D01*
X112101904Y-60297619D02*
X111768571Y-60297619D01*
X111768571Y-60297619D02*
X111673333Y-60345238D01*
X111673333Y-60345238D02*
X111625714Y-60392857D01*
X111625714Y-60392857D02*
X111578095Y-60488095D01*
X111578095Y-60488095D02*
X111578095Y-60583333D01*
X111578095Y-60583333D02*
X111625714Y-60678571D01*
X111625714Y-60678571D02*
X111673333Y-60726190D01*
X111673333Y-60726190D02*
X111768571Y-60773809D01*
X111768571Y-60773809D02*
X112101904Y-60773809D01*
X110720952Y-61250000D02*
X110816190Y-61297619D01*
X110816190Y-61297619D02*
X111006666Y-61297619D01*
X111006666Y-61297619D02*
X111101904Y-61250000D01*
X111101904Y-61250000D02*
X111149523Y-61154761D01*
X111149523Y-61154761D02*
X111149523Y-60773809D01*
X111149523Y-60773809D02*
X111101904Y-60678571D01*
X111101904Y-60678571D02*
X111006666Y-60630952D01*
X111006666Y-60630952D02*
X110816190Y-60630952D01*
X110816190Y-60630952D02*
X110720952Y-60678571D01*
X110720952Y-60678571D02*
X110673333Y-60773809D01*
X110673333Y-60773809D02*
X110673333Y-60869047D01*
X110673333Y-60869047D02*
X111149523Y-60964285D01*
X109816190Y-61297619D02*
X109816190Y-60773809D01*
X109816190Y-60773809D02*
X109863809Y-60678571D01*
X109863809Y-60678571D02*
X109959047Y-60630952D01*
X109959047Y-60630952D02*
X110149523Y-60630952D01*
X110149523Y-60630952D02*
X110244761Y-60678571D01*
X109816190Y-61250000D02*
X109911428Y-61297619D01*
X109911428Y-61297619D02*
X110149523Y-61297619D01*
X110149523Y-61297619D02*
X110244761Y-61250000D01*
X110244761Y-61250000D02*
X110292380Y-61154761D01*
X110292380Y-61154761D02*
X110292380Y-61059523D01*
X110292380Y-61059523D02*
X110244761Y-60964285D01*
X110244761Y-60964285D02*
X110149523Y-60916666D01*
X110149523Y-60916666D02*
X109911428Y-60916666D01*
X109911428Y-60916666D02*
X109816190Y-60869047D01*
X109339999Y-61297619D02*
X109339999Y-60630952D01*
X109339999Y-60821428D02*
X109292380Y-60726190D01*
X109292380Y-60726190D02*
X109244761Y-60678571D01*
X109244761Y-60678571D02*
X109149523Y-60630952D01*
X109149523Y-60630952D02*
X109054285Y-60630952D01*
X107959046Y-61297619D02*
X107959046Y-60297619D01*
X107959046Y-60297619D02*
X107625713Y-61011904D01*
X107625713Y-61011904D02*
X107292380Y-60297619D01*
X107292380Y-60297619D02*
X107292380Y-61297619D01*
X106435237Y-61250000D02*
X106530475Y-61297619D01*
X106530475Y-61297619D02*
X106720951Y-61297619D01*
X106720951Y-61297619D02*
X106816189Y-61250000D01*
X106816189Y-61250000D02*
X106863808Y-61154761D01*
X106863808Y-61154761D02*
X106863808Y-60773809D01*
X106863808Y-60773809D02*
X106816189Y-60678571D01*
X106816189Y-60678571D02*
X106720951Y-60630952D01*
X106720951Y-60630952D02*
X106530475Y-60630952D01*
X106530475Y-60630952D02*
X106435237Y-60678571D01*
X106435237Y-60678571D02*
X106387618Y-60773809D01*
X106387618Y-60773809D02*
X106387618Y-60869047D01*
X106387618Y-60869047D02*
X106863808Y-60964285D01*
X106101903Y-60630952D02*
X105720951Y-60630952D01*
X105959046Y-60297619D02*
X105959046Y-61154761D01*
X105959046Y-61154761D02*
X105911427Y-61250000D01*
X105911427Y-61250000D02*
X105816189Y-61297619D01*
X105816189Y-61297619D02*
X105720951Y-61297619D01*
X104959046Y-61297619D02*
X104959046Y-60773809D01*
X104959046Y-60773809D02*
X105006665Y-60678571D01*
X105006665Y-60678571D02*
X105101903Y-60630952D01*
X105101903Y-60630952D02*
X105292379Y-60630952D01*
X105292379Y-60630952D02*
X105387617Y-60678571D01*
X104959046Y-61250000D02*
X105054284Y-61297619D01*
X105054284Y-61297619D02*
X105292379Y-61297619D01*
X105292379Y-61297619D02*
X105387617Y-61250000D01*
X105387617Y-61250000D02*
X105435236Y-61154761D01*
X105435236Y-61154761D02*
X105435236Y-61059523D01*
X105435236Y-61059523D02*
X105387617Y-60964285D01*
X105387617Y-60964285D02*
X105292379Y-60916666D01*
X105292379Y-60916666D02*
X105054284Y-60916666D01*
X105054284Y-60916666D02*
X104959046Y-60869047D01*
X104339998Y-61297619D02*
X104435236Y-61250000D01*
X104435236Y-61250000D02*
X104482855Y-61154761D01*
X104482855Y-61154761D02*
X104482855Y-60297619D01*
%TO.C,C10*%
X91367857Y-47267380D02*
X91415476Y-47315000D01*
X91415476Y-47315000D02*
X91558333Y-47362619D01*
X91558333Y-47362619D02*
X91653571Y-47362619D01*
X91653571Y-47362619D02*
X91796428Y-47315000D01*
X91796428Y-47315000D02*
X91891666Y-47219761D01*
X91891666Y-47219761D02*
X91939285Y-47124523D01*
X91939285Y-47124523D02*
X91986904Y-46934047D01*
X91986904Y-46934047D02*
X91986904Y-46791190D01*
X91986904Y-46791190D02*
X91939285Y-46600714D01*
X91939285Y-46600714D02*
X91891666Y-46505476D01*
X91891666Y-46505476D02*
X91796428Y-46410238D01*
X91796428Y-46410238D02*
X91653571Y-46362619D01*
X91653571Y-46362619D02*
X91558333Y-46362619D01*
X91558333Y-46362619D02*
X91415476Y-46410238D01*
X91415476Y-46410238D02*
X91367857Y-46457857D01*
X90415476Y-47362619D02*
X90986904Y-47362619D01*
X90701190Y-47362619D02*
X90701190Y-46362619D01*
X90701190Y-46362619D02*
X90796428Y-46505476D01*
X90796428Y-46505476D02*
X90891666Y-46600714D01*
X90891666Y-46600714D02*
X90986904Y-46648333D01*
X89796428Y-46362619D02*
X89701190Y-46362619D01*
X89701190Y-46362619D02*
X89605952Y-46410238D01*
X89605952Y-46410238D02*
X89558333Y-46457857D01*
X89558333Y-46457857D02*
X89510714Y-46553095D01*
X89510714Y-46553095D02*
X89463095Y-46743571D01*
X89463095Y-46743571D02*
X89463095Y-46981666D01*
X89463095Y-46981666D02*
X89510714Y-47172142D01*
X89510714Y-47172142D02*
X89558333Y-47267380D01*
X89558333Y-47267380D02*
X89605952Y-47315000D01*
X89605952Y-47315000D02*
X89701190Y-47362619D01*
X89701190Y-47362619D02*
X89796428Y-47362619D01*
X89796428Y-47362619D02*
X89891666Y-47315000D01*
X89891666Y-47315000D02*
X89939285Y-47267380D01*
X89939285Y-47267380D02*
X89986904Y-47172142D01*
X89986904Y-47172142D02*
X90034523Y-46981666D01*
X90034523Y-46981666D02*
X90034523Y-46743571D01*
X90034523Y-46743571D02*
X89986904Y-46553095D01*
X89986904Y-46553095D02*
X89939285Y-46457857D01*
X89939285Y-46457857D02*
X89891666Y-46410238D01*
X89891666Y-46410238D02*
X89796428Y-46362619D01*
%TO.C,U1*%
X77261904Y-54962619D02*
X77261904Y-55772142D01*
X77261904Y-55772142D02*
X77214285Y-55867380D01*
X77214285Y-55867380D02*
X77166666Y-55915000D01*
X77166666Y-55915000D02*
X77071428Y-55962619D01*
X77071428Y-55962619D02*
X76880952Y-55962619D01*
X76880952Y-55962619D02*
X76785714Y-55915000D01*
X76785714Y-55915000D02*
X76738095Y-55867380D01*
X76738095Y-55867380D02*
X76690476Y-55772142D01*
X76690476Y-55772142D02*
X76690476Y-54962619D01*
X75690476Y-55962619D02*
X76261904Y-55962619D01*
X75976190Y-55962619D02*
X75976190Y-54962619D01*
X75976190Y-54962619D02*
X76071428Y-55105476D01*
X76071428Y-55105476D02*
X76166666Y-55200714D01*
X76166666Y-55200714D02*
X76261904Y-55248333D01*
%TO.C,C14*%
X84392857Y-56867380D02*
X84440476Y-56915000D01*
X84440476Y-56915000D02*
X84583333Y-56962619D01*
X84583333Y-56962619D02*
X84678571Y-56962619D01*
X84678571Y-56962619D02*
X84821428Y-56915000D01*
X84821428Y-56915000D02*
X84916666Y-56819761D01*
X84916666Y-56819761D02*
X84964285Y-56724523D01*
X84964285Y-56724523D02*
X85011904Y-56534047D01*
X85011904Y-56534047D02*
X85011904Y-56391190D01*
X85011904Y-56391190D02*
X84964285Y-56200714D01*
X84964285Y-56200714D02*
X84916666Y-56105476D01*
X84916666Y-56105476D02*
X84821428Y-56010238D01*
X84821428Y-56010238D02*
X84678571Y-55962619D01*
X84678571Y-55962619D02*
X84583333Y-55962619D01*
X84583333Y-55962619D02*
X84440476Y-56010238D01*
X84440476Y-56010238D02*
X84392857Y-56057857D01*
X83440476Y-56962619D02*
X84011904Y-56962619D01*
X83726190Y-56962619D02*
X83726190Y-55962619D01*
X83726190Y-55962619D02*
X83821428Y-56105476D01*
X83821428Y-56105476D02*
X83916666Y-56200714D01*
X83916666Y-56200714D02*
X84011904Y-56248333D01*
X82583333Y-56295952D02*
X82583333Y-56962619D01*
X82821428Y-55915000D02*
X83059523Y-56629285D01*
X83059523Y-56629285D02*
X82440476Y-56629285D01*
%TO.C,R1*%
X68841666Y-62462619D02*
X69174999Y-61986428D01*
X69413094Y-62462619D02*
X69413094Y-61462619D01*
X69413094Y-61462619D02*
X69032142Y-61462619D01*
X69032142Y-61462619D02*
X68936904Y-61510238D01*
X68936904Y-61510238D02*
X68889285Y-61557857D01*
X68889285Y-61557857D02*
X68841666Y-61653095D01*
X68841666Y-61653095D02*
X68841666Y-61795952D01*
X68841666Y-61795952D02*
X68889285Y-61891190D01*
X68889285Y-61891190D02*
X68936904Y-61938809D01*
X68936904Y-61938809D02*
X69032142Y-61986428D01*
X69032142Y-61986428D02*
X69413094Y-61986428D01*
X67889285Y-62462619D02*
X68460713Y-62462619D01*
X68174999Y-62462619D02*
X68174999Y-61462619D01*
X68174999Y-61462619D02*
X68270237Y-61605476D01*
X68270237Y-61605476D02*
X68365475Y-61700714D01*
X68365475Y-61700714D02*
X68460713Y-61748333D01*
%TO.C,C1*%
X114006980Y-48245733D02*
X114054600Y-48198114D01*
X114054600Y-48198114D02*
X114102219Y-48055257D01*
X114102219Y-48055257D02*
X114102219Y-47960019D01*
X114102219Y-47960019D02*
X114054600Y-47817162D01*
X114054600Y-47817162D02*
X113959361Y-47721924D01*
X113959361Y-47721924D02*
X113864123Y-47674305D01*
X113864123Y-47674305D02*
X113673647Y-47626686D01*
X113673647Y-47626686D02*
X113530790Y-47626686D01*
X113530790Y-47626686D02*
X113340314Y-47674305D01*
X113340314Y-47674305D02*
X113245076Y-47721924D01*
X113245076Y-47721924D02*
X113149838Y-47817162D01*
X113149838Y-47817162D02*
X113102219Y-47960019D01*
X113102219Y-47960019D02*
X113102219Y-48055257D01*
X113102219Y-48055257D02*
X113149838Y-48198114D01*
X113149838Y-48198114D02*
X113197457Y-48245733D01*
X114102219Y-49198114D02*
X114102219Y-48626686D01*
X114102219Y-48912400D02*
X113102219Y-48912400D01*
X113102219Y-48912400D02*
X113245076Y-48817162D01*
X113245076Y-48817162D02*
X113340314Y-48721924D01*
X113340314Y-48721924D02*
X113387933Y-48626686D01*
%TO.C,C9*%
X93716666Y-55647380D02*
X93764285Y-55695000D01*
X93764285Y-55695000D02*
X93907142Y-55742619D01*
X93907142Y-55742619D02*
X94002380Y-55742619D01*
X94002380Y-55742619D02*
X94145237Y-55695000D01*
X94145237Y-55695000D02*
X94240475Y-55599761D01*
X94240475Y-55599761D02*
X94288094Y-55504523D01*
X94288094Y-55504523D02*
X94335713Y-55314047D01*
X94335713Y-55314047D02*
X94335713Y-55171190D01*
X94335713Y-55171190D02*
X94288094Y-54980714D01*
X94288094Y-54980714D02*
X94240475Y-54885476D01*
X94240475Y-54885476D02*
X94145237Y-54790238D01*
X94145237Y-54790238D02*
X94002380Y-54742619D01*
X94002380Y-54742619D02*
X93907142Y-54742619D01*
X93907142Y-54742619D02*
X93764285Y-54790238D01*
X93764285Y-54790238D02*
X93716666Y-54837857D01*
X93240475Y-55742619D02*
X93049999Y-55742619D01*
X93049999Y-55742619D02*
X92954761Y-55695000D01*
X92954761Y-55695000D02*
X92907142Y-55647380D01*
X92907142Y-55647380D02*
X92811904Y-55504523D01*
X92811904Y-55504523D02*
X92764285Y-55314047D01*
X92764285Y-55314047D02*
X92764285Y-54933095D01*
X92764285Y-54933095D02*
X92811904Y-54837857D01*
X92811904Y-54837857D02*
X92859523Y-54790238D01*
X92859523Y-54790238D02*
X92954761Y-54742619D01*
X92954761Y-54742619D02*
X93145237Y-54742619D01*
X93145237Y-54742619D02*
X93240475Y-54790238D01*
X93240475Y-54790238D02*
X93288094Y-54837857D01*
X93288094Y-54837857D02*
X93335713Y-54933095D01*
X93335713Y-54933095D02*
X93335713Y-55171190D01*
X93335713Y-55171190D02*
X93288094Y-55266428D01*
X93288094Y-55266428D02*
X93240475Y-55314047D01*
X93240475Y-55314047D02*
X93145237Y-55361666D01*
X93145237Y-55361666D02*
X92954761Y-55361666D01*
X92954761Y-55361666D02*
X92859523Y-55314047D01*
X92859523Y-55314047D02*
X92811904Y-55266428D01*
X92811904Y-55266428D02*
X92764285Y-55171190D01*
%TO.C,R2*%
X77516666Y-59287619D02*
X77849999Y-58811428D01*
X78088094Y-59287619D02*
X78088094Y-58287619D01*
X78088094Y-58287619D02*
X77707142Y-58287619D01*
X77707142Y-58287619D02*
X77611904Y-58335238D01*
X77611904Y-58335238D02*
X77564285Y-58382857D01*
X77564285Y-58382857D02*
X77516666Y-58478095D01*
X77516666Y-58478095D02*
X77516666Y-58620952D01*
X77516666Y-58620952D02*
X77564285Y-58716190D01*
X77564285Y-58716190D02*
X77611904Y-58763809D01*
X77611904Y-58763809D02*
X77707142Y-58811428D01*
X77707142Y-58811428D02*
X78088094Y-58811428D01*
X77135713Y-58382857D02*
X77088094Y-58335238D01*
X77088094Y-58335238D02*
X76992856Y-58287619D01*
X76992856Y-58287619D02*
X76754761Y-58287619D01*
X76754761Y-58287619D02*
X76659523Y-58335238D01*
X76659523Y-58335238D02*
X76611904Y-58382857D01*
X76611904Y-58382857D02*
X76564285Y-58478095D01*
X76564285Y-58478095D02*
X76564285Y-58573333D01*
X76564285Y-58573333D02*
X76611904Y-58716190D01*
X76611904Y-58716190D02*
X77183332Y-59287619D01*
X77183332Y-59287619D02*
X76564285Y-59287619D01*
%TO.C,J1*%
X77592619Y-60546666D02*
X78306904Y-60546666D01*
X78306904Y-60546666D02*
X78449761Y-60499047D01*
X78449761Y-60499047D02*
X78545000Y-60403809D01*
X78545000Y-60403809D02*
X78592619Y-60260952D01*
X78592619Y-60260952D02*
X78592619Y-60165714D01*
X78592619Y-61546666D02*
X78592619Y-60975238D01*
X78592619Y-61260952D02*
X77592619Y-61260952D01*
X77592619Y-61260952D02*
X77735476Y-61165714D01*
X77735476Y-61165714D02*
X77830714Y-61070476D01*
X77830714Y-61070476D02*
X77878333Y-60975238D01*
%TO.C,FB1*%
X99333333Y-59588809D02*
X99666666Y-59588809D01*
X99666666Y-60112619D02*
X99666666Y-59112619D01*
X99666666Y-59112619D02*
X99190476Y-59112619D01*
X98476190Y-59588809D02*
X98333333Y-59636428D01*
X98333333Y-59636428D02*
X98285714Y-59684047D01*
X98285714Y-59684047D02*
X98238095Y-59779285D01*
X98238095Y-59779285D02*
X98238095Y-59922142D01*
X98238095Y-59922142D02*
X98285714Y-60017380D01*
X98285714Y-60017380D02*
X98333333Y-60065000D01*
X98333333Y-60065000D02*
X98428571Y-60112619D01*
X98428571Y-60112619D02*
X98809523Y-60112619D01*
X98809523Y-60112619D02*
X98809523Y-59112619D01*
X98809523Y-59112619D02*
X98476190Y-59112619D01*
X98476190Y-59112619D02*
X98380952Y-59160238D01*
X98380952Y-59160238D02*
X98333333Y-59207857D01*
X98333333Y-59207857D02*
X98285714Y-59303095D01*
X98285714Y-59303095D02*
X98285714Y-59398333D01*
X98285714Y-59398333D02*
X98333333Y-59493571D01*
X98333333Y-59493571D02*
X98380952Y-59541190D01*
X98380952Y-59541190D02*
X98476190Y-59588809D01*
X98476190Y-59588809D02*
X98809523Y-59588809D01*
X97285714Y-60112619D02*
X97857142Y-60112619D01*
X97571428Y-60112619D02*
X97571428Y-59112619D01*
X97571428Y-59112619D02*
X97666666Y-59255476D01*
X97666666Y-59255476D02*
X97761904Y-59350714D01*
X97761904Y-59350714D02*
X97857142Y-59398333D01*
%TO.C,J2*%
X93862619Y-62791666D02*
X94576904Y-62791666D01*
X94576904Y-62791666D02*
X94719761Y-62744047D01*
X94719761Y-62744047D02*
X94815000Y-62648809D01*
X94815000Y-62648809D02*
X94862619Y-62505952D01*
X94862619Y-62505952D02*
X94862619Y-62410714D01*
X93957857Y-63220238D02*
X93910238Y-63267857D01*
X93910238Y-63267857D02*
X93862619Y-63363095D01*
X93862619Y-63363095D02*
X93862619Y-63601190D01*
X93862619Y-63601190D02*
X93910238Y-63696428D01*
X93910238Y-63696428D02*
X93957857Y-63744047D01*
X93957857Y-63744047D02*
X94053095Y-63791666D01*
X94053095Y-63791666D02*
X94148333Y-63791666D01*
X94148333Y-63791666D02*
X94291190Y-63744047D01*
X94291190Y-63744047D02*
X94862619Y-63172619D01*
X94862619Y-63172619D02*
X94862619Y-63791666D01*
%TO.C,D2*%
X82288094Y-55162619D02*
X82288094Y-54162619D01*
X82288094Y-54162619D02*
X82049999Y-54162619D01*
X82049999Y-54162619D02*
X81907142Y-54210238D01*
X81907142Y-54210238D02*
X81811904Y-54305476D01*
X81811904Y-54305476D02*
X81764285Y-54400714D01*
X81764285Y-54400714D02*
X81716666Y-54591190D01*
X81716666Y-54591190D02*
X81716666Y-54734047D01*
X81716666Y-54734047D02*
X81764285Y-54924523D01*
X81764285Y-54924523D02*
X81811904Y-55019761D01*
X81811904Y-55019761D02*
X81907142Y-55115000D01*
X81907142Y-55115000D02*
X82049999Y-55162619D01*
X82049999Y-55162619D02*
X82288094Y-55162619D01*
X81335713Y-54257857D02*
X81288094Y-54210238D01*
X81288094Y-54210238D02*
X81192856Y-54162619D01*
X81192856Y-54162619D02*
X80954761Y-54162619D01*
X80954761Y-54162619D02*
X80859523Y-54210238D01*
X80859523Y-54210238D02*
X80811904Y-54257857D01*
X80811904Y-54257857D02*
X80764285Y-54353095D01*
X80764285Y-54353095D02*
X80764285Y-54448333D01*
X80764285Y-54448333D02*
X80811904Y-54591190D01*
X80811904Y-54591190D02*
X81383332Y-55162619D01*
X81383332Y-55162619D02*
X80764285Y-55162619D01*
%TO.C,J6*%
X95202619Y-50666666D02*
X95916904Y-50666666D01*
X95916904Y-50666666D02*
X96059761Y-50619047D01*
X96059761Y-50619047D02*
X96155000Y-50523809D01*
X96155000Y-50523809D02*
X96202619Y-50380952D01*
X96202619Y-50380952D02*
X96202619Y-50285714D01*
X95202619Y-51571428D02*
X95202619Y-51380952D01*
X95202619Y-51380952D02*
X95250238Y-51285714D01*
X95250238Y-51285714D02*
X95297857Y-51238095D01*
X95297857Y-51238095D02*
X95440714Y-51142857D01*
X95440714Y-51142857D02*
X95631190Y-51095238D01*
X95631190Y-51095238D02*
X96012142Y-51095238D01*
X96012142Y-51095238D02*
X96107380Y-51142857D01*
X96107380Y-51142857D02*
X96155000Y-51190476D01*
X96155000Y-51190476D02*
X96202619Y-51285714D01*
X96202619Y-51285714D02*
X96202619Y-51476190D01*
X96202619Y-51476190D02*
X96155000Y-51571428D01*
X96155000Y-51571428D02*
X96107380Y-51619047D01*
X96107380Y-51619047D02*
X96012142Y-51666666D01*
X96012142Y-51666666D02*
X95774047Y-51666666D01*
X95774047Y-51666666D02*
X95678809Y-51619047D01*
X95678809Y-51619047D02*
X95631190Y-51571428D01*
X95631190Y-51571428D02*
X95583571Y-51476190D01*
X95583571Y-51476190D02*
X95583571Y-51285714D01*
X95583571Y-51285714D02*
X95631190Y-51190476D01*
X95631190Y-51190476D02*
X95678809Y-51142857D01*
X95678809Y-51142857D02*
X95774047Y-51095238D01*
%TO.C,J5*%
X70662619Y-46991666D02*
X71376904Y-46991666D01*
X71376904Y-46991666D02*
X71519761Y-46944047D01*
X71519761Y-46944047D02*
X71615000Y-46848809D01*
X71615000Y-46848809D02*
X71662619Y-46705952D01*
X71662619Y-46705952D02*
X71662619Y-46610714D01*
X70662619Y-47944047D02*
X70662619Y-47467857D01*
X70662619Y-47467857D02*
X71138809Y-47420238D01*
X71138809Y-47420238D02*
X71091190Y-47467857D01*
X71091190Y-47467857D02*
X71043571Y-47563095D01*
X71043571Y-47563095D02*
X71043571Y-47801190D01*
X71043571Y-47801190D02*
X71091190Y-47896428D01*
X71091190Y-47896428D02*
X71138809Y-47944047D01*
X71138809Y-47944047D02*
X71234047Y-47991666D01*
X71234047Y-47991666D02*
X71472142Y-47991666D01*
X71472142Y-47991666D02*
X71567380Y-47944047D01*
X71567380Y-47944047D02*
X71615000Y-47896428D01*
X71615000Y-47896428D02*
X71662619Y-47801190D01*
X71662619Y-47801190D02*
X71662619Y-47563095D01*
X71662619Y-47563095D02*
X71615000Y-47467857D01*
X71615000Y-47467857D02*
X71567380Y-47420238D01*
%TO.C,C11*%
X90467857Y-49692380D02*
X90515476Y-49740000D01*
X90515476Y-49740000D02*
X90658333Y-49787619D01*
X90658333Y-49787619D02*
X90753571Y-49787619D01*
X90753571Y-49787619D02*
X90896428Y-49740000D01*
X90896428Y-49740000D02*
X90991666Y-49644761D01*
X90991666Y-49644761D02*
X91039285Y-49549523D01*
X91039285Y-49549523D02*
X91086904Y-49359047D01*
X91086904Y-49359047D02*
X91086904Y-49216190D01*
X91086904Y-49216190D02*
X91039285Y-49025714D01*
X91039285Y-49025714D02*
X90991666Y-48930476D01*
X90991666Y-48930476D02*
X90896428Y-48835238D01*
X90896428Y-48835238D02*
X90753571Y-48787619D01*
X90753571Y-48787619D02*
X90658333Y-48787619D01*
X90658333Y-48787619D02*
X90515476Y-48835238D01*
X90515476Y-48835238D02*
X90467857Y-48882857D01*
X89515476Y-49787619D02*
X90086904Y-49787619D01*
X89801190Y-49787619D02*
X89801190Y-48787619D01*
X89801190Y-48787619D02*
X89896428Y-48930476D01*
X89896428Y-48930476D02*
X89991666Y-49025714D01*
X89991666Y-49025714D02*
X90086904Y-49073333D01*
X88563095Y-49787619D02*
X89134523Y-49787619D01*
X88848809Y-49787619D02*
X88848809Y-48787619D01*
X88848809Y-48787619D02*
X88944047Y-48930476D01*
X88944047Y-48930476D02*
X89039285Y-49025714D01*
X89039285Y-49025714D02*
X89134523Y-49073333D01*
%TO.C,R9*%
X71591666Y-61062619D02*
X71924999Y-60586428D01*
X72163094Y-61062619D02*
X72163094Y-60062619D01*
X72163094Y-60062619D02*
X71782142Y-60062619D01*
X71782142Y-60062619D02*
X71686904Y-60110238D01*
X71686904Y-60110238D02*
X71639285Y-60157857D01*
X71639285Y-60157857D02*
X71591666Y-60253095D01*
X71591666Y-60253095D02*
X71591666Y-60395952D01*
X71591666Y-60395952D02*
X71639285Y-60491190D01*
X71639285Y-60491190D02*
X71686904Y-60538809D01*
X71686904Y-60538809D02*
X71782142Y-60586428D01*
X71782142Y-60586428D02*
X72163094Y-60586428D01*
X71115475Y-61062619D02*
X70924999Y-61062619D01*
X70924999Y-61062619D02*
X70829761Y-61015000D01*
X70829761Y-61015000D02*
X70782142Y-60967380D01*
X70782142Y-60967380D02*
X70686904Y-60824523D01*
X70686904Y-60824523D02*
X70639285Y-60634047D01*
X70639285Y-60634047D02*
X70639285Y-60253095D01*
X70639285Y-60253095D02*
X70686904Y-60157857D01*
X70686904Y-60157857D02*
X70734523Y-60110238D01*
X70734523Y-60110238D02*
X70829761Y-60062619D01*
X70829761Y-60062619D02*
X71020237Y-60062619D01*
X71020237Y-60062619D02*
X71115475Y-60110238D01*
X71115475Y-60110238D02*
X71163094Y-60157857D01*
X71163094Y-60157857D02*
X71210713Y-60253095D01*
X71210713Y-60253095D02*
X71210713Y-60491190D01*
X71210713Y-60491190D02*
X71163094Y-60586428D01*
X71163094Y-60586428D02*
X71115475Y-60634047D01*
X71115475Y-60634047D02*
X71020237Y-60681666D01*
X71020237Y-60681666D02*
X70829761Y-60681666D01*
X70829761Y-60681666D02*
X70734523Y-60634047D01*
X70734523Y-60634047D02*
X70686904Y-60586428D01*
X70686904Y-60586428D02*
X70639285Y-60491190D01*
%TO.C,C8*%
X91807380Y-61098133D02*
X91855000Y-61050514D01*
X91855000Y-61050514D02*
X91902619Y-60907657D01*
X91902619Y-60907657D02*
X91902619Y-60812419D01*
X91902619Y-60812419D02*
X91855000Y-60669562D01*
X91855000Y-60669562D02*
X91759761Y-60574324D01*
X91759761Y-60574324D02*
X91664523Y-60526705D01*
X91664523Y-60526705D02*
X91474047Y-60479086D01*
X91474047Y-60479086D02*
X91331190Y-60479086D01*
X91331190Y-60479086D02*
X91140714Y-60526705D01*
X91140714Y-60526705D02*
X91045476Y-60574324D01*
X91045476Y-60574324D02*
X90950238Y-60669562D01*
X90950238Y-60669562D02*
X90902619Y-60812419D01*
X90902619Y-60812419D02*
X90902619Y-60907657D01*
X90902619Y-60907657D02*
X90950238Y-61050514D01*
X90950238Y-61050514D02*
X90997857Y-61098133D01*
X91331190Y-61669562D02*
X91283571Y-61574324D01*
X91283571Y-61574324D02*
X91235952Y-61526705D01*
X91235952Y-61526705D02*
X91140714Y-61479086D01*
X91140714Y-61479086D02*
X91093095Y-61479086D01*
X91093095Y-61479086D02*
X90997857Y-61526705D01*
X90997857Y-61526705D02*
X90950238Y-61574324D01*
X90950238Y-61574324D02*
X90902619Y-61669562D01*
X90902619Y-61669562D02*
X90902619Y-61860038D01*
X90902619Y-61860038D02*
X90950238Y-61955276D01*
X90950238Y-61955276D02*
X90997857Y-62002895D01*
X90997857Y-62002895D02*
X91093095Y-62050514D01*
X91093095Y-62050514D02*
X91140714Y-62050514D01*
X91140714Y-62050514D02*
X91235952Y-62002895D01*
X91235952Y-62002895D02*
X91283571Y-61955276D01*
X91283571Y-61955276D02*
X91331190Y-61860038D01*
X91331190Y-61860038D02*
X91331190Y-61669562D01*
X91331190Y-61669562D02*
X91378809Y-61574324D01*
X91378809Y-61574324D02*
X91426428Y-61526705D01*
X91426428Y-61526705D02*
X91521666Y-61479086D01*
X91521666Y-61479086D02*
X91712142Y-61479086D01*
X91712142Y-61479086D02*
X91807380Y-61526705D01*
X91807380Y-61526705D02*
X91855000Y-61574324D01*
X91855000Y-61574324D02*
X91902619Y-61669562D01*
X91902619Y-61669562D02*
X91902619Y-61860038D01*
X91902619Y-61860038D02*
X91855000Y-61955276D01*
X91855000Y-61955276D02*
X91807380Y-62002895D01*
X91807380Y-62002895D02*
X91712142Y-62050514D01*
X91712142Y-62050514D02*
X91521666Y-62050514D01*
X91521666Y-62050514D02*
X91426428Y-62002895D01*
X91426428Y-62002895D02*
X91378809Y-61955276D01*
X91378809Y-61955276D02*
X91331190Y-61860038D01*
%TO.C,C7*%
X92016666Y-58527380D02*
X92064285Y-58575000D01*
X92064285Y-58575000D02*
X92207142Y-58622619D01*
X92207142Y-58622619D02*
X92302380Y-58622619D01*
X92302380Y-58622619D02*
X92445237Y-58575000D01*
X92445237Y-58575000D02*
X92540475Y-58479761D01*
X92540475Y-58479761D02*
X92588094Y-58384523D01*
X92588094Y-58384523D02*
X92635713Y-58194047D01*
X92635713Y-58194047D02*
X92635713Y-58051190D01*
X92635713Y-58051190D02*
X92588094Y-57860714D01*
X92588094Y-57860714D02*
X92540475Y-57765476D01*
X92540475Y-57765476D02*
X92445237Y-57670238D01*
X92445237Y-57670238D02*
X92302380Y-57622619D01*
X92302380Y-57622619D02*
X92207142Y-57622619D01*
X92207142Y-57622619D02*
X92064285Y-57670238D01*
X92064285Y-57670238D02*
X92016666Y-57717857D01*
X91683332Y-57622619D02*
X91016666Y-57622619D01*
X91016666Y-57622619D02*
X91445237Y-58622619D01*
%TO.C,C12*%
X89617380Y-58817142D02*
X89665000Y-58769523D01*
X89665000Y-58769523D02*
X89712619Y-58626666D01*
X89712619Y-58626666D02*
X89712619Y-58531428D01*
X89712619Y-58531428D02*
X89665000Y-58388571D01*
X89665000Y-58388571D02*
X89569761Y-58293333D01*
X89569761Y-58293333D02*
X89474523Y-58245714D01*
X89474523Y-58245714D02*
X89284047Y-58198095D01*
X89284047Y-58198095D02*
X89141190Y-58198095D01*
X89141190Y-58198095D02*
X88950714Y-58245714D01*
X88950714Y-58245714D02*
X88855476Y-58293333D01*
X88855476Y-58293333D02*
X88760238Y-58388571D01*
X88760238Y-58388571D02*
X88712619Y-58531428D01*
X88712619Y-58531428D02*
X88712619Y-58626666D01*
X88712619Y-58626666D02*
X88760238Y-58769523D01*
X88760238Y-58769523D02*
X88807857Y-58817142D01*
X89712619Y-59769523D02*
X89712619Y-59198095D01*
X89712619Y-59483809D02*
X88712619Y-59483809D01*
X88712619Y-59483809D02*
X88855476Y-59388571D01*
X88855476Y-59388571D02*
X88950714Y-59293333D01*
X88950714Y-59293333D02*
X88998333Y-59198095D01*
X88807857Y-60150476D02*
X88760238Y-60198095D01*
X88760238Y-60198095D02*
X88712619Y-60293333D01*
X88712619Y-60293333D02*
X88712619Y-60531428D01*
X88712619Y-60531428D02*
X88760238Y-60626666D01*
X88760238Y-60626666D02*
X88807857Y-60674285D01*
X88807857Y-60674285D02*
X88903095Y-60721904D01*
X88903095Y-60721904D02*
X88998333Y-60721904D01*
X88998333Y-60721904D02*
X89141190Y-60674285D01*
X89141190Y-60674285D02*
X89712619Y-60102857D01*
X89712619Y-60102857D02*
X89712619Y-60721904D01*
%TO.C,C3*%
X73666666Y-55117380D02*
X73714285Y-55165000D01*
X73714285Y-55165000D02*
X73857142Y-55212619D01*
X73857142Y-55212619D02*
X73952380Y-55212619D01*
X73952380Y-55212619D02*
X74095237Y-55165000D01*
X74095237Y-55165000D02*
X74190475Y-55069761D01*
X74190475Y-55069761D02*
X74238094Y-54974523D01*
X74238094Y-54974523D02*
X74285713Y-54784047D01*
X74285713Y-54784047D02*
X74285713Y-54641190D01*
X74285713Y-54641190D02*
X74238094Y-54450714D01*
X74238094Y-54450714D02*
X74190475Y-54355476D01*
X74190475Y-54355476D02*
X74095237Y-54260238D01*
X74095237Y-54260238D02*
X73952380Y-54212619D01*
X73952380Y-54212619D02*
X73857142Y-54212619D01*
X73857142Y-54212619D02*
X73714285Y-54260238D01*
X73714285Y-54260238D02*
X73666666Y-54307857D01*
X73333332Y-54212619D02*
X72714285Y-54212619D01*
X72714285Y-54212619D02*
X73047618Y-54593571D01*
X73047618Y-54593571D02*
X72904761Y-54593571D01*
X72904761Y-54593571D02*
X72809523Y-54641190D01*
X72809523Y-54641190D02*
X72761904Y-54688809D01*
X72761904Y-54688809D02*
X72714285Y-54784047D01*
X72714285Y-54784047D02*
X72714285Y-55022142D01*
X72714285Y-55022142D02*
X72761904Y-55117380D01*
X72761904Y-55117380D02*
X72809523Y-55165000D01*
X72809523Y-55165000D02*
X72904761Y-55212619D01*
X72904761Y-55212619D02*
X73190475Y-55212619D01*
X73190475Y-55212619D02*
X73285713Y-55165000D01*
X73285713Y-55165000D02*
X73333332Y-55117380D01*
%TO.C,R3*%
X108826666Y-53952619D02*
X109159999Y-53476428D01*
X109398094Y-53952619D02*
X109398094Y-52952619D01*
X109398094Y-52952619D02*
X109017142Y-52952619D01*
X109017142Y-52952619D02*
X108921904Y-53000238D01*
X108921904Y-53000238D02*
X108874285Y-53047857D01*
X108874285Y-53047857D02*
X108826666Y-53143095D01*
X108826666Y-53143095D02*
X108826666Y-53285952D01*
X108826666Y-53285952D02*
X108874285Y-53381190D01*
X108874285Y-53381190D02*
X108921904Y-53428809D01*
X108921904Y-53428809D02*
X109017142Y-53476428D01*
X109017142Y-53476428D02*
X109398094Y-53476428D01*
X108493332Y-52952619D02*
X107874285Y-52952619D01*
X107874285Y-52952619D02*
X108207618Y-53333571D01*
X108207618Y-53333571D02*
X108064761Y-53333571D01*
X108064761Y-53333571D02*
X107969523Y-53381190D01*
X107969523Y-53381190D02*
X107921904Y-53428809D01*
X107921904Y-53428809D02*
X107874285Y-53524047D01*
X107874285Y-53524047D02*
X107874285Y-53762142D01*
X107874285Y-53762142D02*
X107921904Y-53857380D01*
X107921904Y-53857380D02*
X107969523Y-53905000D01*
X107969523Y-53905000D02*
X108064761Y-53952619D01*
X108064761Y-53952619D02*
X108350475Y-53952619D01*
X108350475Y-53952619D02*
X108445713Y-53905000D01*
X108445713Y-53905000D02*
X108493332Y-53857380D01*
%TO.C,C4*%
X79567066Y-55078980D02*
X79614685Y-55126600D01*
X79614685Y-55126600D02*
X79757542Y-55174219D01*
X79757542Y-55174219D02*
X79852780Y-55174219D01*
X79852780Y-55174219D02*
X79995637Y-55126600D01*
X79995637Y-55126600D02*
X80090875Y-55031361D01*
X80090875Y-55031361D02*
X80138494Y-54936123D01*
X80138494Y-54936123D02*
X80186113Y-54745647D01*
X80186113Y-54745647D02*
X80186113Y-54602790D01*
X80186113Y-54602790D02*
X80138494Y-54412314D01*
X80138494Y-54412314D02*
X80090875Y-54317076D01*
X80090875Y-54317076D02*
X79995637Y-54221838D01*
X79995637Y-54221838D02*
X79852780Y-54174219D01*
X79852780Y-54174219D02*
X79757542Y-54174219D01*
X79757542Y-54174219D02*
X79614685Y-54221838D01*
X79614685Y-54221838D02*
X79567066Y-54269457D01*
X78709923Y-54507552D02*
X78709923Y-55174219D01*
X78948018Y-54126600D02*
X79186113Y-54840885D01*
X79186113Y-54840885D02*
X78567066Y-54840885D01*
%TO.C,D3*%
X71388094Y-50112619D02*
X71388094Y-49112619D01*
X71388094Y-49112619D02*
X71149999Y-49112619D01*
X71149999Y-49112619D02*
X71007142Y-49160238D01*
X71007142Y-49160238D02*
X70911904Y-49255476D01*
X70911904Y-49255476D02*
X70864285Y-49350714D01*
X70864285Y-49350714D02*
X70816666Y-49541190D01*
X70816666Y-49541190D02*
X70816666Y-49684047D01*
X70816666Y-49684047D02*
X70864285Y-49874523D01*
X70864285Y-49874523D02*
X70911904Y-49969761D01*
X70911904Y-49969761D02*
X71007142Y-50065000D01*
X71007142Y-50065000D02*
X71149999Y-50112619D01*
X71149999Y-50112619D02*
X71388094Y-50112619D01*
X70483332Y-49112619D02*
X69864285Y-49112619D01*
X69864285Y-49112619D02*
X70197618Y-49493571D01*
X70197618Y-49493571D02*
X70054761Y-49493571D01*
X70054761Y-49493571D02*
X69959523Y-49541190D01*
X69959523Y-49541190D02*
X69911904Y-49588809D01*
X69911904Y-49588809D02*
X69864285Y-49684047D01*
X69864285Y-49684047D02*
X69864285Y-49922142D01*
X69864285Y-49922142D02*
X69911904Y-50017380D01*
X69911904Y-50017380D02*
X69959523Y-50065000D01*
X69959523Y-50065000D02*
X70054761Y-50112619D01*
X70054761Y-50112619D02*
X70340475Y-50112619D01*
X70340475Y-50112619D02*
X70435713Y-50065000D01*
X70435713Y-50065000D02*
X70483332Y-50017380D01*
%TO.C,C2*%
X101316666Y-59992380D02*
X101364285Y-60040000D01*
X101364285Y-60040000D02*
X101507142Y-60087619D01*
X101507142Y-60087619D02*
X101602380Y-60087619D01*
X101602380Y-60087619D02*
X101745237Y-60040000D01*
X101745237Y-60040000D02*
X101840475Y-59944761D01*
X101840475Y-59944761D02*
X101888094Y-59849523D01*
X101888094Y-59849523D02*
X101935713Y-59659047D01*
X101935713Y-59659047D02*
X101935713Y-59516190D01*
X101935713Y-59516190D02*
X101888094Y-59325714D01*
X101888094Y-59325714D02*
X101840475Y-59230476D01*
X101840475Y-59230476D02*
X101745237Y-59135238D01*
X101745237Y-59135238D02*
X101602380Y-59087619D01*
X101602380Y-59087619D02*
X101507142Y-59087619D01*
X101507142Y-59087619D02*
X101364285Y-59135238D01*
X101364285Y-59135238D02*
X101316666Y-59182857D01*
X100935713Y-59182857D02*
X100888094Y-59135238D01*
X100888094Y-59135238D02*
X100792856Y-59087619D01*
X100792856Y-59087619D02*
X100554761Y-59087619D01*
X100554761Y-59087619D02*
X100459523Y-59135238D01*
X100459523Y-59135238D02*
X100411904Y-59182857D01*
X100411904Y-59182857D02*
X100364285Y-59278095D01*
X100364285Y-59278095D02*
X100364285Y-59373333D01*
X100364285Y-59373333D02*
X100411904Y-59516190D01*
X100411904Y-59516190D02*
X100983332Y-60087619D01*
X100983332Y-60087619D02*
X100364285Y-60087619D01*
%TO.C,C13*%
X112887380Y-53117142D02*
X112935000Y-53069523D01*
X112935000Y-53069523D02*
X112982619Y-52926666D01*
X112982619Y-52926666D02*
X112982619Y-52831428D01*
X112982619Y-52831428D02*
X112935000Y-52688571D01*
X112935000Y-52688571D02*
X112839761Y-52593333D01*
X112839761Y-52593333D02*
X112744523Y-52545714D01*
X112744523Y-52545714D02*
X112554047Y-52498095D01*
X112554047Y-52498095D02*
X112411190Y-52498095D01*
X112411190Y-52498095D02*
X112220714Y-52545714D01*
X112220714Y-52545714D02*
X112125476Y-52593333D01*
X112125476Y-52593333D02*
X112030238Y-52688571D01*
X112030238Y-52688571D02*
X111982619Y-52831428D01*
X111982619Y-52831428D02*
X111982619Y-52926666D01*
X111982619Y-52926666D02*
X112030238Y-53069523D01*
X112030238Y-53069523D02*
X112077857Y-53117142D01*
X112982619Y-54069523D02*
X112982619Y-53498095D01*
X112982619Y-53783809D02*
X111982619Y-53783809D01*
X111982619Y-53783809D02*
X112125476Y-53688571D01*
X112125476Y-53688571D02*
X112220714Y-53593333D01*
X112220714Y-53593333D02*
X112268333Y-53498095D01*
X111982619Y-54402857D02*
X111982619Y-55021904D01*
X111982619Y-55021904D02*
X112363571Y-54688571D01*
X112363571Y-54688571D02*
X112363571Y-54831428D01*
X112363571Y-54831428D02*
X112411190Y-54926666D01*
X112411190Y-54926666D02*
X112458809Y-54974285D01*
X112458809Y-54974285D02*
X112554047Y-55021904D01*
X112554047Y-55021904D02*
X112792142Y-55021904D01*
X112792142Y-55021904D02*
X112887380Y-54974285D01*
X112887380Y-54974285D02*
X112935000Y-54926666D01*
X112935000Y-54926666D02*
X112982619Y-54831428D01*
X112982619Y-54831428D02*
X112982619Y-54545714D01*
X112982619Y-54545714D02*
X112935000Y-54450476D01*
X112935000Y-54450476D02*
X112887380Y-54402857D01*
D11*
%TO.C,C10*%
X93026620Y-47165000D02*
X93307780Y-47165000D01*
X93026620Y-48185000D02*
X93307780Y-48185000D01*
%TO.C,U1*%
X74840000Y-52500000D02*
X74840000Y-53300000D01*
X74840000Y-52500000D02*
X74840000Y-50700000D01*
X77960000Y-52500000D02*
X77960000Y-53300000D01*
X77960000Y-52500000D02*
X77960000Y-51700000D01*
%TO.C,C14*%
X83208400Y-54267980D02*
X83208400Y-53986820D01*
X84228400Y-54267980D02*
X84228400Y-53986820D01*
%TO.C,R1*%
X68462742Y-62797500D02*
X68937258Y-62797500D01*
X68462742Y-63842500D02*
X68937258Y-63842500D01*
%TO.C,C1*%
X115419600Y-48322620D02*
X115419600Y-48603780D01*
X114399600Y-48322620D02*
X114399600Y-48603780D01*
%TO.C,C9*%
X95819420Y-54670000D02*
X96100580Y-54670000D01*
X95819420Y-55690000D02*
X96100580Y-55690000D01*
%TO.C,R2*%
X75112258Y-59222500D02*
X74637742Y-59222500D01*
X75112258Y-58177500D02*
X74637742Y-58177500D01*
%TO.C,J1*%
X87690000Y-62170000D02*
X87690000Y-64830000D01*
X74930000Y-62170000D02*
X87690000Y-62170000D01*
X74930000Y-62170000D02*
X74930000Y-64830000D01*
X73660000Y-62170000D02*
X72330000Y-62170000D01*
X72330000Y-62170000D02*
X72330000Y-63500000D01*
X74930000Y-64830000D02*
X87690000Y-64830000D01*
%TO.C,FB1*%
X98880580Y-58810000D02*
X98599420Y-58810000D01*
X98880580Y-57790000D02*
X98599420Y-57790000D01*
%TO.C,J2*%
X110550000Y-62170000D02*
X110550000Y-64830000D01*
X97790000Y-62170000D02*
X110550000Y-62170000D01*
X97790000Y-62170000D02*
X97790000Y-64830000D01*
X96520000Y-62170000D02*
X95190000Y-62170000D01*
X95190000Y-62170000D02*
X95190000Y-63500000D01*
X97790000Y-64830000D02*
X110550000Y-64830000D01*
%TO.C,D2*%
X82350000Y-53610000D02*
X82350000Y-50950000D01*
X82350000Y-53610000D02*
X80650000Y-53610000D01*
X80650000Y-53610000D02*
X80650000Y-50950000D01*
%TO.C,G\u002A\u002A\u002A*%
G36*
X105784233Y-58242616D02*
G01*
X105761690Y-58271752D01*
X105725508Y-58295780D01*
X105690237Y-58300189D01*
X105664453Y-58282146D01*
X105649441Y-58259831D01*
X105622713Y-58225311D01*
X105621925Y-58224380D01*
X105617717Y-58220058D01*
X105749858Y-58220058D01*
X105757625Y-58227826D01*
X105765393Y-58220058D01*
X105757625Y-58212291D01*
X105749858Y-58220058D01*
X105617717Y-58220058D01*
X105603331Y-58205281D01*
X105591178Y-58209017D01*
X105575734Y-58238276D01*
X105562186Y-58272193D01*
X105557751Y-58318739D01*
X105577059Y-58357571D01*
X105577822Y-58358503D01*
X105591243Y-58391954D01*
X105575612Y-58419393D01*
X105532795Y-58437456D01*
X105510775Y-58440713D01*
X105473980Y-58434286D01*
X105431803Y-58407851D01*
X105399964Y-58384360D01*
X105374908Y-58370477D01*
X105363917Y-58375218D01*
X105361478Y-58397796D01*
X105355217Y-58424549D01*
X105331758Y-58438506D01*
X105294867Y-58431395D01*
X105248760Y-58404238D01*
X105197652Y-58358058D01*
X105172944Y-58333723D01*
X105141820Y-58313182D01*
X105117153Y-58313850D01*
X105091128Y-58319846D01*
X105040115Y-58322685D01*
X104981350Y-58320527D01*
X104927642Y-58313959D01*
X104891804Y-58303565D01*
X104876892Y-58298550D01*
X104838987Y-58300834D01*
X104781557Y-58318712D01*
X104752667Y-58328722D01*
X104686597Y-58347668D01*
X104628237Y-58359985D01*
X104613864Y-58362395D01*
X104568239Y-58376705D01*
X104549293Y-58398161D01*
X104529494Y-58420709D01*
X104485746Y-58436150D01*
X104476620Y-58438057D01*
X104442978Y-58449367D01*
X104429368Y-58461557D01*
X104419121Y-58469082D01*
X104386851Y-58474403D01*
X104342150Y-58476059D01*
X104294939Y-58474135D01*
X104255134Y-58468715D01*
X104232656Y-58459884D01*
X104229814Y-58457552D01*
X104200233Y-58445627D01*
X104157513Y-58437930D01*
X104153985Y-58437556D01*
X104102090Y-58424454D01*
X104057804Y-58402115D01*
X104048826Y-58395741D01*
X104003642Y-58367259D01*
X103954030Y-58339761D01*
X103949093Y-58337228D01*
X103894794Y-58305422D01*
X103866440Y-58276843D01*
X103860589Y-58245774D01*
X103873799Y-58206499D01*
X103889089Y-58181676D01*
X103923011Y-58136516D01*
X103968494Y-58081558D01*
X104020021Y-58023700D01*
X104046638Y-57994404D01*
X104121746Y-57903348D01*
X104173074Y-57824529D01*
X104202557Y-57754587D01*
X104212132Y-57690161D01*
X104212192Y-57685319D01*
X104215444Y-57652953D01*
X104225627Y-57618972D01*
X104245516Y-57577454D01*
X104277884Y-57522477D01*
X104325506Y-57448116D01*
X104362357Y-57391263D01*
X104417001Y-57304890D01*
X104457567Y-57237738D01*
X104482817Y-57191889D01*
X104491509Y-57169425D01*
X104491498Y-57168946D01*
X104482631Y-57145124D01*
X104462216Y-57111692D01*
X104432649Y-57064131D01*
X104393419Y-56959278D01*
X104384104Y-56847277D01*
X104404954Y-56729793D01*
X104429042Y-56670924D01*
X104466575Y-56627545D01*
X104514292Y-56612662D01*
X104545339Y-56617048D01*
X104588111Y-56629474D01*
X104631239Y-56646049D01*
X104664565Y-56662844D01*
X104677931Y-56675932D01*
X104680053Y-56680872D01*
X104698136Y-56681116D01*
X104700182Y-56680575D01*
X104721577Y-56687644D01*
X104757114Y-56714566D01*
X104808533Y-56762823D01*
X104877574Y-56833897D01*
X104877932Y-56834275D01*
X104921075Y-56862803D01*
X104965224Y-56861607D01*
X105007368Y-56831761D01*
X105044499Y-56774338D01*
X105051200Y-56762483D01*
X105082775Y-56721849D01*
X105128667Y-56673378D01*
X105181963Y-56623349D01*
X105235748Y-56578044D01*
X105283109Y-56543741D01*
X105317130Y-56526720D01*
X105357384Y-56529801D01*
X105391279Y-56560146D01*
X105413793Y-56614983D01*
X105423674Y-56656636D01*
X105502442Y-56603629D01*
X105537713Y-56582065D01*
X105596176Y-56552936D01*
X105646114Y-56535087D01*
X105681732Y-56523465D01*
X105739470Y-56500173D01*
X105808940Y-56469224D01*
X105881907Y-56434145D01*
X105935793Y-56408388D01*
X106017309Y-56373418D01*
X106090494Y-56346507D01*
X106146004Y-56331294D01*
X106187169Y-56321952D01*
X106244394Y-56304144D01*
X106285821Y-56285582D01*
X106315268Y-56269218D01*
X106400959Y-56230726D01*
X106514607Y-56188934D01*
X106654289Y-56144578D01*
X106776765Y-56114097D01*
X106889931Y-56101284D01*
X106999770Y-56107248D01*
X107116952Y-56131692D01*
X107215106Y-56152068D01*
X107357748Y-56159696D01*
X107421295Y-56158174D01*
X107506132Y-56156497D01*
X107599998Y-56154899D01*
X107691754Y-56153586D01*
X107694866Y-56153545D01*
X107801446Y-56151326D01*
X107922491Y-56147453D01*
X108052310Y-56142233D01*
X108185211Y-56135970D01*
X108315506Y-56128969D01*
X108437502Y-56121536D01*
X108545510Y-56113975D01*
X108633839Y-56106592D01*
X108696797Y-56099693D01*
X108725559Y-56095947D01*
X108805770Y-56086404D01*
X108895838Y-56076594D01*
X108981173Y-56068137D01*
X109018632Y-56064516D01*
X109106614Y-56055133D01*
X109191953Y-56045022D01*
X109260486Y-56035820D01*
X109327058Y-56028822D01*
X109404910Y-56025819D01*
X109470211Y-56028357D01*
X109523638Y-56034965D01*
X109619470Y-56050667D01*
X109718840Y-56070793D01*
X109813141Y-56093383D01*
X109893769Y-56116477D01*
X109952121Y-56138116D01*
X110020318Y-56168835D01*
X110115899Y-56210419D01*
X110201170Y-56245818D01*
X110270236Y-56272607D01*
X110317197Y-56288356D01*
X110324808Y-56290555D01*
X110401305Y-56318973D01*
X110493584Y-56361823D01*
X110593917Y-56414829D01*
X110694577Y-56473715D01*
X110787837Y-56534204D01*
X110865969Y-56592021D01*
X110877635Y-56601522D01*
X110942767Y-56656288D01*
X111009416Y-56714791D01*
X111073377Y-56773062D01*
X111130445Y-56827133D01*
X111176415Y-56873035D01*
X111207080Y-56906799D01*
X111218237Y-56924458D01*
X111218258Y-56924765D01*
X111228464Y-56942339D01*
X111253720Y-56975920D01*
X111288783Y-57018516D01*
X111334962Y-57077828D01*
X111416824Y-57219602D01*
X111474902Y-57380252D01*
X111476456Y-57386008D01*
X111490109Y-57440643D01*
X111494903Y-57475871D01*
X111491102Y-57501183D01*
X111478972Y-57526071D01*
X111474403Y-57534348D01*
X111466405Y-57554957D01*
X111463158Y-57580903D01*
X111464773Y-57618511D01*
X111471365Y-57674103D01*
X111483046Y-57754003D01*
X111505124Y-57879204D01*
X111531693Y-57985325D01*
X111563936Y-58073430D01*
X111603878Y-58150150D01*
X111606043Y-58153727D01*
X111637310Y-58206825D01*
X111666805Y-58258896D01*
X111674040Y-58270874D01*
X111704493Y-58313702D01*
X111746652Y-58367012D01*
X111772891Y-58397701D01*
X111793681Y-58422016D01*
X111805374Y-58435236D01*
X111860684Y-58499955D01*
X111915554Y-58567062D01*
X111959641Y-58623973D01*
X111990664Y-58662865D01*
X112047791Y-58727239D01*
X112116080Y-58798761D01*
X112189269Y-58871272D01*
X112261094Y-58938612D01*
X112325294Y-58994621D01*
X112375607Y-59033139D01*
X112383244Y-59038481D01*
X112444117Y-59100051D01*
X112484584Y-59177405D01*
X112499411Y-59260915D01*
X112491431Y-59312594D01*
X112466711Y-59385674D01*
X112428481Y-59470788D01*
X112380033Y-59561783D01*
X112324661Y-59652506D01*
X112265658Y-59736806D01*
X112206317Y-59808529D01*
X112188220Y-59827465D01*
X112165604Y-59845212D01*
X112138564Y-59854634D01*
X112098220Y-59858360D01*
X112035691Y-59859019D01*
X112011845Y-59859192D01*
X111942862Y-59863202D01*
X111889696Y-59874098D01*
X111840665Y-59893973D01*
X111812597Y-59906549D01*
X111780812Y-59916639D01*
X111741955Y-59923691D01*
X111690026Y-59928464D01*
X111619026Y-59931718D01*
X111522956Y-59934213D01*
X111430178Y-59935868D01*
X111357378Y-59935620D01*
X111307351Y-59932261D01*
X111275827Y-59924734D01*
X111258532Y-59911983D01*
X111251195Y-59892951D01*
X111249545Y-59866582D01*
X111249610Y-59864806D01*
X111264243Y-59835073D01*
X111299604Y-59797809D01*
X111348607Y-59757862D01*
X111404169Y-59720080D01*
X111459205Y-59689313D01*
X111506631Y-59670410D01*
X111539362Y-59668218D01*
X111557276Y-59668597D01*
X111599125Y-59653988D01*
X111651853Y-59624924D01*
X111708786Y-59586101D01*
X111763250Y-59542214D01*
X111808570Y-59497961D01*
X111838075Y-59458036D01*
X111850118Y-59422109D01*
X111844970Y-59368523D01*
X111815896Y-59319875D01*
X111766938Y-59282028D01*
X111702135Y-59260840D01*
X111679653Y-59256874D01*
X111616050Y-59241497D01*
X111552361Y-59221425D01*
X111498799Y-59200107D01*
X111465576Y-59180990D01*
X111449173Y-59169138D01*
X111426738Y-59160271D01*
X111426491Y-59160266D01*
X111406791Y-59153384D01*
X111365464Y-59135325D01*
X111308412Y-59108764D01*
X111241540Y-59076374D01*
X111216697Y-59064133D01*
X111065208Y-58989706D01*
X110939622Y-58928418D01*
X110840305Y-58880444D01*
X110767622Y-58845960D01*
X110721937Y-58825141D01*
X110703617Y-58818162D01*
X110700974Y-58820207D01*
X110692846Y-58842870D01*
X110685497Y-58882542D01*
X110683134Y-58897352D01*
X110672851Y-58936341D01*
X110661054Y-58956691D01*
X110659791Y-58958182D01*
X110654512Y-58982329D01*
X110650339Y-59030450D01*
X110647320Y-59096708D01*
X110645505Y-59175267D01*
X110644941Y-59260291D01*
X110645677Y-59345945D01*
X110647760Y-59426390D01*
X110651239Y-59495793D01*
X110656163Y-59548315D01*
X110658941Y-59576725D01*
X110660111Y-59648662D01*
X110654598Y-59713785D01*
X110654413Y-59714919D01*
X110644998Y-59759520D01*
X110629997Y-59791581D01*
X110602639Y-59821001D01*
X110556151Y-59857680D01*
X110500289Y-59897441D01*
X110403776Y-59954040D01*
X110302818Y-59995310D01*
X110184187Y-60027282D01*
X110148572Y-60034318D01*
X110042259Y-60047781D01*
X109923398Y-60054182D01*
X109799190Y-60053845D01*
X109676833Y-60047095D01*
X109563525Y-60034256D01*
X109466466Y-60015652D01*
X109392855Y-59991609D01*
X109377176Y-59984904D01*
X109307294Y-59960645D01*
X109236923Y-59943398D01*
X109180112Y-59936781D01*
X109175987Y-59936601D01*
X109135072Y-59924051D01*
X109094669Y-59897809D01*
X109051081Y-59858924D01*
X109087999Y-59827704D01*
X109123188Y-59804511D01*
X109165675Y-59787476D01*
X109175861Y-59784589D01*
X109216628Y-59769178D01*
X109272473Y-59745016D01*
X109334423Y-59715911D01*
X109375375Y-59696371D01*
X109431615Y-59672928D01*
X109483585Y-59657978D01*
X109543062Y-59648462D01*
X109621823Y-59641326D01*
X109704552Y-59633831D01*
X109778128Y-59622991D01*
X109828121Y-59608949D01*
X109858600Y-59590494D01*
X109873630Y-59566418D01*
X109884739Y-59547804D01*
X109915360Y-59527735D01*
X109933517Y-59519879D01*
X109940062Y-59506639D01*
X109938235Y-59503394D01*
X109923293Y-59474054D01*
X109901263Y-59428403D01*
X109875566Y-59373828D01*
X109849623Y-59317717D01*
X109826856Y-59267457D01*
X109810687Y-59230435D01*
X109804537Y-59214038D01*
X109801880Y-59202008D01*
X109787468Y-59166447D01*
X109763847Y-59117360D01*
X109734788Y-59061670D01*
X109704065Y-59006302D01*
X109675450Y-58958180D01*
X109652715Y-58924229D01*
X109639634Y-58911373D01*
X109630474Y-58909459D01*
X109618115Y-58891370D01*
X109618101Y-58890984D01*
X109607006Y-58870153D01*
X109579172Y-58835693D01*
X109540439Y-58794860D01*
X109538754Y-58793196D01*
X109500407Y-58752926D01*
X109473142Y-58719843D01*
X109462763Y-58700965D01*
X109462404Y-58696319D01*
X109455806Y-58665992D01*
X109443107Y-58621333D01*
X109427203Y-58571194D01*
X109410992Y-58524424D01*
X109397371Y-58489872D01*
X109389237Y-58476389D01*
X109381230Y-58480784D01*
X109362446Y-58501414D01*
X109354858Y-58511153D01*
X109340035Y-58518170D01*
X109319165Y-58501459D01*
X109299225Y-58488152D01*
X109270929Y-58485402D01*
X109245825Y-58482556D01*
X109215401Y-58462055D01*
X109205692Y-58452712D01*
X109188024Y-58441352D01*
X109183130Y-58453086D01*
X109180645Y-58467349D01*
X109165702Y-58474737D01*
X109133843Y-58464556D01*
X109081180Y-58436160D01*
X109034034Y-58411986D01*
X108993835Y-58403007D01*
X108946963Y-58407011D01*
X108932733Y-58409596D01*
X108887451Y-58420077D01*
X108857489Y-58430313D01*
X108832396Y-58438500D01*
X108785911Y-58449233D01*
X108729149Y-58459770D01*
X108682610Y-58466630D01*
X108632974Y-58469176D01*
X108587653Y-58462534D01*
X108531566Y-58445626D01*
X108526998Y-58444096D01*
X108450640Y-58422034D01*
X108397746Y-58414212D01*
X108369682Y-58420668D01*
X108367812Y-58441434D01*
X108375579Y-58462076D01*
X108390830Y-58506195D01*
X108408338Y-58559414D01*
X108422965Y-58599949D01*
X108446670Y-58652990D01*
X108468538Y-58689674D01*
X108483804Y-58711131D01*
X108498843Y-58745170D01*
X108493177Y-58763885D01*
X108466893Y-58763275D01*
X108434204Y-58752900D01*
X108466677Y-58797183D01*
X108473308Y-58807089D01*
X108489899Y-58845180D01*
X108501352Y-58899480D01*
X108509426Y-58977398D01*
X108513155Y-59030132D01*
X108514810Y-59075507D01*
X108512102Y-59100549D01*
X108504188Y-59111241D01*
X108490223Y-59113568D01*
X108475528Y-59116007D01*
X108476363Y-59125220D01*
X108478896Y-59127339D01*
X108497762Y-59157205D01*
X108514136Y-59202391D01*
X108523944Y-59249094D01*
X108523108Y-59283514D01*
X108521496Y-59291165D01*
X108522036Y-59330457D01*
X108530793Y-59377949D01*
X108539172Y-59415952D01*
X108537858Y-59449940D01*
X108522054Y-59481856D01*
X108505575Y-59529034D01*
X108505464Y-59599250D01*
X108523706Y-59684248D01*
X108526176Y-59694787D01*
X108521206Y-59716457D01*
X108499482Y-59716283D01*
X108465852Y-59693492D01*
X108446947Y-59678537D01*
X108438882Y-59684265D01*
X108437442Y-59716498D01*
X108436895Y-59731951D01*
X108426870Y-59761041D01*
X108398604Y-59774963D01*
X108373004Y-59786584D01*
X108359766Y-59805529D01*
X108359474Y-59808393D01*
X108346722Y-59835135D01*
X108320928Y-59868254D01*
X108316584Y-59873103D01*
X108292086Y-59907947D01*
X108282090Y-59935973D01*
X108274571Y-59952710D01*
X108238522Y-59979142D01*
X108173921Y-60007978D01*
X108082125Y-60038520D01*
X108038988Y-60049603D01*
X107989190Y-60053867D01*
X107938900Y-60045059D01*
X107921642Y-60040790D01*
X107864346Y-60029020D01*
X107792137Y-60016271D01*
X107714094Y-60003933D01*
X107639298Y-59993398D01*
X107576832Y-59986056D01*
X107535774Y-59983300D01*
X107503605Y-59977641D01*
X107474261Y-59959997D01*
X107463145Y-59951189D01*
X107423660Y-59940196D01*
X107357507Y-59936694D01*
X107298356Y-59933487D01*
X107259039Y-59921089D01*
X107243671Y-59897109D01*
X107248948Y-59859188D01*
X107250988Y-59854233D01*
X107277359Y-59826902D01*
X107319760Y-59805517D01*
X107365474Y-59796878D01*
X107382899Y-59793537D01*
X107407465Y-59774686D01*
X107424507Y-59756485D01*
X107467482Y-59731325D01*
X107522535Y-59710468D01*
X107578586Y-59697856D01*
X107624554Y-59697432D01*
X107673134Y-59697708D01*
X107737903Y-59684075D01*
X107801730Y-59659865D01*
X107851055Y-59629165D01*
X107868622Y-59610500D01*
X107896347Y-59549898D01*
X107902688Y-59469274D01*
X107887824Y-59370245D01*
X107851934Y-59254428D01*
X107795195Y-59123438D01*
X107764446Y-59059231D01*
X107726465Y-58977669D01*
X107692713Y-58902894D01*
X107667999Y-58845419D01*
X107660399Y-58828260D01*
X107629362Y-58771023D01*
X107589330Y-58709097D01*
X107545148Y-58648836D01*
X107501664Y-58596592D01*
X107463726Y-58558719D01*
X107436179Y-58541570D01*
X107416481Y-58525986D01*
X107397234Y-58493489D01*
X107396164Y-58491113D01*
X107377907Y-58466358D01*
X107349411Y-58440057D01*
X107317383Y-58416630D01*
X107288532Y-58400497D01*
X107269565Y-58396078D01*
X107267190Y-58407793D01*
X107268548Y-58419440D01*
X107252118Y-58429783D01*
X107237968Y-58435040D01*
X107236732Y-58460853D01*
X107238284Y-58468656D01*
X107232134Y-58489044D01*
X107209612Y-58488399D01*
X107176433Y-58466213D01*
X107162200Y-58453820D01*
X107150243Y-58449154D01*
X107148023Y-58466213D01*
X107145658Y-58481175D01*
X107130614Y-58491219D01*
X107106983Y-58478866D01*
X107080983Y-58445990D01*
X107055678Y-58414975D01*
X107031028Y-58408815D01*
X107018194Y-58410377D01*
X107008206Y-58393524D01*
X107006703Y-58382229D01*
X106998270Y-58368654D01*
X107307183Y-58368654D01*
X107311142Y-58383178D01*
X107314334Y-58387776D01*
X107328511Y-58398713D01*
X107330636Y-58397701D01*
X107326677Y-58383178D01*
X107323486Y-58378579D01*
X107309308Y-58367642D01*
X107307183Y-58368654D01*
X106998270Y-58368654D01*
X106992905Y-58360019D01*
X106992771Y-58359937D01*
X106984153Y-58365448D01*
X106986720Y-58396142D01*
X106988391Y-58415346D01*
X106981784Y-58460757D01*
X106965264Y-58505804D01*
X106943149Y-58540302D01*
X106919758Y-58554064D01*
X106915615Y-58553799D01*
X106903698Y-58542232D01*
X106906903Y-58508938D01*
X106909401Y-58474831D01*
X106900825Y-58453929D01*
X106894870Y-58451652D01*
X106885937Y-58457477D01*
X106877224Y-58479701D01*
X106867116Y-58523100D01*
X106854000Y-58592447D01*
X106847999Y-58620005D01*
X106846682Y-58623973D01*
X106835392Y-58657990D01*
X106823149Y-58675302D01*
X106816313Y-58679473D01*
X106806249Y-58702943D01*
X106798470Y-58720204D01*
X106775259Y-58723090D01*
X106747215Y-58706309D01*
X106737715Y-58700100D01*
X106730471Y-58711227D01*
X106728335Y-58749031D01*
X106722723Y-58807701D01*
X106706517Y-58839008D01*
X106680110Y-58841583D01*
X106677748Y-58840831D01*
X106657063Y-58849521D01*
X106637625Y-58887663D01*
X106626090Y-58914600D01*
X106608003Y-58938750D01*
X106594057Y-58936860D01*
X106587862Y-58907490D01*
X106583829Y-58896177D01*
X106571408Y-58910839D01*
X106549903Y-58954095D01*
X106548844Y-58956412D01*
X106523218Y-59004273D01*
X106501208Y-59031213D01*
X106485809Y-59034737D01*
X106480011Y-59012352D01*
X106479248Y-59000278D01*
X106470982Y-58989840D01*
X106453142Y-59006179D01*
X106425123Y-59050007D01*
X106386319Y-59122033D01*
X106352981Y-59184233D01*
X106327056Y-59225029D01*
X106307307Y-59244932D01*
X106290729Y-59247898D01*
X106272000Y-59250482D01*
X106254057Y-59273014D01*
X106233396Y-59320755D01*
X106223236Y-59345829D01*
X106200277Y-59385754D01*
X106179302Y-59396344D01*
X106175424Y-59396064D01*
X106154710Y-59411526D01*
X106135870Y-59456877D01*
X106130149Y-59473419D01*
X106110660Y-59510542D01*
X106090650Y-59528535D01*
X106082729Y-59532415D01*
X106057008Y-59557505D01*
X106030656Y-59596168D01*
X106024282Y-59607239D01*
X105996975Y-59645752D01*
X105976910Y-59655590D01*
X105962626Y-59637642D01*
X105956904Y-59636019D01*
X105941665Y-59654195D01*
X105922051Y-59691372D01*
X105898749Y-59738310D01*
X105875694Y-59769516D01*
X105854469Y-59776060D01*
X105831377Y-59760774D01*
X105813815Y-59747595D01*
X105799697Y-59754693D01*
X105780978Y-59786122D01*
X105769234Y-59803707D01*
X105721110Y-59846466D01*
X105650866Y-59886411D01*
X105564868Y-59921207D01*
X105469486Y-59948518D01*
X105371086Y-59966008D01*
X105276035Y-59971342D01*
X105256977Y-59970611D01*
X105202272Y-59966852D01*
X105132635Y-59960732D01*
X105058543Y-59953129D01*
X105026616Y-59949638D01*
X104943580Y-59940841D01*
X104864252Y-59932776D01*
X104802212Y-59926837D01*
X104772341Y-59923453D01*
X104702161Y-59906706D01*
X104660569Y-59879772D01*
X104646861Y-59842268D01*
X104648503Y-59832005D01*
X104665075Y-59797970D01*
X104692755Y-59761018D01*
X104723157Y-59731358D01*
X104747899Y-59719202D01*
X104754179Y-59717982D01*
X104785462Y-59705890D01*
X104833322Y-59683615D01*
X104890219Y-59654582D01*
X104894146Y-59652501D01*
X104959732Y-59619808D01*
X105012297Y-59599935D01*
X105064363Y-59589158D01*
X105128451Y-59583755D01*
X105146771Y-59582719D01*
X105238674Y-59574507D01*
X105307460Y-59560807D01*
X105359851Y-59538975D01*
X105402570Y-59506369D01*
X105442340Y-59460346D01*
X105446098Y-59455291D01*
X105499167Y-59364066D01*
X105542480Y-59250621D01*
X105558726Y-59202243D01*
X105589859Y-59120728D01*
X105626759Y-59032665D01*
X105664488Y-58950211D01*
X105695418Y-58883447D01*
X105724721Y-58814512D01*
X105746390Y-58757180D01*
X105757193Y-58719494D01*
X105760979Y-58702772D01*
X105776881Y-58651998D01*
X105787270Y-58623973D01*
X106790714Y-58623973D01*
X106798482Y-58631740D01*
X106806249Y-58623973D01*
X106798482Y-58616205D01*
X106790714Y-58623973D01*
X105787270Y-58623973D01*
X105800683Y-58587790D01*
X105828818Y-58520075D01*
X105846557Y-58479289D01*
X105872983Y-58413598D01*
X105887262Y-58365343D01*
X105890417Y-58327505D01*
X105883470Y-58293068D01*
X105867445Y-58255012D01*
X105850258Y-58222689D01*
X105829243Y-58200734D01*
X105808750Y-58207601D01*
X105800028Y-58220058D01*
X105784233Y-58242616D01*
G37*
%TO.C,J6*%
X110550000Y-46930000D02*
X110550000Y-49590000D01*
X97790000Y-46930000D02*
X110550000Y-46930000D01*
X97790000Y-46930000D02*
X97790000Y-49590000D01*
X96520000Y-46930000D02*
X95190000Y-46930000D01*
X95190000Y-46930000D02*
X95190000Y-48260000D01*
X97790000Y-49590000D02*
X110550000Y-49590000D01*
%TO.C,J5*%
X87690000Y-46930000D02*
X87690000Y-49590000D01*
X74930000Y-46930000D02*
X87690000Y-46930000D01*
X74930000Y-46930000D02*
X74930000Y-49590000D01*
X73660000Y-46930000D02*
X72330000Y-46930000D01*
X72330000Y-46930000D02*
X72330000Y-48260000D01*
X74930000Y-49590000D02*
X87690000Y-49590000D01*
%TO.C,C11*%
X93011252Y-50275000D02*
X92488748Y-50275000D01*
X93011252Y-48805000D02*
X92488748Y-48805000D01*
%TO.C,R9*%
X73537742Y-59977500D02*
X74012258Y-59977500D01*
X73537742Y-61022500D02*
X74012258Y-61022500D01*
%TO.C,C8*%
X91950000Y-63486420D02*
X91950000Y-63767580D01*
X90930000Y-63486420D02*
X90930000Y-63767580D01*
%TO.C,C7*%
X94410580Y-58540000D02*
X94129420Y-58540000D01*
X94410580Y-57520000D02*
X94129420Y-57520000D01*
%TO.C,C12*%
X89915000Y-62388748D02*
X89915000Y-62911252D01*
X88445000Y-62388748D02*
X88445000Y-62911252D01*
%TO.C,C3*%
X72665000Y-51838748D02*
X72665000Y-52361252D01*
X74135000Y-51838748D02*
X74135000Y-52361252D01*
%TO.C,R3*%
X108897258Y-55442500D02*
X108422742Y-55442500D01*
X108897258Y-54397500D02*
X108422742Y-54397500D01*
%TO.C,C4*%
X80135000Y-51838748D02*
X80135000Y-52361252D01*
X78665000Y-51838748D02*
X78665000Y-52361252D01*
%TO.C,D3*%
X72167500Y-50260000D02*
X69507500Y-50260000D01*
X72167500Y-50260000D02*
X72167500Y-51960000D01*
X72167500Y-51960000D02*
X69507500Y-51960000D01*
%TO.C,C2*%
X102029420Y-57790000D02*
X102310580Y-57790000D01*
X102029420Y-58810000D02*
X102310580Y-58810000D01*
%TO.C,C13*%
X110580000Y-53900580D02*
X110580000Y-53619420D01*
X111600000Y-53900580D02*
X111600000Y-53619420D01*
%TD*%
M02*
