M48
; DRILL file {KiCad 7.0.2} date Fri May 12 00:45:37 2023
; FORMAT={-:-/ absolute / inch / decimal}
; #@! TF.CreationDate,2023-05-12T00:45:37-04:00
; #@! TF.GenerationSoftware,Kicad,Pcbnew,7.0.2
; #@! TF.FileFunction,Plated,1,4,PTH
FMAT,2
INCH
; #@! TA.AperFunction,Plated,PTH,ViaDrill
T1C0.0100
; #@! TA.AperFunction,Plated,PTH,ViaDrill
T2C0.0160
; #@! TA.AperFunction,Plated,PTH,ComponentDrill
T3C0.0197
; #@! TA.AperFunction,Plated,PTH,ComponentDrill
T4C0.0217
; #@! TA.AperFunction,Plated,PTH,ComponentDrill
T5C0.0256
; #@! TA.AperFunction,Plated,PTH,ComponentDrill
T6C0.0394
%
G90
G05
T1
X2.6589Y-1.9
X2.6722Y-2.4929
X2.6732Y-2.5591
X2.7372Y-2.4929
X2.7771Y-1.9
X2.7795Y-2.5551
X2.8962Y-2.2087
X2.9154Y-2.311
X2.9803Y-2.311
X3.2707Y-2.3061
X3.296Y-2.1005
X3.296Y-2.1615
X3.3553Y-2.3553
X3.3912Y-2.1443
X3.3954Y-2.3629
X3.4068Y-2.0207
X3.435Y-2.2331
X3.4965Y-2.2067
X3.511Y-2.5039
X3.5118Y-2.0843
X3.5134Y-2.2264
X3.5347Y-2.2792
X3.5484Y-2.3917
X3.5574Y-2.0159
X3.5681Y-2.0419
X3.5721Y-1.9923
X3.5747Y-1.9664
X3.5797Y-2.3612
X3.5828Y-2.26
X3.5961Y-2.1791
X3.6Y-2.4745
X3.6Y-2.5355
X3.6137Y-1.9503
X3.628Y-2.4124
X3.6291Y-2.2409
X3.6375Y-1.877
X3.6525Y-2.3472
X3.6732Y-2.0265
X3.6809Y-2.2846
X3.6862Y-2.1525
X3.6886Y-2.0488
X3.6985Y-1.877
X3.7071Y-2.3311
X3.7252Y-1.9307
X3.735Y-2.4325
X3.7419Y-2.2846
X3.7474Y-2.1724
X3.751Y-2.1335
X3.7752Y-2.4343
X3.7783Y-2.2815
X3.7992Y-1.9626
X3.8085Y-2.1724
X3.86Y-2.4001
X3.9Y-2.4025
X3.9179Y-2.2953
X3.9256Y-2.3811
X3.9326Y-2.4145
X3.939Y-1.9512
X3.9498Y-2.5492
X3.9644Y-2.4065
X3.9919Y-2.2953
X4.0215Y-2.3337
X4.024Y-2.0272
X4.053Y-2.2953
X4.0677Y-2.4083
X4.0965Y-2.1575
X4.1476Y-1.8474
X4.1496Y-2.5453
X4.163Y-2.0177
X4.163Y-2.114
X4.2016Y-2.0949
X4.2455Y-2.1622
X4.263Y-2.1154
X4.3104Y-2.1622
X4.313Y-2.0705
X4.3504Y-2.315
X4.3736Y-2.086
X4.3736Y-2.147
X4.4244Y-2.402
X4.524Y-1.8411
X4.524Y-1.9749
T2
X2.7374Y-2.2496
X2.8297Y-2.0778
X2.832Y-2.25
X2.8898Y-2.0886
X2.9705Y-2.0221
X3.0453Y-2.0221
X3.126Y-2.0138
X3.126Y-2.0886
T3
X3.189Y-2.4016
X3.248Y-2.4016
X3.2874Y-2.0276
X3.3071Y-2.4016
X3.3465Y-2.0276
X3.3661Y-2.4
X3.4972Y-1.8606
X3.543Y-2.55
X3.652Y-2.556
X3.707Y-2.556
X3.83Y-2.0
X3.9Y-2.0
X3.9583Y-2.1697
X3.97Y-2.0
T5
X4.48Y-2.097
X4.48Y-2.147
X4.48Y-2.197
X4.48Y-2.247
X4.48Y-2.297
X4.48Y-2.347
X4.48Y-2.397
X4.48Y-2.447
X4.48Y-2.497
X4.48Y-2.547
X4.53Y-2.097
X4.53Y-2.147
X4.53Y-2.197
X4.53Y-2.247
X4.53Y-2.297
X4.53Y-2.347
X4.53Y-2.397
X4.53Y-2.447
X4.53Y-2.497
X4.53Y-2.547
T6
X2.9Y-1.9
X2.9Y-2.5
X3.0Y-1.9
X3.0Y-2.5
X3.1Y-1.9
X3.1Y-2.5
X3.2Y-1.9
X3.2Y-2.5
X3.3Y-1.9
X3.3Y-2.5
X3.4Y-1.9
X3.4Y-2.5
X3.8Y-1.9
X3.8Y-2.5
X3.9Y-1.9
X3.9Y-2.5
X4.0Y-1.9
X4.0Y-2.5
X4.1Y-1.9
X4.1Y-2.5
X4.2Y-1.9
X4.2Y-2.5
X4.3Y-1.9
X4.3Y-2.5
T3
G00X2.6916Y-2.0606
M15
G01X2.666Y-2.0606
M16
G05
G00X2.6916Y-2.3362
M15
G01X2.666Y-2.3362
M16
G05
T4
G00X2.7851Y-2.0941
M15
G01X2.7851Y-2.1059
M16
G05
G00X2.7851Y-2.2909
M15
G01X2.7851Y-2.3028
M16
G05
T0
M30
