%TF.GenerationSoftware,KiCad,Pcbnew,7.0.2*%
%TF.CreationDate,2023-05-12T00:45:21-04:00*%
%TF.ProjectId,H503-0.2,48353033-2d30-42e3-922e-6b696361645f,rev?*%
%TF.SameCoordinates,Original*%
%TF.FileFunction,Copper,L1,Top*%
%TF.FilePolarity,Positive*%
%FSLAX46Y46*%
G04 Gerber Fmt 4.6, Leading zero omitted, Abs format (unit mm)*
G04 Created by KiCad (PCBNEW 7.0.2) date 2023-05-12 00:45:21*
%MOMM*%
%LPD*%
G01*
G04 APERTURE LIST*
G04 Aperture macros list*
%AMRoundRect*
0 Rectangle with rounded corners*
0 $1 Rounding radius*
0 $2 $3 $4 $5 $6 $7 $8 $9 X,Y pos of 4 corners*
0 Add a 4 corners polygon primitive as box body*
4,1,4,$2,$3,$4,$5,$6,$7,$8,$9,$2,$3,0*
0 Add four circle primitives for the rounded corners*
1,1,$1+$1,$2,$3*
1,1,$1+$1,$4,$5*
1,1,$1+$1,$6,$7*
1,1,$1+$1,$8,$9*
0 Add four rect primitives between the rounded corners*
20,1,$1+$1,$2,$3,$4,$5,0*
20,1,$1+$1,$4,$5,$6,$7,0*
20,1,$1+$1,$6,$7,$8,$9,0*
20,1,$1+$1,$8,$9,$2,$3,0*%
G04 Aperture macros list end*
%TA.AperFunction,SMDPad,CuDef*%
%ADD10RoundRect,0.200000X0.200000X0.250000X-0.200000X0.250000X-0.200000X-0.250000X0.200000X-0.250000X0*%
%TD*%
%TA.AperFunction,ComponentPad*%
%ADD11C,1.000000*%
%TD*%
%TA.AperFunction,SMDPad,CuDef*%
%ADD12R,1.700000X0.900000*%
%TD*%
%TA.AperFunction,ComponentPad*%
%ADD13R,1.000000X1.000000*%
%TD*%
%TA.AperFunction,ComponentPad*%
%ADD14O,1.000000X1.000000*%
%TD*%
%TA.AperFunction,SMDPad,CuDef*%
%ADD15RoundRect,0.150000X-0.512500X-0.150000X0.512500X-0.150000X0.512500X0.150000X-0.512500X0.150000X0*%
%TD*%
%TA.AperFunction,ComponentPad*%
%ADD16O,1.550000X0.890000*%
%TD*%
%TA.AperFunction,SMDPad,CuDef*%
%ADD17R,1.550000X1.200000*%
%TD*%
%TA.AperFunction,ComponentPad*%
%ADD18O,0.950000X1.250000*%
%TD*%
%TA.AperFunction,SMDPad,CuDef*%
%ADD19R,1.550000X1.500000*%
%TD*%
%TA.AperFunction,SMDPad,CuDef*%
%ADD20R,1.350000X0.400000*%
%TD*%
%TA.AperFunction,SMDPad,CuDef*%
%ADD21RoundRect,0.075000X0.548008X0.441942X0.441942X0.548008X-0.548008X-0.441942X-0.441942X-0.548008X0*%
%TD*%
%TA.AperFunction,SMDPad,CuDef*%
%ADD22RoundRect,0.075000X0.548008X-0.441942X-0.441942X0.548008X-0.548008X0.441942X0.441942X-0.548008X0*%
%TD*%
%TA.AperFunction,SMDPad,CuDef*%
%ADD23RoundRect,0.150000X-0.150000X0.650000X-0.150000X-0.650000X0.150000X-0.650000X0.150000X0.650000X0*%
%TD*%
%TA.AperFunction,SMDPad,CuDef*%
%ADD24R,1.500000X2.600000*%
%TD*%
%TA.AperFunction,ComponentPad*%
%ADD25R,1.700000X1.700000*%
%TD*%
%TA.AperFunction,ComponentPad*%
%ADD26O,1.700000X1.700000*%
%TD*%
%TA.AperFunction,ViaPad*%
%ADD27C,0.508000*%
%TD*%
%TA.AperFunction,ViaPad*%
%ADD28C,0.711200*%
%TD*%
%TA.AperFunction,ViaPad*%
%ADD29C,0.660400*%
%TD*%
%TA.AperFunction,Conductor*%
%ADD30C,0.304800*%
%TD*%
%TA.AperFunction,Conductor*%
%ADD31C,0.152451*%
%TD*%
%TA.AperFunction,Conductor*%
%ADD32C,0.302260*%
%TD*%
%TA.AperFunction,Conductor*%
%ADD33C,0.203200*%
%TD*%
%TA.AperFunction,Conductor*%
%ADD34C,0.279400*%
%TD*%
%TA.AperFunction,Conductor*%
%ADD35C,0.609600*%
%TD*%
G04 APERTURE END LIST*
D10*
%TO.P,X1,1,Tri-State*%
%TO.N,+3.3V*%
X102145000Y-61125000D03*
%TO.P,X1,2,GND*%
%TO.N,GND*%
X102145000Y-59275000D03*
%TO.P,X1,3,OUT*%
%TO.N,/CLK_8*%
X100695000Y-59275000D03*
%TO.P,X1,4,VDD*%
%TO.N,+3.3V*%
X100695000Y-61125000D03*
%TD*%
D11*
%TO.P,TP1,1,1*%
%TO.N,/PH1*%
X100540000Y-55110000D03*
%TD*%
%TO.P,TP3,1,1*%
%TO.N,/I2C2_SCL*%
X83500000Y-51500000D03*
%TD*%
D12*
%TO.P,BOOT1,1,1*%
%TO.N,+3.3V*%
X67900000Y-65000000D03*
%TO.P,BOOT1,2,2*%
%TO.N,/SW1*%
X67900000Y-61600000D03*
%TD*%
D13*
%TO.P,J3,1,Pin_1*%
%TO.N,+3.3V*%
X115062000Y-64693800D03*
D14*
%TO.P,J3,2,Pin_2*%
%TO.N,/SWDIO*%
X113792000Y-64693800D03*
%TO.P,J3,3,Pin_3*%
%TO.N,GND*%
X115062000Y-63423800D03*
%TO.P,J3,4,Pin_4*%
%TO.N,/SWCLK*%
X113792000Y-63423800D03*
%TO.P,J3,5,Pin_5*%
%TO.N,GND*%
X115062000Y-62153800D03*
%TO.P,J3,6,Pin_6*%
%TO.N,unconnected-(J3-Pin_6-Pad6)*%
X113792000Y-62153800D03*
%TO.P,J3,7,Pin_7*%
%TO.N,unconnected-(J3-Pin_7-Pad7)*%
X115062000Y-60883800D03*
%TO.P,J3,8,Pin_8*%
%TO.N,unconnected-(J3-Pin_8-Pad8)*%
X113792000Y-60883800D03*
%TO.P,J3,9,Pin_9*%
%TO.N,unconnected-(J3-Pin_9-Pad9)*%
X115062000Y-59613800D03*
%TO.P,J3,10,Pin_10*%
%TO.N,/nRESET*%
X113792000Y-59613800D03*
%TO.P,J3,11,Pin_11*%
%TO.N,unconnected-(J3-Pin_11-Pad11)*%
X115062000Y-58343800D03*
%TO.P,J3,12,Pin_12*%
%TO.N,/TRACECK*%
X113792000Y-58343800D03*
%TO.P,J3,13,Pin_13*%
%TO.N,unconnected-(J3-Pin_13-Pad13)*%
X115062000Y-57073800D03*
%TO.P,J3,14,Pin_14*%
%TO.N,/TRACED0*%
X113792000Y-57073800D03*
%TO.P,J3,15,Pin_15*%
%TO.N,GND*%
X115062000Y-55803800D03*
%TO.P,J3,16,Pin_16*%
%TO.N,/TRACED1*%
X113792000Y-55803800D03*
%TO.P,J3,17,Pin_17*%
%TO.N,GND*%
X115062000Y-54533800D03*
%TO.P,J3,18,Pin_18*%
%TO.N,/TRACED2*%
X113792000Y-54533800D03*
%TO.P,J3,19,Pin_19*%
%TO.N,GND*%
X115062000Y-53263800D03*
%TO.P,J3,20,Pin_20*%
%TO.N,/TRACED3*%
X113792000Y-53263800D03*
%TD*%
D11*
%TO.P,TP7,1,1*%
%TO.N,/PC13*%
X89992200Y-64770000D03*
%TD*%
%TO.P,TP14,1,1*%
%TO.N,/I3C2_SCL*%
X88830000Y-47260000D03*
%TD*%
D15*
%TO.P,U4,1*%
%TO.N,Net-(J4-D-)*%
X73562500Y-55150000D03*
%TO.P,U4,2*%
%TO.N,GND*%
X73562500Y-56100000D03*
%TO.P,U4,3*%
%TO.N,Net-(J4-D+)*%
X73562500Y-57050000D03*
%TO.P,U4,4*%
%TO.N,/USB_P*%
X75837500Y-57050000D03*
%TO.P,U4,5*%
%TO.N,/VBUS*%
X75837500Y-56100000D03*
%TO.P,U4,6*%
%TO.N,/USB_N*%
X75837500Y-55150000D03*
%TD*%
D11*
%TO.P,TP9,1,1*%
%TO.N,/PC15*%
X94157800Y-64922400D03*
%TD*%
D16*
%TO.P,J4,6,Shield*%
%TO.N,GND*%
X68042000Y-59340000D03*
D17*
X68042000Y-58740000D03*
D18*
X70742000Y-58340000D03*
D19*
X68042000Y-56840000D03*
X68042000Y-54840000D03*
D18*
X70742000Y-53340000D03*
D17*
X68042000Y-52940000D03*
D16*
X68042000Y-52340000D03*
D20*
%TO.P,J4,5,GND*%
X70742000Y-57140000D03*
%TO.P,J4,4,ID*%
%TO.N,Net-(J4-ID)*%
X70742000Y-56490000D03*
%TO.P,J4,3,D+*%
%TO.N,Net-(J4-D+)*%
X70742000Y-55840000D03*
%TO.P,J4,2,D-*%
%TO.N,Net-(J4-D-)*%
X70742000Y-55190000D03*
%TO.P,J4,1,VBUS*%
%TO.N,/VBUS*%
X70742000Y-54540000D03*
%TD*%
D11*
%TO.P,TP6,1,1*%
%TO.N,/I3C2_SDA*%
X84000000Y-61000000D03*
%TD*%
D12*
%TO.P,RESET1,1,1*%
%TO.N,/nRESET*%
X114909600Y-46763200D03*
%TO.P,RESET1,2,2*%
%TO.N,GND*%
X114909600Y-50163200D03*
%TD*%
D11*
%TO.P,TP11,1,1*%
%TO.N,/ADC_INP5*%
X100838000Y-50800000D03*
%TD*%
D21*
%TO.P,U2,64,VDD*%
%TO.N,+3.3V*%
X90078819Y-62544481D03*
%TO.P,U2,63,VSS*%
%TO.N,GND*%
X89725266Y-62190928D03*
%TO.P,U2,62,VCAP*%
%TO.N,Net-(C12-Pad1)*%
X89371713Y-61837375D03*
%TO.P,U2,61,PB8*%
%TO.N,/SW1*%
X89018159Y-61483821D03*
%TO.P,U2,60,BOOT0*%
X88664606Y-61130268D03*
%TO.P,U2,59,PB7*%
%TO.N,/TRACED1*%
X88311052Y-60776714D03*
%TO.P,U2,58,PB6*%
%TO.N,/TRACED0*%
X87957499Y-60423161D03*
%TO.P,U2,57,PB5*%
%TO.N,/TRACECK*%
X87603946Y-60069608D03*
%TO.P,U2,56,PB4*%
%TO.N,/PB4_TXD2*%
X87250392Y-59716054D03*
%TO.P,U2,55,PB3*%
%TO.N,/LED*%
X86896839Y-59362501D03*
%TO.P,U2,54,PD2*%
%TO.N,/TRACED2*%
X86543286Y-59008948D03*
%TO.P,U2,53,PC12*%
%TO.N,/TRACED3*%
X86189732Y-58655394D03*
%TO.P,U2,52,PC11*%
%TO.N,/I3C2_SDA*%
X85836179Y-58301841D03*
%TO.P,U2,51,PC10*%
%TO.N,/PC10*%
X85482625Y-57948287D03*
%TO.P,U2,50,PA15*%
%TO.N,/PA15_RXD2*%
X85129072Y-57594734D03*
%TO.P,U2,49,PA14*%
%TO.N,/SWCLK*%
X84775519Y-57241181D03*
D22*
%TO.P,U2,48,VDD*%
%TO.N,+3.3V*%
X84775519Y-54518819D03*
%TO.P,U2,47,VSS*%
%TO.N,GND*%
X85129072Y-54165266D03*
%TO.P,U2,46,PA13*%
%TO.N,/SWDIO*%
X85482625Y-53811713D03*
%TO.P,U2,45,PA12*%
%TO.N,/USB_P*%
X85836179Y-53458159D03*
%TO.P,U2,44,PA11*%
%TO.N,/USB_N*%
X86189732Y-53104606D03*
%TO.P,U2,43,PA10*%
%TO.N,/PA10_RXD*%
X86543286Y-52751052D03*
%TO.P,U2,42,PA9*%
%TO.N,/PA9_TXD*%
X86896839Y-52397499D03*
%TO.P,U2,41,PA8*%
%TO.N,/PA8*%
X87250392Y-52043946D03*
%TO.P,U2,40,PC9*%
%TO.N,/I2C1_SDA*%
X87603946Y-51690392D03*
%TO.P,U2,39,PC8*%
%TO.N,/I2C1_SCL*%
X87957499Y-51336839D03*
%TO.P,U2,38,PC7*%
%TO.N,/I2C2_SDA*%
X88311052Y-50983286D03*
%TO.P,U2,37,PC6*%
%TO.N,/I2C2_SCL*%
X88664606Y-50629732D03*
%TO.P,U2,36,PB15*%
%TO.N,/SPI2_MOSI*%
X89018159Y-50276179D03*
%TO.P,U2,35,PB14*%
%TO.N,/SPI2_MISO*%
X89371713Y-49922625D03*
%TO.P,U2,34,PB13*%
%TO.N,/SPI2_SCK*%
X89725266Y-49569072D03*
%TO.P,U2,33,PB12*%
%TO.N,/SPI2_NSS*%
X90078819Y-49215519D03*
D21*
%TO.P,U2,32,VDD*%
%TO.N,+3.3V*%
X92801181Y-49215519D03*
%TO.P,U2,31,VSS*%
%TO.N,GND*%
X93154734Y-49569072D03*
%TO.P,U2,30,VCAP*%
%TO.N,Net-(C11-Pad1)*%
X93508287Y-49922625D03*
%TO.P,U2,29,PB10*%
%TO.N,/I3C2_SCL*%
X93861841Y-50276179D03*
%TO.P,U2,28,PB2*%
%TO.N,/PB2*%
X94215394Y-50629732D03*
%TO.P,U2,27,PB1*%
%TO.N,/ADC_INP5*%
X94568948Y-50983286D03*
%TO.P,U2,26,PB0*%
%TO.N,/OPAMP_VINP*%
X94922501Y-51336839D03*
%TO.P,U2,25,PC5*%
%TO.N,/OPAMP_VINM*%
X95276054Y-51690392D03*
%TO.P,U2,24,PC4*%
%TO.N,/ADC_INP4*%
X95629608Y-52043946D03*
%TO.P,U2,23,PA7*%
%TO.N,/OPAMP_VOUT*%
X95983161Y-52397499D03*
%TO.P,U2,22,PA6*%
%TO.N,/ADC_INP3*%
X96336714Y-52751052D03*
%TO.P,U2,21,PA5*%
%TO.N,/DAC_OUT2*%
X96690268Y-53104606D03*
%TO.P,U2,20,PA4*%
%TO.N,/DAC_OUT1*%
X97043821Y-53458159D03*
%TO.P,U2,19,VDD*%
%TO.N,+3.3V*%
X97397375Y-53811713D03*
%TO.P,U2,18,VSS*%
%TO.N,GND*%
X97750928Y-54165266D03*
%TO.P,U2,17,PA3*%
%TO.N,/PA3*%
X98104481Y-54518819D03*
D22*
%TO.P,U2,16,PA2*%
%TO.N,/PA2*%
X98104481Y-57241181D03*
%TO.P,U2,15,PA1*%
%TO.N,/PA1*%
X97750928Y-57594734D03*
%TO.P,U2,14,PA0*%
%TO.N,/PA0*%
X97397375Y-57948287D03*
%TO.P,U2,13,VDDA*%
%TO.N,/VDDA*%
X97043821Y-58301841D03*
%TO.P,U2,12,VSSA*%
%TO.N,GND*%
X96690268Y-58655394D03*
%TO.P,U2,11,PC3*%
%TO.N,/SPI1_MOSI*%
X96336714Y-59008948D03*
%TO.P,U2,10,PC2*%
%TO.N,/SPI1_MISO*%
X95983161Y-59362501D03*
%TO.P,U2,9,PC1*%
%TO.N,/SPI1_NSS*%
X95629608Y-59716054D03*
%TO.P,U2,8,PC0*%
%TO.N,/SPI1_SCK*%
X95276054Y-60069608D03*
%TO.P,U2,7,NRST*%
%TO.N,/nRESET*%
X94922501Y-60423161D03*
%TO.P,U2,6,PH1*%
%TO.N,/PH1*%
X94568948Y-60776714D03*
%TO.P,U2,5,PH0*%
%TO.N,/CLK_8*%
X94215394Y-61130268D03*
%TO.P,U2,4,PC15*%
%TO.N,/PC15*%
X93861841Y-61483821D03*
%TO.P,U2,3,PC14*%
%TO.N,/PC14*%
X93508287Y-61837375D03*
%TO.P,U2,2,PC13*%
%TO.N,/PC13*%
X93154734Y-62190928D03*
%TO.P,U2,1,VBAT*%
%TO.N,+3.3V*%
X92801181Y-62544481D03*
%TD*%
D11*
%TO.P,TP5,1,1*%
%TO.N,/PC10*%
X82500000Y-61000000D03*
%TD*%
%TO.P,TP8,1,1*%
%TO.N,/PC14*%
X92760800Y-64922400D03*
%TD*%
D23*
%TO.P,U3,1,~{CS}*%
%TO.N,/SPI2_NSS*%
X109550000Y-51250000D03*
%TO.P,U3,2,DO(IO1)*%
%TO.N,/SPI2_MISO*%
X108280000Y-51250000D03*
%TO.P,U3,3,IO2*%
%TO.N,/NHOLD*%
X107010000Y-51250000D03*
%TO.P,U3,4,GND*%
%TO.N,GND*%
X105740000Y-51250000D03*
%TO.P,U3,5,DI(IO0)*%
%TO.N,/SPI2_MOSI*%
X105740000Y-58450000D03*
%TO.P,U3,6,CLK*%
%TO.N,/SPI2_SCK*%
X107010000Y-58450000D03*
%TO.P,U3,7,IO3*%
%TO.N,/NHOLD*%
X108280000Y-58450000D03*
%TO.P,U3,8,VCC*%
%TO.N,+3.3V*%
X109550000Y-58450000D03*
%TD*%
D11*
%TO.P,TP12,1,1*%
%TO.N,/PB2*%
X99060000Y-50800000D03*
%TD*%
%TO.P,TP4,1,1*%
%TO.N,/I2C2_SDA*%
X85000000Y-51500000D03*
%TD*%
D24*
%TO.P,D1,1,K*%
%TO.N,GND*%
X67537200Y-48260000D03*
%TO.P,D1,2,A*%
%TO.N,Net-(D1-A)*%
X70537200Y-48260000D03*
%TD*%
D11*
%TO.P,TP13,1,1*%
%TO.N,/PB4_TXD2*%
X85500000Y-60960000D03*
%TD*%
%TO.P,TP2,1,1*%
%TO.N,/ADC_INP4*%
X97282000Y-50800000D03*
%TD*%
%TO.P,TP10,1,1*%
%TO.N,/PA15_RXD2*%
X81000000Y-61000000D03*
%TD*%
D25*
%TO.P,J1,1,Pin_1*%
%TO.N,/PA9_TXD*%
X73660000Y-63500000D03*
D26*
%TO.P,J1,2,Pin_2*%
%TO.N,/PA10_RXD*%
X76200000Y-63500000D03*
%TO.P,J1,3,Pin_3*%
%TO.N,/I2C1_SDA*%
X78740000Y-63500000D03*
%TO.P,J1,4,Pin_4*%
%TO.N,GND*%
X81280000Y-63500000D03*
%TO.P,J1,5,Pin_5*%
%TO.N,/I2C1_SCL*%
X83820000Y-63500000D03*
%TO.P,J1,6,Pin_6*%
%TO.N,/PA2*%
X86360000Y-63500000D03*
%TD*%
D25*
%TO.P,J2,1,Pin_1*%
%TO.N,/PA0*%
X96520000Y-63500000D03*
D26*
%TO.P,J2,2,Pin_2*%
%TO.N,/PA1*%
X99060000Y-63500000D03*
%TO.P,J2,3,Pin_3*%
%TO.N,/SPI1_SCK*%
X101600000Y-63500000D03*
%TO.P,J2,4,Pin_4*%
%TO.N,/SPI1_NSS*%
X104140000Y-63500000D03*
%TO.P,J2,5,Pin_5*%
%TO.N,/SPI1_MOSI*%
X106680000Y-63500000D03*
%TO.P,J2,6,Pin_6*%
%TO.N,/SPI1_MISO*%
X109220000Y-63500000D03*
%TD*%
D25*
%TO.P,J6,1,Pin_1*%
%TO.N,/OPAMP_VINM*%
X96520000Y-48260000D03*
D26*
%TO.P,J6,2,Pin_2*%
%TO.N,/OPAMP_VOUT*%
X99060000Y-48260000D03*
%TO.P,J6,3,Pin_3*%
%TO.N,/OPAMP_VINP*%
X101600000Y-48260000D03*
%TO.P,J6,4,Pin_4*%
%TO.N,/DAC_OUT1*%
X104140000Y-48260000D03*
%TO.P,J6,5,Pin_5*%
%TO.N,+3.3V*%
X106680000Y-48260000D03*
%TO.P,J6,6,Pin_6*%
%TO.N,/PA3*%
X109220000Y-48260000D03*
%TD*%
D25*
%TO.P,J5,1,Pin_1*%
%TO.N,/VINunused*%
X73660000Y-48260000D03*
D26*
%TO.P,J5,2,Pin_2*%
%TO.N,GND*%
X76200000Y-48260000D03*
%TO.P,J5,3,Pin_3*%
%TO.N,/PA8*%
X78740000Y-48260000D03*
%TO.P,J5,4,Pin_4*%
%TO.N,/5VIN*%
X81280000Y-48260000D03*
%TO.P,J5,5,Pin_5*%
%TO.N,/ADC_INP3*%
X83820000Y-48260000D03*
%TO.P,J5,6,Pin_6*%
%TO.N,/DAC_OUT2*%
X86360000Y-48260000D03*
%TD*%
D27*
%TO.N,GND*%
X104050000Y-54800000D03*
X85225000Y-59825000D03*
X105350000Y-46925000D03*
X70600000Y-64900000D03*
X100325000Y-64750000D03*
X105400000Y-64650000D03*
X92150000Y-61275000D03*
X90925000Y-59975000D03*
%TO.N,+3.3V*%
X101395000Y-58300000D03*
%TO.N,/CLK_8*%
X99710000Y-60479601D03*
X94869492Y-61784365D03*
%TO.N,GND*%
X95890000Y-61830000D03*
X102145000Y-59275000D03*
X103320000Y-61170000D03*
%TO.N,+3.3V*%
X100695000Y-61125000D03*
%TO.N,GND*%
X83075000Y-58575000D03*
X89200000Y-52940000D03*
D28*
X75450000Y-51362500D03*
D27*
X93942200Y-47675000D03*
X102945000Y-58300000D03*
X112380000Y-61010000D03*
X102210000Y-51490000D03*
D29*
X71932800Y-57150000D03*
D27*
X67537200Y-48260000D03*
X105740000Y-51250000D03*
X69525000Y-63320000D03*
X111090000Y-52985000D03*
X91340000Y-55350000D03*
X96500000Y-49850000D03*
D29*
X69529800Y-57140000D03*
D27*
X75700000Y-58700000D03*
X83718400Y-53352400D03*
X91787656Y-49536800D03*
X96735000Y-55180000D03*
X95970000Y-57950000D03*
X93495000Y-58030000D03*
X100050000Y-49560000D03*
X91440000Y-64402000D03*
X114909600Y-50163200D03*
D28*
X79400000Y-53050000D03*
D27*
X89180000Y-63600000D03*
D29*
X73400000Y-53050000D03*
D27*
X73562500Y-56100000D03*
%TO.N,/VDDA*%
X95045000Y-58030000D03*
%TO.N,+3.3V*%
X92392200Y-47675000D03*
X83718400Y-54902400D03*
X111090000Y-54535000D03*
D28*
X77350000Y-51362500D03*
D27*
X109485000Y-54920000D03*
D28*
X79400000Y-51150000D03*
D27*
X110500000Y-58800000D03*
X95185000Y-55180000D03*
X67900000Y-65000000D03*
X91440000Y-62852000D03*
X99515000Y-58300000D03*
%TO.N,/nRESET*%
X94160000Y-59210000D03*
X114909600Y-46763200D03*
%TO.N,Net-(D1-A)*%
X70537200Y-48260000D03*
%TO.N,Net-(C11-Pad1)*%
X94620000Y-49040000D03*
%TO.N,Net-(C12-Pad1)*%
X90130000Y-60750000D03*
%TO.N,/SWDIO*%
X86136723Y-54465810D03*
%TO.N,/SWCLK*%
X87250000Y-56720000D03*
%TO.N,/TRACECK*%
X89781777Y-57891777D03*
%TO.N,/TRACED0*%
X91002969Y-57402969D03*
%TO.N,/TRACED1*%
X92180000Y-56919379D03*
%TO.N,/TRACED2*%
X89240432Y-56550199D03*
%TO.N,/TRACED3*%
X88810000Y-56050000D03*
%TO.N,Net-(J4-ID)*%
X74050000Y-58700000D03*
%TO.N,/SPI1_MOSI*%
X99889100Y-61329548D03*
%TO.N,/DAC_OUT2*%
X95275400Y-54190478D03*
%TO.N,/ADC_INP3*%
X93630000Y-54672603D03*
%TO.N,/ADC_INP5*%
X93690000Y-52040000D03*
%TO.N,/PB2*%
X93299418Y-51473700D03*
%TO.N,/SPI2_NSS*%
X90797910Y-49947219D03*
X109550000Y-52590000D03*
%TO.N,/SPI2_SCK*%
X90731438Y-50603763D03*
X106720000Y-53210000D03*
%TO.N,/SPI2_MISO*%
X90358939Y-51203149D03*
X108280000Y-53730000D03*
%TO.N,/SPI2_MOSI*%
X90630703Y-51863444D03*
X105740000Y-53695227D03*
%TO.N,/SW1*%
X67875000Y-63320000D03*
%TO.N,/NHOLD*%
X107835000Y-54920000D03*
%TO.N,/PA0*%
X98045149Y-60961726D03*
%TO.N,/PA1*%
X99060000Y-61024697D03*
%TO.N,/PA2*%
X92773488Y-59618976D03*
%TO.N,/PA8*%
X86533283Y-51326836D03*
%TO.N,/LED*%
X86242740Y-60016600D03*
D29*
%TO.N,/VBUS*%
X71875000Y-52775000D03*
%TD*%
D30*
%TO.N,+3.3V*%
X110150000Y-58450000D02*
X109550000Y-58450000D01*
X110500000Y-58800000D02*
X110150000Y-58450000D01*
D31*
%TO.N,/I2C1_SCL*%
X82170000Y-61850000D02*
X83820000Y-63500000D01*
X80100000Y-60600000D02*
X80100000Y-61300000D01*
X80100000Y-61300000D02*
X80650000Y-61850000D01*
X80650000Y-61850000D02*
X82170000Y-61850000D01*
X84400000Y-56300000D02*
X80100000Y-60600000D01*
X88455579Y-54145545D02*
X86301124Y-56300000D01*
X88455579Y-51834919D02*
X88455579Y-54145545D01*
X87957499Y-51336839D02*
X88455579Y-51834919D01*
X86301124Y-56300000D02*
X84400000Y-56300000D01*
D32*
%TO.N,GND*%
X96705394Y-58655394D02*
X97410000Y-59360000D01*
D31*
%TO.N,/PH1*%
X94568948Y-60776714D02*
X94070869Y-60278635D01*
X92750612Y-60278635D02*
X92290863Y-59818886D01*
X99260452Y-56389548D02*
X100540000Y-55110000D01*
X94070869Y-60278635D02*
X92750612Y-60278635D01*
X93940452Y-56389548D02*
X99260452Y-56389548D01*
X92290863Y-58039137D02*
X93940452Y-56389548D01*
X92290863Y-59818886D02*
X92290863Y-58039137D01*
%TO.N,/CLK_8*%
X94869491Y-61784365D02*
X94215394Y-61130268D01*
X94869492Y-61784365D02*
X94869491Y-61784365D01*
X99710000Y-60260000D02*
X100695000Y-59275000D01*
X99710000Y-60479601D02*
X99710000Y-60260000D01*
%TO.N,+3.3V*%
X102145000Y-61125000D02*
X100695000Y-61125000D01*
D30*
%TO.N,GND*%
X89725266Y-62190928D02*
X89151011Y-62765183D01*
D33*
X92631279Y-50092527D02*
X93154734Y-49569072D01*
D34*
X93942200Y-47675000D02*
X93942200Y-48781606D01*
D33*
X92222963Y-50092527D02*
X92631279Y-50092527D01*
D34*
X96736194Y-55180000D02*
X97750928Y-54165266D01*
D30*
X69529800Y-57140000D02*
X70742000Y-57140000D01*
D32*
X95970000Y-57950000D02*
X96675394Y-58655394D01*
D34*
X83718400Y-53352400D02*
X84316206Y-53352400D01*
X84316206Y-53352400D02*
X85129072Y-54165266D01*
D30*
X89151011Y-63571011D02*
X89180000Y-63600000D01*
X71932800Y-57150000D02*
X71922800Y-57140000D01*
D32*
X89725266Y-62190928D02*
X89180000Y-62736194D01*
D30*
X71922800Y-57140000D02*
X70742000Y-57140000D01*
D34*
X93942200Y-48781606D02*
X93154734Y-49569072D01*
D33*
X91787656Y-49621334D02*
X91787656Y-49657220D01*
D31*
X91787656Y-49536800D02*
X91787656Y-49621334D01*
D33*
X91787656Y-49657220D02*
X92222963Y-50092527D01*
D31*
X96735000Y-55180000D02*
X96736194Y-55180000D01*
D35*
X68042000Y-52340000D02*
X68042000Y-59340000D01*
D30*
X89151011Y-62765183D02*
X89151011Y-63571011D01*
D33*
%TO.N,/VDDA*%
X96180421Y-57442000D02*
X95633000Y-57442000D01*
X95633000Y-57442000D02*
X95045000Y-58030000D01*
X97040262Y-58301841D02*
X96180421Y-57442000D01*
D34*
%TO.N,+3.3V*%
X84391938Y-54902400D02*
X83718400Y-54902400D01*
X95944133Y-54420867D02*
X96798333Y-54420867D01*
X90078819Y-62544481D02*
X90386338Y-62852000D01*
X90386338Y-62852000D02*
X92493662Y-62852000D01*
D30*
X92392200Y-47675000D02*
X92392200Y-48806538D01*
D34*
X92392200Y-48806538D02*
X92801181Y-49215519D01*
X96798333Y-54420867D02*
X97397375Y-53821825D01*
X95185000Y-55180000D02*
X95944133Y-54420867D01*
X92493662Y-62852000D02*
X92801181Y-62544481D01*
X84775519Y-54518819D02*
X84391938Y-54902400D01*
D31*
%TO.N,/PA9_TXD*%
X76810000Y-64690000D02*
X74850000Y-64690000D01*
X86025894Y-55690298D02*
X84147454Y-55690298D01*
X86896839Y-52397499D02*
X87394919Y-52895579D01*
X74850000Y-64690000D02*
X73660000Y-63500000D01*
X87394919Y-52895579D02*
X87394919Y-54321273D01*
X87394919Y-54321273D02*
X86025894Y-55690298D01*
X84147454Y-55690298D02*
X77510000Y-62327752D01*
X77510000Y-62327752D02*
X77510000Y-63990000D01*
X77510000Y-63990000D02*
X76810000Y-64690000D01*
%TO.N,/PA10_RXD*%
X85899621Y-55385447D02*
X84021180Y-55385448D01*
X87041365Y-53249131D02*
X87041365Y-54243703D01*
X84021180Y-55385448D02*
X76263120Y-63143508D01*
X87041365Y-54243703D02*
X85899621Y-55385447D01*
X86543286Y-52751052D02*
X87041365Y-53249131D01*
%TO.N,/nRESET*%
X113015775Y-58837575D02*
X113792000Y-59613800D01*
X113015775Y-48657025D02*
X113015775Y-58837575D01*
X94160000Y-59210000D02*
X94160000Y-59660660D01*
X114909600Y-46763200D02*
X113015775Y-48657025D01*
X94160000Y-59660660D02*
X94922501Y-60423161D01*
D30*
%TO.N,Net-(C11-Pad1)*%
X94620000Y-49040000D02*
X94390912Y-49040000D01*
D32*
X94390912Y-49040000D02*
X93508287Y-49922625D01*
%TO.N,Net-(C12-Pad1)*%
X89371713Y-61837375D02*
X90130000Y-61079088D01*
D30*
X90130000Y-61079088D02*
X90130000Y-60750000D01*
D31*
%TO.N,/SWDIO*%
X86136722Y-54465810D02*
X85482625Y-53811713D01*
X86136723Y-54465810D02*
X86136722Y-54465810D01*
%TO.N,/SWCLK*%
X85296700Y-56720000D02*
X84775519Y-57241181D01*
X87250000Y-56720000D02*
X85296700Y-56720000D01*
%TO.N,/TRACECK*%
X89781777Y-57891777D02*
X87603946Y-60069608D01*
%TO.N,/TRACED0*%
X91002969Y-57402969D02*
X90977691Y-57402969D01*
X90977691Y-57402969D02*
X87957499Y-60423161D01*
%TO.N,/TRACED1*%
X92168387Y-56919379D02*
X88311052Y-60776714D01*
X92180000Y-56919379D02*
X92168387Y-56919379D01*
%TO.N,/TRACED2*%
X89002035Y-56550199D02*
X86543286Y-59008948D01*
X89240432Y-56550199D02*
X89002035Y-56550199D01*
%TO.N,/TRACED3*%
X88810000Y-56050000D02*
X88795126Y-56050000D01*
X88795126Y-56050000D02*
X86189732Y-58655394D01*
%TO.N,Net-(J4-ID)*%
X72491625Y-57916625D02*
X72491625Y-56851210D01*
X73275000Y-58700000D02*
X72491625Y-57916625D01*
X72130415Y-56490000D02*
X70742000Y-56490000D01*
X72491625Y-56851210D02*
X72130415Y-56490000D01*
X74050000Y-58700000D02*
X73275000Y-58700000D01*
%TO.N,/PC13*%
X93292000Y-63680000D02*
X93779949Y-63192051D01*
X93779949Y-63192051D02*
X93779949Y-62816143D01*
X91082200Y-63680000D02*
X93292000Y-63680000D01*
X89992200Y-64770000D02*
X91082200Y-63680000D01*
X93779949Y-62816143D02*
X93154734Y-62190928D01*
%TO.N,/SPI1_SCK*%
X100521375Y-62421375D02*
X101600000Y-63500000D01*
X97473742Y-62421375D02*
X100521375Y-62421375D01*
X95914995Y-60708549D02*
X95914997Y-60862630D01*
X95276054Y-60069608D02*
X95914995Y-60708549D01*
X95914997Y-60862630D02*
X97473742Y-62421375D01*
%TO.N,/SPI1_NSS*%
X100891124Y-62360000D02*
X103000000Y-62360000D01*
X96219846Y-60306292D02*
X96219847Y-60736356D01*
X97600015Y-62116524D02*
X100647649Y-62116525D01*
X103000000Y-62360000D02*
X104140000Y-63500000D01*
X96219847Y-60736356D02*
X97600015Y-62116524D01*
X100647649Y-62116525D02*
X100891124Y-62360000D01*
X95629608Y-59716054D02*
X96219846Y-60306292D01*
%TO.N,/SPI1_MISO*%
X95983161Y-59362501D02*
X96524697Y-59904037D01*
X96524697Y-59904037D02*
X96524697Y-60610082D01*
X107775149Y-62055149D02*
X109220000Y-63500000D01*
X97726288Y-61811673D02*
X100773923Y-61811675D01*
X101017397Y-62055149D02*
X107775149Y-62055149D01*
X100773923Y-61811675D02*
X101017397Y-62055149D01*
X96524697Y-60610082D02*
X97726288Y-61811673D01*
%TO.N,/SPI1_MOSI*%
X96834794Y-59507028D02*
X96336714Y-59008948D01*
X99711826Y-61506822D02*
X97852561Y-61506822D01*
X97852561Y-61506822D02*
X96834794Y-60489055D01*
X96834794Y-60489055D02*
X96834794Y-59507028D01*
X99889100Y-61329548D02*
X99711826Y-61506822D01*
%TO.N,/DAC_OUT1*%
X98101980Y-52400000D02*
X97043821Y-53458159D01*
X100430000Y-52400000D02*
X98101980Y-52400000D01*
X104140000Y-48690000D02*
X100430000Y-52400000D01*
%TO.N,/DAC_OUT2*%
X95460936Y-54004942D02*
X95789932Y-54004942D01*
X95789932Y-54004942D02*
X96690268Y-53104606D01*
X95275400Y-54190478D02*
X95460936Y-54004942D01*
%TO.N,/ADC_INP3*%
X95435275Y-53652491D02*
X96336714Y-52751052D01*
X93630000Y-54672603D02*
X93640483Y-54672603D01*
X94660595Y-53652491D02*
X95435275Y-53652491D01*
X93640483Y-54672603D02*
X94660595Y-53652491D01*
%TO.N,/OPAMP_VOUT*%
X98210000Y-49110000D02*
X98210000Y-51060000D01*
X99060000Y-48260000D02*
X98210000Y-49110000D01*
X98210000Y-51060000D02*
X97500000Y-51770000D01*
X97500000Y-51770000D02*
X96610660Y-51770000D01*
X96610660Y-51770000D02*
X95983161Y-52397499D01*
%TO.N,/ADC_INP4*%
X96723200Y-51358800D02*
X96314754Y-51358800D01*
X97282000Y-50800000D02*
X96723200Y-51358800D01*
X96314754Y-51358800D02*
X95629608Y-52043946D01*
%TO.N,/OPAMP_VINM*%
X95774134Y-51020662D02*
X95774134Y-50769132D01*
X95725432Y-50720430D02*
X95725432Y-49054568D01*
X95276054Y-51690392D02*
X95276054Y-51518742D01*
X95276054Y-51518742D02*
X95774134Y-51020662D01*
X95774134Y-50769132D02*
X95725432Y-50720430D01*
X95725432Y-49054568D02*
X96520000Y-48260000D01*
%TO.N,/OPAMP_VINP*%
X95420581Y-47202169D02*
X95420581Y-50838759D01*
X100370000Y-47030000D02*
X95592750Y-47030000D01*
X95420581Y-50838759D02*
X94922501Y-51336839D01*
X101600000Y-48260000D02*
X100370000Y-47030000D01*
X95592750Y-47030000D02*
X95420581Y-47202169D01*
%TO.N,/ADC_INP5*%
X93690000Y-51862234D02*
X94568948Y-50983286D01*
X93690000Y-52040000D02*
X93690000Y-51862234D01*
%TO.N,/PB2*%
X93371426Y-51473700D02*
X94215394Y-50629732D01*
X93299418Y-51473700D02*
X93371426Y-51473700D01*
%TO.N,/I3C2_SCL*%
X92438321Y-50870000D02*
X88830000Y-47261679D01*
X93268020Y-50870000D02*
X92438321Y-50870000D01*
X93861841Y-50276179D02*
X93268020Y-50870000D01*
%TO.N,/SPI2_NSS*%
X90797910Y-49947219D02*
X90790419Y-49947219D01*
X109550000Y-51250000D02*
X109550000Y-52590000D01*
X90790419Y-49947219D02*
X90078819Y-49235619D01*
%TO.N,/SPI2_SCK*%
X107010000Y-53500000D02*
X107010000Y-58450000D01*
X106720000Y-53210000D02*
X107010000Y-53500000D01*
X90578283Y-50477444D02*
X90267685Y-50166846D01*
X90267685Y-50111491D02*
X89725266Y-49569072D01*
X90605119Y-50477444D02*
X90578283Y-50477444D01*
X90731438Y-50603763D02*
X90605119Y-50477444D01*
X90267685Y-50166846D02*
X90267685Y-50111491D01*
%TO.N,/SPI2_MISO*%
X107927763Y-52777276D02*
X108127575Y-52777276D01*
X107775338Y-52624850D02*
X107775338Y-52624851D01*
X108127575Y-52472425D02*
X107927763Y-52472425D01*
X108280000Y-51250000D02*
X108280000Y-52320000D01*
X108280000Y-52929702D02*
X108280000Y-53730000D01*
X108280000Y-52929701D02*
X108280000Y-52929702D01*
X90358939Y-51203149D02*
X90358939Y-50909851D01*
X90358939Y-50909851D02*
X89371713Y-49922625D01*
X107927763Y-52472338D02*
G75*
G03*
X107775338Y-52624850I37J-152462D01*
G01*
X108127575Y-52472400D02*
G75*
G03*
X108280000Y-52320000I25J152400D01*
G01*
X108280024Y-52929701D02*
G75*
G03*
X108127575Y-52777276I-152424J1D01*
G01*
X107775424Y-52624851D02*
G75*
G03*
X107927763Y-52777276I152376J-49D01*
G01*
%TO.N,/SPI2_MOSI*%
X105344317Y-54827276D02*
X105587575Y-54827276D01*
X90630703Y-51863444D02*
X90336699Y-51863444D01*
X105740000Y-54979701D02*
X105740000Y-54979702D01*
X105587575Y-54522425D02*
X105344317Y-54522425D01*
X90336699Y-51863444D02*
X89876314Y-51403059D01*
X105740000Y-54979702D02*
X105740000Y-58450000D01*
X105191892Y-54674850D02*
X105191892Y-54674851D01*
X105740000Y-53695227D02*
X105740000Y-54370000D01*
X89876314Y-51134334D02*
X89018159Y-50276179D01*
X89876314Y-51403059D02*
X89876314Y-51134334D01*
X105191924Y-54674851D02*
G75*
G03*
X105344317Y-54827276I152376J-49D01*
G01*
X105740024Y-54979701D02*
G75*
G03*
X105587575Y-54827276I-152424J1D01*
G01*
X105587575Y-54522400D02*
G75*
G03*
X105740000Y-54370000I25J152400D01*
G01*
X105344317Y-54522392D02*
G75*
G03*
X105191892Y-54674850I-17J-152408D01*
G01*
%TO.N,/PA15_RXD2*%
X82723806Y-60000000D02*
X82000000Y-60000000D01*
X85129072Y-57594734D02*
X82723806Y-60000000D01*
X82000000Y-60000000D02*
X81000000Y-61000000D01*
%TO.N,/PC10*%
X85482625Y-57948287D02*
X82500000Y-60930912D01*
%TO.N,/PB4_TXD2*%
X85500000Y-60960000D02*
X86006446Y-60960000D01*
X86006446Y-60960000D02*
X87250392Y-59716054D01*
%TO.N,/SW1*%
X87706200Y-63957200D02*
X87706200Y-62795780D01*
X68430400Y-63875400D02*
X71370000Y-63875400D01*
X72489451Y-64994851D02*
X86668549Y-64994851D01*
X67875000Y-63320000D02*
X67875000Y-61625000D01*
X86668549Y-64994851D02*
X87706200Y-63957200D01*
X87706200Y-62088674D02*
X88664606Y-61130268D01*
X67875000Y-63320000D02*
X68430400Y-63875400D01*
X71370000Y-63875400D02*
X72489451Y-64994851D01*
X87706200Y-62795780D02*
X87706200Y-62088674D01*
X87706200Y-62795780D02*
X89018159Y-61483821D01*
%TO.N,/I2C1_SDA*%
X87775596Y-51690392D02*
X88150728Y-52065524D01*
X84273727Y-55995149D02*
X86174851Y-55995149D01*
X78740000Y-61528876D02*
X84273727Y-55995149D01*
X88117602Y-52204048D02*
X87603946Y-51690392D01*
X87603946Y-51690392D02*
X87775596Y-51690392D01*
X88117602Y-54052398D02*
X88117602Y-52204048D01*
X78740000Y-63500000D02*
X78740000Y-61528876D01*
X86174851Y-55995149D02*
X88117602Y-54052398D01*
%TO.N,/NHOLD*%
X107797375Y-54882375D02*
X107797375Y-53604840D01*
X107020000Y-52827465D02*
X107020000Y-51260000D01*
X107835000Y-54920000D02*
X108280000Y-55365000D01*
X107835000Y-54920000D02*
X107797375Y-54882375D01*
X108280000Y-55365000D02*
X108280000Y-58450000D01*
X107797375Y-53604840D02*
X107020000Y-52827465D01*
%TO.N,/PC14*%
X92760800Y-64922400D02*
X94132400Y-63550800D01*
X94132400Y-62461488D02*
X93508287Y-61837375D01*
X94132400Y-63550800D02*
X94132400Y-62461488D01*
%TO.N,/PC15*%
X94157800Y-64922400D02*
X94632399Y-64447801D01*
X94632399Y-62254379D02*
X93861841Y-61483821D01*
X94632399Y-64447801D02*
X94632399Y-62254379D01*
%TO.N,/I2C2_SCL*%
X84915947Y-50084053D02*
X88118927Y-50084053D01*
X88118927Y-50084053D02*
X88664606Y-50629732D01*
X83500000Y-51500000D02*
X84915947Y-50084053D01*
%TO.N,/I2C2_SDA*%
X85000000Y-51500000D02*
X86062394Y-50437606D01*
X87765372Y-50437606D02*
X88311052Y-50983286D01*
X86062394Y-50437606D02*
X87765372Y-50437606D01*
%TO.N,/I3C2_SDA*%
X84000000Y-61000000D02*
X84000000Y-60138020D01*
X84000000Y-60138020D02*
X85836179Y-58301841D01*
%TO.N,/PA0*%
X98045149Y-58596061D02*
X97397375Y-57948287D01*
X98045149Y-60961726D02*
X98045149Y-58596061D01*
%TO.N,/PA1*%
X99060000Y-61024697D02*
X98350000Y-60314697D01*
X98350000Y-58200000D02*
X97750928Y-57600928D01*
X98350000Y-60314697D02*
X98350000Y-58200000D01*
%TO.N,/PA2*%
X95649364Y-56743101D02*
X97606401Y-56743101D01*
X92773488Y-59618976D02*
X95649364Y-56743101D01*
X97606401Y-56743101D02*
X98104481Y-57241181D01*
%TO.N,Net-(J4-D-)*%
X72006291Y-55778400D02*
X71417891Y-55190000D01*
X72618827Y-55778400D02*
X72006291Y-55778400D01*
X71417891Y-55190000D02*
X70742000Y-55190000D01*
X73247227Y-55150000D02*
X72618827Y-55778400D01*
%TO.N,Net-(J4-D+)*%
X72328078Y-56130851D02*
X71860302Y-56130851D01*
X73247227Y-57050000D02*
X72328078Y-56130851D01*
X71569451Y-55840000D02*
X70742000Y-55840000D01*
X71860302Y-56130851D02*
X71569451Y-55840000D01*
%TO.N,/PA3*%
X109220000Y-48260000D02*
X107770000Y-49710000D01*
X104840000Y-49710000D02*
X100031181Y-54518819D01*
X107770000Y-49710000D02*
X104840000Y-49710000D01*
X100031181Y-54518819D02*
X98104481Y-54518819D01*
%TO.N,/PA8*%
X86533283Y-51326836D02*
X86533283Y-51326837D01*
X86533283Y-51326837D02*
X87250392Y-52043946D01*
%TO.N,/USB_N*%
X76587600Y-55150000D02*
X75837500Y-55150000D01*
X80197476Y-55490000D02*
X76927600Y-55490000D01*
X83261927Y-52425549D02*
X80197476Y-55490000D01*
X76927600Y-55490000D02*
X76587600Y-55150000D01*
X86189732Y-53104606D02*
X85510675Y-52425549D01*
X85510675Y-52425549D02*
X83261927Y-52425549D01*
%TO.N,/USB_P*%
X82714302Y-53733296D02*
X82714300Y-53733297D01*
X77407922Y-55794851D02*
X76152773Y-57050000D01*
X85836179Y-53458159D02*
X85108420Y-52730400D01*
X80323750Y-55794850D02*
X77407922Y-55794851D01*
X85108420Y-52730400D02*
X83388200Y-52730400D01*
X82334241Y-53784362D02*
X82334242Y-53784362D01*
X82334242Y-53784362D02*
X81996820Y-54121780D01*
X82498739Y-53784363D02*
X82498738Y-53784363D01*
X81996820Y-54121780D02*
X80323750Y-55794850D01*
X82714300Y-53733297D02*
X82663236Y-53784362D01*
X82714300Y-53568798D02*
X82714301Y-53568799D01*
X83388200Y-52730400D02*
X82714300Y-53404300D01*
X82714251Y-53404251D02*
G75*
G03*
X82714300Y-53568798I82249J-82249D01*
G01*
X82498752Y-53784350D02*
G75*
G03*
X82663236Y-53784362I82248J82250D01*
G01*
X82714254Y-53733248D02*
G75*
G03*
X82714301Y-53568799I-82254J82248D01*
G01*
X82498748Y-53784353D02*
G75*
G03*
X82334242Y-53784363I-82248J-82247D01*
G01*
%TO.N,/LED*%
X86253400Y-60016600D02*
X86242740Y-60016600D01*
X86896839Y-59373161D02*
X86253400Y-60016600D01*
D30*
%TO.N,/VBUS*%
X72550000Y-54540000D02*
X71940000Y-54540000D01*
X74104501Y-54319000D02*
X72771000Y-54319000D01*
X72771000Y-54319000D02*
X72550000Y-54540000D01*
X75414499Y-56100000D02*
X74676000Y-55361501D01*
X71875000Y-52775000D02*
X71875000Y-54475000D01*
X74104501Y-54319000D02*
X74676000Y-54890499D01*
X74676000Y-55361501D02*
X74676000Y-54890499D01*
X71940000Y-54540000D02*
X70742000Y-54540000D01*
%TD*%
%TA.AperFunction,Conductor*%
%TO.N,GND*%
G36*
X84925774Y-56546748D02*
G01*
X84951538Y-56591372D01*
X84942590Y-56642116D01*
X84930619Y-56657716D01*
X84050489Y-57537846D01*
X84012835Y-57594198D01*
X84012834Y-57594200D01*
X84012834Y-57594201D01*
X84006538Y-57625854D01*
X83995145Y-57683125D01*
X84012833Y-57772044D01*
X84050489Y-57828400D01*
X84188300Y-57966210D01*
X84257113Y-58012191D01*
X84255138Y-58015146D01*
X84276640Y-58028190D01*
X84293208Y-58076980D01*
X84274539Y-58125006D01*
X84271163Y-58128610D01*
X82650962Y-59748812D01*
X82604263Y-59770588D01*
X82597698Y-59770875D01*
X82007979Y-59770875D01*
X82004036Y-59770772D01*
X81963354Y-59768639D01*
X81940257Y-59777505D01*
X81928930Y-59780860D01*
X81904726Y-59786005D01*
X81897747Y-59791076D01*
X81880472Y-59800455D01*
X81872421Y-59803545D01*
X81854928Y-59821038D01*
X81845945Y-59828711D01*
X81825921Y-59843260D01*
X81821608Y-59850730D01*
X81809640Y-59866326D01*
X81309554Y-60366412D01*
X81262855Y-60388188D01*
X81238263Y-60386286D01*
X81079276Y-60347100D01*
X80920724Y-60347100D01*
X80920723Y-60347100D01*
X80859543Y-60362179D01*
X80808314Y-60356655D01*
X80772620Y-60319494D01*
X80769164Y-60268083D01*
X80788251Y-60235779D01*
X84472843Y-56551188D01*
X84519543Y-56529412D01*
X84526108Y-56529125D01*
X84877355Y-56529125D01*
X84925774Y-56546748D01*
G37*
%TD.AperFunction*%
%TA.AperFunction,Conductor*%
G36*
X85398772Y-59151307D02*
G01*
X85415860Y-59175712D01*
X85418723Y-59173800D01*
X85427046Y-59186257D01*
X85427047Y-59186258D01*
X85444790Y-59212812D01*
X85464702Y-59242613D01*
X85602513Y-59380423D01*
X85658865Y-59418077D01*
X85658868Y-59418079D01*
X85711040Y-59428456D01*
X85755090Y-59455187D01*
X85770222Y-59487639D01*
X85780600Y-59539811D01*
X85813926Y-59589687D01*
X85818256Y-59596167D01*
X85900146Y-59678056D01*
X85921921Y-59724753D01*
X85913998Y-59765516D01*
X85850932Y-59889291D01*
X85850931Y-59889292D01*
X85850931Y-59889294D01*
X85830768Y-60016600D01*
X85850931Y-60143906D01*
X85905594Y-60251188D01*
X85909449Y-60258752D01*
X85935742Y-60285045D01*
X85957518Y-60331744D01*
X85944182Y-60381515D01*
X85901974Y-60411069D01*
X85850643Y-60406578D01*
X85847490Y-60405017D01*
X85733222Y-60345044D01*
X85733219Y-60345043D01*
X85579276Y-60307100D01*
X85420724Y-60307100D01*
X85266780Y-60345043D01*
X85126384Y-60418729D01*
X85007709Y-60523866D01*
X84917638Y-60654355D01*
X84861416Y-60802601D01*
X84842305Y-60960000D01*
X84861416Y-61117398D01*
X84917638Y-61265644D01*
X84959950Y-61326943D01*
X85007116Y-61395275D01*
X85007709Y-61396133D01*
X85126384Y-61501270D01*
X85126385Y-61501270D01*
X85126387Y-61501272D01*
X85266778Y-61574956D01*
X85420724Y-61612900D01*
X85579276Y-61612900D01*
X85733222Y-61574956D01*
X85873613Y-61501272D01*
X85992292Y-61396132D01*
X86082360Y-61265646D01*
X86111773Y-61188087D01*
X86128939Y-61161537D01*
X86134022Y-61156453D01*
X86134024Y-61156453D01*
X86151518Y-61138958D01*
X86160501Y-61131286D01*
X86180523Y-61116740D01*
X86184835Y-61109269D01*
X86196803Y-61093672D01*
X86716517Y-60573958D01*
X86763215Y-60552183D01*
X86812986Y-60565519D01*
X86830075Y-60589925D01*
X86832937Y-60588014D01*
X86841260Y-60600471D01*
X86841261Y-60600472D01*
X86865982Y-60637470D01*
X86878916Y-60656827D01*
X87016727Y-60794637D01*
X87067923Y-60828846D01*
X87073082Y-60832293D01*
X87125254Y-60842670D01*
X87169304Y-60869401D01*
X87184435Y-60901851D01*
X87194814Y-60954025D01*
X87220289Y-60992151D01*
X87232469Y-61010380D01*
X87370280Y-61148190D01*
X87422781Y-61183271D01*
X87426635Y-61185846D01*
X87478807Y-61196223D01*
X87522857Y-61222954D01*
X87537988Y-61255404D01*
X87548367Y-61307578D01*
X87567788Y-61336644D01*
X87586022Y-61363933D01*
X87723833Y-61501743D01*
X87792646Y-61547724D01*
X87790671Y-61550679D01*
X87812170Y-61563719D01*
X87828742Y-61612508D01*
X87810076Y-61660535D01*
X87806697Y-61664143D01*
X87549824Y-61921016D01*
X87546966Y-61923729D01*
X87516693Y-61950988D01*
X87506631Y-61973586D01*
X87500995Y-61983967D01*
X87487513Y-62004728D01*
X87486164Y-62013248D01*
X87480582Y-62032093D01*
X87477075Y-62039971D01*
X87477075Y-62064708D01*
X87476148Y-62076490D01*
X87473405Y-62093808D01*
X87472277Y-62100933D01*
X87472708Y-62102541D01*
X87474508Y-62109258D01*
X87477075Y-62128755D01*
X87477075Y-62771814D01*
X87476148Y-62783596D01*
X87472277Y-62808039D01*
X87472493Y-62808844D01*
X87474508Y-62816364D01*
X87477075Y-62835861D01*
X87477075Y-63219804D01*
X87459452Y-63268223D01*
X87414828Y-63293987D01*
X87364085Y-63285039D01*
X87330964Y-63245567D01*
X87329665Y-63241670D01*
X87291044Y-63114354D01*
X87284127Y-63101413D01*
X87197916Y-62940122D01*
X87072589Y-62787411D01*
X86919878Y-62662084D01*
X86854259Y-62627010D01*
X86745645Y-62568955D01*
X86556604Y-62511610D01*
X86360000Y-62492247D01*
X86163395Y-62511610D01*
X85974354Y-62568955D01*
X85800121Y-62662084D01*
X85647411Y-62787411D01*
X85522084Y-62940121D01*
X85428955Y-63114354D01*
X85371610Y-63303395D01*
X85352247Y-63499999D01*
X85371610Y-63696604D01*
X85428955Y-63885645D01*
X85501900Y-64022116D01*
X85522084Y-64059878D01*
X85647411Y-64212589D01*
X85800122Y-64337916D01*
X85934343Y-64409658D01*
X85974354Y-64431044D01*
X86163395Y-64488389D01*
X86195749Y-64491575D01*
X86360000Y-64507753D01*
X86556603Y-64488389D01*
X86691388Y-64447502D01*
X86742837Y-64450310D01*
X86780445Y-64485533D01*
X86786613Y-64536690D01*
X86766518Y-64572849D01*
X86595705Y-64743663D01*
X86549006Y-64765439D01*
X86542441Y-64765726D01*
X77240160Y-64765726D01*
X77191741Y-64748103D01*
X77165977Y-64703479D01*
X77174925Y-64652736D01*
X77186896Y-64637135D01*
X77303509Y-64520522D01*
X77666380Y-64157649D01*
X77669223Y-64154952D01*
X77689814Y-64136412D01*
X77699507Y-64127685D01*
X77709571Y-64105079D01*
X77715205Y-64094703D01*
X77728686Y-64073946D01*
X77730035Y-64065427D01*
X77735618Y-64046577D01*
X77739125Y-64038702D01*
X77739125Y-64038700D01*
X77745392Y-64024625D01*
X77781186Y-63987561D01*
X77832431Y-63982176D01*
X77875148Y-64010990D01*
X77880638Y-64019756D01*
X77902081Y-64059874D01*
X77902083Y-64059877D01*
X77902084Y-64059878D01*
X78027411Y-64212589D01*
X78180122Y-64337916D01*
X78314343Y-64409658D01*
X78354354Y-64431044D01*
X78543395Y-64488389D01*
X78578650Y-64491861D01*
X78740000Y-64507753D01*
X78920426Y-64489982D01*
X78936604Y-64488389D01*
X79125645Y-64431044D01*
X79125647Y-64431042D01*
X79125650Y-64431042D01*
X79299878Y-64337916D01*
X79452589Y-64212589D01*
X79577916Y-64059878D01*
X79671042Y-63885650D01*
X79671818Y-63883094D01*
X79728389Y-63696604D01*
X79732451Y-63655364D01*
X79747753Y-63500000D01*
X79735244Y-63372999D01*
X80183037Y-63372999D01*
X80183038Y-63373000D01*
X80796182Y-63373000D01*
X80780000Y-63428111D01*
X80780000Y-63571889D01*
X80796182Y-63627000D01*
X80183038Y-63627000D01*
X80190148Y-63703731D01*
X80246139Y-63900518D01*
X80337338Y-64083670D01*
X80460640Y-64246949D01*
X80611840Y-64384786D01*
X80785795Y-64492494D01*
X80976582Y-64566405D01*
X81152999Y-64599382D01*
X81153000Y-64599382D01*
X81153000Y-63986881D01*
X81244237Y-64000000D01*
X81315763Y-64000000D01*
X81407000Y-63986881D01*
X81407000Y-64599382D01*
X81583417Y-64566405D01*
X81774204Y-64492494D01*
X81948159Y-64384786D01*
X82099359Y-64246949D01*
X82222661Y-64083670D01*
X82313860Y-63900518D01*
X82369851Y-63703731D01*
X82376962Y-63627000D01*
X81763818Y-63627000D01*
X81780000Y-63571889D01*
X81780000Y-63428111D01*
X81763818Y-63373000D01*
X82376962Y-63373000D01*
X82376962Y-63372999D01*
X82369851Y-63296268D01*
X82313860Y-63099481D01*
X82222661Y-62916329D01*
X82099359Y-62753050D01*
X81948159Y-62615213D01*
X81774204Y-62507505D01*
X81583418Y-62433594D01*
X81407000Y-62400616D01*
X81407000Y-63013118D01*
X81315763Y-63000000D01*
X81244237Y-63000000D01*
X81153000Y-63013118D01*
X81153000Y-62400616D01*
X81152999Y-62400616D01*
X80976581Y-62433594D01*
X80785795Y-62507505D01*
X80611840Y-62615213D01*
X80460640Y-62753050D01*
X80337338Y-62916329D01*
X80246139Y-63099481D01*
X80190148Y-63296268D01*
X80183037Y-63372999D01*
X79735244Y-63372999D01*
X79728389Y-63303397D01*
X79728389Y-63303395D01*
X79671044Y-63114354D01*
X79664127Y-63101413D01*
X79577916Y-62940122D01*
X79452589Y-62787411D01*
X79299878Y-62662084D01*
X79125650Y-62568958D01*
X79125649Y-62568957D01*
X79125646Y-62568956D01*
X79022585Y-62537692D01*
X78981367Y-62506772D01*
X78969125Y-62465609D01*
X78969125Y-61654982D01*
X78986748Y-61606563D01*
X78991177Y-61601729D01*
X79742285Y-60850621D01*
X79788983Y-60828846D01*
X79838754Y-60842182D01*
X79868308Y-60884390D01*
X79870875Y-60903886D01*
X79870875Y-61292022D01*
X79870772Y-61295964D01*
X79868639Y-61336644D01*
X79877504Y-61359737D01*
X79880860Y-61371067D01*
X79886006Y-61395275D01*
X79891075Y-61402251D01*
X79900459Y-61419534D01*
X79903546Y-61427578D01*
X79921035Y-61445066D01*
X79928712Y-61454054D01*
X79943260Y-61474077D01*
X79950727Y-61478388D01*
X79966328Y-61490359D01*
X80482332Y-62006363D01*
X80485046Y-62009223D01*
X80505639Y-62032093D01*
X80512315Y-62039507D01*
X80534917Y-62049570D01*
X80545294Y-62055204D01*
X80566054Y-62068686D01*
X80574570Y-62070034D01*
X80593422Y-62075618D01*
X80601298Y-62079125D01*
X80626035Y-62079125D01*
X80637817Y-62080052D01*
X80641581Y-62080648D01*
X80662259Y-62083923D01*
X80670586Y-62081691D01*
X80690081Y-62079125D01*
X82043893Y-62079125D01*
X82092312Y-62096748D01*
X82097157Y-62101188D01*
X82926559Y-62930590D01*
X82948335Y-62977289D01*
X82939728Y-63019362D01*
X82888956Y-63114351D01*
X82831610Y-63303395D01*
X82812247Y-63499999D01*
X82831610Y-63696604D01*
X82888955Y-63885645D01*
X82961900Y-64022116D01*
X82982084Y-64059878D01*
X83107411Y-64212589D01*
X83260122Y-64337916D01*
X83394343Y-64409658D01*
X83434354Y-64431044D01*
X83623395Y-64488389D01*
X83655749Y-64491575D01*
X83820000Y-64507753D01*
X83998976Y-64490125D01*
X84016604Y-64488389D01*
X84205645Y-64431044D01*
X84205647Y-64431042D01*
X84205650Y-64431042D01*
X84379878Y-64337916D01*
X84532589Y-64212589D01*
X84657916Y-64059878D01*
X84751042Y-63885650D01*
X84751818Y-63883094D01*
X84808389Y-63696604D01*
X84812451Y-63655364D01*
X84827753Y-63500000D01*
X84808389Y-63303397D01*
X84808389Y-63303395D01*
X84751044Y-63114354D01*
X84744127Y-63101413D01*
X84657916Y-62940122D01*
X84532589Y-62787411D01*
X84379878Y-62662084D01*
X84314259Y-62627010D01*
X84205645Y-62568955D01*
X84016604Y-62511610D01*
X83836176Y-62493840D01*
X83820000Y-62492247D01*
X83819999Y-62492247D01*
X83623395Y-62511610D01*
X83434351Y-62568956D01*
X83339363Y-62619728D01*
X83288354Y-62627010D01*
X83250591Y-62606559D01*
X82425523Y-61781491D01*
X82403747Y-61734792D01*
X82417083Y-61685021D01*
X82459291Y-61655467D01*
X82478787Y-61652900D01*
X82579276Y-61652900D01*
X82733222Y-61614956D01*
X82873613Y-61541272D01*
X82992292Y-61436132D01*
X83082360Y-61305646D01*
X83138584Y-61157397D01*
X83157695Y-61000000D01*
X83138584Y-60842603D01*
X83093642Y-60724104D01*
X83092951Y-60672583D01*
X83110809Y-60644132D01*
X83639711Y-60115230D01*
X83686409Y-60093455D01*
X83736180Y-60106791D01*
X83765734Y-60148999D01*
X83765736Y-60149005D01*
X83768309Y-60158611D01*
X83770874Y-60178101D01*
X83770875Y-60337357D01*
X83753252Y-60385776D01*
X83730555Y-60404055D01*
X83626387Y-60458727D01*
X83507709Y-60563866D01*
X83417638Y-60694355D01*
X83361416Y-60842601D01*
X83342305Y-61000000D01*
X83361416Y-61157398D01*
X83417638Y-61305644D01*
X83458797Y-61365272D01*
X83490053Y-61410555D01*
X83507709Y-61436133D01*
X83626384Y-61541270D01*
X83626385Y-61541270D01*
X83626387Y-61541272D01*
X83766778Y-61614956D01*
X83920724Y-61652900D01*
X84079276Y-61652900D01*
X84233222Y-61614956D01*
X84373613Y-61541272D01*
X84492292Y-61436132D01*
X84582360Y-61305646D01*
X84638584Y-61157397D01*
X84657695Y-61000000D01*
X84638584Y-60842603D01*
X84612641Y-60774197D01*
X84582361Y-60694355D01*
X84539933Y-60632888D01*
X84492292Y-60563868D01*
X84491314Y-60563002D01*
X84373612Y-60458727D01*
X84269445Y-60404055D01*
X84234762Y-60365949D01*
X84229125Y-60337357D01*
X84229125Y-60264126D01*
X84246748Y-60215707D01*
X84251177Y-60210873D01*
X85302304Y-59159746D01*
X85349001Y-59137971D01*
X85398772Y-59151307D01*
G37*
%TD.AperFunction*%
%TA.AperFunction,Conductor*%
G36*
X98552694Y-47276748D02*
G01*
X98578458Y-47321372D01*
X98569510Y-47372116D01*
X98539785Y-47400883D01*
X98518854Y-47412071D01*
X98500121Y-47422084D01*
X98347411Y-47547411D01*
X98222084Y-47700121D01*
X98128955Y-47874354D01*
X98071610Y-48063395D01*
X98052247Y-48259999D01*
X98071610Y-48456604D01*
X98128955Y-48645645D01*
X98149965Y-48684952D01*
X98178760Y-48738824D01*
X98179728Y-48740634D01*
X98187010Y-48791644D01*
X98166559Y-48829407D01*
X98053624Y-48942342D01*
X98050766Y-48945055D01*
X98020493Y-48972314D01*
X98010431Y-48994912D01*
X98004795Y-49005293D01*
X97991313Y-49026054D01*
X97989964Y-49034574D01*
X97984382Y-49053419D01*
X97980875Y-49061297D01*
X97980875Y-49086034D01*
X97979948Y-49097816D01*
X97979932Y-49097916D01*
X97976077Y-49122259D01*
X97977382Y-49127130D01*
X97978308Y-49130584D01*
X97980875Y-49150081D01*
X97980875Y-50421422D01*
X97963252Y-50469841D01*
X97918628Y-50495605D01*
X97867885Y-50486657D01*
X97843555Y-50464213D01*
X97817295Y-50426169D01*
X97774292Y-50363868D01*
X97774290Y-50363866D01*
X97655615Y-50258729D01*
X97644437Y-50252862D01*
X97515222Y-50185044D01*
X97515219Y-50185043D01*
X97361276Y-50147100D01*
X97202724Y-50147100D01*
X97048780Y-50185043D01*
X96908384Y-50258729D01*
X96789709Y-50363866D01*
X96699638Y-50494355D01*
X96643416Y-50642601D01*
X96624305Y-50800000D01*
X96643416Y-50957398D01*
X96669358Y-51025801D01*
X96670050Y-51077323D01*
X96652205Y-51105762D01*
X96650370Y-51107598D01*
X96603677Y-51129387D01*
X96597091Y-51129675D01*
X96322732Y-51129675D01*
X96318789Y-51129572D01*
X96278109Y-51127439D01*
X96255014Y-51136305D01*
X96243683Y-51139662D01*
X96219478Y-51144807D01*
X96212501Y-51149876D01*
X96195226Y-51159255D01*
X96187175Y-51162345D01*
X96169682Y-51179838D01*
X96160698Y-51187511D01*
X96154202Y-51192231D01*
X96104672Y-51206436D01*
X96057600Y-51185480D01*
X96049391Y-51170429D01*
X96047062Y-51171986D01*
X96038739Y-51159530D01*
X96038739Y-51159528D01*
X96015952Y-51125425D01*
X96003259Y-51083578D01*
X96003259Y-51044627D01*
X96004186Y-51032845D01*
X96004663Y-51029834D01*
X96008057Y-51008403D01*
X96005826Y-51000076D01*
X96003259Y-50980580D01*
X96003259Y-50777109D01*
X96003362Y-50773166D01*
X96005494Y-50732486D01*
X95996628Y-50709391D01*
X95993270Y-50698054D01*
X95988127Y-50673857D01*
X95988127Y-50673856D01*
X95983058Y-50666880D01*
X95973675Y-50649598D01*
X95964850Y-50626607D01*
X95966535Y-50625960D01*
X95954843Y-50600880D01*
X95954557Y-50594322D01*
X95954557Y-49338226D01*
X95972180Y-49289807D01*
X96016804Y-49264043D01*
X96029884Y-49262899D01*
X97385055Y-49262899D01*
X97385056Y-49262899D01*
X97429658Y-49254028D01*
X97480234Y-49220234D01*
X97514028Y-49169658D01*
X97522900Y-49125057D01*
X97522899Y-47394944D01*
X97514028Y-47350342D01*
X97514027Y-47350341D01*
X97513790Y-47349146D01*
X97521630Y-47298219D01*
X97560370Y-47264246D01*
X97587670Y-47259125D01*
X98504275Y-47259125D01*
X98552694Y-47276748D01*
G37*
%TD.AperFunction*%
%TA.AperFunction,Conductor*%
G36*
X113924655Y-46119123D02*
G01*
X113950419Y-46163747D01*
X113941471Y-46214491D01*
X113938869Y-46218676D01*
X113915571Y-46253544D01*
X113906700Y-46298140D01*
X113906700Y-47228255D01*
X113915571Y-47272857D01*
X113945449Y-47317573D01*
X113957695Y-47367623D01*
X113936080Y-47412686D01*
X112859399Y-48489367D01*
X112856541Y-48492080D01*
X112826268Y-48519339D01*
X112816206Y-48541937D01*
X112810570Y-48552318D01*
X112797088Y-48573079D01*
X112795739Y-48581599D01*
X112790157Y-48600444D01*
X112786650Y-48608322D01*
X112786650Y-48633059D01*
X112785723Y-48644841D01*
X112781852Y-48669284D01*
X112784083Y-48677612D01*
X112786649Y-48697106D01*
X112786650Y-58829597D01*
X112786547Y-58833539D01*
X112784414Y-58874219D01*
X112793279Y-58897312D01*
X112796635Y-58908642D01*
X112801781Y-58932850D01*
X112806850Y-58939826D01*
X112816234Y-58957109D01*
X112819321Y-58965153D01*
X112836810Y-58982641D01*
X112844487Y-58991629D01*
X112853652Y-59004244D01*
X112859035Y-59011652D01*
X112866502Y-59015963D01*
X112882103Y-59027934D01*
X113162191Y-59308022D01*
X113183967Y-59354721D01*
X113179359Y-59387997D01*
X113153416Y-59456401D01*
X113134305Y-59613800D01*
X113153416Y-59771198D01*
X113209638Y-59919444D01*
X113250747Y-59979000D01*
X113291972Y-60038725D01*
X113299709Y-60049933D01*
X113418387Y-60155072D01*
X113469887Y-60182102D01*
X113504570Y-60220208D01*
X113506644Y-60271693D01*
X113475139Y-60312466D01*
X113469887Y-60315498D01*
X113418387Y-60342527D01*
X113299709Y-60447666D01*
X113209638Y-60578155D01*
X113153416Y-60726401D01*
X113134305Y-60883799D01*
X113134305Y-60883800D01*
X113139559Y-60927071D01*
X113153416Y-61041198D01*
X113209638Y-61189444D01*
X113262235Y-61265643D01*
X113291181Y-61307579D01*
X113299709Y-61319933D01*
X113418387Y-61425072D01*
X113469887Y-61452102D01*
X113504570Y-61490208D01*
X113506644Y-61541693D01*
X113475139Y-61582466D01*
X113469887Y-61585498D01*
X113418387Y-61612527D01*
X113299709Y-61717666D01*
X113209638Y-61848155D01*
X113153416Y-61996401D01*
X113134305Y-62153800D01*
X113153416Y-62311198D01*
X113209638Y-62459444D01*
X113265081Y-62539766D01*
X113285904Y-62569934D01*
X113299709Y-62589933D01*
X113418387Y-62695072D01*
X113469887Y-62722102D01*
X113504570Y-62760208D01*
X113506644Y-62811693D01*
X113475139Y-62852466D01*
X113469887Y-62855498D01*
X113418387Y-62882527D01*
X113299709Y-62987666D01*
X113209638Y-63118155D01*
X113153416Y-63266401D01*
X113141263Y-63366494D01*
X113134305Y-63423800D01*
X113138805Y-63460862D01*
X113153416Y-63581198D01*
X113209638Y-63729444D01*
X113299709Y-63859933D01*
X113418385Y-63965071D01*
X113418387Y-63965072D01*
X113469888Y-63992102D01*
X113504569Y-64030206D01*
X113506644Y-64081691D01*
X113475140Y-64122464D01*
X113469888Y-64125497D01*
X113418386Y-64152528D01*
X113299709Y-64257666D01*
X113209638Y-64388155D01*
X113153416Y-64536401D01*
X113134305Y-64693800D01*
X113153416Y-64851198D01*
X113209638Y-64999444D01*
X113299709Y-65129933D01*
X113418384Y-65235070D01*
X113418385Y-65235070D01*
X113418387Y-65235072D01*
X113558778Y-65308756D01*
X113712724Y-65346700D01*
X113871276Y-65346700D01*
X114025222Y-65308756D01*
X114165613Y-65235072D01*
X114283824Y-65130345D01*
X114331750Y-65111430D01*
X114380625Y-65127747D01*
X114407578Y-65171662D01*
X114409100Y-65186727D01*
X114409100Y-65208854D01*
X114417971Y-65253458D01*
X114451766Y-65304035D01*
X114502342Y-65337828D01*
X114546943Y-65346700D01*
X115577056Y-65346699D01*
X115621658Y-65337828D01*
X115672234Y-65304034D01*
X115706028Y-65253458D01*
X115714900Y-65208857D01*
X115714899Y-64178744D01*
X115708718Y-64147667D01*
X115706028Y-64134141D01*
X115672234Y-64083565D01*
X115626452Y-64052975D01*
X115595984Y-64011421D01*
X115599354Y-63960005D01*
X115615038Y-63937078D01*
X115655233Y-63896883D01*
X115745628Y-63753020D01*
X115801747Y-63592639D01*
X115806461Y-63550800D01*
X115361634Y-63550800D01*
X115387000Y-63481106D01*
X115387000Y-63366494D01*
X115361634Y-63296800D01*
X115806460Y-63296800D01*
X115806461Y-63296799D01*
X115801747Y-63254960D01*
X115745628Y-63094579D01*
X115655231Y-62950713D01*
X115546582Y-62842064D01*
X115524806Y-62795365D01*
X115538142Y-62745594D01*
X115546582Y-62735536D01*
X115655231Y-62626886D01*
X115745628Y-62483020D01*
X115801747Y-62322639D01*
X115806461Y-62280800D01*
X115361634Y-62280800D01*
X115387000Y-62211106D01*
X115387000Y-62096494D01*
X115361634Y-62026800D01*
X115806460Y-62026800D01*
X115806461Y-62026799D01*
X115801747Y-61984960D01*
X115745628Y-61824579D01*
X115655231Y-61680713D01*
X115535087Y-61560569D01*
X115472540Y-61521268D01*
X115440919Y-61480585D01*
X115442846Y-61429095D01*
X115462661Y-61401108D01*
X115554292Y-61319932D01*
X115644360Y-61189446D01*
X115644875Y-61188090D01*
X115674766Y-61109273D01*
X115700584Y-61041197D01*
X115719695Y-60883800D01*
X115700584Y-60726403D01*
X115678094Y-60667102D01*
X115644361Y-60578155D01*
X115599082Y-60512558D01*
X115554292Y-60447668D01*
X115521626Y-60418729D01*
X115435613Y-60342528D01*
X115427039Y-60338028D01*
X115384111Y-60315497D01*
X115349430Y-60277393D01*
X115347355Y-60225908D01*
X115378859Y-60185134D01*
X115384099Y-60182108D01*
X115435613Y-60155072D01*
X115554292Y-60049932D01*
X115644360Y-59919446D01*
X115646365Y-59914161D01*
X115673254Y-59843260D01*
X115700584Y-59771197D01*
X115719695Y-59613800D01*
X115700584Y-59456403D01*
X115680198Y-59402649D01*
X115644361Y-59308155D01*
X115588459Y-59227168D01*
X115554292Y-59177668D01*
X115546257Y-59170550D01*
X115435612Y-59072527D01*
X115384112Y-59045497D01*
X115349429Y-59007391D01*
X115347355Y-58955906D01*
X115378860Y-58915133D01*
X115384091Y-58912112D01*
X115435613Y-58885072D01*
X115554292Y-58779932D01*
X115644360Y-58649446D01*
X115650487Y-58633292D01*
X115668467Y-58585882D01*
X115700584Y-58501197D01*
X115719695Y-58343800D01*
X115700584Y-58186403D01*
X115669607Y-58104724D01*
X115644361Y-58038155D01*
X115605983Y-57982556D01*
X115554292Y-57907668D01*
X115547274Y-57901451D01*
X115435613Y-57802528D01*
X115435308Y-57802368D01*
X115384111Y-57775497D01*
X115349430Y-57737393D01*
X115347355Y-57685908D01*
X115378859Y-57645134D01*
X115384099Y-57642108D01*
X115435613Y-57615072D01*
X115554292Y-57509932D01*
X115644360Y-57379446D01*
X115646371Y-57374145D01*
X115662600Y-57331351D01*
X115700584Y-57231197D01*
X115719695Y-57073800D01*
X115700584Y-56916403D01*
X115672708Y-56842900D01*
X115644361Y-56768155D01*
X115606290Y-56713000D01*
X115554292Y-56637668D01*
X115554290Y-56637666D01*
X115462666Y-56556494D01*
X115438110Y-56511195D01*
X115448417Y-56460709D01*
X115472542Y-56436329D01*
X115535087Y-56397030D01*
X115655231Y-56276886D01*
X115745628Y-56133020D01*
X115801747Y-55972639D01*
X115806461Y-55930800D01*
X115361634Y-55930800D01*
X115387000Y-55861106D01*
X115387000Y-55746494D01*
X115361634Y-55676800D01*
X115806460Y-55676800D01*
X115806461Y-55676799D01*
X115801747Y-55634960D01*
X115745628Y-55474579D01*
X115655231Y-55330713D01*
X115546582Y-55222064D01*
X115524806Y-55175365D01*
X115538142Y-55125594D01*
X115546582Y-55115536D01*
X115655231Y-55006886D01*
X115745628Y-54863020D01*
X115801747Y-54702639D01*
X115806461Y-54660800D01*
X115361634Y-54660800D01*
X115387000Y-54591106D01*
X115387000Y-54476494D01*
X115361634Y-54406800D01*
X115806460Y-54406800D01*
X115806461Y-54406799D01*
X115801747Y-54364960D01*
X115745628Y-54204579D01*
X115655231Y-54060713D01*
X115546581Y-53952063D01*
X115524805Y-53905364D01*
X115538141Y-53855593D01*
X115546581Y-53845534D01*
X115655233Y-53736883D01*
X115745628Y-53593020D01*
X115801747Y-53432639D01*
X115806461Y-53390800D01*
X115361634Y-53390800D01*
X115387000Y-53321106D01*
X115387000Y-53206494D01*
X115361634Y-53136800D01*
X115806460Y-53136800D01*
X115806461Y-53136799D01*
X115801747Y-53094960D01*
X115745628Y-52934579D01*
X115655231Y-52790713D01*
X115535086Y-52670568D01*
X115391220Y-52580171D01*
X115230840Y-52524052D01*
X115189000Y-52519337D01*
X115189000Y-52961845D01*
X115174871Y-52953688D01*
X115090436Y-52938800D01*
X115033564Y-52938800D01*
X114949129Y-52953688D01*
X114934999Y-52961845D01*
X114935000Y-52519337D01*
X114934999Y-52519337D01*
X114893159Y-52524052D01*
X114732779Y-52580171D01*
X114588913Y-52670568D01*
X114468769Y-52790712D01*
X114429533Y-52853157D01*
X114388850Y-52884778D01*
X114337360Y-52882851D01*
X114303759Y-52855871D01*
X114301886Y-52853157D01*
X114284292Y-52827668D01*
X114218040Y-52768974D01*
X114165615Y-52722529D01*
X114137782Y-52707921D01*
X114025222Y-52648844D01*
X114025219Y-52648843D01*
X113871276Y-52610900D01*
X113712724Y-52610900D01*
X113558780Y-52648843D01*
X113418384Y-52722529D01*
X113370178Y-52765237D01*
X113322249Y-52784154D01*
X113273374Y-52767837D01*
X113246422Y-52723921D01*
X113244900Y-52708854D01*
X113244900Y-50290200D01*
X113805601Y-50290200D01*
X113805601Y-50638215D01*
X113820337Y-50712307D01*
X113876475Y-50796324D01*
X113960492Y-50852462D01*
X114034584Y-50867199D01*
X114782599Y-50867199D01*
X114782600Y-50867198D01*
X114782600Y-50290200D01*
X115036599Y-50290200D01*
X115036599Y-50867198D01*
X115036600Y-50867199D01*
X115784615Y-50867199D01*
X115858707Y-50852462D01*
X115942724Y-50796324D01*
X115998862Y-50712307D01*
X116013600Y-50638215D01*
X116013600Y-50290200D01*
X115036599Y-50290200D01*
X114782600Y-50290200D01*
X113805601Y-50290200D01*
X113244900Y-50290200D01*
X113244900Y-50036200D01*
X113805600Y-50036200D01*
X114782600Y-50036200D01*
X114782600Y-49459200D01*
X115036599Y-49459200D01*
X115036599Y-50036199D01*
X115036601Y-50036200D01*
X116013599Y-50036200D01*
X116013599Y-49688184D01*
X115998862Y-49614092D01*
X115942724Y-49530075D01*
X115858707Y-49473937D01*
X115784616Y-49459200D01*
X115036599Y-49459200D01*
X114782600Y-49459200D01*
X114034584Y-49459200D01*
X113960492Y-49473937D01*
X113876475Y-49530075D01*
X113820337Y-49614092D01*
X113805600Y-49688184D01*
X113805600Y-50036200D01*
X113244900Y-50036200D01*
X113244900Y-48783131D01*
X113262523Y-48734712D01*
X113266952Y-48729878D01*
X114608669Y-47388162D01*
X114655368Y-47366386D01*
X114661933Y-47366099D01*
X115774655Y-47366099D01*
X115774656Y-47366099D01*
X115819258Y-47357228D01*
X115869834Y-47323434D01*
X115878130Y-47311019D01*
X115881048Y-47306651D01*
X115903628Y-47272858D01*
X115912500Y-47228257D01*
X115912499Y-46298144D01*
X115912498Y-46298140D01*
X115903628Y-46253541D01*
X115880332Y-46218677D01*
X115868085Y-46168627D01*
X115890874Y-46122414D01*
X115938037Y-46101661D01*
X115942964Y-46101500D01*
X116383173Y-46101500D01*
X116431592Y-46119123D01*
X116457356Y-46163747D01*
X116458500Y-46176827D01*
X116458500Y-65583173D01*
X116440877Y-65631592D01*
X116396253Y-65657356D01*
X116383173Y-65658500D01*
X94465814Y-65658500D01*
X94417395Y-65640877D01*
X94391631Y-65596253D01*
X94400579Y-65545510D01*
X94430804Y-65516475D01*
X94531413Y-65463672D01*
X94650092Y-65358532D01*
X94740160Y-65228046D01*
X94741665Y-65224079D01*
X94768210Y-65154084D01*
X94796384Y-65079797D01*
X94815495Y-64922400D01*
X94796384Y-64765003D01*
X94770439Y-64696594D01*
X94769748Y-64645076D01*
X94787606Y-64616624D01*
X94788789Y-64615441D01*
X94791632Y-64612744D01*
X94791791Y-64612601D01*
X94821906Y-64585486D01*
X94831969Y-64562882D01*
X94837603Y-64552506D01*
X94851085Y-64531747D01*
X94852434Y-64523228D01*
X94858020Y-64504372D01*
X94861524Y-64496503D01*
X94861524Y-64471766D01*
X94862451Y-64459984D01*
X94863983Y-64450310D01*
X94866322Y-64435542D01*
X94864091Y-64427215D01*
X94861524Y-64407719D01*
X94861524Y-62262356D01*
X94861624Y-62258471D01*
X94861646Y-62258045D01*
X94881743Y-62210599D01*
X94925086Y-62187531D01*
X94996798Y-62176174D01*
X95111643Y-62117657D01*
X95202784Y-62026516D01*
X95261301Y-61911671D01*
X95281464Y-61784365D01*
X95261301Y-61657059D01*
X95202784Y-61542214D01*
X95202783Y-61542213D01*
X95198234Y-61533285D01*
X95191953Y-61482143D01*
X95212084Y-61445825D01*
X95293976Y-61363933D01*
X95294584Y-61363024D01*
X95312211Y-61336644D01*
X95331633Y-61307578D01*
X95342010Y-61255405D01*
X95368741Y-61211356D01*
X95401191Y-61196224D01*
X95453365Y-61185846D01*
X95509720Y-61148191D01*
X95638220Y-61019689D01*
X95684917Y-60997914D01*
X95734688Y-61011249D01*
X95752420Y-61028673D01*
X95758259Y-61036709D01*
X95765724Y-61041018D01*
X95781326Y-61052990D01*
X97096844Y-62368509D01*
X97118620Y-62415208D01*
X97105284Y-62464979D01*
X97063076Y-62494533D01*
X97043580Y-62497100D01*
X95654944Y-62497100D01*
X95610341Y-62505971D01*
X95559764Y-62539766D01*
X95525971Y-62590342D01*
X95517100Y-62634940D01*
X95517100Y-64365055D01*
X95525971Y-64409658D01*
X95559766Y-64460235D01*
X95608046Y-64492494D01*
X95610342Y-64494028D01*
X95654943Y-64502900D01*
X97385056Y-64502899D01*
X97429658Y-64494028D01*
X97480234Y-64460234D01*
X97514028Y-64409658D01*
X97522900Y-64365057D01*
X97522899Y-62725826D01*
X97540522Y-62677408D01*
X97585146Y-62651644D01*
X97598226Y-62650500D01*
X98303713Y-62650500D01*
X98352132Y-62668123D01*
X98377896Y-62712747D01*
X98368948Y-62763491D01*
X98351501Y-62784053D01*
X98347415Y-62787408D01*
X98347410Y-62787412D01*
X98222084Y-62940121D01*
X98128955Y-63114354D01*
X98071610Y-63303395D01*
X98052247Y-63500000D01*
X98071610Y-63696604D01*
X98128955Y-63885645D01*
X98201900Y-64022116D01*
X98222084Y-64059878D01*
X98347411Y-64212589D01*
X98500122Y-64337916D01*
X98634343Y-64409658D01*
X98674354Y-64431044D01*
X98863395Y-64488389D01*
X98898650Y-64491861D01*
X99060000Y-64507753D01*
X99240426Y-64489982D01*
X99256604Y-64488389D01*
X99445645Y-64431044D01*
X99445647Y-64431042D01*
X99445650Y-64431042D01*
X99619878Y-64337916D01*
X99772589Y-64212589D01*
X99897916Y-64059878D01*
X99991042Y-63885650D01*
X99991818Y-63883094D01*
X100048389Y-63696604D01*
X100052451Y-63655364D01*
X100067753Y-63500000D01*
X100048389Y-63303397D01*
X100048389Y-63303395D01*
X99991044Y-63114354D01*
X99984127Y-63101413D01*
X99897916Y-62940122D01*
X99772589Y-62787411D01*
X99768499Y-62784055D01*
X99742252Y-62739717D01*
X99750644Y-62688879D01*
X99789752Y-62655329D01*
X99816287Y-62650500D01*
X100395268Y-62650500D01*
X100443687Y-62668123D01*
X100448532Y-62672563D01*
X100706559Y-62930590D01*
X100728335Y-62977289D01*
X100719728Y-63019362D01*
X100668956Y-63114351D01*
X100611610Y-63303395D01*
X100592247Y-63500000D01*
X100611610Y-63696604D01*
X100668955Y-63885645D01*
X100741900Y-64022116D01*
X100762084Y-64059878D01*
X100887411Y-64212589D01*
X101040122Y-64337916D01*
X101174343Y-64409658D01*
X101214354Y-64431044D01*
X101403395Y-64488389D01*
X101435749Y-64491575D01*
X101600000Y-64507753D01*
X101778976Y-64490125D01*
X101796604Y-64488389D01*
X101985645Y-64431044D01*
X101985647Y-64431042D01*
X101985650Y-64431042D01*
X102159878Y-64337916D01*
X102312589Y-64212589D01*
X102437916Y-64059878D01*
X102531042Y-63885650D01*
X102531818Y-63883094D01*
X102588389Y-63696604D01*
X102592451Y-63655364D01*
X102607753Y-63500000D01*
X102588389Y-63303397D01*
X102588389Y-63303395D01*
X102531044Y-63114354D01*
X102524127Y-63101413D01*
X102437916Y-62940122D01*
X102312589Y-62787411D01*
X102312587Y-62787409D01*
X102312586Y-62787408D01*
X102233715Y-62722680D01*
X102207466Y-62678341D01*
X102215860Y-62627502D01*
X102254968Y-62593953D01*
X102281502Y-62589125D01*
X102873893Y-62589125D01*
X102922312Y-62606748D01*
X102927157Y-62611188D01*
X103246559Y-62930590D01*
X103268335Y-62977289D01*
X103259728Y-63019362D01*
X103208956Y-63114351D01*
X103151610Y-63303395D01*
X103132247Y-63500000D01*
X103151610Y-63696604D01*
X103208955Y-63885645D01*
X103281900Y-64022116D01*
X103302084Y-64059878D01*
X103427411Y-64212589D01*
X103580122Y-64337916D01*
X103714343Y-64409658D01*
X103754354Y-64431044D01*
X103943395Y-64488389D01*
X103975749Y-64491575D01*
X104140000Y-64507753D01*
X104318976Y-64490125D01*
X104336604Y-64488389D01*
X104525645Y-64431044D01*
X104525647Y-64431042D01*
X104525650Y-64431042D01*
X104699878Y-64337916D01*
X104852589Y-64212589D01*
X104977916Y-64059878D01*
X105071042Y-63885650D01*
X105071818Y-63883094D01*
X105128389Y-63696604D01*
X105132451Y-63655364D01*
X105147753Y-63500000D01*
X105672247Y-63500000D01*
X105691610Y-63696604D01*
X105748955Y-63885645D01*
X105821900Y-64022116D01*
X105842084Y-64059878D01*
X105967411Y-64212589D01*
X106120122Y-64337916D01*
X106254343Y-64409658D01*
X106294354Y-64431044D01*
X106483395Y-64488389D01*
X106515749Y-64491575D01*
X106680000Y-64507753D01*
X106858976Y-64490125D01*
X106876604Y-64488389D01*
X107065645Y-64431044D01*
X107065647Y-64431042D01*
X107065650Y-64431042D01*
X107239878Y-64337916D01*
X107392589Y-64212589D01*
X107517916Y-64059878D01*
X107611042Y-63885650D01*
X107611818Y-63883094D01*
X107668389Y-63696604D01*
X107672451Y-63655364D01*
X107687753Y-63500000D01*
X107668389Y-63303397D01*
X107668389Y-63303395D01*
X107611044Y-63114354D01*
X107604127Y-63101413D01*
X107517916Y-62940122D01*
X107392589Y-62787411D01*
X107239878Y-62662084D01*
X107174259Y-62627010D01*
X107065645Y-62568955D01*
X106876604Y-62511610D01*
X106680000Y-62492247D01*
X106483395Y-62511610D01*
X106294354Y-62568955D01*
X106120121Y-62662084D01*
X105967411Y-62787411D01*
X105842084Y-62940121D01*
X105748955Y-63114354D01*
X105691610Y-63303395D01*
X105672247Y-63500000D01*
X105147753Y-63500000D01*
X105128389Y-63303397D01*
X105128389Y-63303395D01*
X105071044Y-63114354D01*
X105064127Y-63101413D01*
X104977916Y-62940122D01*
X104852589Y-62787411D01*
X104699878Y-62662084D01*
X104634259Y-62627010D01*
X104525645Y-62568955D01*
X104336604Y-62511610D01*
X104156176Y-62493840D01*
X104140000Y-62492247D01*
X104139999Y-62492247D01*
X103943395Y-62511610D01*
X103754351Y-62568956D01*
X103659363Y-62619728D01*
X103608354Y-62627010D01*
X103570591Y-62606559D01*
X103376897Y-62412865D01*
X103355121Y-62366166D01*
X103368457Y-62316395D01*
X103410665Y-62286841D01*
X103430161Y-62284274D01*
X107649042Y-62284274D01*
X107697461Y-62301897D01*
X107702306Y-62306337D01*
X108326559Y-62930590D01*
X108348335Y-62977289D01*
X108339728Y-63019362D01*
X108288956Y-63114351D01*
X108231610Y-63303395D01*
X108212247Y-63499999D01*
X108231610Y-63696604D01*
X108288955Y-63885645D01*
X108361900Y-64022116D01*
X108382084Y-64059878D01*
X108507411Y-64212589D01*
X108660122Y-64337916D01*
X108794343Y-64409658D01*
X108834354Y-64431044D01*
X109023395Y-64488389D01*
X109058650Y-64491861D01*
X109220000Y-64507753D01*
X109400426Y-64489982D01*
X109416604Y-64488389D01*
X109605645Y-64431044D01*
X109605647Y-64431042D01*
X109605650Y-64431042D01*
X109779878Y-64337916D01*
X109932589Y-64212589D01*
X110057916Y-64059878D01*
X110151042Y-63885650D01*
X110151818Y-63883094D01*
X110208389Y-63696604D01*
X110212451Y-63655364D01*
X110227753Y-63500000D01*
X110208389Y-63303397D01*
X110208389Y-63303395D01*
X110151044Y-63114354D01*
X110144127Y-63101413D01*
X110057916Y-62940122D01*
X109932589Y-62787411D01*
X109779878Y-62662084D01*
X109714259Y-62627010D01*
X109605645Y-62568955D01*
X109416604Y-62511610D01*
X109220000Y-62492247D01*
X109023395Y-62511610D01*
X108834351Y-62568956D01*
X108739362Y-62619728D01*
X108688352Y-62627010D01*
X108650590Y-62606559D01*
X108309176Y-62265145D01*
X107942807Y-61898775D01*
X107940092Y-61895915D01*
X107912833Y-61865641D01*
X107890232Y-61855578D01*
X107879849Y-61849940D01*
X107859094Y-61836462D01*
X107850575Y-61835113D01*
X107831729Y-61829530D01*
X107823853Y-61826024D01*
X107823851Y-61826024D01*
X107799114Y-61826024D01*
X107787332Y-61825097D01*
X107762890Y-61821226D01*
X107754562Y-61823457D01*
X107735068Y-61826024D01*
X102551525Y-61826024D01*
X102503106Y-61808401D01*
X102477342Y-61763777D01*
X102486290Y-61713034D01*
X102518442Y-61683024D01*
X102552898Y-61666179D01*
X102636179Y-61582898D01*
X102687906Y-61477088D01*
X102697900Y-61408494D01*
X102697900Y-60841505D01*
X102687906Y-60772911D01*
X102636179Y-60667101D01*
X102552898Y-60583820D01*
X102447088Y-60532093D01*
X102378495Y-60522100D01*
X102378494Y-60522100D01*
X101911506Y-60522100D01*
X101911505Y-60522100D01*
X101842911Y-60532093D01*
X101737101Y-60583820D01*
X101653820Y-60667101D01*
X101602093Y-60772911D01*
X101593571Y-60831408D01*
X101569151Y-60876781D01*
X101521279Y-60895841D01*
X101519031Y-60895875D01*
X101320969Y-60895875D01*
X101272550Y-60878252D01*
X101246786Y-60833628D01*
X101246429Y-60831408D01*
X101237906Y-60772911D01*
X101186179Y-60667101D01*
X101102898Y-60583820D01*
X100997088Y-60532093D01*
X100928495Y-60522100D01*
X100928494Y-60522100D01*
X100461506Y-60522100D01*
X100461505Y-60522100D01*
X100392911Y-60532093D01*
X100287103Y-60583819D01*
X100235213Y-60635709D01*
X100188514Y-60657484D01*
X100138743Y-60644148D01*
X100109189Y-60601939D01*
X100107549Y-60570664D01*
X100121972Y-60479601D01*
X100101809Y-60352295D01*
X100072623Y-60295015D01*
X100066344Y-60243872D01*
X100086474Y-60207555D01*
X100395176Y-59898853D01*
X100441874Y-59877078D01*
X100459302Y-59877578D01*
X100461506Y-59877900D01*
X100928495Y-59877900D01*
X100997088Y-59867906D01*
X101102898Y-59816179D01*
X101186179Y-59732898D01*
X101237906Y-59627088D01*
X101247900Y-59558494D01*
X101247900Y-59402000D01*
X101491000Y-59402000D01*
X101491000Y-59577918D01*
X101491165Y-59581447D01*
X101493875Y-59610356D01*
X101539078Y-59739537D01*
X101620346Y-59849653D01*
X101730462Y-59930921D01*
X101859643Y-59976124D01*
X101888552Y-59978834D01*
X101892081Y-59979000D01*
X102018000Y-59979000D01*
X102018000Y-59402000D01*
X102272000Y-59402000D01*
X102272000Y-59979000D01*
X102397919Y-59979000D01*
X102401447Y-59978834D01*
X102430356Y-59976124D01*
X102559537Y-59930921D01*
X102669653Y-59849653D01*
X102750921Y-59739537D01*
X102796124Y-59610356D01*
X102798834Y-59581447D01*
X102799000Y-59577918D01*
X102799000Y-59402000D01*
X102272000Y-59402000D01*
X102018000Y-59402000D01*
X101491000Y-59402000D01*
X101247900Y-59402000D01*
X101247900Y-58991505D01*
X101237906Y-58922911D01*
X101186179Y-58817101D01*
X101182343Y-58813265D01*
X101160567Y-58766566D01*
X101173903Y-58716795D01*
X101216111Y-58687241D01*
X101255787Y-58690712D01*
X101255910Y-58689942D01*
X101266927Y-58691686D01*
X101267442Y-58691732D01*
X101267552Y-58691786D01*
X101267692Y-58691808D01*
X101267694Y-58691809D01*
X101395000Y-58711972D01*
X101459493Y-58701757D01*
X101510073Y-58711588D01*
X101542500Y-58751631D01*
X101542377Y-58801035D01*
X101493875Y-58939643D01*
X101491165Y-58968552D01*
X101491000Y-58972081D01*
X101491000Y-59148000D01*
X102018000Y-59148000D01*
X102018000Y-58571000D01*
X102272000Y-58571000D01*
X102272000Y-59148000D01*
X102799000Y-59148000D01*
X102799000Y-58972081D01*
X102798834Y-58968552D01*
X102796124Y-58939643D01*
X102750921Y-58810462D01*
X102669653Y-58700346D01*
X102559537Y-58619078D01*
X102430356Y-58573875D01*
X102401447Y-58571165D01*
X102397919Y-58571000D01*
X102272000Y-58571000D01*
X102018000Y-58571000D01*
X101892081Y-58571000D01*
X101888552Y-58571165D01*
X101859639Y-58573876D01*
X101857365Y-58574672D01*
X101851884Y-58574603D01*
X101850481Y-58574735D01*
X101850466Y-58574585D01*
X101805842Y-58574027D01*
X101766788Y-58540414D01*
X101758477Y-58489563D01*
X101765371Y-58469378D01*
X101786809Y-58427306D01*
X101806972Y-58300000D01*
X101786809Y-58172694D01*
X101728292Y-58057849D01*
X101637151Y-57966708D01*
X101522306Y-57908191D01*
X101395000Y-57888028D01*
X101267693Y-57908191D01*
X101152847Y-57966709D01*
X101061709Y-58057847D01*
X101003191Y-58172693D01*
X100994068Y-58230295D01*
X100983028Y-58300000D01*
X101003191Y-58427306D01*
X101053830Y-58526690D01*
X101061709Y-58542152D01*
X101078111Y-58558554D01*
X101099887Y-58605253D01*
X101086551Y-58655024D01*
X101044343Y-58684578D01*
X101009070Y-58681492D01*
X101008736Y-58683791D01*
X100928495Y-58672100D01*
X100928494Y-58672100D01*
X100461506Y-58672100D01*
X100461505Y-58672100D01*
X100392911Y-58682093D01*
X100287101Y-58733820D01*
X100203820Y-58817101D01*
X100152093Y-58922911D01*
X100142100Y-58991505D01*
X100142100Y-59472666D01*
X100124477Y-59521085D01*
X100120037Y-59525930D01*
X99553626Y-60092340D01*
X99550764Y-60095056D01*
X99535097Y-60109162D01*
X99518895Y-60120298D01*
X99467848Y-60146309D01*
X99376709Y-60237448D01*
X99318191Y-60352294D01*
X99298028Y-60479601D01*
X99311030Y-60561695D01*
X99301198Y-60612275D01*
X99261154Y-60644701D01*
X99209635Y-60643802D01*
X99202433Y-60640595D01*
X99187308Y-60632889D01*
X99187307Y-60632888D01*
X99187306Y-60632888D01*
X99060000Y-60612725D01*
X99059998Y-60612725D01*
X99059997Y-60612725D01*
X99021989Y-60618744D01*
X98971409Y-60608911D01*
X98956943Y-60597608D01*
X98601188Y-60241852D01*
X98579412Y-60195153D01*
X98579125Y-60188588D01*
X98579125Y-58300000D01*
X99103028Y-58300000D01*
X99123191Y-58427306D01*
X99181708Y-58542151D01*
X99272849Y-58633292D01*
X99387694Y-58691809D01*
X99515000Y-58711972D01*
X99642306Y-58691809D01*
X99757151Y-58633292D01*
X99848292Y-58542151D01*
X99906809Y-58427306D01*
X99926972Y-58300000D01*
X99906809Y-58172694D01*
X99848292Y-58057849D01*
X99757151Y-57966708D01*
X99642306Y-57908191D01*
X99515000Y-57888028D01*
X99387693Y-57908191D01*
X99272847Y-57966709D01*
X99181709Y-58057847D01*
X99123191Y-58172693D01*
X99114068Y-58230295D01*
X99103028Y-58300000D01*
X98579125Y-58300000D01*
X98579125Y-58207977D01*
X98579228Y-58204035D01*
X98580152Y-58186401D01*
X98581360Y-58163356D01*
X98572493Y-58140258D01*
X98569137Y-58128930D01*
X98563993Y-58104724D01*
X98563992Y-58104723D01*
X98562186Y-58096222D01*
X98569360Y-58045197D01*
X98607653Y-58010721D01*
X98621162Y-58006687D01*
X98635345Y-58003866D01*
X98691700Y-57966211D01*
X98829509Y-57828400D01*
X98835617Y-57819260D01*
X98846797Y-57802528D01*
X98867166Y-57772045D01*
X98884854Y-57683123D01*
X98884853Y-57683121D01*
X98884854Y-57683120D01*
X98867166Y-57594201D01*
X98834812Y-57545780D01*
X98829511Y-57537846D01*
X98038926Y-56747263D01*
X98017151Y-56700565D01*
X98030487Y-56650794D01*
X98072695Y-56621240D01*
X98092191Y-56618673D01*
X99252474Y-56618673D01*
X99256416Y-56618776D01*
X99297096Y-56620908D01*
X99320189Y-56612042D01*
X99331512Y-56608687D01*
X99355728Y-56603541D01*
X99362704Y-56598471D01*
X99379988Y-56589087D01*
X99388030Y-56586001D01*
X99405522Y-56568508D01*
X99414507Y-56560834D01*
X99420481Y-56556494D01*
X99434529Y-56546288D01*
X99438841Y-56538817D01*
X99450809Y-56523220D01*
X100230445Y-55743585D01*
X100277143Y-55721810D01*
X100301735Y-55723712D01*
X100306774Y-55724954D01*
X100306778Y-55724956D01*
X100460724Y-55762900D01*
X100619276Y-55762900D01*
X100773222Y-55724956D01*
X100913613Y-55651272D01*
X101032292Y-55546132D01*
X101122360Y-55415646D01*
X101178584Y-55267397D01*
X101197695Y-55110000D01*
X101178584Y-54952603D01*
X101155042Y-54890528D01*
X101122361Y-54804355D01*
X101083423Y-54747944D01*
X101032292Y-54673868D01*
X101019241Y-54662306D01*
X100976770Y-54624680D01*
X104962752Y-54624680D01*
X104962767Y-54673663D01*
X104962767Y-54706113D01*
X104962776Y-54706212D01*
X104962783Y-54725010D01*
X104987000Y-54815484D01*
X104988766Y-54822078D01*
X105038990Y-54909104D01*
X105110032Y-54980161D01*
X105197047Y-55030403D01*
X105233015Y-55040039D01*
X105294102Y-55056405D01*
X105294102Y-55056404D01*
X105294103Y-55056405D01*
X105344343Y-55056401D01*
X105435548Y-55056401D01*
X105483967Y-55074024D01*
X105509731Y-55118648D01*
X105510875Y-55131728D01*
X105510875Y-57454740D01*
X105493252Y-57503159D01*
X105465975Y-57523648D01*
X105415854Y-57545779D01*
X105335780Y-57625854D01*
X105290037Y-57729451D01*
X105289116Y-57737393D01*
X105287100Y-57754774D01*
X105287100Y-59145226D01*
X105287349Y-59147377D01*
X105287350Y-59147384D01*
X105290037Y-59170548D01*
X105307457Y-59210000D01*
X105335780Y-59274145D01*
X105415855Y-59354220D01*
X105519450Y-59399962D01*
X105544774Y-59402900D01*
X105546944Y-59402900D01*
X105933056Y-59402900D01*
X105935226Y-59402900D01*
X105960550Y-59399962D01*
X106064145Y-59354220D01*
X106144220Y-59274145D01*
X106189962Y-59170550D01*
X106192900Y-59145226D01*
X106192900Y-57754774D01*
X106189962Y-57729450D01*
X106144220Y-57625855D01*
X106112364Y-57593999D01*
X106064145Y-57545779D01*
X106014025Y-57523648D01*
X105976850Y-57487968D01*
X105969125Y-57454740D01*
X105969125Y-55010928D01*
X105969149Y-55010859D01*
X105969148Y-54969932D01*
X105969148Y-54929465D01*
X105943141Y-54832415D01*
X105937791Y-54823150D01*
X105892901Y-54745405D01*
X105875595Y-54728102D01*
X105853815Y-54681404D01*
X105867147Y-54631632D01*
X105875589Y-54621570D01*
X105892880Y-54604283D01*
X105943119Y-54517278D01*
X105969124Y-54420234D01*
X105969124Y-54420233D01*
X105969125Y-54420230D01*
X105969125Y-54072746D01*
X105986748Y-54024327D01*
X105991188Y-54019482D01*
X106031816Y-53978854D01*
X106073292Y-53937378D01*
X106131809Y-53822533D01*
X106151972Y-53695227D01*
X106131809Y-53567921D01*
X106073292Y-53453076D01*
X105982151Y-53361935D01*
X105867306Y-53303418D01*
X105740000Y-53283255D01*
X105739999Y-53283255D01*
X105612693Y-53303418D01*
X105497847Y-53361936D01*
X105406709Y-53453074D01*
X105348191Y-53567920D01*
X105331320Y-53674442D01*
X105328028Y-53695227D01*
X105348191Y-53822533D01*
X105403763Y-53931599D01*
X105406709Y-53937379D01*
X105488812Y-54019482D01*
X105510588Y-54066181D01*
X105510875Y-54072746D01*
X105510875Y-54217973D01*
X105493252Y-54266392D01*
X105448628Y-54292156D01*
X105435548Y-54293300D01*
X105375580Y-54293300D01*
X105375494Y-54293268D01*
X105294099Y-54293262D01*
X105197033Y-54319268D01*
X105110013Y-54369514D01*
X105038964Y-54440578D01*
X104988735Y-54527612D01*
X104962752Y-54624680D01*
X100976770Y-54624680D01*
X100913615Y-54568729D01*
X100869758Y-54545711D01*
X100773222Y-54495044D01*
X100773219Y-54495043D01*
X100619276Y-54457100D01*
X100598785Y-54457100D01*
X100550366Y-54439477D01*
X100524602Y-54394853D01*
X100533550Y-54344110D01*
X100545521Y-54328509D01*
X101536725Y-53337306D01*
X101664031Y-53210000D01*
X106308028Y-53210000D01*
X106328191Y-53337306D01*
X106386708Y-53452151D01*
X106477849Y-53543292D01*
X106592694Y-53601809D01*
X106717333Y-53621549D01*
X106762398Y-53646530D01*
X106780864Y-53694634D01*
X106780875Y-53695949D01*
X106780875Y-57454740D01*
X106763252Y-57503159D01*
X106735975Y-57523648D01*
X106685854Y-57545779D01*
X106605780Y-57625854D01*
X106560037Y-57729451D01*
X106559116Y-57737393D01*
X106557100Y-57754774D01*
X106557100Y-59145226D01*
X106557349Y-59147377D01*
X106557350Y-59147384D01*
X106560037Y-59170548D01*
X106577457Y-59210000D01*
X106605780Y-59274145D01*
X106685855Y-59354220D01*
X106789450Y-59399962D01*
X106814774Y-59402900D01*
X106816944Y-59402900D01*
X107203056Y-59402900D01*
X107205226Y-59402900D01*
X107230550Y-59399962D01*
X107334145Y-59354220D01*
X107414220Y-59274145D01*
X107459962Y-59170550D01*
X107462900Y-59145226D01*
X107462900Y-57754774D01*
X107459962Y-57729450D01*
X107414220Y-57625855D01*
X107382364Y-57593999D01*
X107334145Y-57545779D01*
X107284025Y-57523648D01*
X107246850Y-57487968D01*
X107239125Y-57454740D01*
X107239125Y-53552475D01*
X107256748Y-53504056D01*
X107301372Y-53478292D01*
X107352116Y-53487240D01*
X107367711Y-53499207D01*
X107457304Y-53588800D01*
X107546187Y-53677683D01*
X107567963Y-53724382D01*
X107568250Y-53730947D01*
X107568250Y-54580104D01*
X107550627Y-54628523D01*
X107546188Y-54633367D01*
X107501709Y-54677846D01*
X107443191Y-54792693D01*
X107430656Y-54871839D01*
X107423028Y-54920000D01*
X107443191Y-55047306D01*
X107501708Y-55162151D01*
X107592849Y-55253292D01*
X107707694Y-55311809D01*
X107835000Y-55331972D01*
X107873007Y-55325952D01*
X107923587Y-55335783D01*
X107938052Y-55347084D01*
X107984126Y-55393157D01*
X108028812Y-55437843D01*
X108050588Y-55484542D01*
X108050875Y-55491107D01*
X108050875Y-57454740D01*
X108033252Y-57503159D01*
X108005975Y-57523648D01*
X107955854Y-57545779D01*
X107875780Y-57625854D01*
X107830037Y-57729451D01*
X107829116Y-57737393D01*
X107827100Y-57754774D01*
X107827100Y-59145226D01*
X107827349Y-59147377D01*
X107827350Y-59147384D01*
X107830037Y-59170548D01*
X107847457Y-59210000D01*
X107875780Y-59274145D01*
X107955855Y-59354220D01*
X108059450Y-59399962D01*
X108084774Y-59402900D01*
X108086944Y-59402900D01*
X108473056Y-59402900D01*
X108475226Y-59402900D01*
X108500550Y-59399962D01*
X108604145Y-59354220D01*
X108684220Y-59274145D01*
X108729962Y-59170550D01*
X108732900Y-59145226D01*
X109097100Y-59145226D01*
X109097349Y-59147377D01*
X109097350Y-59147384D01*
X109100037Y-59170548D01*
X109117457Y-59210000D01*
X109145780Y-59274145D01*
X109225855Y-59354220D01*
X109329450Y-59399962D01*
X109354774Y-59402900D01*
X109356944Y-59402900D01*
X109743056Y-59402900D01*
X109745226Y-59402900D01*
X109770550Y-59399962D01*
X109874145Y-59354220D01*
X109954220Y-59274145D01*
X109999962Y-59170550D01*
X110002900Y-59145226D01*
X110002900Y-59034419D01*
X110020523Y-58986000D01*
X110065147Y-58960236D01*
X110115891Y-58969184D01*
X110145342Y-59000219D01*
X110166708Y-59042151D01*
X110257849Y-59133292D01*
X110372694Y-59191809D01*
X110500000Y-59211972D01*
X110627306Y-59191809D01*
X110742151Y-59133292D01*
X110833292Y-59042151D01*
X110891809Y-58927306D01*
X110911972Y-58800000D01*
X110891809Y-58672694D01*
X110833292Y-58557849D01*
X110742151Y-58466708D01*
X110627306Y-58408191D01*
X110627304Y-58408190D01*
X110627303Y-58408190D01*
X110547681Y-58395578D01*
X110506202Y-58374443D01*
X110409784Y-58278025D01*
X110400745Y-58265463D01*
X110362168Y-58230295D01*
X110359651Y-58227892D01*
X110345877Y-58214118D01*
X110344905Y-58213452D01*
X110344326Y-58213055D01*
X110336159Y-58206585D01*
X110313503Y-58185932D01*
X110301461Y-58181267D01*
X110286106Y-58173173D01*
X110275453Y-58165876D01*
X110245612Y-58158857D01*
X110235647Y-58155771D01*
X110234795Y-58155441D01*
X110207070Y-58144700D01*
X110194158Y-58144700D01*
X110176913Y-58142699D01*
X110164344Y-58139743D01*
X110133986Y-58143978D01*
X110123579Y-58144700D01*
X110078227Y-58144700D01*
X110029808Y-58127077D01*
X110004044Y-58082453D01*
X110002900Y-58069373D01*
X110002900Y-57756944D01*
X110002900Y-57754774D01*
X109999962Y-57729450D01*
X109954220Y-57625855D01*
X109874145Y-57545780D01*
X109824021Y-57523648D01*
X109770548Y-57500037D01*
X109747384Y-57497350D01*
X109747377Y-57497349D01*
X109745226Y-57497100D01*
X109354774Y-57497100D01*
X109352623Y-57497349D01*
X109352615Y-57497350D01*
X109329451Y-57500037D01*
X109225854Y-57545780D01*
X109145780Y-57625854D01*
X109100037Y-57729451D01*
X109099116Y-57737393D01*
X109097100Y-57754774D01*
X109097100Y-59145226D01*
X108732900Y-59145226D01*
X108732900Y-57754774D01*
X108729962Y-57729450D01*
X108684220Y-57625855D01*
X108652364Y-57593999D01*
X108604145Y-57545779D01*
X108554024Y-57523648D01*
X108516849Y-57487969D01*
X108509125Y-57454744D01*
X108509125Y-55372977D01*
X108509228Y-55369034D01*
X108511170Y-55331972D01*
X108511360Y-55328356D01*
X108511359Y-55328355D01*
X108511360Y-55328354D01*
X108502494Y-55305259D01*
X108499136Y-55293922D01*
X108493993Y-55269725D01*
X108493993Y-55269724D01*
X108488924Y-55262748D01*
X108479540Y-55245465D01*
X108478691Y-55243252D01*
X108476453Y-55237422D01*
X108476452Y-55237421D01*
X108476452Y-55237420D01*
X108458964Y-55219933D01*
X108451286Y-55210944D01*
X108436740Y-55190923D01*
X108436739Y-55190922D01*
X108429269Y-55186609D01*
X108413670Y-55174639D01*
X108333106Y-55094075D01*
X108262086Y-55023054D01*
X108240311Y-54976357D01*
X108240952Y-54958007D01*
X108241121Y-54956944D01*
X108246972Y-54920000D01*
X109073028Y-54920000D01*
X109093191Y-55047306D01*
X109151708Y-55162151D01*
X109242849Y-55253292D01*
X109357694Y-55311809D01*
X109485000Y-55331972D01*
X109612306Y-55311809D01*
X109727151Y-55253292D01*
X109818292Y-55162151D01*
X109876809Y-55047306D01*
X109896972Y-54920000D01*
X109876809Y-54792694D01*
X109818292Y-54677849D01*
X109727151Y-54586708D01*
X109625669Y-54535000D01*
X110678028Y-54535000D01*
X110698191Y-54662306D01*
X110756708Y-54777151D01*
X110847849Y-54868292D01*
X110962694Y-54926809D01*
X111090000Y-54946972D01*
X111217306Y-54926809D01*
X111332151Y-54868292D01*
X111423292Y-54777151D01*
X111481809Y-54662306D01*
X111501972Y-54535000D01*
X111481809Y-54407694D01*
X111423292Y-54292849D01*
X111332151Y-54201708D01*
X111217306Y-54143191D01*
X111090000Y-54123028D01*
X110962693Y-54143191D01*
X110847847Y-54201709D01*
X110756709Y-54292847D01*
X110698191Y-54407693D01*
X110679807Y-54523770D01*
X110678028Y-54535000D01*
X109625669Y-54535000D01*
X109612306Y-54528191D01*
X109485000Y-54508028D01*
X109357693Y-54528191D01*
X109242847Y-54586709D01*
X109151709Y-54677847D01*
X109093191Y-54792693D01*
X109075816Y-54902400D01*
X109073028Y-54920000D01*
X108246972Y-54920000D01*
X108226809Y-54792694D01*
X108168292Y-54677849D01*
X108077151Y-54586708D01*
X108077150Y-54586707D01*
X108067626Y-54581854D01*
X108032487Y-54544169D01*
X108026500Y-54514739D01*
X108026500Y-54180432D01*
X108044123Y-54132013D01*
X108088747Y-54106249D01*
X108136025Y-54113315D01*
X108152694Y-54121809D01*
X108280000Y-54141972D01*
X108407306Y-54121809D01*
X108522151Y-54063292D01*
X108613292Y-53972151D01*
X108671809Y-53857306D01*
X108691972Y-53730000D01*
X108671809Y-53602694D01*
X108613292Y-53487849D01*
X108531186Y-53405743D01*
X108509411Y-53359044D01*
X108509124Y-53352479D01*
X108509124Y-53160184D01*
X108509124Y-52960925D01*
X108509149Y-52960856D01*
X108509148Y-52912505D01*
X108509148Y-52879465D01*
X108483141Y-52782415D01*
X108478859Y-52774999D01*
X108432901Y-52695405D01*
X108419034Y-52681540D01*
X108415594Y-52678101D01*
X108393815Y-52631404D01*
X108407147Y-52581632D01*
X108415589Y-52571570D01*
X108432880Y-52554283D01*
X108483119Y-52467278D01*
X108509124Y-52370234D01*
X108509124Y-52370233D01*
X108509125Y-52370230D01*
X108509125Y-52245258D01*
X108526748Y-52196839D01*
X108554024Y-52176350D01*
X108604145Y-52154220D01*
X108684220Y-52074145D01*
X108729962Y-51970550D01*
X108732900Y-51945226D01*
X109097100Y-51945226D01*
X109097349Y-51947377D01*
X109097350Y-51947384D01*
X109100037Y-51970548D01*
X109130703Y-52039999D01*
X109145780Y-52074145D01*
X109225855Y-52154220D01*
X109253235Y-52166309D01*
X109290410Y-52201988D01*
X109295954Y-52253216D01*
X109276074Y-52288481D01*
X109216709Y-52347847D01*
X109158191Y-52462693D01*
X109157484Y-52467160D01*
X109138028Y-52590000D01*
X109158191Y-52717306D01*
X109216708Y-52832151D01*
X109307849Y-52923292D01*
X109422694Y-52981809D01*
X109550000Y-53001972D01*
X109677306Y-52981809D01*
X109792151Y-52923292D01*
X109883292Y-52832151D01*
X109941809Y-52717306D01*
X109961972Y-52590000D01*
X109941809Y-52462694D01*
X109883292Y-52347849D01*
X109823925Y-52288481D01*
X109802150Y-52241783D01*
X109815486Y-52192012D01*
X109846761Y-52166310D01*
X109874145Y-52154220D01*
X109954220Y-52074145D01*
X109999962Y-51970550D01*
X110002900Y-51945226D01*
X110002900Y-50554774D01*
X109999962Y-50529450D01*
X109954220Y-50425855D01*
X109874145Y-50345780D01*
X109770550Y-50300038D01*
X109770548Y-50300037D01*
X109747384Y-50297350D01*
X109747377Y-50297349D01*
X109745226Y-50297100D01*
X109354774Y-50297100D01*
X109352623Y-50297349D01*
X109352615Y-50297350D01*
X109329451Y-50300037D01*
X109225854Y-50345780D01*
X109145780Y-50425854D01*
X109100037Y-50529451D01*
X109097536Y-50551013D01*
X109097100Y-50554774D01*
X109097100Y-51945226D01*
X108732900Y-51945226D01*
X108732900Y-50554774D01*
X108729962Y-50529450D01*
X108684220Y-50425855D01*
X108604145Y-50345780D01*
X108500550Y-50300038D01*
X108500548Y-50300037D01*
X108477384Y-50297350D01*
X108477377Y-50297349D01*
X108475226Y-50297100D01*
X108084774Y-50297100D01*
X108082623Y-50297349D01*
X108082615Y-50297350D01*
X108059451Y-50300037D01*
X107955854Y-50345780D01*
X107875780Y-50425854D01*
X107830037Y-50529451D01*
X107827536Y-50551013D01*
X107827100Y-50554774D01*
X107827100Y-51945226D01*
X107827349Y-51947377D01*
X107827350Y-51947384D01*
X107830037Y-51970548D01*
X107875780Y-52074145D01*
X107917228Y-52115593D01*
X107939004Y-52162292D01*
X107925668Y-52212063D01*
X107883479Y-52241612D01*
X107780419Y-52269255D01*
X107693416Y-52319517D01*
X107622385Y-52390589D01*
X107572171Y-52477621D01*
X107546197Y-52574686D01*
X107546213Y-52623762D01*
X107546213Y-52656111D01*
X107546222Y-52656210D01*
X107546229Y-52674804D01*
X107572253Y-52772047D01*
X107622455Y-52859059D01*
X107693467Y-52930111D01*
X107780453Y-52980364D01*
X107875708Y-53005914D01*
X107877084Y-53006401D01*
X107927707Y-53006401D01*
X107968108Y-53006411D01*
X107968109Y-53006410D01*
X107975565Y-53006412D01*
X108023981Y-53024046D01*
X108049734Y-53068676D01*
X108050875Y-53081739D01*
X108050875Y-53352453D01*
X108033252Y-53400872D01*
X107988628Y-53426636D01*
X107937885Y-53417688D01*
X107922284Y-53405717D01*
X107271187Y-52754620D01*
X107249411Y-52707921D01*
X107249125Y-52701378D01*
X107249125Y-52240843D01*
X107266748Y-52192424D01*
X107294025Y-52171934D01*
X107334145Y-52154220D01*
X107414220Y-52074145D01*
X107459962Y-51970550D01*
X107462900Y-51945226D01*
X107462900Y-50554774D01*
X107459962Y-50529450D01*
X107414220Y-50425855D01*
X107334145Y-50345780D01*
X107230550Y-50300038D01*
X107230548Y-50300037D01*
X107207384Y-50297350D01*
X107207377Y-50297349D01*
X107205226Y-50297100D01*
X106814774Y-50297100D01*
X106812623Y-50297349D01*
X106812615Y-50297350D01*
X106789451Y-50300037D01*
X106685854Y-50345780D01*
X106605780Y-50425854D01*
X106560037Y-50529451D01*
X106557536Y-50551013D01*
X106557100Y-50554774D01*
X106557100Y-51945226D01*
X106557349Y-51947377D01*
X106557350Y-51947384D01*
X106560037Y-51970548D01*
X106590703Y-52039999D01*
X106605780Y-52074145D01*
X106685855Y-52154220D01*
X106745976Y-52180766D01*
X106783149Y-52216443D01*
X106790875Y-52249673D01*
X106790875Y-52722467D01*
X106773252Y-52770886D01*
X106728628Y-52796650D01*
X106727332Y-52796867D01*
X106720000Y-52798028D01*
X106684144Y-52803707D01*
X106592693Y-52818191D01*
X106477847Y-52876709D01*
X106386709Y-52967847D01*
X106328191Y-53082693D01*
X106312065Y-53184508D01*
X106308028Y-53210000D01*
X101664031Y-53210000D01*
X103497031Y-51377000D01*
X105186001Y-51377000D01*
X105186001Y-51931792D01*
X105200984Y-52026398D01*
X105259084Y-52140426D01*
X105349573Y-52230915D01*
X105463600Y-52289015D01*
X105558207Y-52303999D01*
X105613000Y-52303998D01*
X105613000Y-51377000D01*
X105867000Y-51377000D01*
X105867000Y-52303999D01*
X105921792Y-52303999D01*
X106016398Y-52289015D01*
X106130426Y-52230915D01*
X106220915Y-52140426D01*
X106279015Y-52026399D01*
X106294000Y-51931791D01*
X106294000Y-51377000D01*
X105867000Y-51377000D01*
X105613000Y-51377000D01*
X105186001Y-51377000D01*
X103497031Y-51377000D01*
X103751031Y-51123000D01*
X105186000Y-51123000D01*
X105613000Y-51123000D01*
X105613000Y-50196000D01*
X105867000Y-50196000D01*
X105867000Y-51123000D01*
X106293999Y-51123000D01*
X106293999Y-50568207D01*
X106279015Y-50473601D01*
X106220915Y-50359573D01*
X106130426Y-50269084D01*
X106016399Y-50210984D01*
X105921792Y-50196000D01*
X105867000Y-50196000D01*
X105613000Y-50196000D01*
X105612999Y-50195999D01*
X105558207Y-50196000D01*
X105463601Y-50210984D01*
X105349573Y-50269084D01*
X105259084Y-50359573D01*
X105200984Y-50473600D01*
X105186000Y-50568208D01*
X105186000Y-51123000D01*
X103751031Y-51123000D01*
X104912843Y-49961188D01*
X104959543Y-49939412D01*
X104966108Y-49939125D01*
X107762022Y-49939125D01*
X107765964Y-49939228D01*
X107806644Y-49941360D01*
X107829737Y-49932494D01*
X107841060Y-49929139D01*
X107865276Y-49923993D01*
X107872252Y-49918923D01*
X107889536Y-49909539D01*
X107897578Y-49906453D01*
X107915070Y-49888960D01*
X107924055Y-49881286D01*
X107924508Y-49880957D01*
X107944077Y-49866740D01*
X107948389Y-49859269D01*
X107960357Y-49843672D01*
X108650591Y-49153438D01*
X108697289Y-49131663D01*
X108739363Y-49140271D01*
X108834350Y-49191042D01*
X109023395Y-49248389D01*
X109054394Y-49251442D01*
X109220000Y-49267753D01*
X109398976Y-49250125D01*
X109416604Y-49248389D01*
X109605645Y-49191044D01*
X109605647Y-49191042D01*
X109605650Y-49191042D01*
X109779878Y-49097916D01*
X109932589Y-48972589D01*
X110057916Y-48819878D01*
X110151042Y-48645650D01*
X110151288Y-48644841D01*
X110208389Y-48456604D01*
X110220672Y-48331889D01*
X110227753Y-48260000D01*
X110208389Y-48063397D01*
X110208389Y-48063395D01*
X110151044Y-47874354D01*
X110100270Y-47779362D01*
X110057916Y-47700122D01*
X109932589Y-47547411D01*
X109779878Y-47422084D01*
X109675997Y-47366559D01*
X109605645Y-47328955D01*
X109416604Y-47271610D01*
X109236176Y-47253840D01*
X109220000Y-47252247D01*
X109219999Y-47252247D01*
X109023395Y-47271610D01*
X108834354Y-47328955D01*
X108660121Y-47422084D01*
X108507411Y-47547411D01*
X108382084Y-47700121D01*
X108288955Y-47874354D01*
X108231610Y-48063395D01*
X108212247Y-48259999D01*
X108231610Y-48456604D01*
X108288955Y-48645645D01*
X108309965Y-48684952D01*
X108338760Y-48738824D01*
X108339728Y-48740634D01*
X108347010Y-48791644D01*
X108326559Y-48829407D01*
X107697156Y-49458812D01*
X107650457Y-49480588D01*
X107643892Y-49480875D01*
X104847978Y-49480875D01*
X104844035Y-49480772D01*
X104803354Y-49478639D01*
X104780264Y-49487503D01*
X104768935Y-49490859D01*
X104744723Y-49496006D01*
X104737744Y-49501077D01*
X104720465Y-49510459D01*
X104712421Y-49513546D01*
X104694931Y-49531036D01*
X104685949Y-49538708D01*
X104665922Y-49553259D01*
X104661610Y-49560729D01*
X104649641Y-49576326D01*
X99958337Y-54267631D01*
X99911638Y-54289407D01*
X99905073Y-54289694D01*
X98925309Y-54289694D01*
X98876890Y-54272071D01*
X98851126Y-54227447D01*
X98860074Y-54176704D01*
X98862677Y-54172518D01*
X98867022Y-54166014D01*
X98867166Y-54165799D01*
X98884854Y-54076877D01*
X98884853Y-54076875D01*
X98884854Y-54076874D01*
X98867166Y-53987955D01*
X98852160Y-53965497D01*
X98829511Y-53931600D01*
X98796711Y-53898800D01*
X98691703Y-53793793D01*
X98661411Y-53773551D01*
X98630945Y-53731996D01*
X98627936Y-53710920D01*
X98627936Y-53665313D01*
X98588253Y-53556287D01*
X98567091Y-53528707D01*
X98567090Y-53528707D01*
X97930533Y-54165265D01*
X97930533Y-54169498D01*
X97948612Y-54208269D01*
X97935276Y-54258040D01*
X97926837Y-54268098D01*
X97853761Y-54341175D01*
X97807062Y-54362951D01*
X97757291Y-54349616D01*
X97751636Y-54344871D01*
X97750928Y-54344871D01*
X97114369Y-54981428D01*
X97114369Y-54981429D01*
X97141949Y-55002591D01*
X97250975Y-55042274D01*
X97296582Y-55042274D01*
X97345001Y-55059897D01*
X97359213Y-55075750D01*
X97376820Y-55102101D01*
X97379452Y-55106039D01*
X97517262Y-55243848D01*
X97573614Y-55281502D01*
X97573617Y-55281504D01*
X97662539Y-55299192D01*
X97662540Y-55299191D01*
X97662541Y-55299192D01*
X97721820Y-55287400D01*
X97751461Y-55281504D01*
X97807816Y-55243849D01*
X98281657Y-54770006D01*
X98328356Y-54748231D01*
X98334921Y-54747944D01*
X99869903Y-54747944D01*
X99918322Y-54765567D01*
X99944086Y-54810191D01*
X99940335Y-54849982D01*
X99901416Y-54952601D01*
X99882305Y-55110000D01*
X99901416Y-55267398D01*
X99927358Y-55335802D01*
X99928049Y-55387324D01*
X99910190Y-55415777D01*
X99187608Y-56138360D01*
X99140909Y-56160136D01*
X99134344Y-56160423D01*
X93948430Y-56160423D01*
X93944487Y-56160320D01*
X93903806Y-56158187D01*
X93880716Y-56167051D01*
X93869387Y-56170407D01*
X93845175Y-56175554D01*
X93838196Y-56180625D01*
X93820917Y-56190007D01*
X93812873Y-56193094D01*
X93795383Y-56210584D01*
X93786401Y-56218256D01*
X93766374Y-56232807D01*
X93762062Y-56240277D01*
X93750093Y-56255874D01*
X92134487Y-57871479D01*
X92131629Y-57874192D01*
X92101356Y-57901451D01*
X92091294Y-57924049D01*
X92085658Y-57934430D01*
X92072176Y-57955191D01*
X92070827Y-57963711D01*
X92065245Y-57982556D01*
X92061738Y-57990434D01*
X92061738Y-58015171D01*
X92060811Y-58026953D01*
X92056940Y-58051395D01*
X92059171Y-58059721D01*
X92061738Y-58079218D01*
X92061738Y-59810908D01*
X92061635Y-59814850D01*
X92059502Y-59855530D01*
X92068367Y-59878623D01*
X92071723Y-59889953D01*
X92076869Y-59914161D01*
X92081938Y-59921137D01*
X92091322Y-59938420D01*
X92094409Y-59946464D01*
X92111898Y-59963952D01*
X92119575Y-59972940D01*
X92129981Y-59987263D01*
X92134123Y-59992963D01*
X92141590Y-59997274D01*
X92157190Y-60009244D01*
X92373853Y-60225908D01*
X92582953Y-60435008D01*
X92585667Y-60437868D01*
X92604451Y-60458729D01*
X92612927Y-60468142D01*
X92635533Y-60478207D01*
X92645899Y-60483835D01*
X92666666Y-60497321D01*
X92675185Y-60498670D01*
X92694034Y-60504253D01*
X92701910Y-60507760D01*
X92726647Y-60507760D01*
X92738429Y-60508687D01*
X92742193Y-60509283D01*
X92762871Y-60512558D01*
X92771198Y-60510326D01*
X92790693Y-60507760D01*
X93379152Y-60507760D01*
X93427571Y-60525383D01*
X93453335Y-60570007D01*
X93453031Y-60597784D01*
X93442330Y-60651575D01*
X93415599Y-60695625D01*
X93383148Y-60710757D01*
X93330977Y-60721135D01*
X93274621Y-60758791D01*
X93136811Y-60896602D01*
X93099155Y-60952956D01*
X93088777Y-61005129D01*
X93062046Y-61049179D01*
X93029595Y-61064311D01*
X92977423Y-61074689D01*
X92921067Y-61112345D01*
X92783257Y-61250156D01*
X92745601Y-61306510D01*
X92735223Y-61358682D01*
X92708492Y-61402732D01*
X92676041Y-61417864D01*
X92623870Y-61428242D01*
X92567514Y-61465898D01*
X92429704Y-61603709D01*
X92392048Y-61660063D01*
X92381670Y-61712235D01*
X92354939Y-61756285D01*
X92322488Y-61771417D01*
X92270317Y-61781795D01*
X92213961Y-61819451D01*
X92076151Y-61957262D01*
X92038497Y-62013614D01*
X92038496Y-62013616D01*
X92038496Y-62013617D01*
X92033346Y-62039507D01*
X92020807Y-62102541D01*
X92038495Y-62191460D01*
X92051622Y-62211106D01*
X92076151Y-62247816D01*
X92224550Y-62396215D01*
X92259145Y-62430809D01*
X92280921Y-62477508D01*
X92267585Y-62527279D01*
X92225377Y-62556833D01*
X92205881Y-62559400D01*
X91754044Y-62559400D01*
X91705625Y-62541777D01*
X91700780Y-62537337D01*
X91682152Y-62518709D01*
X91682151Y-62518708D01*
X91567306Y-62460191D01*
X91440000Y-62440028D01*
X91312693Y-62460191D01*
X91197847Y-62518709D01*
X91179220Y-62537337D01*
X91132521Y-62559113D01*
X91125956Y-62559400D01*
X90674118Y-62559400D01*
X90625699Y-62541777D01*
X90599935Y-62497153D01*
X90608883Y-62446410D01*
X90620854Y-62430809D01*
X90803848Y-62247815D01*
X90828377Y-62211106D01*
X90841504Y-62191461D01*
X90859192Y-62102539D01*
X90859191Y-62102537D01*
X90859192Y-62102536D01*
X90841504Y-62013617D01*
X90822356Y-61984960D01*
X90803849Y-61957262D01*
X90770316Y-61923729D01*
X90666041Y-61819455D01*
X90635749Y-61799213D01*
X90605283Y-61757658D01*
X90602274Y-61736582D01*
X90602274Y-61690975D01*
X90562591Y-61581949D01*
X90541428Y-61554369D01*
X89725266Y-62370533D01*
X89088707Y-63007090D01*
X89088707Y-63007091D01*
X89116287Y-63028253D01*
X89225313Y-63067936D01*
X89270920Y-63067936D01*
X89319339Y-63085559D01*
X89333551Y-63101412D01*
X89350135Y-63126232D01*
X89353790Y-63131701D01*
X89491600Y-63269510D01*
X89547952Y-63307164D01*
X89547955Y-63307166D01*
X89636877Y-63324854D01*
X89636878Y-63324853D01*
X89636879Y-63324854D01*
X89696892Y-63312916D01*
X89725799Y-63307166D01*
X89782154Y-63269511D01*
X90032047Y-63019615D01*
X90078742Y-62997842D01*
X90128513Y-63011177D01*
X90138059Y-63022260D01*
X90138389Y-63021899D01*
X90148793Y-63031383D01*
X90148794Y-63031385D01*
X90182941Y-63062514D01*
X90185435Y-63064896D01*
X90198609Y-63078070D01*
X90199910Y-63078961D01*
X90208085Y-63085435D01*
X90221400Y-63097574D01*
X90229636Y-63105082D01*
X90240832Y-63109419D01*
X90256192Y-63117515D01*
X90266104Y-63124305D01*
X90294486Y-63130980D01*
X90304448Y-63134065D01*
X90331642Y-63144600D01*
X90343653Y-63144600D01*
X90360897Y-63146600D01*
X90372591Y-63149351D01*
X90401472Y-63145321D01*
X90411879Y-63144600D01*
X91125956Y-63144600D01*
X91174375Y-63162223D01*
X91179220Y-63166663D01*
X91197849Y-63185292D01*
X91312694Y-63243809D01*
X91440000Y-63263972D01*
X91567306Y-63243809D01*
X91682151Y-63185292D01*
X91700780Y-63166662D01*
X91747479Y-63144887D01*
X91754044Y-63144600D01*
X92433647Y-63144600D01*
X92448388Y-63147004D01*
X92452535Y-63146812D01*
X92452537Y-63146813D01*
X92498674Y-63144680D01*
X92502153Y-63144600D01*
X92520770Y-63144600D01*
X92520773Y-63144600D01*
X92522317Y-63144310D01*
X92532684Y-63143106D01*
X92561813Y-63141761D01*
X92572797Y-63136910D01*
X92589388Y-63131773D01*
X92593631Y-63130980D01*
X92601192Y-63129567D01*
X92625987Y-63114213D01*
X92635201Y-63109355D01*
X92661886Y-63097575D01*
X92670380Y-63089079D01*
X92683987Y-63078302D01*
X92694200Y-63071979D01*
X92711775Y-63048704D01*
X92718611Y-63040848D01*
X92740635Y-63018825D01*
X92787335Y-62997049D01*
X92837105Y-63010387D01*
X92847162Y-63018826D01*
X93097843Y-63269507D01*
X93097846Y-63269509D01*
X93154201Y-63307166D01*
X93154202Y-63307166D01*
X93162807Y-63312916D01*
X93193275Y-63354470D01*
X93189904Y-63405887D01*
X93154272Y-63443107D01*
X93120957Y-63450875D01*
X91090178Y-63450875D01*
X91086235Y-63450772D01*
X91045555Y-63448639D01*
X91022460Y-63457505D01*
X91011129Y-63460862D01*
X90986924Y-63466007D01*
X90979947Y-63471076D01*
X90962672Y-63480455D01*
X90954621Y-63483545D01*
X90937128Y-63501038D01*
X90928145Y-63508711D01*
X90908121Y-63523260D01*
X90903808Y-63530730D01*
X90891840Y-63546326D01*
X90301754Y-64136412D01*
X90255055Y-64158188D01*
X90230463Y-64156286D01*
X90071476Y-64117100D01*
X89912924Y-64117100D01*
X89758980Y-64155043D01*
X89758978Y-64155043D01*
X89758978Y-64155044D01*
X89752988Y-64158188D01*
X89618584Y-64228729D01*
X89499909Y-64333866D01*
X89409838Y-64464355D01*
X89353616Y-64612601D01*
X89334505Y-64770000D01*
X89353616Y-64927398D01*
X89409838Y-65075644D01*
X89447597Y-65130347D01*
X89495715Y-65200058D01*
X89499909Y-65206133D01*
X89618584Y-65311270D01*
X89618585Y-65311270D01*
X89618587Y-65311272D01*
X89758978Y-65384956D01*
X89912924Y-65422900D01*
X90071476Y-65422900D01*
X90225422Y-65384956D01*
X90365813Y-65311272D01*
X90484492Y-65206132D01*
X90574560Y-65075646D01*
X90630784Y-64927397D01*
X90649895Y-64770000D01*
X90630784Y-64612603D01*
X90604839Y-64544196D01*
X90604148Y-64492675D01*
X90622006Y-64464223D01*
X91155043Y-63931188D01*
X91201743Y-63909412D01*
X91208308Y-63909125D01*
X93268187Y-63909125D01*
X93316606Y-63926748D01*
X93342370Y-63971372D01*
X93333422Y-64022116D01*
X93321451Y-64037716D01*
X93070354Y-64288812D01*
X93023655Y-64310588D01*
X92999063Y-64308686D01*
X92840076Y-64269500D01*
X92681524Y-64269500D01*
X92527580Y-64307443D01*
X92387184Y-64381129D01*
X92268509Y-64486266D01*
X92178438Y-64616755D01*
X92122216Y-64765001D01*
X92103105Y-64922400D01*
X92122216Y-65079798D01*
X92178438Y-65228044D01*
X92268509Y-65358533D01*
X92387184Y-65463670D01*
X92387185Y-65463670D01*
X92387187Y-65463672D01*
X92487794Y-65516475D01*
X92522476Y-65554581D01*
X92524550Y-65606066D01*
X92493045Y-65646839D01*
X92452786Y-65658500D01*
X68935502Y-65658500D01*
X68887083Y-65640877D01*
X68861319Y-65596253D01*
X68870267Y-65545510D01*
X68872869Y-65541324D01*
X68872870Y-65541323D01*
X68894028Y-65509658D01*
X68902900Y-65465057D01*
X68902899Y-64534944D01*
X68897491Y-64507752D01*
X68894028Y-64490341D01*
X68860233Y-64439764D01*
X68809657Y-64405971D01*
X68765059Y-64397100D01*
X67034944Y-64397100D01*
X66990341Y-64405971D01*
X66939764Y-64439766D01*
X66905971Y-64490342D01*
X66897100Y-64534940D01*
X66897100Y-65465055D01*
X66905971Y-65509658D01*
X66927130Y-65541323D01*
X66939377Y-65591373D01*
X66916588Y-65637586D01*
X66869425Y-65658339D01*
X66864498Y-65658500D01*
X66496827Y-65658500D01*
X66448408Y-65640877D01*
X66422644Y-65596253D01*
X66421500Y-65583173D01*
X66421500Y-62065055D01*
X66897100Y-62065055D01*
X66905971Y-62109658D01*
X66939766Y-62160235D01*
X66980617Y-62187530D01*
X66990342Y-62194028D01*
X67034943Y-62202900D01*
X67570548Y-62202899D01*
X67618967Y-62220522D01*
X67644731Y-62265145D01*
X67645875Y-62278226D01*
X67645875Y-62942480D01*
X67628252Y-62990899D01*
X67623813Y-62995744D01*
X67541708Y-63077849D01*
X67483191Y-63192693D01*
X67471024Y-63269513D01*
X67463028Y-63320000D01*
X67483191Y-63447306D01*
X67541708Y-63562151D01*
X67632849Y-63653292D01*
X67747694Y-63711809D01*
X67875000Y-63731972D01*
X67913007Y-63725952D01*
X67963586Y-63735782D01*
X67978055Y-63747087D01*
X68262741Y-64031773D01*
X68265455Y-64034633D01*
X68292713Y-64064905D01*
X68292715Y-64064907D01*
X68315321Y-64074972D01*
X68325687Y-64080600D01*
X68346454Y-64094086D01*
X68354973Y-64095435D01*
X68373822Y-64101018D01*
X68381698Y-64104525D01*
X68406435Y-64104525D01*
X68418217Y-64105452D01*
X68421981Y-64106048D01*
X68442659Y-64109323D01*
X68450986Y-64107091D01*
X68470481Y-64104525D01*
X71243893Y-64104525D01*
X71292312Y-64122148D01*
X71297156Y-64126587D01*
X71815643Y-64645075D01*
X72321792Y-65151224D01*
X72324506Y-65154084D01*
X72351764Y-65184356D01*
X72351766Y-65184358D01*
X72374374Y-65194424D01*
X72384740Y-65200052D01*
X72405506Y-65213537D01*
X72414025Y-65214886D01*
X72432875Y-65220470D01*
X72440749Y-65223976D01*
X72465485Y-65223976D01*
X72477267Y-65224903D01*
X72483074Y-65225822D01*
X72501710Y-65228774D01*
X72510036Y-65226542D01*
X72529532Y-65223976D01*
X86660571Y-65223976D01*
X86664513Y-65224079D01*
X86705193Y-65226211D01*
X86728286Y-65217345D01*
X86739609Y-65213990D01*
X86763825Y-65208844D01*
X86770801Y-65203774D01*
X86788085Y-65194390D01*
X86796127Y-65191304D01*
X86813619Y-65173811D01*
X86822604Y-65166137D01*
X86842626Y-65151591D01*
X86846938Y-65144120D01*
X86858906Y-65128523D01*
X87862590Y-64124840D01*
X87865433Y-64122143D01*
X87871034Y-64117100D01*
X87895707Y-64094885D01*
X87905770Y-64072281D01*
X87911404Y-64061905D01*
X87924886Y-64041146D01*
X87926235Y-64032627D01*
X87931821Y-64013771D01*
X87935325Y-64005902D01*
X87935325Y-63981165D01*
X87936252Y-63969383D01*
X87937764Y-63959835D01*
X87940123Y-63944941D01*
X87938693Y-63939605D01*
X87937892Y-63936614D01*
X87935325Y-63917118D01*
X87935325Y-62921886D01*
X87952948Y-62873467D01*
X87957377Y-62868633D01*
X88484283Y-62341726D01*
X88530982Y-62319951D01*
X88580753Y-62333287D01*
X88597842Y-62357693D01*
X88600704Y-62355781D01*
X88609027Y-62368238D01*
X88609028Y-62368239D01*
X88610561Y-62370533D01*
X88646683Y-62424594D01*
X88784492Y-62562402D01*
X88787545Y-62564442D01*
X88814780Y-62582640D01*
X88845249Y-62624193D01*
X88848258Y-62645272D01*
X88848258Y-62690880D01*
X88887940Y-62799906D01*
X88909102Y-62827485D01*
X89725266Y-62011323D01*
X90361823Y-61374764D01*
X90361054Y-61363024D01*
X90347263Y-61341378D01*
X90353987Y-61290292D01*
X90365136Y-61274327D01*
X90394067Y-61242592D01*
X90400733Y-61225383D01*
X90408828Y-61210025D01*
X90412943Y-61204019D01*
X90417822Y-61183267D01*
X90420905Y-61173313D01*
X90435300Y-61136158D01*
X90435300Y-61117697D01*
X90437301Y-61100451D01*
X90438966Y-61093373D01*
X90436022Y-61072267D01*
X90435300Y-61061861D01*
X90435300Y-61051344D01*
X90452923Y-61002925D01*
X90457365Y-60998078D01*
X90463291Y-60992152D01*
X90463292Y-60992151D01*
X90521809Y-60877306D01*
X90541972Y-60750000D01*
X90521809Y-60622694D01*
X90463292Y-60507849D01*
X90372151Y-60416708D01*
X90257306Y-60358191D01*
X90130000Y-60338028D01*
X90129999Y-60338028D01*
X90002693Y-60358191D01*
X89887847Y-60416709D01*
X89796709Y-60507847D01*
X89738191Y-60622693D01*
X89738190Y-60622694D01*
X89738191Y-60622694D01*
X89724807Y-60707202D01*
X89724396Y-60709794D01*
X89699415Y-60754860D01*
X89651310Y-60773326D01*
X89608146Y-60760642D01*
X89549023Y-60721136D01*
X89541175Y-60719575D01*
X89496850Y-60710758D01*
X89452801Y-60684028D01*
X89437669Y-60651577D01*
X89427291Y-60599404D01*
X89389636Y-60543049D01*
X89355274Y-60508687D01*
X89251824Y-60405238D01*
X89183012Y-60359258D01*
X89184986Y-60356302D01*
X89163461Y-60343231D01*
X89146913Y-60294434D01*
X89165604Y-60246416D01*
X89168943Y-60242852D01*
X92066918Y-57344877D01*
X92113616Y-57323102D01*
X92131965Y-57323743D01*
X92179997Y-57331351D01*
X92179998Y-57331350D01*
X92180000Y-57331351D01*
X92307306Y-57311188D01*
X92422151Y-57252671D01*
X92513292Y-57161530D01*
X92571809Y-57046685D01*
X92591972Y-56919379D01*
X92571809Y-56792073D01*
X92513292Y-56677228D01*
X92422151Y-56586087D01*
X92307306Y-56527570D01*
X92180000Y-56507407D01*
X92052693Y-56527570D01*
X91937847Y-56586088D01*
X91846709Y-56677226D01*
X91788191Y-56792072D01*
X91768028Y-56919379D01*
X91772459Y-56947364D01*
X91762625Y-56997944D01*
X91751323Y-57012409D01*
X91499579Y-57264153D01*
X91452880Y-57285929D01*
X91403109Y-57272593D01*
X91379199Y-57245088D01*
X91336261Y-57160818D01*
X91245120Y-57069677D01*
X91130275Y-57011160D01*
X91002969Y-56990997D01*
X90875662Y-57011160D01*
X90760816Y-57069678D01*
X90669678Y-57160816D01*
X90611160Y-57275662D01*
X90590997Y-57402969D01*
X90593560Y-57419156D01*
X90583727Y-57469736D01*
X90572424Y-57484202D01*
X90286919Y-57769707D01*
X90240220Y-57791483D01*
X90190449Y-57778147D01*
X90166540Y-57750644D01*
X90115069Y-57649626D01*
X90023928Y-57558485D01*
X89909083Y-57499968D01*
X89781777Y-57479805D01*
X89654470Y-57499968D01*
X89539624Y-57558486D01*
X89448486Y-57649624D01*
X89389968Y-57764470D01*
X89369805Y-57891777D01*
X89375824Y-57929786D01*
X89365991Y-57980366D01*
X89354688Y-57994832D01*
X88137821Y-59211700D01*
X88091122Y-59233476D01*
X88041351Y-59220140D01*
X88024263Y-59195735D01*
X88021401Y-59197648D01*
X88008051Y-59177668D01*
X87975422Y-59128835D01*
X87943923Y-59097336D01*
X87837610Y-58991024D01*
X87781258Y-58953370D01*
X87781257Y-58953369D01*
X87781256Y-58953369D01*
X87729083Y-58942991D01*
X87685034Y-58916261D01*
X87669902Y-58883810D01*
X87659524Y-58831637D01*
X87621869Y-58775282D01*
X87587616Y-58741029D01*
X87484057Y-58637471D01*
X87415245Y-58591491D01*
X87417219Y-58588536D01*
X87395708Y-58575482D01*
X87379147Y-58526690D01*
X87397823Y-58478667D01*
X87401177Y-58475086D01*
X88955934Y-56920329D01*
X89002632Y-56898554D01*
X89043391Y-56906476D01*
X89113126Y-56942008D01*
X89240432Y-56962171D01*
X89367738Y-56942008D01*
X89482583Y-56883491D01*
X89573724Y-56792350D01*
X89632241Y-56677505D01*
X89652404Y-56550199D01*
X89632241Y-56422893D01*
X89573724Y-56308048D01*
X89482583Y-56216907D01*
X89367738Y-56158390D01*
X89366456Y-56158187D01*
X89283191Y-56144999D01*
X89238125Y-56120018D01*
X89219659Y-56071913D01*
X89220576Y-56058814D01*
X89221972Y-56050000D01*
X89218204Y-56026210D01*
X89201809Y-55922694D01*
X89143292Y-55807849D01*
X89052151Y-55716708D01*
X88937306Y-55658191D01*
X88810000Y-55638028D01*
X88682693Y-55658191D01*
X88567847Y-55716709D01*
X88476709Y-55807847D01*
X88418191Y-55922693D01*
X88398028Y-56050000D01*
X88402014Y-56075167D01*
X88392182Y-56125747D01*
X88380878Y-56140214D01*
X87785530Y-56735562D01*
X87738831Y-56757338D01*
X87689060Y-56744002D01*
X87659506Y-56701794D01*
X87657869Y-56694097D01*
X87641809Y-56592694D01*
X87583292Y-56477849D01*
X87492151Y-56386708D01*
X87377306Y-56328191D01*
X87250000Y-56308028D01*
X87122693Y-56328191D01*
X87007849Y-56386708D01*
X86925744Y-56468813D01*
X86879045Y-56490588D01*
X86872480Y-56490875D01*
X86616134Y-56490875D01*
X86567715Y-56473252D01*
X86541951Y-56428628D01*
X86550899Y-56377885D01*
X86562870Y-56362284D01*
X87581841Y-55343313D01*
X88611959Y-54313194D01*
X88614802Y-54310497D01*
X88626409Y-54300046D01*
X88645086Y-54283230D01*
X88655150Y-54260624D01*
X88660784Y-54250248D01*
X88674265Y-54229491D01*
X88675614Y-54220972D01*
X88681200Y-54202116D01*
X88684704Y-54194247D01*
X88684704Y-54169510D01*
X88685631Y-54157728D01*
X88686403Y-54152851D01*
X88689502Y-54133286D01*
X88687271Y-54124959D01*
X88684704Y-54105463D01*
X88684704Y-51943650D01*
X88697399Y-51901800D01*
X88720184Y-51867703D01*
X88730561Y-51815530D01*
X88757292Y-51771481D01*
X88789742Y-51756349D01*
X88841916Y-51745971D01*
X88898271Y-51708316D01*
X89036080Y-51570505D01*
X89037095Y-51568987D01*
X89048632Y-51551719D01*
X89073737Y-51514150D01*
X89084115Y-51461975D01*
X89110845Y-51417928D01*
X89143294Y-51402795D01*
X89195470Y-51392417D01*
X89251825Y-51354762D01*
X89389634Y-51216951D01*
X89392865Y-51212116D01*
X89435616Y-51148138D01*
X89438569Y-51150111D01*
X89451606Y-51128616D01*
X89500394Y-51112040D01*
X89548422Y-51130703D01*
X89552026Y-51134077D01*
X89625126Y-51207177D01*
X89646902Y-51253874D01*
X89647189Y-51260440D01*
X89647189Y-51395081D01*
X89647086Y-51399023D01*
X89644953Y-51439703D01*
X89653818Y-51462796D01*
X89657174Y-51474126D01*
X89662320Y-51498334D01*
X89667389Y-51505310D01*
X89676773Y-51522593D01*
X89679860Y-51530637D01*
X89697349Y-51548125D01*
X89705026Y-51557113D01*
X89719574Y-51577136D01*
X89727041Y-51581447D01*
X89742641Y-51593417D01*
X89956213Y-51806990D01*
X90169040Y-52019817D01*
X90171754Y-52022677D01*
X90188497Y-52041271D01*
X90199014Y-52052951D01*
X90221622Y-52063017D01*
X90231988Y-52068645D01*
X90252754Y-52082130D01*
X90253760Y-52082289D01*
X90295240Y-52103425D01*
X90344716Y-52152900D01*
X90388552Y-52196736D01*
X90503397Y-52255253D01*
X90630703Y-52275416D01*
X90758009Y-52255253D01*
X90872854Y-52196736D01*
X90963995Y-52105595D01*
X91022512Y-51990750D01*
X91042675Y-51863444D01*
X91022512Y-51736138D01*
X90963995Y-51621293D01*
X90872854Y-51530152D01*
X90762251Y-51473796D01*
X90727111Y-51436112D01*
X90724415Y-51384656D01*
X90729334Y-51372481D01*
X90734420Y-51362500D01*
X90750748Y-51330455D01*
X90770911Y-51203149D01*
X90752771Y-51088619D01*
X90762603Y-51038042D01*
X90802647Y-51005615D01*
X90815379Y-51002440D01*
X90858744Y-50995572D01*
X90973589Y-50937055D01*
X91064730Y-50845914D01*
X91123247Y-50731069D01*
X91143410Y-50603763D01*
X91123247Y-50476457D01*
X91064730Y-50361612D01*
X91064728Y-50361610D01*
X91059313Y-50350982D01*
X91059848Y-50350709D01*
X91043333Y-50315292D01*
X91056669Y-50265521D01*
X91065109Y-50255463D01*
X91065109Y-50255462D01*
X91131202Y-50189370D01*
X91186227Y-50081378D01*
X91223908Y-50046240D01*
X91275364Y-50043543D01*
X91306605Y-50062315D01*
X92270653Y-51026363D01*
X92273367Y-51029223D01*
X92294594Y-51052797D01*
X92300636Y-51059507D01*
X92323238Y-51069570D01*
X92333615Y-51075204D01*
X92354375Y-51088686D01*
X92362891Y-51090034D01*
X92381743Y-51095618D01*
X92389619Y-51099125D01*
X92414356Y-51099125D01*
X92426138Y-51100052D01*
X92429902Y-51100648D01*
X92450580Y-51103923D01*
X92458907Y-51101691D01*
X92478402Y-51099125D01*
X92916695Y-51099125D01*
X92965114Y-51116748D01*
X92990878Y-51161372D01*
X92981930Y-51212116D01*
X92969959Y-51227716D01*
X92966127Y-51231547D01*
X92907609Y-51346393D01*
X92891944Y-51445300D01*
X92887446Y-51473700D01*
X92907609Y-51601006D01*
X92966126Y-51715851D01*
X93057267Y-51806992D01*
X93172112Y-51865509D01*
X93227998Y-51874360D01*
X93273062Y-51899339D01*
X93291529Y-51947444D01*
X93290613Y-51960538D01*
X93285552Y-51992496D01*
X93280242Y-52026024D01*
X93278028Y-52040000D01*
X93298191Y-52167306D01*
X93356708Y-52282151D01*
X93447849Y-52373292D01*
X93562694Y-52431809D01*
X93690000Y-52451972D01*
X93817306Y-52431809D01*
X93932151Y-52373292D01*
X94023292Y-52282151D01*
X94081809Y-52167306D01*
X94101972Y-52040000D01*
X94098447Y-52017744D01*
X94108277Y-51967166D01*
X94148320Y-51934738D01*
X94199839Y-51935637D01*
X94226110Y-51952697D01*
X94335282Y-52061868D01*
X94391634Y-52099522D01*
X94391637Y-52099524D01*
X94443809Y-52109901D01*
X94487859Y-52136632D01*
X94502990Y-52169082D01*
X94513369Y-52221256D01*
X94536084Y-52255252D01*
X94551024Y-52277611D01*
X94688835Y-52415421D01*
X94743535Y-52451971D01*
X94745190Y-52453077D01*
X94797362Y-52463454D01*
X94841412Y-52490185D01*
X94856544Y-52522637D01*
X94866922Y-52574809D01*
X94904578Y-52631165D01*
X95042389Y-52768975D01*
X95085869Y-52798028D01*
X95098744Y-52806631D01*
X95150916Y-52817008D01*
X95194966Y-52843739D01*
X95210097Y-52876189D01*
X95220476Y-52928363D01*
X95242187Y-52960856D01*
X95258131Y-52984718D01*
X95395942Y-53122528D01*
X95464755Y-53168509D01*
X95462780Y-53171464D01*
X95484282Y-53184508D01*
X95500850Y-53233298D01*
X95482181Y-53281324D01*
X95478805Y-53284928D01*
X95362431Y-53401303D01*
X95315733Y-53423079D01*
X95309167Y-53423366D01*
X94668573Y-53423366D01*
X94664630Y-53423263D01*
X94623949Y-53421130D01*
X94600859Y-53429994D01*
X94589530Y-53433350D01*
X94565318Y-53438497D01*
X94558339Y-53443568D01*
X94541060Y-53452950D01*
X94533016Y-53456037D01*
X94515526Y-53473527D01*
X94506544Y-53481199D01*
X94486517Y-53495750D01*
X94482205Y-53503220D01*
X94470236Y-53518817D01*
X93742105Y-54246948D01*
X93695406Y-54268724D01*
X93677058Y-54268084D01*
X93630000Y-54260631D01*
X93502693Y-54280794D01*
X93387847Y-54339312D01*
X93296709Y-54430450D01*
X93238191Y-54545296D01*
X93219985Y-54660249D01*
X93218028Y-54672603D01*
X93238191Y-54799909D01*
X93296708Y-54914754D01*
X93387849Y-55005895D01*
X93502694Y-55064412D01*
X93630000Y-55084575D01*
X93757306Y-55064412D01*
X93872151Y-55005895D01*
X93963292Y-54914754D01*
X94021809Y-54799909D01*
X94041972Y-54672603D01*
X94037385Y-54643643D01*
X94047215Y-54593064D01*
X94058516Y-54578599D01*
X94733438Y-53903679D01*
X94780138Y-53881903D01*
X94786703Y-53881616D01*
X94853177Y-53881616D01*
X94901596Y-53899239D01*
X94927360Y-53943863D01*
X94920293Y-53991141D01*
X94883592Y-54063168D01*
X94883591Y-54063170D01*
X94883591Y-54063172D01*
X94870917Y-54143191D01*
X94865610Y-54176704D01*
X94863428Y-54190478D01*
X94883591Y-54317784D01*
X94942108Y-54432629D01*
X95033249Y-54523770D01*
X95148094Y-54582287D01*
X95192706Y-54589352D01*
X95237769Y-54614331D01*
X95256236Y-54662435D01*
X95239461Y-54711155D01*
X95234184Y-54717015D01*
X95200136Y-54751063D01*
X95158657Y-54772198D01*
X95057696Y-54788190D01*
X94942847Y-54846709D01*
X94851709Y-54937847D01*
X94793191Y-55052693D01*
X94787533Y-55088419D01*
X94773028Y-55180000D01*
X94793191Y-55307306D01*
X94851708Y-55422151D01*
X94942849Y-55513292D01*
X95057694Y-55571809D01*
X95185000Y-55591972D01*
X95312306Y-55571809D01*
X95427151Y-55513292D01*
X95518292Y-55422151D01*
X95576809Y-55307306D01*
X95592799Y-55206340D01*
X95613933Y-55164864D01*
X96043268Y-54735530D01*
X96089968Y-54713754D01*
X96096533Y-54713467D01*
X96738318Y-54713467D01*
X96753059Y-54715871D01*
X96757206Y-54715679D01*
X96757208Y-54715680D01*
X96803345Y-54713547D01*
X96806824Y-54713467D01*
X96832430Y-54713467D01*
X96832430Y-54714964D01*
X96875311Y-54722062D01*
X96908844Y-54761185D01*
X96909117Y-54761924D01*
X96913601Y-54774242D01*
X96934764Y-54801823D01*
X97750928Y-53985661D01*
X98387485Y-53349102D01*
X98359906Y-53327940D01*
X98250881Y-53288258D01*
X98205274Y-53288258D01*
X98156855Y-53270635D01*
X98142642Y-53254781D01*
X98122405Y-53224494D01*
X98090905Y-53192994D01*
X97984593Y-53086683D01*
X97915781Y-53040703D01*
X97917755Y-53037747D01*
X97896230Y-53024676D01*
X97879682Y-52975879D01*
X97898373Y-52927861D01*
X97901690Y-52924319D01*
X98174825Y-52651186D01*
X98221523Y-52629412D01*
X98228088Y-52629125D01*
X100422022Y-52629125D01*
X100425964Y-52629228D01*
X100466644Y-52631360D01*
X100489737Y-52622494D01*
X100501060Y-52619139D01*
X100525276Y-52613993D01*
X100532252Y-52608923D01*
X100549536Y-52599539D01*
X100557578Y-52596453D01*
X100575070Y-52578960D01*
X100584055Y-52571286D01*
X100604077Y-52556740D01*
X100608389Y-52549269D01*
X100620357Y-52533672D01*
X103883834Y-49270195D01*
X103930532Y-49248420D01*
X103944480Y-49248496D01*
X103997125Y-49253680D01*
X104140000Y-49267753D01*
X104320426Y-49249982D01*
X104336604Y-49248389D01*
X104525645Y-49191044D01*
X104525647Y-49191042D01*
X104525650Y-49191042D01*
X104699878Y-49097916D01*
X104852589Y-48972589D01*
X104977916Y-48819878D01*
X105071042Y-48645650D01*
X105071288Y-48644841D01*
X105128389Y-48456604D01*
X105140672Y-48331889D01*
X105147753Y-48260000D01*
X105147753Y-48259999D01*
X105672247Y-48259999D01*
X105691610Y-48456604D01*
X105748955Y-48645645D01*
X105805766Y-48751931D01*
X105842084Y-48819878D01*
X105967411Y-48972589D01*
X106120122Y-49097916D01*
X106254343Y-49169658D01*
X106294354Y-49191044D01*
X106483395Y-49248389D01*
X106514394Y-49251442D01*
X106680000Y-49267753D01*
X106858976Y-49250125D01*
X106876604Y-49248389D01*
X107065645Y-49191044D01*
X107065647Y-49191042D01*
X107065650Y-49191042D01*
X107239878Y-49097916D01*
X107392589Y-48972589D01*
X107517916Y-48819878D01*
X107611042Y-48645650D01*
X107611288Y-48644841D01*
X107668389Y-48456604D01*
X107680672Y-48331889D01*
X107687753Y-48260000D01*
X107668389Y-48063397D01*
X107668389Y-48063395D01*
X107611044Y-47874354D01*
X107560270Y-47779362D01*
X107517916Y-47700122D01*
X107392589Y-47547411D01*
X107239878Y-47422084D01*
X107135997Y-47366559D01*
X107065645Y-47328955D01*
X106876604Y-47271610D01*
X106680000Y-47252247D01*
X106483395Y-47271610D01*
X106294354Y-47328955D01*
X106120121Y-47422084D01*
X105967411Y-47547411D01*
X105842084Y-47700121D01*
X105748955Y-47874354D01*
X105691610Y-48063395D01*
X105672247Y-48259999D01*
X105147753Y-48259999D01*
X105128389Y-48063397D01*
X105128389Y-48063395D01*
X105071044Y-47874354D01*
X105020270Y-47779362D01*
X104977916Y-47700122D01*
X104852589Y-47547411D01*
X104699878Y-47422084D01*
X104595997Y-47366559D01*
X104525645Y-47328955D01*
X104336604Y-47271610D01*
X104140000Y-47252247D01*
X103943395Y-47271610D01*
X103754354Y-47328955D01*
X103580121Y-47422084D01*
X103427411Y-47547411D01*
X103302084Y-47700121D01*
X103208955Y-47874354D01*
X103151610Y-48063395D01*
X103132247Y-48259999D01*
X103151610Y-48456604D01*
X103208955Y-48645645D01*
X103236960Y-48698039D01*
X103297056Y-48810472D01*
X103302086Y-48819881D01*
X103431864Y-48978015D01*
X103448959Y-49026623D01*
X103430808Y-49074848D01*
X103426900Y-49079066D01*
X101620988Y-50884978D01*
X101574289Y-50906754D01*
X101524518Y-50893418D01*
X101494964Y-50851210D01*
X101492946Y-50822638D01*
X101495695Y-50800000D01*
X101476584Y-50642603D01*
X101458273Y-50594322D01*
X101420361Y-50494355D01*
X101373295Y-50426169D01*
X101330292Y-50363868D01*
X101330290Y-50363866D01*
X101211615Y-50258729D01*
X101200437Y-50252862D01*
X101071222Y-50185044D01*
X101071219Y-50185043D01*
X100917276Y-50147100D01*
X100758724Y-50147100D01*
X100604780Y-50185043D01*
X100464384Y-50258729D01*
X100345709Y-50363866D01*
X100255638Y-50494355D01*
X100199416Y-50642601D01*
X100180305Y-50800000D01*
X100199416Y-50957398D01*
X100255638Y-51105644D01*
X100300356Y-51170429D01*
X100340550Y-51228660D01*
X100345709Y-51236133D01*
X100464384Y-51341270D01*
X100464385Y-51341270D01*
X100464387Y-51341272D01*
X100604778Y-51414956D01*
X100758724Y-51452900D01*
X100871212Y-51452900D01*
X100919631Y-51470523D01*
X100945395Y-51515147D01*
X100936447Y-51565891D01*
X100924476Y-51581491D01*
X100357156Y-52148812D01*
X100310457Y-52170588D01*
X100303892Y-52170875D01*
X98109958Y-52170875D01*
X98106015Y-52170772D01*
X98065334Y-52168639D01*
X98042244Y-52177503D01*
X98030915Y-52180859D01*
X98006703Y-52186006D01*
X97999724Y-52191077D01*
X97982445Y-52200459D01*
X97974401Y-52203546D01*
X97956911Y-52221036D01*
X97947929Y-52228708D01*
X97927902Y-52243259D01*
X97923590Y-52250729D01*
X97911621Y-52266326D01*
X97577697Y-52600250D01*
X97530998Y-52622026D01*
X97481227Y-52608690D01*
X97464140Y-52584286D01*
X97461277Y-52586200D01*
X97451312Y-52571286D01*
X97415298Y-52517387D01*
X97383799Y-52485888D01*
X97277486Y-52379576D01*
X97221132Y-52341920D01*
X97168958Y-52331542D01*
X97124908Y-52304811D01*
X97109777Y-52272363D01*
X97099399Y-52220188D01*
X97061744Y-52163833D01*
X97030245Y-52132334D01*
X97025627Y-52127716D01*
X97003851Y-52081017D01*
X97017187Y-52031246D01*
X97059395Y-52001692D01*
X97078891Y-51999125D01*
X97492022Y-51999125D01*
X97495964Y-51999228D01*
X97536644Y-52001360D01*
X97559737Y-51992494D01*
X97571060Y-51989139D01*
X97595276Y-51983993D01*
X97602252Y-51978923D01*
X97619536Y-51969539D01*
X97627578Y-51966453D01*
X97645070Y-51948960D01*
X97654055Y-51941286D01*
X97674077Y-51926740D01*
X97678389Y-51919269D01*
X97690357Y-51903672D01*
X98366390Y-51227640D01*
X98369233Y-51224943D01*
X98371752Y-51222675D01*
X98399507Y-51197685D01*
X98400474Y-51195512D01*
X98436267Y-51158447D01*
X98487511Y-51153060D01*
X98530229Y-51181873D01*
X98531259Y-51183327D01*
X98564545Y-51231549D01*
X98567709Y-51236133D01*
X98686384Y-51341270D01*
X98686385Y-51341270D01*
X98686387Y-51341272D01*
X98826778Y-51414956D01*
X98980724Y-51452900D01*
X99139276Y-51452900D01*
X99293222Y-51414956D01*
X99433613Y-51341272D01*
X99552292Y-51236132D01*
X99642360Y-51105646D01*
X99643014Y-51103923D01*
X99661463Y-51055275D01*
X99698584Y-50957397D01*
X99717695Y-50800000D01*
X99698584Y-50642603D01*
X99680273Y-50594322D01*
X99642361Y-50494355D01*
X99595295Y-50426169D01*
X99552292Y-50363868D01*
X99552290Y-50363866D01*
X99433615Y-50258729D01*
X99422437Y-50252862D01*
X99293222Y-50185044D01*
X99293219Y-50185043D01*
X99139276Y-50147100D01*
X98980724Y-50147100D01*
X98826780Y-50185043D01*
X98686384Y-50258729D01*
X98564403Y-50366795D01*
X98516474Y-50385712D01*
X98467599Y-50369395D01*
X98440647Y-50325479D01*
X98439125Y-50310412D01*
X98439125Y-49236107D01*
X98456748Y-49187688D01*
X98461188Y-49182843D01*
X98490591Y-49153440D01*
X98537290Y-49131664D01*
X98579363Y-49140270D01*
X98634343Y-49169658D01*
X98674354Y-49191044D01*
X98863395Y-49248389D01*
X98894394Y-49251442D01*
X99060000Y-49267753D01*
X99238976Y-49250125D01*
X99256604Y-49248389D01*
X99445645Y-49191044D01*
X99445647Y-49191042D01*
X99445650Y-49191042D01*
X99619878Y-49097916D01*
X99772589Y-48972589D01*
X99897916Y-48819878D01*
X99991042Y-48645650D01*
X99991288Y-48644841D01*
X100048389Y-48456604D01*
X100060672Y-48331889D01*
X100067753Y-48260000D01*
X100048389Y-48063397D01*
X100048389Y-48063395D01*
X99991044Y-47874354D01*
X99940270Y-47779362D01*
X99897916Y-47700122D01*
X99772589Y-47547411D01*
X99619878Y-47422084D01*
X99580214Y-47400883D01*
X99545822Y-47362518D01*
X99544136Y-47311019D01*
X99575947Y-47270484D01*
X99615725Y-47259125D01*
X100243893Y-47259125D01*
X100292312Y-47276748D01*
X100297157Y-47281188D01*
X100706559Y-47690590D01*
X100728335Y-47737289D01*
X100719728Y-47779362D01*
X100668956Y-47874351D01*
X100611610Y-48063395D01*
X100592247Y-48260000D01*
X100611610Y-48456604D01*
X100668955Y-48645645D01*
X100725766Y-48751931D01*
X100762084Y-48819878D01*
X100887411Y-48972589D01*
X101040122Y-49097916D01*
X101174343Y-49169658D01*
X101214354Y-49191044D01*
X101403395Y-49248389D01*
X101434394Y-49251442D01*
X101600000Y-49267753D01*
X101780426Y-49249982D01*
X101796604Y-49248389D01*
X101985645Y-49191044D01*
X101985647Y-49191042D01*
X101985650Y-49191042D01*
X102159878Y-49097916D01*
X102312589Y-48972589D01*
X102437916Y-48819878D01*
X102531042Y-48645650D01*
X102531288Y-48644841D01*
X102588389Y-48456604D01*
X102600672Y-48331889D01*
X102607753Y-48260000D01*
X102588389Y-48063397D01*
X102588389Y-48063395D01*
X102531044Y-47874354D01*
X102480270Y-47779362D01*
X102437916Y-47700122D01*
X102312589Y-47547411D01*
X102159878Y-47422084D01*
X102055997Y-47366559D01*
X101985645Y-47328955D01*
X101796604Y-47271610D01*
X101600000Y-47252247D01*
X101403395Y-47271610D01*
X101214351Y-47328956D01*
X101119363Y-47379728D01*
X101068354Y-47387010D01*
X101030591Y-47366559D01*
X100537658Y-46873626D01*
X100534943Y-46870766D01*
X100507684Y-46840492D01*
X100485083Y-46830429D01*
X100474700Y-46824791D01*
X100453945Y-46811313D01*
X100445426Y-46809964D01*
X100426580Y-46804381D01*
X100418704Y-46800875D01*
X100418702Y-46800875D01*
X100393965Y-46800875D01*
X100382183Y-46799948D01*
X100357741Y-46796077D01*
X100349413Y-46798308D01*
X100329919Y-46800875D01*
X95600728Y-46800875D01*
X95596785Y-46800772D01*
X95556105Y-46798639D01*
X95533010Y-46807505D01*
X95521679Y-46810862D01*
X95497474Y-46816007D01*
X95490497Y-46821076D01*
X95473222Y-46830455D01*
X95465171Y-46833545D01*
X95447678Y-46851038D01*
X95438695Y-46858711D01*
X95418671Y-46873260D01*
X95414358Y-46880730D01*
X95402390Y-46896326D01*
X95264205Y-47034511D01*
X95261347Y-47037224D01*
X95231074Y-47064483D01*
X95221012Y-47087081D01*
X95215376Y-47097462D01*
X95201894Y-47118223D01*
X95200545Y-47126743D01*
X95194963Y-47145588D01*
X95191456Y-47153466D01*
X95191456Y-47178203D01*
X95190529Y-47189985D01*
X95186658Y-47214427D01*
X95188889Y-47222753D01*
X95191456Y-47242250D01*
X95191456Y-50147044D01*
X95173833Y-50195463D01*
X95129209Y-50221227D01*
X95101432Y-50220923D01*
X95047638Y-50210222D01*
X95003588Y-50183491D01*
X94988457Y-50151043D01*
X94978079Y-50098868D01*
X94940424Y-50042513D01*
X94921327Y-50023416D01*
X94802612Y-49904702D01*
X94746260Y-49867048D01*
X94746259Y-49867047D01*
X94746258Y-49867047D01*
X94694085Y-49856669D01*
X94650036Y-49829939D01*
X94634904Y-49797488D01*
X94624526Y-49745315D01*
X94586871Y-49688960D01*
X94512002Y-49614092D01*
X94462978Y-49565068D01*
X94441202Y-49518369D01*
X94454538Y-49468598D01*
X94496746Y-49439044D01*
X94528021Y-49437404D01*
X94620000Y-49451972D01*
X94747306Y-49431809D01*
X94862151Y-49373292D01*
X94953292Y-49282151D01*
X95011809Y-49167306D01*
X95031972Y-49040000D01*
X95011809Y-48912694D01*
X94953292Y-48797849D01*
X94862151Y-48706708D01*
X94747306Y-48648191D01*
X94620000Y-48628028D01*
X94492693Y-48648191D01*
X94377848Y-48706707D01*
X94367507Y-48717049D01*
X94332944Y-48733164D01*
X94332976Y-48733235D01*
X94329546Y-48734749D01*
X94320807Y-48738824D01*
X94320228Y-48738862D01*
X94313441Y-48741859D01*
X94296862Y-48746992D01*
X94278713Y-48750384D01*
X94244836Y-48771360D01*
X94235612Y-48776223D01*
X94216115Y-48784832D01*
X94210963Y-48789984D01*
X94197361Y-48800757D01*
X94181670Y-48810472D01*
X94157660Y-48842266D01*
X94150813Y-48850133D01*
X94073981Y-48926965D01*
X94027282Y-48948741D01*
X93977511Y-48935405D01*
X93974754Y-48932766D01*
X93970896Y-48932513D01*
X93207997Y-49695412D01*
X93161298Y-49717188D01*
X93111527Y-49703852D01*
X93101469Y-49695412D01*
X93028392Y-49622335D01*
X93006616Y-49575636D01*
X93019952Y-49525865D01*
X93028392Y-49515807D01*
X93791291Y-48752908D01*
X93763712Y-48731746D01*
X93654687Y-48692064D01*
X93609080Y-48692064D01*
X93560661Y-48674441D01*
X93546448Y-48658587D01*
X93526211Y-48628300D01*
X93498355Y-48600444D01*
X93388399Y-48490489D01*
X93332047Y-48452835D01*
X93332046Y-48452834D01*
X93332045Y-48452834D01*
X93272814Y-48441052D01*
X93243120Y-48435145D01*
X93154201Y-48452833D01*
X93097845Y-48490489D01*
X92847162Y-48741173D01*
X92800463Y-48762949D01*
X92750692Y-48749613D01*
X92740634Y-48741173D01*
X92719563Y-48720102D01*
X92697787Y-48673403D01*
X92697500Y-48666838D01*
X92697500Y-47976344D01*
X92715123Y-47927925D01*
X92719565Y-47923078D01*
X92725491Y-47917152D01*
X92737329Y-47893919D01*
X92784009Y-47802306D01*
X92804172Y-47675000D01*
X92784009Y-47547694D01*
X92725492Y-47432849D01*
X92634351Y-47341708D01*
X92519506Y-47283191D01*
X92392200Y-47263028D01*
X92264893Y-47283191D01*
X92150047Y-47341709D01*
X92058909Y-47432847D01*
X92000391Y-47547693D01*
X92000390Y-47547694D01*
X92000391Y-47547694D01*
X91980228Y-47675000D01*
X92000391Y-47802306D01*
X92039758Y-47879568D01*
X92058909Y-47917152D01*
X92064837Y-47923080D01*
X92086613Y-47969779D01*
X92086900Y-47976344D01*
X92086900Y-48834829D01*
X92102584Y-48918735D01*
X92162671Y-49015779D01*
X92260492Y-49089650D01*
X92268361Y-49096498D01*
X92326835Y-49154972D01*
X92348611Y-49201671D01*
X92335275Y-49251442D01*
X92326835Y-49261500D01*
X92076151Y-49512184D01*
X92038497Y-49568536D01*
X92038496Y-49568538D01*
X92038496Y-49568539D01*
X92036947Y-49576326D01*
X92020807Y-49657463D01*
X92038495Y-49746382D01*
X92076151Y-49802738D01*
X92213960Y-49940546D01*
X92227399Y-49949526D01*
X92244248Y-49960784D01*
X92274717Y-50002337D01*
X92277726Y-50023416D01*
X92277726Y-50069024D01*
X92317408Y-50178050D01*
X92345325Y-50214433D01*
X92348577Y-50218141D01*
X92505664Y-50375228D01*
X92509372Y-50378480D01*
X92545755Y-50406397D01*
X92654781Y-50446080D01*
X92700388Y-50446080D01*
X92748807Y-50463703D01*
X92763020Y-50479557D01*
X92783258Y-50509845D01*
X92785697Y-50512284D01*
X92807473Y-50558983D01*
X92794137Y-50608754D01*
X92751929Y-50638308D01*
X92732433Y-50640875D01*
X92564429Y-50640875D01*
X92516010Y-50623252D01*
X92511165Y-50618812D01*
X89459347Y-47566994D01*
X89437571Y-47520295D01*
X89442178Y-47487020D01*
X89468584Y-47417397D01*
X89487695Y-47260000D01*
X89468584Y-47102603D01*
X89442760Y-47034511D01*
X89412361Y-46954355D01*
X89375078Y-46900342D01*
X89322292Y-46823868D01*
X89322290Y-46823866D01*
X89203615Y-46718729D01*
X89179362Y-46706000D01*
X89063222Y-46645044D01*
X89063219Y-46645043D01*
X88909276Y-46607100D01*
X88750724Y-46607100D01*
X88596780Y-46645043D01*
X88456384Y-46718729D01*
X88337709Y-46823866D01*
X88247638Y-46954355D01*
X88191416Y-47102601D01*
X88172305Y-47260000D01*
X88191416Y-47417398D01*
X88247638Y-47565644D01*
X88337709Y-47696133D01*
X88456384Y-47801270D01*
X88456385Y-47801270D01*
X88456387Y-47801272D01*
X88596778Y-47874956D01*
X88750724Y-47912900D01*
X88909275Y-47912900D01*
X89063222Y-47874956D01*
X89063222Y-47874955D01*
X89066918Y-47874045D01*
X89118148Y-47879568D01*
X89138209Y-47893919D01*
X89572725Y-48328435D01*
X89594501Y-48375134D01*
X89581165Y-48424905D01*
X89558103Y-48441052D01*
X89560413Y-48444510D01*
X89491599Y-48490489D01*
X89353789Y-48628300D01*
X89316133Y-48684654D01*
X89305755Y-48736826D01*
X89279024Y-48780876D01*
X89246573Y-48796008D01*
X89194402Y-48806386D01*
X89138046Y-48844042D01*
X89000236Y-48981853D01*
X88962580Y-49038207D01*
X88952202Y-49090379D01*
X88925471Y-49134429D01*
X88893020Y-49149561D01*
X88840849Y-49159939D01*
X88784493Y-49197595D01*
X88646683Y-49335406D01*
X88609027Y-49391760D01*
X88598649Y-49443933D01*
X88571918Y-49487983D01*
X88539467Y-49503115D01*
X88487295Y-49513493D01*
X88430939Y-49551149D01*
X88293129Y-49688960D01*
X88255473Y-49745314D01*
X88245730Y-49794297D01*
X88218999Y-49838348D01*
X88171851Y-49854928D01*
X88142892Y-49854928D01*
X88131110Y-49854001D01*
X88106668Y-49850130D01*
X88098340Y-49852361D01*
X88078846Y-49854928D01*
X84923912Y-49854928D01*
X84919970Y-49854825D01*
X84879300Y-49852693D01*
X84856210Y-49861557D01*
X84844880Y-49864914D01*
X84820670Y-49870060D01*
X84813689Y-49875132D01*
X84796417Y-49884509D01*
X84788368Y-49887600D01*
X84788367Y-49887600D01*
X84788366Y-49887601D01*
X84770875Y-49905091D01*
X84761892Y-49912764D01*
X84741868Y-49927313D01*
X84737555Y-49934783D01*
X84725587Y-49950379D01*
X83809554Y-50866412D01*
X83762855Y-50888188D01*
X83738263Y-50886286D01*
X83579276Y-50847100D01*
X83420724Y-50847100D01*
X83266780Y-50885043D01*
X83126384Y-50958729D01*
X83007709Y-51063866D01*
X82917638Y-51194355D01*
X82861416Y-51342601D01*
X82842305Y-51500000D01*
X82861416Y-51657398D01*
X82917638Y-51805644D01*
X82965069Y-51874359D01*
X83007708Y-51936132D01*
X83126387Y-52041272D01*
X83184123Y-52071575D01*
X83218805Y-52109679D01*
X83220880Y-52161164D01*
X83189376Y-52201937D01*
X83167788Y-52210728D01*
X83159671Y-52216626D01*
X83142392Y-52226008D01*
X83134348Y-52229095D01*
X83116858Y-52246585D01*
X83107876Y-52254257D01*
X83087849Y-52268808D01*
X83083537Y-52276278D01*
X83071568Y-52291875D01*
X80124632Y-55238812D01*
X80077933Y-55260588D01*
X80071368Y-55260875D01*
X77053708Y-55260875D01*
X77005289Y-55243252D01*
X77000444Y-55238812D01*
X76755258Y-54993626D01*
X76752543Y-54990766D01*
X76725284Y-54960492D01*
X76702683Y-54950429D01*
X76692300Y-54944791D01*
X76661259Y-54924634D01*
X76633375Y-54891885D01*
X76604220Y-54825855D01*
X76524145Y-54745780D01*
X76500931Y-54735530D01*
X76420548Y-54700037D01*
X76397384Y-54697350D01*
X76397377Y-54697349D01*
X76395226Y-54697100D01*
X75279774Y-54697100D01*
X75277623Y-54697349D01*
X75277615Y-54697350D01*
X75254451Y-54700037D01*
X75150855Y-54745780D01*
X75090716Y-54805919D01*
X75044017Y-54827694D01*
X74994246Y-54814358D01*
X74976067Y-54788396D01*
X74973030Y-54790277D01*
X74963101Y-54774242D01*
X74949478Y-54752240D01*
X74944618Y-54743020D01*
X74941311Y-54735530D01*
X74932235Y-54714974D01*
X74923103Y-54705842D01*
X74912322Y-54692232D01*
X74905526Y-54681256D01*
X74881069Y-54662787D01*
X74873200Y-54655939D01*
X74364285Y-54147025D01*
X74355249Y-54134466D01*
X74342334Y-54122693D01*
X74316658Y-54099286D01*
X74314163Y-54096903D01*
X74300378Y-54083118D01*
X74300377Y-54083117D01*
X74298827Y-54082055D01*
X74290660Y-54075585D01*
X74268004Y-54054932D01*
X74255962Y-54050267D01*
X74240607Y-54042173D01*
X74229954Y-54034876D01*
X74200113Y-54027857D01*
X74190148Y-54024771D01*
X74188199Y-54024016D01*
X74161571Y-54013700D01*
X74148659Y-54013700D01*
X74131414Y-54011699D01*
X74118845Y-54008743D01*
X74088487Y-54012978D01*
X74078080Y-54013700D01*
X72833090Y-54013700D01*
X72817822Y-54011209D01*
X72765681Y-54013620D01*
X72762202Y-54013700D01*
X72742709Y-54013700D01*
X72740867Y-54014044D01*
X72730518Y-54015244D01*
X72699891Y-54016661D01*
X72688074Y-54021878D01*
X72671497Y-54027011D01*
X72658802Y-54029384D01*
X72632744Y-54045519D01*
X72623518Y-54050383D01*
X72595474Y-54062766D01*
X72586343Y-54071897D01*
X72572739Y-54082673D01*
X72561756Y-54089473D01*
X72543285Y-54113933D01*
X72536438Y-54121801D01*
X72445602Y-54212638D01*
X72398906Y-54234413D01*
X72392340Y-54234700D01*
X72255627Y-54234700D01*
X72207208Y-54217077D01*
X72181444Y-54172453D01*
X72180300Y-54159373D01*
X72180300Y-53188475D01*
X72197923Y-53140056D01*
X72198699Y-53139146D01*
X72200733Y-53136799D01*
X72285589Y-53038869D01*
X72343298Y-52912505D01*
X72363068Y-52775000D01*
X72362643Y-52772047D01*
X72345978Y-52656133D01*
X72343298Y-52637495D01*
X72285589Y-52511131D01*
X72285588Y-52511130D01*
X72285588Y-52511129D01*
X72194617Y-52406142D01*
X72077752Y-52331038D01*
X71985661Y-52303998D01*
X71944459Y-52291900D01*
X71805541Y-52291900D01*
X71764339Y-52303998D01*
X71672247Y-52331038D01*
X71555382Y-52406142D01*
X71464411Y-52511129D01*
X71406701Y-52637496D01*
X71404904Y-52649998D01*
X71380569Y-52695416D01*
X71332733Y-52714566D01*
X71283779Y-52698488D01*
X71278651Y-52694068D01*
X71180290Y-52601269D01*
X71032710Y-52516064D01*
X70869446Y-52467187D01*
X70869000Y-52467160D01*
X70869000Y-52944118D01*
X70849300Y-52930955D01*
X70742000Y-52909612D01*
X70634700Y-52930955D01*
X70615000Y-52944118D01*
X70615000Y-52472147D01*
X70531494Y-52486871D01*
X70375017Y-52554369D01*
X70238325Y-52656133D01*
X70128784Y-52786679D01*
X70052300Y-52938970D01*
X70013000Y-53104793D01*
X70013000Y-53213000D01*
X70467000Y-53213000D01*
X70467000Y-53467000D01*
X70013000Y-53467000D01*
X70013000Y-53530265D01*
X70013254Y-53534638D01*
X70027821Y-53659265D01*
X70086106Y-53819401D01*
X70179751Y-53961781D01*
X70280658Y-54056982D01*
X70303783Y-54103028D01*
X70291900Y-54153166D01*
X70250569Y-54183936D01*
X70228965Y-54187100D01*
X70051944Y-54187100D01*
X70007341Y-54195971D01*
X69956764Y-54229766D01*
X69922971Y-54280342D01*
X69914100Y-54324940D01*
X69914100Y-54755055D01*
X69922971Y-54799657D01*
X69938669Y-54823150D01*
X69950916Y-54873200D01*
X69938670Y-54906847D01*
X69925333Y-54926809D01*
X69922971Y-54930344D01*
X69914100Y-54974940D01*
X69914100Y-55405055D01*
X69922971Y-55449657D01*
X69938669Y-55473150D01*
X69950916Y-55523200D01*
X69938670Y-55556847D01*
X69928674Y-55571809D01*
X69922971Y-55580344D01*
X69914100Y-55624940D01*
X69914100Y-56055055D01*
X69922971Y-56099657D01*
X69938669Y-56123150D01*
X69950916Y-56173200D01*
X69938670Y-56206847D01*
X69925205Y-56227000D01*
X69922971Y-56230344D01*
X69914100Y-56274940D01*
X69914100Y-56696417D01*
X69896477Y-56744836D01*
X69885114Y-56755023D01*
X69827736Y-56840894D01*
X69813000Y-56914984D01*
X69813000Y-57013000D01*
X71670999Y-57013000D01*
X71670999Y-56914984D01*
X71656262Y-56840892D01*
X71653195Y-56836301D01*
X71640948Y-56786251D01*
X71663738Y-56740038D01*
X71710901Y-56719286D01*
X71715827Y-56719125D01*
X72004308Y-56719125D01*
X72052727Y-56736748D01*
X72057572Y-56741188D01*
X72240437Y-56924053D01*
X72262213Y-56970751D01*
X72262500Y-56977316D01*
X72262500Y-57908647D01*
X72262397Y-57912589D01*
X72260264Y-57953269D01*
X72269129Y-57976362D01*
X72272485Y-57987692D01*
X72277631Y-58011900D01*
X72282700Y-58018876D01*
X72292084Y-58036159D01*
X72295171Y-58044203D01*
X72312660Y-58061691D01*
X72320337Y-58070679D01*
X72328891Y-58082453D01*
X72334885Y-58090702D01*
X72342352Y-58095013D01*
X72357953Y-58106984D01*
X73107340Y-58856372D01*
X73110055Y-58859232D01*
X73137315Y-58889507D01*
X73159910Y-58899567D01*
X73170293Y-58905204D01*
X73191055Y-58918687D01*
X73199575Y-58920036D01*
X73218429Y-58925621D01*
X73226298Y-58929125D01*
X73251034Y-58929125D01*
X73262816Y-58930052D01*
X73287259Y-58933923D01*
X73295586Y-58931691D01*
X73315081Y-58929125D01*
X73672480Y-58929125D01*
X73720899Y-58946748D01*
X73725744Y-58951187D01*
X73807849Y-59033292D01*
X73922694Y-59091809D01*
X74050000Y-59111972D01*
X74177306Y-59091809D01*
X74292151Y-59033292D01*
X74383292Y-58942151D01*
X74441809Y-58827306D01*
X74461972Y-58700000D01*
X74441809Y-58572694D01*
X74383292Y-58457849D01*
X74292151Y-58366708D01*
X74177306Y-58308191D01*
X74050000Y-58288028D01*
X73922693Y-58308191D01*
X73807849Y-58366708D01*
X73725744Y-58448813D01*
X73679045Y-58470588D01*
X73672480Y-58470875D01*
X73401108Y-58470875D01*
X73352689Y-58453252D01*
X73347844Y-58448812D01*
X72742813Y-57843781D01*
X72721037Y-57797082D01*
X72720750Y-57790517D01*
X72720750Y-57480970D01*
X72738373Y-57432551D01*
X72782997Y-57406787D01*
X72833741Y-57415735D01*
X72849341Y-57427706D01*
X72875855Y-57454220D01*
X72979450Y-57499962D01*
X73004774Y-57502900D01*
X73006944Y-57502900D01*
X74118056Y-57502900D01*
X74120226Y-57502900D01*
X74145550Y-57499962D01*
X74249145Y-57454220D01*
X74329220Y-57374145D01*
X74374962Y-57270550D01*
X74377900Y-57245226D01*
X74377900Y-56854774D01*
X74374962Y-56829450D01*
X74329220Y-56725855D01*
X74301860Y-56698495D01*
X74280084Y-56651796D01*
X74293420Y-56602025D01*
X74307457Y-56589822D01*
X74306989Y-56589354D01*
X74405915Y-56490426D01*
X74464015Y-56376399D01*
X74479000Y-56281791D01*
X74479000Y-56227000D01*
X73510827Y-56227000D01*
X73462408Y-56209377D01*
X73436644Y-56164753D01*
X73435500Y-56151673D01*
X73435500Y-56048327D01*
X73453123Y-55999908D01*
X73497747Y-55974144D01*
X73510827Y-55973000D01*
X74478999Y-55973000D01*
X74478999Y-55918207D01*
X74464015Y-55823601D01*
X74428193Y-55753296D01*
X74421914Y-55702153D01*
X74449977Y-55658939D01*
X74499252Y-55643874D01*
X74546683Y-55664007D01*
X74548574Y-55665834D01*
X75000037Y-56117297D01*
X75021813Y-56163995D01*
X75022100Y-56170560D01*
X75022100Y-56295226D01*
X75022349Y-56297377D01*
X75022350Y-56297384D01*
X75025037Y-56320548D01*
X75070780Y-56424145D01*
X75150855Y-56504220D01*
X75155094Y-56506092D01*
X75192269Y-56541771D01*
X75197812Y-56592999D01*
X75169130Y-56635805D01*
X75155094Y-56643908D01*
X75150855Y-56645779D01*
X75070780Y-56725854D01*
X75025037Y-56829451D01*
X75022440Y-56851840D01*
X75022100Y-56854774D01*
X75022100Y-57245226D01*
X75022349Y-57247377D01*
X75022350Y-57247384D01*
X75025037Y-57270548D01*
X75045874Y-57317739D01*
X75070780Y-57374145D01*
X75150855Y-57454220D01*
X75254450Y-57499962D01*
X75279774Y-57502900D01*
X75281944Y-57502900D01*
X76393056Y-57502900D01*
X76395226Y-57502900D01*
X76420550Y-57499962D01*
X76524145Y-57454220D01*
X76604220Y-57374145D01*
X76649962Y-57270550D01*
X76652900Y-57245226D01*
X76652900Y-56905103D01*
X76670523Y-56856685D01*
X76674952Y-56851851D01*
X77480765Y-56046037D01*
X77527464Y-56024262D01*
X77534029Y-56023975D01*
X80315772Y-56023975D01*
X80319714Y-56024078D01*
X80360394Y-56026210D01*
X80383487Y-56017344D01*
X80394810Y-56013989D01*
X80419026Y-56008843D01*
X80426002Y-56003773D01*
X80443286Y-55994389D01*
X80451328Y-55991303D01*
X80468820Y-55973810D01*
X80477805Y-55966136D01*
X80497827Y-55951590D01*
X80502139Y-55944119D01*
X80514107Y-55928522D01*
X82175866Y-54266766D01*
X82385651Y-54056982D01*
X82394017Y-54048616D01*
X82440715Y-54026841D01*
X82466776Y-54029121D01*
X82535501Y-54047540D01*
X82626448Y-54047546D01*
X82626448Y-54047545D01*
X82626449Y-54047546D01*
X82714296Y-54024017D01*
X82714296Y-54024016D01*
X82714299Y-54024016D01*
X82780709Y-53985684D01*
X82790717Y-53980912D01*
X82790814Y-53980814D01*
X82790816Y-53980814D01*
X82814138Y-53957491D01*
X82826116Y-53945513D01*
X82849946Y-53921691D01*
X82853799Y-53917840D01*
X82853799Y-53917839D01*
X82864036Y-53907606D01*
X82864061Y-53907568D01*
X82864225Y-53907404D01*
X82870506Y-53901791D01*
X82895220Y-53882089D01*
X82896092Y-53880407D01*
X82907159Y-53865297D01*
X82908418Y-53863115D01*
X82908421Y-53863113D01*
X82953887Y-53784377D01*
X82977435Y-53696559D01*
X82977461Y-53605639D01*
X82959046Y-53536807D01*
X82963556Y-53485483D01*
X82978547Y-53464082D01*
X83461043Y-52981588D01*
X83507743Y-52959812D01*
X83514308Y-52959525D01*
X84840709Y-52959525D01*
X84889128Y-52977148D01*
X84914892Y-53021772D01*
X84905944Y-53072516D01*
X84893973Y-53088116D01*
X84757595Y-53224494D01*
X84737358Y-53254781D01*
X84695804Y-53285249D01*
X84674727Y-53288258D01*
X84629119Y-53288258D01*
X84520093Y-53327940D01*
X84492512Y-53349102D01*
X85255412Y-54112002D01*
X85277188Y-54158701D01*
X85263852Y-54208472D01*
X85255412Y-54218530D01*
X85182336Y-54291606D01*
X85135637Y-54313382D01*
X85085866Y-54300046D01*
X85075808Y-54291606D01*
X84312908Y-53528706D01*
X84291746Y-53556287D01*
X84252064Y-53665313D01*
X84252064Y-53710920D01*
X84234441Y-53759339D01*
X84218587Y-53773552D01*
X84188298Y-53793790D01*
X84050489Y-53931600D01*
X84012835Y-53987952D01*
X84012834Y-53987954D01*
X84012834Y-53987955D01*
X84007454Y-54015004D01*
X83995145Y-54076879D01*
X84012833Y-54165798D01*
X84031842Y-54194247D01*
X84050489Y-54222154D01*
X84197850Y-54369515D01*
X84301172Y-54472836D01*
X84322948Y-54519535D01*
X84309612Y-54569306D01*
X84301179Y-54579358D01*
X84292808Y-54587731D01*
X84246111Y-54609513D01*
X84239537Y-54609800D01*
X84032444Y-54609800D01*
X83984025Y-54592177D01*
X83979180Y-54587737D01*
X83960552Y-54569109D01*
X83960551Y-54569108D01*
X83845706Y-54510591D01*
X83718400Y-54490428D01*
X83591093Y-54510591D01*
X83476247Y-54569109D01*
X83385109Y-54660247D01*
X83326591Y-54775093D01*
X83313333Y-54858800D01*
X83306428Y-54902400D01*
X83326591Y-55029706D01*
X83385108Y-55144551D01*
X83476249Y-55235692D01*
X83591094Y-55294209D01*
X83615394Y-55298057D01*
X83660459Y-55323038D01*
X83678925Y-55371142D01*
X83662149Y-55419862D01*
X83656873Y-55425721D01*
X76562323Y-62520271D01*
X76515624Y-62542047D01*
X76487193Y-62539091D01*
X76448254Y-62527279D01*
X76396603Y-62511611D01*
X76396601Y-62511610D01*
X76396599Y-62511610D01*
X76200000Y-62492247D01*
X76003395Y-62511610D01*
X75814354Y-62568955D01*
X75640121Y-62662084D01*
X75487411Y-62787411D01*
X75362084Y-62940121D01*
X75268955Y-63114354D01*
X75211610Y-63303395D01*
X75192247Y-63499999D01*
X75211610Y-63696604D01*
X75268955Y-63885645D01*
X75341900Y-64022116D01*
X75362084Y-64059878D01*
X75487410Y-64212588D01*
X75487413Y-64212591D01*
X75627210Y-64327320D01*
X75653459Y-64371659D01*
X75645065Y-64422498D01*
X75605957Y-64456047D01*
X75579423Y-64460875D01*
X74976107Y-64460875D01*
X74927688Y-64443252D01*
X74922843Y-64438812D01*
X74684962Y-64200931D01*
X74663186Y-64154232D01*
X74662899Y-64147667D01*
X74662899Y-62634944D01*
X74654028Y-62590341D01*
X74620233Y-62539764D01*
X74569657Y-62505971D01*
X74525059Y-62497100D01*
X72794944Y-62497100D01*
X72750341Y-62505971D01*
X72699764Y-62539766D01*
X72665971Y-62590342D01*
X72657100Y-62634940D01*
X72657100Y-64365055D01*
X72665971Y-64409658D01*
X72699766Y-64460235D01*
X72748046Y-64492494D01*
X72750342Y-64494028D01*
X72794943Y-64502900D01*
X74307666Y-64502899D01*
X74356085Y-64520522D01*
X74360930Y-64524962D01*
X74473103Y-64637135D01*
X74494879Y-64683834D01*
X74481543Y-64733605D01*
X74439335Y-64763159D01*
X74419839Y-64765726D01*
X72615559Y-64765726D01*
X72567140Y-64748103D01*
X72562295Y-64743663D01*
X71537658Y-63719026D01*
X71534943Y-63716166D01*
X71507684Y-63685892D01*
X71485083Y-63675829D01*
X71474700Y-63670191D01*
X71453945Y-63656713D01*
X71445426Y-63655364D01*
X71426580Y-63649781D01*
X71418704Y-63646275D01*
X71418702Y-63646275D01*
X71393965Y-63646275D01*
X71382183Y-63645348D01*
X71357741Y-63641477D01*
X71349413Y-63643708D01*
X71329919Y-63646275D01*
X68556507Y-63646275D01*
X68508088Y-63628652D01*
X68503243Y-63624212D01*
X68402291Y-63523260D01*
X68302086Y-63423054D01*
X68280311Y-63376357D01*
X68280952Y-63358007D01*
X68286972Y-63320000D01*
X68284342Y-63303395D01*
X68266809Y-63192694D01*
X68208292Y-63077849D01*
X68126187Y-62995744D01*
X68104412Y-62949045D01*
X68104125Y-62942480D01*
X68104125Y-62278226D01*
X68121748Y-62229807D01*
X68166372Y-62204043D01*
X68179452Y-62202899D01*
X68765055Y-62202899D01*
X68765056Y-62202899D01*
X68809658Y-62194028D01*
X68860234Y-62160234D01*
X68894028Y-62109658D01*
X68902900Y-62065057D01*
X68902899Y-61134944D01*
X68894028Y-61090342D01*
X68894028Y-61090341D01*
X68860233Y-61039764D01*
X68809657Y-61005971D01*
X68765059Y-60997100D01*
X67034944Y-60997100D01*
X66990341Y-61005971D01*
X66939764Y-61039766D01*
X66905971Y-61090342D01*
X66897100Y-61134940D01*
X66897100Y-62065055D01*
X66421500Y-62065055D01*
X66421500Y-58867000D01*
X67013000Y-58867000D01*
X67013000Y-59213000D01*
X67501186Y-59213000D01*
X67481505Y-59242455D01*
X67462102Y-59340000D01*
X67481505Y-59437545D01*
X67501186Y-59467000D01*
X67023383Y-59467000D01*
X67053622Y-59589687D01*
X67132509Y-59739994D01*
X67245071Y-59867050D01*
X67384774Y-59963480D01*
X67543488Y-60023672D01*
X67667456Y-60038725D01*
X67671998Y-60039000D01*
X67915000Y-60039000D01*
X67915000Y-59590000D01*
X68169000Y-59590000D01*
X68169000Y-60039000D01*
X68412002Y-60039000D01*
X68416543Y-60038725D01*
X68540511Y-60023672D01*
X68699225Y-59963480D01*
X68838928Y-59867050D01*
X68951490Y-59739994D01*
X69030377Y-59589687D01*
X69060616Y-59467000D01*
X68582814Y-59467000D01*
X68602495Y-59437545D01*
X68621898Y-59340000D01*
X68602495Y-59242455D01*
X68582814Y-59213000D01*
X69070999Y-59213000D01*
X69070999Y-58867000D01*
X67013000Y-58867000D01*
X66421500Y-58867000D01*
X66421500Y-58114984D01*
X67012999Y-58114984D01*
X67013000Y-58613000D01*
X67915000Y-58613000D01*
X67915000Y-56967000D01*
X68169000Y-56967000D01*
X68169000Y-58613000D01*
X69070999Y-58613000D01*
X69070999Y-58114984D01*
X69056262Y-58040892D01*
X69000124Y-57956875D01*
X68956358Y-57927632D01*
X68925889Y-57886079D01*
X68929259Y-57834663D01*
X68956358Y-57802368D01*
X69000124Y-57773124D01*
X69056262Y-57689107D01*
X69071000Y-57615015D01*
X69071000Y-57267000D01*
X69813001Y-57267000D01*
X69813001Y-57365015D01*
X69827737Y-57439107D01*
X69883875Y-57523124D01*
X69967892Y-57579262D01*
X70041983Y-57593999D01*
X70128921Y-57593999D01*
X70177341Y-57611622D01*
X70203104Y-57656245D01*
X70194157Y-57706989D01*
X70186626Y-57717745D01*
X70128784Y-57786678D01*
X70052300Y-57938970D01*
X70013000Y-58104793D01*
X70013000Y-58213000D01*
X70467000Y-58213000D01*
X70467000Y-58467000D01*
X70013000Y-58467000D01*
X70013000Y-58530265D01*
X70013254Y-58534638D01*
X70027821Y-58659265D01*
X70086106Y-58819401D01*
X70179751Y-58961781D01*
X70303710Y-59078730D01*
X70451289Y-59163935D01*
X70614551Y-59212812D01*
X70615000Y-59212837D01*
X70615000Y-58735881D01*
X70634700Y-58749045D01*
X70742000Y-58770388D01*
X70849300Y-58749045D01*
X70869000Y-58735881D01*
X70869000Y-59207851D01*
X70952505Y-59193128D01*
X71108982Y-59125630D01*
X71245674Y-59023866D01*
X71355215Y-58893320D01*
X71431699Y-58741029D01*
X71471000Y-58575206D01*
X71471000Y-58467000D01*
X71017000Y-58467000D01*
X71017000Y-58213000D01*
X71471000Y-58213000D01*
X71471000Y-58149734D01*
X71470745Y-58145361D01*
X71456178Y-58020734D01*
X71397893Y-57860598D01*
X71299410Y-57710862D01*
X71302752Y-57708663D01*
X71287388Y-57678176D01*
X71299200Y-57628022D01*
X71340487Y-57597194D01*
X71362193Y-57593999D01*
X71442015Y-57593999D01*
X71516107Y-57579262D01*
X71600124Y-57523124D01*
X71656262Y-57439107D01*
X71671000Y-57365015D01*
X71671000Y-57267000D01*
X70869000Y-57267000D01*
X70869000Y-57944118D01*
X70849300Y-57930955D01*
X70742000Y-57909612D01*
X70634700Y-57930955D01*
X70615000Y-57944118D01*
X70615000Y-57267000D01*
X69813001Y-57267000D01*
X69071000Y-57267000D01*
X69071000Y-56967000D01*
X68169000Y-56967000D01*
X67915000Y-56967000D01*
X67013001Y-56967000D01*
X67013001Y-57615015D01*
X67027737Y-57689107D01*
X67083874Y-57773123D01*
X67127642Y-57802368D01*
X67158110Y-57843922D01*
X67154740Y-57895338D01*
X67127642Y-57927632D01*
X67083874Y-57956876D01*
X67027737Y-58040892D01*
X67012999Y-58114984D01*
X66421500Y-58114984D01*
X66421500Y-56064984D01*
X67012999Y-56064984D01*
X67013000Y-56713000D01*
X67915000Y-56713000D01*
X67915000Y-54967000D01*
X68169000Y-54967000D01*
X68169000Y-56713000D01*
X69070999Y-56713000D01*
X69070999Y-56064984D01*
X69056262Y-55990892D01*
X69000125Y-55906876D01*
X68993774Y-55902633D01*
X68963305Y-55861080D01*
X68966674Y-55809663D01*
X68993774Y-55777367D01*
X69000125Y-55773123D01*
X69056262Y-55689107D01*
X69071000Y-55615015D01*
X69071000Y-54967000D01*
X68169000Y-54967000D01*
X67915000Y-54967000D01*
X67013001Y-54967000D01*
X67013001Y-55615015D01*
X67027737Y-55689107D01*
X67083874Y-55773123D01*
X67090227Y-55777368D01*
X67120695Y-55818922D01*
X67117324Y-55870338D01*
X67090227Y-55902632D01*
X67083874Y-55906876D01*
X67027737Y-55990892D01*
X67012999Y-56064984D01*
X66421500Y-56064984D01*
X66421500Y-54064984D01*
X67012999Y-54064984D01*
X67013000Y-54713000D01*
X67915000Y-54713000D01*
X67915000Y-53067000D01*
X68169000Y-53067000D01*
X68169000Y-54713000D01*
X69070999Y-54713000D01*
X69070999Y-54064984D01*
X69056262Y-53990892D01*
X69000125Y-53906876D01*
X68956357Y-53877631D01*
X68925889Y-53836077D01*
X68929260Y-53784661D01*
X68956359Y-53752366D01*
X69000125Y-53723123D01*
X69056262Y-53639107D01*
X69071000Y-53565015D01*
X69071000Y-53067000D01*
X68169000Y-53067000D01*
X67915000Y-53067000D01*
X67013001Y-53067000D01*
X67013001Y-53565015D01*
X67027737Y-53639107D01*
X67083875Y-53723124D01*
X67127641Y-53752367D01*
X67158110Y-53793920D01*
X67154740Y-53845336D01*
X67127642Y-53877630D01*
X67083876Y-53906874D01*
X67027737Y-53990892D01*
X67012999Y-54064984D01*
X66421500Y-54064984D01*
X66421500Y-52813000D01*
X67013000Y-52813000D01*
X69070999Y-52813000D01*
X69070999Y-52467000D01*
X68582814Y-52467000D01*
X68602495Y-52437545D01*
X68621898Y-52340000D01*
X68602495Y-52242455D01*
X68582814Y-52213000D01*
X69060616Y-52213000D01*
X69060616Y-52212999D01*
X69030377Y-52090312D01*
X68951490Y-51940005D01*
X68838928Y-51812949D01*
X68699225Y-51716519D01*
X68540511Y-51656327D01*
X68416543Y-51641274D01*
X68412002Y-51641000D01*
X68169000Y-51641000D01*
X68169000Y-52090000D01*
X67915000Y-52090000D01*
X67915000Y-51641000D01*
X67671998Y-51641000D01*
X67667456Y-51641274D01*
X67543488Y-51656327D01*
X67384774Y-51716519D01*
X67245071Y-51812949D01*
X67132509Y-51940005D01*
X67053622Y-52090312D01*
X67023383Y-52212999D01*
X67023384Y-52213000D01*
X67501186Y-52213000D01*
X67481505Y-52242455D01*
X67462102Y-52340000D01*
X67481505Y-52437545D01*
X67501186Y-52467000D01*
X67013000Y-52467000D01*
X67013000Y-52813000D01*
X66421500Y-52813000D01*
X66421500Y-51362500D01*
X76836270Y-51362500D01*
X76857080Y-51507232D01*
X76917824Y-51640244D01*
X77013578Y-51750750D01*
X77092632Y-51801554D01*
X77136589Y-51829804D01*
X77276889Y-51871000D01*
X77276890Y-51871000D01*
X77423110Y-51871000D01*
X77423111Y-51871000D01*
X77563411Y-51829804D01*
X77686421Y-51750750D01*
X77782176Y-51640243D01*
X77842919Y-51507234D01*
X77863729Y-51362500D01*
X77862616Y-51354762D01*
X77850045Y-51267328D01*
X77842919Y-51217766D01*
X77811971Y-51149999D01*
X78886270Y-51149999D01*
X78907080Y-51294732D01*
X78967824Y-51427744D01*
X79063578Y-51538250D01*
X79130793Y-51581446D01*
X79186589Y-51617304D01*
X79326889Y-51658500D01*
X79326890Y-51658500D01*
X79473110Y-51658500D01*
X79473111Y-51658500D01*
X79613411Y-51617304D01*
X79736421Y-51538250D01*
X79832176Y-51427743D01*
X79892919Y-51294734D01*
X79913729Y-51150000D01*
X79912858Y-51143945D01*
X79897726Y-51038697D01*
X79892919Y-51005266D01*
X79832176Y-50872257D01*
X79832175Y-50872256D01*
X79832175Y-50872255D01*
X79736421Y-50761749D01*
X79613411Y-50682696D01*
X79559039Y-50666731D01*
X79473111Y-50641500D01*
X79326889Y-50641500D01*
X79323133Y-50642603D01*
X79186588Y-50682696D01*
X79063578Y-50761749D01*
X78967824Y-50872255D01*
X78907080Y-51005267D01*
X78886270Y-51149999D01*
X77811971Y-51149999D01*
X77782176Y-51084757D01*
X77782175Y-51084756D01*
X77782175Y-51084755D01*
X77686421Y-50974249D01*
X77563411Y-50895196D01*
X77533066Y-50886286D01*
X77423111Y-50854000D01*
X77276889Y-50854000D01*
X77214712Y-50872257D01*
X77136588Y-50895196D01*
X77013578Y-50974249D01*
X76917824Y-51084755D01*
X76857080Y-51217767D01*
X76836270Y-51362500D01*
X66421500Y-51362500D01*
X66421500Y-49718200D01*
X66439123Y-49669781D01*
X66483747Y-49644017D01*
X66534491Y-49652965D01*
X66559459Y-49676351D01*
X66604075Y-49743124D01*
X66688092Y-49799262D01*
X66762184Y-49813999D01*
X67410199Y-49813999D01*
X67410200Y-49813998D01*
X67410200Y-48387000D01*
X67664200Y-48387000D01*
X67664200Y-49813999D01*
X68312215Y-49813999D01*
X68386307Y-49799262D01*
X68470324Y-49743124D01*
X68526462Y-49659107D01*
X68541200Y-49585015D01*
X68541200Y-49575055D01*
X69634300Y-49575055D01*
X69643171Y-49619658D01*
X69676966Y-49670235D01*
X69704991Y-49688960D01*
X69727542Y-49704028D01*
X69772143Y-49712900D01*
X71302256Y-49712899D01*
X71346858Y-49704028D01*
X71397434Y-49670234D01*
X71431228Y-49619658D01*
X71440100Y-49575057D01*
X71440100Y-49125055D01*
X72657100Y-49125055D01*
X72665971Y-49169658D01*
X72699766Y-49220235D01*
X72741949Y-49248420D01*
X72750342Y-49254028D01*
X72794943Y-49262900D01*
X74525056Y-49262899D01*
X74569658Y-49254028D01*
X74620234Y-49220234D01*
X74654028Y-49169658D01*
X74662900Y-49125057D01*
X74662899Y-48132999D01*
X75103037Y-48132999D01*
X75103038Y-48133000D01*
X75716182Y-48133000D01*
X75700000Y-48188111D01*
X75700000Y-48331889D01*
X75716182Y-48387000D01*
X75103038Y-48387000D01*
X75110148Y-48463731D01*
X75166139Y-48660518D01*
X75257338Y-48843670D01*
X75380640Y-49006949D01*
X75531840Y-49144786D01*
X75705795Y-49252494D01*
X75896582Y-49326405D01*
X76072999Y-49359382D01*
X76073000Y-49359382D01*
X76073000Y-48746881D01*
X76164237Y-48760000D01*
X76235763Y-48760000D01*
X76327000Y-48746881D01*
X76327000Y-49359382D01*
X76503417Y-49326405D01*
X76694204Y-49252494D01*
X76868159Y-49144786D01*
X77019359Y-49006949D01*
X77142661Y-48843670D01*
X77233860Y-48660518D01*
X77289851Y-48463731D01*
X77296962Y-48387000D01*
X76683818Y-48387000D01*
X76700000Y-48331889D01*
X76700000Y-48259999D01*
X77732247Y-48259999D01*
X77751610Y-48456604D01*
X77808955Y-48645645D01*
X77865766Y-48751931D01*
X77902084Y-48819878D01*
X78027411Y-48972589D01*
X78180122Y-49097916D01*
X78314343Y-49169658D01*
X78354354Y-49191044D01*
X78543395Y-49248389D01*
X78574394Y-49251442D01*
X78740000Y-49267753D01*
X78918976Y-49250125D01*
X78936604Y-49248389D01*
X79125645Y-49191044D01*
X79125647Y-49191042D01*
X79125650Y-49191042D01*
X79299878Y-49097916D01*
X79452589Y-48972589D01*
X79577916Y-48819878D01*
X79671042Y-48645650D01*
X79671288Y-48644841D01*
X79728389Y-48456604D01*
X79740672Y-48331889D01*
X79747753Y-48260000D01*
X79747753Y-48259999D01*
X80272247Y-48259999D01*
X80291610Y-48456604D01*
X80348955Y-48645645D01*
X80405766Y-48751931D01*
X80442084Y-48819878D01*
X80567411Y-48972589D01*
X80720122Y-49097916D01*
X80854343Y-49169658D01*
X80894354Y-49191044D01*
X81083395Y-49248389D01*
X81114394Y-49251442D01*
X81280000Y-49267753D01*
X81460426Y-49249982D01*
X81476604Y-49248389D01*
X81665645Y-49191044D01*
X81665647Y-49191042D01*
X81665650Y-49191042D01*
X81839878Y-49097916D01*
X81992589Y-48972589D01*
X82117916Y-48819878D01*
X82211042Y-48645650D01*
X82211288Y-48644841D01*
X82268389Y-48456604D01*
X82280672Y-48331889D01*
X82287753Y-48260000D01*
X82812247Y-48260000D01*
X82831610Y-48456604D01*
X82888955Y-48645645D01*
X82945766Y-48751931D01*
X82982084Y-48819878D01*
X83107411Y-48972589D01*
X83260122Y-49097916D01*
X83394343Y-49169658D01*
X83434354Y-49191044D01*
X83623395Y-49248389D01*
X83654394Y-49251442D01*
X83820000Y-49267753D01*
X83998976Y-49250125D01*
X84016604Y-49248389D01*
X84205645Y-49191044D01*
X84205647Y-49191042D01*
X84205650Y-49191042D01*
X84379878Y-49097916D01*
X84532589Y-48972589D01*
X84657916Y-48819878D01*
X84751042Y-48645650D01*
X84751288Y-48644841D01*
X84808389Y-48456604D01*
X84820672Y-48331889D01*
X84827753Y-48260000D01*
X85352247Y-48260000D01*
X85371610Y-48456604D01*
X85428955Y-48645645D01*
X85485766Y-48751931D01*
X85522084Y-48819878D01*
X85647411Y-48972589D01*
X85800122Y-49097916D01*
X85934343Y-49169658D01*
X85974354Y-49191044D01*
X86163395Y-49248389D01*
X86194394Y-49251442D01*
X86360000Y-49267753D01*
X86538976Y-49250125D01*
X86556604Y-49248389D01*
X86745645Y-49191044D01*
X86745647Y-49191042D01*
X86745650Y-49191042D01*
X86919878Y-49097916D01*
X87072589Y-48972589D01*
X87197916Y-48819878D01*
X87291042Y-48645650D01*
X87291288Y-48644841D01*
X87348389Y-48456604D01*
X87360672Y-48331889D01*
X87367753Y-48260000D01*
X87348389Y-48063397D01*
X87348389Y-48063395D01*
X87291044Y-47874354D01*
X87240270Y-47779362D01*
X87197916Y-47700122D01*
X87072589Y-47547411D01*
X86919878Y-47422084D01*
X86815997Y-47366559D01*
X86745645Y-47328955D01*
X86556604Y-47271610D01*
X86360000Y-47252247D01*
X86163395Y-47271610D01*
X85974354Y-47328955D01*
X85800121Y-47422084D01*
X85647411Y-47547411D01*
X85522084Y-47700121D01*
X85428955Y-47874354D01*
X85371610Y-48063395D01*
X85352247Y-48260000D01*
X84827753Y-48260000D01*
X84808389Y-48063397D01*
X84808389Y-48063395D01*
X84751044Y-47874354D01*
X84700270Y-47779362D01*
X84657916Y-47700122D01*
X84532589Y-47547411D01*
X84379878Y-47422084D01*
X84275997Y-47366559D01*
X84205645Y-47328955D01*
X84016604Y-47271610D01*
X83820000Y-47252247D01*
X83623395Y-47271610D01*
X83434354Y-47328955D01*
X83260121Y-47422084D01*
X83107411Y-47547411D01*
X82982084Y-47700121D01*
X82888955Y-47874354D01*
X82831610Y-48063395D01*
X82812247Y-48260000D01*
X82287753Y-48260000D01*
X82268389Y-48063397D01*
X82268389Y-48063395D01*
X82211044Y-47874354D01*
X82160270Y-47779362D01*
X82117916Y-47700122D01*
X81992589Y-47547411D01*
X81839878Y-47422084D01*
X81735997Y-47366559D01*
X81665645Y-47328955D01*
X81476604Y-47271610D01*
X81280000Y-47252247D01*
X81083395Y-47271610D01*
X80894354Y-47328955D01*
X80720121Y-47422084D01*
X80567411Y-47547411D01*
X80442084Y-47700121D01*
X80348955Y-47874354D01*
X80291610Y-48063395D01*
X80272247Y-48259999D01*
X79747753Y-48259999D01*
X79728389Y-48063397D01*
X79728389Y-48063395D01*
X79671044Y-47874354D01*
X79620270Y-47779362D01*
X79577916Y-47700122D01*
X79452589Y-47547411D01*
X79299878Y-47422084D01*
X79195997Y-47366559D01*
X79125645Y-47328955D01*
X78936604Y-47271610D01*
X78756176Y-47253840D01*
X78740000Y-47252247D01*
X78739999Y-47252247D01*
X78543395Y-47271610D01*
X78354354Y-47328955D01*
X78180121Y-47422084D01*
X78027411Y-47547411D01*
X77902084Y-47700121D01*
X77808955Y-47874354D01*
X77751610Y-48063395D01*
X77732247Y-48259999D01*
X76700000Y-48259999D01*
X76700000Y-48188111D01*
X76683818Y-48133000D01*
X77296962Y-48133000D01*
X77296962Y-48132999D01*
X77289851Y-48056268D01*
X77233860Y-47859481D01*
X77142661Y-47676329D01*
X77019359Y-47513050D01*
X76868159Y-47375213D01*
X76694204Y-47267505D01*
X76503418Y-47193594D01*
X76327000Y-47160616D01*
X76327000Y-47773118D01*
X76235763Y-47760000D01*
X76164237Y-47760000D01*
X76073000Y-47773118D01*
X76073000Y-47160616D01*
X76072999Y-47160616D01*
X75896581Y-47193594D01*
X75705795Y-47267505D01*
X75531840Y-47375213D01*
X75380640Y-47513050D01*
X75257338Y-47676329D01*
X75166139Y-47859481D01*
X75110148Y-48056268D01*
X75103037Y-48132999D01*
X74662899Y-48132999D01*
X74662899Y-47394944D01*
X74657465Y-47367623D01*
X74654028Y-47350341D01*
X74620233Y-47299764D01*
X74569657Y-47265971D01*
X74525059Y-47257100D01*
X72794944Y-47257100D01*
X72750341Y-47265971D01*
X72699764Y-47299766D01*
X72665971Y-47350342D01*
X72657100Y-47394940D01*
X72657100Y-49125055D01*
X71440100Y-49125055D01*
X71440099Y-46944944D01*
X71431228Y-46900342D01*
X71431228Y-46900341D01*
X71397433Y-46849764D01*
X71346857Y-46815971D01*
X71302259Y-46807100D01*
X69772144Y-46807100D01*
X69727541Y-46815971D01*
X69676964Y-46849766D01*
X69643171Y-46900342D01*
X69634300Y-46944940D01*
X69634300Y-49575055D01*
X68541200Y-49575055D01*
X68541200Y-48387000D01*
X67664200Y-48387000D01*
X67410200Y-48387000D01*
X67410200Y-46706000D01*
X67664200Y-46706000D01*
X67664200Y-48133000D01*
X68541199Y-48133000D01*
X68541199Y-46934984D01*
X68526462Y-46860892D01*
X68470324Y-46776875D01*
X68386307Y-46720737D01*
X68312216Y-46706000D01*
X67664200Y-46706000D01*
X67410200Y-46706000D01*
X66762184Y-46706000D01*
X66688092Y-46720737D01*
X66604076Y-46776874D01*
X66559459Y-46843649D01*
X66517905Y-46874117D01*
X66466489Y-46870747D01*
X66429268Y-46835115D01*
X66421500Y-46801799D01*
X66421500Y-46176827D01*
X66439123Y-46128408D01*
X66483747Y-46102644D01*
X66496827Y-46101500D01*
X113876236Y-46101500D01*
X113924655Y-46119123D01*
G37*
%TD.AperFunction*%
%TA.AperFunction,Conductor*%
G36*
X115188999Y-63121844D02*
G01*
X115174871Y-63113688D01*
X115090436Y-63098800D01*
X115033564Y-63098800D01*
X114949129Y-63113688D01*
X114935000Y-63121845D01*
X114935000Y-62455754D01*
X114949129Y-62463912D01*
X115033564Y-62478800D01*
X115090436Y-62478800D01*
X115174871Y-62463912D01*
X115188999Y-62455754D01*
X115188999Y-63121844D01*
G37*
%TD.AperFunction*%
%TA.AperFunction,Conductor*%
G36*
X95316325Y-56636296D02*
G01*
X95342089Y-56680920D01*
X95333141Y-56731664D01*
X95321170Y-56747264D01*
X92876543Y-59191887D01*
X92829844Y-59213663D01*
X92811497Y-59213023D01*
X92773489Y-59207004D01*
X92773488Y-59207004D01*
X92646182Y-59227167D01*
X92646180Y-59227167D01*
X92646178Y-59227168D01*
X92629512Y-59235660D01*
X92578369Y-59241939D01*
X92535155Y-59213875D01*
X92519988Y-59168543D01*
X92519988Y-58165244D01*
X92537611Y-58116825D01*
X92542051Y-58111980D01*
X94013296Y-56640736D01*
X94059995Y-56618960D01*
X94066560Y-56618673D01*
X95267906Y-56618673D01*
X95316325Y-56636296D01*
G37*
%TD.AperFunction*%
%TA.AperFunction,Conductor*%
G36*
X96066232Y-57714123D02*
G01*
X96091996Y-57758747D01*
X96083048Y-57809491D01*
X96063667Y-57831590D01*
X96053708Y-57839230D01*
X96690268Y-58475789D01*
X97506430Y-59291951D01*
X97506431Y-59291951D01*
X97527593Y-59264372D01*
X97567276Y-59155346D01*
X97567276Y-59109739D01*
X97584899Y-59061320D01*
X97600752Y-59047108D01*
X97631040Y-59026871D01*
X97687434Y-58970475D01*
X97734131Y-58948701D01*
X97783902Y-58962036D01*
X97813457Y-59004244D01*
X97816024Y-59023741D01*
X97816024Y-60584206D01*
X97798401Y-60632625D01*
X97793962Y-60637470D01*
X97711857Y-60719575D01*
X97650065Y-60840847D01*
X97612380Y-60875988D01*
X97560924Y-60878684D01*
X97529684Y-60859913D01*
X97085981Y-60416210D01*
X97064205Y-60369511D01*
X97063919Y-60362968D01*
X97063919Y-59615759D01*
X97076616Y-59573907D01*
X97081982Y-59565877D01*
X97123537Y-59535410D01*
X97144612Y-59532402D01*
X97190221Y-59532402D01*
X97299246Y-59492719D01*
X97326825Y-59471557D01*
X97326825Y-59471556D01*
X96690268Y-58834999D01*
X95874104Y-58018834D01*
X95852942Y-58046415D01*
X95813260Y-58155441D01*
X95813260Y-58201049D01*
X95795637Y-58249468D01*
X95779782Y-58263681D01*
X95749495Y-58283918D01*
X95611684Y-58421729D01*
X95574028Y-58478083D01*
X95563650Y-58530255D01*
X95536919Y-58574305D01*
X95504468Y-58589437D01*
X95452297Y-58599815D01*
X95395941Y-58637471D01*
X95258131Y-58775282D01*
X95220475Y-58831636D01*
X95210097Y-58883808D01*
X95183366Y-58927858D01*
X95150915Y-58942990D01*
X95098744Y-58953368D01*
X95042388Y-58991024D01*
X94904578Y-59128835D01*
X94866922Y-59185189D01*
X94856544Y-59237362D01*
X94829813Y-59281412D01*
X94797362Y-59296544D01*
X94745190Y-59306922D01*
X94688832Y-59344580D01*
X94688578Y-59344834D01*
X94688160Y-59345028D01*
X94682666Y-59348700D01*
X94682100Y-59347853D01*
X94641877Y-59366606D01*
X94592108Y-59353265D01*
X94562557Y-59311054D01*
X94560919Y-59279785D01*
X94571972Y-59210000D01*
X94551809Y-59082694D01*
X94493292Y-58967849D01*
X94402151Y-58876708D01*
X94287306Y-58818191D01*
X94160000Y-58798028D01*
X94159999Y-58798028D01*
X94141014Y-58801035D01*
X94101988Y-58807215D01*
X94051409Y-58797384D01*
X94018983Y-58757340D01*
X94019882Y-58705821D01*
X94036940Y-58679554D01*
X94548150Y-58168344D01*
X94594848Y-58146569D01*
X94644619Y-58159905D01*
X94668529Y-58187410D01*
X94689787Y-58229130D01*
X94711708Y-58272151D01*
X94802849Y-58363292D01*
X94917694Y-58421809D01*
X95045000Y-58441972D01*
X95172306Y-58421809D01*
X95287151Y-58363292D01*
X95378292Y-58272151D01*
X95436809Y-58157306D01*
X95456972Y-58030000D01*
X95455858Y-58022971D01*
X95465687Y-57972394D01*
X95476989Y-57957927D01*
X95716353Y-57718563D01*
X95763053Y-57696787D01*
X95769618Y-57696500D01*
X96017813Y-57696500D01*
X96066232Y-57714123D01*
G37*
%TD.AperFunction*%
%TA.AperFunction,Conductor*%
G36*
X115188999Y-55501844D02*
G01*
X115174871Y-55493688D01*
X115090436Y-55478800D01*
X115033564Y-55478800D01*
X114949129Y-55493688D01*
X114934999Y-55501845D01*
X114934999Y-54835754D01*
X114949129Y-54843912D01*
X115033564Y-54858800D01*
X115090436Y-54858800D01*
X115174871Y-54843912D01*
X115188999Y-54835754D01*
X115188999Y-55501844D01*
G37*
%TD.AperFunction*%
%TA.AperFunction,Conductor*%
G36*
X115188999Y-54231844D02*
G01*
X115174871Y-54223688D01*
X115090436Y-54208800D01*
X115033564Y-54208800D01*
X114949129Y-54223688D01*
X114934999Y-54231845D01*
X114934999Y-53565754D01*
X114949129Y-53573912D01*
X115033564Y-53588800D01*
X115090436Y-53588800D01*
X115174871Y-53573912D01*
X115188999Y-53565754D01*
X115188999Y-54231844D01*
G37*
%TD.AperFunction*%
%TD*%
M02*
