%TF.GenerationSoftware,KiCad,Pcbnew,(7.0.0)*%
%TF.CreationDate,2023-04-02T12:15:27-04:00*%
%TF.ProjectId,H503,48353033-2e6b-4696-9361-645f70636258,rev?*%
%TF.SameCoordinates,Original*%
%TF.FileFunction,Soldermask,Top*%
%TF.FilePolarity,Negative*%
%FSLAX46Y46*%
G04 Gerber Fmt 4.6, Leading zero omitted, Abs format (unit mm)*
G04 Created by KiCad (PCBNEW (7.0.0)) date 2023-04-02 12:15:27*
%MOMM*%
%LPD*%
G01*
G04 APERTURE LIST*
G04 Aperture macros list*
%AMRoundRect*
0 Rectangle with rounded corners*
0 $1 Rounding radius*
0 $2 $3 $4 $5 $6 $7 $8 $9 X,Y pos of 4 corners*
0 Add a 4 corners polygon primitive as box body*
4,1,4,$2,$3,$4,$5,$6,$7,$8,$9,$2,$3,0*
0 Add four circle primitives for the rounded corners*
1,1,$1+$1,$2,$3*
1,1,$1+$1,$4,$5*
1,1,$1+$1,$6,$7*
1,1,$1+$1,$8,$9*
0 Add four rect primitives between the rounded corners*
20,1,$1+$1,$2,$3,$4,$5,0*
20,1,$1+$1,$4,$5,$6,$7,0*
20,1,$1+$1,$6,$7,$8,$9,0*
20,1,$1+$1,$8,$9,$2,$3,0*%
G04 Aperture macros list end*
%ADD10R,1.700000X1.700000*%
%ADD11O,1.700000X1.700000*%
%ADD12C,1.000000*%
%ADD13R,1.700000X0.900000*%
%ADD14R,1.000000X1.000000*%
%ADD15O,1.000000X1.000000*%
%ADD16RoundRect,0.250000X0.262500X0.450000X-0.262500X0.450000X-0.262500X-0.450000X0.262500X-0.450000X0*%
%ADD17RoundRect,0.150000X-0.512500X-0.150000X0.512500X-0.150000X0.512500X0.150000X-0.512500X0.150000X0*%
%ADD18R,1.350000X0.400000*%
%ADD19O,1.550000X0.890000*%
%ADD20R,1.550000X1.200000*%
%ADD21O,0.950000X1.250000*%
%ADD22R,1.550000X1.500000*%
%ADD23RoundRect,0.200000X-0.250000X0.200000X-0.250000X-0.200000X0.250000X-0.200000X0.250000X0.200000X0*%
%ADD24RoundRect,0.075000X0.548008X-0.441942X-0.441942X0.548008X-0.548008X0.441942X0.441942X-0.548008X0*%
%ADD25RoundRect,0.075000X0.548008X0.441942X0.441942X0.548008X-0.548008X-0.441942X-0.441942X-0.548008X0*%
%ADD26RoundRect,0.225000X-0.017678X0.335876X-0.335876X0.017678X0.017678X-0.335876X0.335876X-0.017678X0*%
%ADD27RoundRect,0.225000X0.250000X-0.225000X0.250000X0.225000X-0.250000X0.225000X-0.250000X-0.225000X0*%
%ADD28RoundRect,0.250000X-0.475000X0.337500X-0.475000X-0.337500X0.475000X-0.337500X0.475000X0.337500X0*%
%ADD29RoundRect,0.250000X-0.450000X0.262500X-0.450000X-0.262500X0.450000X-0.262500X0.450000X0.262500X0*%
%ADD30R,1.500000X2.600000*%
%ADD31RoundRect,0.250000X0.450000X-0.262500X0.450000X0.262500X-0.450000X0.262500X-0.450000X-0.262500X0*%
G04 APERTURE END LIST*
D10*
%TO.C,J2*%
X96519999Y-63499999D03*
D11*
X99059999Y-63499999D03*
X101599999Y-63499999D03*
X104139999Y-63499999D03*
X106679999Y-63499999D03*
X109219999Y-63499999D03*
%TD*%
D12*
%TO.C,TP3*%
X83007200Y-51181000D03*
%TD*%
D13*
%TO.C,BOOT1*%
X67899999Y-64999999D03*
X67899999Y-61599999D03*
%TD*%
D14*
%TO.C,J3*%
X115061999Y-64693799D03*
D15*
X113791999Y-64693799D03*
X115061999Y-63423799D03*
X113791999Y-63423799D03*
X115061999Y-62153799D03*
X113791999Y-62153799D03*
X115061999Y-60883799D03*
X113791999Y-60883799D03*
X115061999Y-59613799D03*
X113791999Y-59613799D03*
X115061999Y-58343799D03*
X113791999Y-58343799D03*
X115061999Y-57073799D03*
X113791999Y-57073799D03*
X115061999Y-55803799D03*
X113791999Y-55803799D03*
X115061999Y-54533799D03*
X113791999Y-54533799D03*
X115061999Y-53263799D03*
X113791999Y-53263799D03*
%TD*%
D16*
%TO.C,R2*%
X75283700Y-58851800D03*
X73458700Y-58851800D03*
%TD*%
D10*
%TO.C,J1*%
X73659999Y-63499999D03*
D11*
X76199999Y-63499999D03*
X78739999Y-63499999D03*
X81279999Y-63499999D03*
X83819999Y-63499999D03*
X86359999Y-63499999D03*
%TD*%
D12*
%TO.C,TP7*%
X89992200Y-64770000D03*
%TD*%
%TO.C,TP14*%
X88722200Y-47244000D03*
%TD*%
D17*
%TO.C,U4*%
X73562500Y-55150000D03*
X73562500Y-56100000D03*
X73562500Y-57050000D03*
X75837500Y-57050000D03*
X75837500Y-56100000D03*
X75837500Y-55150000D03*
%TD*%
D12*
%TO.C,TP9*%
X94157800Y-64922400D03*
%TD*%
D18*
%TO.C,J4*%
X70741999Y-54539999D03*
X70741999Y-55189999D03*
X70741999Y-55839999D03*
X70741999Y-56489999D03*
X70741999Y-57139999D03*
D19*
X68041999Y-52339999D03*
D20*
X68041999Y-52939999D03*
D21*
X70741999Y-53339999D03*
D22*
X68041999Y-54839999D03*
X68041999Y-56839999D03*
D21*
X70741999Y-58339999D03*
D20*
X68041999Y-58739999D03*
D19*
X68041999Y-59339999D03*
%TD*%
D12*
%TO.C,TP6*%
X82702400Y-60960000D03*
%TD*%
D13*
%TO.C,RESET1*%
X114909599Y-46763199D03*
X114909599Y-50163199D03*
%TD*%
D10*
%TO.C,J6*%
X96519999Y-48259999D03*
D11*
X99059999Y-48259999D03*
X101599999Y-48259999D03*
X104139999Y-48259999D03*
X106679999Y-48259999D03*
X109219999Y-48259999D03*
%TD*%
D23*
%TO.C,X1*%
X102725000Y-59395000D03*
X100875000Y-59395000D03*
X100875000Y-60845000D03*
X102725000Y-60845000D03*
%TD*%
D10*
%TO.C,J5*%
X73659999Y-48259999D03*
D11*
X76199999Y-48259999D03*
X78739999Y-48259999D03*
X81279999Y-48259999D03*
X83819999Y-48259999D03*
X86359999Y-48259999D03*
%TD*%
D12*
%TO.C,TP11*%
X100838000Y-50800000D03*
%TD*%
D24*
%TO.C,U2*%
X92801181Y-62544481D03*
X93154734Y-62190928D03*
X93508287Y-61837375D03*
X93861841Y-61483821D03*
X94215394Y-61130268D03*
X94568948Y-60776714D03*
X94922501Y-60423161D03*
X95276054Y-60069608D03*
X95629608Y-59716054D03*
X95983161Y-59362501D03*
X96336714Y-59008948D03*
X96690268Y-58655394D03*
X97043821Y-58301841D03*
X97397375Y-57948287D03*
X97750928Y-57594734D03*
X98104481Y-57241181D03*
D25*
X98104481Y-54518819D03*
X97750928Y-54165266D03*
X97397375Y-53811713D03*
X97043821Y-53458159D03*
X96690268Y-53104606D03*
X96336714Y-52751052D03*
X95983161Y-52397499D03*
X95629608Y-52043946D03*
X95276054Y-51690392D03*
X94922501Y-51336839D03*
X94568948Y-50983286D03*
X94215394Y-50629732D03*
X93861841Y-50276179D03*
X93508287Y-49922625D03*
X93154734Y-49569072D03*
X92801181Y-49215519D03*
D24*
X90078819Y-49215519D03*
X89725266Y-49569072D03*
X89371713Y-49922625D03*
X89018159Y-50276179D03*
X88664606Y-50629732D03*
X88311052Y-50983286D03*
X87957499Y-51336839D03*
X87603946Y-51690392D03*
X87250392Y-52043946D03*
X86896839Y-52397499D03*
X86543286Y-52751052D03*
X86189732Y-53104606D03*
X85836179Y-53458159D03*
X85482625Y-53811713D03*
X85129072Y-54165266D03*
X84775519Y-54518819D03*
D25*
X84775519Y-57241181D03*
X85129072Y-57594734D03*
X85482625Y-57948287D03*
X85836179Y-58301841D03*
X86189732Y-58655394D03*
X86543286Y-59008948D03*
X86896839Y-59362501D03*
X87250392Y-59716054D03*
X87603946Y-60069608D03*
X87957499Y-60423161D03*
X88311052Y-60776714D03*
X88664606Y-61130268D03*
X89018159Y-61483821D03*
X89371713Y-61837375D03*
X89725266Y-62190928D03*
X90078819Y-62544481D03*
%TD*%
D12*
%TO.C,TP5*%
X80695800Y-60960000D03*
%TD*%
D26*
%TO.C,C7*%
X99018008Y-58811992D03*
X97921992Y-59908008D03*
%TD*%
D12*
%TO.C,TP8*%
X92760800Y-64922400D03*
%TD*%
%TO.C,TP12*%
X99060000Y-50800000D03*
%TD*%
D27*
%TO.C,C13*%
X105537000Y-57391600D03*
X105537000Y-55841600D03*
%TD*%
D28*
%TO.C,FB1*%
X100500000Y-55342500D03*
X100500000Y-57417500D03*
%TD*%
D29*
%TO.C,R4*%
X107365800Y-55958100D03*
X107365800Y-57783100D03*
%TD*%
D12*
%TO.C,TP4*%
X84886800Y-51181000D03*
%TD*%
D30*
%TO.C,D1*%
X67537199Y-48259999D03*
X70537199Y-48259999D03*
%TD*%
D31*
%TO.C,R3*%
X110744000Y-55854600D03*
X110744000Y-54029600D03*
%TD*%
D27*
%TO.C,C2*%
X104250000Y-60945000D03*
X104250000Y-59395000D03*
%TD*%
D12*
%TO.C,TP1*%
X103047800Y-55676800D03*
%TD*%
%TO.C,TP13*%
X84759800Y-60960000D03*
%TD*%
%TO.C,TP2*%
X97282000Y-50800000D03*
%TD*%
%TO.C,TP10*%
X80975200Y-58293000D03*
%TD*%
M02*
