M48
; DRILL file {KiCad (7.0.0)} date Sun Apr  2 12:15:31 2023
; FORMAT={-:-/ absolute / inch / decimal}
; #@! TF.CreationDate,2023-04-02T12:15:31-04:00
; #@! TF.GenerationSoftware,Kicad,Pcbnew,(7.0.0)
; #@! TF.FileFunction,Plated,1,4,PTH
FMAT,2
INCH
; #@! TA.AperFunction,Plated,PTH,ViaDrill
T1C0.0100
; #@! TA.AperFunction,Plated,PTH,ViaDrill
T2C0.0160
; #@! TA.AperFunction,Plated,PTH,ComponentDrill
T3C0.0197
; #@! TA.AperFunction,Plated,PTH,ComponentDrill
T4C0.0217
; #@! TA.AperFunction,Plated,PTH,ComponentDrill
T5C0.0256
; #@! TA.AperFunction,Plated,PTH,ComponentDrill
T6C0.0394
%
G90
G05
T1
X2.6589Y-1.9
X2.6732Y-2.5591
X2.7511Y-2.427
X2.7771Y-1.9
X2.8229Y-2.427
X2.8962Y-2.2087
X2.9639Y-2.317
X3.064Y-2.411
X3.079Y-2.254
X3.141Y-2.322
X3.189Y-2.338
X3.223Y-2.272
X3.286Y-2.337
X3.288Y-2.274
X3.296Y-2.1005
X3.296Y-2.1615
X3.351Y-2.451
X3.3556Y-2.3451
X3.38Y-2.366
X3.406Y-2.1468
X3.4068Y-2.0207
X3.408Y-2.252
X3.43Y-2.123
X3.4394Y-2.2216
X3.462Y-2.308
X3.469Y-2.164
X3.4848Y-2.2473
X3.489Y-2.1044
X3.4933Y-2.0499
X3.504Y-2.477
X3.5262Y-2.2879
X3.536Y-2.255
X3.54Y-2.105
X3.5504Y-2.4026
X3.557Y-2.3435
X3.5574Y-2.0159
X3.559Y-2.2099
X3.566Y-2.0424
X3.571Y-2.266
X3.5747Y-1.9664
X3.5775Y-1.9965
X3.578Y-1.879
X3.598Y-2.38
X3.6Y-2.4745
X3.6Y-2.5355
X3.6194Y-2.2531
X3.637Y-1.982
X3.6375Y-1.881
X3.645Y-2.398
X3.671Y-2.193
X3.6806Y-2.028
X3.6829Y-2.3662
X3.695Y-2.1543
X3.6985Y-1.881
X3.7081Y-2.0501
X3.72Y-1.934
X3.7256Y-2.3106
X3.7474Y-2.1724
X3.751Y-2.1335
X3.7744Y-2.4146
X3.7783Y-1.9782
X3.8085Y-2.1724
X3.8109Y-2.3842
X3.8552Y-2.3586
X3.8842Y-2.417
X3.885Y-2.188
X3.9094Y-2.4051
X3.9567Y-2.1788
X3.9715Y-2.3384
X4.003Y-2.0481
X4.0443Y-2.3384
X4.049Y-1.994
X4.1043Y-2.3384
X4.1386Y-2.0976
X4.155Y-2.1985
X4.177Y-2.3425
X4.227Y-2.3425
X4.227Y-2.2031
X4.278Y-2.344
X4.3Y-2.1452
X4.327Y-2.0591
X4.327Y-2.343
X4.36Y-2.1271
X4.36Y-2.199
X4.396Y-2.338
X4.524Y-1.8411
X4.524Y-1.9749
T2
X2.7374Y-2.2496
X2.832Y-2.25
X2.8866Y-2.0232
X2.8866Y-2.098
X2.9705Y-2.0232
X3.029Y-2.084
X3.029Y-2.139
X3.0295Y-2.0267
X3.0886Y-2.0232
X3.1724Y-2.0232
X3.1724Y-2.098
T3
X3.177Y-2.4
X3.188Y-2.295
X3.256Y-2.4
X3.268Y-2.015
X3.337Y-2.4
X3.342Y-2.015
X3.493Y-1.86
X3.543Y-2.55
X3.652Y-2.556
X3.707Y-2.556
X3.83Y-2.0
X3.9Y-2.0
X3.97Y-2.0
X4.057Y-2.192
T5
X4.48Y-2.097
X4.48Y-2.147
X4.48Y-2.197
X4.48Y-2.247
X4.48Y-2.297
X4.48Y-2.347
X4.48Y-2.397
X4.48Y-2.447
X4.48Y-2.497
X4.48Y-2.547
X4.53Y-2.097
X4.53Y-2.147
X4.53Y-2.197
X4.53Y-2.247
X4.53Y-2.297
X4.53Y-2.347
X4.53Y-2.397
X4.53Y-2.447
X4.53Y-2.497
X4.53Y-2.547
T6
X2.9Y-1.9
X2.9Y-2.5
X3.0Y-1.9
X3.0Y-2.5
X3.1Y-1.9
X3.1Y-2.5
X3.2Y-1.9
X3.2Y-2.5
X3.3Y-1.9
X3.3Y-2.5
X3.4Y-1.9
X3.4Y-2.5
X3.8Y-1.9
X3.8Y-2.5
X3.9Y-1.9
X3.9Y-2.5
X4.0Y-1.9
X4.0Y-2.5
X4.1Y-1.9
X4.1Y-2.5
X4.2Y-1.9
X4.2Y-2.5
X4.3Y-1.9
X4.3Y-2.5
T3
G00X2.6916Y-2.0606
M15
G01X2.666Y-2.0606
M16
G05
G00X2.6916Y-2.3362
M15
G01X2.666Y-2.3362
M16
G05
T4
G00X2.7851Y-2.0941
M15
G01X2.7851Y-2.1059
M16
G05
G00X2.7851Y-2.2909
M15
G01X2.7851Y-2.3028
M16
G05
T0
M30
