%TF.GenerationSoftware,KiCad,Pcbnew,(7.0.0)*%
%TF.CreationDate,2023-04-02T12:15:27-04:00*%
%TF.ProjectId,H503,48353033-2e6b-4696-9361-645f70636258,rev?*%
%TF.SameCoordinates,Original*%
%TF.FileFunction,Legend,Bot*%
%TF.FilePolarity,Positive*%
%FSLAX46Y46*%
G04 Gerber Fmt 4.6, Leading zero omitted, Abs format (unit mm)*
G04 Created by KiCad (PCBNEW (7.0.0)) date 2023-04-02 12:15:27*
%MOMM*%
%LPD*%
G01*
G04 APERTURE LIST*
%ADD10C,0.150000*%
%ADD11C,0.120000*%
G04 APERTURE END LIST*
D10*
X100901523Y-53481161D02*
X100758666Y-53528780D01*
X100758666Y-53528780D02*
X100520571Y-53528780D01*
X100520571Y-53528780D02*
X100425333Y-53481161D01*
X100425333Y-53481161D02*
X100377714Y-53433542D01*
X100377714Y-53433542D02*
X100330095Y-53338304D01*
X100330095Y-53338304D02*
X100330095Y-53243066D01*
X100330095Y-53243066D02*
X100377714Y-53147828D01*
X100377714Y-53147828D02*
X100425333Y-53100209D01*
X100425333Y-53100209D02*
X100520571Y-53052590D01*
X100520571Y-53052590D02*
X100711047Y-53004971D01*
X100711047Y-53004971D02*
X100806285Y-52957352D01*
X100806285Y-52957352D02*
X100853904Y-52909733D01*
X100853904Y-52909733D02*
X100901523Y-52814495D01*
X100901523Y-52814495D02*
X100901523Y-52719257D01*
X100901523Y-52719257D02*
X100853904Y-52624019D01*
X100853904Y-52624019D02*
X100806285Y-52576400D01*
X100806285Y-52576400D02*
X100711047Y-52528780D01*
X100711047Y-52528780D02*
X100472952Y-52528780D01*
X100472952Y-52528780D02*
X100330095Y-52576400D01*
X100044380Y-52528780D02*
X99472952Y-52528780D01*
X99758666Y-53528780D02*
X99758666Y-52528780D01*
X99139618Y-53528780D02*
X99139618Y-52528780D01*
X99139618Y-52528780D02*
X98806285Y-53243066D01*
X98806285Y-53243066D02*
X98472952Y-52528780D01*
X98472952Y-52528780D02*
X98472952Y-53528780D01*
X98091999Y-52528780D02*
X97472952Y-52528780D01*
X97472952Y-52528780D02*
X97806285Y-52909733D01*
X97806285Y-52909733D02*
X97663428Y-52909733D01*
X97663428Y-52909733D02*
X97568190Y-52957352D01*
X97568190Y-52957352D02*
X97520571Y-53004971D01*
X97520571Y-53004971D02*
X97472952Y-53100209D01*
X97472952Y-53100209D02*
X97472952Y-53338304D01*
X97472952Y-53338304D02*
X97520571Y-53433542D01*
X97520571Y-53433542D02*
X97568190Y-53481161D01*
X97568190Y-53481161D02*
X97663428Y-53528780D01*
X97663428Y-53528780D02*
X97949142Y-53528780D01*
X97949142Y-53528780D02*
X98044380Y-53481161D01*
X98044380Y-53481161D02*
X98091999Y-53433542D01*
X97091999Y-52624019D02*
X97044380Y-52576400D01*
X97044380Y-52576400D02*
X96949142Y-52528780D01*
X96949142Y-52528780D02*
X96711047Y-52528780D01*
X96711047Y-52528780D02*
X96615809Y-52576400D01*
X96615809Y-52576400D02*
X96568190Y-52624019D01*
X96568190Y-52624019D02*
X96520571Y-52719257D01*
X96520571Y-52719257D02*
X96520571Y-52814495D01*
X96520571Y-52814495D02*
X96568190Y-52957352D01*
X96568190Y-52957352D02*
X97139618Y-53528780D01*
X97139618Y-53528780D02*
X96520571Y-53528780D01*
X96091999Y-53528780D02*
X96091999Y-52528780D01*
X96091999Y-53004971D02*
X95520571Y-53004971D01*
X95520571Y-53528780D02*
X95520571Y-52528780D01*
X94568190Y-52528780D02*
X95044380Y-52528780D01*
X95044380Y-52528780D02*
X95091999Y-53004971D01*
X95091999Y-53004971D02*
X95044380Y-52957352D01*
X95044380Y-52957352D02*
X94949142Y-52909733D01*
X94949142Y-52909733D02*
X94711047Y-52909733D01*
X94711047Y-52909733D02*
X94615809Y-52957352D01*
X94615809Y-52957352D02*
X94568190Y-53004971D01*
X94568190Y-53004971D02*
X94520571Y-53100209D01*
X94520571Y-53100209D02*
X94520571Y-53338304D01*
X94520571Y-53338304D02*
X94568190Y-53433542D01*
X94568190Y-53433542D02*
X94615809Y-53481161D01*
X94615809Y-53481161D02*
X94711047Y-53528780D01*
X94711047Y-53528780D02*
X94949142Y-53528780D01*
X94949142Y-53528780D02*
X95044380Y-53481161D01*
X95044380Y-53481161D02*
X95091999Y-53433542D01*
X93901523Y-52528780D02*
X93806285Y-52528780D01*
X93806285Y-52528780D02*
X93711047Y-52576400D01*
X93711047Y-52576400D02*
X93663428Y-52624019D01*
X93663428Y-52624019D02*
X93615809Y-52719257D01*
X93615809Y-52719257D02*
X93568190Y-52909733D01*
X93568190Y-52909733D02*
X93568190Y-53147828D01*
X93568190Y-53147828D02*
X93615809Y-53338304D01*
X93615809Y-53338304D02*
X93663428Y-53433542D01*
X93663428Y-53433542D02*
X93711047Y-53481161D01*
X93711047Y-53481161D02*
X93806285Y-53528780D01*
X93806285Y-53528780D02*
X93901523Y-53528780D01*
X93901523Y-53528780D02*
X93996761Y-53481161D01*
X93996761Y-53481161D02*
X94044380Y-53433542D01*
X94044380Y-53433542D02*
X94091999Y-53338304D01*
X94091999Y-53338304D02*
X94139618Y-53147828D01*
X94139618Y-53147828D02*
X94139618Y-52909733D01*
X94139618Y-52909733D02*
X94091999Y-52719257D01*
X94091999Y-52719257D02*
X94044380Y-52624019D01*
X94044380Y-52624019D02*
X93996761Y-52576400D01*
X93996761Y-52576400D02*
X93901523Y-52528780D01*
X93234856Y-52528780D02*
X92615809Y-52528780D01*
X92615809Y-52528780D02*
X92949142Y-52909733D01*
X92949142Y-52909733D02*
X92806285Y-52909733D01*
X92806285Y-52909733D02*
X92711047Y-52957352D01*
X92711047Y-52957352D02*
X92663428Y-53004971D01*
X92663428Y-53004971D02*
X92615809Y-53100209D01*
X92615809Y-53100209D02*
X92615809Y-53338304D01*
X92615809Y-53338304D02*
X92663428Y-53433542D01*
X92663428Y-53433542D02*
X92711047Y-53481161D01*
X92711047Y-53481161D02*
X92806285Y-53528780D01*
X92806285Y-53528780D02*
X93091999Y-53528780D01*
X93091999Y-53528780D02*
X93187237Y-53481161D01*
X93187237Y-53481161D02*
X93234856Y-53433542D01*
X91615809Y-53528780D02*
X91949142Y-53052590D01*
X92187237Y-53528780D02*
X92187237Y-52528780D01*
X92187237Y-52528780D02*
X91806285Y-52528780D01*
X91806285Y-52528780D02*
X91711047Y-52576400D01*
X91711047Y-52576400D02*
X91663428Y-52624019D01*
X91663428Y-52624019D02*
X91615809Y-52719257D01*
X91615809Y-52719257D02*
X91615809Y-52862114D01*
X91615809Y-52862114D02*
X91663428Y-52957352D01*
X91663428Y-52957352D02*
X91711047Y-53004971D01*
X91711047Y-53004971D02*
X91806285Y-53052590D01*
X91806285Y-53052590D02*
X92187237Y-53052590D01*
X90853904Y-53004971D02*
X90711047Y-53052590D01*
X90711047Y-53052590D02*
X90663428Y-53100209D01*
X90663428Y-53100209D02*
X90615809Y-53195447D01*
X90615809Y-53195447D02*
X90615809Y-53338304D01*
X90615809Y-53338304D02*
X90663428Y-53433542D01*
X90663428Y-53433542D02*
X90711047Y-53481161D01*
X90711047Y-53481161D02*
X90806285Y-53528780D01*
X90806285Y-53528780D02*
X91187237Y-53528780D01*
X91187237Y-53528780D02*
X91187237Y-52528780D01*
X91187237Y-52528780D02*
X90853904Y-52528780D01*
X90853904Y-52528780D02*
X90758666Y-52576400D01*
X90758666Y-52576400D02*
X90711047Y-52624019D01*
X90711047Y-52624019D02*
X90663428Y-52719257D01*
X90663428Y-52719257D02*
X90663428Y-52814495D01*
X90663428Y-52814495D02*
X90711047Y-52909733D01*
X90711047Y-52909733D02*
X90758666Y-52957352D01*
X90758666Y-52957352D02*
X90853904Y-53004971D01*
X90853904Y-53004971D02*
X91187237Y-53004971D01*
X102831971Y-60624971D02*
X102689114Y-60672590D01*
X102689114Y-60672590D02*
X102641495Y-60720209D01*
X102641495Y-60720209D02*
X102593876Y-60815447D01*
X102593876Y-60815447D02*
X102593876Y-60958304D01*
X102593876Y-60958304D02*
X102641495Y-61053542D01*
X102641495Y-61053542D02*
X102689114Y-61101161D01*
X102689114Y-61101161D02*
X102784352Y-61148780D01*
X102784352Y-61148780D02*
X103165304Y-61148780D01*
X103165304Y-61148780D02*
X103165304Y-60148780D01*
X103165304Y-60148780D02*
X102831971Y-60148780D01*
X102831971Y-60148780D02*
X102736733Y-60196400D01*
X102736733Y-60196400D02*
X102689114Y-60244019D01*
X102689114Y-60244019D02*
X102641495Y-60339257D01*
X102641495Y-60339257D02*
X102641495Y-60434495D01*
X102641495Y-60434495D02*
X102689114Y-60529733D01*
X102689114Y-60529733D02*
X102736733Y-60577352D01*
X102736733Y-60577352D02*
X102831971Y-60624971D01*
X102831971Y-60624971D02*
X103165304Y-60624971D01*
X101784352Y-61101161D02*
X101879590Y-61148780D01*
X101879590Y-61148780D02*
X102070066Y-61148780D01*
X102070066Y-61148780D02*
X102165304Y-61101161D01*
X102165304Y-61101161D02*
X102212923Y-61005923D01*
X102212923Y-61005923D02*
X102212923Y-60624971D01*
X102212923Y-60624971D02*
X102165304Y-60529733D01*
X102165304Y-60529733D02*
X102070066Y-60482114D01*
X102070066Y-60482114D02*
X101879590Y-60482114D01*
X101879590Y-60482114D02*
X101784352Y-60529733D01*
X101784352Y-60529733D02*
X101736733Y-60624971D01*
X101736733Y-60624971D02*
X101736733Y-60720209D01*
X101736733Y-60720209D02*
X102212923Y-60815447D01*
X100879590Y-61148780D02*
X100879590Y-60624971D01*
X100879590Y-60624971D02*
X100927209Y-60529733D01*
X100927209Y-60529733D02*
X101022447Y-60482114D01*
X101022447Y-60482114D02*
X101212923Y-60482114D01*
X101212923Y-60482114D02*
X101308161Y-60529733D01*
X100879590Y-61101161D02*
X100974828Y-61148780D01*
X100974828Y-61148780D02*
X101212923Y-61148780D01*
X101212923Y-61148780D02*
X101308161Y-61101161D01*
X101308161Y-61101161D02*
X101355780Y-61005923D01*
X101355780Y-61005923D02*
X101355780Y-60910685D01*
X101355780Y-60910685D02*
X101308161Y-60815447D01*
X101308161Y-60815447D02*
X101212923Y-60767828D01*
X101212923Y-60767828D02*
X100974828Y-60767828D01*
X100974828Y-60767828D02*
X100879590Y-60720209D01*
X100403399Y-61148780D02*
X100403399Y-60482114D01*
X100403399Y-60672590D02*
X100355780Y-60577352D01*
X100355780Y-60577352D02*
X100308161Y-60529733D01*
X100308161Y-60529733D02*
X100212923Y-60482114D01*
X100212923Y-60482114D02*
X100117685Y-60482114D01*
X99184351Y-61148780D02*
X99184351Y-60148780D01*
X99184351Y-60148780D02*
X98851018Y-60863066D01*
X98851018Y-60863066D02*
X98517685Y-60148780D01*
X98517685Y-60148780D02*
X98517685Y-61148780D01*
X97660542Y-61101161D02*
X97755780Y-61148780D01*
X97755780Y-61148780D02*
X97946256Y-61148780D01*
X97946256Y-61148780D02*
X98041494Y-61101161D01*
X98041494Y-61101161D02*
X98089113Y-61005923D01*
X98089113Y-61005923D02*
X98089113Y-60624971D01*
X98089113Y-60624971D02*
X98041494Y-60529733D01*
X98041494Y-60529733D02*
X97946256Y-60482114D01*
X97946256Y-60482114D02*
X97755780Y-60482114D01*
X97755780Y-60482114D02*
X97660542Y-60529733D01*
X97660542Y-60529733D02*
X97612923Y-60624971D01*
X97612923Y-60624971D02*
X97612923Y-60720209D01*
X97612923Y-60720209D02*
X98089113Y-60815447D01*
X97327208Y-60482114D02*
X96946256Y-60482114D01*
X97184351Y-60148780D02*
X97184351Y-61005923D01*
X97184351Y-61005923D02*
X97136732Y-61101161D01*
X97136732Y-61101161D02*
X97041494Y-61148780D01*
X97041494Y-61148780D02*
X96946256Y-61148780D01*
X96184351Y-61148780D02*
X96184351Y-60624971D01*
X96184351Y-60624971D02*
X96231970Y-60529733D01*
X96231970Y-60529733D02*
X96327208Y-60482114D01*
X96327208Y-60482114D02*
X96517684Y-60482114D01*
X96517684Y-60482114D02*
X96612922Y-60529733D01*
X96184351Y-61101161D02*
X96279589Y-61148780D01*
X96279589Y-61148780D02*
X96517684Y-61148780D01*
X96517684Y-61148780D02*
X96612922Y-61101161D01*
X96612922Y-61101161D02*
X96660541Y-61005923D01*
X96660541Y-61005923D02*
X96660541Y-60910685D01*
X96660541Y-60910685D02*
X96612922Y-60815447D01*
X96612922Y-60815447D02*
X96517684Y-60767828D01*
X96517684Y-60767828D02*
X96279589Y-60767828D01*
X96279589Y-60767828D02*
X96184351Y-60720209D01*
X95565303Y-61148780D02*
X95660541Y-61101161D01*
X95660541Y-61101161D02*
X95708160Y-61005923D01*
X95708160Y-61005923D02*
X95708160Y-60148780D01*
%TO.C,C10*%
X91016057Y-48430542D02*
X91063676Y-48478161D01*
X91063676Y-48478161D02*
X91206533Y-48525780D01*
X91206533Y-48525780D02*
X91301771Y-48525780D01*
X91301771Y-48525780D02*
X91444628Y-48478161D01*
X91444628Y-48478161D02*
X91539866Y-48382923D01*
X91539866Y-48382923D02*
X91587485Y-48287685D01*
X91587485Y-48287685D02*
X91635104Y-48097209D01*
X91635104Y-48097209D02*
X91635104Y-47954352D01*
X91635104Y-47954352D02*
X91587485Y-47763876D01*
X91587485Y-47763876D02*
X91539866Y-47668638D01*
X91539866Y-47668638D02*
X91444628Y-47573400D01*
X91444628Y-47573400D02*
X91301771Y-47525780D01*
X91301771Y-47525780D02*
X91206533Y-47525780D01*
X91206533Y-47525780D02*
X91063676Y-47573400D01*
X91063676Y-47573400D02*
X91016057Y-47621019D01*
X90063676Y-48525780D02*
X90635104Y-48525780D01*
X90349390Y-48525780D02*
X90349390Y-47525780D01*
X90349390Y-47525780D02*
X90444628Y-47668638D01*
X90444628Y-47668638D02*
X90539866Y-47763876D01*
X90539866Y-47763876D02*
X90635104Y-47811495D01*
X89444628Y-47525780D02*
X89349390Y-47525780D01*
X89349390Y-47525780D02*
X89254152Y-47573400D01*
X89254152Y-47573400D02*
X89206533Y-47621019D01*
X89206533Y-47621019D02*
X89158914Y-47716257D01*
X89158914Y-47716257D02*
X89111295Y-47906733D01*
X89111295Y-47906733D02*
X89111295Y-48144828D01*
X89111295Y-48144828D02*
X89158914Y-48335304D01*
X89158914Y-48335304D02*
X89206533Y-48430542D01*
X89206533Y-48430542D02*
X89254152Y-48478161D01*
X89254152Y-48478161D02*
X89349390Y-48525780D01*
X89349390Y-48525780D02*
X89444628Y-48525780D01*
X89444628Y-48525780D02*
X89539866Y-48478161D01*
X89539866Y-48478161D02*
X89587485Y-48430542D01*
X89587485Y-48430542D02*
X89635104Y-48335304D01*
X89635104Y-48335304D02*
X89682723Y-48144828D01*
X89682723Y-48144828D02*
X89682723Y-47906733D01*
X89682723Y-47906733D02*
X89635104Y-47716257D01*
X89635104Y-47716257D02*
X89587485Y-47621019D01*
X89587485Y-47621019D02*
X89539866Y-47573400D01*
X89539866Y-47573400D02*
X89444628Y-47525780D01*
%TO.C,C14*%
X84142942Y-56329342D02*
X84190561Y-56281723D01*
X84190561Y-56281723D02*
X84238180Y-56138866D01*
X84238180Y-56138866D02*
X84238180Y-56043628D01*
X84238180Y-56043628D02*
X84190561Y-55900771D01*
X84190561Y-55900771D02*
X84095323Y-55805533D01*
X84095323Y-55805533D02*
X84000085Y-55757914D01*
X84000085Y-55757914D02*
X83809609Y-55710295D01*
X83809609Y-55710295D02*
X83666752Y-55710295D01*
X83666752Y-55710295D02*
X83476276Y-55757914D01*
X83476276Y-55757914D02*
X83381038Y-55805533D01*
X83381038Y-55805533D02*
X83285800Y-55900771D01*
X83285800Y-55900771D02*
X83238180Y-56043628D01*
X83238180Y-56043628D02*
X83238180Y-56138866D01*
X83238180Y-56138866D02*
X83285800Y-56281723D01*
X83285800Y-56281723D02*
X83333419Y-56329342D01*
X84238180Y-57281723D02*
X84238180Y-56710295D01*
X84238180Y-56996009D02*
X83238180Y-56996009D01*
X83238180Y-56996009D02*
X83381038Y-56900771D01*
X83381038Y-56900771D02*
X83476276Y-56805533D01*
X83476276Y-56805533D02*
X83523895Y-56710295D01*
X83571514Y-58138866D02*
X84238180Y-58138866D01*
X83190561Y-57900771D02*
X83904847Y-57662676D01*
X83904847Y-57662676D02*
X83904847Y-58281723D01*
%TO.C,R1*%
X70880266Y-63892780D02*
X71213599Y-63416590D01*
X71451694Y-63892780D02*
X71451694Y-62892780D01*
X71451694Y-62892780D02*
X71070742Y-62892780D01*
X71070742Y-62892780D02*
X70975504Y-62940400D01*
X70975504Y-62940400D02*
X70927885Y-62988019D01*
X70927885Y-62988019D02*
X70880266Y-63083257D01*
X70880266Y-63083257D02*
X70880266Y-63226114D01*
X70880266Y-63226114D02*
X70927885Y-63321352D01*
X70927885Y-63321352D02*
X70975504Y-63368971D01*
X70975504Y-63368971D02*
X71070742Y-63416590D01*
X71070742Y-63416590D02*
X71451694Y-63416590D01*
X69927885Y-63892780D02*
X70499313Y-63892780D01*
X70213599Y-63892780D02*
X70213599Y-62892780D01*
X70213599Y-62892780D02*
X70308837Y-63035638D01*
X70308837Y-63035638D02*
X70404075Y-63130876D01*
X70404075Y-63130876D02*
X70499313Y-63178495D01*
%TO.C,C1*%
X113911742Y-48245733D02*
X113959361Y-48198114D01*
X113959361Y-48198114D02*
X114006980Y-48055257D01*
X114006980Y-48055257D02*
X114006980Y-47960019D01*
X114006980Y-47960019D02*
X113959361Y-47817162D01*
X113959361Y-47817162D02*
X113864123Y-47721924D01*
X113864123Y-47721924D02*
X113768885Y-47674305D01*
X113768885Y-47674305D02*
X113578409Y-47626686D01*
X113578409Y-47626686D02*
X113435552Y-47626686D01*
X113435552Y-47626686D02*
X113245076Y-47674305D01*
X113245076Y-47674305D02*
X113149838Y-47721924D01*
X113149838Y-47721924D02*
X113054600Y-47817162D01*
X113054600Y-47817162D02*
X113006980Y-47960019D01*
X113006980Y-47960019D02*
X113006980Y-48055257D01*
X113006980Y-48055257D02*
X113054600Y-48198114D01*
X113054600Y-48198114D02*
X113102219Y-48245733D01*
X114006980Y-49198114D02*
X114006980Y-48626686D01*
X114006980Y-48912400D02*
X113006980Y-48912400D01*
X113006980Y-48912400D02*
X113149838Y-48817162D01*
X113149838Y-48817162D02*
X113245076Y-48721924D01*
X113245076Y-48721924D02*
X113292695Y-48626686D01*
%TO.C,C9*%
X93714866Y-55466342D02*
X93762485Y-55513961D01*
X93762485Y-55513961D02*
X93905342Y-55561580D01*
X93905342Y-55561580D02*
X94000580Y-55561580D01*
X94000580Y-55561580D02*
X94143437Y-55513961D01*
X94143437Y-55513961D02*
X94238675Y-55418723D01*
X94238675Y-55418723D02*
X94286294Y-55323485D01*
X94286294Y-55323485D02*
X94333913Y-55133009D01*
X94333913Y-55133009D02*
X94333913Y-54990152D01*
X94333913Y-54990152D02*
X94286294Y-54799676D01*
X94286294Y-54799676D02*
X94238675Y-54704438D01*
X94238675Y-54704438D02*
X94143437Y-54609200D01*
X94143437Y-54609200D02*
X94000580Y-54561580D01*
X94000580Y-54561580D02*
X93905342Y-54561580D01*
X93905342Y-54561580D02*
X93762485Y-54609200D01*
X93762485Y-54609200D02*
X93714866Y-54656819D01*
X93238675Y-55561580D02*
X93048199Y-55561580D01*
X93048199Y-55561580D02*
X92952961Y-55513961D01*
X92952961Y-55513961D02*
X92905342Y-55466342D01*
X92905342Y-55466342D02*
X92810104Y-55323485D01*
X92810104Y-55323485D02*
X92762485Y-55133009D01*
X92762485Y-55133009D02*
X92762485Y-54752057D01*
X92762485Y-54752057D02*
X92810104Y-54656819D01*
X92810104Y-54656819D02*
X92857723Y-54609200D01*
X92857723Y-54609200D02*
X92952961Y-54561580D01*
X92952961Y-54561580D02*
X93143437Y-54561580D01*
X93143437Y-54561580D02*
X93238675Y-54609200D01*
X93238675Y-54609200D02*
X93286294Y-54656819D01*
X93286294Y-54656819D02*
X93333913Y-54752057D01*
X93333913Y-54752057D02*
X93333913Y-54990152D01*
X93333913Y-54990152D02*
X93286294Y-55085390D01*
X93286294Y-55085390D02*
X93238675Y-55133009D01*
X93238675Y-55133009D02*
X93143437Y-55180628D01*
X93143437Y-55180628D02*
X92952961Y-55180628D01*
X92952961Y-55180628D02*
X92857723Y-55133009D01*
X92857723Y-55133009D02*
X92810104Y-55085390D01*
X92810104Y-55085390D02*
X92762485Y-54990152D01*
%TO.C,C6*%
X81018742Y-54798933D02*
X81066361Y-54751314D01*
X81066361Y-54751314D02*
X81113980Y-54608457D01*
X81113980Y-54608457D02*
X81113980Y-54513219D01*
X81113980Y-54513219D02*
X81066361Y-54370362D01*
X81066361Y-54370362D02*
X80971123Y-54275124D01*
X80971123Y-54275124D02*
X80875885Y-54227505D01*
X80875885Y-54227505D02*
X80685409Y-54179886D01*
X80685409Y-54179886D02*
X80542552Y-54179886D01*
X80542552Y-54179886D02*
X80352076Y-54227505D01*
X80352076Y-54227505D02*
X80256838Y-54275124D01*
X80256838Y-54275124D02*
X80161600Y-54370362D01*
X80161600Y-54370362D02*
X80113980Y-54513219D01*
X80113980Y-54513219D02*
X80113980Y-54608457D01*
X80113980Y-54608457D02*
X80161600Y-54751314D01*
X80161600Y-54751314D02*
X80209219Y-54798933D01*
X80113980Y-55656076D02*
X80113980Y-55465600D01*
X80113980Y-55465600D02*
X80161600Y-55370362D01*
X80161600Y-55370362D02*
X80209219Y-55322743D01*
X80209219Y-55322743D02*
X80352076Y-55227505D01*
X80352076Y-55227505D02*
X80542552Y-55179886D01*
X80542552Y-55179886D02*
X80923504Y-55179886D01*
X80923504Y-55179886D02*
X81018742Y-55227505D01*
X81018742Y-55227505D02*
X81066361Y-55275124D01*
X81066361Y-55275124D02*
X81113980Y-55370362D01*
X81113980Y-55370362D02*
X81113980Y-55560838D01*
X81113980Y-55560838D02*
X81066361Y-55656076D01*
X81066361Y-55656076D02*
X81018742Y-55703695D01*
X81018742Y-55703695D02*
X80923504Y-55751314D01*
X80923504Y-55751314D02*
X80685409Y-55751314D01*
X80685409Y-55751314D02*
X80590171Y-55703695D01*
X80590171Y-55703695D02*
X80542552Y-55656076D01*
X80542552Y-55656076D02*
X80494933Y-55560838D01*
X80494933Y-55560838D02*
X80494933Y-55370362D01*
X80494933Y-55370362D02*
X80542552Y-55275124D01*
X80542552Y-55275124D02*
X80590171Y-55227505D01*
X80590171Y-55227505D02*
X80685409Y-55179886D01*
%TO.C,U1*%
X77711904Y-55807380D02*
X77711904Y-56616904D01*
X77711904Y-56616904D02*
X77664285Y-56712142D01*
X77664285Y-56712142D02*
X77616666Y-56759761D01*
X77616666Y-56759761D02*
X77521428Y-56807380D01*
X77521428Y-56807380D02*
X77330952Y-56807380D01*
X77330952Y-56807380D02*
X77235714Y-56759761D01*
X77235714Y-56759761D02*
X77188095Y-56712142D01*
X77188095Y-56712142D02*
X77140476Y-56616904D01*
X77140476Y-56616904D02*
X77140476Y-55807380D01*
X76140476Y-56807380D02*
X76711904Y-56807380D01*
X76426190Y-56807380D02*
X76426190Y-55807380D01*
X76426190Y-55807380D02*
X76521428Y-55950238D01*
X76521428Y-55950238D02*
X76616666Y-56045476D01*
X76616666Y-56045476D02*
X76711904Y-56093095D01*
%TO.C,U3*%
X104167780Y-51460495D02*
X104977304Y-51460495D01*
X104977304Y-51460495D02*
X105072542Y-51508114D01*
X105072542Y-51508114D02*
X105120161Y-51555733D01*
X105120161Y-51555733D02*
X105167780Y-51650971D01*
X105167780Y-51650971D02*
X105167780Y-51841447D01*
X105167780Y-51841447D02*
X105120161Y-51936685D01*
X105120161Y-51936685D02*
X105072542Y-51984304D01*
X105072542Y-51984304D02*
X104977304Y-52031923D01*
X104977304Y-52031923D02*
X104167780Y-52031923D01*
X104167780Y-52412876D02*
X104167780Y-53031923D01*
X104167780Y-53031923D02*
X104548733Y-52698590D01*
X104548733Y-52698590D02*
X104548733Y-52841447D01*
X104548733Y-52841447D02*
X104596352Y-52936685D01*
X104596352Y-52936685D02*
X104643971Y-52984304D01*
X104643971Y-52984304D02*
X104739209Y-53031923D01*
X104739209Y-53031923D02*
X104977304Y-53031923D01*
X104977304Y-53031923D02*
X105072542Y-52984304D01*
X105072542Y-52984304D02*
X105120161Y-52936685D01*
X105120161Y-52936685D02*
X105167780Y-52841447D01*
X105167780Y-52841447D02*
X105167780Y-52555733D01*
X105167780Y-52555733D02*
X105120161Y-52460495D01*
X105120161Y-52460495D02*
X105072542Y-52412876D01*
%TO.C,C11*%
X91397057Y-50640342D02*
X91444676Y-50687961D01*
X91444676Y-50687961D02*
X91587533Y-50735580D01*
X91587533Y-50735580D02*
X91682771Y-50735580D01*
X91682771Y-50735580D02*
X91825628Y-50687961D01*
X91825628Y-50687961D02*
X91920866Y-50592723D01*
X91920866Y-50592723D02*
X91968485Y-50497485D01*
X91968485Y-50497485D02*
X92016104Y-50307009D01*
X92016104Y-50307009D02*
X92016104Y-50164152D01*
X92016104Y-50164152D02*
X91968485Y-49973676D01*
X91968485Y-49973676D02*
X91920866Y-49878438D01*
X91920866Y-49878438D02*
X91825628Y-49783200D01*
X91825628Y-49783200D02*
X91682771Y-49735580D01*
X91682771Y-49735580D02*
X91587533Y-49735580D01*
X91587533Y-49735580D02*
X91444676Y-49783200D01*
X91444676Y-49783200D02*
X91397057Y-49830819D01*
X90444676Y-50735580D02*
X91016104Y-50735580D01*
X90730390Y-50735580D02*
X90730390Y-49735580D01*
X90730390Y-49735580D02*
X90825628Y-49878438D01*
X90825628Y-49878438D02*
X90920866Y-49973676D01*
X90920866Y-49973676D02*
X91016104Y-50021295D01*
X89492295Y-50735580D02*
X90063723Y-50735580D01*
X89778009Y-50735580D02*
X89778009Y-49735580D01*
X89778009Y-49735580D02*
X89873247Y-49878438D01*
X89873247Y-49878438D02*
X89968485Y-49973676D01*
X89968485Y-49973676D02*
X90063723Y-50021295D01*
%TO.C,C8*%
X91712142Y-61098133D02*
X91759761Y-61050514D01*
X91759761Y-61050514D02*
X91807380Y-60907657D01*
X91807380Y-60907657D02*
X91807380Y-60812419D01*
X91807380Y-60812419D02*
X91759761Y-60669562D01*
X91759761Y-60669562D02*
X91664523Y-60574324D01*
X91664523Y-60574324D02*
X91569285Y-60526705D01*
X91569285Y-60526705D02*
X91378809Y-60479086D01*
X91378809Y-60479086D02*
X91235952Y-60479086D01*
X91235952Y-60479086D02*
X91045476Y-60526705D01*
X91045476Y-60526705D02*
X90950238Y-60574324D01*
X90950238Y-60574324D02*
X90855000Y-60669562D01*
X90855000Y-60669562D02*
X90807380Y-60812419D01*
X90807380Y-60812419D02*
X90807380Y-60907657D01*
X90807380Y-60907657D02*
X90855000Y-61050514D01*
X90855000Y-61050514D02*
X90902619Y-61098133D01*
X91235952Y-61669562D02*
X91188333Y-61574324D01*
X91188333Y-61574324D02*
X91140714Y-61526705D01*
X91140714Y-61526705D02*
X91045476Y-61479086D01*
X91045476Y-61479086D02*
X90997857Y-61479086D01*
X90997857Y-61479086D02*
X90902619Y-61526705D01*
X90902619Y-61526705D02*
X90855000Y-61574324D01*
X90855000Y-61574324D02*
X90807380Y-61669562D01*
X90807380Y-61669562D02*
X90807380Y-61860038D01*
X90807380Y-61860038D02*
X90855000Y-61955276D01*
X90855000Y-61955276D02*
X90902619Y-62002895D01*
X90902619Y-62002895D02*
X90997857Y-62050514D01*
X90997857Y-62050514D02*
X91045476Y-62050514D01*
X91045476Y-62050514D02*
X91140714Y-62002895D01*
X91140714Y-62002895D02*
X91188333Y-61955276D01*
X91188333Y-61955276D02*
X91235952Y-61860038D01*
X91235952Y-61860038D02*
X91235952Y-61669562D01*
X91235952Y-61669562D02*
X91283571Y-61574324D01*
X91283571Y-61574324D02*
X91331190Y-61526705D01*
X91331190Y-61526705D02*
X91426428Y-61479086D01*
X91426428Y-61479086D02*
X91616904Y-61479086D01*
X91616904Y-61479086D02*
X91712142Y-61526705D01*
X91712142Y-61526705D02*
X91759761Y-61574324D01*
X91759761Y-61574324D02*
X91807380Y-61669562D01*
X91807380Y-61669562D02*
X91807380Y-61860038D01*
X91807380Y-61860038D02*
X91759761Y-61955276D01*
X91759761Y-61955276D02*
X91712142Y-62002895D01*
X91712142Y-62002895D02*
X91616904Y-62050514D01*
X91616904Y-62050514D02*
X91426428Y-62050514D01*
X91426428Y-62050514D02*
X91331190Y-62002895D01*
X91331190Y-62002895D02*
X91283571Y-61955276D01*
X91283571Y-61955276D02*
X91235952Y-61860038D01*
%TO.C,R9*%
X69253180Y-49007733D02*
X68776990Y-48674400D01*
X69253180Y-48436305D02*
X68253180Y-48436305D01*
X68253180Y-48436305D02*
X68253180Y-48817257D01*
X68253180Y-48817257D02*
X68300800Y-48912495D01*
X68300800Y-48912495D02*
X68348419Y-48960114D01*
X68348419Y-48960114D02*
X68443657Y-49007733D01*
X68443657Y-49007733D02*
X68586514Y-49007733D01*
X68586514Y-49007733D02*
X68681752Y-48960114D01*
X68681752Y-48960114D02*
X68729371Y-48912495D01*
X68729371Y-48912495D02*
X68776990Y-48817257D01*
X68776990Y-48817257D02*
X68776990Y-48436305D01*
X69253180Y-49483924D02*
X69253180Y-49674400D01*
X69253180Y-49674400D02*
X69205561Y-49769638D01*
X69205561Y-49769638D02*
X69157942Y-49817257D01*
X69157942Y-49817257D02*
X69015085Y-49912495D01*
X69015085Y-49912495D02*
X68824609Y-49960114D01*
X68824609Y-49960114D02*
X68443657Y-49960114D01*
X68443657Y-49960114D02*
X68348419Y-49912495D01*
X68348419Y-49912495D02*
X68300800Y-49864876D01*
X68300800Y-49864876D02*
X68253180Y-49769638D01*
X68253180Y-49769638D02*
X68253180Y-49579162D01*
X68253180Y-49579162D02*
X68300800Y-49483924D01*
X68300800Y-49483924D02*
X68348419Y-49436305D01*
X68348419Y-49436305D02*
X68443657Y-49388686D01*
X68443657Y-49388686D02*
X68681752Y-49388686D01*
X68681752Y-49388686D02*
X68776990Y-49436305D01*
X68776990Y-49436305D02*
X68824609Y-49483924D01*
X68824609Y-49483924D02*
X68872228Y-49579162D01*
X68872228Y-49579162D02*
X68872228Y-49769638D01*
X68872228Y-49769638D02*
X68824609Y-49864876D01*
X68824609Y-49864876D02*
X68776990Y-49912495D01*
X68776990Y-49912495D02*
X68681752Y-49960114D01*
%TO.C,C12*%
X89273742Y-58386742D02*
X89321361Y-58339123D01*
X89321361Y-58339123D02*
X89368980Y-58196266D01*
X89368980Y-58196266D02*
X89368980Y-58101028D01*
X89368980Y-58101028D02*
X89321361Y-57958171D01*
X89321361Y-57958171D02*
X89226123Y-57862933D01*
X89226123Y-57862933D02*
X89130885Y-57815314D01*
X89130885Y-57815314D02*
X88940409Y-57767695D01*
X88940409Y-57767695D02*
X88797552Y-57767695D01*
X88797552Y-57767695D02*
X88607076Y-57815314D01*
X88607076Y-57815314D02*
X88511838Y-57862933D01*
X88511838Y-57862933D02*
X88416600Y-57958171D01*
X88416600Y-57958171D02*
X88368980Y-58101028D01*
X88368980Y-58101028D02*
X88368980Y-58196266D01*
X88368980Y-58196266D02*
X88416600Y-58339123D01*
X88416600Y-58339123D02*
X88464219Y-58386742D01*
X89368980Y-59339123D02*
X89368980Y-58767695D01*
X89368980Y-59053409D02*
X88368980Y-59053409D01*
X88368980Y-59053409D02*
X88511838Y-58958171D01*
X88511838Y-58958171D02*
X88607076Y-58862933D01*
X88607076Y-58862933D02*
X88654695Y-58767695D01*
X88464219Y-59720076D02*
X88416600Y-59767695D01*
X88416600Y-59767695D02*
X88368980Y-59862933D01*
X88368980Y-59862933D02*
X88368980Y-60101028D01*
X88368980Y-60101028D02*
X88416600Y-60196266D01*
X88416600Y-60196266D02*
X88464219Y-60243885D01*
X88464219Y-60243885D02*
X88559457Y-60291504D01*
X88559457Y-60291504D02*
X88654695Y-60291504D01*
X88654695Y-60291504D02*
X88797552Y-60243885D01*
X88797552Y-60243885D02*
X89368980Y-59672457D01*
X89368980Y-59672457D02*
X89368980Y-60291504D01*
%TO.C,C3*%
X73779742Y-54849733D02*
X73827361Y-54802114D01*
X73827361Y-54802114D02*
X73874980Y-54659257D01*
X73874980Y-54659257D02*
X73874980Y-54564019D01*
X73874980Y-54564019D02*
X73827361Y-54421162D01*
X73827361Y-54421162D02*
X73732123Y-54325924D01*
X73732123Y-54325924D02*
X73636885Y-54278305D01*
X73636885Y-54278305D02*
X73446409Y-54230686D01*
X73446409Y-54230686D02*
X73303552Y-54230686D01*
X73303552Y-54230686D02*
X73113076Y-54278305D01*
X73113076Y-54278305D02*
X73017838Y-54325924D01*
X73017838Y-54325924D02*
X72922600Y-54421162D01*
X72922600Y-54421162D02*
X72874980Y-54564019D01*
X72874980Y-54564019D02*
X72874980Y-54659257D01*
X72874980Y-54659257D02*
X72922600Y-54802114D01*
X72922600Y-54802114D02*
X72970219Y-54849733D01*
X72874980Y-55183067D02*
X72874980Y-55802114D01*
X72874980Y-55802114D02*
X73255933Y-55468781D01*
X73255933Y-55468781D02*
X73255933Y-55611638D01*
X73255933Y-55611638D02*
X73303552Y-55706876D01*
X73303552Y-55706876D02*
X73351171Y-55754495D01*
X73351171Y-55754495D02*
X73446409Y-55802114D01*
X73446409Y-55802114D02*
X73684504Y-55802114D01*
X73684504Y-55802114D02*
X73779742Y-55754495D01*
X73779742Y-55754495D02*
X73827361Y-55706876D01*
X73827361Y-55706876D02*
X73874980Y-55611638D01*
X73874980Y-55611638D02*
X73874980Y-55325924D01*
X73874980Y-55325924D02*
X73827361Y-55230686D01*
X73827361Y-55230686D02*
X73779742Y-55183067D01*
D11*
%TO.C,C10*%
X93026620Y-47267400D02*
X93307780Y-47267400D01*
X93026620Y-48287400D02*
X93307780Y-48287400D01*
%TO.C,C14*%
X83208400Y-54267980D02*
X83208400Y-53986820D01*
X84228400Y-54267980D02*
X84228400Y-53986820D01*
%TO.C,R1*%
X70562736Y-60910800D02*
X71016864Y-60910800D01*
X70562736Y-62380800D02*
X71016864Y-62380800D01*
%TO.C,C1*%
X115419600Y-48322620D02*
X115419600Y-48603780D01*
X114399600Y-48322620D02*
X114399600Y-48603780D01*
%TO.C,C9*%
X95819420Y-54670000D02*
X96100580Y-54670000D01*
X95819420Y-55690000D02*
X96100580Y-55690000D01*
%TO.C,C6*%
X81315000Y-52078748D02*
X81315000Y-52601252D01*
X79845000Y-52078748D02*
X79845000Y-52601252D01*
%TO.C,U1*%
X74820000Y-50840000D02*
X74820000Y-51980000D01*
X79310000Y-51980000D02*
X79080000Y-51980000D01*
X74590000Y-51980000D02*
X74820000Y-51980000D01*
X74590000Y-51980000D02*
X74590000Y-54700000D01*
X79310000Y-54700000D02*
X79310000Y-51980000D01*
X78000000Y-54700000D02*
X79310000Y-54700000D01*
X74590000Y-54700000D02*
X75900000Y-54700000D01*
%TO.C,G\u002A\u002A\u002A*%
G36*
X97235619Y-58141454D02*
G01*
X97219824Y-58164012D01*
X97197281Y-58193148D01*
X97161099Y-58217176D01*
X97125828Y-58221585D01*
X97100044Y-58203542D01*
X97085032Y-58181227D01*
X97058304Y-58146707D01*
X97057516Y-58145776D01*
X97053308Y-58141454D01*
X97185449Y-58141454D01*
X97193216Y-58149222D01*
X97200984Y-58141454D01*
X97193216Y-58133687D01*
X97185449Y-58141454D01*
X97053308Y-58141454D01*
X97038922Y-58126677D01*
X97026769Y-58130413D01*
X97011325Y-58159672D01*
X96997777Y-58193589D01*
X96993342Y-58240135D01*
X97012650Y-58278967D01*
X97013413Y-58279899D01*
X97026834Y-58313350D01*
X97011203Y-58340789D01*
X96968386Y-58358852D01*
X96946366Y-58362109D01*
X96909571Y-58355682D01*
X96867394Y-58329247D01*
X96835555Y-58305756D01*
X96810499Y-58291873D01*
X96799508Y-58296614D01*
X96797069Y-58319192D01*
X96790808Y-58345945D01*
X96767349Y-58359902D01*
X96730458Y-58352791D01*
X96684351Y-58325634D01*
X96633243Y-58279454D01*
X96608535Y-58255119D01*
X96577411Y-58234578D01*
X96552744Y-58235246D01*
X96526719Y-58241242D01*
X96475706Y-58244081D01*
X96416941Y-58241923D01*
X96363233Y-58235355D01*
X96327395Y-58224961D01*
X96312483Y-58219946D01*
X96274578Y-58222230D01*
X96217148Y-58240108D01*
X96188258Y-58250118D01*
X96122188Y-58269064D01*
X96063828Y-58281381D01*
X96049455Y-58283791D01*
X96003830Y-58298101D01*
X95984884Y-58319557D01*
X95965085Y-58342105D01*
X95921337Y-58357546D01*
X95912211Y-58359453D01*
X95878569Y-58370763D01*
X95864959Y-58382953D01*
X95854712Y-58390478D01*
X95822442Y-58395799D01*
X95777741Y-58397455D01*
X95730530Y-58395531D01*
X95690725Y-58390111D01*
X95668247Y-58381280D01*
X95665405Y-58378948D01*
X95635824Y-58367023D01*
X95593104Y-58359326D01*
X95589576Y-58358952D01*
X95537681Y-58345850D01*
X95493395Y-58323511D01*
X95484417Y-58317137D01*
X95439233Y-58288655D01*
X95389621Y-58261157D01*
X95384684Y-58258624D01*
X95330385Y-58226818D01*
X95302031Y-58198239D01*
X95296180Y-58167170D01*
X95309390Y-58127895D01*
X95324680Y-58103072D01*
X95358602Y-58057912D01*
X95404085Y-58002954D01*
X95455612Y-57945096D01*
X95482229Y-57915800D01*
X95557337Y-57824744D01*
X95608665Y-57745925D01*
X95638148Y-57675983D01*
X95647723Y-57611557D01*
X95647783Y-57606715D01*
X95651035Y-57574349D01*
X95661218Y-57540368D01*
X95681107Y-57498850D01*
X95713475Y-57443873D01*
X95761097Y-57369512D01*
X95797948Y-57312659D01*
X95852592Y-57226286D01*
X95893158Y-57159134D01*
X95918408Y-57113285D01*
X95927100Y-57090821D01*
X95927089Y-57090342D01*
X95918222Y-57066520D01*
X95897807Y-57033088D01*
X95868240Y-56985527D01*
X95829010Y-56880674D01*
X95819695Y-56768673D01*
X95840545Y-56651189D01*
X95864633Y-56592320D01*
X95902166Y-56548941D01*
X95949883Y-56534058D01*
X95980930Y-56538444D01*
X96023702Y-56550870D01*
X96066830Y-56567445D01*
X96100156Y-56584240D01*
X96113522Y-56597328D01*
X96115644Y-56602268D01*
X96133727Y-56602512D01*
X96135773Y-56601971D01*
X96157168Y-56609040D01*
X96192705Y-56635962D01*
X96244124Y-56684219D01*
X96313165Y-56755293D01*
X96313523Y-56755671D01*
X96356666Y-56784199D01*
X96400815Y-56783003D01*
X96442959Y-56753157D01*
X96480090Y-56695734D01*
X96486791Y-56683879D01*
X96518366Y-56643245D01*
X96564258Y-56594774D01*
X96617554Y-56544745D01*
X96671339Y-56499440D01*
X96718700Y-56465137D01*
X96752721Y-56448116D01*
X96792975Y-56451197D01*
X96826870Y-56481542D01*
X96849384Y-56536379D01*
X96859265Y-56578032D01*
X96938033Y-56525025D01*
X96973304Y-56503461D01*
X97031767Y-56474332D01*
X97081705Y-56456483D01*
X97117323Y-56444861D01*
X97175061Y-56421569D01*
X97244531Y-56390620D01*
X97317498Y-56355541D01*
X97371384Y-56329784D01*
X97452900Y-56294814D01*
X97526085Y-56267903D01*
X97581595Y-56252690D01*
X97622760Y-56243348D01*
X97679985Y-56225540D01*
X97721412Y-56206978D01*
X97750859Y-56190614D01*
X97836550Y-56152122D01*
X97950198Y-56110330D01*
X98089880Y-56065974D01*
X98212356Y-56035493D01*
X98325522Y-56022680D01*
X98435361Y-56028644D01*
X98552543Y-56053088D01*
X98650697Y-56073464D01*
X98793339Y-56081092D01*
X98856886Y-56079570D01*
X98941723Y-56077893D01*
X99035589Y-56076295D01*
X99127345Y-56074982D01*
X99130457Y-56074941D01*
X99237037Y-56072722D01*
X99358082Y-56068849D01*
X99487901Y-56063629D01*
X99620802Y-56057366D01*
X99751097Y-56050365D01*
X99873093Y-56042932D01*
X99981101Y-56035371D01*
X100069430Y-56027988D01*
X100132388Y-56021089D01*
X100161150Y-56017343D01*
X100241361Y-56007800D01*
X100331429Y-55997990D01*
X100416764Y-55989533D01*
X100454223Y-55985912D01*
X100542205Y-55976529D01*
X100627544Y-55966418D01*
X100696077Y-55957216D01*
X100762649Y-55950218D01*
X100840501Y-55947215D01*
X100905802Y-55949753D01*
X100959229Y-55956361D01*
X101055061Y-55972063D01*
X101154431Y-55992189D01*
X101248732Y-56014779D01*
X101329360Y-56037873D01*
X101387712Y-56059512D01*
X101455909Y-56090231D01*
X101551490Y-56131815D01*
X101636761Y-56167214D01*
X101705827Y-56194003D01*
X101752788Y-56209752D01*
X101760399Y-56211951D01*
X101836896Y-56240369D01*
X101929175Y-56283219D01*
X102029508Y-56336225D01*
X102130168Y-56395111D01*
X102223428Y-56455600D01*
X102301560Y-56513417D01*
X102313226Y-56522918D01*
X102378358Y-56577684D01*
X102445007Y-56636187D01*
X102508968Y-56694458D01*
X102566036Y-56748529D01*
X102612006Y-56794431D01*
X102642671Y-56828195D01*
X102653828Y-56845854D01*
X102653849Y-56846161D01*
X102664055Y-56863735D01*
X102689311Y-56897316D01*
X102724374Y-56939912D01*
X102770553Y-56999224D01*
X102852415Y-57140998D01*
X102910493Y-57301648D01*
X102912047Y-57307404D01*
X102925700Y-57362039D01*
X102930494Y-57397267D01*
X102926693Y-57422579D01*
X102914563Y-57447467D01*
X102909994Y-57455744D01*
X102901996Y-57476353D01*
X102898749Y-57502299D01*
X102900364Y-57539907D01*
X102906956Y-57595499D01*
X102918637Y-57675399D01*
X102940715Y-57800600D01*
X102967284Y-57906721D01*
X102999527Y-57994826D01*
X103039469Y-58071546D01*
X103041634Y-58075123D01*
X103072901Y-58128221D01*
X103102396Y-58180292D01*
X103109631Y-58192270D01*
X103140084Y-58235098D01*
X103182243Y-58288408D01*
X103208482Y-58319097D01*
X103229272Y-58343412D01*
X103240965Y-58356632D01*
X103296275Y-58421351D01*
X103351145Y-58488458D01*
X103395232Y-58545369D01*
X103426255Y-58584261D01*
X103483382Y-58648635D01*
X103551671Y-58720157D01*
X103624860Y-58792668D01*
X103696685Y-58860008D01*
X103760885Y-58916017D01*
X103811198Y-58954535D01*
X103818835Y-58959877D01*
X103879708Y-59021447D01*
X103920175Y-59098801D01*
X103935002Y-59182311D01*
X103927022Y-59233990D01*
X103902302Y-59307070D01*
X103864072Y-59392184D01*
X103815624Y-59483179D01*
X103760252Y-59573902D01*
X103701249Y-59658202D01*
X103641908Y-59729925D01*
X103623811Y-59748861D01*
X103601195Y-59766608D01*
X103574155Y-59776030D01*
X103533811Y-59779756D01*
X103471282Y-59780415D01*
X103447436Y-59780588D01*
X103378453Y-59784598D01*
X103325287Y-59795494D01*
X103276256Y-59815369D01*
X103248188Y-59827945D01*
X103216403Y-59838035D01*
X103177546Y-59845087D01*
X103125617Y-59849860D01*
X103054617Y-59853114D01*
X102958547Y-59855609D01*
X102865769Y-59857264D01*
X102792969Y-59857016D01*
X102742942Y-59853657D01*
X102711418Y-59846130D01*
X102694123Y-59833379D01*
X102686786Y-59814347D01*
X102685136Y-59787978D01*
X102685201Y-59786202D01*
X102699834Y-59756469D01*
X102735195Y-59719205D01*
X102784198Y-59679258D01*
X102839760Y-59641476D01*
X102894796Y-59610709D01*
X102942222Y-59591806D01*
X102974953Y-59589614D01*
X102992867Y-59589993D01*
X103034716Y-59575384D01*
X103087444Y-59546320D01*
X103144377Y-59507497D01*
X103198841Y-59463610D01*
X103244161Y-59419357D01*
X103273666Y-59379432D01*
X103285709Y-59343505D01*
X103280561Y-59289919D01*
X103251487Y-59241271D01*
X103202529Y-59203424D01*
X103137726Y-59182236D01*
X103115244Y-59178270D01*
X103051641Y-59162893D01*
X102987952Y-59142821D01*
X102934390Y-59121503D01*
X102901167Y-59102386D01*
X102884764Y-59090534D01*
X102862329Y-59081667D01*
X102862082Y-59081662D01*
X102842382Y-59074780D01*
X102801055Y-59056721D01*
X102744003Y-59030160D01*
X102677131Y-58997770D01*
X102652288Y-58985529D01*
X102500799Y-58911102D01*
X102375213Y-58849814D01*
X102275896Y-58801840D01*
X102203213Y-58767356D01*
X102157528Y-58746537D01*
X102139208Y-58739558D01*
X102136565Y-58741603D01*
X102128437Y-58764266D01*
X102121088Y-58803938D01*
X102118725Y-58818748D01*
X102108442Y-58857737D01*
X102096645Y-58878087D01*
X102095382Y-58879578D01*
X102090103Y-58903725D01*
X102085930Y-58951846D01*
X102082911Y-59018104D01*
X102081096Y-59096663D01*
X102080532Y-59181687D01*
X102081268Y-59267341D01*
X102083351Y-59347786D01*
X102086830Y-59417189D01*
X102091754Y-59469711D01*
X102094532Y-59498121D01*
X102095702Y-59570058D01*
X102090189Y-59635181D01*
X102090004Y-59636315D01*
X102080589Y-59680916D01*
X102065588Y-59712977D01*
X102038230Y-59742397D01*
X101991742Y-59779076D01*
X101935880Y-59818837D01*
X101839367Y-59875436D01*
X101738409Y-59916706D01*
X101619778Y-59948678D01*
X101584163Y-59955714D01*
X101477850Y-59969177D01*
X101358989Y-59975578D01*
X101234781Y-59975241D01*
X101112424Y-59968491D01*
X100999116Y-59955652D01*
X100902057Y-59937048D01*
X100828446Y-59913005D01*
X100812767Y-59906300D01*
X100742885Y-59882041D01*
X100672514Y-59864794D01*
X100615703Y-59858177D01*
X100611578Y-59857997D01*
X100570663Y-59845447D01*
X100530260Y-59819205D01*
X100486672Y-59780320D01*
X100523590Y-59749100D01*
X100558779Y-59725907D01*
X100601266Y-59708872D01*
X100611452Y-59705985D01*
X100652219Y-59690574D01*
X100708064Y-59666412D01*
X100770014Y-59637307D01*
X100810966Y-59617767D01*
X100867206Y-59594324D01*
X100919176Y-59579374D01*
X100978653Y-59569858D01*
X101057414Y-59562722D01*
X101140143Y-59555227D01*
X101213719Y-59544387D01*
X101263712Y-59530345D01*
X101294191Y-59511890D01*
X101309221Y-59487814D01*
X101320330Y-59469200D01*
X101350951Y-59449131D01*
X101369108Y-59441275D01*
X101375653Y-59428035D01*
X101373826Y-59424790D01*
X101358884Y-59395450D01*
X101336854Y-59349799D01*
X101311157Y-59295224D01*
X101285214Y-59239113D01*
X101262447Y-59188853D01*
X101246278Y-59151831D01*
X101240128Y-59135434D01*
X101237471Y-59123404D01*
X101223059Y-59087843D01*
X101199438Y-59038756D01*
X101170379Y-58983066D01*
X101139656Y-58927698D01*
X101111041Y-58879576D01*
X101088306Y-58845625D01*
X101075225Y-58832769D01*
X101066065Y-58830855D01*
X101053706Y-58812766D01*
X101053692Y-58812380D01*
X101042597Y-58791549D01*
X101014763Y-58757089D01*
X100976030Y-58716256D01*
X100974345Y-58714592D01*
X100935998Y-58674322D01*
X100908733Y-58641239D01*
X100898354Y-58622361D01*
X100897995Y-58617715D01*
X100891397Y-58587388D01*
X100878698Y-58542729D01*
X100862794Y-58492590D01*
X100846583Y-58445820D01*
X100832962Y-58411268D01*
X100824828Y-58397785D01*
X100816821Y-58402180D01*
X100798037Y-58422810D01*
X100790449Y-58432549D01*
X100775626Y-58439566D01*
X100754756Y-58422855D01*
X100734816Y-58409548D01*
X100706520Y-58406798D01*
X100681416Y-58403952D01*
X100650992Y-58383451D01*
X100641283Y-58374108D01*
X100623615Y-58362748D01*
X100618721Y-58374482D01*
X100616236Y-58388745D01*
X100601293Y-58396133D01*
X100569434Y-58385952D01*
X100516771Y-58357556D01*
X100469625Y-58333382D01*
X100429426Y-58324403D01*
X100382554Y-58328407D01*
X100368324Y-58330992D01*
X100323042Y-58341473D01*
X100293080Y-58351709D01*
X100267987Y-58359896D01*
X100221502Y-58370629D01*
X100164740Y-58381166D01*
X100118201Y-58388026D01*
X100068565Y-58390572D01*
X100023244Y-58383930D01*
X99967157Y-58367022D01*
X99962589Y-58365492D01*
X99886231Y-58343430D01*
X99833337Y-58335608D01*
X99805273Y-58342064D01*
X99803403Y-58362830D01*
X99811170Y-58383472D01*
X99826421Y-58427591D01*
X99843929Y-58480810D01*
X99858556Y-58521345D01*
X99882261Y-58574386D01*
X99904129Y-58611070D01*
X99919395Y-58632527D01*
X99934434Y-58666566D01*
X99928768Y-58685281D01*
X99902484Y-58684671D01*
X99869795Y-58674296D01*
X99902268Y-58718579D01*
X99908899Y-58728485D01*
X99925490Y-58766576D01*
X99936943Y-58820876D01*
X99945017Y-58898794D01*
X99948746Y-58951528D01*
X99950401Y-58996903D01*
X99947693Y-59021945D01*
X99939779Y-59032637D01*
X99925814Y-59034964D01*
X99911119Y-59037403D01*
X99911954Y-59046616D01*
X99914487Y-59048735D01*
X99933353Y-59078601D01*
X99949727Y-59123787D01*
X99959535Y-59170490D01*
X99958699Y-59204910D01*
X99957087Y-59212561D01*
X99957627Y-59251853D01*
X99966384Y-59299345D01*
X99974763Y-59337348D01*
X99973449Y-59371336D01*
X99957645Y-59403252D01*
X99941166Y-59450430D01*
X99941055Y-59520646D01*
X99959297Y-59605644D01*
X99961767Y-59616183D01*
X99956797Y-59637853D01*
X99935073Y-59637679D01*
X99901443Y-59614888D01*
X99882538Y-59599933D01*
X99874473Y-59605661D01*
X99873033Y-59637894D01*
X99872486Y-59653347D01*
X99862461Y-59682437D01*
X99834195Y-59696359D01*
X99808595Y-59707980D01*
X99795357Y-59726925D01*
X99795065Y-59729789D01*
X99782313Y-59756531D01*
X99756519Y-59789650D01*
X99752175Y-59794499D01*
X99727677Y-59829343D01*
X99717681Y-59857369D01*
X99710162Y-59874106D01*
X99674113Y-59900538D01*
X99609512Y-59929374D01*
X99517716Y-59959916D01*
X99474579Y-59970999D01*
X99424781Y-59975263D01*
X99374491Y-59966455D01*
X99357233Y-59962186D01*
X99299937Y-59950416D01*
X99227728Y-59937667D01*
X99149685Y-59925329D01*
X99074889Y-59914794D01*
X99012423Y-59907452D01*
X98971365Y-59904696D01*
X98939196Y-59899037D01*
X98909852Y-59881393D01*
X98898736Y-59872585D01*
X98859251Y-59861592D01*
X98793098Y-59858090D01*
X98733947Y-59854883D01*
X98694630Y-59842485D01*
X98679262Y-59818505D01*
X98684539Y-59780584D01*
X98686579Y-59775629D01*
X98712950Y-59748298D01*
X98755351Y-59726913D01*
X98801065Y-59718274D01*
X98818490Y-59714933D01*
X98843056Y-59696082D01*
X98860098Y-59677881D01*
X98903073Y-59652721D01*
X98958126Y-59631864D01*
X99014177Y-59619252D01*
X99060145Y-59618828D01*
X99108725Y-59619104D01*
X99173494Y-59605471D01*
X99237321Y-59581261D01*
X99286646Y-59550561D01*
X99304213Y-59531896D01*
X99331938Y-59471294D01*
X99338279Y-59390670D01*
X99323415Y-59291641D01*
X99287525Y-59175824D01*
X99230786Y-59044834D01*
X99200037Y-58980627D01*
X99162056Y-58899065D01*
X99128304Y-58824290D01*
X99103590Y-58766815D01*
X99095990Y-58749656D01*
X99064953Y-58692419D01*
X99024921Y-58630493D01*
X98980739Y-58570232D01*
X98937255Y-58517988D01*
X98899317Y-58480115D01*
X98871770Y-58462966D01*
X98852072Y-58447382D01*
X98832825Y-58414885D01*
X98831755Y-58412509D01*
X98813498Y-58387754D01*
X98785002Y-58361453D01*
X98752974Y-58338026D01*
X98724123Y-58321893D01*
X98705156Y-58317474D01*
X98702781Y-58329189D01*
X98704139Y-58340836D01*
X98687709Y-58351179D01*
X98673559Y-58356436D01*
X98672323Y-58382249D01*
X98673875Y-58390052D01*
X98667725Y-58410440D01*
X98645203Y-58409795D01*
X98612024Y-58387609D01*
X98597791Y-58375216D01*
X98585834Y-58370550D01*
X98583614Y-58387609D01*
X98581249Y-58402571D01*
X98566205Y-58412615D01*
X98542574Y-58400262D01*
X98516574Y-58367386D01*
X98491269Y-58336371D01*
X98466619Y-58330211D01*
X98453785Y-58331773D01*
X98443797Y-58314920D01*
X98442294Y-58303625D01*
X98433861Y-58290050D01*
X98742774Y-58290050D01*
X98746733Y-58304574D01*
X98749925Y-58309172D01*
X98764102Y-58320109D01*
X98766227Y-58319097D01*
X98762268Y-58304574D01*
X98759077Y-58299975D01*
X98744899Y-58289038D01*
X98742774Y-58290050D01*
X98433861Y-58290050D01*
X98428496Y-58281415D01*
X98428362Y-58281333D01*
X98419744Y-58286844D01*
X98422311Y-58317538D01*
X98423982Y-58336742D01*
X98417375Y-58382153D01*
X98400855Y-58427200D01*
X98378740Y-58461698D01*
X98355349Y-58475460D01*
X98351206Y-58475195D01*
X98339289Y-58463628D01*
X98342494Y-58430334D01*
X98344992Y-58396227D01*
X98336416Y-58375325D01*
X98330461Y-58373048D01*
X98321528Y-58378873D01*
X98312815Y-58401097D01*
X98302707Y-58444496D01*
X98289591Y-58513843D01*
X98283590Y-58541401D01*
X98282273Y-58545369D01*
X98270983Y-58579386D01*
X98258740Y-58596698D01*
X98251904Y-58600869D01*
X98241840Y-58624339D01*
X98234061Y-58641600D01*
X98210850Y-58644486D01*
X98182806Y-58627705D01*
X98173306Y-58621496D01*
X98166062Y-58632623D01*
X98163926Y-58670427D01*
X98158314Y-58729097D01*
X98142108Y-58760404D01*
X98115701Y-58762979D01*
X98113339Y-58762227D01*
X98092654Y-58770917D01*
X98073216Y-58809059D01*
X98061681Y-58835996D01*
X98043594Y-58860146D01*
X98029648Y-58858256D01*
X98023453Y-58828886D01*
X98019420Y-58817573D01*
X98006999Y-58832235D01*
X97985494Y-58875491D01*
X97984435Y-58877808D01*
X97958809Y-58925669D01*
X97936799Y-58952609D01*
X97921400Y-58956133D01*
X97915602Y-58933748D01*
X97914839Y-58921674D01*
X97906573Y-58911236D01*
X97888733Y-58927575D01*
X97860714Y-58971403D01*
X97821910Y-59043429D01*
X97788572Y-59105629D01*
X97762647Y-59146425D01*
X97742898Y-59166328D01*
X97726320Y-59169294D01*
X97707591Y-59171878D01*
X97689648Y-59194410D01*
X97668987Y-59242151D01*
X97658827Y-59267225D01*
X97635868Y-59307150D01*
X97614893Y-59317740D01*
X97611015Y-59317460D01*
X97590301Y-59332922D01*
X97571461Y-59378273D01*
X97565740Y-59394815D01*
X97546251Y-59431938D01*
X97526241Y-59449931D01*
X97518320Y-59453811D01*
X97492599Y-59478901D01*
X97466247Y-59517564D01*
X97459873Y-59528635D01*
X97432566Y-59567148D01*
X97412501Y-59576986D01*
X97398217Y-59559038D01*
X97392495Y-59557415D01*
X97377256Y-59575591D01*
X97357642Y-59612768D01*
X97334340Y-59659706D01*
X97311285Y-59690912D01*
X97290060Y-59697456D01*
X97266968Y-59682170D01*
X97249406Y-59668991D01*
X97235288Y-59676089D01*
X97216569Y-59707518D01*
X97204825Y-59725103D01*
X97156701Y-59767862D01*
X97086457Y-59807807D01*
X97000459Y-59842603D01*
X96905077Y-59869914D01*
X96806677Y-59887404D01*
X96711626Y-59892738D01*
X96692568Y-59892007D01*
X96637863Y-59888248D01*
X96568226Y-59882128D01*
X96494134Y-59874525D01*
X96462207Y-59871034D01*
X96379171Y-59862237D01*
X96299843Y-59854172D01*
X96237803Y-59848233D01*
X96207932Y-59844849D01*
X96137752Y-59828102D01*
X96096160Y-59801168D01*
X96082452Y-59763664D01*
X96084094Y-59753401D01*
X96100666Y-59719366D01*
X96128346Y-59682414D01*
X96158748Y-59652754D01*
X96183490Y-59640598D01*
X96189770Y-59639378D01*
X96221053Y-59627286D01*
X96268913Y-59605011D01*
X96325810Y-59575978D01*
X96329737Y-59573897D01*
X96395323Y-59541204D01*
X96447888Y-59521331D01*
X96499954Y-59510554D01*
X96564042Y-59505151D01*
X96582362Y-59504115D01*
X96674265Y-59495903D01*
X96743051Y-59482203D01*
X96795442Y-59460371D01*
X96838161Y-59427765D01*
X96877931Y-59381742D01*
X96881689Y-59376687D01*
X96934758Y-59285462D01*
X96978071Y-59172017D01*
X96994317Y-59123639D01*
X97025450Y-59042124D01*
X97062350Y-58954061D01*
X97100079Y-58871607D01*
X97131009Y-58804843D01*
X97160312Y-58735908D01*
X97181981Y-58678576D01*
X97192784Y-58640890D01*
X97196570Y-58624168D01*
X97212472Y-58573394D01*
X97222861Y-58545369D01*
X98226305Y-58545369D01*
X98234073Y-58553136D01*
X98241840Y-58545369D01*
X98234073Y-58537601D01*
X98226305Y-58545369D01*
X97222861Y-58545369D01*
X97236274Y-58509186D01*
X97264409Y-58441471D01*
X97282148Y-58400685D01*
X97308574Y-58334994D01*
X97322853Y-58286739D01*
X97326008Y-58248901D01*
X97319061Y-58214464D01*
X97303036Y-58176408D01*
X97285849Y-58144085D01*
X97264834Y-58122130D01*
X97244341Y-58128997D01*
X97235619Y-58141454D01*
G37*
%TO.C,U3*%
X110725000Y-53175000D02*
X110465000Y-53175000D01*
X105535000Y-53175000D02*
X105535000Y-51500000D01*
X105275000Y-53175000D02*
X105535000Y-53175000D01*
X110725000Y-55900000D02*
X110725000Y-53175000D01*
X110725000Y-55900000D02*
X110725000Y-58625000D01*
X105275000Y-55900000D02*
X105275000Y-53175000D01*
X105275000Y-55900000D02*
X105275000Y-58625000D01*
X110725000Y-58625000D02*
X110465000Y-58625000D01*
X105275000Y-58625000D02*
X105535000Y-58625000D01*
%TO.C,C11*%
X94327652Y-51077800D02*
X93805148Y-51077800D01*
X94327652Y-49607800D02*
X93805148Y-49607800D01*
%TO.C,C8*%
X91950000Y-63486420D02*
X91950000Y-63767580D01*
X90930000Y-63486420D02*
X90930000Y-63767580D01*
%TO.C,R9*%
X71270800Y-48947336D02*
X71270800Y-49401464D01*
X69800800Y-48947336D02*
X69800800Y-49401464D01*
%TO.C,C12*%
X89736600Y-61714748D02*
X89736600Y-62237252D01*
X88266600Y-61714748D02*
X88266600Y-62237252D01*
%TO.C,C3*%
X74055000Y-52078748D02*
X74055000Y-52601252D01*
X72585000Y-52078748D02*
X72585000Y-52601252D01*
%TD*%
M02*
