%TF.GenerationSoftware,KiCad,Pcbnew,(7.0.0)*%
%TF.CreationDate,2023-04-02T12:15:27-04:00*%
%TF.ProjectId,H503,48353033-2e6b-4696-9361-645f70636258,rev?*%
%TF.SameCoordinates,Original*%
%TF.FileFunction,Copper,L2,Inr*%
%TF.FilePolarity,Positive*%
%FSLAX46Y46*%
G04 Gerber Fmt 4.6, Leading zero omitted, Abs format (unit mm)*
G04 Created by KiCad (PCBNEW (7.0.0)) date 2023-04-02 12:15:27*
%MOMM*%
%LPD*%
G01*
G04 APERTURE LIST*
%TA.AperFunction,ComponentPad*%
%ADD10R,1.700000X1.700000*%
%TD*%
%TA.AperFunction,ComponentPad*%
%ADD11O,1.700000X1.700000*%
%TD*%
%TA.AperFunction,ComponentPad*%
%ADD12C,1.000000*%
%TD*%
%TA.AperFunction,ComponentPad*%
%ADD13R,1.000000X1.000000*%
%TD*%
%TA.AperFunction,ComponentPad*%
%ADD14O,1.000000X1.000000*%
%TD*%
%TA.AperFunction,ComponentPad*%
%ADD15O,1.550000X0.890000*%
%TD*%
%TA.AperFunction,ComponentPad*%
%ADD16O,0.950000X1.250000*%
%TD*%
%TA.AperFunction,ViaPad*%
%ADD17C,0.508000*%
%TD*%
%TA.AperFunction,ViaPad*%
%ADD18C,0.660400*%
%TD*%
G04 APERTURE END LIST*
D10*
%TO.N,/PA1*%
%TO.C,J2*%
X96519999Y-63499999D03*
D11*
%TO.N,/PA0*%
X99059999Y-63499999D03*
%TO.N,/SPI1_SCK*%
X101599999Y-63499999D03*
%TO.N,/SPI1_NSS*%
X104139999Y-63499999D03*
%TO.N,/SPI1_MOSI*%
X106679999Y-63499999D03*
%TO.N,/SPI1_MISO*%
X109219999Y-63499999D03*
%TD*%
D12*
%TO.N,/I2C2_SCL*%
%TO.C,TP3*%
X83007200Y-51181000D03*
%TD*%
D13*
%TO.N,+3.3V*%
%TO.C,J3*%
X115061999Y-64693799D03*
D14*
%TO.N,/SWDIO*%
X113791999Y-64693799D03*
%TO.N,GND*%
X115061999Y-63423799D03*
%TO.N,/SWCLK*%
X113791999Y-63423799D03*
%TO.N,GND*%
X115061999Y-62153799D03*
%TO.N,unconnected-(J3-Pin_6-Pad6)*%
X113791999Y-62153799D03*
%TO.N,unconnected-(J3-Pin_7-Pad7)*%
X115061999Y-60883799D03*
%TO.N,unconnected-(J3-Pin_8-Pad8)*%
X113791999Y-60883799D03*
%TO.N,unconnected-(J3-Pin_9-Pad9)*%
X115061999Y-59613799D03*
%TO.N,/nRESET*%
X113791999Y-59613799D03*
%TO.N,unconnected-(J3-Pin_11-Pad11)*%
X115061999Y-58343799D03*
%TO.N,/TRACECK*%
X113791999Y-58343799D03*
%TO.N,unconnected-(J3-Pin_13-Pad13)*%
X115061999Y-57073799D03*
%TO.N,/TRACED0*%
X113791999Y-57073799D03*
%TO.N,GND*%
X115061999Y-55803799D03*
%TO.N,/TRACED1*%
X113791999Y-55803799D03*
%TO.N,GND*%
X115061999Y-54533799D03*
%TO.N,/TRACED2*%
X113791999Y-54533799D03*
%TO.N,GND*%
X115061999Y-53263799D03*
%TO.N,/TRACED3*%
X113791999Y-53263799D03*
%TD*%
D10*
%TO.N,/PA9_TXD*%
%TO.C,J1*%
X73659999Y-63499999D03*
D11*
%TO.N,/PA10_RXD*%
X76199999Y-63499999D03*
%TO.N,/I2C1_SCL*%
X78739999Y-63499999D03*
%TO.N,GND*%
X81279999Y-63499999D03*
%TO.N,/I2C1_SDA*%
X83819999Y-63499999D03*
%TO.N,/PA2*%
X86359999Y-63499999D03*
%TD*%
D12*
%TO.N,/PC13*%
%TO.C,TP7*%
X89992200Y-64770000D03*
%TD*%
%TO.N,/I3C2_SCL*%
%TO.C,TP14*%
X88722200Y-47244000D03*
%TD*%
%TO.N,/PC15*%
%TO.C,TP9*%
X94157800Y-64922400D03*
%TD*%
D15*
%TO.N,GND*%
%TO.C,J4*%
X68041999Y-52339999D03*
D16*
X70741999Y-53339999D03*
X70741999Y-58339999D03*
D15*
X68041999Y-59339999D03*
%TD*%
D12*
%TO.N,/I3C2_SDA*%
%TO.C,TP6*%
X82702400Y-60960000D03*
%TD*%
D10*
%TO.N,/OPAMP_VINM*%
%TO.C,J6*%
X96519999Y-48259999D03*
D11*
%TO.N,/OPAMP_VOUT*%
X99059999Y-48259999D03*
%TO.N,/OPAMP_VINP*%
X101599999Y-48259999D03*
%TO.N,/DAC_OUT1*%
X104139999Y-48259999D03*
%TO.N,+3.3V*%
X106679999Y-48259999D03*
%TO.N,/PA3*%
X109219999Y-48259999D03*
%TD*%
D10*
%TO.N,/VIN*%
%TO.C,J5*%
X73659999Y-48259999D03*
D11*
%TO.N,GND*%
X76199999Y-48259999D03*
%TO.N,/PA8*%
X78739999Y-48259999D03*
%TO.N,+5V*%
X81279999Y-48259999D03*
%TO.N,/ADC_INP3*%
X83819999Y-48259999D03*
%TO.N,/DAC_OUT2*%
X86359999Y-48259999D03*
%TD*%
D12*
%TO.N,/ADC_INP5*%
%TO.C,TP11*%
X100838000Y-50800000D03*
%TD*%
%TO.N,/PC10*%
%TO.C,TP5*%
X80695800Y-60960000D03*
%TD*%
%TO.N,/PC14*%
%TO.C,TP8*%
X92760800Y-64922400D03*
%TD*%
%TO.N,/PB2*%
%TO.C,TP12*%
X99060000Y-50800000D03*
%TD*%
%TO.N,/I2C2_SDA*%
%TO.C,TP4*%
X84886800Y-51181000D03*
%TD*%
%TO.N,/PH1*%
%TO.C,TP1*%
X103047800Y-55676800D03*
%TD*%
%TO.N,/PB4_TXD2*%
%TO.C,TP13*%
X84759800Y-60960000D03*
%TD*%
%TO.N,/ADC_INP4*%
%TO.C,TP2*%
X97282000Y-50800000D03*
%TD*%
%TO.N,/PA15_RXD2*%
%TO.C,TP10*%
X80975200Y-58293000D03*
%TD*%
D17*
%TO.N,GND*%
X91389200Y-60452000D03*
D18*
%TO.N,+5V*%
X75450000Y-51390000D03*
X73320000Y-51390000D03*
D17*
%TO.N,GND*%
X97921992Y-59908008D03*
X92379800Y-50344006D03*
X89916000Y-53467000D03*
X83515200Y-57759600D03*
X93942200Y-47777400D03*
X105537000Y-55841600D03*
X100875000Y-59395000D03*
X89000394Y-62915800D03*
X86563200Y-57200800D03*
D18*
X71932800Y-57150000D03*
D17*
X111658400Y-59385200D03*
X78206600Y-57251600D03*
X109905000Y-52300000D03*
X67537200Y-48260000D03*
X71702300Y-61645800D03*
D18*
X69529800Y-57140000D03*
D17*
X85115400Y-62255400D03*
X81864200Y-57708800D03*
X89814400Y-57277000D03*
X83718400Y-53352400D03*
X104250000Y-59395000D03*
X87934800Y-58623200D03*
X98679000Y-55575200D03*
D18*
X76936600Y-52933600D03*
D17*
X96735000Y-55180000D03*
X90881200Y-47726600D03*
X75283700Y-58851800D03*
X77825600Y-61239400D03*
D18*
X76950000Y-51477500D03*
X80580000Y-53290000D03*
D17*
X93243400Y-55702200D03*
X91440000Y-64402000D03*
X114909600Y-50163200D03*
X83464400Y-59359800D03*
D18*
X73320000Y-53290000D03*
D17*
X102844600Y-50647600D03*
X73562500Y-56100000D03*
X79781400Y-58978800D03*
D18*
X76936600Y-54330600D03*
D17*
%TO.N,+3.3V*%
X92392200Y-47777400D03*
X83718400Y-54902400D03*
X110744000Y-55854600D03*
X106095000Y-59500000D03*
X107365800Y-55958100D03*
D18*
X80580000Y-51390000D03*
D17*
X95185000Y-55180000D03*
X102725000Y-59395000D03*
X67900000Y-65000000D03*
D18*
X78450000Y-51390000D03*
D17*
X100500000Y-55342500D03*
X91440000Y-62852000D03*
%TO.N,/PA10_RXD*%
X88112600Y-54965600D03*
X87122353Y-53924553D03*
%TO.N,/nRESET*%
X94630053Y-58689053D03*
X114909600Y-46763200D03*
%TO.N,Net-(D1-A)*%
X70537200Y-48260000D03*
%TO.N,Net-(C11-Pad1)*%
X94488000Y-49123600D03*
%TO.N,Net-(C12-Pad1)*%
X90180200Y-61026000D03*
%TO.N,/SWDIO*%
X86512753Y-54529322D03*
%TO.N,/SWCLK*%
X87361653Y-56427747D03*
%TO.N,/TRACECK*%
X89564255Y-58112051D03*
%TO.N,/TRACED0*%
X90703400Y-57556400D03*
%TO.N,/TRACED1*%
X91932703Y-57229875D03*
%TO.N,/TRACED2*%
X88513309Y-57080963D03*
%TO.N,/TRACED3*%
X90398600Y-56132403D03*
%TO.N,/SPI1_SCK*%
X95870990Y-61329610D03*
%TO.N,/SPI1_NSS*%
X98659593Y-61392300D03*
%TO.N,/SPI1_MISO*%
X96797531Y-60559730D03*
%TO.N,/SPI1_MOSI*%
X99299000Y-61089455D03*
%TO.N,/DAC_OUT2*%
X95275400Y-54190478D03*
%TO.N,/ADC_INP3*%
X93854243Y-54720203D03*
%TO.N,/OPAMP_VINP*%
X94186270Y-52073070D03*
X101676200Y-52022875D03*
%TO.N,/ADC_INP5*%
X95969900Y-50247401D03*
%TO.N,/PB2*%
X93487340Y-51510827D03*
%TO.N,/SPI2_NSS*%
X90797910Y-49947219D03*
%TO.N,/SPI2_SCK*%
X90867897Y-50711703D03*
X105119573Y-53279573D03*
X108661200Y-59537600D03*
%TO.N,/SPI2_MISO*%
X90358939Y-51203149D03*
%TO.N,/SPI2_MOSI*%
X109905800Y-59512200D03*
X109220000Y-54488700D03*
X90575823Y-51876588D03*
%TO.N,/SW1*%
X69877300Y-61645800D03*
%TO.N,/I2C1_SCL*%
X81000600Y-59385200D03*
X88729867Y-52067167D03*
%TO.N,/I2C1_SDA*%
X85231368Y-59566675D03*
X88620600Y-53452087D03*
%TO.N,/NWP*%
X110744000Y-54029600D03*
%TO.N,/NHOLD*%
X107365000Y-59500000D03*
%TO.N,/PA0*%
X93546730Y-60101454D03*
%TO.N,/PA1*%
X92583000Y-60909200D03*
%TO.N,/PA2*%
X90347800Y-59524452D03*
%TO.N,/PA8*%
X86533283Y-51326836D03*
%TO.N,/LED*%
X85852000Y-60096400D03*
%TD*%
%TA.AperFunction,Conductor*%
%TO.N,GND*%
G36*
X116420837Y-46111592D02*
G01*
X116448408Y-46139164D01*
X116458500Y-46176827D01*
X116458500Y-65583173D01*
X116448408Y-65620837D01*
X116420837Y-65648408D01*
X116383173Y-65658500D01*
X94568241Y-65658500D01*
X94521785Y-65642469D01*
X94495103Y-65601200D01*
X94499550Y-65552258D01*
X94533235Y-65516474D01*
X94558652Y-65503134D01*
X94685983Y-65390329D01*
X94782618Y-65250330D01*
X94842940Y-65091272D01*
X94863445Y-64922400D01*
X94842940Y-64753528D01*
X94820288Y-64693800D01*
X113086355Y-64693800D01*
X113086904Y-64698321D01*
X113106310Y-64858149D01*
X113106311Y-64858155D01*
X113106860Y-64862672D01*
X113167182Y-65021730D01*
X113169764Y-65025471D01*
X113169767Y-65025476D01*
X113237795Y-65124030D01*
X113263817Y-65161729D01*
X113267226Y-65164749D01*
X113368055Y-65254076D01*
X113391148Y-65274534D01*
X113541775Y-65353590D01*
X113706944Y-65394300D01*
X113872497Y-65394300D01*
X113877056Y-65394300D01*
X114042225Y-65353590D01*
X114192852Y-65274534D01*
X114248319Y-65225394D01*
X114283291Y-65207955D01*
X114322297Y-65210386D01*
X114354835Y-65232035D01*
X114367822Y-65258323D01*
X114368846Y-65257900D01*
X114371686Y-65264756D01*
X114373133Y-65272031D01*
X114417448Y-65338352D01*
X114483769Y-65382667D01*
X114542252Y-65394300D01*
X115578054Y-65394300D01*
X115581748Y-65394300D01*
X115640231Y-65382667D01*
X115706552Y-65338352D01*
X115750867Y-65272031D01*
X115762500Y-65213548D01*
X115762500Y-64174052D01*
X115750867Y-64115569D01*
X115706552Y-64049248D01*
X115700385Y-64045127D01*
X115700384Y-64045126D01*
X115660769Y-64018655D01*
X115633026Y-63984847D01*
X115628741Y-63941324D01*
X115649360Y-63902755D01*
X115652246Y-63899869D01*
X115657481Y-63893304D01*
X115743378Y-63756598D01*
X115747025Y-63749028D01*
X115800349Y-63596635D01*
X115802220Y-63588435D01*
X115805270Y-63561369D01*
X115803867Y-63553117D01*
X115795826Y-63550800D01*
X115010327Y-63550800D01*
X114972664Y-63540708D01*
X114945092Y-63513137D01*
X114935000Y-63475473D01*
X114935000Y-63286884D01*
X115189000Y-63286884D01*
X115191095Y-63294704D01*
X115198916Y-63296800D01*
X115795826Y-63296800D01*
X115803867Y-63294482D01*
X115805270Y-63286230D01*
X115802220Y-63259164D01*
X115800349Y-63250964D01*
X115747025Y-63098571D01*
X115743378Y-63091001D01*
X115657481Y-62954295D01*
X115652240Y-62947723D01*
X115546581Y-62842064D01*
X115527085Y-62808296D01*
X115527085Y-62769304D01*
X115546581Y-62735536D01*
X115652240Y-62629876D01*
X115657481Y-62623304D01*
X115743378Y-62486598D01*
X115747025Y-62479028D01*
X115800349Y-62326635D01*
X115802220Y-62318435D01*
X115805270Y-62291369D01*
X115803867Y-62283117D01*
X115795826Y-62280800D01*
X115198916Y-62280800D01*
X115191095Y-62282895D01*
X115189000Y-62290716D01*
X115189000Y-63286884D01*
X114935000Y-63286884D01*
X114935000Y-62102127D01*
X114945092Y-62064464D01*
X114972664Y-62036892D01*
X115010327Y-62026800D01*
X115795826Y-62026800D01*
X115803867Y-62024482D01*
X115805270Y-62016230D01*
X115802220Y-61989164D01*
X115800349Y-61980964D01*
X115747025Y-61828571D01*
X115743378Y-61821001D01*
X115657481Y-61684295D01*
X115652240Y-61677723D01*
X115538076Y-61563559D01*
X115531507Y-61558321D01*
X115514536Y-61547657D01*
X115484978Y-61512602D01*
X115481223Y-61466902D01*
X115504661Y-61427494D01*
X115590183Y-61351729D01*
X115686818Y-61211730D01*
X115747140Y-61052672D01*
X115767645Y-60883800D01*
X115747140Y-60714928D01*
X115686818Y-60555870D01*
X115683387Y-60550900D01*
X115612688Y-60448475D01*
X115590183Y-60415871D01*
X115465240Y-60305181D01*
X115442839Y-60269757D01*
X115442839Y-60227843D01*
X115465240Y-60192418D01*
X115590183Y-60081729D01*
X115686818Y-59941730D01*
X115747140Y-59782672D01*
X115767645Y-59613800D01*
X115747140Y-59444928D01*
X115686818Y-59285870D01*
X115683530Y-59281107D01*
X115630963Y-59204951D01*
X115590183Y-59145871D01*
X115465240Y-59035181D01*
X115442839Y-58999757D01*
X115442839Y-58957843D01*
X115465240Y-58922418D01*
X115590183Y-58811729D01*
X115686818Y-58671730D01*
X115747140Y-58512672D01*
X115767645Y-58343800D01*
X115747140Y-58174928D01*
X115686818Y-58015870D01*
X115683387Y-58010900D01*
X115635007Y-57940809D01*
X115590183Y-57875871D01*
X115465240Y-57765181D01*
X115442839Y-57729757D01*
X115442839Y-57687843D01*
X115465240Y-57652418D01*
X115590183Y-57541729D01*
X115686818Y-57401730D01*
X115747140Y-57242672D01*
X115767645Y-57073800D01*
X115747140Y-56904928D01*
X115686818Y-56745870D01*
X115590183Y-56605871D01*
X115504661Y-56530105D01*
X115481223Y-56490697D01*
X115484979Y-56444997D01*
X115514538Y-56409942D01*
X115531503Y-56399282D01*
X115538077Y-56394039D01*
X115652240Y-56279876D01*
X115657481Y-56273304D01*
X115743378Y-56136598D01*
X115747025Y-56129028D01*
X115800349Y-55976635D01*
X115802220Y-55968435D01*
X115805270Y-55941369D01*
X115803867Y-55933117D01*
X115795826Y-55930800D01*
X115010327Y-55930800D01*
X114972664Y-55920708D01*
X114945092Y-55893137D01*
X114935000Y-55855473D01*
X114935000Y-55666884D01*
X115189000Y-55666884D01*
X115191095Y-55674704D01*
X115198916Y-55676800D01*
X115795826Y-55676800D01*
X115803867Y-55674482D01*
X115805270Y-55666230D01*
X115802220Y-55639164D01*
X115800349Y-55630964D01*
X115747025Y-55478571D01*
X115743378Y-55471001D01*
X115657481Y-55334295D01*
X115652240Y-55327723D01*
X115546581Y-55222064D01*
X115527085Y-55188296D01*
X115527085Y-55149304D01*
X115546581Y-55115536D01*
X115652240Y-55009876D01*
X115657481Y-55003304D01*
X115743378Y-54866598D01*
X115747025Y-54859028D01*
X115800349Y-54706635D01*
X115802220Y-54698435D01*
X115805270Y-54671369D01*
X115803867Y-54663117D01*
X115795826Y-54660800D01*
X115198916Y-54660800D01*
X115191095Y-54662895D01*
X115189000Y-54670716D01*
X115189000Y-55666884D01*
X114935000Y-55666884D01*
X114935000Y-54396884D01*
X115189000Y-54396884D01*
X115191095Y-54404704D01*
X115198916Y-54406800D01*
X115795826Y-54406800D01*
X115803867Y-54404482D01*
X115805270Y-54396230D01*
X115802220Y-54369164D01*
X115800349Y-54360964D01*
X115747025Y-54208571D01*
X115743378Y-54201001D01*
X115657481Y-54064295D01*
X115652240Y-54057723D01*
X115546581Y-53952064D01*
X115527085Y-53918296D01*
X115527085Y-53879304D01*
X115546581Y-53845536D01*
X115652240Y-53739876D01*
X115657481Y-53733304D01*
X115743378Y-53596598D01*
X115747025Y-53589028D01*
X115800349Y-53436635D01*
X115802220Y-53428435D01*
X115805270Y-53401369D01*
X115803867Y-53393117D01*
X115795826Y-53390800D01*
X115198916Y-53390800D01*
X115191095Y-53392895D01*
X115189000Y-53400716D01*
X115189000Y-54396884D01*
X114935000Y-54396884D01*
X114935000Y-53126884D01*
X115189000Y-53126884D01*
X115191095Y-53134704D01*
X115198916Y-53136800D01*
X115795826Y-53136800D01*
X115803867Y-53134482D01*
X115805270Y-53126230D01*
X115802220Y-53099164D01*
X115800349Y-53090964D01*
X115747025Y-52938571D01*
X115743378Y-52931001D01*
X115657481Y-52794295D01*
X115652240Y-52787723D01*
X115538076Y-52673559D01*
X115531504Y-52668318D01*
X115394798Y-52582421D01*
X115387228Y-52578774D01*
X115234835Y-52525450D01*
X115226635Y-52523579D01*
X115199569Y-52520529D01*
X115191317Y-52521932D01*
X115189000Y-52529974D01*
X115189000Y-53126884D01*
X114935000Y-53126884D01*
X114935000Y-52529974D01*
X114932682Y-52521932D01*
X114924430Y-52520529D01*
X114897364Y-52523579D01*
X114889164Y-52525450D01*
X114736771Y-52578774D01*
X114729201Y-52582421D01*
X114592495Y-52668318D01*
X114585923Y-52673559D01*
X114471760Y-52787722D01*
X114466517Y-52794297D01*
X114457092Y-52809295D01*
X114419209Y-52839951D01*
X114370488Y-52841001D01*
X114331320Y-52812005D01*
X114322772Y-52799621D01*
X114322769Y-52799618D01*
X114320183Y-52795871D01*
X114306017Y-52783321D01*
X114196259Y-52686084D01*
X114196257Y-52686082D01*
X114192852Y-52683066D01*
X114188823Y-52680951D01*
X114188821Y-52680950D01*
X114046255Y-52606125D01*
X114046254Y-52606124D01*
X114042225Y-52604010D01*
X114037806Y-52602920D01*
X114037804Y-52602920D01*
X113881482Y-52564391D01*
X113877056Y-52563300D01*
X113706944Y-52563300D01*
X113702518Y-52564390D01*
X113702517Y-52564391D01*
X113546195Y-52602920D01*
X113546190Y-52602921D01*
X113541775Y-52604010D01*
X113537748Y-52606123D01*
X113537744Y-52606125D01*
X113395178Y-52680950D01*
X113395172Y-52680953D01*
X113391148Y-52683066D01*
X113387746Y-52686079D01*
X113387740Y-52686084D01*
X113267226Y-52792850D01*
X113267222Y-52792854D01*
X113263817Y-52795871D01*
X113261232Y-52799614D01*
X113261230Y-52799618D01*
X113169767Y-52932123D01*
X113169762Y-52932131D01*
X113167182Y-52935870D01*
X113165568Y-52940123D01*
X113165567Y-52940127D01*
X113128070Y-53039000D01*
X113106860Y-53094928D01*
X113106311Y-53099442D01*
X113106310Y-53099450D01*
X113093040Y-53208742D01*
X113086355Y-53263800D01*
X113086904Y-53268321D01*
X113106310Y-53428149D01*
X113106311Y-53428155D01*
X113106860Y-53432672D01*
X113108476Y-53436933D01*
X113121611Y-53471569D01*
X113167182Y-53591730D01*
X113169764Y-53595471D01*
X113169767Y-53595476D01*
X113242147Y-53700335D01*
X113263817Y-53731729D01*
X113267226Y-53734749D01*
X113388758Y-53842417D01*
X113411160Y-53877843D01*
X113411160Y-53919757D01*
X113388758Y-53955183D01*
X113267226Y-54062850D01*
X113267222Y-54062854D01*
X113263817Y-54065871D01*
X113261232Y-54069614D01*
X113261230Y-54069618D01*
X113169767Y-54202123D01*
X113169762Y-54202131D01*
X113167182Y-54205870D01*
X113165568Y-54210123D01*
X113165567Y-54210127D01*
X113108476Y-54360666D01*
X113106860Y-54364928D01*
X113106311Y-54369442D01*
X113106310Y-54369450D01*
X113092479Y-54483365D01*
X113086355Y-54533800D01*
X113086904Y-54538321D01*
X113106310Y-54698149D01*
X113106311Y-54698155D01*
X113106860Y-54702672D01*
X113108476Y-54706933D01*
X113164427Y-54854467D01*
X113167182Y-54861730D01*
X113169764Y-54865471D01*
X113169767Y-54865476D01*
X113247018Y-54977391D01*
X113263817Y-55001729D01*
X113267226Y-55004749D01*
X113388758Y-55112417D01*
X113411160Y-55147843D01*
X113411160Y-55189757D01*
X113388758Y-55225183D01*
X113267226Y-55332850D01*
X113267222Y-55332854D01*
X113263817Y-55335871D01*
X113261232Y-55339614D01*
X113261230Y-55339618D01*
X113169767Y-55472123D01*
X113169762Y-55472131D01*
X113167182Y-55475870D01*
X113165568Y-55480123D01*
X113165567Y-55480127D01*
X113108476Y-55630666D01*
X113106860Y-55634928D01*
X113106311Y-55639442D01*
X113106310Y-55639450D01*
X113088945Y-55782469D01*
X113086355Y-55803800D01*
X113086904Y-55808321D01*
X113106310Y-55968149D01*
X113106311Y-55968155D01*
X113106860Y-55972672D01*
X113108476Y-55976933D01*
X113156228Y-56102848D01*
X113167182Y-56131730D01*
X113169764Y-56135471D01*
X113169767Y-56135476D01*
X113232664Y-56226597D01*
X113263817Y-56271729D01*
X113388758Y-56382417D01*
X113411160Y-56417841D01*
X113411160Y-56459756D01*
X113388758Y-56495182D01*
X113267226Y-56602850D01*
X113267222Y-56602854D01*
X113263817Y-56605871D01*
X113261232Y-56609614D01*
X113261230Y-56609618D01*
X113169767Y-56742123D01*
X113169762Y-56742131D01*
X113167182Y-56745870D01*
X113165568Y-56750123D01*
X113165567Y-56750127D01*
X113108476Y-56900666D01*
X113106860Y-56904928D01*
X113106311Y-56909442D01*
X113106310Y-56909450D01*
X113087808Y-57061832D01*
X113086355Y-57073800D01*
X113086904Y-57078321D01*
X113106310Y-57238149D01*
X113106311Y-57238155D01*
X113106860Y-57242672D01*
X113108476Y-57246933D01*
X113149044Y-57353905D01*
X113167182Y-57401730D01*
X113169764Y-57405471D01*
X113169767Y-57405476D01*
X113232066Y-57495730D01*
X113263817Y-57541729D01*
X113267226Y-57544749D01*
X113388758Y-57652417D01*
X113411160Y-57687843D01*
X113411160Y-57729757D01*
X113388758Y-57765183D01*
X113267226Y-57872850D01*
X113267222Y-57872854D01*
X113263817Y-57875871D01*
X113261232Y-57879614D01*
X113261230Y-57879618D01*
X113169767Y-58012123D01*
X113169762Y-58012131D01*
X113167182Y-58015870D01*
X113165568Y-58020123D01*
X113165567Y-58020127D01*
X113108476Y-58170666D01*
X113106860Y-58174928D01*
X113106311Y-58179442D01*
X113106310Y-58179450D01*
X113093072Y-58288479D01*
X113086355Y-58343800D01*
X113086904Y-58348321D01*
X113106310Y-58508149D01*
X113106311Y-58508155D01*
X113106860Y-58512672D01*
X113108476Y-58516933D01*
X113146301Y-58616672D01*
X113167182Y-58671730D01*
X113169764Y-58675471D01*
X113169767Y-58675476D01*
X113252269Y-58794999D01*
X113263817Y-58811729D01*
X113267226Y-58814749D01*
X113388758Y-58922417D01*
X113411160Y-58957843D01*
X113411160Y-58999757D01*
X113388758Y-59035183D01*
X113267226Y-59142850D01*
X113267222Y-59142854D01*
X113263817Y-59145871D01*
X113261232Y-59149614D01*
X113261230Y-59149618D01*
X113169767Y-59282123D01*
X113169762Y-59282131D01*
X113167182Y-59285870D01*
X113165568Y-59290123D01*
X113165567Y-59290127D01*
X113108476Y-59440666D01*
X113106860Y-59444928D01*
X113106311Y-59449442D01*
X113106310Y-59449450D01*
X113092725Y-59561340D01*
X113086355Y-59613800D01*
X113086904Y-59618321D01*
X113106310Y-59778149D01*
X113106311Y-59778155D01*
X113106860Y-59782672D01*
X113108476Y-59786933D01*
X113162687Y-59929879D01*
X113167182Y-59941730D01*
X113169764Y-59945471D01*
X113169767Y-59945476D01*
X113232876Y-60036904D01*
X113263817Y-60081729D01*
X113267226Y-60084749D01*
X113388758Y-60192417D01*
X113411160Y-60227843D01*
X113411160Y-60269757D01*
X113388758Y-60305183D01*
X113267226Y-60412850D01*
X113267222Y-60412854D01*
X113263817Y-60415871D01*
X113261232Y-60419614D01*
X113261230Y-60419618D01*
X113169767Y-60552123D01*
X113169762Y-60552131D01*
X113167182Y-60555870D01*
X113165568Y-60560123D01*
X113165567Y-60560127D01*
X113118680Y-60683760D01*
X113106860Y-60714928D01*
X113106311Y-60719442D01*
X113106310Y-60719450D01*
X113091527Y-60841207D01*
X113086355Y-60883800D01*
X113087914Y-60896636D01*
X113106310Y-61048149D01*
X113106311Y-61048155D01*
X113106860Y-61052672D01*
X113108476Y-61056933D01*
X113143782Y-61150030D01*
X113167182Y-61211730D01*
X113169764Y-61215471D01*
X113169767Y-61215476D01*
X113219779Y-61287930D01*
X113263817Y-61351729D01*
X113267226Y-61354749D01*
X113388758Y-61462417D01*
X113411160Y-61497843D01*
X113411160Y-61539757D01*
X113388758Y-61575183D01*
X113267226Y-61682850D01*
X113267222Y-61682854D01*
X113263817Y-61685871D01*
X113261232Y-61689614D01*
X113261230Y-61689618D01*
X113169767Y-61822123D01*
X113169762Y-61822131D01*
X113167182Y-61825870D01*
X113165568Y-61830123D01*
X113165567Y-61830127D01*
X113108476Y-61980666D01*
X113106860Y-61984928D01*
X113106311Y-61989442D01*
X113106310Y-61989450D01*
X113097322Y-62063479D01*
X113086355Y-62153800D01*
X113086904Y-62158321D01*
X113106310Y-62318149D01*
X113106311Y-62318155D01*
X113106860Y-62322672D01*
X113108476Y-62326933D01*
X113161129Y-62465771D01*
X113167182Y-62481730D01*
X113169764Y-62485471D01*
X113169767Y-62485476D01*
X113229332Y-62571769D01*
X113263817Y-62621729D01*
X113267226Y-62624749D01*
X113388758Y-62732417D01*
X113411160Y-62767843D01*
X113411160Y-62809757D01*
X113388758Y-62845183D01*
X113267226Y-62952850D01*
X113267222Y-62952854D01*
X113263817Y-62955871D01*
X113261232Y-62959614D01*
X113261230Y-62959618D01*
X113169767Y-63092123D01*
X113169762Y-63092131D01*
X113167182Y-63095870D01*
X113165568Y-63100123D01*
X113165567Y-63100127D01*
X113128062Y-63199021D01*
X113106860Y-63254928D01*
X113106311Y-63259442D01*
X113106310Y-63259450D01*
X113093727Y-63363084D01*
X113086355Y-63423800D01*
X113086904Y-63428321D01*
X113106310Y-63588149D01*
X113106311Y-63588155D01*
X113106860Y-63592672D01*
X113167182Y-63751730D01*
X113169764Y-63755471D01*
X113169767Y-63755476D01*
X113232664Y-63846597D01*
X113263817Y-63891729D01*
X113388758Y-64002417D01*
X113411160Y-64037841D01*
X113411160Y-64079756D01*
X113388758Y-64115182D01*
X113267226Y-64222850D01*
X113267222Y-64222854D01*
X113263817Y-64225871D01*
X113261232Y-64229614D01*
X113261230Y-64229618D01*
X113169767Y-64362123D01*
X113169762Y-64362131D01*
X113167182Y-64365870D01*
X113165568Y-64370123D01*
X113165567Y-64370127D01*
X113118682Y-64493755D01*
X113106860Y-64524928D01*
X113106311Y-64529442D01*
X113106310Y-64529450D01*
X113090817Y-64657050D01*
X113086355Y-64693800D01*
X94820288Y-64693800D01*
X94782618Y-64594470D01*
X94776241Y-64585232D01*
X94709392Y-64488385D01*
X94685983Y-64454471D01*
X94596662Y-64375340D01*
X94590350Y-64369748D01*
X95469500Y-64369748D01*
X95470219Y-64373366D01*
X95470220Y-64373369D01*
X95479685Y-64420955D01*
X95479686Y-64420958D01*
X95481133Y-64428231D01*
X95485253Y-64434397D01*
X95485254Y-64434399D01*
X95513254Y-64476303D01*
X95525448Y-64494552D01*
X95591769Y-64538867D01*
X95650252Y-64550500D01*
X97386054Y-64550500D01*
X97389748Y-64550500D01*
X97448231Y-64538867D01*
X97514552Y-64494552D01*
X97558867Y-64428231D01*
X97570500Y-64369748D01*
X97570500Y-63500000D01*
X98004417Y-63500000D01*
X98004780Y-63503686D01*
X98024337Y-63702255D01*
X98024338Y-63702261D01*
X98024700Y-63705934D01*
X98025769Y-63709460D01*
X98025771Y-63709467D01*
X98067369Y-63846597D01*
X98084768Y-63903954D01*
X98086508Y-63907209D01*
X98086510Y-63907214D01*
X98138743Y-64004933D01*
X98182315Y-64086450D01*
X98313590Y-64246410D01*
X98473550Y-64377685D01*
X98656046Y-64475232D01*
X98854066Y-64535300D01*
X99060000Y-64555583D01*
X99265934Y-64535300D01*
X99463954Y-64475232D01*
X99646450Y-64377685D01*
X99806410Y-64246410D01*
X99937685Y-64086450D01*
X100035232Y-63903954D01*
X100095300Y-63705934D01*
X100115583Y-63500000D01*
X100544417Y-63500000D01*
X100544780Y-63503686D01*
X100564337Y-63702255D01*
X100564338Y-63702261D01*
X100564700Y-63705934D01*
X100565769Y-63709460D01*
X100565771Y-63709467D01*
X100607369Y-63846597D01*
X100624768Y-63903954D01*
X100626508Y-63907209D01*
X100626510Y-63907214D01*
X100678743Y-64004933D01*
X100722315Y-64086450D01*
X100853590Y-64246410D01*
X101013550Y-64377685D01*
X101196046Y-64475232D01*
X101394066Y-64535300D01*
X101600000Y-64555583D01*
X101805934Y-64535300D01*
X102003954Y-64475232D01*
X102186450Y-64377685D01*
X102346410Y-64246410D01*
X102477685Y-64086450D01*
X102575232Y-63903954D01*
X102635300Y-63705934D01*
X102655583Y-63500000D01*
X103084417Y-63500000D01*
X103084780Y-63503686D01*
X103104337Y-63702255D01*
X103104338Y-63702261D01*
X103104700Y-63705934D01*
X103105769Y-63709460D01*
X103105771Y-63709467D01*
X103147369Y-63846597D01*
X103164768Y-63903954D01*
X103166508Y-63907209D01*
X103166510Y-63907214D01*
X103218743Y-64004933D01*
X103262315Y-64086450D01*
X103393590Y-64246410D01*
X103553550Y-64377685D01*
X103736046Y-64475232D01*
X103934066Y-64535300D01*
X104140000Y-64555583D01*
X104345934Y-64535300D01*
X104543954Y-64475232D01*
X104726450Y-64377685D01*
X104886410Y-64246410D01*
X105017685Y-64086450D01*
X105115232Y-63903954D01*
X105175300Y-63705934D01*
X105195583Y-63500000D01*
X105624417Y-63500000D01*
X105624780Y-63503686D01*
X105644337Y-63702255D01*
X105644338Y-63702261D01*
X105644700Y-63705934D01*
X105645769Y-63709460D01*
X105645771Y-63709467D01*
X105687369Y-63846597D01*
X105704768Y-63903954D01*
X105706508Y-63907209D01*
X105706510Y-63907214D01*
X105758743Y-64004933D01*
X105802315Y-64086450D01*
X105933590Y-64246410D01*
X106093550Y-64377685D01*
X106276046Y-64475232D01*
X106474066Y-64535300D01*
X106680000Y-64555583D01*
X106885934Y-64535300D01*
X107083954Y-64475232D01*
X107266450Y-64377685D01*
X107426410Y-64246410D01*
X107557685Y-64086450D01*
X107655232Y-63903954D01*
X107715300Y-63705934D01*
X107735583Y-63500000D01*
X108164417Y-63500000D01*
X108164780Y-63503686D01*
X108184337Y-63702255D01*
X108184338Y-63702261D01*
X108184700Y-63705934D01*
X108185769Y-63709460D01*
X108185771Y-63709467D01*
X108227369Y-63846597D01*
X108244768Y-63903954D01*
X108246508Y-63907209D01*
X108246510Y-63907214D01*
X108298743Y-64004933D01*
X108342315Y-64086450D01*
X108473590Y-64246410D01*
X108633550Y-64377685D01*
X108816046Y-64475232D01*
X109014066Y-64535300D01*
X109220000Y-64555583D01*
X109425934Y-64535300D01*
X109623954Y-64475232D01*
X109806450Y-64377685D01*
X109966410Y-64246410D01*
X110097685Y-64086450D01*
X110195232Y-63903954D01*
X110255300Y-63705934D01*
X110275583Y-63500000D01*
X110255300Y-63294066D01*
X110195232Y-63096046D01*
X110097685Y-62913550D01*
X109966410Y-62753590D01*
X109940610Y-62732417D01*
X109809306Y-62624659D01*
X109809307Y-62624659D01*
X109806450Y-62622315D01*
X109764098Y-62599677D01*
X109627214Y-62526510D01*
X109627209Y-62526508D01*
X109623954Y-62524768D01*
X109580591Y-62511614D01*
X109429467Y-62465771D01*
X109429460Y-62465769D01*
X109425934Y-62464700D01*
X109422261Y-62464338D01*
X109422255Y-62464337D01*
X109223686Y-62444780D01*
X109220000Y-62444417D01*
X109216314Y-62444780D01*
X109017744Y-62464337D01*
X109017736Y-62464338D01*
X109014066Y-62464700D01*
X109010541Y-62465769D01*
X109010532Y-62465771D01*
X108819579Y-62523696D01*
X108819576Y-62523697D01*
X108816046Y-62524768D01*
X108812793Y-62526506D01*
X108812785Y-62526510D01*
X108636812Y-62620571D01*
X108636808Y-62620573D01*
X108633550Y-62622315D01*
X108630697Y-62624656D01*
X108630693Y-62624659D01*
X108476445Y-62751246D01*
X108476439Y-62751251D01*
X108473590Y-62753590D01*
X108471251Y-62756439D01*
X108471246Y-62756445D01*
X108344659Y-62910693D01*
X108344656Y-62910697D01*
X108342315Y-62913550D01*
X108340573Y-62916808D01*
X108340571Y-62916812D01*
X108246510Y-63092785D01*
X108246506Y-63092793D01*
X108244768Y-63096046D01*
X108243697Y-63099576D01*
X108243696Y-63099579D01*
X108185771Y-63290532D01*
X108185769Y-63290541D01*
X108184700Y-63294066D01*
X108184338Y-63297736D01*
X108184337Y-63297744D01*
X108172367Y-63419279D01*
X108164417Y-63500000D01*
X107735583Y-63500000D01*
X107715300Y-63294066D01*
X107655232Y-63096046D01*
X107557685Y-62913550D01*
X107426410Y-62753590D01*
X107400610Y-62732417D01*
X107269306Y-62624659D01*
X107269307Y-62624659D01*
X107266450Y-62622315D01*
X107224098Y-62599677D01*
X107087214Y-62526510D01*
X107087209Y-62526508D01*
X107083954Y-62524768D01*
X107040591Y-62511614D01*
X106889467Y-62465771D01*
X106889460Y-62465769D01*
X106885934Y-62464700D01*
X106882261Y-62464338D01*
X106882255Y-62464337D01*
X106683686Y-62444780D01*
X106680000Y-62444417D01*
X106676314Y-62444780D01*
X106477744Y-62464337D01*
X106477736Y-62464338D01*
X106474066Y-62464700D01*
X106470541Y-62465769D01*
X106470532Y-62465771D01*
X106279579Y-62523696D01*
X106279576Y-62523697D01*
X106276046Y-62524768D01*
X106272793Y-62526506D01*
X106272785Y-62526510D01*
X106096812Y-62620571D01*
X106096808Y-62620573D01*
X106093550Y-62622315D01*
X106090697Y-62624656D01*
X106090693Y-62624659D01*
X105936445Y-62751246D01*
X105936439Y-62751251D01*
X105933590Y-62753590D01*
X105931251Y-62756439D01*
X105931246Y-62756445D01*
X105804659Y-62910693D01*
X105804656Y-62910697D01*
X105802315Y-62913550D01*
X105800573Y-62916808D01*
X105800571Y-62916812D01*
X105706510Y-63092785D01*
X105706506Y-63092793D01*
X105704768Y-63096046D01*
X105703697Y-63099576D01*
X105703696Y-63099579D01*
X105645771Y-63290532D01*
X105645769Y-63290541D01*
X105644700Y-63294066D01*
X105644338Y-63297736D01*
X105644337Y-63297744D01*
X105632367Y-63419279D01*
X105624417Y-63500000D01*
X105195583Y-63500000D01*
X105175300Y-63294066D01*
X105115232Y-63096046D01*
X105017685Y-62913550D01*
X104886410Y-62753590D01*
X104860610Y-62732417D01*
X104729306Y-62624659D01*
X104729307Y-62624659D01*
X104726450Y-62622315D01*
X104684098Y-62599677D01*
X104547214Y-62526510D01*
X104547209Y-62526508D01*
X104543954Y-62524768D01*
X104500591Y-62511614D01*
X104349467Y-62465771D01*
X104349460Y-62465769D01*
X104345934Y-62464700D01*
X104342261Y-62464338D01*
X104342255Y-62464337D01*
X104143686Y-62444780D01*
X104140000Y-62444417D01*
X104136314Y-62444780D01*
X103937744Y-62464337D01*
X103937736Y-62464338D01*
X103934066Y-62464700D01*
X103930541Y-62465769D01*
X103930532Y-62465771D01*
X103739579Y-62523696D01*
X103739576Y-62523697D01*
X103736046Y-62524768D01*
X103732793Y-62526506D01*
X103732785Y-62526510D01*
X103556812Y-62620571D01*
X103556808Y-62620573D01*
X103553550Y-62622315D01*
X103550697Y-62624656D01*
X103550693Y-62624659D01*
X103396445Y-62751246D01*
X103396439Y-62751251D01*
X103393590Y-62753590D01*
X103391251Y-62756439D01*
X103391246Y-62756445D01*
X103264659Y-62910693D01*
X103264656Y-62910697D01*
X103262315Y-62913550D01*
X103260573Y-62916808D01*
X103260571Y-62916812D01*
X103166510Y-63092785D01*
X103166506Y-63092793D01*
X103164768Y-63096046D01*
X103163697Y-63099576D01*
X103163696Y-63099579D01*
X103105771Y-63290532D01*
X103105769Y-63290541D01*
X103104700Y-63294066D01*
X103104338Y-63297736D01*
X103104337Y-63297744D01*
X103092367Y-63419279D01*
X103084417Y-63500000D01*
X102655583Y-63500000D01*
X102635300Y-63294066D01*
X102575232Y-63096046D01*
X102477685Y-62913550D01*
X102346410Y-62753590D01*
X102320610Y-62732417D01*
X102189306Y-62624659D01*
X102189307Y-62624659D01*
X102186450Y-62622315D01*
X102144098Y-62599677D01*
X102007214Y-62526510D01*
X102007209Y-62526508D01*
X102003954Y-62524768D01*
X101960591Y-62511614D01*
X101809467Y-62465771D01*
X101809460Y-62465769D01*
X101805934Y-62464700D01*
X101802261Y-62464338D01*
X101802255Y-62464337D01*
X101603686Y-62444780D01*
X101600000Y-62444417D01*
X101596314Y-62444780D01*
X101397744Y-62464337D01*
X101397736Y-62464338D01*
X101394066Y-62464700D01*
X101390541Y-62465769D01*
X101390532Y-62465771D01*
X101199579Y-62523696D01*
X101199576Y-62523697D01*
X101196046Y-62524768D01*
X101192793Y-62526506D01*
X101192785Y-62526510D01*
X101016812Y-62620571D01*
X101016808Y-62620573D01*
X101013550Y-62622315D01*
X101010697Y-62624656D01*
X101010693Y-62624659D01*
X100856445Y-62751246D01*
X100856439Y-62751251D01*
X100853590Y-62753590D01*
X100851251Y-62756439D01*
X100851246Y-62756445D01*
X100724659Y-62910693D01*
X100724656Y-62910697D01*
X100722315Y-62913550D01*
X100720573Y-62916808D01*
X100720571Y-62916812D01*
X100626510Y-63092785D01*
X100626506Y-63092793D01*
X100624768Y-63096046D01*
X100623697Y-63099576D01*
X100623696Y-63099579D01*
X100565771Y-63290532D01*
X100565769Y-63290541D01*
X100564700Y-63294066D01*
X100564338Y-63297736D01*
X100564337Y-63297744D01*
X100552367Y-63419279D01*
X100544417Y-63500000D01*
X100115583Y-63500000D01*
X100095300Y-63294066D01*
X100035232Y-63096046D01*
X99937685Y-62913550D01*
X99806410Y-62753590D01*
X99780610Y-62732417D01*
X99649306Y-62624659D01*
X99649307Y-62624659D01*
X99646450Y-62622315D01*
X99604098Y-62599677D01*
X99467214Y-62526510D01*
X99467209Y-62526508D01*
X99463954Y-62524768D01*
X99420591Y-62511614D01*
X99269467Y-62465771D01*
X99269460Y-62465769D01*
X99265934Y-62464700D01*
X99262261Y-62464338D01*
X99262255Y-62464337D01*
X99063686Y-62444780D01*
X99060000Y-62444417D01*
X99056314Y-62444780D01*
X98857744Y-62464337D01*
X98857736Y-62464338D01*
X98854066Y-62464700D01*
X98850541Y-62465769D01*
X98850532Y-62465771D01*
X98659579Y-62523696D01*
X98659576Y-62523697D01*
X98656046Y-62524768D01*
X98652793Y-62526506D01*
X98652785Y-62526510D01*
X98476812Y-62620571D01*
X98476808Y-62620573D01*
X98473550Y-62622315D01*
X98470697Y-62624656D01*
X98470693Y-62624659D01*
X98316445Y-62751246D01*
X98316439Y-62751251D01*
X98313590Y-62753590D01*
X98311251Y-62756439D01*
X98311246Y-62756445D01*
X98184659Y-62910693D01*
X98184656Y-62910697D01*
X98182315Y-62913550D01*
X98180573Y-62916808D01*
X98180571Y-62916812D01*
X98086510Y-63092785D01*
X98086506Y-63092793D01*
X98084768Y-63096046D01*
X98083697Y-63099576D01*
X98083696Y-63099579D01*
X98025771Y-63290532D01*
X98025769Y-63290541D01*
X98024700Y-63294066D01*
X98024338Y-63297736D01*
X98024337Y-63297744D01*
X98012367Y-63419279D01*
X98004417Y-63500000D01*
X97570500Y-63500000D01*
X97570500Y-62630252D01*
X97558867Y-62571769D01*
X97514552Y-62505448D01*
X97508385Y-62501327D01*
X97454399Y-62465254D01*
X97454397Y-62465253D01*
X97448231Y-62461133D01*
X97440958Y-62459686D01*
X97440955Y-62459685D01*
X97393369Y-62450220D01*
X97393366Y-62450219D01*
X97389748Y-62449500D01*
X95650252Y-62449500D01*
X95646634Y-62450219D01*
X95646630Y-62450220D01*
X95599044Y-62459685D01*
X95599039Y-62459686D01*
X95591769Y-62461133D01*
X95585604Y-62465252D01*
X95585600Y-62465254D01*
X95531614Y-62501327D01*
X95531611Y-62501329D01*
X95525448Y-62505448D01*
X95521329Y-62511611D01*
X95521327Y-62511614D01*
X95485254Y-62565600D01*
X95485252Y-62565604D01*
X95481133Y-62571769D01*
X95479686Y-62579039D01*
X95479685Y-62579044D01*
X95470220Y-62626630D01*
X95469500Y-62630252D01*
X95469500Y-64369748D01*
X94590350Y-64369748D01*
X94562059Y-64344684D01*
X94562057Y-64344682D01*
X94558652Y-64341666D01*
X94554623Y-64339551D01*
X94554621Y-64339550D01*
X94412055Y-64264725D01*
X94412054Y-64264724D01*
X94408025Y-64262610D01*
X94403606Y-64261520D01*
X94403604Y-64261520D01*
X94283904Y-64232017D01*
X94242856Y-64221900D01*
X94072744Y-64221900D01*
X94068318Y-64222990D01*
X94068317Y-64222991D01*
X93911995Y-64261520D01*
X93911990Y-64261521D01*
X93907575Y-64262610D01*
X93903548Y-64264723D01*
X93903544Y-64264725D01*
X93760978Y-64339550D01*
X93760972Y-64339553D01*
X93756948Y-64341666D01*
X93753546Y-64344679D01*
X93753540Y-64344684D01*
X93633026Y-64451450D01*
X93633022Y-64451454D01*
X93629617Y-64454471D01*
X93627032Y-64458214D01*
X93627030Y-64458218D01*
X93535567Y-64590723D01*
X93535562Y-64590731D01*
X93532982Y-64594470D01*
X93531370Y-64598720D01*
X93531365Y-64598730D01*
X93529731Y-64603041D01*
X93502090Y-64638321D01*
X93459300Y-64651655D01*
X93416510Y-64638321D01*
X93388869Y-64603041D01*
X93387234Y-64598730D01*
X93387232Y-64598727D01*
X93385618Y-64594470D01*
X93379241Y-64585232D01*
X93312392Y-64488385D01*
X93288983Y-64454471D01*
X93199662Y-64375340D01*
X93165059Y-64344684D01*
X93165057Y-64344682D01*
X93161652Y-64341666D01*
X93157623Y-64339551D01*
X93157621Y-64339550D01*
X93015055Y-64264725D01*
X93015054Y-64264724D01*
X93011025Y-64262610D01*
X93006606Y-64261520D01*
X93006604Y-64261520D01*
X92886904Y-64232017D01*
X92845856Y-64221900D01*
X92675744Y-64221900D01*
X92671318Y-64222990D01*
X92671317Y-64222991D01*
X92514995Y-64261520D01*
X92514990Y-64261521D01*
X92510575Y-64262610D01*
X92506548Y-64264723D01*
X92506544Y-64264725D01*
X92363978Y-64339550D01*
X92363972Y-64339553D01*
X92359948Y-64341666D01*
X92356546Y-64344679D01*
X92356540Y-64344684D01*
X92236026Y-64451450D01*
X92236022Y-64451454D01*
X92232617Y-64454471D01*
X92230032Y-64458214D01*
X92230030Y-64458218D01*
X92138567Y-64590723D01*
X92138562Y-64590731D01*
X92135982Y-64594470D01*
X92134368Y-64598723D01*
X92134367Y-64598727D01*
X92096597Y-64698321D01*
X92075660Y-64753528D01*
X92075111Y-64758042D01*
X92075110Y-64758050D01*
X92062407Y-64862672D01*
X92055155Y-64922400D01*
X92055704Y-64926921D01*
X92075110Y-65086749D01*
X92075111Y-65086755D01*
X92075660Y-65091272D01*
X92077276Y-65095533D01*
X92133332Y-65243344D01*
X92135982Y-65250330D01*
X92138564Y-65254071D01*
X92138567Y-65254076D01*
X92199583Y-65342472D01*
X92232617Y-65390329D01*
X92359948Y-65503134D01*
X92363978Y-65505249D01*
X92385365Y-65516474D01*
X92419050Y-65552258D01*
X92423497Y-65601200D01*
X92396815Y-65642469D01*
X92350359Y-65658500D01*
X66496827Y-65658500D01*
X66459164Y-65648408D01*
X66431592Y-65620837D01*
X66421500Y-65583173D01*
X66421500Y-65000000D01*
X67440826Y-65000000D01*
X67459426Y-65129364D01*
X67461661Y-65134259D01*
X67461663Y-65134264D01*
X67511478Y-65243344D01*
X67513718Y-65248248D01*
X67599305Y-65347021D01*
X67603835Y-65349932D01*
X67603836Y-65349933D01*
X67611221Y-65354679D01*
X67709252Y-65417679D01*
X67834653Y-65454500D01*
X67959963Y-65454500D01*
X67965347Y-65454500D01*
X68090748Y-65417679D01*
X68200695Y-65347021D01*
X68286282Y-65248248D01*
X68340574Y-65129364D01*
X68359174Y-65000000D01*
X68340574Y-64870636D01*
X68334871Y-64858149D01*
X68296680Y-64774521D01*
X68294615Y-64770000D01*
X89286555Y-64770000D01*
X89287104Y-64774521D01*
X89306510Y-64934349D01*
X89306511Y-64934355D01*
X89307060Y-64938872D01*
X89308676Y-64943133D01*
X89363141Y-65086749D01*
X89367382Y-65097930D01*
X89369964Y-65101671D01*
X89369967Y-65101676D01*
X89413504Y-65164749D01*
X89464017Y-65237929D01*
X89470129Y-65243344D01*
X89582560Y-65342949D01*
X89591348Y-65350734D01*
X89741975Y-65429790D01*
X89907144Y-65470500D01*
X90072697Y-65470500D01*
X90077256Y-65470500D01*
X90242425Y-65429790D01*
X90393052Y-65350734D01*
X90520383Y-65237929D01*
X90617018Y-65097930D01*
X90677340Y-64938872D01*
X90697845Y-64770000D01*
X90677340Y-64601128D01*
X90617018Y-64442070D01*
X90602443Y-64420955D01*
X90549797Y-64344684D01*
X90520383Y-64302071D01*
X90460199Y-64248753D01*
X90396459Y-64192284D01*
X90396457Y-64192282D01*
X90393052Y-64189266D01*
X90389023Y-64187151D01*
X90389021Y-64187150D01*
X90246455Y-64112325D01*
X90246454Y-64112324D01*
X90242425Y-64110210D01*
X90238006Y-64109120D01*
X90238004Y-64109120D01*
X90081682Y-64070591D01*
X90077256Y-64069500D01*
X89907144Y-64069500D01*
X89902718Y-64070590D01*
X89902717Y-64070591D01*
X89746395Y-64109120D01*
X89746390Y-64109121D01*
X89741975Y-64110210D01*
X89737948Y-64112323D01*
X89737944Y-64112325D01*
X89595378Y-64187150D01*
X89595372Y-64187153D01*
X89591348Y-64189266D01*
X89587946Y-64192279D01*
X89587940Y-64192284D01*
X89467426Y-64299050D01*
X89467422Y-64299054D01*
X89464017Y-64302071D01*
X89461432Y-64305814D01*
X89461430Y-64305818D01*
X89369967Y-64438323D01*
X89369962Y-64438331D01*
X89367382Y-64442070D01*
X89365768Y-64446323D01*
X89365767Y-64446327D01*
X89308676Y-64596866D01*
X89307060Y-64601128D01*
X89306511Y-64605642D01*
X89306510Y-64605650D01*
X89289073Y-64749266D01*
X89286555Y-64770000D01*
X68294615Y-64770000D01*
X68286282Y-64751752D01*
X68200695Y-64652979D01*
X68196165Y-64650067D01*
X68196163Y-64650066D01*
X68095278Y-64585232D01*
X68095276Y-64585231D01*
X68090748Y-64582321D01*
X68085582Y-64580804D01*
X67970511Y-64547016D01*
X67970509Y-64547015D01*
X67965347Y-64545500D01*
X67834653Y-64545500D01*
X67829491Y-64547015D01*
X67829488Y-64547016D01*
X67714417Y-64580804D01*
X67714414Y-64580805D01*
X67709252Y-64582321D01*
X67704725Y-64585229D01*
X67704721Y-64585232D01*
X67603836Y-64650066D01*
X67603830Y-64650070D01*
X67599305Y-64652979D01*
X67595778Y-64657048D01*
X67595777Y-64657050D01*
X67517248Y-64747677D01*
X67517245Y-64747681D01*
X67513718Y-64751752D01*
X67511481Y-64756650D01*
X67511478Y-64756655D01*
X67461663Y-64865735D01*
X67461660Y-64865742D01*
X67459426Y-64870636D01*
X67440826Y-65000000D01*
X66421500Y-65000000D01*
X66421500Y-64369748D01*
X72609500Y-64369748D01*
X72610219Y-64373366D01*
X72610220Y-64373369D01*
X72619685Y-64420955D01*
X72619686Y-64420958D01*
X72621133Y-64428231D01*
X72625253Y-64434397D01*
X72625254Y-64434399D01*
X72653254Y-64476303D01*
X72665448Y-64494552D01*
X72731769Y-64538867D01*
X72790252Y-64550500D01*
X74526054Y-64550500D01*
X74529748Y-64550500D01*
X74588231Y-64538867D01*
X74654552Y-64494552D01*
X74698867Y-64428231D01*
X74710500Y-64369748D01*
X74710500Y-63500000D01*
X75144417Y-63500000D01*
X75144780Y-63503686D01*
X75164337Y-63702255D01*
X75164338Y-63702261D01*
X75164700Y-63705934D01*
X75165769Y-63709460D01*
X75165771Y-63709467D01*
X75207369Y-63846597D01*
X75224768Y-63903954D01*
X75226508Y-63907209D01*
X75226510Y-63907214D01*
X75278743Y-64004933D01*
X75322315Y-64086450D01*
X75453590Y-64246410D01*
X75613550Y-64377685D01*
X75796046Y-64475232D01*
X75994066Y-64535300D01*
X76200000Y-64555583D01*
X76405934Y-64535300D01*
X76603954Y-64475232D01*
X76786450Y-64377685D01*
X76946410Y-64246410D01*
X77077685Y-64086450D01*
X77175232Y-63903954D01*
X77235300Y-63705934D01*
X77255583Y-63500000D01*
X77684417Y-63500000D01*
X77684780Y-63503686D01*
X77704337Y-63702255D01*
X77704338Y-63702261D01*
X77704700Y-63705934D01*
X77705769Y-63709460D01*
X77705771Y-63709467D01*
X77747369Y-63846597D01*
X77764768Y-63903954D01*
X77766508Y-63907209D01*
X77766510Y-63907214D01*
X77818743Y-64004933D01*
X77862315Y-64086450D01*
X77993590Y-64246410D01*
X78153550Y-64377685D01*
X78336046Y-64475232D01*
X78534066Y-64535300D01*
X78740000Y-64555583D01*
X78945934Y-64535300D01*
X79143954Y-64475232D01*
X79326450Y-64377685D01*
X79486410Y-64246410D01*
X79617685Y-64086450D01*
X79715232Y-63903954D01*
X79775300Y-63705934D01*
X79782044Y-63637460D01*
X80184007Y-63637460D01*
X80189826Y-63700259D01*
X80191102Y-63707084D01*
X80245186Y-63897167D01*
X80247692Y-63903635D01*
X80335789Y-64080558D01*
X80339434Y-64086445D01*
X80458539Y-64244167D01*
X80463212Y-64249293D01*
X80609268Y-64382440D01*
X80614803Y-64386620D01*
X80782827Y-64490655D01*
X80789053Y-64493755D01*
X80973325Y-64565143D01*
X80980015Y-64567046D01*
X81142087Y-64597343D01*
X81150546Y-64596427D01*
X81153000Y-64588282D01*
X81407000Y-64588282D01*
X81409453Y-64596427D01*
X81417912Y-64597343D01*
X81579984Y-64567046D01*
X81586674Y-64565143D01*
X81770946Y-64493755D01*
X81777172Y-64490655D01*
X81945196Y-64386620D01*
X81950731Y-64382440D01*
X82096787Y-64249293D01*
X82101460Y-64244167D01*
X82220565Y-64086445D01*
X82224210Y-64080558D01*
X82312307Y-63903635D01*
X82314813Y-63897167D01*
X82368897Y-63707084D01*
X82370173Y-63700259D01*
X82375992Y-63637460D01*
X82374463Y-63629278D01*
X82366455Y-63627000D01*
X81416916Y-63627000D01*
X81409095Y-63629095D01*
X81407000Y-63636916D01*
X81407000Y-64588282D01*
X81153000Y-64588282D01*
X81153000Y-63636916D01*
X81150904Y-63629095D01*
X81143084Y-63627000D01*
X80193545Y-63627000D01*
X80185536Y-63629278D01*
X80184007Y-63637460D01*
X79782044Y-63637460D01*
X79795583Y-63500000D01*
X82764417Y-63500000D01*
X82764780Y-63503686D01*
X82784337Y-63702255D01*
X82784338Y-63702261D01*
X82784700Y-63705934D01*
X82785769Y-63709460D01*
X82785771Y-63709467D01*
X82827369Y-63846597D01*
X82844768Y-63903954D01*
X82846508Y-63907209D01*
X82846510Y-63907214D01*
X82898743Y-64004933D01*
X82942315Y-64086450D01*
X83073590Y-64246410D01*
X83233550Y-64377685D01*
X83416046Y-64475232D01*
X83614066Y-64535300D01*
X83820000Y-64555583D01*
X84025934Y-64535300D01*
X84223954Y-64475232D01*
X84406450Y-64377685D01*
X84566410Y-64246410D01*
X84697685Y-64086450D01*
X84795232Y-63903954D01*
X84855300Y-63705934D01*
X84875583Y-63500000D01*
X85304417Y-63500000D01*
X85304780Y-63503686D01*
X85324337Y-63702255D01*
X85324338Y-63702261D01*
X85324700Y-63705934D01*
X85325769Y-63709460D01*
X85325771Y-63709467D01*
X85367369Y-63846597D01*
X85384768Y-63903954D01*
X85386508Y-63907209D01*
X85386510Y-63907214D01*
X85438743Y-64004933D01*
X85482315Y-64086450D01*
X85613590Y-64246410D01*
X85773550Y-64377685D01*
X85956046Y-64475232D01*
X86154066Y-64535300D01*
X86360000Y-64555583D01*
X86565934Y-64535300D01*
X86763954Y-64475232D01*
X86946450Y-64377685D01*
X87106410Y-64246410D01*
X87237685Y-64086450D01*
X87335232Y-63903954D01*
X87395300Y-63705934D01*
X87415583Y-63500000D01*
X87395300Y-63294066D01*
X87335232Y-63096046D01*
X87237685Y-62913550D01*
X87187173Y-62852000D01*
X90980826Y-62852000D01*
X90999426Y-62981364D01*
X91001661Y-62986259D01*
X91001663Y-62986264D01*
X91051478Y-63095344D01*
X91053718Y-63100248D01*
X91139305Y-63199021D01*
X91249252Y-63269679D01*
X91374653Y-63306500D01*
X91499963Y-63306500D01*
X91505347Y-63306500D01*
X91630748Y-63269679D01*
X91740695Y-63199021D01*
X91826282Y-63100248D01*
X91880574Y-62981364D01*
X91899174Y-62852000D01*
X91897889Y-62843066D01*
X91890087Y-62788799D01*
X91880574Y-62722636D01*
X91826282Y-62603752D01*
X91740695Y-62504979D01*
X91736165Y-62502067D01*
X91736163Y-62502066D01*
X91635278Y-62437232D01*
X91635276Y-62437231D01*
X91630748Y-62434321D01*
X91625582Y-62432804D01*
X91510511Y-62399016D01*
X91510509Y-62399015D01*
X91505347Y-62397500D01*
X91374653Y-62397500D01*
X91369491Y-62399015D01*
X91369488Y-62399016D01*
X91254417Y-62432804D01*
X91254414Y-62432805D01*
X91249252Y-62434321D01*
X91244725Y-62437229D01*
X91244721Y-62437232D01*
X91143836Y-62502066D01*
X91143830Y-62502070D01*
X91139305Y-62504979D01*
X91135778Y-62509048D01*
X91135777Y-62509050D01*
X91057248Y-62599677D01*
X91057245Y-62599681D01*
X91053718Y-62603752D01*
X91051481Y-62608650D01*
X91051478Y-62608655D01*
X91001663Y-62717735D01*
X91001660Y-62717742D01*
X90999426Y-62722636D01*
X90998659Y-62727967D01*
X90998659Y-62727969D01*
X90981806Y-62845183D01*
X90980826Y-62852000D01*
X87187173Y-62852000D01*
X87106410Y-62753590D01*
X87080610Y-62732417D01*
X86949306Y-62624659D01*
X86949307Y-62624659D01*
X86946450Y-62622315D01*
X86904098Y-62599677D01*
X86767214Y-62526510D01*
X86767209Y-62526508D01*
X86763954Y-62524768D01*
X86720591Y-62511614D01*
X86569467Y-62465771D01*
X86569460Y-62465769D01*
X86565934Y-62464700D01*
X86562261Y-62464338D01*
X86562255Y-62464337D01*
X86363686Y-62444780D01*
X86360000Y-62444417D01*
X86356314Y-62444780D01*
X86157744Y-62464337D01*
X86157736Y-62464338D01*
X86154066Y-62464700D01*
X86150541Y-62465769D01*
X86150532Y-62465771D01*
X85959579Y-62523696D01*
X85959576Y-62523697D01*
X85956046Y-62524768D01*
X85952793Y-62526506D01*
X85952785Y-62526510D01*
X85776812Y-62620571D01*
X85776808Y-62620573D01*
X85773550Y-62622315D01*
X85770697Y-62624656D01*
X85770693Y-62624659D01*
X85616445Y-62751246D01*
X85616439Y-62751251D01*
X85613590Y-62753590D01*
X85611251Y-62756439D01*
X85611246Y-62756445D01*
X85484659Y-62910693D01*
X85484656Y-62910697D01*
X85482315Y-62913550D01*
X85480573Y-62916808D01*
X85480571Y-62916812D01*
X85386510Y-63092785D01*
X85386506Y-63092793D01*
X85384768Y-63096046D01*
X85383697Y-63099576D01*
X85383696Y-63099579D01*
X85325771Y-63290532D01*
X85325769Y-63290541D01*
X85324700Y-63294066D01*
X85324338Y-63297736D01*
X85324337Y-63297744D01*
X85312367Y-63419279D01*
X85304417Y-63500000D01*
X84875583Y-63500000D01*
X84855300Y-63294066D01*
X84795232Y-63096046D01*
X84697685Y-62913550D01*
X84566410Y-62753590D01*
X84540610Y-62732417D01*
X84409306Y-62624659D01*
X84409307Y-62624659D01*
X84406450Y-62622315D01*
X84364098Y-62599677D01*
X84227214Y-62526510D01*
X84227209Y-62526508D01*
X84223954Y-62524768D01*
X84180591Y-62511614D01*
X84029467Y-62465771D01*
X84029460Y-62465769D01*
X84025934Y-62464700D01*
X84022261Y-62464338D01*
X84022255Y-62464337D01*
X83823686Y-62444780D01*
X83820000Y-62444417D01*
X83816314Y-62444780D01*
X83617744Y-62464337D01*
X83617736Y-62464338D01*
X83614066Y-62464700D01*
X83610541Y-62465769D01*
X83610532Y-62465771D01*
X83419579Y-62523696D01*
X83419576Y-62523697D01*
X83416046Y-62524768D01*
X83412793Y-62526506D01*
X83412785Y-62526510D01*
X83236812Y-62620571D01*
X83236808Y-62620573D01*
X83233550Y-62622315D01*
X83230697Y-62624656D01*
X83230693Y-62624659D01*
X83076445Y-62751246D01*
X83076439Y-62751251D01*
X83073590Y-62753590D01*
X83071251Y-62756439D01*
X83071246Y-62756445D01*
X82944659Y-62910693D01*
X82944656Y-62910697D01*
X82942315Y-62913550D01*
X82940573Y-62916808D01*
X82940571Y-62916812D01*
X82846510Y-63092785D01*
X82846506Y-63092793D01*
X82844768Y-63096046D01*
X82843697Y-63099576D01*
X82843696Y-63099579D01*
X82785771Y-63290532D01*
X82785769Y-63290541D01*
X82784700Y-63294066D01*
X82784338Y-63297736D01*
X82784337Y-63297744D01*
X82772367Y-63419279D01*
X82764417Y-63500000D01*
X79795583Y-63500000D01*
X79782044Y-63362539D01*
X80184007Y-63362539D01*
X80185536Y-63370721D01*
X80193545Y-63373000D01*
X81143084Y-63373000D01*
X81150904Y-63370904D01*
X81153000Y-63363084D01*
X81407000Y-63363084D01*
X81409095Y-63370904D01*
X81416916Y-63373000D01*
X82366455Y-63373000D01*
X82374463Y-63370721D01*
X82375992Y-63362539D01*
X82370173Y-63299740D01*
X82368897Y-63292915D01*
X82314813Y-63102832D01*
X82312307Y-63096364D01*
X82224210Y-62919441D01*
X82220565Y-62913554D01*
X82101460Y-62755832D01*
X82096787Y-62750706D01*
X81950731Y-62617559D01*
X81945196Y-62613379D01*
X81777172Y-62509344D01*
X81770946Y-62506244D01*
X81586674Y-62434856D01*
X81579984Y-62432953D01*
X81417912Y-62402656D01*
X81409453Y-62403572D01*
X81407000Y-62411718D01*
X81407000Y-63363084D01*
X81153000Y-63363084D01*
X81153000Y-62411718D01*
X81150546Y-62403572D01*
X81142087Y-62402656D01*
X80980015Y-62432953D01*
X80973325Y-62434856D01*
X80789053Y-62506244D01*
X80782827Y-62509344D01*
X80614803Y-62613379D01*
X80609268Y-62617559D01*
X80463212Y-62750706D01*
X80458539Y-62755832D01*
X80339434Y-62913554D01*
X80335789Y-62919441D01*
X80247692Y-63096364D01*
X80245186Y-63102832D01*
X80191102Y-63292915D01*
X80189826Y-63299740D01*
X80184007Y-63362539D01*
X79782044Y-63362539D01*
X79775300Y-63294066D01*
X79715232Y-63096046D01*
X79617685Y-62913550D01*
X79486410Y-62753590D01*
X79460610Y-62732417D01*
X79329306Y-62624659D01*
X79329307Y-62624659D01*
X79326450Y-62622315D01*
X79284098Y-62599677D01*
X79147214Y-62526510D01*
X79147209Y-62526508D01*
X79143954Y-62524768D01*
X79100591Y-62511614D01*
X78949467Y-62465771D01*
X78949460Y-62465769D01*
X78945934Y-62464700D01*
X78942261Y-62464338D01*
X78942255Y-62464337D01*
X78743686Y-62444780D01*
X78740000Y-62444417D01*
X78736314Y-62444780D01*
X78537744Y-62464337D01*
X78537736Y-62464338D01*
X78534066Y-62464700D01*
X78530541Y-62465769D01*
X78530532Y-62465771D01*
X78339579Y-62523696D01*
X78339576Y-62523697D01*
X78336046Y-62524768D01*
X78332793Y-62526506D01*
X78332785Y-62526510D01*
X78156812Y-62620571D01*
X78156808Y-62620573D01*
X78153550Y-62622315D01*
X78150697Y-62624656D01*
X78150693Y-62624659D01*
X77996445Y-62751246D01*
X77996439Y-62751251D01*
X77993590Y-62753590D01*
X77991251Y-62756439D01*
X77991246Y-62756445D01*
X77864659Y-62910693D01*
X77864656Y-62910697D01*
X77862315Y-62913550D01*
X77860573Y-62916808D01*
X77860571Y-62916812D01*
X77766510Y-63092785D01*
X77766506Y-63092793D01*
X77764768Y-63096046D01*
X77763697Y-63099576D01*
X77763696Y-63099579D01*
X77705771Y-63290532D01*
X77705769Y-63290541D01*
X77704700Y-63294066D01*
X77704338Y-63297736D01*
X77704337Y-63297744D01*
X77692367Y-63419279D01*
X77684417Y-63500000D01*
X77255583Y-63500000D01*
X77235300Y-63294066D01*
X77175232Y-63096046D01*
X77077685Y-62913550D01*
X76946410Y-62753590D01*
X76920610Y-62732417D01*
X76789306Y-62624659D01*
X76789307Y-62624659D01*
X76786450Y-62622315D01*
X76744098Y-62599677D01*
X76607214Y-62526510D01*
X76607209Y-62526508D01*
X76603954Y-62524768D01*
X76560591Y-62511614D01*
X76409467Y-62465771D01*
X76409460Y-62465769D01*
X76405934Y-62464700D01*
X76402261Y-62464338D01*
X76402255Y-62464337D01*
X76203686Y-62444780D01*
X76200000Y-62444417D01*
X76196314Y-62444780D01*
X75997744Y-62464337D01*
X75997736Y-62464338D01*
X75994066Y-62464700D01*
X75990541Y-62465769D01*
X75990532Y-62465771D01*
X75799579Y-62523696D01*
X75799576Y-62523697D01*
X75796046Y-62524768D01*
X75792793Y-62526506D01*
X75792785Y-62526510D01*
X75616812Y-62620571D01*
X75616808Y-62620573D01*
X75613550Y-62622315D01*
X75610697Y-62624656D01*
X75610693Y-62624659D01*
X75456445Y-62751246D01*
X75456439Y-62751251D01*
X75453590Y-62753590D01*
X75451251Y-62756439D01*
X75451246Y-62756445D01*
X75324659Y-62910693D01*
X75324656Y-62910697D01*
X75322315Y-62913550D01*
X75320573Y-62916808D01*
X75320571Y-62916812D01*
X75226510Y-63092785D01*
X75226506Y-63092793D01*
X75224768Y-63096046D01*
X75223697Y-63099576D01*
X75223696Y-63099579D01*
X75165771Y-63290532D01*
X75165769Y-63290541D01*
X75164700Y-63294066D01*
X75164338Y-63297736D01*
X75164337Y-63297744D01*
X75152367Y-63419279D01*
X75144417Y-63500000D01*
X74710500Y-63500000D01*
X74710500Y-62630252D01*
X74698867Y-62571769D01*
X74654552Y-62505448D01*
X74648385Y-62501327D01*
X74594399Y-62465254D01*
X74594397Y-62465253D01*
X74588231Y-62461133D01*
X74580958Y-62459686D01*
X74580955Y-62459685D01*
X74533369Y-62450220D01*
X74533366Y-62450219D01*
X74529748Y-62449500D01*
X72790252Y-62449500D01*
X72786634Y-62450219D01*
X72786630Y-62450220D01*
X72739044Y-62459685D01*
X72739039Y-62459686D01*
X72731769Y-62461133D01*
X72725604Y-62465252D01*
X72725600Y-62465254D01*
X72671614Y-62501327D01*
X72671611Y-62501329D01*
X72665448Y-62505448D01*
X72661329Y-62511611D01*
X72661327Y-62511614D01*
X72625254Y-62565600D01*
X72625252Y-62565604D01*
X72621133Y-62571769D01*
X72619686Y-62579039D01*
X72619685Y-62579044D01*
X72610220Y-62626630D01*
X72609500Y-62630252D01*
X72609500Y-64369748D01*
X66421500Y-64369748D01*
X66421500Y-61645800D01*
X69418126Y-61645800D01*
X69418893Y-61651135D01*
X69425817Y-61699295D01*
X69436726Y-61775164D01*
X69438961Y-61780059D01*
X69438963Y-61780064D01*
X69488778Y-61889144D01*
X69491018Y-61894048D01*
X69576605Y-61992821D01*
X69686552Y-62063479D01*
X69811953Y-62100300D01*
X69937263Y-62100300D01*
X69942647Y-62100300D01*
X70068048Y-62063479D01*
X70177995Y-61992821D01*
X70263582Y-61894048D01*
X70317874Y-61775164D01*
X70336474Y-61645800D01*
X70335013Y-61635642D01*
X70332430Y-61617674D01*
X70317874Y-61516436D01*
X70263582Y-61397552D01*
X70177995Y-61298779D01*
X70173465Y-61295867D01*
X70173463Y-61295866D01*
X70072578Y-61231032D01*
X70072576Y-61231031D01*
X70068048Y-61228121D01*
X70062882Y-61226604D01*
X69947811Y-61192816D01*
X69947809Y-61192815D01*
X69942647Y-61191300D01*
X69811953Y-61191300D01*
X69806791Y-61192815D01*
X69806788Y-61192816D01*
X69691717Y-61226604D01*
X69691714Y-61226605D01*
X69686552Y-61228121D01*
X69682025Y-61231029D01*
X69682021Y-61231032D01*
X69581136Y-61295866D01*
X69581130Y-61295870D01*
X69576605Y-61298779D01*
X69573078Y-61302848D01*
X69573077Y-61302850D01*
X69494548Y-61393477D01*
X69494545Y-61393481D01*
X69491018Y-61397552D01*
X69488781Y-61402450D01*
X69488778Y-61402455D01*
X69438963Y-61511535D01*
X69438960Y-61511542D01*
X69436726Y-61516436D01*
X69435959Y-61521767D01*
X69435959Y-61521769D01*
X69419586Y-61635644D01*
X69418126Y-61645800D01*
X66421500Y-61645800D01*
X66421500Y-60960000D01*
X79990155Y-60960000D01*
X79990704Y-60964521D01*
X80010110Y-61124349D01*
X80010111Y-61124355D01*
X80010660Y-61128872D01*
X80020707Y-61155364D01*
X80058956Y-61256221D01*
X80070982Y-61287930D01*
X80073564Y-61291671D01*
X80073567Y-61291676D01*
X80139341Y-61386965D01*
X80167617Y-61427929D01*
X80171026Y-61430949D01*
X80270189Y-61518800D01*
X80294948Y-61540734D01*
X80445575Y-61619790D01*
X80610744Y-61660500D01*
X80776297Y-61660500D01*
X80780856Y-61660500D01*
X80946025Y-61619790D01*
X81096652Y-61540734D01*
X81223983Y-61427929D01*
X81320618Y-61287930D01*
X81380940Y-61128872D01*
X81401445Y-60960000D01*
X81996755Y-60960000D01*
X81997304Y-60964521D01*
X82016710Y-61124349D01*
X82016711Y-61124355D01*
X82017260Y-61128872D01*
X82027307Y-61155364D01*
X82065556Y-61256221D01*
X82077582Y-61287930D01*
X82080164Y-61291671D01*
X82080167Y-61291676D01*
X82145941Y-61386965D01*
X82174217Y-61427929D01*
X82177626Y-61430949D01*
X82276789Y-61518800D01*
X82301548Y-61540734D01*
X82452175Y-61619790D01*
X82617344Y-61660500D01*
X82782897Y-61660500D01*
X82787456Y-61660500D01*
X82952625Y-61619790D01*
X83103252Y-61540734D01*
X83230583Y-61427929D01*
X83327218Y-61287930D01*
X83387540Y-61128872D01*
X83408045Y-60960000D01*
X84054155Y-60960000D01*
X84054704Y-60964521D01*
X84074110Y-61124349D01*
X84074111Y-61124355D01*
X84074660Y-61128872D01*
X84084707Y-61155364D01*
X84122956Y-61256221D01*
X84134982Y-61287930D01*
X84137564Y-61291671D01*
X84137567Y-61291676D01*
X84203341Y-61386965D01*
X84231617Y-61427929D01*
X84235026Y-61430949D01*
X84334189Y-61518800D01*
X84358948Y-61540734D01*
X84509575Y-61619790D01*
X84674744Y-61660500D01*
X84840297Y-61660500D01*
X84844856Y-61660500D01*
X85010025Y-61619790D01*
X85160652Y-61540734D01*
X85287983Y-61427929D01*
X85384618Y-61287930D01*
X85444940Y-61128872D01*
X85457431Y-61026000D01*
X89721026Y-61026000D01*
X89721793Y-61031335D01*
X89738704Y-61148955D01*
X89739626Y-61155364D01*
X89741861Y-61160259D01*
X89741863Y-61160264D01*
X89791678Y-61269344D01*
X89793918Y-61274248D01*
X89879505Y-61373021D01*
X89989452Y-61443679D01*
X90114853Y-61480500D01*
X90240163Y-61480500D01*
X90245547Y-61480500D01*
X90370948Y-61443679D01*
X90480895Y-61373021D01*
X90566482Y-61274248D01*
X90620774Y-61155364D01*
X90637568Y-61038564D01*
X90638607Y-61031335D01*
X90639374Y-61026000D01*
X90622580Y-60909200D01*
X92123826Y-60909200D01*
X92124593Y-60914535D01*
X92140619Y-61026000D01*
X92142426Y-61038564D01*
X92144661Y-61043459D01*
X92144663Y-61043464D01*
X92188739Y-61139977D01*
X92196718Y-61157448D01*
X92282305Y-61256221D01*
X92392252Y-61326879D01*
X92517653Y-61363700D01*
X92642963Y-61363700D01*
X92648347Y-61363700D01*
X92764447Y-61329610D01*
X95411816Y-61329610D01*
X95412583Y-61334945D01*
X95426386Y-61430949D01*
X95430416Y-61458974D01*
X95432651Y-61463869D01*
X95432653Y-61463874D01*
X95479353Y-61566132D01*
X95484708Y-61577858D01*
X95570295Y-61676631D01*
X95574825Y-61679542D01*
X95574826Y-61679543D01*
X95584673Y-61685871D01*
X95680242Y-61747289D01*
X95805643Y-61784110D01*
X95930953Y-61784110D01*
X95936337Y-61784110D01*
X96061738Y-61747289D01*
X96171685Y-61676631D01*
X96257272Y-61577858D01*
X96311564Y-61458974D01*
X96321150Y-61392300D01*
X98200419Y-61392300D01*
X98219019Y-61521664D01*
X98221254Y-61526559D01*
X98221256Y-61526564D01*
X98271071Y-61635644D01*
X98273311Y-61640548D01*
X98358898Y-61739321D01*
X98363428Y-61742232D01*
X98363429Y-61742233D01*
X98406371Y-61769830D01*
X98468845Y-61809979D01*
X98594246Y-61846800D01*
X98719556Y-61846800D01*
X98724940Y-61846800D01*
X98850341Y-61809979D01*
X98960288Y-61739321D01*
X99045875Y-61640548D01*
X99079859Y-61566130D01*
X99101815Y-61538212D01*
X99134123Y-61523457D01*
X99169598Y-61525146D01*
X99233653Y-61543955D01*
X99358963Y-61543955D01*
X99364347Y-61543955D01*
X99489748Y-61507134D01*
X99599695Y-61436476D01*
X99685282Y-61337703D01*
X99739574Y-61218819D01*
X99758174Y-61089455D01*
X99756424Y-61077287D01*
X99751561Y-61043464D01*
X99739574Y-60960091D01*
X99732016Y-60943542D01*
X99687521Y-60846110D01*
X99685282Y-60841207D01*
X99599695Y-60742434D01*
X99595165Y-60739522D01*
X99595163Y-60739521D01*
X99494278Y-60674687D01*
X99494276Y-60674686D01*
X99489748Y-60671776D01*
X99439007Y-60656877D01*
X99369511Y-60636471D01*
X99369509Y-60636470D01*
X99364347Y-60634955D01*
X99233653Y-60634955D01*
X99228491Y-60636470D01*
X99228488Y-60636471D01*
X99113417Y-60670259D01*
X99113414Y-60670260D01*
X99108252Y-60671776D01*
X99103725Y-60674684D01*
X99103721Y-60674687D01*
X99002836Y-60739521D01*
X99002830Y-60739525D01*
X98998305Y-60742434D01*
X98994778Y-60746503D01*
X98994777Y-60746505D01*
X98916248Y-60837132D01*
X98916245Y-60837136D01*
X98912718Y-60841207D01*
X98910481Y-60846105D01*
X98910478Y-60846110D01*
X98878733Y-60915623D01*
X98856777Y-60943542D01*
X98824469Y-60958297D01*
X98788991Y-60956607D01*
X98730105Y-60939316D01*
X98730101Y-60939315D01*
X98724940Y-60937800D01*
X98594246Y-60937800D01*
X98589084Y-60939315D01*
X98589081Y-60939316D01*
X98474010Y-60973104D01*
X98474007Y-60973105D01*
X98468845Y-60974621D01*
X98464318Y-60977529D01*
X98464314Y-60977532D01*
X98363429Y-61042366D01*
X98363423Y-61042370D01*
X98358898Y-61045279D01*
X98355371Y-61049348D01*
X98355370Y-61049350D01*
X98276841Y-61139977D01*
X98276838Y-61139981D01*
X98273311Y-61144052D01*
X98271074Y-61148950D01*
X98271071Y-61148955D01*
X98221256Y-61258035D01*
X98221253Y-61258042D01*
X98219019Y-61262936D01*
X98218252Y-61268267D01*
X98218252Y-61268269D01*
X98208269Y-61337703D01*
X98200419Y-61392300D01*
X96321150Y-61392300D01*
X96330164Y-61329610D01*
X96311564Y-61200246D01*
X96289779Y-61152544D01*
X96259511Y-61086265D01*
X96257272Y-61081362D01*
X96171685Y-60982589D01*
X96167155Y-60979677D01*
X96167153Y-60979676D01*
X96066268Y-60914842D01*
X96066266Y-60914841D01*
X96061738Y-60911931D01*
X96054014Y-60909663D01*
X95941501Y-60876626D01*
X95941499Y-60876625D01*
X95936337Y-60875110D01*
X95805643Y-60875110D01*
X95800481Y-60876625D01*
X95800478Y-60876626D01*
X95685407Y-60910414D01*
X95685404Y-60910415D01*
X95680242Y-60911931D01*
X95675715Y-60914839D01*
X95675711Y-60914842D01*
X95574826Y-60979676D01*
X95574820Y-60979680D01*
X95570295Y-60982589D01*
X95566768Y-60986658D01*
X95566767Y-60986660D01*
X95488238Y-61077287D01*
X95488235Y-61077291D01*
X95484708Y-61081362D01*
X95482471Y-61086260D01*
X95482468Y-61086265D01*
X95432653Y-61195345D01*
X95432650Y-61195352D01*
X95430416Y-61200246D01*
X95429649Y-61205577D01*
X95429649Y-61205579D01*
X95412627Y-61323967D01*
X95411816Y-61329610D01*
X92764447Y-61329610D01*
X92773748Y-61326879D01*
X92883695Y-61256221D01*
X92969282Y-61157448D01*
X93023574Y-61038564D01*
X93040235Y-60922681D01*
X93041407Y-60914535D01*
X93042174Y-60909200D01*
X93023574Y-60779836D01*
X92969282Y-60660952D01*
X92883695Y-60562179D01*
X92879885Y-60559730D01*
X96338357Y-60559730D01*
X96339124Y-60565065D01*
X96354885Y-60674687D01*
X96356957Y-60689094D01*
X96359192Y-60693989D01*
X96359194Y-60693994D01*
X96405619Y-60795650D01*
X96411249Y-60807978D01*
X96496836Y-60906751D01*
X96606783Y-60977409D01*
X96732184Y-61014230D01*
X96857494Y-61014230D01*
X96862878Y-61014230D01*
X96988279Y-60977409D01*
X97098226Y-60906751D01*
X97183813Y-60807978D01*
X97238105Y-60689094D01*
X97256705Y-60559730D01*
X97238105Y-60430366D01*
X97231485Y-60415871D01*
X97186052Y-60316385D01*
X97183813Y-60311482D01*
X97098226Y-60212709D01*
X97093696Y-60209797D01*
X97093694Y-60209796D01*
X96992809Y-60144962D01*
X96992807Y-60144961D01*
X96988279Y-60142051D01*
X96983113Y-60140534D01*
X96868042Y-60106746D01*
X96868040Y-60106745D01*
X96862878Y-60105230D01*
X96732184Y-60105230D01*
X96727022Y-60106745D01*
X96727019Y-60106746D01*
X96611948Y-60140534D01*
X96611945Y-60140535D01*
X96606783Y-60142051D01*
X96602256Y-60144959D01*
X96602252Y-60144962D01*
X96501367Y-60209796D01*
X96501361Y-60209800D01*
X96496836Y-60212709D01*
X96493309Y-60216778D01*
X96493308Y-60216780D01*
X96414779Y-60307407D01*
X96414776Y-60307411D01*
X96411249Y-60311482D01*
X96409012Y-60316380D01*
X96409009Y-60316385D01*
X96359194Y-60425465D01*
X96359191Y-60425472D01*
X96356957Y-60430366D01*
X96356190Y-60435697D01*
X96356190Y-60435699D01*
X96347546Y-60495818D01*
X96338357Y-60559730D01*
X92879885Y-60559730D01*
X92879165Y-60559267D01*
X92879163Y-60559266D01*
X92778278Y-60494432D01*
X92778276Y-60494431D01*
X92773748Y-60491521D01*
X92765333Y-60489050D01*
X92653511Y-60456216D01*
X92653509Y-60456215D01*
X92648347Y-60454700D01*
X92517653Y-60454700D01*
X92512491Y-60456215D01*
X92512488Y-60456216D01*
X92397417Y-60490004D01*
X92397414Y-60490005D01*
X92392252Y-60491521D01*
X92387725Y-60494429D01*
X92387721Y-60494432D01*
X92286836Y-60559266D01*
X92286830Y-60559270D01*
X92282305Y-60562179D01*
X92278778Y-60566248D01*
X92278777Y-60566250D01*
X92200248Y-60656877D01*
X92200245Y-60656881D01*
X92196718Y-60660952D01*
X92194481Y-60665850D01*
X92194478Y-60665855D01*
X92144663Y-60774935D01*
X92144660Y-60774942D01*
X92142426Y-60779836D01*
X92141659Y-60785167D01*
X92141659Y-60785169D01*
X92128128Y-60879279D01*
X92123826Y-60909200D01*
X90622580Y-60909200D01*
X90620774Y-60896636D01*
X90612847Y-60879279D01*
X90574656Y-60795650D01*
X90566482Y-60777752D01*
X90480895Y-60678979D01*
X90476365Y-60676067D01*
X90476363Y-60676066D01*
X90375478Y-60611232D01*
X90375476Y-60611231D01*
X90370948Y-60608321D01*
X90365782Y-60606804D01*
X90250711Y-60573016D01*
X90250709Y-60573015D01*
X90245547Y-60571500D01*
X90114853Y-60571500D01*
X90109691Y-60573015D01*
X90109688Y-60573016D01*
X89994617Y-60606804D01*
X89994614Y-60606805D01*
X89989452Y-60608321D01*
X89984925Y-60611229D01*
X89984921Y-60611232D01*
X89884036Y-60676066D01*
X89884030Y-60676070D01*
X89879505Y-60678979D01*
X89875978Y-60683048D01*
X89875977Y-60683050D01*
X89797448Y-60773677D01*
X89797445Y-60773681D01*
X89793918Y-60777752D01*
X89791681Y-60782650D01*
X89791678Y-60782655D01*
X89741863Y-60891735D01*
X89741860Y-60891742D01*
X89739626Y-60896636D01*
X89738859Y-60901967D01*
X89738859Y-60901969D01*
X89728631Y-60973104D01*
X89721026Y-61026000D01*
X85457431Y-61026000D01*
X85465445Y-60960000D01*
X85444940Y-60791128D01*
X85384618Y-60632070D01*
X85370234Y-60611232D01*
X85307709Y-60520649D01*
X85287983Y-60492071D01*
X85160652Y-60379266D01*
X85156623Y-60377151D01*
X85156621Y-60377150D01*
X85014055Y-60302325D01*
X85014054Y-60302324D01*
X85010025Y-60300210D01*
X85005606Y-60299120D01*
X85005604Y-60299120D01*
X84849282Y-60260591D01*
X84844856Y-60259500D01*
X84674744Y-60259500D01*
X84670318Y-60260590D01*
X84670317Y-60260591D01*
X84513995Y-60299120D01*
X84513990Y-60299121D01*
X84509575Y-60300210D01*
X84505548Y-60302323D01*
X84505544Y-60302325D01*
X84362978Y-60377150D01*
X84362972Y-60377153D01*
X84358948Y-60379266D01*
X84355546Y-60382279D01*
X84355540Y-60382284D01*
X84235026Y-60489050D01*
X84235022Y-60489054D01*
X84231617Y-60492071D01*
X84229032Y-60495814D01*
X84229030Y-60495818D01*
X84137567Y-60628323D01*
X84137562Y-60628331D01*
X84134982Y-60632070D01*
X84133368Y-60636323D01*
X84133367Y-60636327D01*
X84078942Y-60779836D01*
X84074660Y-60791128D01*
X84074111Y-60795642D01*
X84074110Y-60795650D01*
X84056153Y-60943542D01*
X84054155Y-60960000D01*
X83408045Y-60960000D01*
X83387540Y-60791128D01*
X83327218Y-60632070D01*
X83312834Y-60611232D01*
X83250309Y-60520649D01*
X83230583Y-60492071D01*
X83103252Y-60379266D01*
X83099223Y-60377151D01*
X83099221Y-60377150D01*
X82956655Y-60302325D01*
X82956654Y-60302324D01*
X82952625Y-60300210D01*
X82948206Y-60299120D01*
X82948204Y-60299120D01*
X82791882Y-60260591D01*
X82787456Y-60259500D01*
X82617344Y-60259500D01*
X82612918Y-60260590D01*
X82612917Y-60260591D01*
X82456595Y-60299120D01*
X82456590Y-60299121D01*
X82452175Y-60300210D01*
X82448148Y-60302323D01*
X82448144Y-60302325D01*
X82305578Y-60377150D01*
X82305572Y-60377153D01*
X82301548Y-60379266D01*
X82298146Y-60382279D01*
X82298140Y-60382284D01*
X82177626Y-60489050D01*
X82177622Y-60489054D01*
X82174217Y-60492071D01*
X82171632Y-60495814D01*
X82171630Y-60495818D01*
X82080167Y-60628323D01*
X82080162Y-60628331D01*
X82077582Y-60632070D01*
X82075968Y-60636323D01*
X82075967Y-60636327D01*
X82021542Y-60779836D01*
X82017260Y-60791128D01*
X82016711Y-60795642D01*
X82016710Y-60795650D01*
X81998753Y-60943542D01*
X81996755Y-60960000D01*
X81401445Y-60960000D01*
X81380940Y-60791128D01*
X81320618Y-60632070D01*
X81306234Y-60611232D01*
X81243709Y-60520649D01*
X81223983Y-60492071D01*
X81096652Y-60379266D01*
X81092623Y-60377151D01*
X81092621Y-60377150D01*
X80950055Y-60302325D01*
X80950054Y-60302324D01*
X80946025Y-60300210D01*
X80941606Y-60299120D01*
X80941604Y-60299120D01*
X80785282Y-60260591D01*
X80780856Y-60259500D01*
X80610744Y-60259500D01*
X80606318Y-60260590D01*
X80606317Y-60260591D01*
X80449995Y-60299120D01*
X80449990Y-60299121D01*
X80445575Y-60300210D01*
X80441548Y-60302323D01*
X80441544Y-60302325D01*
X80298978Y-60377150D01*
X80298972Y-60377153D01*
X80294948Y-60379266D01*
X80291546Y-60382279D01*
X80291540Y-60382284D01*
X80171026Y-60489050D01*
X80171022Y-60489054D01*
X80167617Y-60492071D01*
X80165032Y-60495814D01*
X80165030Y-60495818D01*
X80073567Y-60628323D01*
X80073562Y-60628331D01*
X80070982Y-60632070D01*
X80069368Y-60636323D01*
X80069367Y-60636327D01*
X80014942Y-60779836D01*
X80010660Y-60791128D01*
X80010111Y-60795642D01*
X80010110Y-60795650D01*
X79992153Y-60943542D01*
X79990155Y-60960000D01*
X66421500Y-60960000D01*
X66421500Y-59478133D01*
X67026127Y-59478133D01*
X67052533Y-59585268D01*
X67055738Y-59593719D01*
X67130393Y-59735963D01*
X67135527Y-59743401D01*
X67242052Y-59863642D01*
X67248820Y-59869638D01*
X67381026Y-59960894D01*
X67389030Y-59965094D01*
X67539228Y-60022056D01*
X67548012Y-60024222D01*
X67667456Y-60038725D01*
X67671998Y-60039000D01*
X67905084Y-60039000D01*
X67912904Y-60036904D01*
X67915000Y-60029084D01*
X68169000Y-60029084D01*
X68171095Y-60036904D01*
X68178916Y-60039000D01*
X68412002Y-60039000D01*
X68416543Y-60038725D01*
X68535987Y-60024222D01*
X68544771Y-60022056D01*
X68694969Y-59965094D01*
X68702973Y-59960894D01*
X68835179Y-59869638D01*
X68841947Y-59863642D01*
X68948472Y-59743401D01*
X68953606Y-59735963D01*
X69028261Y-59593719D01*
X69031466Y-59585268D01*
X69057872Y-59478133D01*
X69057354Y-59469555D01*
X69049153Y-59467000D01*
X68178916Y-59467000D01*
X68171095Y-59469095D01*
X68169000Y-59476916D01*
X68169000Y-60029084D01*
X67915000Y-60029084D01*
X67915000Y-59476916D01*
X67912904Y-59469095D01*
X67905084Y-59467000D01*
X67034847Y-59467000D01*
X67026645Y-59469555D01*
X67026127Y-59478133D01*
X66421500Y-59478133D01*
X66421500Y-59201866D01*
X67026127Y-59201866D01*
X67026645Y-59210444D01*
X67034847Y-59213000D01*
X67905084Y-59213000D01*
X67912904Y-59210904D01*
X67915000Y-59203084D01*
X68169000Y-59203084D01*
X68171095Y-59210904D01*
X68178916Y-59213000D01*
X69049153Y-59213000D01*
X69057354Y-59210444D01*
X69057872Y-59201866D01*
X69031466Y-59094731D01*
X69028261Y-59086280D01*
X68953606Y-58944036D01*
X68948472Y-58936598D01*
X68841947Y-58816357D01*
X68835179Y-58810361D01*
X68702973Y-58719105D01*
X68694969Y-58714905D01*
X68544771Y-58657943D01*
X68535987Y-58655777D01*
X68416543Y-58641274D01*
X68412002Y-58641000D01*
X68178916Y-58641000D01*
X68171095Y-58643095D01*
X68169000Y-58650916D01*
X68169000Y-59203084D01*
X67915000Y-59203084D01*
X67915000Y-58650916D01*
X67912904Y-58643095D01*
X67905084Y-58641000D01*
X67671998Y-58641000D01*
X67667456Y-58641274D01*
X67548012Y-58655777D01*
X67539228Y-58657943D01*
X67389030Y-58714905D01*
X67381026Y-58719105D01*
X67248820Y-58810361D01*
X67242052Y-58816357D01*
X67135527Y-58936598D01*
X67130393Y-58944036D01*
X67055738Y-59086280D01*
X67052533Y-59094731D01*
X67026127Y-59201866D01*
X66421500Y-59201866D01*
X66421500Y-58530266D01*
X70013000Y-58530266D01*
X70013254Y-58534638D01*
X70027312Y-58654910D01*
X70029320Y-58663384D01*
X70084606Y-58815280D01*
X70088516Y-58823065D01*
X70177342Y-58958118D01*
X70182940Y-58964790D01*
X70300517Y-59075718D01*
X70307507Y-59080922D01*
X70447492Y-59161743D01*
X70455493Y-59165194D01*
X70609326Y-59211248D01*
X70612789Y-59210496D01*
X70615000Y-59202552D01*
X70615000Y-59196818D01*
X70869000Y-59196818D01*
X70871435Y-59204951D01*
X70879866Y-59205937D01*
X70948184Y-59193890D01*
X70956534Y-59191390D01*
X71104950Y-59127369D01*
X71112501Y-59123009D01*
X71242155Y-59026485D01*
X71248495Y-59020504D01*
X71352397Y-58896678D01*
X71357184Y-58889401D01*
X71429730Y-58744952D01*
X71432712Y-58736758D01*
X71469988Y-58579475D01*
X71471000Y-58570821D01*
X71471000Y-58476916D01*
X71468904Y-58469095D01*
X71461084Y-58467000D01*
X70878916Y-58467000D01*
X70871095Y-58469095D01*
X70869000Y-58476916D01*
X70869000Y-59196818D01*
X70615000Y-59196818D01*
X70615000Y-58476916D01*
X70612904Y-58469095D01*
X70605084Y-58467000D01*
X70022916Y-58467000D01*
X70015095Y-58469095D01*
X70013000Y-58476916D01*
X70013000Y-58530266D01*
X66421500Y-58530266D01*
X66421500Y-58293000D01*
X80269555Y-58293000D01*
X80270104Y-58297521D01*
X80289510Y-58457349D01*
X80289511Y-58457355D01*
X80290060Y-58461872D01*
X80350382Y-58620930D01*
X80352964Y-58624671D01*
X80352967Y-58624676D01*
X80415249Y-58714905D01*
X80447017Y-58760929D01*
X80450426Y-58763949D01*
X80509582Y-58816357D01*
X80574348Y-58873734D01*
X80674425Y-58926259D01*
X80705987Y-58957707D01*
X80714259Y-59001488D01*
X80696346Y-59042285D01*
X80617848Y-59132877D01*
X80617845Y-59132881D01*
X80614318Y-59136952D01*
X80612081Y-59141850D01*
X80612078Y-59141855D01*
X80562263Y-59250935D01*
X80562260Y-59250942D01*
X80560026Y-59255836D01*
X80559259Y-59261167D01*
X80559259Y-59261169D01*
X80542193Y-59379865D01*
X80541426Y-59385200D01*
X80542193Y-59390535D01*
X80548918Y-59437311D01*
X80560026Y-59514564D01*
X80562261Y-59519459D01*
X80562263Y-59519464D01*
X80610017Y-59624030D01*
X80614318Y-59633448D01*
X80617847Y-59637521D01*
X80617848Y-59637522D01*
X80621494Y-59641730D01*
X80699905Y-59732221D01*
X80704435Y-59735132D01*
X80704436Y-59735133D01*
X80743827Y-59760448D01*
X80809852Y-59802879D01*
X80935253Y-59839700D01*
X81060563Y-59839700D01*
X81065947Y-59839700D01*
X81191348Y-59802879D01*
X81301295Y-59732221D01*
X81386882Y-59633448D01*
X81417376Y-59566675D01*
X84772194Y-59566675D01*
X84772961Y-59572010D01*
X84788812Y-59682258D01*
X84790794Y-59696039D01*
X84793029Y-59700934D01*
X84793031Y-59700939D01*
X84840278Y-59804395D01*
X84845086Y-59814923D01*
X84930673Y-59913696D01*
X84935203Y-59916607D01*
X84935204Y-59916608D01*
X84970388Y-59939219D01*
X85040620Y-59984354D01*
X85166021Y-60021175D01*
X85291331Y-60021175D01*
X85296715Y-60021175D01*
X85301879Y-60019658D01*
X85307218Y-60018891D01*
X85307570Y-60021344D01*
X85342850Y-60022152D01*
X85379609Y-60049637D01*
X85393365Y-60092644D01*
X85392826Y-60096400D01*
X85393593Y-60101735D01*
X85394313Y-60106746D01*
X85411426Y-60225764D01*
X85413661Y-60230659D01*
X85413663Y-60230664D01*
X85463478Y-60339744D01*
X85465718Y-60344648D01*
X85551305Y-60443421D01*
X85555835Y-60446332D01*
X85555836Y-60446333D01*
X85606278Y-60478750D01*
X85661252Y-60514079D01*
X85786653Y-60550900D01*
X85911963Y-60550900D01*
X85917347Y-60550900D01*
X86042748Y-60514079D01*
X86152695Y-60443421D01*
X86238282Y-60344648D01*
X86292574Y-60225764D01*
X86310447Y-60101454D01*
X93087556Y-60101454D01*
X93106156Y-60230818D01*
X93108391Y-60235713D01*
X93108393Y-60235718D01*
X93158208Y-60344798D01*
X93160448Y-60349702D01*
X93246035Y-60448475D01*
X93355982Y-60519133D01*
X93481383Y-60555954D01*
X93606693Y-60555954D01*
X93612077Y-60555954D01*
X93737478Y-60519133D01*
X93847425Y-60448475D01*
X93933012Y-60349702D01*
X93987304Y-60230818D01*
X94005904Y-60101454D01*
X93987304Y-59972090D01*
X93984842Y-59966700D01*
X93940516Y-59869638D01*
X93933012Y-59853206D01*
X93847425Y-59754433D01*
X93842895Y-59751521D01*
X93842893Y-59751520D01*
X93742008Y-59686686D01*
X93742006Y-59686685D01*
X93737478Y-59683775D01*
X93720266Y-59678721D01*
X93617241Y-59648470D01*
X93617239Y-59648469D01*
X93612077Y-59646954D01*
X93481383Y-59646954D01*
X93476221Y-59648469D01*
X93476218Y-59648470D01*
X93361147Y-59682258D01*
X93361144Y-59682259D01*
X93355982Y-59683775D01*
X93351455Y-59686683D01*
X93351451Y-59686686D01*
X93250566Y-59751520D01*
X93250560Y-59751524D01*
X93246035Y-59754433D01*
X93242508Y-59758502D01*
X93242507Y-59758504D01*
X93163978Y-59849131D01*
X93163975Y-59849135D01*
X93160448Y-59853206D01*
X93158211Y-59858104D01*
X93158208Y-59858109D01*
X93108393Y-59967189D01*
X93108390Y-59967196D01*
X93106156Y-59972090D01*
X93105389Y-59977421D01*
X93105389Y-59977423D01*
X93099074Y-60021344D01*
X93087556Y-60101454D01*
X86310447Y-60101454D01*
X86311174Y-60096400D01*
X86292574Y-59967036D01*
X86281200Y-59942131D01*
X86240521Y-59853055D01*
X86238282Y-59848152D01*
X86152695Y-59749379D01*
X86148165Y-59746467D01*
X86148163Y-59746466D01*
X86047278Y-59681632D01*
X86047276Y-59681631D01*
X86042748Y-59678721D01*
X86028986Y-59674680D01*
X85922511Y-59643416D01*
X85922509Y-59643415D01*
X85917347Y-59641900D01*
X85786653Y-59641900D01*
X85781487Y-59643416D01*
X85776150Y-59644184D01*
X85775797Y-59641730D01*
X85740518Y-59640923D01*
X85703759Y-59613438D01*
X85690001Y-59570430D01*
X85690542Y-59566675D01*
X85684471Y-59524452D01*
X89888626Y-59524452D01*
X89889393Y-59529787D01*
X89905706Y-59643248D01*
X89907226Y-59653816D01*
X89909461Y-59658711D01*
X89909463Y-59658716D01*
X89957783Y-59764522D01*
X89961518Y-59772700D01*
X89965047Y-59776773D01*
X89965048Y-59776774D01*
X89968661Y-59780944D01*
X90047105Y-59871473D01*
X90051635Y-59874384D01*
X90051636Y-59874385D01*
X90067564Y-59884621D01*
X90157052Y-59942131D01*
X90282453Y-59978952D01*
X90407763Y-59978952D01*
X90413147Y-59978952D01*
X90538548Y-59942131D01*
X90648495Y-59871473D01*
X90734082Y-59772700D01*
X90788374Y-59653816D01*
X90806974Y-59524452D01*
X90805979Y-59517535D01*
X90799081Y-59469555D01*
X90788374Y-59395088D01*
X90788334Y-59395000D01*
X102265826Y-59395000D01*
X102266593Y-59400335D01*
X102276545Y-59469555D01*
X102284426Y-59524364D01*
X102286661Y-59529259D01*
X102286663Y-59529264D01*
X102334615Y-59634264D01*
X102338718Y-59643248D01*
X102424305Y-59742021D01*
X102428835Y-59744932D01*
X102428836Y-59744933D01*
X102464412Y-59767796D01*
X102534252Y-59812679D01*
X102659653Y-59849500D01*
X102784963Y-59849500D01*
X102790347Y-59849500D01*
X102915748Y-59812679D01*
X103025695Y-59742021D01*
X103111282Y-59643248D01*
X103165574Y-59524364D01*
X103169077Y-59500000D01*
X105635826Y-59500000D01*
X105636593Y-59505335D01*
X105645850Y-59569721D01*
X105654426Y-59629364D01*
X105656661Y-59634259D01*
X105656663Y-59634264D01*
X105705874Y-59742021D01*
X105708718Y-59748248D01*
X105712247Y-59752321D01*
X105712248Y-59752322D01*
X105714077Y-59754433D01*
X105794305Y-59847021D01*
X105798835Y-59849932D01*
X105798836Y-59849933D01*
X105811558Y-59858109D01*
X105904252Y-59917679D01*
X106029653Y-59954500D01*
X106154963Y-59954500D01*
X106160347Y-59954500D01*
X106285748Y-59917679D01*
X106395695Y-59847021D01*
X106481282Y-59748248D01*
X106535574Y-59629364D01*
X106554174Y-59500000D01*
X106905826Y-59500000D01*
X106906593Y-59505335D01*
X106915850Y-59569721D01*
X106924426Y-59629364D01*
X106926661Y-59634259D01*
X106926663Y-59634264D01*
X106975874Y-59742021D01*
X106978718Y-59748248D01*
X106982247Y-59752321D01*
X106982248Y-59752322D01*
X106984077Y-59754433D01*
X107064305Y-59847021D01*
X107068835Y-59849932D01*
X107068836Y-59849933D01*
X107081558Y-59858109D01*
X107174252Y-59917679D01*
X107299653Y-59954500D01*
X107424963Y-59954500D01*
X107430347Y-59954500D01*
X107555748Y-59917679D01*
X107665695Y-59847021D01*
X107751282Y-59748248D01*
X107805574Y-59629364D01*
X107818768Y-59537600D01*
X108202026Y-59537600D01*
X108202793Y-59542935D01*
X108217678Y-59646464D01*
X108220626Y-59666964D01*
X108222861Y-59671859D01*
X108222863Y-59671864D01*
X108270774Y-59776774D01*
X108274918Y-59785848D01*
X108360505Y-59884621D01*
X108365035Y-59887532D01*
X108365036Y-59887533D01*
X108407591Y-59914881D01*
X108470452Y-59955279D01*
X108595853Y-59992100D01*
X108721163Y-59992100D01*
X108726547Y-59992100D01*
X108851948Y-59955279D01*
X108961895Y-59884621D01*
X109047482Y-59785848D01*
X109101774Y-59666964D01*
X109120374Y-59537600D01*
X109116722Y-59512200D01*
X109446626Y-59512200D01*
X109447393Y-59517535D01*
X109455225Y-59572010D01*
X109465226Y-59641564D01*
X109467461Y-59646459D01*
X109467463Y-59646464D01*
X109515807Y-59752322D01*
X109519518Y-59760448D01*
X109523047Y-59764521D01*
X109523048Y-59764522D01*
X109534856Y-59778149D01*
X109605105Y-59859221D01*
X109609635Y-59862132D01*
X109609636Y-59862133D01*
X109649160Y-59887533D01*
X109715052Y-59929879D01*
X109840453Y-59966700D01*
X109965763Y-59966700D01*
X109971147Y-59966700D01*
X110096548Y-59929879D01*
X110206495Y-59859221D01*
X110292082Y-59760448D01*
X110346374Y-59641564D01*
X110363930Y-59519464D01*
X110364207Y-59517535D01*
X110364974Y-59512200D01*
X110346374Y-59382836D01*
X110340802Y-59370636D01*
X110303682Y-59289352D01*
X110292082Y-59263952D01*
X110206495Y-59165179D01*
X110201965Y-59162267D01*
X110201963Y-59162266D01*
X110101078Y-59097432D01*
X110101076Y-59097431D01*
X110096548Y-59094521D01*
X110054999Y-59082321D01*
X109976311Y-59059216D01*
X109976309Y-59059215D01*
X109971147Y-59057700D01*
X109840453Y-59057700D01*
X109835291Y-59059215D01*
X109835288Y-59059216D01*
X109720217Y-59093004D01*
X109720214Y-59093005D01*
X109715052Y-59094521D01*
X109710525Y-59097429D01*
X109710521Y-59097432D01*
X109609636Y-59162266D01*
X109609630Y-59162270D01*
X109605105Y-59165179D01*
X109601578Y-59169248D01*
X109601577Y-59169250D01*
X109523048Y-59259877D01*
X109523045Y-59259881D01*
X109519518Y-59263952D01*
X109517281Y-59268850D01*
X109517278Y-59268855D01*
X109467463Y-59377935D01*
X109467460Y-59377942D01*
X109465226Y-59382836D01*
X109464459Y-59388167D01*
X109464459Y-59388169D01*
X109451699Y-59476916D01*
X109446626Y-59512200D01*
X109116722Y-59512200D01*
X109101774Y-59408236D01*
X109095729Y-59395000D01*
X109049721Y-59294255D01*
X109047482Y-59289352D01*
X108961895Y-59190579D01*
X108957365Y-59187667D01*
X108957363Y-59187666D01*
X108856478Y-59122832D01*
X108856476Y-59122831D01*
X108851948Y-59119921D01*
X108825568Y-59112175D01*
X108731711Y-59084616D01*
X108731709Y-59084615D01*
X108726547Y-59083100D01*
X108595853Y-59083100D01*
X108590691Y-59084615D01*
X108590688Y-59084616D01*
X108475617Y-59118404D01*
X108475614Y-59118405D01*
X108470452Y-59119921D01*
X108465925Y-59122829D01*
X108465921Y-59122832D01*
X108365036Y-59187666D01*
X108365030Y-59187670D01*
X108360505Y-59190579D01*
X108356978Y-59194648D01*
X108356977Y-59194650D01*
X108278448Y-59285277D01*
X108278445Y-59285281D01*
X108274918Y-59289352D01*
X108272681Y-59294250D01*
X108272678Y-59294255D01*
X108222863Y-59403335D01*
X108222860Y-59403342D01*
X108220626Y-59408236D01*
X108219859Y-59413567D01*
X108219859Y-59413569D01*
X108203149Y-59529787D01*
X108202026Y-59537600D01*
X107818768Y-59537600D01*
X107824174Y-59500000D01*
X107805574Y-59370636D01*
X107751282Y-59251752D01*
X107665695Y-59152979D01*
X107661165Y-59150067D01*
X107661163Y-59150066D01*
X107560278Y-59085232D01*
X107560276Y-59085231D01*
X107555748Y-59082321D01*
X107550582Y-59080804D01*
X107435511Y-59047016D01*
X107435509Y-59047015D01*
X107430347Y-59045500D01*
X107299653Y-59045500D01*
X107294491Y-59047015D01*
X107294488Y-59047016D01*
X107179417Y-59080804D01*
X107179414Y-59080805D01*
X107174252Y-59082321D01*
X107169725Y-59085229D01*
X107169721Y-59085232D01*
X107068836Y-59150066D01*
X107068830Y-59150070D01*
X107064305Y-59152979D01*
X107060778Y-59157048D01*
X107060777Y-59157050D01*
X106982248Y-59247677D01*
X106982245Y-59247681D01*
X106978718Y-59251752D01*
X106976481Y-59256650D01*
X106976478Y-59256655D01*
X106926663Y-59365735D01*
X106926660Y-59365742D01*
X106924426Y-59370636D01*
X106923659Y-59375967D01*
X106923659Y-59375969D01*
X106910203Y-59469555D01*
X106905826Y-59500000D01*
X106554174Y-59500000D01*
X106535574Y-59370636D01*
X106481282Y-59251752D01*
X106395695Y-59152979D01*
X106391165Y-59150067D01*
X106391163Y-59150066D01*
X106290278Y-59085232D01*
X106290276Y-59085231D01*
X106285748Y-59082321D01*
X106280582Y-59080804D01*
X106165511Y-59047016D01*
X106165509Y-59047015D01*
X106160347Y-59045500D01*
X106029653Y-59045500D01*
X106024491Y-59047015D01*
X106024488Y-59047016D01*
X105909417Y-59080804D01*
X105909414Y-59080805D01*
X105904252Y-59082321D01*
X105899725Y-59085229D01*
X105899721Y-59085232D01*
X105798836Y-59150066D01*
X105798830Y-59150070D01*
X105794305Y-59152979D01*
X105790778Y-59157048D01*
X105790777Y-59157050D01*
X105712248Y-59247677D01*
X105712245Y-59247681D01*
X105708718Y-59251752D01*
X105706481Y-59256650D01*
X105706478Y-59256655D01*
X105656663Y-59365735D01*
X105656660Y-59365742D01*
X105654426Y-59370636D01*
X105653659Y-59375967D01*
X105653659Y-59375969D01*
X105640203Y-59469555D01*
X105635826Y-59500000D01*
X103169077Y-59500000D01*
X103184174Y-59395000D01*
X103165574Y-59265636D01*
X103159233Y-59251752D01*
X103113521Y-59151655D01*
X103111282Y-59146752D01*
X103025695Y-59047979D01*
X103021165Y-59045067D01*
X103021163Y-59045066D01*
X102920278Y-58980232D01*
X102920276Y-58980231D01*
X102915748Y-58977321D01*
X102897606Y-58971994D01*
X102795511Y-58942016D01*
X102795509Y-58942015D01*
X102790347Y-58940500D01*
X102659653Y-58940500D01*
X102654491Y-58942015D01*
X102654488Y-58942016D01*
X102539417Y-58975804D01*
X102539414Y-58975805D01*
X102534252Y-58977321D01*
X102529725Y-58980229D01*
X102529721Y-58980232D01*
X102428836Y-59045066D01*
X102428830Y-59045070D01*
X102424305Y-59047979D01*
X102420778Y-59052048D01*
X102420777Y-59052050D01*
X102342248Y-59142677D01*
X102342245Y-59142681D01*
X102338718Y-59146752D01*
X102336481Y-59151650D01*
X102336478Y-59151655D01*
X102286663Y-59260735D01*
X102286660Y-59260742D01*
X102284426Y-59265636D01*
X102283659Y-59270967D01*
X102283659Y-59270969D01*
X102276836Y-59318427D01*
X102265826Y-59395000D01*
X90788334Y-59395000D01*
X90785897Y-59389665D01*
X90750757Y-59312718D01*
X90734082Y-59276204D01*
X90648495Y-59177431D01*
X90643965Y-59174519D01*
X90643963Y-59174518D01*
X90543078Y-59109684D01*
X90543076Y-59109683D01*
X90538548Y-59106773D01*
X90528491Y-59103820D01*
X90418311Y-59071468D01*
X90418309Y-59071467D01*
X90413147Y-59069952D01*
X90282453Y-59069952D01*
X90277291Y-59071467D01*
X90277288Y-59071468D01*
X90162217Y-59105256D01*
X90162214Y-59105257D01*
X90157052Y-59106773D01*
X90152525Y-59109681D01*
X90152521Y-59109684D01*
X90051636Y-59174518D01*
X90051630Y-59174522D01*
X90047105Y-59177431D01*
X90043578Y-59181500D01*
X90043577Y-59181502D01*
X89965048Y-59272129D01*
X89965045Y-59272133D01*
X89961518Y-59276204D01*
X89959281Y-59281102D01*
X89959278Y-59281107D01*
X89909463Y-59390187D01*
X89909460Y-59390194D01*
X89907226Y-59395088D01*
X89906459Y-59400419D01*
X89906459Y-59400421D01*
X89889406Y-59519030D01*
X89888626Y-59524452D01*
X85684471Y-59524452D01*
X85671942Y-59437311D01*
X85661099Y-59413569D01*
X85619889Y-59323330D01*
X85617650Y-59318427D01*
X85532063Y-59219654D01*
X85527533Y-59216742D01*
X85527531Y-59216741D01*
X85426646Y-59151907D01*
X85426644Y-59151906D01*
X85422116Y-59148996D01*
X85414474Y-59146752D01*
X85301879Y-59113691D01*
X85301877Y-59113690D01*
X85296715Y-59112175D01*
X85166021Y-59112175D01*
X85160859Y-59113690D01*
X85160856Y-59113691D01*
X85045785Y-59147479D01*
X85045782Y-59147480D01*
X85040620Y-59148996D01*
X85036093Y-59151904D01*
X85036089Y-59151907D01*
X84935204Y-59216741D01*
X84935198Y-59216745D01*
X84930673Y-59219654D01*
X84927146Y-59223723D01*
X84927145Y-59223725D01*
X84848616Y-59314352D01*
X84848613Y-59314356D01*
X84845086Y-59318427D01*
X84842849Y-59323325D01*
X84842846Y-59323330D01*
X84793031Y-59432410D01*
X84793028Y-59432417D01*
X84790794Y-59437311D01*
X84790027Y-59442642D01*
X84790027Y-59442644D01*
X84779259Y-59517535D01*
X84772194Y-59566675D01*
X81417376Y-59566675D01*
X81441174Y-59514564D01*
X81459774Y-59385200D01*
X81441174Y-59255836D01*
X81420654Y-59210904D01*
X81393712Y-59151907D01*
X81386882Y-59136952D01*
X81301295Y-59038179D01*
X81296762Y-59035266D01*
X81294025Y-59032894D01*
X81269662Y-58991573D01*
X81275182Y-58943923D01*
X81308345Y-58909269D01*
X81376052Y-58873734D01*
X81503383Y-58760929D01*
X81552996Y-58689053D01*
X94170879Y-58689053D01*
X94171646Y-58694388D01*
X94187978Y-58807981D01*
X94189479Y-58818417D01*
X94191714Y-58823312D01*
X94191716Y-58823317D01*
X94241531Y-58932397D01*
X94243771Y-58937301D01*
X94247300Y-58941374D01*
X94247301Y-58941375D01*
X94249509Y-58943923D01*
X94329358Y-59036074D01*
X94333888Y-59038985D01*
X94333889Y-59038986D01*
X94343350Y-59045066D01*
X94439305Y-59106732D01*
X94564706Y-59143553D01*
X94690016Y-59143553D01*
X94695400Y-59143553D01*
X94820801Y-59106732D01*
X94930748Y-59036074D01*
X95016335Y-58937301D01*
X95070627Y-58818417D01*
X95089227Y-58689053D01*
X95070627Y-58559689D01*
X95055615Y-58526818D01*
X95023890Y-58457349D01*
X95016335Y-58440805D01*
X94930748Y-58342032D01*
X94926218Y-58339120D01*
X94926216Y-58339119D01*
X94825331Y-58274285D01*
X94825329Y-58274284D01*
X94820801Y-58271374D01*
X94815635Y-58269857D01*
X94700564Y-58236069D01*
X94700562Y-58236068D01*
X94695400Y-58234553D01*
X94564706Y-58234553D01*
X94559544Y-58236068D01*
X94559541Y-58236069D01*
X94444470Y-58269857D01*
X94444467Y-58269858D01*
X94439305Y-58271374D01*
X94434778Y-58274282D01*
X94434774Y-58274285D01*
X94333889Y-58339119D01*
X94333883Y-58339123D01*
X94329358Y-58342032D01*
X94325831Y-58346101D01*
X94325830Y-58346103D01*
X94247301Y-58436730D01*
X94247298Y-58436734D01*
X94243771Y-58440805D01*
X94241534Y-58445703D01*
X94241531Y-58445708D01*
X94191716Y-58554788D01*
X94191713Y-58554795D01*
X94189479Y-58559689D01*
X94170879Y-58689053D01*
X81552996Y-58689053D01*
X81600018Y-58620930D01*
X81660340Y-58461872D01*
X81680845Y-58293000D01*
X81660340Y-58124128D01*
X81655760Y-58112051D01*
X89105081Y-58112051D01*
X89123681Y-58241415D01*
X89125916Y-58246310D01*
X89125918Y-58246315D01*
X89175733Y-58355395D01*
X89177973Y-58360299D01*
X89263560Y-58459072D01*
X89373507Y-58529730D01*
X89498908Y-58566551D01*
X89624218Y-58566551D01*
X89629602Y-58566551D01*
X89755003Y-58529730D01*
X89864950Y-58459072D01*
X89950537Y-58360299D01*
X90004829Y-58241415D01*
X90023429Y-58112051D01*
X90004829Y-57982687D01*
X89995072Y-57961323D01*
X89956048Y-57875871D01*
X89950537Y-57863803D01*
X89864950Y-57765030D01*
X89860420Y-57762118D01*
X89860418Y-57762117D01*
X89759533Y-57697283D01*
X89759531Y-57697282D01*
X89755003Y-57694372D01*
X89742375Y-57690664D01*
X89634766Y-57659067D01*
X89634764Y-57659066D01*
X89629602Y-57657551D01*
X89498908Y-57657551D01*
X89493746Y-57659066D01*
X89493743Y-57659067D01*
X89378672Y-57692855D01*
X89378669Y-57692856D01*
X89373507Y-57694372D01*
X89368980Y-57697280D01*
X89368976Y-57697283D01*
X89268091Y-57762117D01*
X89268085Y-57762121D01*
X89263560Y-57765030D01*
X89260033Y-57769099D01*
X89260032Y-57769101D01*
X89181503Y-57859728D01*
X89181500Y-57859732D01*
X89177973Y-57863803D01*
X89175736Y-57868701D01*
X89175733Y-57868706D01*
X89125918Y-57977786D01*
X89125915Y-57977793D01*
X89123681Y-57982687D01*
X89122914Y-57988018D01*
X89122914Y-57988020D01*
X89118910Y-58015870D01*
X89105081Y-58112051D01*
X81655760Y-58112051D01*
X81600018Y-57965070D01*
X81584950Y-57943241D01*
X81527305Y-57859728D01*
X81503383Y-57825071D01*
X81435783Y-57765183D01*
X81379459Y-57715284D01*
X81379457Y-57715282D01*
X81376052Y-57712266D01*
X81372023Y-57710151D01*
X81372021Y-57710150D01*
X81229455Y-57635325D01*
X81229454Y-57635324D01*
X81225425Y-57633210D01*
X81221006Y-57632120D01*
X81221004Y-57632120D01*
X81064682Y-57593591D01*
X81060256Y-57592500D01*
X80890144Y-57592500D01*
X80885718Y-57593590D01*
X80885717Y-57593591D01*
X80729395Y-57632120D01*
X80729390Y-57632121D01*
X80724975Y-57633210D01*
X80720948Y-57635323D01*
X80720944Y-57635325D01*
X80578378Y-57710150D01*
X80578372Y-57710153D01*
X80574348Y-57712266D01*
X80570946Y-57715279D01*
X80570940Y-57715284D01*
X80450426Y-57822050D01*
X80450422Y-57822054D01*
X80447017Y-57825071D01*
X80444432Y-57828814D01*
X80444430Y-57828818D01*
X80352967Y-57961323D01*
X80352962Y-57961331D01*
X80350382Y-57965070D01*
X80348768Y-57969323D01*
X80348767Y-57969327D01*
X80296663Y-58106716D01*
X80290060Y-58124128D01*
X80289511Y-58128642D01*
X80289510Y-58128650D01*
X80272365Y-58269857D01*
X80269555Y-58293000D01*
X66421500Y-58293000D01*
X66421500Y-58203084D01*
X70013000Y-58203084D01*
X70015095Y-58210904D01*
X70022916Y-58213000D01*
X70605084Y-58213000D01*
X70612904Y-58210904D01*
X70615000Y-58203084D01*
X70869000Y-58203084D01*
X70871095Y-58210904D01*
X70878916Y-58213000D01*
X71461084Y-58213000D01*
X71468904Y-58210904D01*
X71471000Y-58203084D01*
X71471000Y-58149734D01*
X71470745Y-58145361D01*
X71456687Y-58025089D01*
X71454679Y-58016615D01*
X71399393Y-57864719D01*
X71395483Y-57856934D01*
X71306657Y-57721881D01*
X71301059Y-57715209D01*
X71183482Y-57604281D01*
X71176492Y-57599077D01*
X71102574Y-57556400D01*
X90244226Y-57556400D01*
X90244993Y-57561735D01*
X90258769Y-57657551D01*
X90262826Y-57685764D01*
X90265061Y-57690659D01*
X90265063Y-57690664D01*
X90314878Y-57799744D01*
X90317118Y-57804648D01*
X90402705Y-57903421D01*
X90512652Y-57974079D01*
X90638053Y-58010900D01*
X90763363Y-58010900D01*
X90768747Y-58010900D01*
X90894148Y-57974079D01*
X91004095Y-57903421D01*
X91089682Y-57804648D01*
X91143974Y-57685764D01*
X91162574Y-57556400D01*
X91143974Y-57427036D01*
X91089682Y-57308152D01*
X91021855Y-57229875D01*
X91473529Y-57229875D01*
X91474296Y-57235210D01*
X91487811Y-57329211D01*
X91492129Y-57359239D01*
X91494364Y-57364134D01*
X91494366Y-57364139D01*
X91532724Y-57448131D01*
X91546421Y-57478123D01*
X91549950Y-57482196D01*
X91549951Y-57482197D01*
X91564201Y-57498642D01*
X91632008Y-57576896D01*
X91636538Y-57579807D01*
X91636539Y-57579808D01*
X91657986Y-57593591D01*
X91741955Y-57647554D01*
X91867356Y-57684375D01*
X91992666Y-57684375D01*
X91998050Y-57684375D01*
X92123451Y-57647554D01*
X92233398Y-57576896D01*
X92318985Y-57478123D01*
X92373277Y-57359239D01*
X92391877Y-57229875D01*
X92373277Y-57100511D01*
X92361913Y-57075628D01*
X92321224Y-56986530D01*
X92318985Y-56981627D01*
X92233398Y-56882854D01*
X92228868Y-56879942D01*
X92228866Y-56879941D01*
X92127981Y-56815107D01*
X92127979Y-56815106D01*
X92123451Y-56812196D01*
X92118285Y-56810679D01*
X92003214Y-56776891D01*
X92003212Y-56776890D01*
X91998050Y-56775375D01*
X91867356Y-56775375D01*
X91862194Y-56776890D01*
X91862191Y-56776891D01*
X91747120Y-56810679D01*
X91747117Y-56810680D01*
X91741955Y-56812196D01*
X91737428Y-56815104D01*
X91737424Y-56815107D01*
X91636539Y-56879941D01*
X91636533Y-56879945D01*
X91632008Y-56882854D01*
X91628481Y-56886923D01*
X91628480Y-56886925D01*
X91549951Y-56977552D01*
X91549948Y-56977556D01*
X91546421Y-56981627D01*
X91544184Y-56986525D01*
X91544181Y-56986530D01*
X91494366Y-57095610D01*
X91494363Y-57095617D01*
X91492129Y-57100511D01*
X91491362Y-57105842D01*
X91491362Y-57105844D01*
X91476895Y-57206466D01*
X91473529Y-57229875D01*
X91021855Y-57229875D01*
X91004095Y-57209379D01*
X90999565Y-57206467D01*
X90999563Y-57206466D01*
X90898678Y-57141632D01*
X90898676Y-57141631D01*
X90894148Y-57138721D01*
X90888982Y-57137204D01*
X90773911Y-57103416D01*
X90773909Y-57103415D01*
X90768747Y-57101900D01*
X90638053Y-57101900D01*
X90632891Y-57103415D01*
X90632888Y-57103416D01*
X90517817Y-57137204D01*
X90517814Y-57137205D01*
X90512652Y-57138721D01*
X90508125Y-57141629D01*
X90508121Y-57141632D01*
X90407236Y-57206466D01*
X90407230Y-57206470D01*
X90402705Y-57209379D01*
X90399178Y-57213448D01*
X90399177Y-57213450D01*
X90320648Y-57304077D01*
X90320645Y-57304081D01*
X90317118Y-57308152D01*
X90314881Y-57313050D01*
X90314878Y-57313055D01*
X90265063Y-57422135D01*
X90265060Y-57422142D01*
X90262826Y-57427036D01*
X90262059Y-57432367D01*
X90262059Y-57432369D01*
X90249710Y-57518256D01*
X90244226Y-57556400D01*
X71102574Y-57556400D01*
X71036507Y-57518256D01*
X71028506Y-57514805D01*
X70874673Y-57468751D01*
X70871210Y-57469503D01*
X70869000Y-57477448D01*
X70869000Y-58203084D01*
X70615000Y-58203084D01*
X70615000Y-57483182D01*
X70612564Y-57475048D01*
X70604133Y-57474062D01*
X70535815Y-57486109D01*
X70527465Y-57488609D01*
X70379049Y-57552630D01*
X70371498Y-57556990D01*
X70241844Y-57653514D01*
X70235504Y-57659495D01*
X70131602Y-57783321D01*
X70126815Y-57790598D01*
X70054269Y-57935047D01*
X70051287Y-57943241D01*
X70014011Y-58100524D01*
X70013000Y-58109179D01*
X70013000Y-58203084D01*
X66421500Y-58203084D01*
X66421500Y-57080963D01*
X88054135Y-57080963D01*
X88072735Y-57210327D01*
X88074970Y-57215222D01*
X88074972Y-57215227D01*
X88124787Y-57324307D01*
X88127027Y-57329211D01*
X88212614Y-57427984D01*
X88322561Y-57498642D01*
X88447962Y-57535463D01*
X88573272Y-57535463D01*
X88578656Y-57535463D01*
X88704057Y-57498642D01*
X88814004Y-57427984D01*
X88899591Y-57329211D01*
X88953883Y-57210327D01*
X88972483Y-57080963D01*
X88953883Y-56951599D01*
X88899591Y-56832715D01*
X88814004Y-56733942D01*
X88809474Y-56731030D01*
X88809472Y-56731029D01*
X88708587Y-56666195D01*
X88708585Y-56666194D01*
X88704057Y-56663284D01*
X88698891Y-56661767D01*
X88583820Y-56627979D01*
X88583818Y-56627978D01*
X88578656Y-56626463D01*
X88447962Y-56626463D01*
X88442800Y-56627978D01*
X88442797Y-56627979D01*
X88327726Y-56661767D01*
X88327723Y-56661768D01*
X88322561Y-56663284D01*
X88318034Y-56666192D01*
X88318030Y-56666195D01*
X88217145Y-56731029D01*
X88217139Y-56731033D01*
X88212614Y-56733942D01*
X88209087Y-56738011D01*
X88209086Y-56738013D01*
X88130557Y-56828640D01*
X88130554Y-56828644D01*
X88127027Y-56832715D01*
X88124790Y-56837613D01*
X88124787Y-56837618D01*
X88074972Y-56946698D01*
X88074969Y-56946705D01*
X88072735Y-56951599D01*
X88071968Y-56956930D01*
X88071968Y-56956932D01*
X88055815Y-57069279D01*
X88054135Y-57080963D01*
X66421500Y-57080963D01*
X66421500Y-56427747D01*
X86902479Y-56427747D01*
X86921079Y-56557111D01*
X86923314Y-56562006D01*
X86923316Y-56562011D01*
X86973131Y-56671091D01*
X86975371Y-56675995D01*
X87060958Y-56774768D01*
X87170905Y-56845426D01*
X87296306Y-56882247D01*
X87421616Y-56882247D01*
X87427000Y-56882247D01*
X87552401Y-56845426D01*
X87662348Y-56774768D01*
X87747935Y-56675995D01*
X87802227Y-56557111D01*
X87820827Y-56427747D01*
X87802227Y-56298383D01*
X87747935Y-56179499D01*
X87707126Y-56132403D01*
X89939426Y-56132403D01*
X89958026Y-56261767D01*
X89960261Y-56266662D01*
X89960263Y-56266667D01*
X90010078Y-56375747D01*
X90012318Y-56380651D01*
X90097905Y-56479424D01*
X90102435Y-56482335D01*
X90102436Y-56482336D01*
X90122425Y-56495182D01*
X90207852Y-56550082D01*
X90333253Y-56586903D01*
X90458563Y-56586903D01*
X90463947Y-56586903D01*
X90589348Y-56550082D01*
X90699295Y-56479424D01*
X90784882Y-56380651D01*
X90839174Y-56261767D01*
X90857774Y-56132403D01*
X90839174Y-56003039D01*
X90823240Y-55968149D01*
X90787121Y-55889058D01*
X90784882Y-55884155D01*
X90699295Y-55785382D01*
X90694765Y-55782470D01*
X90694763Y-55782469D01*
X90593878Y-55717635D01*
X90593876Y-55717634D01*
X90589348Y-55714724D01*
X90584182Y-55713207D01*
X90469111Y-55679419D01*
X90469109Y-55679418D01*
X90463947Y-55677903D01*
X90333253Y-55677903D01*
X90328091Y-55679418D01*
X90328088Y-55679419D01*
X90213017Y-55713207D01*
X90213014Y-55713208D01*
X90207852Y-55714724D01*
X90203325Y-55717632D01*
X90203321Y-55717635D01*
X90102436Y-55782469D01*
X90102430Y-55782473D01*
X90097905Y-55785382D01*
X90094378Y-55789451D01*
X90094377Y-55789453D01*
X90015848Y-55880080D01*
X90015845Y-55880084D01*
X90012318Y-55884155D01*
X90010081Y-55889053D01*
X90010078Y-55889058D01*
X89960263Y-55998138D01*
X89960260Y-55998145D01*
X89958026Y-56003039D01*
X89957259Y-56008370D01*
X89957259Y-56008372D01*
X89943675Y-56102848D01*
X89939426Y-56132403D01*
X87707126Y-56132403D01*
X87662348Y-56080726D01*
X87657818Y-56077814D01*
X87657816Y-56077813D01*
X87556931Y-56012979D01*
X87556929Y-56012978D01*
X87552401Y-56010068D01*
X87547235Y-56008551D01*
X87432164Y-55974763D01*
X87432162Y-55974762D01*
X87427000Y-55973247D01*
X87296306Y-55973247D01*
X87291144Y-55974762D01*
X87291141Y-55974763D01*
X87176070Y-56008551D01*
X87176067Y-56008552D01*
X87170905Y-56010068D01*
X87166378Y-56012976D01*
X87166374Y-56012979D01*
X87065489Y-56077813D01*
X87065483Y-56077817D01*
X87060958Y-56080726D01*
X87057431Y-56084795D01*
X87057430Y-56084797D01*
X86978901Y-56175424D01*
X86978898Y-56175428D01*
X86975371Y-56179499D01*
X86973134Y-56184397D01*
X86973131Y-56184402D01*
X86923316Y-56293482D01*
X86923313Y-56293489D01*
X86921079Y-56298383D01*
X86920312Y-56303714D01*
X86920312Y-56303716D01*
X86907325Y-56394040D01*
X86902479Y-56427747D01*
X66421500Y-56427747D01*
X66421500Y-54902400D01*
X83259226Y-54902400D01*
X83259993Y-54907735D01*
X83273507Y-55001729D01*
X83277826Y-55031764D01*
X83280061Y-55036659D01*
X83280063Y-55036664D01*
X83315625Y-55114534D01*
X83332118Y-55150648D01*
X83417705Y-55249421D01*
X83527652Y-55320079D01*
X83653053Y-55356900D01*
X83778363Y-55356900D01*
X83783747Y-55356900D01*
X83909148Y-55320079D01*
X84019095Y-55249421D01*
X84104682Y-55150648D01*
X84158974Y-55031764D01*
X84177574Y-54902400D01*
X84158974Y-54773036D01*
X84104682Y-54654152D01*
X84019095Y-54555379D01*
X84014565Y-54552467D01*
X84014563Y-54552466D01*
X83978550Y-54529322D01*
X86053579Y-54529322D01*
X86054346Y-54534657D01*
X86065993Y-54615666D01*
X86072179Y-54658686D01*
X86074414Y-54663581D01*
X86074416Y-54663586D01*
X86109780Y-54741022D01*
X86126471Y-54777570D01*
X86212058Y-54876343D01*
X86322005Y-54947001D01*
X86447406Y-54983822D01*
X86572716Y-54983822D01*
X86578100Y-54983822D01*
X86640159Y-54965600D01*
X87653426Y-54965600D01*
X87654193Y-54970935D01*
X87668037Y-55067224D01*
X87672026Y-55094964D01*
X87674261Y-55099859D01*
X87674263Y-55099864D01*
X87724045Y-55208871D01*
X87726318Y-55213848D01*
X87811905Y-55312621D01*
X87816435Y-55315532D01*
X87816436Y-55315533D01*
X87853918Y-55339621D01*
X87921852Y-55383279D01*
X88047253Y-55420100D01*
X88172563Y-55420100D01*
X88177947Y-55420100D01*
X88303348Y-55383279D01*
X88413295Y-55312621D01*
X88498882Y-55213848D01*
X88514340Y-55180000D01*
X94725826Y-55180000D01*
X94744426Y-55309364D01*
X94746661Y-55314259D01*
X94746663Y-55314264D01*
X94794304Y-55418583D01*
X94798718Y-55428248D01*
X94802247Y-55432321D01*
X94802248Y-55432322D01*
X94821548Y-55454596D01*
X94884305Y-55527021D01*
X94994252Y-55597679D01*
X95119653Y-55634500D01*
X95244963Y-55634500D01*
X95250347Y-55634500D01*
X95375748Y-55597679D01*
X95485695Y-55527021D01*
X95571282Y-55428248D01*
X95610441Y-55342500D01*
X100040826Y-55342500D01*
X100041593Y-55347835D01*
X100046270Y-55380367D01*
X100059426Y-55471864D01*
X100061661Y-55476759D01*
X100061663Y-55476764D01*
X100111478Y-55585844D01*
X100113718Y-55590748D01*
X100199305Y-55689521D01*
X100309252Y-55760179D01*
X100434653Y-55797000D01*
X100559963Y-55797000D01*
X100565347Y-55797000D01*
X100690748Y-55760179D01*
X100800695Y-55689521D01*
X100811718Y-55676800D01*
X102342155Y-55676800D01*
X102342704Y-55681321D01*
X102362110Y-55841149D01*
X102362111Y-55841155D01*
X102362660Y-55845672D01*
X102364276Y-55849933D01*
X102415106Y-55983964D01*
X102422982Y-56004730D01*
X102425564Y-56008471D01*
X102425567Y-56008476D01*
X102507426Y-56127068D01*
X102519617Y-56144729D01*
X102523026Y-56147749D01*
X102613213Y-56227648D01*
X102646948Y-56257534D01*
X102797575Y-56336590D01*
X102962744Y-56377300D01*
X103128297Y-56377300D01*
X103132856Y-56377300D01*
X103298025Y-56336590D01*
X103448652Y-56257534D01*
X103575983Y-56144729D01*
X103672618Y-56004730D01*
X103690302Y-55958100D01*
X106906626Y-55958100D01*
X106907393Y-55963435D01*
X106914516Y-56012979D01*
X106925226Y-56087464D01*
X106927461Y-56092359D01*
X106927463Y-56092364D01*
X106977278Y-56201444D01*
X106979518Y-56206348D01*
X107065105Y-56305121D01*
X107069635Y-56308032D01*
X107069636Y-56308033D01*
X107110780Y-56334474D01*
X107175052Y-56375779D01*
X107300453Y-56412600D01*
X107425763Y-56412600D01*
X107431147Y-56412600D01*
X107556548Y-56375779D01*
X107666495Y-56305121D01*
X107752082Y-56206348D01*
X107806374Y-56087464D01*
X107824974Y-55958100D01*
X107810093Y-55854600D01*
X110284826Y-55854600D01*
X110285593Y-55859935D01*
X110288489Y-55880080D01*
X110303426Y-55983964D01*
X110305661Y-55988859D01*
X110305663Y-55988864D01*
X110346285Y-56077813D01*
X110357718Y-56102848D01*
X110443305Y-56201621D01*
X110553252Y-56272279D01*
X110678653Y-56309100D01*
X110803963Y-56309100D01*
X110809347Y-56309100D01*
X110934748Y-56272279D01*
X111044695Y-56201621D01*
X111130282Y-56102848D01*
X111184574Y-55983964D01*
X111203174Y-55854600D01*
X111184574Y-55725236D01*
X111179773Y-55714724D01*
X111132521Y-55611255D01*
X111130282Y-55606352D01*
X111044695Y-55507579D01*
X111040165Y-55504667D01*
X111040163Y-55504666D01*
X110939278Y-55439832D01*
X110939276Y-55439831D01*
X110934748Y-55436921D01*
X110929582Y-55435404D01*
X110814511Y-55401616D01*
X110814509Y-55401615D01*
X110809347Y-55400100D01*
X110678653Y-55400100D01*
X110673491Y-55401615D01*
X110673488Y-55401616D01*
X110558417Y-55435404D01*
X110558414Y-55435405D01*
X110553252Y-55436921D01*
X110548725Y-55439829D01*
X110548721Y-55439832D01*
X110447836Y-55504666D01*
X110447830Y-55504670D01*
X110443305Y-55507579D01*
X110439778Y-55511648D01*
X110439777Y-55511650D01*
X110361248Y-55602277D01*
X110361245Y-55602281D01*
X110357718Y-55606352D01*
X110355481Y-55611250D01*
X110355478Y-55611255D01*
X110305663Y-55720335D01*
X110305660Y-55720342D01*
X110303426Y-55725236D01*
X110302659Y-55730567D01*
X110302659Y-55730569D01*
X110298402Y-55760179D01*
X110284826Y-55854600D01*
X107810093Y-55854600D01*
X107806374Y-55828736D01*
X107752082Y-55709852D01*
X107666495Y-55611079D01*
X107661965Y-55608167D01*
X107661963Y-55608166D01*
X107561078Y-55543332D01*
X107561076Y-55543331D01*
X107556548Y-55540421D01*
X107551382Y-55538904D01*
X107436311Y-55505116D01*
X107436309Y-55505115D01*
X107431147Y-55503600D01*
X107300453Y-55503600D01*
X107295291Y-55505115D01*
X107295288Y-55505116D01*
X107180217Y-55538904D01*
X107180214Y-55538905D01*
X107175052Y-55540421D01*
X107170525Y-55543329D01*
X107170521Y-55543332D01*
X107069636Y-55608166D01*
X107069630Y-55608170D01*
X107065105Y-55611079D01*
X107061578Y-55615148D01*
X107061577Y-55615150D01*
X106983048Y-55705777D01*
X106983045Y-55705781D01*
X106979518Y-55709852D01*
X106977281Y-55714750D01*
X106977278Y-55714755D01*
X106927463Y-55823835D01*
X106927460Y-55823842D01*
X106925226Y-55828736D01*
X106906626Y-55958100D01*
X103690302Y-55958100D01*
X103732940Y-55845672D01*
X103753445Y-55676800D01*
X103732940Y-55507928D01*
X103672618Y-55348870D01*
X103663645Y-55335871D01*
X103585781Y-55223066D01*
X103575983Y-55208871D01*
X103508746Y-55149304D01*
X103452059Y-55099084D01*
X103452057Y-55099082D01*
X103448652Y-55096066D01*
X103444623Y-55093951D01*
X103444621Y-55093950D01*
X103302055Y-55019125D01*
X103302054Y-55019124D01*
X103298025Y-55017010D01*
X103293606Y-55015920D01*
X103293604Y-55015920D01*
X103163374Y-54983822D01*
X103132856Y-54976300D01*
X102962744Y-54976300D01*
X102958318Y-54977390D01*
X102958317Y-54977391D01*
X102801995Y-55015920D01*
X102801990Y-55015921D01*
X102797575Y-55017010D01*
X102793548Y-55019123D01*
X102793544Y-55019125D01*
X102650978Y-55093950D01*
X102650972Y-55093953D01*
X102646948Y-55096066D01*
X102643546Y-55099079D01*
X102643540Y-55099084D01*
X102523026Y-55205850D01*
X102523022Y-55205854D01*
X102519617Y-55208871D01*
X102517032Y-55212614D01*
X102517030Y-55212618D01*
X102425567Y-55345123D01*
X102425562Y-55345131D01*
X102422982Y-55348870D01*
X102421368Y-55353123D01*
X102421367Y-55353127D01*
X102373203Y-55480127D01*
X102362660Y-55507928D01*
X102362111Y-55512442D01*
X102362110Y-55512450D01*
X102347475Y-55632983D01*
X102342155Y-55676800D01*
X100811718Y-55676800D01*
X100886282Y-55590748D01*
X100940574Y-55471864D01*
X100959174Y-55342500D01*
X100940574Y-55213136D01*
X100925441Y-55180000D01*
X100888521Y-55099155D01*
X100886282Y-55094252D01*
X100800695Y-54995479D01*
X100796165Y-54992567D01*
X100796163Y-54992566D01*
X100695278Y-54927732D01*
X100695276Y-54927731D01*
X100690748Y-54924821D01*
X100685582Y-54923304D01*
X100570511Y-54889516D01*
X100570509Y-54889515D01*
X100565347Y-54888000D01*
X100434653Y-54888000D01*
X100429491Y-54889515D01*
X100429488Y-54889516D01*
X100314417Y-54923304D01*
X100314414Y-54923305D01*
X100309252Y-54924821D01*
X100304725Y-54927729D01*
X100304721Y-54927732D01*
X100203836Y-54992566D01*
X100203830Y-54992570D01*
X100199305Y-54995479D01*
X100195778Y-54999548D01*
X100195777Y-54999550D01*
X100117248Y-55090177D01*
X100117245Y-55090181D01*
X100113718Y-55094252D01*
X100111481Y-55099150D01*
X100111478Y-55099155D01*
X100061663Y-55208235D01*
X100061660Y-55208242D01*
X100059426Y-55213136D01*
X100040826Y-55342500D01*
X95610441Y-55342500D01*
X95625574Y-55309364D01*
X95644174Y-55180000D01*
X95625574Y-55050636D01*
X95601527Y-54997981D01*
X95573521Y-54936655D01*
X95571282Y-54931752D01*
X95485695Y-54832979D01*
X95481165Y-54830067D01*
X95481163Y-54830066D01*
X95378202Y-54763898D01*
X95350407Y-54731821D01*
X95344367Y-54689809D01*
X95361999Y-54651200D01*
X95397704Y-54628253D01*
X95466148Y-54608157D01*
X95576095Y-54537499D01*
X95618379Y-54488700D01*
X108760826Y-54488700D01*
X108761593Y-54494035D01*
X108778001Y-54608157D01*
X108779426Y-54618064D01*
X108781661Y-54622959D01*
X108781663Y-54622964D01*
X108831478Y-54732044D01*
X108833718Y-54736948D01*
X108919305Y-54835721D01*
X108923835Y-54838632D01*
X108923836Y-54838633D01*
X108955572Y-54859028D01*
X109029252Y-54906379D01*
X109154653Y-54943200D01*
X109279963Y-54943200D01*
X109285347Y-54943200D01*
X109410748Y-54906379D01*
X109520695Y-54835721D01*
X109606282Y-54736948D01*
X109660574Y-54618064D01*
X109679174Y-54488700D01*
X109678294Y-54482583D01*
X109672574Y-54442800D01*
X109660574Y-54359336D01*
X109635958Y-54305435D01*
X109608521Y-54245355D01*
X109606282Y-54240452D01*
X109520695Y-54141679D01*
X109516165Y-54138767D01*
X109516163Y-54138766D01*
X109415278Y-54073932D01*
X109415276Y-54073931D01*
X109410748Y-54071021D01*
X109405582Y-54069504D01*
X109290511Y-54035716D01*
X109290509Y-54035715D01*
X109285347Y-54034200D01*
X109154653Y-54034200D01*
X109149491Y-54035715D01*
X109149488Y-54035716D01*
X109034417Y-54069504D01*
X109034414Y-54069505D01*
X109029252Y-54071021D01*
X109024725Y-54073929D01*
X109024721Y-54073932D01*
X108923836Y-54138766D01*
X108923830Y-54138770D01*
X108919305Y-54141679D01*
X108915778Y-54145748D01*
X108915777Y-54145750D01*
X108837248Y-54236377D01*
X108837245Y-54236381D01*
X108833718Y-54240452D01*
X108831481Y-54245350D01*
X108831478Y-54245355D01*
X108781663Y-54354435D01*
X108781660Y-54354442D01*
X108779426Y-54359336D01*
X108778659Y-54364667D01*
X108778659Y-54364669D01*
X108761616Y-54483204D01*
X108760826Y-54488700D01*
X95618379Y-54488700D01*
X95661682Y-54438726D01*
X95715974Y-54319842D01*
X95734574Y-54190478D01*
X95732979Y-54179388D01*
X95728143Y-54145750D01*
X95715974Y-54061114D01*
X95710251Y-54048583D01*
X95701582Y-54029600D01*
X110284826Y-54029600D01*
X110285593Y-54034935D01*
X110290781Y-54071021D01*
X110303426Y-54158964D01*
X110305661Y-54163859D01*
X110305663Y-54163864D01*
X110355478Y-54272944D01*
X110357718Y-54277848D01*
X110443305Y-54376621D01*
X110553252Y-54447279D01*
X110678653Y-54484100D01*
X110803963Y-54484100D01*
X110809347Y-54484100D01*
X110934748Y-54447279D01*
X111044695Y-54376621D01*
X111130282Y-54277848D01*
X111184574Y-54158964D01*
X111203174Y-54029600D01*
X111184574Y-53900236D01*
X111130282Y-53781352D01*
X111044695Y-53682579D01*
X111040165Y-53679667D01*
X111040163Y-53679666D01*
X110939278Y-53614832D01*
X110939276Y-53614831D01*
X110934748Y-53611921D01*
X110882563Y-53596598D01*
X110814511Y-53576616D01*
X110814509Y-53576615D01*
X110809347Y-53575100D01*
X110678653Y-53575100D01*
X110673491Y-53576615D01*
X110673488Y-53576616D01*
X110558417Y-53610404D01*
X110558414Y-53610405D01*
X110553252Y-53611921D01*
X110548725Y-53614829D01*
X110548721Y-53614832D01*
X110447836Y-53679666D01*
X110447830Y-53679670D01*
X110443305Y-53682579D01*
X110439778Y-53686648D01*
X110439777Y-53686650D01*
X110361248Y-53777277D01*
X110361245Y-53777281D01*
X110357718Y-53781352D01*
X110355481Y-53786250D01*
X110355478Y-53786255D01*
X110305663Y-53895335D01*
X110305660Y-53895342D01*
X110303426Y-53900236D01*
X110302659Y-53905567D01*
X110302659Y-53905569D01*
X110297974Y-53938155D01*
X110284826Y-54029600D01*
X95701582Y-54029600D01*
X95663921Y-53947133D01*
X95661682Y-53942230D01*
X95576095Y-53843457D01*
X95571565Y-53840545D01*
X95571563Y-53840544D01*
X95470678Y-53775710D01*
X95470676Y-53775709D01*
X95466148Y-53772799D01*
X95460982Y-53771282D01*
X95345911Y-53737494D01*
X95345909Y-53737493D01*
X95340747Y-53735978D01*
X95210053Y-53735978D01*
X95204891Y-53737493D01*
X95204888Y-53737494D01*
X95089817Y-53771282D01*
X95089814Y-53771283D01*
X95084652Y-53772799D01*
X95080125Y-53775707D01*
X95080121Y-53775710D01*
X94979236Y-53840544D01*
X94979230Y-53840548D01*
X94974705Y-53843457D01*
X94971178Y-53847526D01*
X94971177Y-53847528D01*
X94892648Y-53938155D01*
X94892645Y-53938159D01*
X94889118Y-53942230D01*
X94886881Y-53947128D01*
X94886878Y-53947133D01*
X94837063Y-54056213D01*
X94837060Y-54056220D01*
X94834826Y-54061114D01*
X94834059Y-54066445D01*
X94834059Y-54066447D01*
X94817402Y-54182301D01*
X94816226Y-54190478D01*
X94816993Y-54195813D01*
X94832754Y-54305435D01*
X94834826Y-54319842D01*
X94837061Y-54324737D01*
X94837063Y-54324742D01*
X94874538Y-54406800D01*
X94889118Y-54438726D01*
X94974705Y-54537499D01*
X94979238Y-54540412D01*
X94979239Y-54540413D01*
X95082196Y-54606579D01*
X95109992Y-54638656D01*
X95116032Y-54680668D01*
X95098401Y-54719276D01*
X95062695Y-54742224D01*
X94999416Y-54760804D01*
X94999411Y-54760806D01*
X94994252Y-54762321D01*
X94989725Y-54765229D01*
X94989721Y-54765232D01*
X94888836Y-54830066D01*
X94888830Y-54830070D01*
X94884305Y-54832979D01*
X94880778Y-54837048D01*
X94880777Y-54837050D01*
X94802248Y-54927677D01*
X94802245Y-54927681D01*
X94798718Y-54931752D01*
X94796481Y-54936650D01*
X94796478Y-54936655D01*
X94746663Y-55045735D01*
X94746660Y-55045742D01*
X94744426Y-55050636D01*
X94743659Y-55055967D01*
X94743659Y-55055969D01*
X94730239Y-55149304D01*
X94725826Y-55180000D01*
X88514340Y-55180000D01*
X88553174Y-55094964D01*
X88571774Y-54965600D01*
X88553174Y-54836236D01*
X88500184Y-54720203D01*
X93395069Y-54720203D01*
X93395836Y-54725538D01*
X93396771Y-54732044D01*
X93413669Y-54849567D01*
X93415904Y-54854462D01*
X93415906Y-54854467D01*
X93465721Y-54963547D01*
X93467961Y-54968451D01*
X93471490Y-54972524D01*
X93471491Y-54972525D01*
X93481280Y-54983822D01*
X93553548Y-55067224D01*
X93663495Y-55137882D01*
X93788896Y-55174703D01*
X93914206Y-55174703D01*
X93919590Y-55174703D01*
X94044991Y-55137882D01*
X94154938Y-55067224D01*
X94240525Y-54968451D01*
X94294817Y-54849567D01*
X94311478Y-54733684D01*
X94312650Y-54725538D01*
X94313417Y-54720203D01*
X94294817Y-54590839D01*
X94240525Y-54471955D01*
X94154938Y-54373182D01*
X94150408Y-54370270D01*
X94150406Y-54370269D01*
X94049521Y-54305435D01*
X94049519Y-54305434D01*
X94044991Y-54302524D01*
X94039825Y-54301007D01*
X93924754Y-54267219D01*
X93924752Y-54267218D01*
X93919590Y-54265703D01*
X93788896Y-54265703D01*
X93783734Y-54267218D01*
X93783731Y-54267219D01*
X93668660Y-54301007D01*
X93668657Y-54301008D01*
X93663495Y-54302524D01*
X93658968Y-54305432D01*
X93658964Y-54305435D01*
X93558079Y-54370269D01*
X93558073Y-54370273D01*
X93553548Y-54373182D01*
X93550021Y-54377251D01*
X93550020Y-54377253D01*
X93471491Y-54467880D01*
X93471488Y-54467884D01*
X93467961Y-54471955D01*
X93465724Y-54476853D01*
X93465721Y-54476858D01*
X93415906Y-54585938D01*
X93415903Y-54585945D01*
X93413669Y-54590839D01*
X93412902Y-54596170D01*
X93412902Y-54596172D01*
X93406794Y-54638656D01*
X93395069Y-54720203D01*
X88500184Y-54720203D01*
X88498882Y-54717352D01*
X88413295Y-54618579D01*
X88408765Y-54615667D01*
X88408763Y-54615666D01*
X88307878Y-54550832D01*
X88307876Y-54550831D01*
X88303348Y-54547921D01*
X88298182Y-54546404D01*
X88183111Y-54512616D01*
X88183109Y-54512615D01*
X88177947Y-54511100D01*
X88047253Y-54511100D01*
X88042091Y-54512615D01*
X88042088Y-54512616D01*
X87927017Y-54546404D01*
X87927014Y-54546405D01*
X87921852Y-54547921D01*
X87917325Y-54550829D01*
X87917321Y-54550832D01*
X87816436Y-54615666D01*
X87816430Y-54615670D01*
X87811905Y-54618579D01*
X87808378Y-54622648D01*
X87808377Y-54622650D01*
X87729848Y-54713277D01*
X87729845Y-54713281D01*
X87726318Y-54717352D01*
X87724081Y-54722250D01*
X87724078Y-54722255D01*
X87674263Y-54831335D01*
X87674260Y-54831342D01*
X87672026Y-54836236D01*
X87671259Y-54841567D01*
X87671259Y-54841569D01*
X87658871Y-54927732D01*
X87653426Y-54965600D01*
X86640159Y-54965600D01*
X86703501Y-54947001D01*
X86813448Y-54876343D01*
X86899035Y-54777570D01*
X86953327Y-54658686D01*
X86971927Y-54529322D01*
X86962276Y-54462199D01*
X86969883Y-54416963D01*
X87002319Y-54384527D01*
X87047556Y-54376920D01*
X87051838Y-54377535D01*
X87057006Y-54379053D01*
X87182316Y-54379053D01*
X87187700Y-54379053D01*
X87313101Y-54342232D01*
X87423048Y-54271574D01*
X87508635Y-54172801D01*
X87562927Y-54053917D01*
X87581527Y-53924553D01*
X87562927Y-53795189D01*
X87535886Y-53735978D01*
X87510874Y-53681208D01*
X87508635Y-53676305D01*
X87423048Y-53577532D01*
X87418518Y-53574620D01*
X87418516Y-53574619D01*
X87317631Y-53509785D01*
X87317629Y-53509784D01*
X87313101Y-53506874D01*
X87307935Y-53505357D01*
X87192864Y-53471569D01*
X87192862Y-53471568D01*
X87187700Y-53470053D01*
X87057006Y-53470053D01*
X87051844Y-53471568D01*
X87051841Y-53471569D01*
X86936770Y-53505357D01*
X86936767Y-53505358D01*
X86931605Y-53506874D01*
X86927078Y-53509782D01*
X86927074Y-53509785D01*
X86826189Y-53574619D01*
X86826183Y-53574623D01*
X86821658Y-53577532D01*
X86818131Y-53581601D01*
X86818130Y-53581603D01*
X86739601Y-53672230D01*
X86739598Y-53672234D01*
X86736071Y-53676305D01*
X86733834Y-53681203D01*
X86733831Y-53681208D01*
X86684016Y-53790288D01*
X86684013Y-53790295D01*
X86681779Y-53795189D01*
X86681012Y-53800520D01*
X86681012Y-53800522D01*
X86665762Y-53906587D01*
X86663179Y-53924553D01*
X86663946Y-53929888D01*
X86672829Y-53991674D01*
X86665223Y-54036910D01*
X86632788Y-54069346D01*
X86587552Y-54076955D01*
X86583266Y-54076339D01*
X86578100Y-54074822D01*
X86447406Y-54074822D01*
X86442244Y-54076337D01*
X86442241Y-54076338D01*
X86327170Y-54110126D01*
X86327167Y-54110127D01*
X86322005Y-54111643D01*
X86317478Y-54114551D01*
X86317474Y-54114554D01*
X86216589Y-54179388D01*
X86216583Y-54179392D01*
X86212058Y-54182301D01*
X86208531Y-54186370D01*
X86208530Y-54186372D01*
X86130001Y-54276999D01*
X86129998Y-54277003D01*
X86126471Y-54281074D01*
X86124234Y-54285972D01*
X86124231Y-54285977D01*
X86074416Y-54395057D01*
X86074413Y-54395064D01*
X86072179Y-54399958D01*
X86071412Y-54405289D01*
X86071412Y-54405291D01*
X86056199Y-54511100D01*
X86053579Y-54529322D01*
X83978550Y-54529322D01*
X83913678Y-54487632D01*
X83913676Y-54487631D01*
X83909148Y-54484721D01*
X83901867Y-54482583D01*
X83788911Y-54449416D01*
X83788909Y-54449415D01*
X83783747Y-54447900D01*
X83653053Y-54447900D01*
X83647891Y-54449415D01*
X83647888Y-54449416D01*
X83532817Y-54483204D01*
X83532814Y-54483205D01*
X83527652Y-54484721D01*
X83523125Y-54487629D01*
X83523121Y-54487632D01*
X83422236Y-54552466D01*
X83422230Y-54552470D01*
X83417705Y-54555379D01*
X83414178Y-54559448D01*
X83414177Y-54559450D01*
X83335648Y-54650077D01*
X83335645Y-54650081D01*
X83332118Y-54654152D01*
X83329881Y-54659050D01*
X83329878Y-54659055D01*
X83280063Y-54768135D01*
X83280060Y-54768142D01*
X83277826Y-54773036D01*
X83277059Y-54778367D01*
X83277059Y-54778369D01*
X83264535Y-54865476D01*
X83259226Y-54902400D01*
X66421500Y-54902400D01*
X66421500Y-53530266D01*
X70013000Y-53530266D01*
X70013254Y-53534638D01*
X70027312Y-53654910D01*
X70029320Y-53663384D01*
X70084606Y-53815280D01*
X70088516Y-53823065D01*
X70177342Y-53958118D01*
X70182940Y-53964790D01*
X70300517Y-54075718D01*
X70307507Y-54080922D01*
X70447492Y-54161743D01*
X70455493Y-54165194D01*
X70609326Y-54211248D01*
X70612789Y-54210496D01*
X70615000Y-54202552D01*
X70615000Y-54196818D01*
X70869000Y-54196818D01*
X70871435Y-54204951D01*
X70879866Y-54205937D01*
X70948184Y-54193890D01*
X70956534Y-54191390D01*
X71104950Y-54127369D01*
X71112501Y-54123009D01*
X71242155Y-54026485D01*
X71248495Y-54020504D01*
X71352397Y-53896678D01*
X71357184Y-53889401D01*
X71429730Y-53744952D01*
X71432712Y-53736758D01*
X71469988Y-53579475D01*
X71471000Y-53570821D01*
X71471000Y-53476916D01*
X71468904Y-53469095D01*
X71461084Y-53467000D01*
X70878916Y-53467000D01*
X70871095Y-53469095D01*
X70869000Y-53476916D01*
X70869000Y-54196818D01*
X70615000Y-54196818D01*
X70615000Y-53476916D01*
X70612904Y-53469095D01*
X70605084Y-53467000D01*
X70022916Y-53467000D01*
X70015095Y-53469095D01*
X70013000Y-53476916D01*
X70013000Y-53530266D01*
X66421500Y-53530266D01*
X66421500Y-53452087D01*
X88161426Y-53452087D01*
X88180026Y-53581451D01*
X88182261Y-53586346D01*
X88182263Y-53586351D01*
X88225583Y-53681208D01*
X88234318Y-53700335D01*
X88319905Y-53799108D01*
X88429852Y-53869766D01*
X88555253Y-53906587D01*
X88680563Y-53906587D01*
X88685947Y-53906587D01*
X88811348Y-53869766D01*
X88921295Y-53799108D01*
X89006882Y-53700335D01*
X89061174Y-53581451D01*
X89079774Y-53452087D01*
X89061174Y-53322723D01*
X89041468Y-53279573D01*
X104660399Y-53279573D01*
X104678999Y-53408937D01*
X104681234Y-53413832D01*
X104681236Y-53413837D01*
X104725054Y-53509785D01*
X104733291Y-53527821D01*
X104818878Y-53626594D01*
X104928825Y-53697252D01*
X105054226Y-53734073D01*
X105179536Y-53734073D01*
X105184920Y-53734073D01*
X105310321Y-53697252D01*
X105420268Y-53626594D01*
X105505855Y-53527821D01*
X105560147Y-53408937D01*
X105578747Y-53279573D01*
X105560147Y-53150209D01*
X105554023Y-53136800D01*
X105508094Y-53036228D01*
X105505855Y-53031325D01*
X105420268Y-52932552D01*
X105415738Y-52929640D01*
X105415736Y-52929639D01*
X105314851Y-52864805D01*
X105314849Y-52864804D01*
X105310321Y-52861894D01*
X105293429Y-52856934D01*
X105190084Y-52826589D01*
X105190082Y-52826588D01*
X105184920Y-52825073D01*
X105054226Y-52825073D01*
X105049064Y-52826588D01*
X105049061Y-52826589D01*
X104933990Y-52860377D01*
X104933987Y-52860378D01*
X104928825Y-52861894D01*
X104924298Y-52864802D01*
X104924294Y-52864805D01*
X104823409Y-52929639D01*
X104823403Y-52929643D01*
X104818878Y-52932552D01*
X104815351Y-52936621D01*
X104815350Y-52936623D01*
X104736821Y-53027250D01*
X104736818Y-53027254D01*
X104733291Y-53031325D01*
X104731054Y-53036223D01*
X104731051Y-53036228D01*
X104681236Y-53145308D01*
X104681233Y-53145315D01*
X104678999Y-53150209D01*
X104678232Y-53155540D01*
X104678232Y-53155542D01*
X104671288Y-53203839D01*
X104660399Y-53279573D01*
X89041468Y-53279573D01*
X89006882Y-53203839D01*
X88921295Y-53105066D01*
X88916765Y-53102154D01*
X88916763Y-53102153D01*
X88815878Y-53037319D01*
X88815876Y-53037318D01*
X88811348Y-53034408D01*
X88806182Y-53032891D01*
X88691111Y-52999103D01*
X88691109Y-52999102D01*
X88685947Y-52997587D01*
X88555253Y-52997587D01*
X88550091Y-52999102D01*
X88550088Y-52999103D01*
X88435017Y-53032891D01*
X88435014Y-53032892D01*
X88429852Y-53034408D01*
X88425325Y-53037316D01*
X88425321Y-53037319D01*
X88324436Y-53102153D01*
X88324430Y-53102157D01*
X88319905Y-53105066D01*
X88316378Y-53109135D01*
X88316377Y-53109137D01*
X88237848Y-53199764D01*
X88237845Y-53199768D01*
X88234318Y-53203839D01*
X88232081Y-53208737D01*
X88232078Y-53208742D01*
X88182263Y-53317822D01*
X88182260Y-53317829D01*
X88180026Y-53322723D01*
X88179259Y-53328054D01*
X88179259Y-53328056D01*
X88164868Y-53428149D01*
X88161426Y-53452087D01*
X66421500Y-53452087D01*
X66421500Y-53203084D01*
X70013000Y-53203084D01*
X70015095Y-53210904D01*
X70022916Y-53213000D01*
X70605084Y-53213000D01*
X70612904Y-53210904D01*
X70615000Y-53203084D01*
X70869000Y-53203084D01*
X70871095Y-53210904D01*
X70878916Y-53213000D01*
X71461084Y-53213000D01*
X71468904Y-53210904D01*
X71471000Y-53203084D01*
X71471000Y-53149734D01*
X71470745Y-53145361D01*
X71456687Y-53025089D01*
X71454679Y-53016615D01*
X71399393Y-52864719D01*
X71395483Y-52856934D01*
X71306657Y-52721881D01*
X71301059Y-52715209D01*
X71183482Y-52604281D01*
X71176492Y-52599077D01*
X71036507Y-52518256D01*
X71028506Y-52514805D01*
X70874673Y-52468751D01*
X70871210Y-52469503D01*
X70869000Y-52477448D01*
X70869000Y-53203084D01*
X70615000Y-53203084D01*
X70615000Y-52483182D01*
X70612564Y-52475048D01*
X70604133Y-52474062D01*
X70535815Y-52486109D01*
X70527465Y-52488609D01*
X70379049Y-52552630D01*
X70371498Y-52556990D01*
X70241844Y-52653514D01*
X70235504Y-52659495D01*
X70131602Y-52783321D01*
X70126815Y-52790598D01*
X70054269Y-52935047D01*
X70051287Y-52943241D01*
X70014011Y-53100524D01*
X70013000Y-53109179D01*
X70013000Y-53203084D01*
X66421500Y-53203084D01*
X66421500Y-52478133D01*
X67026127Y-52478133D01*
X67052533Y-52585268D01*
X67055738Y-52593719D01*
X67130393Y-52735963D01*
X67135527Y-52743401D01*
X67242052Y-52863642D01*
X67248820Y-52869638D01*
X67381026Y-52960894D01*
X67389030Y-52965094D01*
X67539228Y-53022056D01*
X67548012Y-53024222D01*
X67667456Y-53038725D01*
X67671998Y-53039000D01*
X67905084Y-53039000D01*
X67912904Y-53036904D01*
X67915000Y-53029084D01*
X68169000Y-53029084D01*
X68171095Y-53036904D01*
X68178916Y-53039000D01*
X68412002Y-53039000D01*
X68416543Y-53038725D01*
X68535987Y-53024222D01*
X68544771Y-53022056D01*
X68694969Y-52965094D01*
X68702973Y-52960894D01*
X68835179Y-52869638D01*
X68841947Y-52863642D01*
X68948472Y-52743401D01*
X68953606Y-52735963D01*
X69028261Y-52593719D01*
X69031466Y-52585268D01*
X69057872Y-52478133D01*
X69057354Y-52469555D01*
X69049153Y-52467000D01*
X68178916Y-52467000D01*
X68171095Y-52469095D01*
X68169000Y-52476916D01*
X68169000Y-53029084D01*
X67915000Y-53029084D01*
X67915000Y-52476916D01*
X67912904Y-52469095D01*
X67905084Y-52467000D01*
X67034847Y-52467000D01*
X67026645Y-52469555D01*
X67026127Y-52478133D01*
X66421500Y-52478133D01*
X66421500Y-52201866D01*
X67026127Y-52201866D01*
X67026645Y-52210444D01*
X67034847Y-52213000D01*
X67905084Y-52213000D01*
X67912904Y-52210904D01*
X67915000Y-52203084D01*
X68169000Y-52203084D01*
X68171095Y-52210904D01*
X68178916Y-52213000D01*
X69049153Y-52213000D01*
X69057354Y-52210444D01*
X69057872Y-52201866D01*
X69031466Y-52094731D01*
X69028261Y-52086280D01*
X69018230Y-52067167D01*
X88270693Y-52067167D01*
X88271460Y-52072502D01*
X88278279Y-52119932D01*
X88289293Y-52196531D01*
X88291528Y-52201426D01*
X88291530Y-52201431D01*
X88325218Y-52275197D01*
X88343585Y-52315415D01*
X88429172Y-52414188D01*
X88433702Y-52417099D01*
X88433703Y-52417100D01*
X88465667Y-52437642D01*
X88539119Y-52484846D01*
X88664520Y-52521667D01*
X88789830Y-52521667D01*
X88795214Y-52521667D01*
X88920615Y-52484846D01*
X89030562Y-52414188D01*
X89116149Y-52315415D01*
X89170441Y-52196531D01*
X89189041Y-52067167D01*
X89170441Y-51937803D01*
X89164865Y-51925594D01*
X89132835Y-51855456D01*
X89116149Y-51818919D01*
X89030562Y-51720146D01*
X89026032Y-51717234D01*
X89026030Y-51717233D01*
X88925145Y-51652399D01*
X88925143Y-51652398D01*
X88920615Y-51649488D01*
X88905947Y-51645181D01*
X88800378Y-51614183D01*
X88800376Y-51614182D01*
X88795214Y-51612667D01*
X88664520Y-51612667D01*
X88659358Y-51614182D01*
X88659355Y-51614183D01*
X88544284Y-51647971D01*
X88544281Y-51647972D01*
X88539119Y-51649488D01*
X88534592Y-51652396D01*
X88534588Y-51652399D01*
X88433703Y-51717233D01*
X88433697Y-51717237D01*
X88429172Y-51720146D01*
X88425645Y-51724215D01*
X88425644Y-51724217D01*
X88347115Y-51814844D01*
X88347112Y-51814848D01*
X88343585Y-51818919D01*
X88341348Y-51823817D01*
X88341345Y-51823822D01*
X88291530Y-51932902D01*
X88291527Y-51932909D01*
X88289293Y-51937803D01*
X88288526Y-51943134D01*
X88288526Y-51943136D01*
X88278790Y-52010852D01*
X88270693Y-52067167D01*
X69018230Y-52067167D01*
X68953606Y-51944036D01*
X68948472Y-51936598D01*
X68841947Y-51816357D01*
X68835179Y-51810361D01*
X68702973Y-51719105D01*
X68694969Y-51714905D01*
X68544771Y-51657943D01*
X68535987Y-51655777D01*
X68416543Y-51641274D01*
X68412002Y-51641000D01*
X68178916Y-51641000D01*
X68171095Y-51643095D01*
X68169000Y-51650916D01*
X68169000Y-52203084D01*
X67915000Y-52203084D01*
X67915000Y-51650916D01*
X67912904Y-51643095D01*
X67905084Y-51641000D01*
X67671998Y-51641000D01*
X67667456Y-51641274D01*
X67548012Y-51655777D01*
X67539228Y-51657943D01*
X67389030Y-51714905D01*
X67381026Y-51719105D01*
X67248820Y-51810361D01*
X67242052Y-51816357D01*
X67135527Y-51936598D01*
X67130393Y-51944036D01*
X67055738Y-52086280D01*
X67052533Y-52094731D01*
X67026127Y-52201866D01*
X66421500Y-52201866D01*
X66421500Y-51390000D01*
X72784721Y-51390000D01*
X72785365Y-51394892D01*
X72802315Y-51523645D01*
X72802316Y-51523649D01*
X72802960Y-51528540D01*
X72804849Y-51533102D01*
X72804850Y-51533103D01*
X72854077Y-51651949D01*
X72856435Y-51657640D01*
X72859443Y-51661560D01*
X72924260Y-51746031D01*
X72941501Y-51768499D01*
X73052360Y-51853565D01*
X73181460Y-51907040D01*
X73320000Y-51925279D01*
X73458540Y-51907040D01*
X73587640Y-51853565D01*
X73698499Y-51768499D01*
X73783565Y-51657640D01*
X73837040Y-51528540D01*
X73855279Y-51390000D01*
X74914721Y-51390000D01*
X74915365Y-51394892D01*
X74932315Y-51523645D01*
X74932316Y-51523649D01*
X74932960Y-51528540D01*
X74934849Y-51533102D01*
X74934850Y-51533103D01*
X74984077Y-51651949D01*
X74986435Y-51657640D01*
X74989443Y-51661560D01*
X75054260Y-51746031D01*
X75071501Y-51768499D01*
X75182360Y-51853565D01*
X75311460Y-51907040D01*
X75450000Y-51925279D01*
X75588540Y-51907040D01*
X75717640Y-51853565D01*
X75828499Y-51768499D01*
X75913565Y-51657640D01*
X75967040Y-51528540D01*
X75985279Y-51390000D01*
X77914721Y-51390000D01*
X77915365Y-51394892D01*
X77932315Y-51523645D01*
X77932316Y-51523649D01*
X77932960Y-51528540D01*
X77934849Y-51533102D01*
X77934850Y-51533103D01*
X77984077Y-51651949D01*
X77986435Y-51657640D01*
X77989443Y-51661560D01*
X78054260Y-51746031D01*
X78071501Y-51768499D01*
X78182360Y-51853565D01*
X78311460Y-51907040D01*
X78450000Y-51925279D01*
X78588540Y-51907040D01*
X78717640Y-51853565D01*
X78828499Y-51768499D01*
X78913565Y-51657640D01*
X78967040Y-51528540D01*
X78985279Y-51390000D01*
X80044721Y-51390000D01*
X80045365Y-51394892D01*
X80062315Y-51523645D01*
X80062316Y-51523649D01*
X80062960Y-51528540D01*
X80064849Y-51533102D01*
X80064850Y-51533103D01*
X80114077Y-51651949D01*
X80116435Y-51657640D01*
X80119443Y-51661560D01*
X80184260Y-51746031D01*
X80201501Y-51768499D01*
X80312360Y-51853565D01*
X80441460Y-51907040D01*
X80580000Y-51925279D01*
X80718540Y-51907040D01*
X80847640Y-51853565D01*
X80958499Y-51768499D01*
X81043565Y-51657640D01*
X81097040Y-51528540D01*
X81115279Y-51390000D01*
X81097040Y-51251460D01*
X81067854Y-51181000D01*
X82301555Y-51181000D01*
X82302104Y-51185521D01*
X82321510Y-51345349D01*
X82321511Y-51345355D01*
X82322060Y-51349872D01*
X82323676Y-51354133D01*
X82360361Y-51450866D01*
X82382382Y-51508930D01*
X82384964Y-51512671D01*
X82384967Y-51512676D01*
X82459108Y-51620086D01*
X82479017Y-51648929D01*
X82482426Y-51651949D01*
X82589969Y-51747224D01*
X82606348Y-51761734D01*
X82756975Y-51840790D01*
X82922144Y-51881500D01*
X83087697Y-51881500D01*
X83092256Y-51881500D01*
X83257425Y-51840790D01*
X83408052Y-51761734D01*
X83535383Y-51648929D01*
X83632018Y-51508930D01*
X83692340Y-51349872D01*
X83712845Y-51181000D01*
X84181155Y-51181000D01*
X84181704Y-51185521D01*
X84201110Y-51345349D01*
X84201111Y-51345355D01*
X84201660Y-51349872D01*
X84203276Y-51354133D01*
X84239961Y-51450866D01*
X84261982Y-51508930D01*
X84264564Y-51512671D01*
X84264567Y-51512676D01*
X84338708Y-51620086D01*
X84358617Y-51648929D01*
X84362026Y-51651949D01*
X84469569Y-51747224D01*
X84485948Y-51761734D01*
X84636575Y-51840790D01*
X84801744Y-51881500D01*
X84967297Y-51881500D01*
X84971856Y-51881500D01*
X85137025Y-51840790D01*
X85287652Y-51761734D01*
X85414983Y-51648929D01*
X85511618Y-51508930D01*
X85571940Y-51349872D01*
X85574737Y-51326836D01*
X86074109Y-51326836D01*
X86074876Y-51332171D01*
X86082162Y-51382849D01*
X86092709Y-51456200D01*
X86094944Y-51461095D01*
X86094946Y-51461100D01*
X86135623Y-51550170D01*
X86147001Y-51575084D01*
X86150530Y-51579157D01*
X86150531Y-51579158D01*
X86169831Y-51601432D01*
X86232588Y-51673857D01*
X86342535Y-51744515D01*
X86467936Y-51781336D01*
X86593246Y-51781336D01*
X86598630Y-51781336D01*
X86724031Y-51744515D01*
X86833978Y-51673857D01*
X86919565Y-51575084D01*
X86973857Y-51456200D01*
X86992457Y-51326836D01*
X86974673Y-51203149D01*
X89899765Y-51203149D01*
X89900532Y-51208484D01*
X89907414Y-51256352D01*
X89918365Y-51332513D01*
X89920600Y-51337408D01*
X89920602Y-51337413D01*
X89944618Y-51390000D01*
X89972657Y-51451397D01*
X89976186Y-51455470D01*
X89976187Y-51455471D01*
X89980873Y-51460879D01*
X90058244Y-51550170D01*
X90062774Y-51553081D01*
X90062775Y-51553082D01*
X90132439Y-51597852D01*
X90156949Y-51623557D01*
X90166956Y-51657636D01*
X90160234Y-51692512D01*
X90137487Y-51742320D01*
X90137484Y-51742329D01*
X90135249Y-51747224D01*
X90134482Y-51752555D01*
X90134482Y-51752557D01*
X90125309Y-51816357D01*
X90116649Y-51876588D01*
X90117416Y-51881923D01*
X90125450Y-51937803D01*
X90135249Y-52005952D01*
X90137484Y-52010847D01*
X90137486Y-52010852D01*
X90187301Y-52119932D01*
X90189541Y-52124836D01*
X90275128Y-52223609D01*
X90385075Y-52294267D01*
X90510476Y-52331088D01*
X90635786Y-52331088D01*
X90641170Y-52331088D01*
X90766571Y-52294267D01*
X90876518Y-52223609D01*
X90962105Y-52124836D01*
X91016397Y-52005952D01*
X91034997Y-51876588D01*
X91016397Y-51747224D01*
X91014157Y-51742320D01*
X90968012Y-51641274D01*
X90962105Y-51628340D01*
X90876518Y-51529567D01*
X90871988Y-51526655D01*
X90871986Y-51526654D01*
X90847359Y-51510827D01*
X93028166Y-51510827D01*
X93028933Y-51516160D01*
X93028933Y-51516162D01*
X93044919Y-51627349D01*
X93046766Y-51640191D01*
X93049001Y-51645086D01*
X93049003Y-51645091D01*
X93098081Y-51752557D01*
X93101058Y-51759075D01*
X93186645Y-51857848D01*
X93191175Y-51860759D01*
X93191176Y-51860760D01*
X93224107Y-51881923D01*
X93296592Y-51928506D01*
X93421993Y-51965327D01*
X93547303Y-51965327D01*
X93552687Y-51965327D01*
X93638496Y-51940131D01*
X93687711Y-51942476D01*
X93724951Y-51974743D01*
X93734276Y-52023126D01*
X93727945Y-52067167D01*
X93727096Y-52073070D01*
X93745696Y-52202434D01*
X93747931Y-52207329D01*
X93747933Y-52207334D01*
X93797292Y-52315415D01*
X93799988Y-52321318D01*
X93885575Y-52420091D01*
X93995522Y-52490749D01*
X94120923Y-52527570D01*
X94246233Y-52527570D01*
X94251617Y-52527570D01*
X94377018Y-52490749D01*
X94486965Y-52420091D01*
X94572552Y-52321318D01*
X94626844Y-52202434D01*
X94645444Y-52073070D01*
X94638227Y-52022875D01*
X101217026Y-52022875D01*
X101235626Y-52152239D01*
X101237861Y-52157134D01*
X101237863Y-52157139D01*
X101268219Y-52223609D01*
X101289918Y-52271123D01*
X101375505Y-52369896D01*
X101485452Y-52440554D01*
X101610853Y-52477375D01*
X101736163Y-52477375D01*
X101741547Y-52477375D01*
X101866948Y-52440554D01*
X101976895Y-52369896D01*
X102062482Y-52271123D01*
X102116774Y-52152239D01*
X102135374Y-52022875D01*
X102116774Y-51893511D01*
X102100487Y-51857848D01*
X102064721Y-51779530D01*
X102062482Y-51774627D01*
X101976895Y-51675854D01*
X101972365Y-51672942D01*
X101972363Y-51672941D01*
X101871478Y-51608107D01*
X101871476Y-51608106D01*
X101866948Y-51605196D01*
X101778271Y-51579158D01*
X101746711Y-51569891D01*
X101746709Y-51569890D01*
X101741547Y-51568375D01*
X101610853Y-51568375D01*
X101605691Y-51569890D01*
X101605688Y-51569891D01*
X101490617Y-51603679D01*
X101490614Y-51603680D01*
X101485452Y-51605196D01*
X101480925Y-51608104D01*
X101480921Y-51608107D01*
X101380036Y-51672941D01*
X101380030Y-51672945D01*
X101375505Y-51675854D01*
X101371978Y-51679923D01*
X101371977Y-51679925D01*
X101293448Y-51770552D01*
X101293445Y-51770556D01*
X101289918Y-51774627D01*
X101287681Y-51779525D01*
X101287678Y-51779530D01*
X101237863Y-51888610D01*
X101237860Y-51888617D01*
X101235626Y-51893511D01*
X101234859Y-51898842D01*
X101234859Y-51898844D01*
X101228923Y-51940131D01*
X101217026Y-52022875D01*
X94638227Y-52022875D01*
X94626844Y-51943706D01*
X94619902Y-51928506D01*
X94574791Y-51829725D01*
X94572552Y-51824822D01*
X94486965Y-51726049D01*
X94482435Y-51723137D01*
X94482433Y-51723136D01*
X94381548Y-51658302D01*
X94381546Y-51658301D01*
X94377018Y-51655391D01*
X94369124Y-51653073D01*
X94256781Y-51620086D01*
X94256779Y-51620085D01*
X94251617Y-51618570D01*
X94120923Y-51618570D01*
X94115762Y-51620085D01*
X94115757Y-51620086D01*
X94035115Y-51643765D01*
X93985896Y-51641420D01*
X93948658Y-51609152D01*
X93939333Y-51560768D01*
X93940439Y-51553082D01*
X93946514Y-51510827D01*
X93927914Y-51381463D01*
X93911421Y-51345349D01*
X93875861Y-51267482D01*
X93873622Y-51262579D01*
X93788035Y-51163806D01*
X93783505Y-51160894D01*
X93783503Y-51160893D01*
X93682618Y-51096059D01*
X93682616Y-51096058D01*
X93678088Y-51093148D01*
X93672922Y-51091631D01*
X93557851Y-51057843D01*
X93557849Y-51057842D01*
X93552687Y-51056327D01*
X93421993Y-51056327D01*
X93416831Y-51057842D01*
X93416828Y-51057843D01*
X93301757Y-51091631D01*
X93301754Y-51091632D01*
X93296592Y-51093148D01*
X93292065Y-51096056D01*
X93292061Y-51096059D01*
X93191176Y-51160893D01*
X93191170Y-51160897D01*
X93186645Y-51163806D01*
X93183118Y-51167875D01*
X93183117Y-51167877D01*
X93104588Y-51258504D01*
X93104585Y-51258508D01*
X93101058Y-51262579D01*
X93098821Y-51267477D01*
X93098818Y-51267482D01*
X93049003Y-51376562D01*
X93049000Y-51376569D01*
X93046766Y-51381463D01*
X93045999Y-51386794D01*
X93045999Y-51386796D01*
X93035316Y-51461100D01*
X93028166Y-51510827D01*
X90847359Y-51510827D01*
X90802322Y-51481884D01*
X90777812Y-51456178D01*
X90767805Y-51422099D01*
X90774528Y-51387222D01*
X90775494Y-51385108D01*
X90799513Y-51332513D01*
X90814135Y-51230810D01*
X90827337Y-51197836D01*
X90854179Y-51174577D01*
X90888696Y-51166203D01*
X90927860Y-51166203D01*
X90933244Y-51166203D01*
X91058645Y-51129382D01*
X91168592Y-51058724D01*
X91254179Y-50959951D01*
X91308471Y-50841067D01*
X91314376Y-50800000D01*
X96576355Y-50800000D01*
X96576904Y-50804521D01*
X96596310Y-50964349D01*
X96596311Y-50964355D01*
X96596860Y-50968872D01*
X96657182Y-51127930D01*
X96659764Y-51131671D01*
X96659767Y-51131676D01*
X96705435Y-51197836D01*
X96753817Y-51267929D01*
X96757226Y-51270949D01*
X96851121Y-51354133D01*
X96881148Y-51380734D01*
X97031775Y-51459790D01*
X97196944Y-51500500D01*
X97362497Y-51500500D01*
X97367056Y-51500500D01*
X97532225Y-51459790D01*
X97682852Y-51380734D01*
X97810183Y-51267929D01*
X97906818Y-51127930D01*
X97967140Y-50968872D01*
X97987645Y-50800000D01*
X98354355Y-50800000D01*
X98354904Y-50804521D01*
X98374310Y-50964349D01*
X98374311Y-50964355D01*
X98374860Y-50968872D01*
X98435182Y-51127930D01*
X98437764Y-51131671D01*
X98437767Y-51131676D01*
X98483435Y-51197836D01*
X98531817Y-51267929D01*
X98535226Y-51270949D01*
X98629121Y-51354133D01*
X98659148Y-51380734D01*
X98809775Y-51459790D01*
X98974944Y-51500500D01*
X99140497Y-51500500D01*
X99145056Y-51500500D01*
X99310225Y-51459790D01*
X99460852Y-51380734D01*
X99588183Y-51267929D01*
X99684818Y-51127930D01*
X99745140Y-50968872D01*
X99765645Y-50800000D01*
X100132355Y-50800000D01*
X100132904Y-50804521D01*
X100152310Y-50964349D01*
X100152311Y-50964355D01*
X100152860Y-50968872D01*
X100213182Y-51127930D01*
X100215764Y-51131671D01*
X100215767Y-51131676D01*
X100261435Y-51197836D01*
X100309817Y-51267929D01*
X100313226Y-51270949D01*
X100407121Y-51354133D01*
X100437148Y-51380734D01*
X100587775Y-51459790D01*
X100752944Y-51500500D01*
X100918497Y-51500500D01*
X100923056Y-51500500D01*
X101088225Y-51459790D01*
X101238852Y-51380734D01*
X101366183Y-51267929D01*
X101462818Y-51127930D01*
X101523140Y-50968872D01*
X101543645Y-50800000D01*
X101523140Y-50631128D01*
X101462818Y-50472070D01*
X101456871Y-50463455D01*
X101414500Y-50402070D01*
X101366183Y-50332071D01*
X101326765Y-50297150D01*
X101242259Y-50222284D01*
X101242257Y-50222282D01*
X101238852Y-50219266D01*
X101234823Y-50217151D01*
X101234821Y-50217150D01*
X101092255Y-50142325D01*
X101092254Y-50142324D01*
X101088225Y-50140210D01*
X101083806Y-50139120D01*
X101083804Y-50139120D01*
X100927482Y-50100591D01*
X100923056Y-50099500D01*
X100752944Y-50099500D01*
X100748518Y-50100590D01*
X100748517Y-50100591D01*
X100592195Y-50139120D01*
X100592190Y-50139121D01*
X100587775Y-50140210D01*
X100583748Y-50142323D01*
X100583744Y-50142325D01*
X100441178Y-50217150D01*
X100441172Y-50217153D01*
X100437148Y-50219266D01*
X100433746Y-50222279D01*
X100433740Y-50222284D01*
X100313226Y-50329050D01*
X100313222Y-50329054D01*
X100309817Y-50332071D01*
X100307232Y-50335814D01*
X100307230Y-50335818D01*
X100215767Y-50468323D01*
X100215762Y-50468331D01*
X100213182Y-50472070D01*
X100211568Y-50476323D01*
X100211567Y-50476327D01*
X100154476Y-50626866D01*
X100152860Y-50631128D01*
X100152311Y-50635642D01*
X100152310Y-50635650D01*
X100139607Y-50740275D01*
X100132355Y-50800000D01*
X99765645Y-50800000D01*
X99745140Y-50631128D01*
X99684818Y-50472070D01*
X99678871Y-50463455D01*
X99636500Y-50402070D01*
X99588183Y-50332071D01*
X99548765Y-50297150D01*
X99464259Y-50222284D01*
X99464257Y-50222282D01*
X99460852Y-50219266D01*
X99456823Y-50217151D01*
X99456821Y-50217150D01*
X99314255Y-50142325D01*
X99314254Y-50142324D01*
X99310225Y-50140210D01*
X99305806Y-50139120D01*
X99305804Y-50139120D01*
X99149482Y-50100591D01*
X99145056Y-50099500D01*
X98974944Y-50099500D01*
X98970518Y-50100590D01*
X98970517Y-50100591D01*
X98814195Y-50139120D01*
X98814190Y-50139121D01*
X98809775Y-50140210D01*
X98805748Y-50142323D01*
X98805744Y-50142325D01*
X98663178Y-50217150D01*
X98663172Y-50217153D01*
X98659148Y-50219266D01*
X98655746Y-50222279D01*
X98655740Y-50222284D01*
X98535226Y-50329050D01*
X98535222Y-50329054D01*
X98531817Y-50332071D01*
X98529232Y-50335814D01*
X98529230Y-50335818D01*
X98437767Y-50468323D01*
X98437762Y-50468331D01*
X98435182Y-50472070D01*
X98433568Y-50476323D01*
X98433567Y-50476327D01*
X98376476Y-50626866D01*
X98374860Y-50631128D01*
X98374311Y-50635642D01*
X98374310Y-50635650D01*
X98361607Y-50740275D01*
X98354355Y-50800000D01*
X97987645Y-50800000D01*
X97967140Y-50631128D01*
X97906818Y-50472070D01*
X97900871Y-50463455D01*
X97858500Y-50402070D01*
X97810183Y-50332071D01*
X97770765Y-50297150D01*
X97686259Y-50222284D01*
X97686257Y-50222282D01*
X97682852Y-50219266D01*
X97678823Y-50217151D01*
X97678821Y-50217150D01*
X97536255Y-50142325D01*
X97536254Y-50142324D01*
X97532225Y-50140210D01*
X97527806Y-50139120D01*
X97527804Y-50139120D01*
X97371482Y-50100591D01*
X97367056Y-50099500D01*
X97196944Y-50099500D01*
X97192518Y-50100590D01*
X97192517Y-50100591D01*
X97036195Y-50139120D01*
X97036190Y-50139121D01*
X97031775Y-50140210D01*
X97027748Y-50142323D01*
X97027744Y-50142325D01*
X96885178Y-50217150D01*
X96885172Y-50217153D01*
X96881148Y-50219266D01*
X96877746Y-50222279D01*
X96877740Y-50222284D01*
X96757226Y-50329050D01*
X96757222Y-50329054D01*
X96753817Y-50332071D01*
X96751232Y-50335814D01*
X96751230Y-50335818D01*
X96659767Y-50468323D01*
X96659762Y-50468331D01*
X96657182Y-50472070D01*
X96655568Y-50476323D01*
X96655567Y-50476327D01*
X96598476Y-50626866D01*
X96596860Y-50631128D01*
X96596311Y-50635642D01*
X96596310Y-50635650D01*
X96583607Y-50740275D01*
X96576355Y-50800000D01*
X91314376Y-50800000D01*
X91327071Y-50711703D01*
X91308471Y-50582339D01*
X91281520Y-50523325D01*
X91256418Y-50468358D01*
X91254179Y-50463455D01*
X91168592Y-50364682D01*
X91164058Y-50361768D01*
X91157561Y-50357592D01*
X91129768Y-50325515D01*
X91123729Y-50283503D01*
X91140216Y-50247401D01*
X95510726Y-50247401D01*
X95511493Y-50252736D01*
X95522465Y-50329050D01*
X95529326Y-50376765D01*
X95531561Y-50381660D01*
X95531563Y-50381665D01*
X95577198Y-50481591D01*
X95583618Y-50495649D01*
X95669205Y-50594422D01*
X95673735Y-50597333D01*
X95673736Y-50597334D01*
X95682995Y-50603284D01*
X95779152Y-50665080D01*
X95904553Y-50701901D01*
X96029863Y-50701901D01*
X96035247Y-50701901D01*
X96160648Y-50665080D01*
X96270595Y-50594422D01*
X96356182Y-50495649D01*
X96410474Y-50376765D01*
X96429074Y-50247401D01*
X96410474Y-50118037D01*
X96356182Y-49999153D01*
X96270595Y-49900380D01*
X96266065Y-49897468D01*
X96266063Y-49897467D01*
X96165178Y-49832633D01*
X96165176Y-49832632D01*
X96160648Y-49829722D01*
X96155482Y-49828205D01*
X96040411Y-49794417D01*
X96040409Y-49794416D01*
X96035247Y-49792901D01*
X95904553Y-49792901D01*
X95899391Y-49794416D01*
X95899388Y-49794417D01*
X95784317Y-49828205D01*
X95784314Y-49828206D01*
X95779152Y-49829722D01*
X95774625Y-49832630D01*
X95774621Y-49832633D01*
X95673736Y-49897467D01*
X95673730Y-49897471D01*
X95669205Y-49900380D01*
X95665678Y-49904449D01*
X95665677Y-49904451D01*
X95587148Y-49995078D01*
X95587145Y-49995082D01*
X95583618Y-49999153D01*
X95581381Y-50004051D01*
X95581378Y-50004056D01*
X95531563Y-50113136D01*
X95531560Y-50113143D01*
X95529326Y-50118037D01*
X95528559Y-50123368D01*
X95528559Y-50123370D01*
X95526138Y-50140210D01*
X95510726Y-50247401D01*
X91140216Y-50247401D01*
X91141360Y-50244897D01*
X91184192Y-50195467D01*
X91238484Y-50076583D01*
X91257084Y-49947219D01*
X91238484Y-49817855D01*
X91184192Y-49698971D01*
X91098605Y-49600198D01*
X91094075Y-49597286D01*
X91094073Y-49597285D01*
X90993188Y-49532451D01*
X90993186Y-49532450D01*
X90988658Y-49529540D01*
X90983492Y-49528023D01*
X90868421Y-49494235D01*
X90868419Y-49494234D01*
X90863257Y-49492719D01*
X90732563Y-49492719D01*
X90727401Y-49494234D01*
X90727398Y-49494235D01*
X90612327Y-49528023D01*
X90612324Y-49528024D01*
X90607162Y-49529540D01*
X90602635Y-49532448D01*
X90602631Y-49532451D01*
X90501746Y-49597285D01*
X90501740Y-49597289D01*
X90497215Y-49600198D01*
X90493688Y-49604267D01*
X90493687Y-49604269D01*
X90415158Y-49694896D01*
X90415155Y-49694900D01*
X90411628Y-49698971D01*
X90409391Y-49703869D01*
X90409388Y-49703874D01*
X90359573Y-49812954D01*
X90359570Y-49812961D01*
X90357336Y-49817855D01*
X90356569Y-49823186D01*
X90356569Y-49823188D01*
X90344885Y-49904451D01*
X90338736Y-49947219D01*
X90357336Y-50076583D01*
X90359571Y-50081478D01*
X90359573Y-50081483D01*
X90385895Y-50139120D01*
X90411628Y-50195467D01*
X90497215Y-50294240D01*
X90508243Y-50301327D01*
X90536037Y-50333403D01*
X90542078Y-50375416D01*
X90524447Y-50414024D01*
X90485145Y-50459380D01*
X90485142Y-50459384D01*
X90481615Y-50463455D01*
X90479378Y-50468353D01*
X90479375Y-50468358D01*
X90429560Y-50577438D01*
X90429557Y-50577445D01*
X90427323Y-50582339D01*
X90426556Y-50587670D01*
X90426556Y-50587672D01*
X90412700Y-50684042D01*
X90399499Y-50717016D01*
X90372657Y-50740275D01*
X90338140Y-50748649D01*
X90293592Y-50748649D01*
X90288430Y-50750164D01*
X90288427Y-50750165D01*
X90173356Y-50783953D01*
X90173353Y-50783954D01*
X90168191Y-50785470D01*
X90163664Y-50788378D01*
X90163660Y-50788381D01*
X90062775Y-50853215D01*
X90062769Y-50853219D01*
X90058244Y-50856128D01*
X90054717Y-50860197D01*
X90054716Y-50860199D01*
X89976187Y-50950826D01*
X89976184Y-50950830D01*
X89972657Y-50954901D01*
X89970420Y-50959799D01*
X89970417Y-50959804D01*
X89920602Y-51068884D01*
X89920599Y-51068891D01*
X89918365Y-51073785D01*
X89917598Y-51079116D01*
X89917598Y-51079118D01*
X89901286Y-51192571D01*
X89899765Y-51203149D01*
X86974673Y-51203149D01*
X86973857Y-51197472D01*
X86958482Y-51163806D01*
X86921804Y-51083491D01*
X86919565Y-51078588D01*
X86833978Y-50979815D01*
X86829448Y-50976903D01*
X86829446Y-50976902D01*
X86728561Y-50912068D01*
X86728559Y-50912067D01*
X86724031Y-50909157D01*
X86718865Y-50907640D01*
X86603794Y-50873852D01*
X86603792Y-50873851D01*
X86598630Y-50872336D01*
X86467936Y-50872336D01*
X86462774Y-50873851D01*
X86462771Y-50873852D01*
X86347700Y-50907640D01*
X86347697Y-50907641D01*
X86342535Y-50909157D01*
X86338008Y-50912065D01*
X86338004Y-50912068D01*
X86237119Y-50976902D01*
X86237113Y-50976906D01*
X86232588Y-50979815D01*
X86229061Y-50983884D01*
X86229060Y-50983886D01*
X86150531Y-51074513D01*
X86150528Y-51074517D01*
X86147001Y-51078588D01*
X86144764Y-51083486D01*
X86144761Y-51083491D01*
X86094946Y-51192571D01*
X86094943Y-51192578D01*
X86092709Y-51197472D01*
X86091942Y-51202803D01*
X86091942Y-51202805D01*
X86082643Y-51267482D01*
X86074109Y-51326836D01*
X85574737Y-51326836D01*
X85592445Y-51181000D01*
X85571940Y-51012128D01*
X85511618Y-50853070D01*
X85414983Y-50713071D01*
X85382216Y-50684042D01*
X85291059Y-50603284D01*
X85291057Y-50603282D01*
X85287652Y-50600266D01*
X85283623Y-50598151D01*
X85283621Y-50598150D01*
X85141055Y-50523325D01*
X85141054Y-50523324D01*
X85137025Y-50521210D01*
X85132606Y-50520120D01*
X85132604Y-50520120D01*
X84976282Y-50481591D01*
X84971856Y-50480500D01*
X84801744Y-50480500D01*
X84797318Y-50481590D01*
X84797317Y-50481591D01*
X84640995Y-50520120D01*
X84640990Y-50520121D01*
X84636575Y-50521210D01*
X84632548Y-50523323D01*
X84632544Y-50523325D01*
X84489978Y-50598150D01*
X84489972Y-50598153D01*
X84485948Y-50600266D01*
X84482546Y-50603279D01*
X84482540Y-50603284D01*
X84362026Y-50710050D01*
X84362022Y-50710054D01*
X84358617Y-50713071D01*
X84356032Y-50716814D01*
X84356030Y-50716818D01*
X84264567Y-50849323D01*
X84264562Y-50849331D01*
X84261982Y-50853070D01*
X84260368Y-50857323D01*
X84260367Y-50857327D01*
X84203276Y-51007866D01*
X84201660Y-51012128D01*
X84201111Y-51016642D01*
X84201110Y-51016650D01*
X84187144Y-51131676D01*
X84181155Y-51181000D01*
X83712845Y-51181000D01*
X83692340Y-51012128D01*
X83632018Y-50853070D01*
X83535383Y-50713071D01*
X83502616Y-50684042D01*
X83411459Y-50603284D01*
X83411457Y-50603282D01*
X83408052Y-50600266D01*
X83404023Y-50598151D01*
X83404021Y-50598150D01*
X83261455Y-50523325D01*
X83261454Y-50523324D01*
X83257425Y-50521210D01*
X83253006Y-50520120D01*
X83253004Y-50520120D01*
X83096682Y-50481591D01*
X83092256Y-50480500D01*
X82922144Y-50480500D01*
X82917718Y-50481590D01*
X82917717Y-50481591D01*
X82761395Y-50520120D01*
X82761390Y-50520121D01*
X82756975Y-50521210D01*
X82752948Y-50523323D01*
X82752944Y-50523325D01*
X82610378Y-50598150D01*
X82610372Y-50598153D01*
X82606348Y-50600266D01*
X82602946Y-50603279D01*
X82602940Y-50603284D01*
X82482426Y-50710050D01*
X82482422Y-50710054D01*
X82479017Y-50713071D01*
X82476432Y-50716814D01*
X82476430Y-50716818D01*
X82384967Y-50849323D01*
X82384962Y-50849331D01*
X82382382Y-50853070D01*
X82380768Y-50857323D01*
X82380767Y-50857327D01*
X82323676Y-51007866D01*
X82322060Y-51012128D01*
X82321511Y-51016642D01*
X82321510Y-51016650D01*
X82307544Y-51131676D01*
X82301555Y-51181000D01*
X81067854Y-51181000D01*
X81043565Y-51122361D01*
X80958499Y-51011501D01*
X80917205Y-50979815D01*
X80851560Y-50929443D01*
X80851557Y-50929441D01*
X80847640Y-50926435D01*
X80843074Y-50924544D01*
X80843073Y-50924543D01*
X80723103Y-50874850D01*
X80723102Y-50874849D01*
X80718540Y-50872960D01*
X80713649Y-50872316D01*
X80713645Y-50872315D01*
X80584892Y-50855365D01*
X80580000Y-50854721D01*
X80575108Y-50855365D01*
X80446352Y-50872315D01*
X80446344Y-50872316D01*
X80441460Y-50872960D01*
X80436905Y-50874846D01*
X80436900Y-50874848D01*
X80316922Y-50924545D01*
X80316917Y-50924547D01*
X80312361Y-50926435D01*
X80308445Y-50929439D01*
X80308443Y-50929441D01*
X80205416Y-51008496D01*
X80205412Y-51008499D01*
X80201501Y-51011501D01*
X80198499Y-51015412D01*
X80198496Y-51015416D01*
X80136617Y-51096059D01*
X80116435Y-51122361D01*
X80114547Y-51126917D01*
X80114545Y-51126922D01*
X80064848Y-51246900D01*
X80064846Y-51246905D01*
X80062960Y-51251460D01*
X80062316Y-51256344D01*
X80062315Y-51256352D01*
X80050599Y-51345349D01*
X80044721Y-51390000D01*
X78985279Y-51390000D01*
X78967040Y-51251460D01*
X78913565Y-51122361D01*
X78828499Y-51011501D01*
X78787205Y-50979815D01*
X78721560Y-50929443D01*
X78721557Y-50929441D01*
X78717640Y-50926435D01*
X78713074Y-50924544D01*
X78713073Y-50924543D01*
X78593103Y-50874850D01*
X78593102Y-50874849D01*
X78588540Y-50872960D01*
X78583649Y-50872316D01*
X78583645Y-50872315D01*
X78454892Y-50855365D01*
X78450000Y-50854721D01*
X78445108Y-50855365D01*
X78316352Y-50872315D01*
X78316344Y-50872316D01*
X78311460Y-50872960D01*
X78306905Y-50874846D01*
X78306900Y-50874848D01*
X78186922Y-50924545D01*
X78186917Y-50924547D01*
X78182361Y-50926435D01*
X78178445Y-50929439D01*
X78178443Y-50929441D01*
X78075416Y-51008496D01*
X78075412Y-51008499D01*
X78071501Y-51011501D01*
X78068499Y-51015412D01*
X78068496Y-51015416D01*
X78006617Y-51096059D01*
X77986435Y-51122361D01*
X77984547Y-51126917D01*
X77984545Y-51126922D01*
X77934848Y-51246900D01*
X77934846Y-51246905D01*
X77932960Y-51251460D01*
X77932316Y-51256344D01*
X77932315Y-51256352D01*
X77920599Y-51345349D01*
X77914721Y-51390000D01*
X75985279Y-51390000D01*
X75967040Y-51251460D01*
X75913565Y-51122361D01*
X75828499Y-51011501D01*
X75787205Y-50979815D01*
X75721560Y-50929443D01*
X75721557Y-50929441D01*
X75717640Y-50926435D01*
X75713074Y-50924544D01*
X75713073Y-50924543D01*
X75593103Y-50874850D01*
X75593102Y-50874849D01*
X75588540Y-50872960D01*
X75583649Y-50872316D01*
X75583645Y-50872315D01*
X75454892Y-50855365D01*
X75450000Y-50854721D01*
X75445108Y-50855365D01*
X75316352Y-50872315D01*
X75316344Y-50872316D01*
X75311460Y-50872960D01*
X75306905Y-50874846D01*
X75306900Y-50874848D01*
X75186922Y-50924545D01*
X75186917Y-50924547D01*
X75182361Y-50926435D01*
X75178445Y-50929439D01*
X75178443Y-50929441D01*
X75075416Y-51008496D01*
X75075412Y-51008499D01*
X75071501Y-51011501D01*
X75068499Y-51015412D01*
X75068496Y-51015416D01*
X75006617Y-51096059D01*
X74986435Y-51122361D01*
X74984547Y-51126917D01*
X74984545Y-51126922D01*
X74934848Y-51246900D01*
X74934846Y-51246905D01*
X74932960Y-51251460D01*
X74932316Y-51256344D01*
X74932315Y-51256352D01*
X74920599Y-51345349D01*
X74914721Y-51390000D01*
X73855279Y-51390000D01*
X73837040Y-51251460D01*
X73783565Y-51122361D01*
X73698499Y-51011501D01*
X73657205Y-50979815D01*
X73591560Y-50929443D01*
X73591557Y-50929441D01*
X73587640Y-50926435D01*
X73583074Y-50924544D01*
X73583073Y-50924543D01*
X73463103Y-50874850D01*
X73463102Y-50874849D01*
X73458540Y-50872960D01*
X73453649Y-50872316D01*
X73453645Y-50872315D01*
X73324892Y-50855365D01*
X73320000Y-50854721D01*
X73315108Y-50855365D01*
X73186352Y-50872315D01*
X73186344Y-50872316D01*
X73181460Y-50872960D01*
X73176905Y-50874846D01*
X73176900Y-50874848D01*
X73056922Y-50924545D01*
X73056917Y-50924547D01*
X73052361Y-50926435D01*
X73048445Y-50929439D01*
X73048443Y-50929441D01*
X72945416Y-51008496D01*
X72945412Y-51008499D01*
X72941501Y-51011501D01*
X72938499Y-51015412D01*
X72938496Y-51015416D01*
X72876617Y-51096059D01*
X72856435Y-51122361D01*
X72854547Y-51126917D01*
X72854545Y-51126922D01*
X72804848Y-51246900D01*
X72804846Y-51246905D01*
X72802960Y-51251460D01*
X72802316Y-51256344D01*
X72802315Y-51256352D01*
X72790599Y-51345349D01*
X72784721Y-51390000D01*
X66421500Y-51390000D01*
X66421500Y-49129748D01*
X72609500Y-49129748D01*
X72610219Y-49133366D01*
X72610220Y-49133369D01*
X72619685Y-49180955D01*
X72619686Y-49180958D01*
X72621133Y-49188231D01*
X72625253Y-49194397D01*
X72625254Y-49194399D01*
X72653254Y-49236303D01*
X72665448Y-49254552D01*
X72731769Y-49298867D01*
X72790252Y-49310500D01*
X74526054Y-49310500D01*
X74529748Y-49310500D01*
X74588231Y-49298867D01*
X74654552Y-49254552D01*
X74698867Y-49188231D01*
X74710500Y-49129748D01*
X74710500Y-48397460D01*
X75104007Y-48397460D01*
X75109826Y-48460259D01*
X75111102Y-48467084D01*
X75165186Y-48657167D01*
X75167692Y-48663635D01*
X75255789Y-48840558D01*
X75259434Y-48846445D01*
X75378539Y-49004167D01*
X75383212Y-49009293D01*
X75529268Y-49142440D01*
X75534803Y-49146620D01*
X75702827Y-49250655D01*
X75709053Y-49253755D01*
X75893325Y-49325143D01*
X75900015Y-49327046D01*
X76062087Y-49357343D01*
X76070546Y-49356427D01*
X76073000Y-49348282D01*
X76327000Y-49348282D01*
X76329453Y-49356427D01*
X76337912Y-49357343D01*
X76499984Y-49327046D01*
X76506674Y-49325143D01*
X76690946Y-49253755D01*
X76697172Y-49250655D01*
X76865196Y-49146620D01*
X76870731Y-49142440D01*
X77016787Y-49009293D01*
X77021460Y-49004167D01*
X77140565Y-48846445D01*
X77144210Y-48840558D01*
X77232307Y-48663635D01*
X77234813Y-48657167D01*
X77288897Y-48467084D01*
X77290173Y-48460259D01*
X77295992Y-48397460D01*
X77294463Y-48389278D01*
X77286455Y-48387000D01*
X76336916Y-48387000D01*
X76329095Y-48389095D01*
X76327000Y-48396916D01*
X76327000Y-49348282D01*
X76073000Y-49348282D01*
X76073000Y-48396916D01*
X76070904Y-48389095D01*
X76063084Y-48387000D01*
X75113545Y-48387000D01*
X75105536Y-48389278D01*
X75104007Y-48397460D01*
X74710500Y-48397460D01*
X74710500Y-48260000D01*
X77684417Y-48260000D01*
X77684780Y-48263686D01*
X77704337Y-48462255D01*
X77704338Y-48462261D01*
X77704700Y-48465934D01*
X77705769Y-48469460D01*
X77705771Y-48469467D01*
X77747498Y-48607021D01*
X77764768Y-48663954D01*
X77766508Y-48667209D01*
X77766510Y-48667214D01*
X77823411Y-48773666D01*
X77862315Y-48846450D01*
X77993590Y-49006410D01*
X78153550Y-49137685D01*
X78336046Y-49235232D01*
X78534066Y-49295300D01*
X78740000Y-49315583D01*
X78945934Y-49295300D01*
X79143954Y-49235232D01*
X79326450Y-49137685D01*
X79486410Y-49006410D01*
X79617685Y-48846450D01*
X79715232Y-48663954D01*
X79775300Y-48465934D01*
X79795583Y-48260000D01*
X80224417Y-48260000D01*
X80224780Y-48263686D01*
X80244337Y-48462255D01*
X80244338Y-48462261D01*
X80244700Y-48465934D01*
X80245769Y-48469460D01*
X80245771Y-48469467D01*
X80287498Y-48607021D01*
X80304768Y-48663954D01*
X80306508Y-48667209D01*
X80306510Y-48667214D01*
X80363411Y-48773666D01*
X80402315Y-48846450D01*
X80533590Y-49006410D01*
X80693550Y-49137685D01*
X80876046Y-49235232D01*
X81074066Y-49295300D01*
X81280000Y-49315583D01*
X81485934Y-49295300D01*
X81683954Y-49235232D01*
X81866450Y-49137685D01*
X82026410Y-49006410D01*
X82157685Y-48846450D01*
X82255232Y-48663954D01*
X82315300Y-48465934D01*
X82335583Y-48260000D01*
X82764417Y-48260000D01*
X82764780Y-48263686D01*
X82784337Y-48462255D01*
X82784338Y-48462261D01*
X82784700Y-48465934D01*
X82785769Y-48469460D01*
X82785771Y-48469467D01*
X82827498Y-48607021D01*
X82844768Y-48663954D01*
X82846508Y-48667209D01*
X82846510Y-48667214D01*
X82903411Y-48773666D01*
X82942315Y-48846450D01*
X83073590Y-49006410D01*
X83233550Y-49137685D01*
X83416046Y-49235232D01*
X83614066Y-49295300D01*
X83820000Y-49315583D01*
X84025934Y-49295300D01*
X84223954Y-49235232D01*
X84406450Y-49137685D01*
X84566410Y-49006410D01*
X84697685Y-48846450D01*
X84795232Y-48663954D01*
X84855300Y-48465934D01*
X84875583Y-48260000D01*
X85304417Y-48260000D01*
X85304780Y-48263686D01*
X85324337Y-48462255D01*
X85324338Y-48462261D01*
X85324700Y-48465934D01*
X85325769Y-48469460D01*
X85325771Y-48469467D01*
X85367498Y-48607021D01*
X85384768Y-48663954D01*
X85386508Y-48667209D01*
X85386510Y-48667214D01*
X85443411Y-48773666D01*
X85482315Y-48846450D01*
X85613590Y-49006410D01*
X85773550Y-49137685D01*
X85956046Y-49235232D01*
X86154066Y-49295300D01*
X86360000Y-49315583D01*
X86565934Y-49295300D01*
X86763954Y-49235232D01*
X86946450Y-49137685D01*
X86963613Y-49123600D01*
X94028826Y-49123600D01*
X94029593Y-49128935D01*
X94039005Y-49194399D01*
X94047426Y-49252964D01*
X94049661Y-49257859D01*
X94049663Y-49257864D01*
X94099478Y-49366944D01*
X94101718Y-49371848D01*
X94187305Y-49470621D01*
X94297252Y-49541279D01*
X94422653Y-49578100D01*
X94547963Y-49578100D01*
X94553347Y-49578100D01*
X94678748Y-49541279D01*
X94788695Y-49470621D01*
X94874282Y-49371848D01*
X94928574Y-49252964D01*
X94946290Y-49129748D01*
X95469500Y-49129748D01*
X95470219Y-49133366D01*
X95470220Y-49133369D01*
X95479685Y-49180955D01*
X95479686Y-49180958D01*
X95481133Y-49188231D01*
X95485253Y-49194397D01*
X95485254Y-49194399D01*
X95513254Y-49236303D01*
X95525448Y-49254552D01*
X95591769Y-49298867D01*
X95650252Y-49310500D01*
X97386054Y-49310500D01*
X97389748Y-49310500D01*
X97448231Y-49298867D01*
X97514552Y-49254552D01*
X97558867Y-49188231D01*
X97570500Y-49129748D01*
X97570500Y-48260000D01*
X98004417Y-48260000D01*
X98004780Y-48263686D01*
X98024337Y-48462255D01*
X98024338Y-48462261D01*
X98024700Y-48465934D01*
X98025769Y-48469460D01*
X98025771Y-48469467D01*
X98067498Y-48607021D01*
X98084768Y-48663954D01*
X98086508Y-48667209D01*
X98086510Y-48667214D01*
X98143411Y-48773666D01*
X98182315Y-48846450D01*
X98313590Y-49006410D01*
X98473550Y-49137685D01*
X98656046Y-49235232D01*
X98854066Y-49295300D01*
X99060000Y-49315583D01*
X99265934Y-49295300D01*
X99463954Y-49235232D01*
X99646450Y-49137685D01*
X99806410Y-49006410D01*
X99937685Y-48846450D01*
X100035232Y-48663954D01*
X100095300Y-48465934D01*
X100115583Y-48260000D01*
X100544417Y-48260000D01*
X100544780Y-48263686D01*
X100564337Y-48462255D01*
X100564338Y-48462261D01*
X100564700Y-48465934D01*
X100565769Y-48469460D01*
X100565771Y-48469467D01*
X100607498Y-48607021D01*
X100624768Y-48663954D01*
X100626508Y-48667209D01*
X100626510Y-48667214D01*
X100683411Y-48773666D01*
X100722315Y-48846450D01*
X100853590Y-49006410D01*
X101013550Y-49137685D01*
X101196046Y-49235232D01*
X101394066Y-49295300D01*
X101600000Y-49315583D01*
X101805934Y-49295300D01*
X102003954Y-49235232D01*
X102186450Y-49137685D01*
X102346410Y-49006410D01*
X102477685Y-48846450D01*
X102575232Y-48663954D01*
X102635300Y-48465934D01*
X102655583Y-48260000D01*
X103084417Y-48260000D01*
X103084780Y-48263686D01*
X103104337Y-48462255D01*
X103104338Y-48462261D01*
X103104700Y-48465934D01*
X103105769Y-48469460D01*
X103105771Y-48469467D01*
X103147498Y-48607021D01*
X103164768Y-48663954D01*
X103166508Y-48667209D01*
X103166510Y-48667214D01*
X103223411Y-48773666D01*
X103262315Y-48846450D01*
X103393590Y-49006410D01*
X103553550Y-49137685D01*
X103736046Y-49235232D01*
X103934066Y-49295300D01*
X104140000Y-49315583D01*
X104345934Y-49295300D01*
X104543954Y-49235232D01*
X104726450Y-49137685D01*
X104886410Y-49006410D01*
X105017685Y-48846450D01*
X105115232Y-48663954D01*
X105175300Y-48465934D01*
X105195583Y-48260000D01*
X105624417Y-48260000D01*
X105624780Y-48263686D01*
X105644337Y-48462255D01*
X105644338Y-48462261D01*
X105644700Y-48465934D01*
X105645769Y-48469460D01*
X105645771Y-48469467D01*
X105687498Y-48607021D01*
X105704768Y-48663954D01*
X105706508Y-48667209D01*
X105706510Y-48667214D01*
X105763411Y-48773666D01*
X105802315Y-48846450D01*
X105933590Y-49006410D01*
X106093550Y-49137685D01*
X106276046Y-49235232D01*
X106474066Y-49295300D01*
X106680000Y-49315583D01*
X106885934Y-49295300D01*
X107083954Y-49235232D01*
X107266450Y-49137685D01*
X107426410Y-49006410D01*
X107557685Y-48846450D01*
X107655232Y-48663954D01*
X107715300Y-48465934D01*
X107735583Y-48260000D01*
X108164417Y-48260000D01*
X108164780Y-48263686D01*
X108184337Y-48462255D01*
X108184338Y-48462261D01*
X108184700Y-48465934D01*
X108185769Y-48469460D01*
X108185771Y-48469467D01*
X108227498Y-48607021D01*
X108244768Y-48663954D01*
X108246508Y-48667209D01*
X108246510Y-48667214D01*
X108303411Y-48773666D01*
X108342315Y-48846450D01*
X108473590Y-49006410D01*
X108633550Y-49137685D01*
X108816046Y-49235232D01*
X109014066Y-49295300D01*
X109220000Y-49315583D01*
X109425934Y-49295300D01*
X109623954Y-49235232D01*
X109806450Y-49137685D01*
X109966410Y-49006410D01*
X110097685Y-48846450D01*
X110195232Y-48663954D01*
X110255300Y-48465934D01*
X110275583Y-48260000D01*
X110255300Y-48054066D01*
X110195232Y-47856046D01*
X110097685Y-47673550D01*
X109966410Y-47513590D01*
X109806450Y-47382315D01*
X109761342Y-47358204D01*
X109627214Y-47286510D01*
X109627209Y-47286508D01*
X109623954Y-47284768D01*
X109580591Y-47271614D01*
X109429467Y-47225771D01*
X109429460Y-47225769D01*
X109425934Y-47224700D01*
X109422261Y-47224338D01*
X109422255Y-47224337D01*
X109223686Y-47204780D01*
X109220000Y-47204417D01*
X109216314Y-47204780D01*
X109017744Y-47224337D01*
X109017736Y-47224338D01*
X109014066Y-47224700D01*
X109010541Y-47225769D01*
X109010532Y-47225771D01*
X108819579Y-47283696D01*
X108819576Y-47283697D01*
X108816046Y-47284768D01*
X108812793Y-47286506D01*
X108812785Y-47286510D01*
X108636812Y-47380571D01*
X108636808Y-47380573D01*
X108633550Y-47382315D01*
X108630697Y-47384656D01*
X108630693Y-47384659D01*
X108476445Y-47511246D01*
X108476439Y-47511251D01*
X108473590Y-47513590D01*
X108471251Y-47516439D01*
X108471246Y-47516445D01*
X108344659Y-47670693D01*
X108344656Y-47670697D01*
X108342315Y-47673550D01*
X108340573Y-47676808D01*
X108340571Y-47676812D01*
X108246510Y-47852785D01*
X108246506Y-47852793D01*
X108244768Y-47856046D01*
X108243697Y-47859576D01*
X108243696Y-47859579D01*
X108185771Y-48050532D01*
X108185769Y-48050541D01*
X108184700Y-48054066D01*
X108184338Y-48057736D01*
X108184337Y-48057744D01*
X108176633Y-48135969D01*
X108164417Y-48260000D01*
X107735583Y-48260000D01*
X107715300Y-48054066D01*
X107655232Y-47856046D01*
X107557685Y-47673550D01*
X107426410Y-47513590D01*
X107266450Y-47382315D01*
X107221342Y-47358204D01*
X107087214Y-47286510D01*
X107087209Y-47286508D01*
X107083954Y-47284768D01*
X107040591Y-47271614D01*
X106889467Y-47225771D01*
X106889460Y-47225769D01*
X106885934Y-47224700D01*
X106882261Y-47224338D01*
X106882255Y-47224337D01*
X106683686Y-47204780D01*
X106680000Y-47204417D01*
X106676314Y-47204780D01*
X106477744Y-47224337D01*
X106477736Y-47224338D01*
X106474066Y-47224700D01*
X106470541Y-47225769D01*
X106470532Y-47225771D01*
X106279579Y-47283696D01*
X106279576Y-47283697D01*
X106276046Y-47284768D01*
X106272793Y-47286506D01*
X106272785Y-47286510D01*
X106096812Y-47380571D01*
X106096808Y-47380573D01*
X106093550Y-47382315D01*
X106090697Y-47384656D01*
X106090693Y-47384659D01*
X105936445Y-47511246D01*
X105936439Y-47511251D01*
X105933590Y-47513590D01*
X105931251Y-47516439D01*
X105931246Y-47516445D01*
X105804659Y-47670693D01*
X105804656Y-47670697D01*
X105802315Y-47673550D01*
X105800573Y-47676808D01*
X105800571Y-47676812D01*
X105706510Y-47852785D01*
X105706506Y-47852793D01*
X105704768Y-47856046D01*
X105703697Y-47859576D01*
X105703696Y-47859579D01*
X105645771Y-48050532D01*
X105645769Y-48050541D01*
X105644700Y-48054066D01*
X105644338Y-48057736D01*
X105644337Y-48057744D01*
X105636633Y-48135969D01*
X105624417Y-48260000D01*
X105195583Y-48260000D01*
X105175300Y-48054066D01*
X105115232Y-47856046D01*
X105017685Y-47673550D01*
X104886410Y-47513590D01*
X104726450Y-47382315D01*
X104681342Y-47358204D01*
X104547214Y-47286510D01*
X104547209Y-47286508D01*
X104543954Y-47284768D01*
X104500591Y-47271614D01*
X104349467Y-47225771D01*
X104349460Y-47225769D01*
X104345934Y-47224700D01*
X104342261Y-47224338D01*
X104342255Y-47224337D01*
X104143686Y-47204780D01*
X104140000Y-47204417D01*
X104136314Y-47204780D01*
X103937744Y-47224337D01*
X103937736Y-47224338D01*
X103934066Y-47224700D01*
X103930541Y-47225769D01*
X103930532Y-47225771D01*
X103739579Y-47283696D01*
X103739576Y-47283697D01*
X103736046Y-47284768D01*
X103732793Y-47286506D01*
X103732785Y-47286510D01*
X103556812Y-47380571D01*
X103556808Y-47380573D01*
X103553550Y-47382315D01*
X103550697Y-47384656D01*
X103550693Y-47384659D01*
X103396445Y-47511246D01*
X103396439Y-47511251D01*
X103393590Y-47513590D01*
X103391251Y-47516439D01*
X103391246Y-47516445D01*
X103264659Y-47670693D01*
X103264656Y-47670697D01*
X103262315Y-47673550D01*
X103260573Y-47676808D01*
X103260571Y-47676812D01*
X103166510Y-47852785D01*
X103166506Y-47852793D01*
X103164768Y-47856046D01*
X103163697Y-47859576D01*
X103163696Y-47859579D01*
X103105771Y-48050532D01*
X103105769Y-48050541D01*
X103104700Y-48054066D01*
X103104338Y-48057736D01*
X103104337Y-48057744D01*
X103096633Y-48135969D01*
X103084417Y-48260000D01*
X102655583Y-48260000D01*
X102635300Y-48054066D01*
X102575232Y-47856046D01*
X102477685Y-47673550D01*
X102346410Y-47513590D01*
X102186450Y-47382315D01*
X102141342Y-47358204D01*
X102007214Y-47286510D01*
X102007209Y-47286508D01*
X102003954Y-47284768D01*
X101960591Y-47271614D01*
X101809467Y-47225771D01*
X101809460Y-47225769D01*
X101805934Y-47224700D01*
X101802261Y-47224338D01*
X101802255Y-47224337D01*
X101603686Y-47204780D01*
X101600000Y-47204417D01*
X101596314Y-47204780D01*
X101397744Y-47224337D01*
X101397736Y-47224338D01*
X101394066Y-47224700D01*
X101390541Y-47225769D01*
X101390532Y-47225771D01*
X101199579Y-47283696D01*
X101199576Y-47283697D01*
X101196046Y-47284768D01*
X101192793Y-47286506D01*
X101192785Y-47286510D01*
X101016812Y-47380571D01*
X101016808Y-47380573D01*
X101013550Y-47382315D01*
X101010697Y-47384656D01*
X101010693Y-47384659D01*
X100856445Y-47511246D01*
X100856439Y-47511251D01*
X100853590Y-47513590D01*
X100851251Y-47516439D01*
X100851246Y-47516445D01*
X100724659Y-47670693D01*
X100724656Y-47670697D01*
X100722315Y-47673550D01*
X100720573Y-47676808D01*
X100720571Y-47676812D01*
X100626510Y-47852785D01*
X100626506Y-47852793D01*
X100624768Y-47856046D01*
X100623697Y-47859576D01*
X100623696Y-47859579D01*
X100565771Y-48050532D01*
X100565769Y-48050541D01*
X100564700Y-48054066D01*
X100564338Y-48057736D01*
X100564337Y-48057744D01*
X100556633Y-48135969D01*
X100544417Y-48260000D01*
X100115583Y-48260000D01*
X100095300Y-48054066D01*
X100035232Y-47856046D01*
X99937685Y-47673550D01*
X99806410Y-47513590D01*
X99646450Y-47382315D01*
X99601342Y-47358204D01*
X99467214Y-47286510D01*
X99467209Y-47286508D01*
X99463954Y-47284768D01*
X99420591Y-47271614D01*
X99269467Y-47225771D01*
X99269460Y-47225769D01*
X99265934Y-47224700D01*
X99262261Y-47224338D01*
X99262255Y-47224337D01*
X99063686Y-47204780D01*
X99060000Y-47204417D01*
X99056314Y-47204780D01*
X98857744Y-47224337D01*
X98857736Y-47224338D01*
X98854066Y-47224700D01*
X98850541Y-47225769D01*
X98850532Y-47225771D01*
X98659579Y-47283696D01*
X98659576Y-47283697D01*
X98656046Y-47284768D01*
X98652793Y-47286506D01*
X98652785Y-47286510D01*
X98476812Y-47380571D01*
X98476808Y-47380573D01*
X98473550Y-47382315D01*
X98470697Y-47384656D01*
X98470693Y-47384659D01*
X98316445Y-47511246D01*
X98316439Y-47511251D01*
X98313590Y-47513590D01*
X98311251Y-47516439D01*
X98311246Y-47516445D01*
X98184659Y-47670693D01*
X98184656Y-47670697D01*
X98182315Y-47673550D01*
X98180573Y-47676808D01*
X98180571Y-47676812D01*
X98086510Y-47852785D01*
X98086506Y-47852793D01*
X98084768Y-47856046D01*
X98083697Y-47859576D01*
X98083696Y-47859579D01*
X98025771Y-48050532D01*
X98025769Y-48050541D01*
X98024700Y-48054066D01*
X98024338Y-48057736D01*
X98024337Y-48057744D01*
X98016633Y-48135969D01*
X98004417Y-48260000D01*
X97570500Y-48260000D01*
X97570500Y-47390252D01*
X97558867Y-47331769D01*
X97514552Y-47265448D01*
X97508385Y-47261327D01*
X97454399Y-47225254D01*
X97454397Y-47225253D01*
X97448231Y-47221133D01*
X97440958Y-47219686D01*
X97440955Y-47219685D01*
X97393369Y-47210220D01*
X97393366Y-47210219D01*
X97389748Y-47209500D01*
X95650252Y-47209500D01*
X95646634Y-47210219D01*
X95646630Y-47210220D01*
X95599044Y-47219685D01*
X95599039Y-47219686D01*
X95591769Y-47221133D01*
X95585604Y-47225252D01*
X95585600Y-47225254D01*
X95531614Y-47261327D01*
X95531611Y-47261329D01*
X95525448Y-47265448D01*
X95521329Y-47271611D01*
X95521327Y-47271614D01*
X95485254Y-47325600D01*
X95485252Y-47325604D01*
X95481133Y-47331769D01*
X95479686Y-47339039D01*
X95479685Y-47339044D01*
X95470220Y-47386630D01*
X95469500Y-47390252D01*
X95469500Y-49129748D01*
X94946290Y-49129748D01*
X94947174Y-49123600D01*
X94928574Y-48994236D01*
X94874282Y-48875352D01*
X94788695Y-48776579D01*
X94784165Y-48773667D01*
X94784163Y-48773666D01*
X94683278Y-48708832D01*
X94683276Y-48708831D01*
X94678748Y-48705921D01*
X94673582Y-48704404D01*
X94558511Y-48670616D01*
X94558509Y-48670615D01*
X94553347Y-48669100D01*
X94422653Y-48669100D01*
X94417491Y-48670615D01*
X94417488Y-48670616D01*
X94302417Y-48704404D01*
X94302414Y-48704405D01*
X94297252Y-48705921D01*
X94292725Y-48708829D01*
X94292721Y-48708832D01*
X94191836Y-48773666D01*
X94191830Y-48773670D01*
X94187305Y-48776579D01*
X94183778Y-48780648D01*
X94183777Y-48780650D01*
X94105248Y-48871277D01*
X94105245Y-48871281D01*
X94101718Y-48875352D01*
X94099481Y-48880250D01*
X94099478Y-48880255D01*
X94049663Y-48989335D01*
X94049660Y-48989342D01*
X94047426Y-48994236D01*
X94046659Y-48999567D01*
X94046659Y-48999569D01*
X94045339Y-49008753D01*
X94028826Y-49123600D01*
X86963613Y-49123600D01*
X87106410Y-49006410D01*
X87237685Y-48846450D01*
X87335232Y-48663954D01*
X87395300Y-48465934D01*
X87415583Y-48260000D01*
X87395300Y-48054066D01*
X87335232Y-47856046D01*
X87237685Y-47673550D01*
X87106410Y-47513590D01*
X86946450Y-47382315D01*
X86901342Y-47358204D01*
X86767214Y-47286510D01*
X86767209Y-47286508D01*
X86763954Y-47284768D01*
X86720591Y-47271614D01*
X86629560Y-47244000D01*
X88016555Y-47244000D01*
X88017104Y-47248521D01*
X88036510Y-47408349D01*
X88036511Y-47408355D01*
X88037060Y-47412872D01*
X88038676Y-47417133D01*
X88076339Y-47516445D01*
X88097382Y-47571930D01*
X88099964Y-47575671D01*
X88099967Y-47575676D01*
X88165554Y-47670693D01*
X88194017Y-47711929D01*
X88321348Y-47824734D01*
X88471975Y-47903790D01*
X88637144Y-47944500D01*
X88802697Y-47944500D01*
X88807256Y-47944500D01*
X88972425Y-47903790D01*
X89123052Y-47824734D01*
X89176481Y-47777400D01*
X91933026Y-47777400D01*
X91951626Y-47906764D01*
X91953861Y-47911659D01*
X91953863Y-47911664D01*
X91968859Y-47944500D01*
X92005918Y-48025648D01*
X92091505Y-48124421D01*
X92201452Y-48195079D01*
X92326853Y-48231900D01*
X92452163Y-48231900D01*
X92457547Y-48231900D01*
X92582948Y-48195079D01*
X92692895Y-48124421D01*
X92778482Y-48025648D01*
X92832774Y-47906764D01*
X92851374Y-47777400D01*
X92832774Y-47648036D01*
X92778482Y-47529152D01*
X92692895Y-47430379D01*
X92688365Y-47427467D01*
X92688363Y-47427466D01*
X92587478Y-47362632D01*
X92587476Y-47362631D01*
X92582948Y-47359721D01*
X92577782Y-47358204D01*
X92462711Y-47324416D01*
X92462709Y-47324415D01*
X92457547Y-47322900D01*
X92326853Y-47322900D01*
X92321691Y-47324415D01*
X92321688Y-47324416D01*
X92206617Y-47358204D01*
X92206614Y-47358205D01*
X92201452Y-47359721D01*
X92196925Y-47362629D01*
X92196921Y-47362632D01*
X92096036Y-47427466D01*
X92096030Y-47427470D01*
X92091505Y-47430379D01*
X92087978Y-47434448D01*
X92087977Y-47434450D01*
X92009448Y-47525077D01*
X92009445Y-47525081D01*
X92005918Y-47529152D01*
X92003681Y-47534050D01*
X92003678Y-47534055D01*
X91953863Y-47643135D01*
X91953860Y-47643142D01*
X91951626Y-47648036D01*
X91950859Y-47653367D01*
X91950859Y-47653369D01*
X91942978Y-47708181D01*
X91933026Y-47777400D01*
X89176481Y-47777400D01*
X89250383Y-47711929D01*
X89347018Y-47571930D01*
X89407340Y-47412872D01*
X89427845Y-47244000D01*
X89407340Y-47075128D01*
X89347018Y-46916070D01*
X89250383Y-46776071D01*
X89235855Y-46763200D01*
X114450426Y-46763200D01*
X114469026Y-46892564D01*
X114471261Y-46897459D01*
X114471263Y-46897464D01*
X114521078Y-47006544D01*
X114523318Y-47011448D01*
X114608905Y-47110221D01*
X114718852Y-47180879D01*
X114844253Y-47217700D01*
X114969563Y-47217700D01*
X114974947Y-47217700D01*
X115100348Y-47180879D01*
X115210295Y-47110221D01*
X115295882Y-47011448D01*
X115350174Y-46892564D01*
X115368774Y-46763200D01*
X115350174Y-46633836D01*
X115295882Y-46514952D01*
X115210295Y-46416179D01*
X115205765Y-46413267D01*
X115205763Y-46413266D01*
X115104878Y-46348432D01*
X115104876Y-46348431D01*
X115100348Y-46345521D01*
X115095182Y-46344004D01*
X114980111Y-46310216D01*
X114980109Y-46310215D01*
X114974947Y-46308700D01*
X114844253Y-46308700D01*
X114839091Y-46310215D01*
X114839088Y-46310216D01*
X114724017Y-46344004D01*
X114724014Y-46344005D01*
X114718852Y-46345521D01*
X114714325Y-46348429D01*
X114714321Y-46348432D01*
X114613436Y-46413266D01*
X114613430Y-46413270D01*
X114608905Y-46416179D01*
X114605378Y-46420248D01*
X114605377Y-46420250D01*
X114526848Y-46510877D01*
X114526845Y-46510881D01*
X114523318Y-46514952D01*
X114521081Y-46519850D01*
X114521078Y-46519855D01*
X114471263Y-46628935D01*
X114471260Y-46628942D01*
X114469026Y-46633836D01*
X114468259Y-46639167D01*
X114468259Y-46639169D01*
X114451193Y-46757865D01*
X114450426Y-46763200D01*
X89235855Y-46763200D01*
X89123052Y-46663266D01*
X89119023Y-46661151D01*
X89119021Y-46661150D01*
X88976455Y-46586325D01*
X88976454Y-46586324D01*
X88972425Y-46584210D01*
X88968006Y-46583120D01*
X88968004Y-46583120D01*
X88811682Y-46544591D01*
X88807256Y-46543500D01*
X88637144Y-46543500D01*
X88632718Y-46544590D01*
X88632717Y-46544591D01*
X88476395Y-46583120D01*
X88476390Y-46583121D01*
X88471975Y-46584210D01*
X88467948Y-46586323D01*
X88467944Y-46586325D01*
X88325378Y-46661150D01*
X88325372Y-46661153D01*
X88321348Y-46663266D01*
X88317946Y-46666279D01*
X88317940Y-46666284D01*
X88197426Y-46773050D01*
X88197422Y-46773054D01*
X88194017Y-46776071D01*
X88191432Y-46779814D01*
X88191430Y-46779818D01*
X88099967Y-46912323D01*
X88099962Y-46912331D01*
X88097382Y-46916070D01*
X88095768Y-46920323D01*
X88095767Y-46920327D01*
X88063070Y-47006544D01*
X88037060Y-47075128D01*
X88036511Y-47079642D01*
X88036510Y-47079650D01*
X88024573Y-47177967D01*
X88016555Y-47244000D01*
X86629560Y-47244000D01*
X86569467Y-47225771D01*
X86569460Y-47225769D01*
X86565934Y-47224700D01*
X86562261Y-47224338D01*
X86562255Y-47224337D01*
X86363686Y-47204780D01*
X86360000Y-47204417D01*
X86356314Y-47204780D01*
X86157744Y-47224337D01*
X86157736Y-47224338D01*
X86154066Y-47224700D01*
X86150541Y-47225769D01*
X86150532Y-47225771D01*
X85959579Y-47283696D01*
X85959576Y-47283697D01*
X85956046Y-47284768D01*
X85952793Y-47286506D01*
X85952785Y-47286510D01*
X85776812Y-47380571D01*
X85776808Y-47380573D01*
X85773550Y-47382315D01*
X85770697Y-47384656D01*
X85770693Y-47384659D01*
X85616445Y-47511246D01*
X85616439Y-47511251D01*
X85613590Y-47513590D01*
X85611251Y-47516439D01*
X85611246Y-47516445D01*
X85484659Y-47670693D01*
X85484656Y-47670697D01*
X85482315Y-47673550D01*
X85480573Y-47676808D01*
X85480571Y-47676812D01*
X85386510Y-47852785D01*
X85386506Y-47852793D01*
X85384768Y-47856046D01*
X85383697Y-47859576D01*
X85383696Y-47859579D01*
X85325771Y-48050532D01*
X85325769Y-48050541D01*
X85324700Y-48054066D01*
X85324338Y-48057736D01*
X85324337Y-48057744D01*
X85316633Y-48135969D01*
X85304417Y-48260000D01*
X84875583Y-48260000D01*
X84855300Y-48054066D01*
X84795232Y-47856046D01*
X84697685Y-47673550D01*
X84566410Y-47513590D01*
X84406450Y-47382315D01*
X84361342Y-47358204D01*
X84227214Y-47286510D01*
X84227209Y-47286508D01*
X84223954Y-47284768D01*
X84180591Y-47271614D01*
X84029467Y-47225771D01*
X84029460Y-47225769D01*
X84025934Y-47224700D01*
X84022261Y-47224338D01*
X84022255Y-47224337D01*
X83823686Y-47204780D01*
X83820000Y-47204417D01*
X83816314Y-47204780D01*
X83617744Y-47224337D01*
X83617736Y-47224338D01*
X83614066Y-47224700D01*
X83610541Y-47225769D01*
X83610532Y-47225771D01*
X83419579Y-47283696D01*
X83419576Y-47283697D01*
X83416046Y-47284768D01*
X83412793Y-47286506D01*
X83412785Y-47286510D01*
X83236812Y-47380571D01*
X83236808Y-47380573D01*
X83233550Y-47382315D01*
X83230697Y-47384656D01*
X83230693Y-47384659D01*
X83076445Y-47511246D01*
X83076439Y-47511251D01*
X83073590Y-47513590D01*
X83071251Y-47516439D01*
X83071246Y-47516445D01*
X82944659Y-47670693D01*
X82944656Y-47670697D01*
X82942315Y-47673550D01*
X82940573Y-47676808D01*
X82940571Y-47676812D01*
X82846510Y-47852785D01*
X82846506Y-47852793D01*
X82844768Y-47856046D01*
X82843697Y-47859576D01*
X82843696Y-47859579D01*
X82785771Y-48050532D01*
X82785769Y-48050541D01*
X82784700Y-48054066D01*
X82784338Y-48057736D01*
X82784337Y-48057744D01*
X82776633Y-48135969D01*
X82764417Y-48260000D01*
X82335583Y-48260000D01*
X82315300Y-48054066D01*
X82255232Y-47856046D01*
X82157685Y-47673550D01*
X82026410Y-47513590D01*
X81866450Y-47382315D01*
X81821342Y-47358204D01*
X81687214Y-47286510D01*
X81687209Y-47286508D01*
X81683954Y-47284768D01*
X81640591Y-47271614D01*
X81489467Y-47225771D01*
X81489460Y-47225769D01*
X81485934Y-47224700D01*
X81482261Y-47224338D01*
X81482255Y-47224337D01*
X81283686Y-47204780D01*
X81280000Y-47204417D01*
X81276314Y-47204780D01*
X81077744Y-47224337D01*
X81077736Y-47224338D01*
X81074066Y-47224700D01*
X81070541Y-47225769D01*
X81070532Y-47225771D01*
X80879579Y-47283696D01*
X80879576Y-47283697D01*
X80876046Y-47284768D01*
X80872793Y-47286506D01*
X80872785Y-47286510D01*
X80696812Y-47380571D01*
X80696808Y-47380573D01*
X80693550Y-47382315D01*
X80690697Y-47384656D01*
X80690693Y-47384659D01*
X80536445Y-47511246D01*
X80536439Y-47511251D01*
X80533590Y-47513590D01*
X80531251Y-47516439D01*
X80531246Y-47516445D01*
X80404659Y-47670693D01*
X80404656Y-47670697D01*
X80402315Y-47673550D01*
X80400573Y-47676808D01*
X80400571Y-47676812D01*
X80306510Y-47852785D01*
X80306506Y-47852793D01*
X80304768Y-47856046D01*
X80303697Y-47859576D01*
X80303696Y-47859579D01*
X80245771Y-48050532D01*
X80245769Y-48050541D01*
X80244700Y-48054066D01*
X80244338Y-48057736D01*
X80244337Y-48057744D01*
X80236633Y-48135969D01*
X80224417Y-48260000D01*
X79795583Y-48260000D01*
X79775300Y-48054066D01*
X79715232Y-47856046D01*
X79617685Y-47673550D01*
X79486410Y-47513590D01*
X79326450Y-47382315D01*
X79281342Y-47358204D01*
X79147214Y-47286510D01*
X79147209Y-47286508D01*
X79143954Y-47284768D01*
X79100591Y-47271614D01*
X78949467Y-47225771D01*
X78949460Y-47225769D01*
X78945934Y-47224700D01*
X78942261Y-47224338D01*
X78942255Y-47224337D01*
X78743686Y-47204780D01*
X78740000Y-47204417D01*
X78736314Y-47204780D01*
X78537744Y-47224337D01*
X78537736Y-47224338D01*
X78534066Y-47224700D01*
X78530541Y-47225769D01*
X78530532Y-47225771D01*
X78339579Y-47283696D01*
X78339576Y-47283697D01*
X78336046Y-47284768D01*
X78332793Y-47286506D01*
X78332785Y-47286510D01*
X78156812Y-47380571D01*
X78156808Y-47380573D01*
X78153550Y-47382315D01*
X78150697Y-47384656D01*
X78150693Y-47384659D01*
X77996445Y-47511246D01*
X77996439Y-47511251D01*
X77993590Y-47513590D01*
X77991251Y-47516439D01*
X77991246Y-47516445D01*
X77864659Y-47670693D01*
X77864656Y-47670697D01*
X77862315Y-47673550D01*
X77860573Y-47676808D01*
X77860571Y-47676812D01*
X77766510Y-47852785D01*
X77766506Y-47852793D01*
X77764768Y-47856046D01*
X77763697Y-47859576D01*
X77763696Y-47859579D01*
X77705771Y-48050532D01*
X77705769Y-48050541D01*
X77704700Y-48054066D01*
X77704338Y-48057736D01*
X77704337Y-48057744D01*
X77696633Y-48135969D01*
X77684417Y-48260000D01*
X74710500Y-48260000D01*
X74710500Y-48122539D01*
X75104007Y-48122539D01*
X75105536Y-48130721D01*
X75113545Y-48133000D01*
X76063084Y-48133000D01*
X76070904Y-48130904D01*
X76073000Y-48123084D01*
X76327000Y-48123084D01*
X76329095Y-48130904D01*
X76336916Y-48133000D01*
X77286455Y-48133000D01*
X77294463Y-48130721D01*
X77295992Y-48122539D01*
X77290173Y-48059740D01*
X77288897Y-48052915D01*
X77234813Y-47862832D01*
X77232307Y-47856364D01*
X77144210Y-47679441D01*
X77140565Y-47673554D01*
X77021460Y-47515832D01*
X77016787Y-47510706D01*
X76870731Y-47377559D01*
X76865196Y-47373379D01*
X76697172Y-47269344D01*
X76690946Y-47266244D01*
X76506674Y-47194856D01*
X76499984Y-47192953D01*
X76337912Y-47162656D01*
X76329453Y-47163572D01*
X76327000Y-47171718D01*
X76327000Y-48123084D01*
X76073000Y-48123084D01*
X76073000Y-47171718D01*
X76070546Y-47163572D01*
X76062087Y-47162656D01*
X75900015Y-47192953D01*
X75893325Y-47194856D01*
X75709053Y-47266244D01*
X75702827Y-47269344D01*
X75534803Y-47373379D01*
X75529268Y-47377559D01*
X75383212Y-47510706D01*
X75378539Y-47515832D01*
X75259434Y-47673554D01*
X75255789Y-47679441D01*
X75167692Y-47856364D01*
X75165186Y-47862832D01*
X75111102Y-48052915D01*
X75109826Y-48059740D01*
X75104007Y-48122539D01*
X74710500Y-48122539D01*
X74710500Y-47390252D01*
X74698867Y-47331769D01*
X74654552Y-47265448D01*
X74648385Y-47261327D01*
X74594399Y-47225254D01*
X74594397Y-47225253D01*
X74588231Y-47221133D01*
X74580958Y-47219686D01*
X74580955Y-47219685D01*
X74533369Y-47210220D01*
X74533366Y-47210219D01*
X74529748Y-47209500D01*
X72790252Y-47209500D01*
X72786634Y-47210219D01*
X72786630Y-47210220D01*
X72739044Y-47219685D01*
X72739039Y-47219686D01*
X72731769Y-47221133D01*
X72725604Y-47225252D01*
X72725600Y-47225254D01*
X72671614Y-47261327D01*
X72671611Y-47261329D01*
X72665448Y-47265448D01*
X72661329Y-47271611D01*
X72661327Y-47271614D01*
X72625254Y-47325600D01*
X72625252Y-47325604D01*
X72621133Y-47331769D01*
X72619686Y-47339039D01*
X72619685Y-47339044D01*
X72610220Y-47386630D01*
X72609500Y-47390252D01*
X72609500Y-49129748D01*
X66421500Y-49129748D01*
X66421500Y-48260000D01*
X70078026Y-48260000D01*
X70096626Y-48389364D01*
X70098861Y-48394259D01*
X70098863Y-48394264D01*
X70132119Y-48467084D01*
X70150918Y-48508248D01*
X70236505Y-48607021D01*
X70346452Y-48677679D01*
X70471853Y-48714500D01*
X70597163Y-48714500D01*
X70602547Y-48714500D01*
X70727948Y-48677679D01*
X70837895Y-48607021D01*
X70923482Y-48508248D01*
X70977774Y-48389364D01*
X70996374Y-48260000D01*
X70977774Y-48130636D01*
X70923482Y-48011752D01*
X70837895Y-47912979D01*
X70833365Y-47910067D01*
X70833363Y-47910066D01*
X70732478Y-47845232D01*
X70732476Y-47845231D01*
X70727948Y-47842321D01*
X70722782Y-47840804D01*
X70607711Y-47807016D01*
X70607709Y-47807015D01*
X70602547Y-47805500D01*
X70471853Y-47805500D01*
X70466691Y-47807015D01*
X70466688Y-47807016D01*
X70351617Y-47840804D01*
X70351614Y-47840805D01*
X70346452Y-47842321D01*
X70341925Y-47845229D01*
X70341921Y-47845232D01*
X70241036Y-47910066D01*
X70241030Y-47910070D01*
X70236505Y-47912979D01*
X70232978Y-47917048D01*
X70232977Y-47917050D01*
X70154448Y-48007677D01*
X70154445Y-48007681D01*
X70150918Y-48011752D01*
X70148681Y-48016650D01*
X70148678Y-48016655D01*
X70098863Y-48125735D01*
X70098860Y-48125742D01*
X70096626Y-48130636D01*
X70078026Y-48260000D01*
X66421500Y-48260000D01*
X66421500Y-46176827D01*
X66431592Y-46139164D01*
X66459164Y-46111592D01*
X66496827Y-46101500D01*
X116383173Y-46101500D01*
X116420837Y-46111592D01*
G37*
%TD.AperFunction*%
%TD*%
M02*
